<svg xmlns="http://www.w3.org/2000/svg" width="50" height="50" fill="none" viewBox="0 0 50 50"><g fill="#8b1e1e" clip-path="url(#a)"><path d="M48.476 33.477a.3.3 0 1 0 0 .601.3.3 0 0 0 0-.601m0 1.94a.3.3 0 1 0 0 .601.3.3 0 0 0 0-.602m0 1.94a.3.3 0 1 0 0 .602.3.3 0 0 0 0-.602m-.933-4.886a.3.3 0 1 0 0 .602.3.3 0 0 0 0-.602m.931-.931a.3.3 0 1 0 0 .601.3.3 0 0 0 0-.601m-1.938 1.938a.3.3 0 1 0 0 .601.3.3 0 0 0 0-.601m1.007 1.535a.3.3 0 1 0 0-.602.3.3 0 0 0 0 .602m-1.007 1.006a.3.3 0 1 0 0-.601.3.3 0 0 0 0 .601m1.007.332a.3.3 0 1 0 0 .601.3.3 0 0 0 0-.601m-1.007 1.608a.3.3 0 1 0 0-.602.3.3 0 0 0 0 .602m1.007.933a.3.3 0 1 0 0-.601.3.3 0 0 0 0 .601m-1.94-5.819a.3.3 0 1 0 0-.602.3.3 0 0 0 0 .602m-1.006 1.006a.3.3 0 1 0 0-.601.3.3 0 0 0 0 .601m1.006.934a.3.3 0 1 0 0-.602.3.3 0 0 0 0 .602m-1.006 1.006a.3.3 0 1 0 0-.602.3.3 0 0 0 0 .602m1.006.933a.3.3 0 1 0 0-.601.3.3 0 0 0 0 .601m-1.006 1.007a.3.3 0 1 0 0-.602.3.3 0 0 0 0 .602m1.006.933a.3.3 0 1 0 0-.601.3.3 0 0 0 0 .601m-1.94-5.819a.3.3 0 1 0 0-.602.3.3 0 0 0 0 .602m-1.006 1.006a.3.3 0 1 0 0-.601.3.3 0 0 0 0 .601m1.006.934a.3.3 0 1 0 0-.602.3.3 0 0 0 0 .602m-1.006 1.006a.3.3 0 1 0 0-.601.3.3 0 0 0 0 .601m1.006.933a.3.3 0 1 0 0-.601.3.3 0 0 0 0 .601m-1.006 1.007a.3.3 0 1 0 0-.602.3.3 0 0 0 0 .602m1.006.933a.3.3 0 1 0 0-.601.3.3 0 0 0 0 .601m-1.939-5.819a.3.3 0 1 0 0-.602.3.3 0 0 0 0 .602m-1.007 1.006a.3.3 0 1 0 0-.602.3.3 0 0 0 0 .602m1.007.934a.3.3 0 1 0 0-.602.3.3 0 0 0 0 .602m-1.007 1.006a.3.3 0 1 0 0-.602.3.3 0 0 0 0 .602m1.007.933a.3.3 0 1 0 0-.601.3.3 0 0 0 0 .601m-1.007 1.007a.3.3 0 1 0 0-.602.3.3 0 0 0 0 .602m1.007.933a.3.3 0 1 0 0-.601.3.3 0 0 0 0 .601m-1.94-5.819a.3.3 0 1 0 0-.602.3.3 0 0 0 0 .602m-1.006 1.006a.3.3 0 1 0 0-.601.3.3 0 0 0 0 .601m1.006.934a.3.3 0 1 0 0-.602.3.3 0 0 0 0 .602m-1.006 1.006a.3.3 0 1 0 0-.601.3.3 0 0 0 0 .601m1.006.933a.3.3 0 1 0 0-.601.3.3 0 0 0 0 .601m-1.006 1.007a.3.3 0 1 0 0-.602.3.3 0 0 0 0 .602m1.006.933a.3.3 0 1 0 0-.601.3.3 0 0 0 0 .601m-1.94-5.819a.3.3 0 1 0 0-.602.3.3 0 0 0 0 .602m-1.006 1.006a.3.3 0 1 0 0-.601.3.3 0 0 0 0 .601m1.006.934a.3.3 0 1 0 0-.602.3.3 0 0 0 0 .602m-1.006 1.006a.3.3 0 1 0 0-.601.3.3 0 0 0 0 .601m1.006.933a.3.3 0 1 0 0-.601.3.3 0 0 0 0 .601m-1.006 1.007a.3.3 0 1 0 0-.602.3.3 0 0 0 0 .602m1.006.933a.3.3 0 1 0 0-.601.3.3 0 0 0 0 .601m-1.939-5.819a.3.3 0 1 0 0-.602.3.3 0 0 0 0 .602m-1.007 1.006a.3.3 0 1 0 0-.601.3.3 0 0 0 0 .601m1.007.934a.3.3 0 1 0 0-.602.3.3 0 0 0 0 .602m-1.007 1.006a.3.3 0 1 0 0-.602.3.3 0 0 0 0 .602m1.007.933a.3.3 0 1 0 0-.601.3.3 0 0 0 0 .601m-1.007 1.007a.3.3 0 1 0 0-.602.3.3 0 0 0 0 .602m1.007.933a.3.3 0 1 0 0-.601.3.3 0 0 0 0 .601m-1.94-5.819a.3.3 0 1 0 0-.602.3.3 0 0 0 0 .602m-1.007 1.006a.3.3 0 1 0 0-.601.3.3 0 0 0 0 .601m1.007.934a.3.3 0 1 0 0-.602.3.3 0 0 0 0 .602m-1.007 1.006a.3.3 0 1 0 0-.602.3.3 0 0 0 0 .602m1.007.933a.3.3 0 1 0 0-.601.3.3 0 0 0 0 .601m-1.007 1.007a.3.3 0 1 0 0-.602.3.3 0 0 0 0 .602m1.007.933a.3.3 0 1 0 0-.601.3.3 0 0 0 0 .601m-1.94-5.819a.3.3 0 1 0 0-.602.3.3 0 0 0 0 .602m-1.006 1.006a.3.3 0 1 0 0-.601.3.3 0 0 0 0 .601m1.006.934a.3.3 0 1 0 0-.602.3.3 0 0 0 0 .602m-1.94-1.94a.3.3 0 1 0 0-.602.3.3 0 0 0 0 .602m-1.006 2.946a.3.3 0 1 0 0-.602.3.3 0 0 0 0 .602m0 1.94a.3.3 0 1 0 0-.602.3.3 0 0 0 0 .602m1.006.933a.3.3 0 1 0 0-.601.3.3 0 0 0 0 .601m-2.945-4.813a.3.3 0 1 0 0-.602.3.3 0 0 0 0 .602m1.006.934a.3.3 0 1 0 0-.602.3.3 0 0 0 0 .602m-1.006 1.006a.3.3 0 1 0 0-.602.3.3 0 0 0 0 .602m1.006.933a.3.3 0 1 0 0-.601.3.3 0 0 0 0 .601m-1.006 1.007a.3.3 0 1 0 0-.602.3.3 0 0 0 0 .602m1.006.933a.3.3 0 1 0 0-.601.3.3 0 0 0 0 .601M25.2 34.078a.3.3 0 1 0 0-.601.3.3 0 0 0 0 .601m1.006.934a.3.3 0 1 0 0-.602.3.3 0 0 0 0 .602M25.2 36.018a.3.3 0 1 0 0-.601.3.3 0 0 0 0 .601m1.006.933a.3.3 0 1 0 0-.601.3.3 0 0 0 0 .601M25.2 37.958a.3.3 0 1 0 0-.602.3.3 0 0 0 0 .602m1.006.933a.3.3 0 1 0 0-.601.3.3 0 0 0 0 .601m-1.94-5.819a.3.3 0 1 0 0-.602.3.3 0 0 0 0 .602m-1.006 1.006a.3.3 0 1 0 0-.601.3.3 0 0 0 0 .601m1.006.934a.3.3 0 1 0 0-.602.3.3 0 0 0 0 .602m-1.006 1.006a.3.3 0 1 0 0-.601.3.3 0 0 0 0 .601m1.006.933a.3.3 0 1 0 0-.601.3.3 0 0 0 0 .601m-1.939-3.879a.3.3 0 1 0 0-.602.3.3 0 0 0 0 .602m-1.007 1.006a.3.3 0 1 0 0-.601.3.3 0 0 0 0 .601m1.007.934a.3.3 0 1 0 0-.602.3.3 0 0 0 0 .602m-1.007 1.006a.3.3 0 1 0 0-.601.3.3 0 0 0 0 .601m1.007.933a.3.3 0 1 0 0-.601.3.3 0 0 0 0 .601m-1.007 1.007a.3.3 0 1 0 0-.602.3.3 0 0 0 0 .602m-1.94-3.88a.3.3 0 1 0 0-.601.3.3 0 0 0 0 .601m1.007.934a.3.3 0 1 0 0-.602.3.3 0 0 0 0 .602m-1.007 1.006a.3.3 0 1 0 0-.601.3.3 0 0 0 0 .601m1.007.933a.3.3 0 1 0 0-.601.3.3 0 0 0 0 .601m-1.007 1.007a.3.3 0 1 0 0-.602.3.3 0 0 0 0 .602m1.007.933a.3.3 0 1 0 0-.601.3.3 0 0 0 0 .601m-1.94-3.879a.3.3 0 1 0 0-.602.3.3 0 0 0 0 .602m-1.007 1.006a.3.3 0 1 0 0-.602.3.3 0 0 0 0 .602m1.007.933a.3.3 0 1 0 0-.601.3.3 0 0 0 0 .601m-1.007 1.007a.3.3 0 1 0 0-.602.3.3 0 0 0 0 .602m1.007.933a.3.3 0 1 0 0-.601.3.3 0 0 0 0 .601m-1.94 0a.3.3 0 1 0 0-.601.3.3 0 0 0 0 .601m-1.939-5.819a.3.3 0 1 0 0-.602.3.3 0 0 0 0 .602m-1.007 1.006a.3.3 0 1 0 0-.601.3.3 0 0 0 0 .601m1.007.934a.3.3 0 1 0 0-.602.3.3 0 0 0 0 .602m-1.007 1.006a.3.3 0 1 0 0-.601.3.3 0 0 0 0 .601m0 1.94a.3.3 0 1 0 0-.602.3.3 0 0 0 0 .602m-.933-4.886a.3.3 0 1 0 0-.602.3.3 0 0 0 0 .602m-1.006.405a.3.3 0 1 0 0 .601.3.3 0 0 0 0-.601m1.006 1.535a.3.3 0 1 0 0-.602.3.3 0 0 0 0 .602m-1.006 1.006a.3.3 0 1 0 0-.602.3.3 0 0 0 0 .602m1.006.933a.3.3 0 1 0 0-.601.3.3 0 0 0 0 .601m-1.006 1.007a.3.3 0 1 0 0-.602.3.3 0 0 0 0 .602m1.006.933a.3.3 0 1 0 0-.601.3.3 0 0 0 0 .601m-1.94-6.421a.3.3 0 1 0 0 .602.3.3 0 0 0 0-.602m0 2.542a.3.3 0 1 0 0-.602.3.3 0 0 0 0 .602m0 1.338a.3.3 0 1 0 0 .601.3.3 0 0 0 0-.601m.024 2.539a.3.3 0 1 0-.32-.336q.143.184.32.336m32.728 7.275a1.444 1.444 0 1 0-2.81-.665 1.444 1.444 0 0 0 2.81.665M39.713 19.27h-5.385a.392.392 0 1 1 0-.783h5.385a.392.392 0 0 1 0 .784m0 2.509h-5.385a.392.392 0 1 1 0-.785h5.385a.392.392 0 0 1 0 .784"/><path d="M46.858 24.249h-1.474V13.652q.11.006.22.006A4.4 4.4 0 0 0 50 9.262l-.002-.023v-.026l-.811-7.065A1.81 1.81 0 0 0 47.388.544H11.664c-.928 0-1.701.696-1.8 1.619l-.751 7.053v.024l-.003.022a4.4 4.4 0 0 0 4.616 4.39v10.597h-1.474a2.74 2.74 0 0 0-2 .866l-2.4-3.137a1.37 1.37 0 0 0-1.081-.535H1.36a1.363 1.363 0 0 0 .001 2.724h4.736l3.406 4.453v8.472a2.75 2.75 0 0 0 2.748 2.75h.937c.178 5.33 4.569 9.613 9.943 9.613s9.765-4.282 9.942-9.614h7.31v2.727a3.64 3.64 0 0 0-1.989 3.242 3.644 3.644 0 0 0 3.64 3.64 3.644 3.644 0 0 0 3.64-3.64 3.64 3.64 0 0 0-1.915-3.205v-2.764h3.098a2.75 2.75 0 0 0 2.749-2.749V26.997a2.75 2.75 0 0 0-2.749-2.748m2.337-14.6a3.617 3.617 0 0 1-3.591 3.225 3.617 3.617 0 0 1-3.591-3.224zm-15.368 6.27c-.84 0-1.522.682-1.522 1.521v6.809h-15.25V11.852q.29-.394.487-.849a4.4 4.4 0 0 0 4.036 2.655 4.4 4.4 0 0 0 4.004-2.585 4.4 4.4 0 0 0 4.005 2.585 4.4 4.4 0 0 0 4.004-2.585 4.4 4.4 0 0 0 4.004 2.585 4.4 4.4 0 0 0 4.005-2.585q.188.415.455.778v4.067zm8.228.784v7.546H33.09V17.44c0-.407.33-.738.738-.738zm-.869-7.053a3.617 3.617 0 0 1-3.59 3.224 3.617 3.617 0 0 1-3.592-3.224zm-7.114-.784V1.328h7.036l.503 7.538zm-.784 0h-7.315V1.328h7.315zm-.11.784a3.617 3.617 0 0 1-3.591 3.224 3.617 3.617 0 0 1-3.591-3.224zm-7.99-.784h-7.485l.28-7.538h7.206zm-.019.784a3.617 3.617 0 0 1-3.59 3.224 3.617 3.617 0 0 1-3.592-3.224zm23.239-7.412.76 6.628h-6.772l-.502-7.538h5.494c.522 0 .96.391 1.02.91m-37.764.008a1.024 1.024 0 0 1 1.02-.918h5.534l-.279 7.538h-6.98zm2.863 10.628a3.617 3.617 0 0 1-3.59-3.224h7.182a3.617 3.617 0 0 1-3.591 3.224m9.625 35.797c-5.054 0-9.165-4.111-9.165-9.165s4.111-9.164 9.165-9.164 9.165 4.11 9.165 9.164-4.112 9.165-9.165 9.165M44.89 45.81a2.86 2.86 0 0 1-2.856 2.855 2.86 2.86 0 0 1-2.855-2.855 2.86 2.86 0 0 1 2.855-2.856 2.86 2.86 0 0 1 2.856 2.856m3.932-8.718a1.967 1.967 0 0 1-1.965 1.965H33.07c-.236-5.278-4.603-9.5-9.938-9.5s-9.702 4.222-9.938 9.5h-.942a1.967 1.967 0 0 1-1.964-1.965V26.997c0-1.083.881-1.964 1.964-1.964h34.606c1.083 0 1.965.881 1.965 1.964z"/><path d="M23.132 31.95c-4.167 0-7.557 3.39-7.557 7.556s3.39 7.557 7.557 7.557 7.556-3.39 7.556-7.557-3.39-7.556-7.556-7.556m0 14.329a6.78 6.78 0 0 1-6.764-6.438h4.292A2.5 2.5 0 0 0 23.132 42a2.5 2.5 0 0 0 2.472-2.16h4.292a6.78 6.78 0 0 1-6.764 6.438m-1.711-6.773a1.712 1.712 0 0 1 3.422 0c0 .944-.768 1.711-1.711 1.711a1.713 1.713 0 0 1-1.711-1.71m4.165-.449a2.5 2.5 0 0 0-2.454-2.046 2.5 2.5 0 0 0-2.454 2.046h-4.302c.232-3.526 3.172-6.323 6.756-6.323s6.523 2.797 6.756 6.323z"/></g><defs><clipPath id="a"><path fill="#fff" d="M0 0h50v50H0z"/></clipPath></defs></svg>