<svg xmlns="http://www.w3.org/2000/svg" width="50" height="50" fill="none" viewBox="0 0 50 50"><g fill="#8b1e1e" clip-path="url(#a)"><path d="M48.978 13.512a.304.304 0 1 0 0 .607.304.304 0 0 0 0-.607m0 1.958a.304.304 0 1 0 0 .608.304.304 0 0 0 0-.608m0 1.959a.304.304 0 1 0 0 .607.304.304 0 0 0 0-.607m0 1.958a.304.304 0 1 0 0 .608.304.304 0 0 0 0-.608m0 1.958a.304.304 0 1 0 0 .608.304.304 0 0 0 0-.608m0 1.959a.304.304 0 1 0 0 .607.304.304 0 0 0 0-.607m0 1.958a.304.304 0 1 0 0 .608.304.304 0 0 0 0-.608m0 1.958a.304.304 0 1 0 0 .608.304.304 0 0 0 0-.607m0 1.958a.304.304 0 1 0 0 .607.304.304 0 0 0 0-.607m0 1.958a.304.304 0 1 0 0 .608.304.304 0 0 0 0-.608m0 1.959a.304.304 0 1 0 0 .607.304.304 0 0 0 0-.607m0 1.958a.304.304 0 1 0 0 .608.304.304 0 0 0 0-.608m0 1.959a.304.304 0 1 0 0 .607.304.304 0 0 0 0-.607m0 1.957a.304.304 0 1 0 0 .608.304.304 0 0 0 0-.607m0 1.959a.304.304 0 1 0 0 .607.304.304 0 0 0 0-.608m0 1.959a.304.304 0 1 0 0 .607.304.304 0 0 0 0-.607M47.02 9.595a.304.304 0 1 0 0 .608.304.304 0 0 0 0-.608m1.016.943a.304.304 0 1 0 0 .607.304.304 0 0 0 0-.607m-1.016 1.623a.304.304 0 1 0 0-.607.304.304 0 0 0 0 .607m1.016.335a.304.304 0 1 0 0 .608.304.304 0 0 0 0-.608m-1.016 1.016a.304.304 0 1 0 0 .607.304.304 0 0 0 0-.607m1.016.942a.304.304 0 1 0 0 .608.304.304 0 0 0 0-.608M47.02 15.47a.304.304 0 1 0 0 .608.304.304 0 0 0 0-.608m1.016.943a.304.304 0 1 0 0 .607.304.304 0 0 0 0-.607m-1.016 1.016a.304.304 0 1 0 0 .607.304.304 0 0 0 0-.607m1.016.942a.304.304 0 1 0 0 .608.304.304 0 0 0 0-.608m-1.016 1.016a.304.304 0 1 0 0 .608.304.304 0 0 0 0-.608m1.016.943a.304.304 0 1 0 0 .607.304.304 0 0 0 0-.607m-1.016 1.015a.304.304 0 1 0 0 .608.304.304 0 0 0 0-.608m1.016.943a.304.304 0 1 0 0 .607.304.304 0 0 0 0-.607m-1.016 1.623a.304.304 0 1 0 0-.607.304.304 0 0 0 0 .607m1.016.335a.304.304 0 1 0 0 .608.304.304 0 0 0 0-.608m-1.016 1.016a.304.304 0 1 0 0 .608.304.304 0 0 0 0-.608m1.016.943a.304.304 0 1 0 0 .607.304.304 0 0 0 0-.607M47.02 27.22a.304.304 0 1 0 0 .608.304.304 0 0 0 0-.607m1.016.942a.304.304 0 1 0 0 .608.304.304 0 0 0 0-.608m-1.016 1.016a.304.304 0 1 0 0 .607.304.304 0 0 0 0-.607m1.016.942a.304.304 0 1 0 0 .608.304.304 0 0 0 0-.608m-1.016 1.624a.304.304 0 1 0 0-.608.304.304 0 0 0 0 .608m1.016.335a.304.304 0 1 0 0 .607.304.304 0 0 0 0-.607m-1.016 1.016a.304.304 0 1 0 0 .607.304.304 0 0 0 0-.607m1.016.942a.304.304 0 1 0 0 .608.304.304 0 0 0 0-.608m-1.016 1.016a.304.304 0 1 0 0 .608.304.304 0 0 0 0-.608m1.016.942a.304.304 0 1 0 0 .608.304.304 0 0 0 0-.608M47.02 37.62a.304.304 0 1 0 0-.607.304.304 0 0 0 0 .607m1.016.335a.304.304 0 1 0 0 .607.304.304 0 0 0 0-.607m-1.016 1.623a.304.304 0 1 0 0-.607.304.304 0 0 0 0 .607m1.016.335a.304.304 0 1 0 0 .608.304.304 0 0 0 0-.608M47.02 40.93a.304.304 0 1 0 0 .607.304.304 0 0 0 0-.608m1.016.943a.304.304 0 1 0 0 .607.304.304 0 0 0 0-.607m-1.016 1.016a.304.304 0 1 0 0 .607.304.304 0 0 0 0-.607m1.016.942a.304.304 0 1 0 0 .608.304.304 0 0 0 0-.608m-1.016 1.623a.304.304 0 1 0 0-.607.304.304 0 0 0 0 .607m0 1.351a.304.304 0 1 0 0 .608.304.304 0 0 0 0-.608M46.078 8.58a.304.304 0 1 0 0 .607.304.304 0 0 0 0-.608m0 1.959a.304.304 0 1 0 0 .607.304.304 0 0 0 0-.607m0 2.566a.304.304 0 1 0 0-.608.304.304 0 0 0 0 .608m0 1.35a.304.304 0 1 0 0 .608.304.304 0 0 0 0-.608m0 2.566a.304.304 0 1 0 0-.607.304.304 0 0 0 0 .607m0 1.351a.304.304 0 1 0 0 .608.304.304 0 0 0 0-.608m0 1.959a.304.304 0 1 0 0 .607.304.304 0 0 0 0-.607m0 1.958a.304.304 0 1 0 0 .607.304.304 0 0 0 0-.607m0 2.566a.304.304 0 1 0 0-.608.304.304 0 0 0 0 .608m0 1.351a.304.304 0 1 0 0 .607.304.304 0 0 0 0-.607m0 1.958a.304.304 0 1 0 0 .608.304.304 0 0 0 0-.608m0 2.566a.304.304 0 1 0 0-.608.304.304 0 0 0 0 .608m0 1.958a.304.304 0 1 0 0-.607.304.304 0 0 0 0 .607m0 1.351a.304.304 0 1 0 0 .608.304.304 0 0 0 0-.608m0 1.958a.304.304 0 1 0 0 .608.304.304 0 0 0 0-.608m0 2.566a.304.304 0 1 0 0-.607.304.304 0 0 0 0 .607m0 1.351a.304.304 0 1 0 0 .608.304.304 0 0 0 0-.608m-1.016 1.017a.304.304 0 1 0 0 .607.304.304 0 0 0 0-.608m1.016.943a.304.304 0 1 0 0 .607.304.304 0 0 0 0-.607m-1.016 1.016a.304.304 0 1 0 0 .607.304.304 0 0 0 0-.607m1.016.942a.304.304 0 1 0 0 .608.304.304 0 0 0 0-.608m-1.016 1.016a.304.304 0 1 0 0 .607.304.304 0 0 0 0-.607m1.016 1.55a.304.304 0 1 0 0-.608.304.304 0 0 0 0 .608m-1.016.408a.304.304 0 1 0 0 .608.304.304 0 0 0 0-.608m-.942-2.974a.304.304 0 1 0 0 .608.304.304 0 0 0 0-.608m-1.017 1.016a.304.304 0 1 0 0 .607.304.304 0 0 0 0-.607m1.017 1.55a.304.304 0 1 0 0-.608.304.304 0 0 0 0 .608m-1.017.408a.304.304 0 1 0 0 .608.304.304 0 0 0 0-.608m1.017.943a.304.304 0 1 0 0 .607.304.304 0 0 0 0-.607m-1.017 1.016a.304.304 0 1 0 0 .607.304.304 0 0 0 0-.607m-1.958-3.31a.304.304 0 1 0 0-.607.304.304 0 0 0 0 .607m1.015.335a.304.304 0 1 0 .001.608.304.304 0 0 0 0-.608m-1.016 1.016a.304.304 0 1 0 0 .608.304.304 0 0 0 0-.608m1.015.943a.304.304 0 1 0 .001.607.304.304 0 0 0 0-.607m-1.016 1.016a.304.304 0 1 0 0 .607.304.304 0 0 0 0-.607m-.942-2.975a.304.304 0 1 0 0 .608.304.304 0 0 0 0-.608m-1.016 1.016a.304.304 0 1 0 0 .608.304.304 0 0 0 0-.608m1.016.943a.304.304 0 1 0 0 .607.304.304 0 0 0 0-.607m-1.016 1.016a.304.304 0 1 0 0 .607.304.304 0 0 0 0-.607m-.943-2.975a.304.304 0 1 0 0 .608.304.304 0 0 0 0-.608m-1.016 1.016a.304.304 0 1 0 0 .608.304.304 0 0 0 0-.608m1.016.943a.304.304 0 1 0 0 .607.304.304 0 0 0 0-.607m-1.016 1.016a.304.304 0 1 0 0 .607.304.304 0 0 0 0-.607m-.942-2.975a.304.304 0 1 0 0 .608.304.304 0 0 0 0-.608m-1.016 1.016a.304.304 0 1 0 0 .608.304.304 0 0 0 0-.608m1.016.943a.304.304 0 1 0 0 .607.304.304 0 0 0 0-.607m-1.016 1.016a.304.304 0 1 0 0 .607.304.304 0 0 0 0-.607m-.943-2.367a.304.304 0 1 0 0-.608.304.304 0 0 0 0 .608m-1.015.408a.304.304 0 1 0 0 .608.304.304 0 0 0 0-.608m1.015.943a.304.304 0 1 0 0 .607.304.304 0 0 0 0-.607m-1.015 1.016a.304.304 0 1 0 0 .607.304.304 0 0 0 0-.607m-.942-2.367a.304.304 0 1 0-.001-.608.304.304 0 0 0 0 .608m-1.016.408a.304.304 0 1 0 0 .608.304.304 0 0 0 0-.608m1.017.943a.304.304 0 1 0 0 .607.304.304 0 0 0 0-.607m-1.017 1.016a.304.304 0 1 0 0 .607.304.304 0 0 0 0-.607m-.943-2.975a.304.304 0 1 0 0 .608.304.304 0 0 0 0-.608m-1.015 1.016a.304.304 0 1 0 0 .608.304.304 0 0 0 0-.608m1.015.943a.304.304 0 1 0 0 .607.304.304 0 0 0 0-.607m-1.015 1.016a.304.304 0 1 0 0 .607.304.304 0 0 0 0-.607m-.943-2.975a.304.304 0 1 0 0 .608.304.304 0 0 0 0-.608m-1.016 1.016a.304.304 0 1 0 0 .608.304.304 0 0 0 0-.608m1.016.943a.304.304 0 1 0 0 .607.304.304 0 0 0 0-.607m-1.016 1.016a.304.304 0 1 0 0 .607.304.304 0 0 0 0-.607m-.942-2.975a.304.304 0 1 0 0 .608.304.304 0 0 0 0-.608m-1.016 1.016a.304.304 0 1 0 0 .608.304.304 0 0 0 0-.608m1.016.943a.304.304 0 1 0 0 .607.304.304 0 0 0 0-.607m-1.016 1.016a.304.304 0 1 0 0 .607.304.304 0 0 0 0-.607m-.942-2.975a.304.304 0 1 0 0 .608.304.304 0 0 0 0-.608m-1.016 1.016a.304.304 0 1 0 0 .608.304.304 0 0 0 0-.608m1.016.943a.304.304 0 1 0 0 .607.304.304 0 0 0 0-.607m-1.016 1.016a.304.304 0 1 0 0 .607.304.304 0 0 0 0-.607m-.943-2.367a.304.304 0 1 0 0-.608.304.304 0 0 0 0 .608m-1.016.408a.304.304 0 1 0 0 .608.304.304 0 0 0 0-.608m1.016.943a.304.304 0 1 0 0 .607.304.304 0 0 0 0-.607m-1.016 1.016a.304.304 0 1 0 0 .607.304.304 0 0 0 0-.607m-.942-2.975a.304.304 0 1 0 0 .608.304.304 0 0 0 0-.608m-1.016 1.016a.304.304 0 1 0 0 .608.304.304 0 0 0 0-.608m1.016.943a.304.304 0 1 0 0 .607.304.304 0 0 0 0-.607m-1.016 1.016a.304.304 0 1 0 0 .607.304.304 0 0 0 0-.607m-.943-2.975a.304.304 0 1 0 0 .608.304.304 0 0 0 0-.608m-1.016 1.016a.304.304 0 1 0 0 .608.304.304 0 0 0 0-.608m1.016.943a.304.304 0 1 0 0 .607.304.304 0 0 0 0-.607m-1.016 1.016a.304.304 0 1 0 0 .607.304.304 0 0 0 0-.607m-.942-2.975a.304.304 0 1 0 0 .608.304.304 0 0 0 0-.608m-1.016 1.016a.304.304 0 1 0 0 .608.304.304 0 0 0 0-.608m1.016.943a.304.304 0 1 0 0 .607.304.304 0 0 0 0-.607m-1.016 1.016a.304.304 0 1 0 0 .607.304.304 0 0 0 0-.607m-.942-2.975a.304.304 0 1 0 0 .608.304.304 0 0 0 0-.608m-1.016 1.016a.304.304 0 1 0 0 .608.304.304 0 0 0 0-.608m1.016.943a.304.304 0 1 0 0 .607.304.304 0 0 0 0-.607m-1.016 1.016a.304.304 0 1 0 0 .607.304.304 0 0 0 0-.607m-.943-2.975a.304.304 0 1 0 0 .608.304.304 0 0 0 0-.608m-1.015 1.016a.304.304 0 1 0 0 .608.304.304 0 0 0 0-.608m1.015.943a.304.304 0 1 0 0 .607.304.304 0 0 0 0-.607m-1.015 1.016a.304.304 0 1 0 0 .607.304.304 0 0 0 0-.607m-.943-2.367a.304.304 0 1 0 0-.608.304.304 0 0 0 0 .608m-1.016.408a.304.304 0 1 0 0 .608.304.304 0 0 0 0-.608m1.016.943a.304.304 0 1 0 0 .607.304.304 0 0 0 0-.607m-1.958-1.959a.304.304 0 1 0 0 .608.304.304 0 0 0 0-.608m-1.017 1.624a.304.304 0 1 0-.303-.304q0 .018.003.034.117.135.239.264.03.006.061.006m-.638-1.32a.304.304 0 0 0-.527-.204q.139.255.297.498a.3.3 0 0 0 .23-.294m5.616-5.174H8.703a2.32 2.32 0 0 1-2.319-2.32v-4.126a2.32 2.32 0 0 1 2.32-2.319h4.126a2.32 2.32 0 0 1 2.319 2.32v4.126a2.32 2.32 0 0 1-2.32 2.319m-4.127-7.976c-.844 0-1.53.686-1.53 1.53V38.6c0 .844.686 1.53 1.53 1.53h4.127c.844 0 1.53-.686 1.53-1.53v-4.127c0-.844-.686-1.53-1.53-1.53zm29.626 7.976H34.2a2.32 2.32 0 0 1-2.319-2.32v-4.126a2.32 2.32 0 0 1 2.32-2.319h4.126a2.32 2.32 0 0 1 2.319 2.32v4.126a2.32 2.32 0 0 1-2.32 2.319M34.2 32.942c-.844 0-1.53.686-1.53 1.53V38.6c0 .844.686 1.53 1.53 1.53h4.127c.844 0 1.53-.686 1.53-1.53v-4.127c0-.844-.686-1.53-1.53-1.53zm4.128-4.773H34.2a2.32 2.32 0 0 1-2.319-2.32v-4.126a2.32 2.32 0 0 1 2.32-2.319h4.126a2.32 2.32 0 0 1 2.319 2.32v4.126a2.32 2.32 0 0 1-2.32 2.319M34.2 20.193c-.844 0-1.53.686-1.53 1.53v4.127c0 .844.686 1.53 1.53 1.53h4.127c.844 0 1.53-.686 1.53-1.53v-4.127c0-.844-.686-1.53-1.53-1.53z"/><path d="m47.431 8.214-3.522-3.893a7.46 7.46 0 0 0-5.723-2.676h-4.698A5.34 5.34 0 0 0 29.604 0H8.894C4.14 0 .272 3.671.272 8.183v10.419c0 1.148.413 2.206 1.103 3.048v16.807a7.46 7.46 0 0 0 2.861 5.873l3.16 3.065C8.91 49.05 11.18 50 13.63 50h27.916c4.513 0 8.184-3.671 8.184-8.183V13.9a8.14 8.14 0 0 0-2.298-5.686M1.06 8.184C1.06 4.105 4.574.787 8.895.787h20.71c2.45 0 4.442 1.877 4.442 4.184v2.463c0 3.523-1.294 6.964-3.645 9.69-.371.43-.575.973-.575 1.527V34.93c0 1.208-1.049 2.19-2.337 2.19s-2.337-.982-2.337-2.19V24.456c0-.732-.333-1.407-.914-1.852a2.29 2.29 0 0 0-1.994-.4q-.494.133-1 .236a2.324 2.324 0 0 0-1.846 2.275v2.46c0 1.208-1.049 2.19-2.337 2.19s-2.337-.982-2.337-2.19V25.11a2.33 2.33 0 0 0-2.325-2.325H5.502c-2.45 0-4.443-1.877-4.443-4.184zm33.777-.74h3.492c.844 0 1.53.687 1.53 1.53v4.127c0 .844-.686 1.53-1.53 1.53H34.2a1.52 1.52 0 0 1-.974-.354 15.5 15.5 0 0 0 1.609-6.833M24.364 27.38h-2.912c-.526 0-.99-.268-1.265-.674v-1.991c0-.727.511-1.359 1.215-1.502.352-.072.704-.155 1.047-.247a1.5 1.5 0 0 1 1.31.264c.384.295.605.741.605 1.226zm2.745 10.506v.713c0 .844-.686 1.53-1.53 1.53h-4.127c-.844 0-1.53-.686-1.53-1.53v-4.127c0-.844.686-1.53 1.53-1.53h2.912v1.988c0 1.52 1.2 2.776 2.745 2.956M12.83 27.38H8.704c-.844 0-1.53-.686-1.53-1.53v-2.276H12.4c.847 0 1.536.69 1.536 1.537v1.792a1.52 1.52 0 0 1-1.106.477M2.163 38.457V22.426a5.37 5.37 0 0 0 3.34 1.148h.882v2.276a2.32 2.32 0 0 0 2.32 2.319h4.126c.433 0 .839-.12 1.186-.329.318 1.324 1.562 2.314 3.046 2.314 1.517 0 2.784-1.036 3.066-2.404a2.3 2.3 0 0 0 1.324.419h2.912v3.984h-2.912a2.32 2.32 0 0 0-2.319 2.32v4.125c0 1.28 1.04 2.32 2.32 2.32h4.126a2.32 2.32 0 0 0 2.319-2.32v-.716c1.53-.191 2.717-1.442 2.717-2.953V18.652c0-.365.136-.725.384-1.012a16 16 0 0 0 1.856-2.653c.38.272.844.433 1.346.433h4.127a2.32 2.32 0 0 0 2.319-2.319V8.975c0-1.28-1.04-2.32-2.32-2.32h-3.491V4.972c0-.927-.27-1.795-.736-2.539h4.086c2.025 0 3.842.907 5.068 2.335l.017.022.07.077a6.65 6.65 0 0 1 1.528 4.25v29.34a6.69 6.69 0 0 1-6.683 6.683H8.845a6.65 6.65 0 0 1-4.087-1.401l-.002-.002a6.67 6.67 0 0 1-2.593-5.28m46.779 3.36c0 4.077-3.318 7.395-7.395 7.395H13.629c-2.232 0-4.295-.86-5.659-2.357l-.017-.018-1.266-1.228c.683.207 1.408.32 2.158.32h29.341c4.12 0 7.471-3.352 7.471-7.472V9.116c0-.688-.095-1.353-.27-1.986l1.464 1.618.01.01a7.36 7.36 0 0 1 2.08 5.142z"/></g><defs><clipPath id="a"><path fill="#fff" d="M0 0h50v50H0z"/></clipPath></defs></svg>