<svg xmlns="http://www.w3.org/2000/svg" width="50" height="50" fill="none" viewBox="0 0 50 50"><g fill="#8b1e1e" clip-path="url(#a)"><path d="M49.59 26.08h-3.12a.393.393 0 0 0-.393.393v10.643h-9.105a.393.393 0 0 0-.392.392v3.12c0 .216.176.392.392.392h1.787v8.587c0 .217.176.393.393.393h1.607a.393.393 0 0 0 .392-.393V41.02h5.08v8.587c0 .217.177.393.393.393h1.607a.393.393 0 0 0 .393-.393V41.02h.965a.393.393 0 0 0 .393-.392V26.473a.39.39 0 0 0-.393-.392m-.394 14.155h-11.83V37.9h9.104a.393.393 0 0 0 .393-.393V26.866h2.333zm-36.167-3.12H3.923V26.473a.393.393 0 0 0-.393-.392H.41a.393.393 0 0 0-.392.392v14.155c0 .216.176.392.393.392h.965v8.587c0 .217.176.393.392.393h1.607a.393.393 0 0 0 .393-.393V41.02h5.08v8.587c0 .217.176.393.393.393h1.607a.393.393 0 0 0 .393-.393V41.02h1.786a.393.393 0 0 0 .393-.392v-3.12a.39.39 0 0 0-.392-.392m-.393 3.119H.804V26.866h2.333v10.642c0 .217.176.393.393.393h9.105zm24.888-24.312a.301.301 0 1 0 0 .603.301.301 0 0 0 0-.603m0 1.944a.301.301 0 1 0 .186.537l.074-.086a.299.299 0 0 0-.26-.451m-1.943-1.944a.301.301 0 1 0 0 .603.301.301 0 0 0 0-.603m1.008.935a.301.301 0 1 0 0 .603.301.301 0 0 0 0-.603m-1.008 1.009a.301.301 0 1 0 0 .602.301.301 0 0 0 0-.602m1.008.935a.301.301 0 0 0-.1.584q.206-.113.398-.248.004-.017.004-.035a.3.3 0 0 0-.302-.301m-2.951-2.879a.302.302 0 1 0 0 .603.302.302 0 0 0 0-.603m1.008.935a.301.301 0 1 0 0 .603.301.301 0 0 0 0-.603m-1.008 1.009a.301.301 0 1 0 0 .603.301.301 0 0 0 0-.603m1.008.935a.301.301 0 1 0 0 .603.301.301 0 0 0 0-.603m-2.951-2.879a.301.301 0 1 0 0 .603.301.301 0 0 0 0-.603m1.008.935a.301.301 0 1 0 0 .603.301.301 0 0 0 0-.603m-1.008 1.009a.301.301 0 1 0 0 .602.301.301 0 0 0 0-.602m1.008.935a.301.301 0 1 0 0 .602.301.301 0 0 0 0-.602m-1.943-1.944a.301.301 0 1 0 0 .603.301.301 0 0 0 0-.603m16.481-.935a.301.301 0 1 0 0 .603.301.301 0 0 0 0-.603m-1.944.603a.301.301 0 1 0 0-.603.301.301 0 0 0 0 .603m1.008.332a.301.301 0 1 0 0 .603.301.301 0 0 0 0-.603m-1.008 1.009a.301.301 0 1 0 0 .603.301.301 0 0 0 0-.603m-1.943-1.944a.301.301 0 1 0 0 .603.301.301 0 0 0 0-.603m1.008.935a.301.301 0 1 0 0 .603.301.301 0 0 0 0-.603m-1.008 1.009a.301.301 0 1 0 0 .603.301.301 0 0 0 0-.603m1.008.935a.301.301 0 1 0 0 .602.301.301 0 0 0 0-.602m-2.951-2.276a.301.301 0 1 0 0-.603.301.301 0 0 0 0 .603m1.008.332a.301.301 0 1 0 0 .603.301.301 0 0 0 0-.603m-1.008 1.009a.301.301 0 1 0 0 .602.301.301 0 0 0 0-.602m1.008.935a.301.301 0 1 0 0 .602.301.301 0 0 0 0-.602m-2.951-2.879a.301.301 0 1 0 0 .603.301.301 0 0 0 0-.603m1.008.935a.301.301 0 1 0 0 .603.301.301 0 0 0 0-.603m4.821-2.878a.302.302 0 1 0 0 .603.302.302 0 0 0 0-.603m1.008.936a.301.301 0 1 0 0 .602.301.301 0 0 0 0-.603m-2.951-2.878a.301.301 0 1 0 0 .603.301.301 0 0 0 0-.603m1.008.935a.301.301 0 1 0 0 .603.301.301 0 0 0 0-.603m-1.008 1.008a.302.302 0 1 0 0 .603.302.302 0 0 0 0-.603m1.008.936a.301.301 0 1 0 0 .602.301.301 0 0 0 0-.603m-2.951-2.878a.301.301 0 1 0 0 .603.301.301 0 0 0 0-.603m1.008.935a.301.301 0 1 0 0 .603.301.301 0 0 0 0-.603M41.41 13.98a.301.301 0 1 0 0 .603.301.301 0 0 0 0-.603m1.008 1.538a.301.301 0 1 0 0-.602.301.301 0 0 0 0 .602m-2.951-5.424a.301.301 0 1 0 0 .602.301.301 0 0 0 0-.602m1.008.935a.301.301 0 1 0 0 .603.301.301 0 0 0 0-.603m-1.008 1.008a.301.301 0 1 0 0 .603.301.301 0 0 0 0-.603m1.008.935a.301.301 0 1 0 0 .603.301.301 0 0 0 0-.603m-1.008 1.008a.301.301 0 1 0 0 .603.301.301 0 0 0 0-.603m1.008.936a.301.301 0 1 0 0 .602.301.301 0 0 0 0-.603M37.47 8.156a.301.301 0 1 0 .343.218zm1.062.929a.301.301 0 1 0 0 .603.301.301 0 0 0 0-.603m-1.009 1.009a.301.301 0 1 0 0 .602.301.301 0 0 0 0-.602m1.009.935a.301.301 0 1 0 0 .602.301.301 0 0 0 0-.602m-1.009 1.008a.301.301 0 1 0 0 .603.301.301 0 0 0 0-.603m1.009.935a.301.301 0 1 0 0 .603.301.301 0 0 0 0-.603m-1.009 1.008a.301.301 0 1 0 0 .603.301.301 0 0 0 0-.603m1.009 1.538a.301.301 0 1 0 0-.603.301.301 0 0 0 0 .603M35.58 8.15a.301.301 0 1 0 0 .603.301.301 0 0 0 0-.603m1.008.935a.301.301 0 1 0 0 .603.301.301 0 0 0 0-.603m-1.008 1.009a.301.301 0 1 0 0 .602.301.301 0 0 0 0-.602m1.008.935a.301.301 0 1 0 0 .602.301.301 0 0 0 0-.602m-1.008 1.008a.301.301 0 1 0 0 .603.301.301 0 0 0 0-.603m1.008.935a.301.301 0 1 0 0 .603.301.301 0 0 0 0-.603M35.58 13.98a.301.301 0 1 0 0 .603.301.301 0 0 0 0-.603m1.008.936a.301.301 0 1 0 0 .602.301.301 0 0 0 0-.603m-2.951-8.707a.302.302 0 1 0 0 .603.302.302 0 0 0 0-.603m1.008.934a.302.302 0 1 0 0 .603.302.302 0 0 0 0-.603M33.637 8.15a.302.302 0 1 0 0 .603.302.302 0 0 0 0-.603m1.008.935a.301.301 0 1 0 0 .603.301.301 0 0 0 0-.603m-1.008 1.009a.301.301 0 1 0 0 .603.301.301 0 0 0 0-.603m1.008.935a.301.301 0 1 0 0 .603.301.301 0 0 0 0-.603m-1.008 1.008a.302.302 0 1 0 0 .603.302.302 0 0 0 0-.603m1.008.935a.301.301 0 1 0 0 .603.301.301 0 0 0 0-.603m-1.008 1.008a.302.302 0 1 0 0 .603.302.302 0 0 0 0-.603m1.008 1.538a.301.301 0 1 0 0-.602.301.301 0 0 0 0 .602M32.702 5.2a.301.301 0 1 0 0 .602.301.301 0 0 0 0-.603m-1.008 1.009a.301.301 0 1 0 0 .602.301.301 0 0 0 0-.602m1.008.934a.301.301 0 1 0 0 .603.301.301 0 0 0 0-.603M31.694 8.15a.301.301 0 1 0 0 .603.301.301 0 0 0 0-.603m1.008.935a.301.301 0 1 0 0 .603.301.301 0 0 0 0-.603m-1.008 1.009a.301.301 0 1 0 0 .602.301.301 0 0 0 0-.602m1.008.935a.301.301 0 1 0 0 .602.301.301 0 0 0 0-.602m-1.008 1.008a.301.301 0 1 0 0 .603.301.301 0 0 0 0-.603m1.008.935a.301.301 0 1 0 0 .603.301.301 0 0 0 0-.603m-1.008 1.008a.301.301 0 1 0 0 .603.301.301 0 0 0 0-.603m1.008 1.538a.301.301 0 1 0 0-.603.301.301 0 0 0 0 .603M29.75 4.264a.301.301 0 1 0 0 .603.301.301 0 0 0 0-.603m1.009.936a.301.301 0 1 0 0 .602.301.301 0 0 0 0-.603M29.75 6.208a.301.301 0 1 0 0 .602.301.301 0 0 0 0-.602m1.009.934a.301.301 0 1 0 0 .603.301.301 0 0 0 0-.603M29.75 8.15a.301.301 0 1 0 0 .603.301.301 0 0 0 0-.603m1.009.935a.301.301 0 1 0 0 .603.301.301 0 0 0 0-.603m-1.009 1.009a.301.301 0 1 0 0 .602.301.301 0 0 0 0-.602m1.009.935a.301.301 0 1 0 0 .602.301.301 0 0 0 0-.602m-1.009 1.008a.301.301 0 1 0 0 .603.301.301 0 0 0 0-.603m1.009.935a.301.301 0 1 0 0 .603.301.301 0 0 0 0-.603M29.75 13.98a.301.301 0 1 0 0 .603.301.301 0 0 0 0-.603m1.009.936a.301.301 0 1 0 0 .602.301.301 0 0 0 0-.603M27.807 2.924a.302.302 0 1 0 0-.603.302.302 0 0 0 0 .603m1.008.332a.301.301 0 1 0 0 .603.301.301 0 0 0 0-.603m-1.008 1.611a.301.301 0 1 0 0-.603.301.301 0 0 0 0 .603m1.008.333a.302.302 0 1 0 0 .602.302.302 0 0 0 0-.603M27.807 6.81a.301.301 0 1 0 0-.603.301.301 0 0 0 0 .603m-.933-1.613a.301.301 0 1 0 0 .603.301.301 0 0 0 0-.603m1.941 1.945a.302.302 0 1 0 0 .603.302.302 0 0 0 0-.603m0 1.943a.301.301 0 1 0 0 .603.301.301 0 0 0 0-.603m-1.003-.941a.301.301 0 1 0 0 .603.301.301 0 0 0 0-.603m1.003 2.885a.301.301 0 1 0 0 .603.301.301 0 0 0 0-.603m-1.943-9.113c.166 0 .3-.134.301-.3l-.43-.273a.3.3 0 0 0 .13.573m-.001 1.943a.301.301 0 1 0 0-.603.301.301 0 0 0 0 .603M25.87 2.322a.301.301 0 1 0 0 .603.301.301 0 0 0 0-.603"/><path d="M48.38 15.276a.88.88 0 0 0-.398-.908L25.58.138a.89.89 0 0 0-.953 0L2.222 14.368a.88.88 0 0 0-.407.846.4.4 0 0 0-.04.167c0 2.74 2.23 4.97 4.97 4.97a4.97 4.97 0 0 0 4.612-3.127 4.97 4.97 0 0 0 4.612 3.126 4.97 4.97 0 0 0 4.577-3.04 5 5 0 0 0 3.029 2.793v9.202H11.45a2.19 2.19 0 0 0-2.189 2.188c0 1.207.982 2.19 2.189 2.19h12.125v11.88H21.12a1.994 1.994 0 0 0-1.992 1.991v1.993c0 .217.176.393.393.393h11.164a.393.393 0 0 0 .393-.393v-1.993a1.994 1.994 0 0 0-1.992-1.991H26.63V33.682h12.126a2.19 2.19 0 0 0 2.188-2.189 2.19 2.19 0 0 0-2.188-2.188H26.629v-9.19a5 5 0 0 0 3.07-2.804 4.97 4.97 0 0 0 4.576 3.04 4.97 4.97 0 0 0 4.576-3.04 4.97 4.97 0 0 0 4.576 3.04 4.975 4.975 0 0 0 4.969-4.97.4.4 0 0 0-.016-.105M6.745 19.565A4.19 4.19 0 0 1 2.608 16q.045.005.09.005h8.181a4.19 4.19 0 0 1-4.134 3.559m9.224 0a4.19 4.19 0 0 1-4.134-3.559h8.269a4.19 4.19 0 0 1-4.135 3.559m13.116 26.783c.666 0 1.207.541 1.207 1.206v1.6h-10.38v-1.6c0-.665.542-1.206 1.207-1.206zm9.67-16.258c.773 0 1.403.63 1.403 1.403 0 .774-.63 1.403-1.404 1.403H11.45c-.774 0-1.403-.63-1.403-1.403s.63-1.403 1.403-1.403zM25.122 19.565a4.19 4.19 0 0 1-4.134-3.559h8.268a4.19 4.19 0 0 1-4.134 3.559m9.153 0a4.19 4.19 0 0 1-4.135-3.559h8.269a4.19 4.19 0 0 1-4.134 3.559m9.152 0a4.19 4.19 0 0 1-4.134-3.559h8.213l.058-.002a4.19 4.19 0 0 1-4.137 3.56m4.178-4.419q-.022.075-.099.075H2.698q-.077 0-.099-.075-.022-.074.044-.115L25.047.8a.1.1 0 0 1 .11 0l22.404 14.23q.066.041.044.115"/></g><defs><clipPath id="a"><path fill="#fff" d="M0 0h50v50H0z"/></clipPath></defs></svg>