<svg xmlns="http://www.w3.org/2000/svg" width="50" height="50" fill="none" viewBox="0 0 50 50"><path fill="#8b1e1e" d="M23.898 24.877c-3.382 0-6.767-1.712-8.793-4.405-1.148 1.772-3.124 3.107-5.188 3.468a7 7 0 0 1-1.155.098c-2.944 0-6.504-1.872-6.848-7.149-.248-3.807 1.378-7.737 4.241-10.256 2.26-1.99 5.324-3.13 8.407-3.13 2.375 0 4.429.686 5.505 1.812C23.399 2.135 27.76.388 32.397.388c2.498 0 4.923.512 7.208 1.522 7.314 3.233 9.587 9.886 8.052 14.788-.966 3.081-3.51 5.485-6.482 6.122-.5.107-1.019.162-1.543.162-2.504 0-4.867-1.203-6.198-3.11-1.879 2.84-5.55 4.865-9.162 4.997a10 10 0 0 1-.374.008m-8.823-5.498c.129 0 .25.064.321.172 1.894 2.864 5.394 4.67 8.848 4.55 3.585-.131 7.224-2.249 8.85-5.149a.385.385 0 0 1 .672.001c1.104 1.98 3.407 3.26 5.867 3.26.47 0 .935-.05 1.382-.145 2.705-.58 5.023-2.779 5.908-5.601 1.433-4.575-.726-10.804-7.628-13.854a17 17 0 0 0-6.898-1.457c-4.57 0-8.862 1.774-12.085 4.996a.383.383 0 0 1-.582-.045c-.812-1.115-2.84-1.835-5.167-1.835-2.898 0-5.778 1.071-7.9 2.938-2.688 2.365-4.214 6.055-3.98 9.63.308 4.745 3.469 6.43 6.08 6.43.348 0 .692-.03 1.022-.088 2.04-.357 3.983-1.77 4.951-3.6a.39.39 0 0 1 .322-.204z"/><path fill="#8b1e1e" d="M25.223 49.613c-4.05 0-8.014-.503-11.87-1.507a3.48 3.48 0 0 1-2.288-1.924 3.69 3.69 0 0 1 .036-3.163c3.103-6.401 3.448-13.794.947-20.283a.385.385 0 1 1 .718-.276c2.578 6.686 2.224 14.303-.972 20.895a2.92 2.92 0 0 0-.03 2.506 2.68 2.68 0 0 0 1.782 1.5c7.676 2.002 15.8 1.976 24.15-.072a2.74 2.74 0 0 0 1.826-1.497 2.93 2.93 0 0 0-.017-2.529c-3.154-6.569-3.492-14.151-.928-20.803a.384.384 0 1 1 .718.276c-2.489 6.455-2.16 13.815.904 20.193a3.7 3.7 0 0 1 .017 3.19 3.5 3.5 0 0 1-2.338 1.917c-4.285 1.05-8.514 1.576-12.655 1.576"/><path fill="#8b1e1e" d="M19.032 37.956a.384.384 0 0 1-.373-.477 29.5 29.5 0 0 0 .794-8.974.385.385 0 0 1 .36-.408c.192-.006.395.146.408.359a30.2 30.2 0 0 1-.816 9.208.384.384 0 0 1-.373.292m6.28-.174a.385.385 0 0 1-.382-.351 35 35 0 0 1 .41-9.283.384.384 0 1 1 .757.136 34.2 34.2 0 0 0-.4 9.08.385.385 0 0 1-.35.416zm7.64.721a.38.38 0 0 1-.368-.273 40.7 40.7 0 0 1-1.734-10.506.385.385 0 0 1 .371-.397c.237-.028.391.16.398.371a40 40 0 0 0 1.701 10.308.385.385 0 0 1-.368.497m-18.4-13.991a.2.2 0 0 1-.137-.056l-1.732-1.731a.192.192 0 1 1 .272-.273l1.733 1.732a.192.192 0 0 1-.136.328m.887-.772a.2.2 0 0 1-.137-.057L13.61 21.99a.192.192 0 1 1 .273-.272l1.693 1.693a.19.19 0 0 1 0 .271.2.2 0 0 1-.136.057m.606-1.212a.2.2 0 0 1-.136-.056l-1.502-1.503a.192.192 0 1 1 .272-.272l1.502 1.502a.192.192 0 0 1-.136.329m4.124 2.753a.2.2 0 0 1-.135-.057l-2.562-2.561a.19.19 0 0 1 0-.272.19.19 0 0 1 .272 0l2.561 2.562a.192.192 0 0 1-.135.327m2.589.705a.2.2 0 0 1-.137-.056l-1.957-1.957a.192.192 0 1 1 .273-.273l1.956 1.957a.192.192 0 0 1-.136.329m2.064.306a.2.2 0 0 1-.136-.055l-1.626-1.626a.192.192 0 1 1 .272-.271l1.626 1.625a.192.192 0 0 1-.136.328m2.302-.316a.2.2 0 0 1-.136-.057l-1.405-1.405a.192.192 0 1 1 .272-.272l1.406 1.405a.192.192 0 0 1-.137.328m2.291-.582a.2.2 0 0 1-.136-.056l-1.365-1.365a.192.192 0 1 1 .273-.272l1.364 1.364a.192.192 0 0 1-.136.329m1.496-.868a.2.2 0 0 1-.137-.056l-1.2-1.2a.192.192 0 1 1 .272-.273l1.2 1.2a.192.192 0 0 1-.136.329m1.564-1.087a.2.2 0 0 1-.136-.056l-1.391-1.39a.192.192 0 1 1 .271-.272l1.391 1.39a.192.192 0 0 1-.135.328m1.223-.725a.2.2 0 0 1-.136-.056l-1.4-1.4a.192.192 0 1 1 .273-.272l1.399 1.4a.19.19 0 0 1 0 .271.2.2 0 0 1-.136.057m1.621-.902a.2.2 0 0 1-.137-.057l-1.807-1.807a.192.192 0 1 1 .273-.272l1.807 1.807a.192.192 0 0 1-.136.328m2.631 2.346a.2.2 0 0 1-.135-.056l-1.756-1.758a.192.192 0 1 1 .272-.272l1.756 1.757a.192.192 0 0 1-.136.329m-.339 1.577a.2.2 0 0 1-.136-.056L36.09 24.29a.192.192 0 1 1 .273-.273l1.386 1.387a.192.192 0 0 1-.136.328m-.031 1.855a.2.2 0 0 1-.136-.056l-2.666-2.666a.192.192 0 1 1 .272-.273l2.666 2.666a.192.192 0 0 1-.136.329m-.462 1.773a.2.2 0 0 1-.135-.056l-1.853-1.853a.192.192 0 1 1 .272-.272l1.853 1.853a.192.192 0 0 1-.136.328m-.112 2.41a.2.2 0 0 1-.137-.056l-1.581-1.581a.192.192 0 1 1 .272-.272l1.582 1.58a.192.192 0 0 1-.137.329m.63 2.96a.2.2 0 0 1-.136-.056l-1.86-1.859a.192.192 0 1 1 .273-.272l1.859 1.86a.192.192 0 0 1-.136.328m.074 1.798a.2.2 0 0 1-.137-.057l-1.549-1.549a.192.192 0 1 1 .272-.272l1.55 1.549a.192.192 0 0 1-.136.328m.241 2.126a.2.2 0 0 1-.136-.056l-1.345-1.344a.192.192 0 1 1 .273-.273l1.344 1.345a.192.192 0 0 1-.136.328m.77 2.559a.2.2 0 0 1-.136-.056l-1.86-1.86a.192.192 0 1 1 .273-.272l1.86 1.86a.192.192 0 0 1-.137.328m1.064 2.724a.2.2 0 0 1-.136-.056l-2.316-2.316a.192.192 0 1 1 .271-.272l2.316 2.315a.192.192 0 0 1-.135.329m-.587 1.488a.2.2 0 0 1-.137-.057l-1.504-1.504a.192.192 0 1 1 .273-.272l1.503 1.504a.192.192 0 0 1-.136.329m-.977 1.705a.2.2 0 0 1-.136-.056l-2.156-2.156a.192.192 0 1 1 .272-.273l2.157 2.157a.192.192 0 0 1-.137.328m-2.357.484a.2.2 0 0 1-.137-.056l-1.842-1.842a.192.192 0 1 1 .272-.272l1.843 1.841a.192.192 0 0 1-.136.329m-2.59.413a.2.2 0 0 1-.136-.056l-2.031-2.03a.192.192 0 1 1 .272-.273l2.03 2.03a.192.192 0 0 1-.135.33m-2.717.602a.2.2 0 0 1-.136-.055l-1.709-1.709a.19.19 0 0 1 0-.271.19.19 0 0 1 .272 0l1.708 1.708a.192.192 0 0 1-.135.328m-1.996.048a.2.2 0 0 1-.136-.057l-1.405-1.405a.192.192 0 1 1 .272-.272L28.7 48.35a.192.192 0 0 1-.137.329m-2.445.078a.2.2 0 0 1-.136-.056l-1.228-1.228a.192.192 0 1 1 .272-.272l1.228 1.227a.192.192 0 0 1-.136.328m-2.136.229a.2.2 0 0 1-.136-.057l-1.04-1.04a.192.192 0 1 1 .272-.273l1.04 1.041a.192.192 0 0 1-.136.329m-1.539.216a.2.2 0 0 1-.136-.056l-1.035-1.034a.192.192 0 1 1 .273-.273l1.034 1.035a.192.192 0 0 1-.136.328"/><path fill="#8b1e1e" d="M21.473 49.03a.192.192 0 0 1-.136-.328l1.855-1.856a.192.192 0 1 1 .273.272l-1.856 1.856a.2.2 0 0 1-.136.056m1.629.255a.192.192 0 0 1-.136-.329l3.22-3.22a.192.192 0 1 1 .273.273l-3.221 3.22a.2.2 0 0 1-.136.056m2.938.16a.192.192 0 0 1-.136-.328l3.487-3.489a.192.192 0 1 1 .272.273l-3.488 3.487a.2.2 0 0 1-.136.056m3.194-.542a.192.192 0 0 1-.136-.328l3.441-3.442a.192.192 0 1 1 .273.273l-3.442 3.441a.2.2 0 0 1-.136.056m2.842-.128a.192.192 0 0 1-.136-.328l4.26-4.26a.192.192 0 1 1 .272.272l-4.26 4.26a.2.2 0 0 1-.136.056m3.735-1.341a.192.192 0 0 1-.136-.328l3.263-3.263a.192.192 0 1 1 .272.272l-3.262 3.263a.2.2 0 0 1-.136.056m1.244-4.151a.192.192 0 0 1-.136-.329l1.109-1.108a.192.192 0 1 1 .272.272l-1.108 1.108a.2.2 0 0 1-.137.056m-.223-1.915a.192.192 0 0 1-.136-.329l1.355-1.354a.192.192 0 1 1 .272.272l-1.355 1.355a.2.2 0 0 1-.136.056m-.607-2.236a.192.192 0 0 1-.136-.328l1.317-1.317a.192.192 0 1 1 .273.273l-1.318 1.316a.2.2 0 0 1-.136.056m0-3a.192.192 0 0 1-.136-.328l1.02-1.022a.192.192 0 1 1 .273.273l-1.02 1.02a.2.2 0 0 1-.137.056m-.478-2.268a.192.192 0 0 1-.136-.329l1.328-1.327a.192.192 0 1 1 .273.272l-1.329 1.328a.2.2 0 0 1-.136.056m-.512-2.267a.192.192 0 0 1-.136-.328l1.55-1.55a.192.192 0 1 1 .273.273l-1.55 1.55a.2.2 0 0 1-.137.055m.288-2.81a.192.192 0 0 1-.136-.328l2.524-2.525a.192.192 0 1 1 .272.272l-2.525 2.525a.2.2 0 0 1-.135.056m-.447-2.49a.192.192 0 0 1-.136-.329l2.313-2.313a.192.192 0 1 1 .272.272l-2.313 2.314a.2.2 0 0 1-.136.056m-.256-2.332a.192.192 0 0 1-.135-.327l1.459-1.46a.192.192 0 1 1 .272.272l-1.46 1.46a.2.2 0 0 1-.135.055m-1.725-1.212a.192.192 0 0 1-.136-.33l1.003-1.002a.192.192 0 1 1 .272.272l-1.003 1.003a.2.2 0 0 1-.136.056m-2.266.735a.192.192 0 0 1-.136-.329l1.246-1.246a.192.192 0 1 1 .272.271l-1.247 1.247a.2.2 0 0 1-.136.057m-2.523 1.628a.192.192 0 0 1-.136-.328l1.406-1.407a.192.192 0 1 1 .273.272l-1.407 1.407a.2.2 0 0 1-.136.056m-2.458.511a.192.192 0 0 1-.136-.328l1.255-1.256a.192.192 0 1 1 .272.273l-1.255 1.255a.2.2 0 0 1-.136.056m-2.076.223a.193.193 0 0 1-.136-.328l.835-.836a.193.193 0 0 1 .273.273l-.835.835a.2.2 0 0 1-.137.056m-1.852-.223a.192.192 0 0 1-.136-.329l.9-.899a.192.192 0 1 1 .271.273l-.899.899a.2.2 0 0 1-.136.056m-3.417-1.117a.192.192 0 0 1-.136-.329l.72-.72a.192.192 0 1 1 .271.273l-.719.719a.2.2 0 0 1-.136.057m-3.928-2.141a.192.192 0 0 1-.136-.328l1.066-1.065a.192.192 0 1 1 .273.272l-1.067 1.065a.2.2 0 0 1-.136.056M13.17 24.76a.192.192 0 0 1-.136-.328l1.103-1.102a.192.192 0 1 1 .272.272l-1.102 1.103a.2.2 0 0 1-.136.056m1.948-.702a.192.192 0 0 1-.136-.328l1.053-1.055a.192.192 0 1 1 .272.273l-1.053 1.053a.2.2 0 0 1-.137.056m29.802-3.746a.2.2 0 0 1-.135-.057l-5.688-5.687a.192.192 0 1 1 .272-.273l5.688 5.688a.192.192 0 0 1-.136.328m.939-1.631a.2.2 0 0 1-.136-.057l-4.616-4.616a.192.192 0 1 1 .272-.272l4.616 4.616a.19.19 0 0 1 0 .271.2.2 0 0 1-.136.057m1.105-2.448a.2.2 0 0 1-.136-.056l-4.038-4.038a.192.192 0 1 1 .272-.272l4.039 4.04a.191.191 0 0 1-.137.326m.504-2.256a.2.2 0 0 1-.137-.056l-3.092-3.091a.192.192 0 1 1 .272-.271l3.093 3.09a.191.191 0 0 1-.136.328m-.169-2.411a.2.2 0 0 1-.136-.056l-1.66-1.662a.192.192 0 1 1 .271-.272l1.661 1.661a.192.192 0 0 1-.136.329m-4.341 10.198a.2.2 0 0 1-.137-.056l-5.782-5.782a.192.192 0 1 1 .272-.272l5.783 5.781a.192.192 0 0 1-.136.329m-3.093.04a.2.2 0 0 1-.136-.056l-4.373-4.373a.192.192 0 1 1 .272-.271l4.373 4.372a.192.192 0 0 1-.136.328m-2.134.203a.2.2 0 0 1-.137-.056l-3.453-3.454a.192.192 0 1 1 .272-.272l3.454 3.454a.192.192 0 0 1-.137.328"/><path fill="#8b1e1e" d="M35.12 20.748a.192.192 0 0 1-.136-.329l3.6-3.6a.192.192 0 1 1 .273.272l-3.602 3.601a.2.2 0 0 1-.136.056m1.451 1.217a.191.191 0 0 1-.137-.328l6.218-6.218a.192.192 0 1 1 .272.272l-6.218 6.218a.2.2 0 0 1-.136.056m4.581-.328a.192.192 0 0 1-.136-.328l5.12-5.12a.192.192 0 1 1 .273.272l-5.12 5.12a.2.2 0 0 1-.136.056m-.187-2.384a.192.192 0 0 1-.136-.328L44.5 15.25a.192.192 0 1 1 .272.272L41.1 19.197a.2.2 0 0 1-.136.056m-1.684-3.366a.192.192 0 0 1-.136-.328l2.49-2.489a.192.192 0 1 1 .271.272l-2.489 2.49a.2.2 0 0 1-.136.055m-.748 5.937a.192.192 0 0 1-.136-.328l1.686-1.686a.192.192 0 1 1 .272.272l-1.685 1.686a.2.2 0 0 1-.137.056m3.554-7.714a.192.192 0 0 1-.136-.328l2.654-2.655a.192.192 0 1 1 .272.271l-2.654 2.655a.2.2 0 0 1-.136.057m2.524.841a.192.192 0 0 1-.135-.328l2.04-2.04a.192.192 0 1 1 .272.272l-2.04 2.04a.2.2 0 0 1-.136.056m-9.631 3.554a.192.192 0 0 1-.136-.328l1.94-1.942a.192.192 0 1 1 .273.272l-1.942 1.942a.2.2 0 0 1-.136.056m-1.751 1.193a.2.2 0 0 1-.136-.056l-1.802-1.801a.192.192 0 1 1 .272-.273l1.802 1.802a.192.192 0 0 1-.136.328m-1.576 1.184a.2.2 0 0 1-.136-.057l-2.05-2.05a.192.192 0 1 1 .272-.272l2.05 2.05a.192.192 0 0 1-.136.328m-1.51 1.296a.2.2 0 0 1-.136-.056l-2.644-2.644a.192.192 0 1 1 .273-.273l2.643 2.644a.192.192 0 0 1-.136.329m-2.354.356a.2.2 0 0 1-.137-.056l-2.532-2.533a.192.192 0 1 1 .272-.271l2.533 2.532a.192.192 0 0 1-.136.328m-1.995 1.045a.2.2 0 0 1-.136-.056l-3.064-3.063a.192.192 0 1 1 .272-.272l3.064 3.063a.192.192 0 0 1-.136.328m-2.338.327a.2.2 0 0 1-.136-.056l-2.829-2.83a.192.192 0 1 1 .272-.271l2.83 2.829a.192.192 0 0 1-.137.328m-2.965-.908a.2.2 0 0 1-.137-.056l-2.434-2.436a.192.192 0 1 1 .272-.271l2.434 2.435a.192.192 0 0 1-.136.328"/><path fill="#8b1e1e" d="M16.745 21.45a.192.192 0 0 1-.136-.328l1.461-1.462a.192.192 0 1 1 .272.272l-1.46 1.462a.2.2 0 0 1-.137.056m2.245 1.216a.191.191 0 0 1-.136-.328l2.107-2.109a.192.192 0 1 1 .273.273l-2.109 2.108a.2.2 0 0 1-.136.056m2.199.374a.192.192 0 0 1-.136-.33l3.894-3.894a.192.192 0 1 1 .272.273l-3.893 3.894a.2.2 0 0 1-.137.056m2.01.561a.192.192 0 0 1-.137-.328l4.966-4.965a.192.192 0 1 1 .272.272l-4.965 4.966a.2.2 0 0 1-.136.056m4.441-.515a.192.192 0 0 1-.136-.328l3.576-3.577a.192.192 0 1 1 .273.272l-3.577 3.577a.2.2 0 0 1-.136.056m.841-3.319a.192.192 0 0 1-.135-.329l1.833-1.833a.192.192 0 1 1 .272.273l-1.833 1.833a.2.2 0 0 1-.136.056m3.085-.935a.191.191 0 0 1-.136-.328l1.732-1.732a.192.192 0 1 1 .273.273l-1.733 1.732a.2.2 0 0 1-.136.055m-16.082 1.216a.193.193 0 0 1-.136-.329l.816-.817a.192.192 0 1 1 .272.273l-.816.816a.2.2 0 0 1-.136.057m-1.146.818a.2.2 0 0 1-.136-.056l-1.8-1.8a.192.192 0 1 1 .272-.272l1.8 1.8a.19.19 0 0 1 0 .271.2.2 0 0 1-.136.057m-1.698.734a.2.2 0 0 1-.136-.057l-1.879-1.88a.192.192 0 1 1 .273-.271l1.878 1.879a.19.19 0 0 1 0 .271.2.2 0 0 1-.136.057m-1.81.715a.2.2 0 0 1-.136-.056l-1.752-1.753a.19.19 0 0 1 0-.271.19.19 0 0 1 .272 0l1.751 1.752a.192.192 0 0 1-.135.328m-1.767.524a.2.2 0 0 1-.136-.057l-1.62-1.621a.192.192 0 1 1 .271-.272L9.2 22.509a.192.192 0 0 1-.136.329m-1.856.202a.2.2 0 0 1-.136-.056L5.53 21.44a.192.192 0 1 1 .273-.273l1.543 1.543a.192.192 0 0 1-.137.329"/><path fill="#8b1e1e" d="M5.197 22.572a.192.192 0 0 1-.136-.328l1.634-1.633a.192.192 0 1 1 .272.271l-1.634 1.634a.2.2 0 0 1-.136.056m1.543.608a.192.192 0 0 1-.136-.328l2.71-2.711a.192.192 0 1 1 .273.272l-2.71 2.71a.2.2 0 0 1-.137.057m2.758-.515a.192.192 0 0 1-.136-.327l3.421-3.421a.192.192 0 1 1 .272.272l-3.42 3.421a.2.2 0 0 1-.137.055m2.712-.935a.192.192 0 0 1-.135-.328l1.617-1.617a.192.192 0 1 1 .273.273l-1.618 1.617a.2.2 0 0 1-.136.056m-.889-2.245a.192.192 0 0 1-.136-.329l1.553-1.554a.192.192 0 1 1 .272.272l-1.554 1.555a.2.2 0 0 1-.136.056"/><path fill="#8b1e1e" d="M13.94 19.767a.192.192 0 0 1-.136-.328l1.264-1.264a.192.192 0 1 1 .272.273l-1.263 1.263a.2.2 0 0 1-.136.056M8.61 13.315a.192.192 0 0 1-.136-.328l4.35-4.35a.192.192 0 1 1 .273.27l-4.35 4.35a.2.2 0 0 1-.136.058m2.804.515a.192.192 0 0 1-.136-.328l3.226-3.227a.192.192 0 1 1 .273.272l-3.226 3.226a.2.2 0 0 1-.137.056m15.99-5.609a.192.192 0 0 1-.136-.329l4.397-4.397a.192.192 0 1 1 .273.272l-4.397 4.397a.2.2 0 0 1-.137.056m2.057 2.478a.192.192 0 0 1-.136-.328l4.208-4.209a.192.192 0 1 1 .272.272L29.6 10.641a.2.2 0 0 1-.137.056"/><path fill="#8b1e1e" d="M33.237 9.189a.2.2 0 0 1-.136-.056l-4.43-4.429a.192.192 0 1 1 .272-.272l4.43 4.429a.192.192 0 0 1-.136.328m-1.569 1.235a.2.2 0 0 1-.136-.056l-2.299-2.299a.192.192 0 1 1 .272-.272l2.299 2.298a.19.19 0 0 1 0 .272.2.2 0 0 1-.136.057M34.162 7.4a.2.2 0 0 1-.137-.056l-2.08-2.08a.192.192 0 1 1 .272-.272l2.08 2.08a.192.192 0 0 1-.135.329m-5.535.824a.2.2 0 0 1-.136-.056l-1.55-1.55a.192.192 0 1 1 .272-.271l1.55 1.549a.192.192 0 0 1-.136.328M13.99 12.57a.2.2 0 0 1-.136-.056l-3.182-3.182a.192.192 0 1 1 .272-.273l3.182 3.183a.192.192 0 0 1-.136.328m-1.873 1.493a.2.2 0 0 1-.136-.056l-1.356-1.356a.192.192 0 1 1 .273-.272l1.355 1.356a.192.192 0 0 1-.136.328m-1.787-.478a.2.2 0 0 1-.137-.057l-2.467-2.467a.192.192 0 1 1 .272-.272l2.467 2.467a.192.192 0 0 1-.136.329m5.46-1.461a.2.2 0 0 1-.137-.056l-2.175-2.176a.192.192 0 1 1 .272-.272l2.176 2.175a.19.19 0 0 1 0 .272.2.2 0 0 1-.136.057"/></svg>