<svg xmlns="http://www.w3.org/2000/svg" width="50" height="50" fill="none" viewBox="0 0 50 50"><path fill="#8b1e1e" d="M33.762 6.157v-3.44A2.32 2.32 0 0 0 30.776.491L8.772 6.082v.075zm6.222.898a.303.303 0 0 0 .605.034 3 3 0 0 0-.33-.336.303.303 0 0 0-.275.302m-.714.714a.304.304 0 1 0 0 .609.304.304 0 0 0 0-.609m1.019.944a.304.304 0 1 0 0 .61.304.304 0 0 0 0-.61M39.27 9.732a.304.304 0 1 0 0 .609.304.304 0 0 0 0-.61m1.019.945a.304.304 0 1 0 0 .61.304.304 0 0 0 0-.61m-1.019 1.018a.304.304 0 1 0 0 .61.304.304 0 0 0 0-.61m1.022 1.562a.305.305 0 1 0-.007-.61.305.305 0 0 0 .007.61m-1.022.401a.304.304 0 1 0 0 .609.304.304 0 0 0 0-.609m1.019.945a.304.304 0 1 0 0 .609.304.304 0 0 0 0-.609M39.27 15.62a.304.304 0 1 0 0 .609.304.304 0 0 0 0-.609m1.019.945a.304.304 0 1 0 0 .608.304.304 0 0 0 0-.608m-1.019 1.018a.304.304 0 1 0 0 .609.304.304 0 0 0 0-.609m1.019.944a.305.305 0 1 0 0 .61.305.305 0 0 0 0-.61m-1.019 1.019a.304.304 0 1 0 0 .609.304.304 0 0 0 0-.61m1.019.945a.305.305 0 1 0 0 .61.305.305 0 0 0 0-.61m-1.019 1.019a.304.304 0 1 0 0 .609.304.304 0 0 0 0-.61m1.02 1.562a.304.304 0 1 0-.006-.609.304.304 0 0 0 .007.609m-1.021.402a.304.304 0 1 0 0 .608.304.304 0 0 0 0-.608m1.019.944a.304.304 0 1 0 0 .609.304.304 0 0 0 0-.609m-1.019 1.019a.304.304 0 1 0 0 .608.304.304 0 0 0 0-.608m1.019.944a.304.304 0 1 0 0 .609.304.304 0 0 0 0-.61m-1.019 1.02a.304.304 0 1 0 0 .608.304.304 0 0 0 0-.608m1.019.944a.304.304 0 1 0 0 .609.304.304 0 0 0 0-.61M39.27 29.36a.304.304 0 1 0 0 .609.304.304 0 0 0 0-.61m1.019.946a.304.304 0 1 0 0 .609.304.304 0 0 0 0-.61m-1.019 1.019a.304.304 0 1 0 0 .609.304.304 0 0 0 0-.61m1.02 1.563a.304.304 0 1 0-.008-.609.304.304 0 0 0 .007.609m-1.019.401a.304.304 0 1 0 0 .608.304.304 0 0 0 0-.608m1.019.944a.304.304 0 1 0 0 .609.304.304 0 0 0 0-.609m-1.019 1.019a.304.304 0 1 0 0 .608.304.304 0 0 0 0-.608m1.019 1.561a.305.305 0 1 0-.007-.608.305.305 0 0 0 .007.609m-1.019.4a.304.304 0 1 0 0 .61.304.304 0 0 0 0-.61m1.019.945a.304.304 0 1 0 0 .609.304.304 0 0 0 0-.61m-1.019 1.019a.304.304 0 1 0 0 .609.304.304 0 0 0 0-.609m1.019.945a.304.304 0 1 0 0 .609.304.304 0 0 0 0-.61m-1.019 1.019a.304.304 0 1 0 0 .609.304.304 0 0 0 0-.609m1.019.945a.305.305 0 1 0 0 .609.305.305 0 0 0 0-.61M39.27 43.1a.304.304 0 1 0 0 .609.304.304 0 0 0 0-.609m1.019.944a.305.305 0 1 0 0 .61.305.305 0 0 0 0-.61m-1.019 1.019a.304.304 0 1 0 0 .608.304.304 0 0 0 0-.608m1.017 1.563a.304.304 0 1 0-.007-.61.304.304 0 0 0 .007.61m-1.017.399a.304.304 0 1 0 0 .61.304.304 0 0 0 0-.61m1.323 1.249a.305.305 0 1 0-.61 0 .305.305 0 0 0 .61 0m-1.018 1.019a.304.304 0 1 0-.49.24q.248-.058.477-.159a.3.3 0 0 0 .013-.081M38.326 6.75a.305.305 0 1 0 0 .61.305.305 0 0 0 0-.61m-1.019 1.019a.304.304 0 1 0 0 .609.304.304 0 0 0 0-.609m1.019.944a.305.305 0 1 0 0 .61.305.305 0 0 0 0-.61m-1.019 1.019a.304.304 0 1 0 0 .609.304.304 0 0 0 0-.61m1.019.945a.305.305 0 1 0 0 .61.305.305 0 0 0 0-.61m-1.019 1.018a.304.304 0 1 0 0 .61.304.304 0 0 0 0-.61m1.019 1.554a.305.305 0 1 0 0-.609.305.305 0 0 0 0 .61m-1.019.408a.304.304 0 1 0 0 .609.304.304 0 0 0 0-.609m1.019.945a.305.305 0 1 0 0 .61.305.305 0 0 0 0-.61m-1.019 1.018a.304.304 0 1 0 0 .609.304.304 0 0 0 0-.609m1.019.945a.305.305 0 1 0 0 .609.305.305 0 0 0 0-.61m-1.019 1.019a.304.304 0 1 0 0 .609.304.304 0 0 0 0-.609m1.019.944a.305.305 0 1 0 0 .61.305.305 0 0 0 0-.61m-1.019 1.019a.304.304 0 1 0 0 .609.304.304 0 0 0 0-.61m1.019.945a.305.305 0 1 0 0 .61.305.305 0 0 0 0-.61m-1.019 1.019a.304.304 0 1 0 0 .609.304.304 0 0 0 0-.61m1.019 1.554a.305.305 0 1 0 0-.609.305.305 0 0 0 0 .61m-1.019.409a.304.304 0 1 0 0 .609.304.304 0 0 0 0-.61m1.019.945a.305.305 0 1 0 0 .61.305.305 0 0 0 0-.61m-1.019 1.019a.304.304 0 1 0 0 .608.304.304 0 0 0 0-.608m1.019.944a.305.305 0 1 0 0 .609.305.305 0 0 0 0-.61m-1.019 1.02a.304.304 0 1 0 0 .608.304.304 0 0 0 0-.608m1.019.944a.305.305 0 1 0 0 .609.305.305 0 0 0 0-.61m-1.019 1.019a.304.304 0 1 0 0 .609.304.304 0 0 0 0-.61m1.019.946a.305.305 0 1 0 0 .609.305.305 0 0 0 0-.61m-1.019 1.019a.304.304 0 1 0 0 .609.304.304 0 0 0 0-.61m1.019 1.554a.305.305 0 1 0 0-.609.305.305 0 0 0 0 .61m-1.019.409a.305.305 0 1 0 0 .609.305.305 0 0 0 0-.61m1.019.945a.305.305 0 1 0 0 .61.305.305 0 0 0 0-.61m-1.019 1.019a.304.304 0 1 0 0 .608.304.304 0 0 0 0-.608m1.019 1.553a.305.305 0 1 0 0-.61.305.305 0 0 0 0 .61m-1.019.409a.304.304 0 1 0 0 .61.304.304 0 0 0 0-.61m1.019.945a.305.305 0 1 0 0 .609.305.305 0 0 0 0-.61m-1.019 1.019a.304.304 0 1 0 0 .61.304.304 0 0 0 0-.61m1.019.945a.305.305 0 1 0 0 .609.305.305 0 0 0 0-.61m-1.019 1.019a.304.304 0 1 0 0 .609.304.304 0 0 0 0-.609m1.019.945a.305.305 0 1 0 0 .609.305.305 0 0 0 0-.61M37.307 43.1a.304.304 0 1 0 0 .609.304.304 0 0 0 0-.609m1.019.944a.305.305 0 1 0 0 .61.305.305 0 0 0 0-.61m-1.019 1.019a.304.304 0 1 0 0 .608.304.304 0 0 0 0-.608m1.019 1.553a.305.305 0 1 0 0-.609.305.305 0 0 0 0 .61m-1.019.408a.304.304 0 1 0 0 .61.304.304 0 0 0 0-.61m1.323 1.249a.305.305 0 1 0-.609 0 .305.305 0 0 0 .61 0m-1.324.714a.304.304 0 1 0 0 .61.304.304 0 0 0 0-.61M36.363 6.75a.3.3 0 0 0-.26.15q.2.202.358.442a.304.304 0 0 0-.098-.592m0 41.829a.304.304 0 0 0 .244-.485q-.13.256-.31.477a.3.3 0 0 0 .066.008M32.67 38.315H15.86a.393.393 0 0 1 0-.785h16.81a.393.393 0 0 1 0 .785m0 4.124H15.86a.393.393 0 1 1 0-.785h16.81a.392.392 0 1 1 0 .785m0-19.976h-.27a8.15 8.15 0 0 0-6.735-6.727v-1.689c0-.757-.578-1.374-1.289-1.374-.71 0-1.288.617-1.288 1.374v1.69a8.15 8.15 0 0 0-6.736 6.726h-.491a1.375 1.375 0 0 0 0 2.748H32.67c.757 0 1.374-.616 1.374-1.374s-.617-1.374-1.374-1.374m-8.796-8.416c0-.324.226-.588.503-.588.278 0 .503.264.503.588v1.602a8 8 0 0 0-.503-.017q-.254 0-.503.018zm.503 2.37c3.606 0 6.61 2.614 7.226 6.046H17.151c.616-3.432 3.62-6.046 7.226-6.046m8.293 8.009H15.862a.59.59 0 0 1 0-1.178H32.67a.59.59 0 0 1 0 1.178m-7.16 7.888a.344.344 0 0 1-.344-.343v-3.972a.344.344 0 0 1 .626-.195l2.154 3.118-.029-2.927a.344.344 0 0 1 .34-.347h.004c.188 0 .341.152.343.34l.037 3.845c0 .203-.11.366-.28.42a.4.4 0 0 1-.449-.17L25.853 29.1v2.87c0 .19-.153.343-.343.343m-7.686.001a.43.43 0 0 1-.414-.307l-.834-2.827-.51 2.82a.343.343 0 1 1-.675-.122l.699-3.874a.435.435 0 0 1 .84-.048l.89 3.014.858-3.01.004-.012a.434.434 0 0 1 .837.047l.741 3.88a.344.344 0 0 1-.675.13l-.54-2.827-.805 2.825-.004.011a.43.43 0 0 1-.41.3zm5.723-.687h-1.318v-1.284h1.196a.344.344 0 0 0 0-.687h-1.196v-1.284h1.318a.344.344 0 0 0 0-.687h-1.661a.344.344 0 0 0-.344.343v3.943c0 .19.154.343.344.343h1.661a.344.344 0 0 0 0-.687m8.073.687h-.002a1.7 1.7 0 0 1-.918-.263c-.527-.337-.783-.769-.783-1.321v-2.738a.344.344 0 1 1 .687 0v2.738c0 .311.14.533.466.742q.243.155.549.155h.002q.274 0 .5-.113c.503-.253.561-.57.561-.787v-2.735a.344.344 0 1 1 .687 0v2.735c0 .423-.163 1.01-.939 1.4a1.8 1.8 0 0 1-.81.187"/><path fill="#8b1e1e" d="M38.448 5.69h-4.293V2.716A2.69 2.69 0 0 0 33.062.54a2.69 2.69 0 0 0-2.39-.427L8.675 5.702q-.019.005-.038.013l-.021.007a.4.4 0 0 0-.062.034l-.01.008a.4.4 0 0 0-.045.036l-.016.018-.03.035-.014.023a.4.4 0 0 0-.046.109l-.006.024a.4.4 0 0 0-.008.073v43.525c0 .217.176.393.393.393h29.676a3.176 3.176 0 0 0 3.173-3.173V8.862a3.176 3.176 0 0 0-3.173-3.172M30.873.872l.016-.004a1.91 1.91 0 0 1 1.704.301c.494.368.777.932.777 1.547V5.69H11.912zm9.963 45.955a2.39 2.39 0 0 1-2.388 2.388H9.164V6.475h29.284a2.39 2.39 0 0 1 2.388 2.387z"/></svg>