<svg xmlns="http://www.w3.org/2000/svg" width="50" height="50" fill="none" viewBox="0 0 50 50"><path fill="#8b1e1e" d="M43.102 30.68a.309.309 0 1 0 0-.618.309.309 0 0 0 0 .617m1.033.341a.309.309 0 1 0 .298.384v-.151a.31.31 0 0 0-.298-.233m-1.033 1.65a.309.309 0 1 0 0-.618.309.309 0 0 0 0 .618m1.033.34a.309.309 0 1 0 .298.384v-.15a.31.31 0 0 0-.298-.234m-1.033 1.65a.309.309 0 1 0 0-.618.309.309 0 0 0 0 .618m1.033.34a.309.309 0 1 0 .298.384v-.15a.31.31 0 0 0-.298-.234m-1.033 1.65a.309.309 0 1 0 0-.617.309.309 0 0 0 0 .617m1.033.34a.309.309 0 1 0 .298.384v-.15a.31.31 0 0 0-.298-.234m-1.033 1.65a.309.309 0 1 0 0-.618.309.309 0 0 0 0 .618m1.033.34a.309.309 0 1 0 .298.384v-.15a.31.31 0 0 0-.298-.234m-1.033 1.65a.309.309 0 1 0 0-.617.309.309 0 0 0 0 .617m1.033.34a.309.309 0 1 0 .298.384v-.15a.31.31 0 0 0-.298-.234m-1.033 1.65a.309.309 0 1 0 0-.617.309.309 0 0 0 0 .617m1.033.34a.309.309 0 1 0 .298.384v-.15a.31.31 0 0 0-.298-.234m-1.033 1.65a.309.309 0 1 0 0-.618.309.309 0 0 0 0 .618m1.033.34a.309.309 0 1 0 .298.385v-.151a.31.31 0 0 0-.298-.233M43.102 46.6a.309.309 0 1 0 0-.617.309.309 0 0 0 0 .617m1.033.34a.309.309 0 1 0 .298.384v-.15a.31.31 0 0 0-.298-.234m-1.033 1.65a.309.309 0 1 0 0-.617.309.309 0 0 0 0 .617m-1.99-18.528a.309.309 0 1 0 0 .618.309.309 0 0 0 0-.618m1.032.958a.309.309 0 1 0 0 .617.309.309 0 0 0 0-.617m-1.032 1.032a.309.309 0 1 0 0 .618.309.309 0 0 0 0-.618m1.032.958a.309.309 0 1 0 0 .617.309.309 0 0 0 0-.617m-1.032 1.033a.309.309 0 1 0 0 .617.309.309 0 0 0 0-.617m1.032.957a.309.309 0 1 0 0 .617.309.309 0 0 0 0-.617m-1.032 1.032a.309.309 0 1 0 0 .618.309.309 0 0 0 0-.618m1.032.958a.309.309 0 1 0 0 .618.309.309 0 0 0 0-.618m-1.032 1.033a.309.309 0 1 0 0 .617.309.309 0 0 0 0-.617m1.032.957a.309.309 0 1 0 0 .617.309.309 0 0 0 0-.617m-1.032 1.033a.309.309 0 1 0 0 .617.309.309 0 0 0 0-.617m1.032.957a.309.309 0 1 0 0 .618.309.309 0 0 0 0-.618m-1.032 1.033a.309.309 0 1 0 0 .618.309.309 0 0 0 0-.618m1.032.957a.309.309 0 1 0 0 .618.309.309 0 0 0 0-.618m-1.032 1.033a.309.309 0 1 0 0 .617.309.309 0 0 0 0-.617m1.032.957a.309.309 0 1 0 0 .618.309.309 0 0 0 0-.617m-1.032 1.032a.309.309 0 1 0 0 .617.309.309 0 0 0 0-.617m1.032.957a.309.309 0 1 0 0 .618.309.309 0 0 0 0-.618m-1.032 1.033a.309.309 0 1 0 0 .618.309.309 0 0 0 0-.618m1.341 1.267a.309.309 0 1 0-.617 0 .309.309 0 0 0 .617 0m-3.331-19.178a.309.309 0 1 0 0 .617.309.309 0 0 0 0-.617m1.032.958a.309.309 0 1 0 0 .617.309.309 0 0 0 0-.617m-1.032 1.032a.309.309 0 1 0 0 .618.309.309 0 0 0 0-.618m1.032.958a.309.309 0 1 0 0 .617.309.309 0 0 0 0-.617m-1.032 1.033a.309.309 0 1 0 0 .617.309.309 0 0 0 0-.617m1.032.957a.309.309 0 1 0 0 .617.309.309 0 0 0 0-.617m-1.032 1.032a.309.309 0 1 0 0 .618.309.309 0 0 0 0-.618m1.032.958a.309.309 0 1 0 0 .618.309.309 0 0 0 0-.618m-1.032 1.033a.309.309 0 1 0 0 .617.309.309 0 0 0 0-.617m1.032.957a.309.309 0 1 0 0 .617.309.309 0 0 0 0-.617m-1.032 1.033a.309.309 0 1 0 0 .617.309.309 0 0 0 0-.617m1.032.957a.309.309 0 1 0 0 .618.309.309 0 0 0 0-.618m-1.032 1.033a.309.309 0 1 0 0 .618.309.309 0 0 0 0-.618m1.032.957a.309.309 0 1 0 0 .618.309.309 0 0 0 0-.618m-1.032 1.033a.309.309 0 1 0 0 .617.309.309 0 0 0 0-.617m1.032.957a.309.309 0 1 0 0 .618.309.309 0 0 0 0-.617m-1.032 1.032a.309.309 0 1 0 0 .617.309.309 0 0 0 0-.617m1.032.957a.309.309 0 1 0 0 .618.309.309 0 0 0 0-.618m-1.032 1.033a.309.309 0 1 0 0 .618.309.309 0 0 0 0-.618m1.032.957a.309.309 0 1 0 0 .618.309.309 0 0 0 0-.617m-1.99-17.911a.309.309 0 1 0 0 .617.309.309 0 0 0 0-.617m0 1.99a.309.309 0 1 0 0 .617.309.309 0 0 0 0-.617m0 1.99a.309.309 0 1 0 0 .617.309.309 0 0 0 0-.617m0 1.99a.309.309 0 1 0 0 .617.309.309 0 0 0 0-.617m0 1.99a.309.309 0 1 0 0 .617.309.309 0 0 0 0-.617m0 1.99a.309.309 0 1 0 0 .617.309.309 0 0 0 0-.617m0 1.99a.309.309 0 1 0 0 .618.309.309 0 0 0 0-.618m0 1.99a.309.309 0 1 0 0 .618.309.309 0 0 0 0-.617m0 1.989a.309.309 0 1 0 0 .618.309.309 0 0 0 0-.618m0 1.99a.309.309 0 1 0 0 .618.309.309 0 0 0 0-.617m8.61-20.551q0 .049.015.092.069-.166.114-.342a.31.31 0 0 0-.13.25m-.957-3.022a.31.31 0 0 0 .38.3 2.6 2.6 0 0 0-.38-.3m-.724.724a.309.309 0 1 0 0 .618.309.309 0 0 0 0-.618m.724 1.266a.309.309 0 1 0 .618 0 .309.309 0 0 0-.618 0m-.724.724a.309.309 0 1 0 0 .617.309.309 0 0 0 0-.617m1.277 1.08a.307.307 0 1 0-.452.413 2.6 2.6 0 0 0 .452-.413m-2.234-4.102a.309.309 0 1 0 0 .617.309.309 0 0 0 0-.618m-1.033 1.033a.309.309 0 1 0 0 .618.309.309 0 0 0 0-.618m1.033.958a.309.309 0 1 0 0 .617.309.309 0 0 0 0-.617m-1.033 1.032a.309.309 0 1 0 0 .617.309.309 0 0 0 0-.617"/><path fill="#000" d="M44.135 29.03a.309.309 0 1 0 0 .617.309.309 0 0 0 0-.617m-1.991-3.98a.309.309 0 1 0 0 .617.309.309 0 0 0 0-.618m-1.032 1.033a.309.309 0 1 0 0 .618.309.309 0 0 0 0-.618m1.032.958a.309.309 0 1 0 0 .617.309.309 0 0 0 0-.617"/><path fill="#8b1e1e" d="M41.112 28.072a.309.309 0 1 0 0 .617.309.309 0 0 0 0-.617m1.032.958a.309.309 0 1 0 0 .617.309.309 0 0 0 0-.617m-1.99-3.98a.309.309 0 1 0 0 .617.309.309 0 0 0 0-.618m0 4.598a.309.309 0 1 0 0-.617.309.309 0 0 0 0 .617M18.48 47.755a1.42 1.42 0 0 1-1.008-.42 1.42 1.42 0 0 1-.336-1.493l4.621-12.978c.13-.365.395-.656.746-.82a1.4 1.4 0 0 1 1.098-.043c4.775 1.785 7.897 4.893 9.28 9.24a1.43 1.43 0 0 1-.883 1.789l-13.034 4.64q-.241.085-.485.085m4.624-15.06a.645.645 0 0 0-.608.431l-4.62 12.98a.63.63 0 0 0 .151.673.63.63 0 0 0 .674.152l13.034-4.64a.65.65 0 0 0 .398-.812c-1.305-4.106-4.268-7.047-8.807-8.743a.6.6 0 0 0-.222-.04"/><path fill="#8b1e1e" d="M24.628 39.7a2.183 2.183 0 0 1-2.18-2.18c0-1.202.978-2.18 2.18-2.18s2.18.978 2.18 2.18-.978 2.18-2.18 2.18m0-3.575c-.77 0-1.396.626-1.396 1.395 0 .77.626 1.396 1.396 1.396s1.396-.626 1.396-1.396-.626-1.395-1.396-1.395m-.75 6.374a1.05 1.05 0 1 1-2.1 0 1.05 1.05 0 0 1 2.1 0"/><path fill="#8b1e1e" d="M44.441 24.61h-2.599V13.73h.007a4.6 4.6 0 0 0 4.596-4.596q0-.011-.003-.023v-.026l-.851-7.417A1.88 1.88 0 0 0 43.722 0H6.217c-.964 0-1.768.723-1.87 1.682l-.79 7.405v.024l-.001.022a4.6 4.6 0 0 0 4.596 4.596h.006V24.61h-2.6a2.89 2.89 0 0 0-2.884 2.885 2.89 2.89 0 0 0 2.5 2.86V47.44A2.56 2.56 0 0 0 7.735 50h34.533a2.56 2.56 0 0 0 2.558-2.559V30.354a2.89 2.89 0 0 0 2.502-2.858 2.89 2.89 0 0 0-2.886-2.886m-2.593-11.666a3.817 3.817 0 0 1-3.791-3.423h7.583a3.817 3.817 0 0 1-3.791 3.423m-5 6.593h-1.5v-.596h1.14a.39.39 0 0 0 .392-.393v-1.741a.39.39 0 0 0-.393-.393h-6.306a.39.39 0 0 0-.392.393v1.741c0 .217.176.393.392.393h1.14v.596h-1.5a.39.39 0 0 0-.392.393v4.68h-7.442v-3.835a1.03 1.03 0 0 0-.88-1.018v-.882a.39.39 0 0 0-.393-.393h-1.557a.39.39 0 0 0-.392.393v.882a1.03 1.03 0 0 0-.88 1.018v3.835h-.756v-3.835a1.03 1.03 0 0 0-.88-1.018v-.882a.39.39 0 0 0-.393-.393H14.3a.39.39 0 0 0-.392.393v.882a1.03 1.03 0 0 0-.88 1.018v3.835h-1.885V12.62a4.6 4.6 0 0 0 1.245-1.705 4.6 4.6 0 0 0 4.237 2.815 4.6 4.6 0 0 0 4.204-2.742 4.6 4.6 0 0 0 4.204 2.742 4.6 4.6 0 0 0 4.204-2.742 4.6 4.6 0 0 0 4.204 2.742 4.6 4.6 0 0 0 4.204-2.742c.279.63.696 1.187 1.212 1.63V24.61h-1.616v-4.68a.393.393 0 0 0-.392-.393m-4.742-.596h2.458v.596h-2.458zm-1.531-.785v-.957h5.52v.957zm5.881 2.166v3.96h-6.242v-3.96zm-15.74.209h.243c.134 0 .244.11.244.244v3.835H18.67v-3.835c0-.135.11-.244.244-.244h.244a.39.39 0 0 0 .392-.392v-.872h.773v.872c0 .216.176.392.392.392m-4.859 0h.244c.135 0 .245.11.245.244v3.835h-2.534v-3.835c0-.135.11-.244.245-.244h.243a.39.39 0 0 0 .392-.392v-.872h.773v.872c0 .216.176.392.393.392M37.234 9.52a3.817 3.817 0 0 1-3.792 3.423A3.817 3.817 0 0 1 29.65 9.52zm-7.48-.785-.129-7.95H37.1l.49 7.951zm-.785 0h-7.651V.785h7.524zm-.143.785a3.817 3.817 0 0 1-3.792 3.423 3.817 3.817 0 0 1-3.792-3.423zm-8.293-.785H12.56l.249-7.951h7.724zm-.115.785a3.817 3.817 0 0 1-3.792 3.423 3.817 3.817 0 0 1-3.792-3.423zm24.394-7.765.801 6.98h-7.236l-.49-7.951h5.836c.557 0 1.026.417 1.09.971m-39.684.01c.06-.56.528-.981 1.09-.981h5.806l-.249 7.951h-7.39zm3.025 11.178A3.817 3.817 0 0 1 4.36 9.521h7.584a3.817 3.817 0 0 1-3.792 3.423M44.04 47.442c0 .978-.796 1.773-1.774 1.773H7.733a1.776 1.776 0 0 1-1.774-1.773V30.38h38.082zm.4-17.748H5.56a2.2 2.2 0 0 1-2.199-2.199 2.2 2.2 0 0 1 2.199-2.198h38.88a2.2 2.2 0 0 1 2.199 2.198 2.2 2.2 0 0 1-2.199 2.2"/></svg>