<svg xmlns="http://www.w3.org/2000/svg" width="160" height="160" fill="none" viewBox="0 0 160 160"><g fill="#fff" clip-path="url(#a)" opacity=".5"><path d="M155.328 82.844c0 .53.43.962.961.962.035 0 .067-.007.101-.01a48 48 0 0 0-.61-1.764.96.96 0 0 0-.452.812m.961 5.236a.962.962 0 1 0 0 1.923.962.962 0 0 0 0-1.923m0 6.196a.962.962 0 1 0 0 1.924.962.962 0 0 0 0-1.924m2.453 4.523q0-.474-.01-.947l-.005-.194a.95.95 0 0 0 .015 1.14m-2.453 1.675a.962.962 0 1 0 0 1.923.962.962 0 0 0 0-1.923m-.961 7.158q.002.076.015.149.474-.527.892-1.105a.96.96 0 0 0-.907.956m-6.197-37.181a.96.96 0 0 0 1.128.945 46 46 0 0 0-1.006-1.404.96.96 0 0 0-.122.46m.961 5.235a.96.96 0 1 0 0 1.922.96.96 0 0 0 0-1.922m3.215 2.982a.96.96 0 1 0 0 1.922.96.96 0 0 0 0-1.922m-3.215 3.215a.96.96 0 1 0 0 1.922.96.96 0 0 0 0-1.922m3.215 4.904a.96.96 0 1 0 0-1.922.96.96 0 0 0 0 1.922m-3.215 1.293a.96.96 0 1 0 0 1.921.96.96 0 0 0 0-1.921m3.215 4.904a.96.96 0 1 0 0-1.922.96.96 0 0 0 0 1.922m-3.215 1.292a.961.961 0 1 0 0 1.923.961.961 0 0 0 0-1.923m3.215 4.904a.96.96 0 1 0 0-1.921.96.96 0 0 0 0 1.922m-3.215 1.292a.96.96 0 1 0 0 1.921.96.96 0 0 0 0-1.921m3.215 4.904a.96.96 0 1 0 0-1.921.96.96 0 0 0 0 1.921m-3.215 1.293a.96.96 0 1 0 0 1.921.96.96 0 0 0 0-1.921m2.35 3.532q.422-.257.822-.546a.96.96 0 0 0-.822.546m-9.508-45.948c0 .53.43.961.961.961a.96.96 0 0 0 .817-.46 46 46 0 0 0-1.357-1.296.96.96 0 0 0-.421.795m4.176 3.943a.96.96 0 0 0 .574-.194q-.613-.736-1.254-1.446a.961.961 0 0 0 .68 1.64m-3.215 1.293a.962.962 0 1 0 .001 1.923.962.962 0 0 0-.001-1.924m3.215 2.982a.962.962 0 1 0 .001 1.923.962.962 0 0 0-.001-1.923m-3.215 3.215a.962.962 0 1 0 .001 1.923.962.962 0 0 0-.001-1.923m3.215 2.982a.962.962 0 1 0 .001 1.923.962.962 0 0 0-.001-1.923m0 6.197a.962.962 0 1 0 .001 1.923.962.962 0 0 0-.001-1.923m0 12.393a.962.962 0 1 0 .001 1.923.962.962 0 0 0-.001-1.923m0 6.197a.961.961 0 1 0 0 1.923.961.961 0 0 0 0-1.923m-9.411-44.437h.002a43 43 0 0 0-.881-.574.96.96 0 0 0 .879.574M140.914 62a.95.95 0 0 0 .558-.181 46 46 0 0 0-1.447-1.145.962.962 0 0 0 .889 1.326m-3.215 1.293a.962.962 0 1 0 0 1.923.962.962 0 0 0 0-1.923m3.215 2.981a.962.962 0 1 0 0 1.924.962.962 0 0 0 0-1.924m-9.412-9.178a.96.96 0 1 0 0 1.922.96.96 0 0 0 0-1.922M134.717 62a.961.961 0 1 0 0-1.922.961.961 0 0 0 0 1.922m-7.158-7.158a.961.961 0 1 0 1.904-.182 44 44 0 0 0-1.518-.584.96.96 0 0 0-.386.766m16.336 33.238a.962.962 0 1 0 .001 1.923.962.962 0 0 0-.001-1.923m0 6.197a.962.962 0 1 0 .001 1.923.962.962 0 0 0-.001-1.923m0 6.197a.961.961 0 1 0 0 1.923.961.961 0 0 0 0-1.923m0 6.196a.961.961 0 1 0 0 1.923.961.961 0 0 0 0-1.923m3.215 2.982a.961.961 0 0 0-.685 1.633 42 42 0 0 0 1.591-.361 1 1 0 0 0 .056-.311.96.96 0 0 0-.962-.961m-9.411-40.162a.962.962 0 1 0 0 1.924.962.962 0 0 0 0-1.924m0 6.197a.962.962 0 1 0 0 1.923.962.962 0 0 0 0-1.924m3.215 2.982a.962.962 0 1 0 0 1.923.962.962 0 0 0 0-1.923m-3.215 3.215a.962.962 0 1 0 0 1.924.962.962 0 0 0 0-1.924m3.215 2.982a.962.962 0 1 0 0 1.924.962.962 0 0 0 0-1.924m-3.215 3.215a.962.962 0 1 0 0 1.924.962.962 0 0 0 0-1.924m3.215 2.982a.962.962 0 1 0 0 1.923.962.962 0 0 0 0-1.923m-3.215 3.215a.962.962 0 1 0 0 1.924.962.962 0 0 0 0-1.924m3.215 2.981a.962.962 0 1 0 0 1.924.962.962 0 0 0 0-1.924m-3.215 3.216a.962.962 0 1 0 0 1.923.962.962 0 0 0 0-1.923m3.215 2.981a.962.962 0 1 0 0 1.923.962.962 0 0 0 0-1.923m-3.215 3.215a.962.962 0 1 0 0 1.923.962.962 0 0 0 0-1.923m4.176 3.943a.96.96 0 1 0-1.921 0 .96.96 0 0 0 1.921 0m-10.373-47.32a.96.96 0 1 0 0 1.922.96.96 0 0 0 0-1.922m3.215 2.982a.96.96 0 1 0 0 1.922.96.96 0 0 0 0-1.922m-3.215 3.215a.961.961 0 1 0 0 1.922.961.961 0 0 0 0-1.922m3.215 2.982a.96.96 0 1 0 0 1.921.96.96 0 0 0 0-1.921m-3.215 3.215a.96.96 0 1 0 0 1.921.96.96 0 0 0 0-1.922m3.215 2.982a.96.96 0 1 0 0 1.922.96.96 0 0 0 0-1.922m-3.215 3.215a.96.96 0 1 0 0 1.922.96.96 0 0 0 0-1.922m3.215 2.982a.96.96 0 1 0 0 1.922.96.96 0 0 0 0-1.922m0 6.197a.96.96 0 1 0 0 1.922.96.96 0 0 0 0-1.922m0 8.118a.961.961 0 1 0 0-1.921.961.961 0 0 0 0 1.922m0 4.274a.96.96 0 1 0 0 1.921.96.96 0 0 0 0-1.921m0 6.197h-.006c.298.264.606.511.935.726a.96.96 0 0 0-.929-.726m-9.412-52.556a.96.96 0 1 0 0 1.922.96.96 0 0 0 0-1.922m3.215 2.982a.96.96 0 1 0 0 1.922.96.96 0 0 0 0-1.922m-3.215 3.215a.96.96 0 1 0 0 1.922.96.96 0 0 0 0-1.922m3.215 2.982a.96.96 0 1 0 0 1.922.96.96 0 0 0 0-1.922m-3.215 3.215a.961.961 0 1 0 0 1.922.961.961 0 0 0 0-1.922m3.215 2.982a.96.96 0 1 0 0 1.921.96.96 0 0 0 0-1.921m-6.197-18.592a.962.962 0 1 0 .001 1.924.962.962 0 0 0-.001-1.923m-3.215 3.215a.962.962 0 1 0 .001 1.923.962.962 0 0 0-.001-1.923m3.215 2.982a.962.962 0 1 0 .001 1.923.962.962 0 0 0-.001-1.923m-3.215 3.215a.962.962 0 1 0 .001 1.923.962.962 0 0 0-.001-1.923m3.215 2.982a.962.962 0 1 0 .001 1.923.962.962 0 0 0-.001-1.923m-6.196-12.395a.962.962 0 1 0 0 1.925.962.962 0 0 0 0-1.924m-3.215 3.215a.962.962 0 1 0 0 1.924.962.962 0 0 0 0-1.924m3.215 2.982a.962.962 0 1 0 0 1.924.962.962 0 0 0 0-1.924m-9.412-9.178a.96.96 0 1 0 0 1.922.96.96 0 0 0 0-1.922m3.215 2.98a.961.961 0 1 0 0 1.923.961.961 0 0 0 0-1.922M99.557 51.86a.961.961 0 1 0 1.923 0 .961.961 0 0 0-1.923 0"/><path d="M139.957 110.663a.96.96 0 0 0 .957.911.95.95 0 0 0 .616-.229 13 13 0 0 1-1.573-.682m-9.416-21.623a.961.961 0 0 0 1.482.807 50 50 0 0 0-.351-1.75.96.96 0 0 0-1.131.944m.961 5.235a.961.961 0 1 0 0 1.923.961.961 0 0 0 0-1.923m0 6.197a.96.96 0 1 0 0 1.921.96.96 0 0 0 0-1.921m3.009 4.881a13 13 0 0 1-.658-1.353 1 1 0 0 0-.097.415c0 .46.323.843.755.938m-3.009 1.316a.96.96 0 1 0 0 1.921.96.96 0 0 0 0-1.921m2.254 3.943a.96.96 0 1 0 1.921 0 .96.96 0 0 0-1.921 0m-8.451-34.927a.96.96 0 1 0 0 1.922.96.96 0 0 0 0-1.922m2.254 3.943c0 .53.43.961.961.961a.95.95 0 0 0 .701-.307 46 46 0 0 0-.702-1.615.96.96 0 0 0-.96.961m-2.254 2.254a.96.96 0 1 0 0 1.922.96.96 0 0 0 0-1.922m3.215 2.982a.961.961 0 1 0 0 1.922.961.961 0 0 0 0-1.922m-3.215 3.215a.96.96 0 1 0 0 1.921.96.96 0 0 0 0-1.921m3.215 2.982a.96.96 0 1 0 0 1.921.96.96 0 0 0 0-1.922m-3.215 3.215a.961.961 0 1 0 0 1.923.961.961 0 0 0 0-1.923m3.215 2.982a.96.96 0 1 0 0 1.922.96.96 0 0 0 0-1.922m-3.215 3.215a.96.96 0 1 0 0 1.921.96.96 0 0 0 0-1.921m3.215 2.982a.96.96 0 1 0 0 1.921.96.96 0 0 0 0-1.921m-3.215 3.215a.96.96 0 1 0 0 1.921.96.96 0 0 0 0-1.921m3.215 2.982a.96.96 0 1 0 0 1.921.96.96 0 0 0 0-1.921m-9.412-44.437a1 1 0 0 0 .201-.021 47 47 0 0 0-1.143-1.129.962.962 0 0 0 .942 1.15m2.811 2.89a51 51 0 0 0-.52-.62.96.96 0 0 0 .52.62m-2.811 1.385a.962.962 0 1 0 .001 1.923.962.962 0 0 0-.001-1.924m3.216 2.982a.962.962 0 1 0 0 1.924.962.962 0 0 0 0-1.924m-3.216 3.215a.962.962 0 1 0 .001 1.923.962.962 0 0 0-.001-1.923m3.216 2.982a.962.962 0 1 0 0 1.923.962.962 0 0 0 0-1.923m-3.216 3.215a.962.962 0 1 0 .001 1.923.962.962 0 0 0-.001-1.923m3.216 2.982a.962.962 0 1 0 0 1.923.962.962 0 0 0 0-1.923m0 6.197a.962.962 0 1 0 0 1.923.962.962 0 0 0 0-1.924m0 6.197a.962.962 0 1 0 0 1.923.962.962 0 0 0 0-1.923m0 6.197a.962.962 0 1 0 0 1.923.962.962 0 0 0 0-1.923m-3.216 3.215a.961.961 0 1 0 0 1.923.961.961 0 0 0 0-1.923m3.216 2.982a.962.962 0 1 0 0 1.923.962.962 0 0 0 0-1.923m-6.541-47.718q-.234-.195-.47-.389c.11.176.274.313.47.389m-2.871 1.359a.962.962 0 1 0 0 1.923.962.962 0 0 0 0-1.923m3.215 2.981a.962.962 0 1 0 0 1.924.962.962 0 0 0 0-1.924m-3.215 3.216a.962.962 0 1 0 0 1.923.962.962 0 0 0 0-1.924m3.215 2.982a.962.962 0 1 0 0 1.924.962.962 0 0 0 0-1.924m0 37.181a.962.962 0 1 0 0 1.923.962.962 0 0 0 0-1.923m-9.412-52.556a.96.96 0 1 0 0 1.921.96.96 0 0 0 0-1.921m3.215 2.982a.96.96 0 1 0 0 1.921.96.96 0 0 0 0-1.921m-3.215 3.215a.96.96 0 1 0 0 1.921.96.96 0 0 0 0-1.922m3.215 2.982a.96.96 0 1 0 0 1.922.96.96 0 0 0 0-1.922m-6.197-10.471a.96.96 0 0 0 .934-.742 46 46 0 0 0-1.752-.717.95.95 0 0 0-.143.498c0 .531.43.961.961.961m-3.215 1.293a.961.961 0 1 0 0 1.922.961.961 0 0 0 0-1.922m3.215 2.982a.962.962 0 1 0 .001 1.923.962.962 0 0 0-.001-1.923M93.36 51.86a.958.958 0 0 0 1.878.273 46 46 0 0 0-1.873-.323c0 .017-.005.033-.005.05m4.176 2.02a.962.962 0 1 0 0 1.924.962.962 0 0 0 0-1.923"/><path d="M159.99 97.83c-.23-12.837-5.299-24.859-14.272-33.85-6.32-6.332-14.065-10.64-22.484-12.623-1.155-.51-2.414-.682-3.702-.715a47 47 0 0 0-7.311-.531q-.78.006-1.562.038c-.796-.311-1.624-.732-2.482-1.168-2.009-1.022-4.287-2.18-6.84-2.214-2.025-.028-4.015.852-5.93 1.703-1.592.706-3.237 1.436-4.873 1.633a1.3 1.3 0 0 0-.304.081 47 47 0 0 0-3.608-.144h-.078c-2.158 0-4.284.152-6.367.443a47 47 0 0 0-6.691-.48l-.275.002c-.52.002-1.04.018-1.56.039-.796-.312-1.625-.733-2.483-1.17-2.01-1.022-4.288-2.18-6.84-2.213-2.02-.025-4.015.852-5.932 1.703-1.59.706-3.236 1.436-4.871 1.633a1.2 1.2 0 0 0-.305.08 48 48 0 0 0-3.608-.144h-.078C21.403 49.933.094 71.88.02 98.891L0 106.396a6.57 6.57 0 0 0 1.858 4.625 6.32 6.32 0 0 0 4.546 1.941l100.205.272 39.144.107h.039c7.513-.001 13.749-5.992 14.205-13.657l.003-.074v-.732q0-.524-.01-1.046M96.427 50.769c1.745-.774 3.388-1.5 4.877-1.486 1.968.026 3.882 1 5.733 1.94.6.306 1.209.613 1.825.893.239.37.661.608 1.124.581q.143-.007.287-.012c.417.143.838.265 1.262.349 1.816.362 3.636.273 5.398.186a39 39 0 0 1 2.32-.068q1.631.256 3.225.631c1.731.885 2.948 2.6 4.232 4.417.887 1.252 1.803 2.548 2.915 3.543 1.249 1.119 2.723 1.947 4.149 2.748 1.892 1.062 3.679 2.066 4.636 3.578.998 1.577 1.19 3.657 1.393 5.858.156 1.686.317 3.43.875 5 .628 1.768 1.694 3.327 2.724 4.834 1.159 1.696 2.253 3.297 2.539 4.935.349 2.008-.197 4.143-.725 6.207-.438 1.714-.852 3.332-.792 4.907.13 3.443.937 5.067 1.585 6.372.616 1.24 1.061 2.136.753 4.588v.011q-.481.043-.971.044h-.031c-6.461-.017-11.703-5.43-11.685-12.077.036-13.19-5.011-25.542-14.21-34.781-6.666-6.696-14.945-11.15-23.927-12.982zm22.048 47.999v.697c-.316 5.057-3.662 9.223-8.147 10.688.19-2.635-.451-3.937-1.076-5.196-.598-1.202-1.215-2.445-1.325-5.348-.046-1.21.324-2.657.716-4.189.566-2.213 1.207-4.722.765-7.26-.378-2.177-1.68-4.082-2.939-5.924-.94-1.375-1.912-2.797-2.43-4.257-.453-1.273-.593-2.787-.741-4.39-.222-2.4-.451-4.882-1.772-6.97-1.297-2.05-3.448-3.258-5.53-4.427-1.368-.769-2.66-1.494-3.703-2.429-.9-.806-1.696-1.931-2.54-3.123-.31-.439-.631-.891-.968-1.342 16.986 6.361 29.331 22.966 29.681 42.472q.009.496.009.998M57.417 50.663c1.746-.775 3.39-1.497 4.878-1.488 1.968.026 3.882 1 5.733 1.942 1.453.738 2.956 1.502 4.497 1.81 1.817.362 3.638.272 5.398.186a40 40 0 0 1 2.272-.069q1.67.261 3.298.645c1.718.89 2.93 2.597 4.208 4.403.886 1.253 1.802 2.549 2.914 3.544 1.25 1.119 2.724 1.947 4.15 2.748 1.892 1.063 3.679 2.066 4.635 3.579.998 1.577 1.19 3.656 1.394 5.857.156 1.687.317 3.43.875 5 .627 1.768 1.693 3.327 2.724 4.835 1.159 1.695 2.253 3.296 2.538 4.934.349 2.008-.197 4.142-.724 6.207-.438 1.713-.852 3.332-.793 4.906.13 3.444.937 5.068 1.586 6.373.616 1.24 1.061 2.136.753 4.588v.011a12 12 0 0 1-.97.044h-.032c-6.461-.017-11.703-5.431-11.685-12.077.036-13.19-5.01-25.542-14.21-34.781-6.666-6.697-14.945-11.15-23.928-12.982zm33.876 60.013h-.007l-64.088-.174h-.007l-20.78-.056a3.82 3.82 0 0 1-2.749-1.178 4.07 4.07 0 0 1-1.147-2.866l.02-7.504c.07-25.628 20.25-46.45 45-46.45h.073c11.844.02 23.019 4.703 31.466 13.187 8.724 8.762 13.51 20.482 13.476 33.01-.013 4.997 2.452 9.421 6.21 12.052zm39.009.107h-.006l-15.558-.043a14.6 14.6 0 0 0 6.25-11.162l.002-.074.001-.732q0-.525-.011-1.048c-.23-12.837-5.298-24.858-14.271-33.849-5.128-5.137-11.196-8.943-17.798-11.257 10.988.58 21.273 5.189 29.172 13.123 8.725 8.763 13.511 20.482 13.477 33.01a14.63 14.63 0 0 0 6.209 12.052zm27.182-11.213c-.316 5.057-3.661 9.223-8.147 10.688.191-2.635-.451-3.937-1.076-5.195-.597-1.203-1.215-2.446-1.324-5.349-.046-1.21.324-2.657.716-4.188.565-2.214 1.207-4.723.765-7.262-.378-2.176-1.681-4.08-2.94-5.923-.94-1.375-1.912-2.797-2.431-4.256-.452-1.274-.592-2.787-.74-4.39-.222-2.4-.451-4.883-1.772-6.97-1.297-2.05-3.449-3.259-5.53-4.428-1.367-.768-2.66-1.494-3.703-2.428-.9-.806-1.696-1.931-2.539-3.123a64 64 0 0 0-.975-1.35c16.99 6.36 29.337 22.97 29.687 42.479q.01.496.009.998z"/><path d="M74.66 86.045h-.013a4.35 4.35 0 0 1-3.13-1.335 4.5 4.5 0 0 1-1.274-3.17 4.5 4.5 0 0 1 1.291-3.164 4.35 4.35 0 0 1 3.125-1.318h.013a4.35 4.35 0 0 1 3.13 1.335 4.5 4.5 0 0 1 1.274 3.17c-.007 2.474-1.987 4.482-4.417 4.482m0-6.472c-.5 0-.973.2-1.33.565a2 2 0 0 0-.572 1.408 2 2 0 0 0 .563 1.412c.357.367.83.57 1.333.572h.005c1.046 0 1.899-.884 1.902-1.974a2 2 0 0 0-.564-1.41 1.85 1.85 0 0 0-1.332-.573zm-13.75 14.205c-.003 1.035.813 1.876 1.824 1.879 1.01.002 1.83-.834 1.834-1.869.002-1.035-.814-1.876-1.824-1.878-1.01-.004-1.832.833-1.834 1.868M48.213 70.896c-.003 1.035.813 1.876 1.824 1.879 1.01.002 1.83-.834 1.834-1.87.002-1.034-.814-1.875-1.824-1.878s-1.831.834-1.834 1.87m-26.352 9.851c-.003 1.035.814 1.876 1.824 1.878s1.831-.834 1.834-1.869-.814-1.876-1.824-1.878-1.831.834-1.834 1.869m21.285 15.876h-.012a4.35 4.35 0 0 1-3.13-1.336 4.5 4.5 0 0 1-1.274-3.17 4.5 4.5 0 0 1 1.292-3.164 4.35 4.35 0 0 1 3.125-1.318h.012a4.35 4.35 0 0 1 3.13 1.335 4.5 4.5 0 0 1 1.275 3.17c-.008 2.474-1.988 4.483-4.418 4.483m0-6.473c-.5 0-.972.2-1.33.565-.367.374-.57.875-.571 1.409a2 2 0 0 0 .564 1.411c.356.368.83.57 1.332.573h.005c1.046 0 1.899-.885 1.902-1.974a2 2 0 0 0-.564-1.412 1.85 1.85 0 0 0-1.332-.572zM33.41 72.665h-.01a4.35 4.35 0 0 1-3.13-1.336 4.5 4.5 0 0 1-1.274-3.17 4.5 4.5 0 0 1 1.291-3.163 4.35 4.35 0 0 1 3.125-1.319h.012a4.35 4.35 0 0 1 3.13 1.336 4.5 4.5 0 0 1 1.275 3.17c-.007 2.474-1.987 4.482-4.417 4.482m.001-6.473c-.5 0-.972.2-1.33.566-.367.373-.57.874-.572 1.408a2 2 0 0 0 .564 1.411c.357.368.83.571 1.332.573h.006c1.046 0 1.898-.885 1.901-1.974a2 2 0 0 0-.563-1.411 1.86 1.86 0 0 0-1.333-.573z"/></g><defs><clipPath id="a"><path fill="#fff" d="M0 0h160v160H0z"/></clipPath></defs></svg>