<svg xmlns="http://www.w3.org/2000/svg" width="34" height="34" fill="none" viewBox="0 0 34 34"><path fill="#0b2919" fill-rule="evenodd" d="M9.978 13.684c0-6.293 6.044-4.036 5.467-13.684C6.785.786 0 8.077 0 16.955c0 9.404 7.611 17.028 17 17.028 9.39 0 17-7.624 17-17.028C34 8.077 27.214.786 18.554 0c-.575 9.648 5.468 7.39 5.468 13.684l-.853 13.821a.88.88 0 0 1-.876.878.88.88 0 0 1-.875-.878V14.68a.854.854 0 0 0-.85-.851c-.467 0-.85.38-.85.85l-.078 12.827a.88.88 0 0 1-.876.878.88.88 0 0 1-.876-.878v-9.12a.853.853 0 0 0-.849-.851.85.85 0 0 0-.849.851v8.896c0 .724-.477 1.096-.955 1.102-.477-.006-.953-.378-.953-1.102V22.25c0-.47-.383-.85-.85-.85a.854.854 0 0 0-.849.85v5.256a.88.88 0 0 1-.875.878.88.88 0 0 1-.876-.878" clip-rule="evenodd"/></svg>