<svg xmlns="http://www.w3.org/2000/svg" width="80" height="80" fill="none" viewBox="0 0 80 80"><path fill="#6f4e37" d="M19.39 78.438h41.22a3.77 3.77 0 0 0 3.765-3.766v-.594a3.77 3.77 0 0 0-3.766-3.766h-1.318v-15.04h1.318a3.77 3.77 0 0 0 3.766-3.765v-.594a3.77 3.77 0 0 0-3.766-3.765H46.196V43.79c6.1-2.48 10.483-8.506 10.754-15.605a3.1 3.1 0 0 0 1.9-2.857v-.453a3.1 3.1 0 0 0-3.096-3.097H40.897l.068-4.567h6.307a2.8 2.8 0 0 0 2.028-.877l2.748-2.894a.63.63 0 0 1 .401-.196l3.36.02v3.358a.938.938 0 0 0 1.876 0v-3.347l3.142.02h.006a.938.938 0 0 0 .006-1.875l-3.154-.02V7.8a2.96 2.96 0 0 0 2.19-2.854V4.52a2.96 2.96 0 0 0-2.959-2.958h-.276a2.963 2.963 0 0 0-2.96 2.958v.425a2.96 2.96 0 0 0 2.13 2.838v3.605l-3.406-.02h-.026a2.5 2.5 0 0 0-1.69.78l-2.747 2.893a.92.92 0 0 1-.67.293h-6.278l.033-2.18a3.815 3.815 0 0 0 2.803-3.706c0-2.11-1.672-3.825-3.729-3.825-2.056 0-3.73 1.716-3.73 3.825a3.816 3.816 0 0 0 2.78 3.698l-.032 2.188h-5.232a.938.938 0 0 0 0 1.875h5.203l-.068 4.567H24.246a3.1 3.1 0 0 0-3.097 3.098v.453a3.1 3.1 0 0 0 1.901 2.857c.271 7.099 4.654 13.126 10.754 15.605v3.357H19.39a3.77 3.77 0 0 0-3.766 3.766v.594a3.77 3.77 0 0 0 3.766 3.765h1.319v15.04h-1.32a3.77 3.77 0 0 0-3.765 3.766v.594a3.77 3.77 0 0 0 3.766 3.766M55.557 4.52a1.085 1.085 0 0 1 1.084-1.083h.276a1.085 1.085 0 0 1 1.085 1.083v.425a1.085 1.085 0 0 1-1.085 1.084h-.276a1.085 1.085 0 0 1-1.084-1.084zM38.246 9.45c0-1.075.832-1.95 1.854-1.95s1.855.875 1.855 1.95-.832 1.95-1.855 1.95c-1.022 0-1.854-.875-1.854-1.95M23.024 24.875a1.224 1.224 0 0 1 1.222-1.222h31.508a1.223 1.223 0 0 1 1.222 1.222v.453a1.223 1.223 0 0 1-1.222 1.222H24.246a1.224 1.224 0 0 1-1.222-1.222zm1.913 3.55h30.126c-.47 8.188-7.046 14.7-15.063 14.7s-14.594-6.512-15.062-14.7m10.741 15.998c2.83.769 5.814.769 8.643 0v2.724H35.68zM17.5 51.507v-.594a1.893 1.893 0 0 1 1.89-1.89h15.124a.9.9 0 0 0 .454 0h10.063a.9.9 0 0 0 .454 0H60.61a1.893 1.893 0 0 1 1.891 1.89v.594a1.894 1.894 0 0 1-1.89 1.89H19.39a1.893 1.893 0 0 1-1.89-1.89m5.085 3.765h34.83v15.04h-34.83zM17.5 74.078a1.893 1.893 0 0 1 1.89-1.89h41.22a1.893 1.893 0 0 1 1.89 1.89v.594a1.893 1.893 0 0 1-1.89 1.89H19.39a1.893 1.893 0 0 1-1.89-1.89z"/><path fill="#6f4e37" d="M50.165 57.475h-20.33a1.25 1.25 0 0 0-1.25 1.25v8.278a1.25 1.25 0 0 0 1.25 1.25h20.33a1.25 1.25 0 0 0 1.25-1.25v-8.278a1.25 1.25 0 0 0-1.25-1.25m-.625 8.903H30.46V59.35h19.08z"/></svg>