<svg xmlns="http://www.w3.org/2000/svg" width="80" height="80" fill="none" viewBox="0 0 80 80"><path fill="#6f4e37" d="m15.873 22 10.083 53.64a3.966 3.966 0 0 0 3.894 3.235h22.154a3.99 3.99 0 0 0 3.872-3.125l11.69-53.748a4.806 4.806 0 0 0-1.308-8.963l-.137-9.451a1.61 1.61 0 0 0-1.766-1.581L19.963 7.409a1.613 1.613 0 0 0-1.416 1.6v3.94h-.434A4.805 4.805 0 0 0 15.873 22m4.457 13.56H62.7l-5.275 24.25H24.888zm33.713 39.792A2.1 2.1 0 0 1 52.004 77H29.85a2.09 2.09 0 0 1-2.05-1.706l-2.56-13.61h31.776zm11.485-52.794-2.42 11.127h-43.13l-2.092-11.127zM20.422 9.242 64.25 3.91l.132 9.04h-43.96zm-2.309 5.582h47.22a2.93 2.93 0 1 1 0 5.859h-47.22a2.93 2.93 0 1 1 0-5.86"/><path fill="#6f4e37" d="M48.428 41.252c-1.297-1.326-3.233-1.837-5.452-1.44-2.086.376-4.199 1.523-5.95 3.233-2.186 2.133-3.508 4.886-3.536 7.363-.019 1.6.493 2.978 1.479 3.986 1.01 1.032 2.406 1.57 4.023 1.57q.72-.002 1.428-.131c2.087-.375 4.2-1.522 5.951-3.232 2.185-2.134 3.507-4.886 3.536-7.363.018-1.6-.493-2.979-1.479-3.986m-10.093 3.134c1.865-1.82 4.172-2.818 6.071-2.818a3.97 3.97 0 0 1 2.139.557l-.727 1.243a7.57 7.57 0 0 1-4.165 3.375l-.811.269a8.05 8.05 0 0 0-4.393 3.53l-.84 1.413a4.3 4.3 0 0 1-.244-1.526c.023-1.99 1.133-4.25 2.97-6.043m6.726 6.873c-2.656 2.593-6.21 3.518-8.203 2.264l1.203-2.022a6.18 6.18 0 0 1 3.37-2.709l.811-.268a9.45 9.45 0 0 0 5.196-4.21l.356-.61c.17.486.25.999.238 1.513-.023 1.99-1.133 4.248-2.97 6.042"/></svg>