<svg xmlns="http://www.w3.org/2000/svg" width="80" height="80" fill="none" viewBox="0 0 80 80"><path fill="#6f4e37" d="M25.934 53.493H3.438V31.955a.937.937 0 1 0-1.876 0v43.903a.937.937 0 0 0 1.876 0v-20.49h22.014v20.49a.938.938 0 0 0 1.875 0V54.885a1.394 1.394 0 0 0-1.393-1.392M77.5 31.018a.937.937 0 0 0-.937.937v21.538H54.066a1.394 1.394 0 0 0-1.393 1.392v20.973a.937.937 0 1 0 1.875 0v-20.49h22.015v20.49a.938.938 0 0 0 1.874 0V31.955a.937.937 0 0 0-.937-.937"/><path fill="#6f4e37" d="M44.428 75.824h-2.72V46.082h17.695a.938.938 0 0 0 0-1.875H41.708v-1.093a1 1 0 0 0-.006-.108l.096-16.85c1.302 1.125 3.196 1.806 5.282 1.74 2.123-.066 4.067-.88 5.333-2.232q.29-.308.529-.658c1.25 1.578 3.502 2.596 6.032 2.516 2.122-.067 4.066-.88 5.333-2.233a4.8 4.8 0 0 0 1.37-3.439 1.3 1.3 0 0 0-.006-.456l-.02-.307a1 1 0 0 0-.011-.117c-.327-5.173-3.072-9.929-7.772-13.436-4.2-3.135-9.531-4.945-15.214-5.2a7 7 0 0 0-.703-.023 32 32 0 0 0-1.681.007c-7.525.238-14.456 3.166-19.017 8.034-3.28 3.5-5.06 7.808-5.048 12.178a1 1 0 0 0-.004.12l.013.369q.007.176.075.338c.543 2.672 3.457 4.598 6.976 4.488 2.413-.076 4.516-1.118 5.696-2.658 1.163 1.656 3.393 2.764 5.937 2.764a9 9 0 0 0 .278-.005c1.818-.057 3.503-.663 4.746-1.686l-.102 17.948H22.547a.938.938 0 0 0 0 1.875h17.286v29.74h-2.718a.937.937 0 1 0 0 1.876h7.313a.938.938 0 0 0 0-1.875m6.617-51.442c-.915.977-2.42 1.59-4.024 1.64-2.763.09-5.065-1.448-5.132-3.423q-.003-.13.006-.26a1 1 0 0 0 .002-.097 228 228 0 0 1-.064-2.256l.015-2.812a.9.9 0 0 0-.067-.354c-.056-6.8.27-11.31.631-12.62l.128.006c2.18.209 4.3 1.934 6.026 4.939 1.919 3.34 3.089 7.81 3.319 12.634a1 1 0 0 0 0 .248q.018.13.023.26c.032.936-.452 1.656-.863 2.095m12.744-2.864a1 1 0 0 0 .02.162 2 2 0 0 0-.007.232c.032.936-.453 1.656-.863 2.095-.915.977-2.42 1.59-4.024 1.64-2.763.09-5.066-1.448-5.132-3.423q-.004-.13.006-.261a1 1 0 0 0-.033-.317c-.25-5.1-1.505-9.852-3.564-13.435a15.7 15.7 0 0 0-2.465-3.29c9.08 2.14 15.796 8.68 16.062 16.597M23.207 25.97c-2.704.083-4.986-1.402-5.126-3.326-.05-3.981 1.516-7.782 4.54-11.011 3.336-3.56 8.063-5.999 13.366-6.977-2.217 1.533-3.889 3.253-5.129 5.265-1.994 3.234-2.894 7.337-2.753 12.53a1 1 0 0 0-.021.11c-.174 1.83-2.317 3.328-4.877 3.409m15.934-1.539c-.916.977-2.42 1.59-4.024 1.64-2.758.089-5.055-1.44-5.132-3.41v-.038l-.001-.013c-.16-4.918.647-8.748 2.47-11.705 1.657-2.687 4.218-4.82 8.043-6.7-.187.937-.364 2.491-.482 5.14-.13 2.972-.15 6.69-.057 10.652l-.017 2.996a3.2 3.2 0 0 1-.8 1.438"/></svg>