<svg xmlns="http://www.w3.org/2000/svg" width="80" height="80" fill="none" viewBox="0 0 80 80"><path fill="#6f4e37" d="M75.09 13.064a3.94 3.94 0 0 0-3.007.45l-18.477 11.98a3.986 3.986 0 0 0-1.722 4.616l-5.42 3.508-1.162-4.593a1.21 1.21 0 0 0-.715-.853l-5.016-2.207-1.59-7.239 1.636-9.885.012-.072v-.072a1.344 1.344 0 0 0-1.381-1.358l-33.9.926a1.344 1.344 0 0 0-1.2 1.865l.056.132 7.805 9.24-8.672 44.037.003.105a5.816 5.816 0 0 0 5.976 5.65l33.584-.96a5.823 5.823 0 0 0 5.643-5.984l-.002-.088-3.73-16.989 3.775-5.57c.18-.268.247-.596.186-.914l-.823-3.251 5.91-3.826a4 4 0 0 0 2.816 1.163c.719 0 1.424-.197 2.04-.57l18.477-11.98a3.98 3.98 0 0 0-1.102-7.261M36.278 19.71l7.182 32.71L9.203 38.37l3.542-17.987zM37.65 9.232l-1.423 8.604-23.602.675-7.098-8.403zm4.195 57.228-33.583.96a3.94 3.94 0 0 1-4.044-3.73l4.616-23.445L43.95 54.647l1.721 7.841a3.945 3.945 0 0 1-3.824 3.972m1.41-23.711-3.188-14.516 3.487 1.534 2.31 9.132zM75.21 18.727 56.736 30.706a2.096 2.096 0 0 1-2.867-.727 2.11 2.11 0 0 1 .718-2.887l18.475-11.978a2.097 2.097 0 0 1 2.867.726 2.11 2.11 0 0 1-.718 2.887"/></svg>