<svg xmlns="http://www.w3.org/2000/svg" width="103" height="49" fill="none" viewBox="0 0 103 49"><path fill="#6f4e37" d="M5.263 9.6c-.665-1.689-.376-3.63.236-5.264C6.143 2.618 7.264.904 8.94 0c.084 1.811-.47 3.6-1.074 5.214-.544 1.45-1.21 2.997-2.312 4.197q-.254 1.365-.39 2.719a6.9 6.9 0 0 1 1.695-2.522c.951-.9 2.366-1.594 3.693-1.184-.388 1.468-1.275 2.875-2.325 3.862-.826.777-1.917 1.772-3.202 1.811a32 32 0 0 0 .087 3.943c.18-.95.57-1.844 1.13-2.51.771-.916 1.914-2.035 3.374-1.848-.08 1.486-.672 3.008-1.497 4.151-.656.91-1.522 2.068-2.75 2.367q.295 1.915.818 3.758c.003-.94.21-1.863.623-2.603.58-1.043 1.484-2.345 2.946-2.447.214 1.458-.076 3.05-.662 4.318-.468 1.013-1.092 2.304-2.229 2.839a31 31 0 0 0 1.69 3.844c-.227-1.068-.218-2.194.052-3.207.37-1.396 1.292-2.862 2.77-3.288.523 1.541.45 3.262.147 4.828-.25 1.29-.74 2.805-1.841 3.643a31 31 0 0 0 2.383 3.336c-.466-1.04-.698-2.177-.574-3.219.182-1.517.608-3.14 2.157-3.948.88 1.517 1.083 3.218 1.158 4.899.06 1.358-.136 3.034-1.08 4.14a31.5 31.5 0 0 0 3.355 3.02c-.773-.99-1.313-2.153-1.428-3.303-.162-1.624-.082-3.412 1.359-4.604 1.233 1.287 1.968 3.183 2.329 4.83.319 1.457.652 3.18-.107 4.613a32.3 32.3 0 0 0 4.865 2.61c-1.209-.86-2.199-2.043-2.67-3.263-.618-1.6-1-3.506.204-5.108 1.612 1.032 2.797 2.795 3.73 4.402.802 1.379 1.631 3.282 1.22 4.925q1.427.485 2.926.848l-.059.245a34 34 0 0 1-2.938-.85c-.669 1.977-2.861 2.63-4.634 2.919-2.526.41-5.534-.386-7.69-1.99 1.137-1.608 3.46-1.771 5.211-1.895l.023-.001a18.8 18.8 0 0 1 5.922.546 32.7 32.7 0 0 1-6.237-3.169l-.028.045c-1.054 1.709-3.17 1.775-4.83 1.667-2.253-.146-4.855-1.517-6.36-3.41 1.416-1.243 3.508-.895 5.129-.626l.007.002c1.81.3 3.786.956 5.445 1.966a8 8 0 0 1-.462-.394 32 32 0 0 1-4.453-3.84l-.047.047c-1.313 1.321-3.226.975-4.718.545-1.997-.575-4.069-2.31-5.061-4.303 1.538-.862 3.377-.152 4.807.41 1.57.617 3.231 1.603 4.509 2.86a8 8 0 0 1-.376-.519 31.5 31.5 0 0 1-3.194-4.288l-.047.03c-1.486.958-3.169.264-4.503-.419-1.808-.925-3.262-2.96-3.89-4.96 1.605-.514 3.19.495 4.422 1.293 1.348.874 2.713 2.12 3.65 3.549a7 7 0 0 1-.192-.432c-.9-1.57-1.665-3.22-2.284-4.93l-.032.01-.003.002c-1.35.513-2.855-.285-3.835-1.16-1.363-1.217-2.324-3.088-2.55-4.915 1.41-.183 2.736.907 3.643 1.836 1.044 1.07 1.981 2.334 2.557 3.738a6 6 0 0 1-.108-.464 31.5 31.5 0 0 1-1.183-4.96l-.02.002-.008.001c-1.428.238-2.748-.847-3.537-1.9C.45 16.87-.12 14.825.022 12.97c1.423.1 2.506 1.453 3.208 2.547.813 1.267 1.487 2.702 1.782 4.202a6 6 0 0 1-.016-.36 32 32 0 0 1-.223-5.267h-.004c-1.452-.053-2.525-1.4-3.079-2.597C.897 9.787.77 7.623 1.299 5.8c1.383.388 2.155 1.976 2.61 3.198.525 1.408.892 2.945.894 4.472q.113-1.923.46-3.87m28.594-3.162v6.118c0 2.691-2.437 3.986-6.13 3.986-3.454 0-5.93-1.282-5.93-4.303V6.437h3.441v5.802c0 1.079.927 1.752 2.628 1.752 1.625 0 2.59-.699 2.59-1.74V6.439zm11.457 7.312v2.653h-9.508V6.438h3.44v7.311zm10.222-4.812v-2.5H43.642v2.5h4.201v7.464h3.479V8.939z"/><path fill="#6f4e37" fill-rule="evenodd" d="M67.739 7.453c.457.47.673 1.117.673 2.018 0 .775-.19 1.435-.508 1.88-.356.482-.902.888-1.574.99l3.009 4.062h-3.783l-2.476-3.517h-3.085v3.517h-3.389V6.438h7.934c1.574 0 2.602.38 3.198 1.015m-2.742 2.856c.089-.152.114-.355.114-.52 0-.19-.025-.394-.114-.52-.178-.33-.533-.42-1.067-.42h-3.922v1.816h3.986c.546 0 .876-.102 1.003-.356m8.924 4.253h5.383l.875 1.84h3.67L78.82 6.438h-4.1l-5.32 9.965h3.593zm4.304-2.234h-3.187l1.258-2.4.38-.914.356.902zm-10.846 5.953c-2.13 0-3.25 1.01-3.25 2.493 0 1.674 1.176 2.523 3.25 2.523 2.283 0 3.243-.985 3.243-2.523 0-1.563-1.083-2.493-3.243-2.493m0 3.78c-1.213 0-1.564-.5-1.564-1.269 0-.757.382-1.255 1.558-1.255 1.286 0 1.575.56 1.575 1.255 0 .739-.35 1.268-1.57 1.268" clip-rule="evenodd"/><path fill="#6f4e37" d="M60.97 23.222V20.36h-3.212v1.04h1.717a.8.8 0 0 1-.154.327c-.178.209-.652.393-1.267.393-.64 0-1.053-.166-1.274-.424-.148-.191-.234-.462-.234-.868 0-.425.086-.714.252-.905.24-.27.646-.387 1.243-.387.536 0 .905.123 1.077.276a.67.67 0 0 1 .216.308h1.594a1.7 1.7 0 0 0-.142-.578c-.381-.776-1.268-1.237-2.775-1.237-1.311 0-2.191.4-2.678 1.003-.32.412-.467.93-.467 1.508 0 .64.172 1.187.455 1.55.48.622 1.336.93 2.363.93.905 0 1.527-.215 1.92-.542l.044.468zm-16.764-2.924c1.25.135 1.784.579 1.784 1.422 0 1.021-.997 1.575-2.96 1.575-1.828 0-2.615-.517-2.917-1.194a2 2 0 0 1-.117-.48h1.773a.6.6 0 0 0 .117.259c.147.178.56.283 1.261.283.905 0 1.12-.13 1.12-.37 0-.258-.221-.313-1.04-.4-.326-.03-.843-.08-1.058-.098-1.563-.142-2.142-.628-2.142-1.459 0-.861 1.021-1.52 2.886-1.52 1.656 0 2.425.493 2.745 1.108.099.185.16.394.179.542h-1.773a.4.4 0 0 0-.098-.222c-.136-.178-.48-.295-1.096-.295-.867 0-1.095.104-1.095.326 0 .246.29.302 1.255.406.376.03.973.092 1.176.117"/><path fill="#6f4e37" fill-rule="evenodd" d="M26.536 18.799c.326.259.51.695.51 1.33 0 .516-.128.904-.375 1.175-.332.381-.88.554-1.594.56-.221.006-2.117 0-2.117 0v1.354h-1.655v-4.831h3.748c.664 0 1.17.135 1.483.412m-1.225 1.705a.7.7 0 0 0 .074-.351c0-.16-.03-.295-.086-.37-.105-.153-.302-.227-.622-.227h-1.73v1.182h1.718c.345 0 .548-.08.646-.234m7.792-1.624c.222.227.326.54.326.978 0 .375-.092.695-.246.91a1.18 1.18 0 0 1-.763.48l1.458 1.97h-1.834l-1.2-1.705H29.35v1.705h-1.643v-4.831h3.846c.763 0 1.262.184 1.551.492m-1.33 1.384a.5.5 0 0 0 .056-.253.46.46 0 0 0-.055-.252c-.087-.16-.259-.203-.517-.203h-1.902v.88h1.933c.264 0 .424-.05.486-.172" clip-rule="evenodd"/><path fill="#6f4e37" d="M39.497 23.218v-1.2h-3.465v-.628h3.323v-1.175h-3.323v-.622h3.422v-1.206h-5.047v4.83zM51.98 19.6v-1.213h-5.767v1.212h2.037v3.619h1.687v-3.619zm2.217-1.213v4.83h-1.693v-4.83zm9.261 0v4.83h-1.693v-4.83zm13.692 0v2.966c0 1.305-1.182 1.933-2.973 1.933-1.673 0-2.874-.622-2.874-2.087v-2.812h1.669v2.812c0 .523.448.85 1.274.85.787 0 1.255-.339 1.255-.844v-2.818zm6.644 3.333c0-.843-.535-1.287-1.784-1.422a42 42 0 0 0-1.176-.117c-.966-.104-1.256-.16-1.256-.406 0-.222.228-.326 1.096-.326.615 0 .96.117 1.095.295a.4.4 0 0 1 .099.222h1.773a1.7 1.7 0 0 0-.18-.542c-.32-.615-1.088-1.108-2.744-1.108-1.865 0-2.887.659-2.887 1.52 0 .831.58 1.318 2.142 1.46l.1.008.168.015.79.075c.82.086 1.04.141 1.04.4 0 .24-.214.369-1.119.369-.701 0-1.114-.105-1.262-.283a.6.6 0 0 1-.116-.259H77.8c.019.123.049.32.117.48.301.677 1.089 1.194 2.917 1.194 1.963 0 2.96-.554 2.96-1.575"/><path fill="#6f4e37" fill-rule="evenodd" d="M40.758 25.07c-1.384 0-2.112.656-2.112 1.62 0 1.088.764 1.64 2.112 1.64 1.484 0 2.108-.64 2.108-1.64 0-1.016-.704-1.62-2.108-1.62m0 2.456c-.788 0-1.016-.324-1.016-.824 0-.492.248-.816 1.012-.816.836 0 1.024.364 1.024.816 0 .48-.228.824-1.02.824" clip-rule="evenodd"/><path fill="#6f4e37" d="M33.06 27.31c0-.548-.348-.836-1.16-.924-.131-.016-.52-.056-.763-.076-.628-.069-.816-.104-.816-.264 0-.144.148-.212.711-.212.4 0 .625.076.712.192.044.056.06.1.064.144h1.153a1.1 1.1 0 0 0-.117-.352c-.208-.4-.708-.72-1.783-.72-1.212 0-1.876.428-1.876.988 0 .54.376.856 1.392.948.14.012.475.044.688.064.532.056.675.092.675.26 0 .155-.14.24-.727.24-.457 0-.725-.069-.82-.184a.4.4 0 0 1-.076-.169h-1.152c.012.08.032.208.076.313.196.44.708.776 1.896.776 1.276 0 1.923-.36 1.923-1.024"/><path fill="#6f4e37" fill-rule="evenodd" d="M25.077 27.393c0 .216-.06.428-.18.567-.184.225-.528.32-.972.32h-2.788v-3.14h2.712c.432 0 .708.105.86.26a.7.7 0 0 1 .196.52c0 .205-.048.373-.152.497a.6.6 0 0 1-.38.204c.224.028.436.14.556.296.1.116.148.292.148.476m-1.348-1.1a.27.27 0 0 0 .064-.184.23.23 0 0 0-.076-.184c-.056-.052-.16-.072-.312-.072h-1.22v.512h1.248c.136 0 .24-.02.296-.072m-.18 1.276c.188 0 .3-.024.364-.084.04-.04.056-.1.056-.176q.002-.118-.068-.188c-.06-.052-.164-.076-.34-.076h-1.376v.524z" clip-rule="evenodd"/><path fill="#6f4e37" d="M28.843 27.5v.78h-3.308v-3.14h3.28v.785H26.59v.404h2.16v.764h-2.16v.408zm8.11-2.36v.789h-1.328v2.352H34.53v-2.352h-1.324v-.788zm9.573 0v.797h-2.132v.444h2.032v.788h-2.032v1.111h-1.076v-3.14zm5.42.789v-.788h-3.748v.788h1.324v2.352h1.096v-2.352zm4.087-.789v3.14h-1.072v-1.14h-1.608v1.14h-1.072v-3.14h1.072v1.145h1.608V25.14zm3.946 3.14v-.78h-2.252v-.407h2.16v-.764h-2.16v-.404h2.224v-.784h-3.28v3.14zm6.629-3.14h1.036l-1.148 3.14h-1.175s-.629-1.875-.633-1.927c-.003.052-.636 1.927-.636 1.927h-1.171l-1.176-3.14h1.163s.68 1.977.68 2.025c0-.048.629-2.024.629-2.024H65.3s.632 1.976.632 2.024c0-.048.675-2.024.675-2.024"/><path fill="#6f4e37" fill-rule="evenodd" d="M69.697 25.07c-1.384 0-2.112.656-2.112 1.62 0 1.088.764 1.64 2.112 1.64 1.484 0 2.108-.64 2.108-1.64 0-1.016-.704-1.62-2.108-1.62m0 2.456c-.787 0-1.015-.324-1.015-.824 0-.492.248-.816 1.011-.816.837 0 1.024.364 1.024.816 0 .48-.228.824-1.02.824m6.069-2.066c.143.149.211.353.211.637 0 .244-.06.452-.16.592a.77.77 0 0 1-.496.312l.948 1.28h-1.191l-.78-1.108h-.972v1.108h-1.068v-3.14h2.5c.496 0 .82.12 1.008.32m-.864.9a.35.35 0 0 0 .036-.163.3.3 0 0 0-.036-.164c-.056-.104-.168-.132-.337-.132H73.33v.572h1.255c.173 0 .276-.032.317-.112" clip-rule="evenodd"/><path fill="#6f4e37" d="M79.61 28.28v-.835h-1.913V25.14h-1.083v3.14z"/><path fill="#6f4e37" fill-rule="evenodd" d="M83.851 26.653c0 .488-.048.752-.191 1-.217.396-.644.628-1.4.628h-2.224v-3.14h2.2c.751 0 1.196.212 1.415.576.156.244.2.504.2.936m-1.796.856c.34 0 .533-.08.649-.256.072-.108.092-.36.092-.58-.004-.2-.028-.412-.092-.508-.125-.188-.312-.256-.64-.256h-.956v1.6z" clip-rule="evenodd"/><path fill="#6f4e37" d="M40.943 43.555h-1.657s-1.082 3.161-1.082 3.238c0-.077-1.01-3.238-1.01-3.238h-1.8s-1.004 3.161-1.004 3.238c0-.077-1.088-3.238-1.088-3.238H31.44l1.881 5.023h1.876s1.01-3.001 1.017-3.084c.007.083 1.011 3.084 1.011 3.084h1.882zm2.269 5.023v-5.023h-1.76v5.023zm6.846-5.023v5.023h-1.715l-2.49-2.796v2.796h-1.65v-5.023h1.804l2.412 2.732v-2.732zm6.856 5.023v-5.023h-1.639v2.732l-2.412-2.732h-1.805v5.023h1.651v-2.796l2.49 2.796zm6.294-1.248v1.248h-5.293v-5.023h5.248v1.254h-3.558v.646h3.456v1.223h-3.456v.652z"/><path fill="#6f4e37" fill-rule="evenodd" d="M69.972 45.084c0-.454-.109-.78-.339-1.017-.301-.32-.819-.512-1.613-.512h-4v5.023h1.71v-1.772h1.555l1.248 1.772h1.907l-1.517-2.047c.339-.052.614-.256.794-.5.159-.224.255-.556.255-.947m-1.664.16a.54.54 0 0 1-.058.263c-.063.128-.23.179-.505.179h-2.01v-.915h1.978c.269 0 .449.044.537.21a.5.5 0 0 1 .058.263" clip-rule="evenodd"/><path fill="#6f4e37" d="m35.834 34.69-.694-2.135-.694 2.136H32.2l1.817 1.32-.694 2.136 1.817-1.32 1.817 1.32-.694-2.136 1.817-1.32zm7.319-2.135.708 2.136h2.292l-1.854 1.32.708 2.136-1.854-1.32-1.854 1.32.708-2.136-1.854-1.32h2.292zm8.658 2.135-.708-2.135-.708 2.136h-2.292l1.854 1.32-.708 2.136 1.854-1.32 1.854 1.32-.708-2.136 1.854-1.32zm7.239-2.135.709 2.136h2.292l-1.854 1.32.708 2.136-1.854-1.32-1.854 1.32.708-2.136-1.854-1.32h2.292zm8.707 2.135-.694-2.135-.695 2.136h-2.245l1.816 1.32-.693 2.136 1.817-1.32 1.817 1.32-.694-2.136 1.817-1.32zm29.14-25.047c.664-1.689.375-3.63-.237-5.264-.644-1.718-1.766-3.432-3.44-4.336-.084 1.811.47 3.6 1.074 5.214.544 1.45 1.21 2.997 2.312 4.197q.254 1.363.39 2.718a6.9 6.9 0 0 0-1.695-2.52c-.95-.9-2.366-1.595-3.693-1.185.39 1.468 1.275 2.875 2.325 3.862.827.777 1.918 1.772 3.202 1.811a32 32 0 0 1-.087 3.944c-.18-.95-.569-1.845-1.13-2.511-.771-.916-1.915-2.034-3.374-1.847.08 1.485.673 3.007 1.498 4.15.655.91 1.52 2.068 2.75 2.367a31 31 0 0 1-.82 3.758c-.002-.94-.21-1.863-.621-2.603-.581-1.043-1.486-2.345-2.947-2.447-.214 1.458.076 3.051.662 4.318.468 1.013 1.092 2.304 2.23 2.839a31 31 0 0 1-1.692 3.845c.228-1.069.218-2.195-.05-3.208-.372-1.396-1.292-2.863-2.771-3.288-.523 1.542-.451 3.261-.147 4.828.25 1.29.74 2.805 1.841 3.643a31 31 0 0 1-2.385 3.338c.468-1.04.7-2.179.575-3.22-.181-1.517-.607-3.14-2.156-3.949-.88 1.517-1.084 3.219-1.158 4.9-.06 1.358.135 3.034 1.08 4.14a32 32 0 0 1-3.354 3.019c.772-.991 1.313-2.153 1.427-3.303.162-1.624.084-3.412-1.359-4.604-1.232 1.287-1.968 3.184-2.328 4.83-.32 1.457-.652 3.18.106 4.613a32.3 32.3 0 0 1-4.865 2.611c1.209-.861 2.198-2.043 2.67-3.264.618-1.6 1-3.506-.203-5.108-1.613 1.033-2.798 2.795-3.732 4.402-.801 1.38-1.63 3.283-1.218 4.925q-1.428.485-2.927.848l.06.245a34 34 0 0 0 2.937-.85c.669 1.977 2.861 2.63 4.634 2.919 2.526.411 5.534-.385 7.691-1.99-1.139-1.608-3.46-1.771-5.212-1.894l-.023-.002a18.8 18.8 0 0 0-5.922.547 32.8 32.8 0 0 0 6.237-3.17l.026.042c1.053 1.712 3.17 1.779 4.832 1.67 2.254-.146 4.855-1.516 6.36-3.41-1.416-1.243-3.507-.895-5.128-.626l-.009.002c-1.808.3-3.784.956-5.443 1.966a8 8 0 0 0 .462-.394 32 32 0 0 0 4.451-3.84l.056.056c1.314 1.311 3.221.965 4.71.536 1.998-.575 4.07-2.31 5.062-4.303-1.539-.862-3.378-.152-4.807.41-1.573.617-3.235 1.605-4.513 2.864q.199-.25.378-.52a31.6 31.6 0 0 0 3.195-4.291l.041.025.01.007c1.485.955 3.167.261 4.5-.42 1.808-.926 3.262-2.96 3.889-4.961-1.604-.514-3.189.495-4.421 1.293-1.35.875-2.715 2.121-3.653 3.551q.105-.21.194-.432a31.5 31.5 0 0 0 2.284-4.932l.033.01.005.003c1.35.511 2.853-.287 3.834-1.162 1.361-1.216 2.323-3.087 2.547-4.914-1.407-.182-2.735.907-3.642 1.836-1.044 1.07-1.982 2.335-2.558 3.74q.065-.23.11-.466a31.5 31.5 0 0 0 1.183-4.96l.04.005c1.422.23 2.738-.852 3.524-1.903 1.107-1.478 1.677-3.524 1.534-5.379-1.422.1-2.505 1.453-3.207 2.547-.814 1.268-1.489 2.703-1.784 4.204q.015-.18.017-.361c.217-1.726.294-3.486.223-5.268 1.453-.051 2.53-1.4 3.084-2.596.791-1.711.919-3.874.391-5.697-1.384.389-2.156 1.976-2.611 3.198-.525 1.408-.891 2.945-.894 4.473a33 33 0 0 0-.46-3.87"/></svg>