<svg xmlns="http://www.w3.org/2000/svg" width="130" height="130" fill="none" viewBox="0 0 130 130"><path fill="#6f4e37" d="m71.776 118.934.593 9.782-2.879.175q-1.719.104-2.859-.43a3.67 3.67 0 0 1-1.751-1.591q-.611-1.057-.705-2.594-.09-1.51.388-2.632a3.7 3.7 0 0 1 1.547-1.777q1.07-.654 2.787-.758zm-1.114 1.05-1.677.101q-1.425.087-2.236.599-.81.525-1.12 1.414-.31.903-.238 2.104.075 1.23.491 2.088.417.859 1.284 1.283.868.425 2.293.338l1.677-.102zm-8.216-.599-.481 9.788-1.175-.058.482-9.788zm-2.984-.264-1.564 9.675-1.161-.188-3.902-8.586-1.253 7.753-1.161-.188 1.564-9.674 1.16.187 3.902 8.587 1.254-7.753zm-9.228-1.658-3.067 9.307-5.757-1.896.302-.918 4.64 1.529 1.07-3.245-4.242-1.397.298-.904 4.241 1.397 1.096-3.324-4.641-1.529.302-.917zm-9.815-3.849-1.106 10.41-1.139-.572 1.073-9.033-6.628 6.244-1.114-.559 7.688-7.106zm-8.442-5.489q1.133.846 1.619 1.997.465 1.152.27 2.421-.217 1.271-1.122 2.483-.897 1.2-2.047 1.756a4.47 4.47 0 0 1-2.407.438q-1.249-.13-2.381-.976-1.155-.864-1.622-2.016a4.4 4.4 0 0 1-.25-2.425q.195-1.27 1.093-2.468.906-1.212 2.075-1.771a4.4 4.4 0 0 1 2.388-.435q1.23.133 2.384.996m-.62.83q-.852-.637-1.777-.734a3.2 3.2 0 0 0-1.827.365q-.905.46-1.658 1.469-.755 1.01-.932 1.996-.198.988.168 1.856.354.858 1.206 1.496.84.628 1.777.733.924.097 1.827-.364.885-.457 1.639-1.467.755-1.01.951-1.998a3.33 3.33 0 0 0-.168-1.856q-.366-.867-1.206-1.496m-9.275-10.382q.901 1.106 1.078 2.318a4.27 4.27 0 0 1-.369 2.36q-.535 1.16-1.707 2.116t-2.404 1.238a4.16 4.16 0 0 1-2.387-.112q-1.163-.407-2.065-1.513-1.062-1.303-1.108-2.62-.044-1.319.897-2.466l.823 1.008q-.563.75-.553 1.626 0 .885.743 1.797.664.813 1.53 1.1.856.296 1.827.046.96-.24 1.936-1.037t1.416-1.697q.429-.892.322-1.798-.119-.899-.782-1.712-.743-.91-1.59-1.106a2.6 2.6 0 0 0-1.692.206l-.823-1.009q1.282-.666 2.564-.356t2.344 1.61m-5.377-8.171q.675 1.242.638 2.49a4.5 4.5 0 0 1-.765 2.313q-.727 1.065-2.056 1.788-1.315.716-2.593.742a4.5 4.5 0 0 1-2.37-.607q-1.08-.639-1.757-1.881-.69-1.267-.632-2.51a4.4 4.4 0 0 1 .784-2.307q.708-1.071 2.024-1.787 1.328-.723 2.625-.742a4.4 4.4 0 0 1 2.35.6q1.064.634 1.752 1.9m-.91.495q-.509-.934-1.308-1.408a3.2 3.2 0 0 0-1.813-.432q-1.014.042-2.12.644t-1.68 1.424q-.591.816-.622 1.757-.036.928.472 1.863.502.922 1.309 1.408.8.473 1.813.432.994-.047 2.1-.65 1.108-.602 1.7-1.418.571-.822.621-1.757.03-.94-.472-1.863m-2.033-5.911L4.504 88.2l-1.957-5.633.913-.317 1.571 4.523 3.253-1.13-1.336-3.849.899-.312 1.337 3.848 4.192-1.456zm-2.234-6.844-9.596 1.989-1.21-5.84.946-.196.972 4.688 3.372-.699-.827-3.989.932-.193.827 3.99 4.346-.902zm-1.323-7.075-9.775.694L0 65.714l.964-.068.346 4.873 3.407-.241-.316-4.455.95-.068.316 4.455 3.491-.248-.346-4.873.964-.069zm-.394-7.61L.035 62.78l.417-6.048.963.067-.336 4.874 3.408.235.307-4.455.95.065-.307 4.456 3.492.24.336-4.874.963.066zM8.51 48.022l-.94-.323 1.796-5.244.94.322zm9.108-11.795-8.14-5.456 3.374-5.036.803.538-2.72 4.059 2.837 1.902 2.487-3.71.79.53-2.486 3.71 2.908 1.948 2.72-4.059.802.538zm6.57-8.464q-.72.804-1.543 1.137a2.93 2.93 0 0 1-1.636.191q-.81-.143-1.5-.759l.822-.918q.427.383.97.51.532.12 1.087-.06.555-.2 1.058-.763.44-.49.59-.975.15-.504.027-.934a1.5 1.5 0 0 0-.468-.757q-.429-.383-.857-.428a1.75 1.75 0 0 0-.877.099q-.447.163-.945.47-.5.284-1.047.603-1.068.605-1.87.62t-1.5-.61q-.597-.532-.802-1.205a2.54 2.54 0 0 1 .01-1.418q.206-.755.84-1.465.626-.7 1.344-.977.727-.289 1.448-.17.71.108 1.304.64l-.82.919a1.7 1.7 0 0 0-.735-.375 1.64 1.64 0 0 0-.91.05q-.478.136-.907.616-.366.388-.5.831-.135.424-.032.835.112.4.487.736.355.318.705.367.36.04.768-.102.407-.162.878-.436.47-.274 1.047-.604.653-.373 1.278-.547a2.4 2.4 0 0 1 1.225-.069q.612.116 1.227.666.522.465.74 1.168.216.682.023 1.486-.192.804-.93 1.628m4.687-4.862-5.792-6.67-2.21 1.918-.633-.73 5.307-4.608.633.73-2.21 1.918 5.793 6.67zm3.509-2.802a.83.83 0 0 1-.607.167.8.8 0 0 1-.52-.33.76.76 0 0 1-.15-.585.8.8 0 0 1 .333-.539.75.75 0 0 1 .604-.147.76.76 0 0 1 .511.319q.2.271.16.595a.78.78 0 0 1-.331.52m5.573-3.629-4.146-7.4-1.26 1.188-.41-.733 1.369-1.794.696-.39 4.79 8.55zm5.68-2.437q-.851.357-1.594.288a2.9 2.9 0 0 1-1.341-.485 3.25 3.25 0 0 1-.945-1.062l1.007-.421q.432.669 1.09.864.653.181 1.402-.132a2.08 2.08 0 0 0 1.041-.921q.357-.635.328-1.61-.021-.993-.528-2.313l-.033-.078-.032-.077q-.026.482-.255.987a3.1 3.1 0 0 1-.658.928 3.2 3.2 0 0 1-1.05.683 3.3 3.3 0 0 1-1.598.243 3.26 3.26 0 0 1-1.52-.547q-.688-.486-1.056-1.364a3.3 3.3 0 0 1-.236-1.616q.082-.855.596-1.585.513-.732 1.469-1.131.969-.406 1.797-.312a3.1 3.1 0 0 1 1.483.532q.666.435 1.172 1.133.505.7.84 1.5.622 1.485.685 2.795.075 1.305-.443 2.28-.51.957-1.62 1.421M41.894 9.65q.594-.249.958-.72.365-.471.44-1.05.09-.584-.142-1.139a2.1 2.1 0 0 0-.722-.927 2.1 2.1 0 0 0-1.046-.397 2.4 2.4 0 0 0-1.18.19 2.3 2.3 0 0 0-.959.72 2.1 2.1 0 0 0-.439 1.02q-.082.565.167 1.159.255.607.715.945.46.339 1.033.402.58.045 1.175-.203m9.766 1.729q-.897.222-1.62.04a2.9 2.9 0 0 1-1.251-.685 3.25 3.25 0 0 1-.771-1.194l1.06-.262q.323.727.945 1.02.617.281 1.405.085.72-.178 1.17-.75.45-.574.57-1.54.132-.985-.167-2.368l-.02-.081-.02-.082q-.1.473-.403.936a3.1 3.1 0 0 1-.793.817 3.2 3.2 0 0 1-1.142.513 3.3 3.3 0 0 1-1.617-.004 3.26 3.26 0 0 1-1.417-.774q-.607-.585-.835-1.51a3.3 3.3 0 0 1 .014-1.633 3.27 3.27 0 0 1 .832-1.475q.62-.643 1.625-.892 1.02-.253 1.824-.033.8.206 1.383.753.593.532.985 1.3a7.5 7.5 0 0 1 .6 1.61q.388 1.564.248 2.867-.124 1.3-.786 2.185-.65.867-1.819 1.157m-1.052-4.6q.626-.154 1.057-.565a2.15 2.15 0 0 0 .597-.97 2.1 2.1 0 0 0 .033-1.147 2.1 2.1 0 0 0-.571-1.027 2.1 2.1 0 0 0-.973-.552 2.4 2.4 0 0 0-1.196.007q-.624.154-1.057.565a2.1 2.1 0 0 0-.59.939 2.16 2.16 0 0 0-.012 1.171q.158.639.56 1.044.405.405.96.556.567.133 1.192-.021m6.71 3.302 2.891-9.14-5.347.556-.104-1.002L61.3-.187l.092.878-2.837 9.261zm13.643-3.85.148-.982 5.482.83-.149.982zm13.23 6.858 3.971-8.96 3.149 1.396q.947.42 1.425 1 .497.571.571 1.232.08.648-.203 1.288-.306.692-.818 1.016-.498.33-1.093.358a3 3 0 0 1-1.141-.154l.236-.048q.57.268.926.778t.416 1.134q.074.63-.199 1.244a2.6 2.6 0 0 1-.883 1.094q-.576.402-1.377.446-.781.036-1.729-.383zm1.472-.42 2.061.914q.91.402 1.595.201.706-.208 1.045-.976.335-.755.009-1.436-.307-.687-1.217-1.09L87.12 9.38zM87.5 8.522l1.997.885q.87.387 1.5.175.642-.205.954-.91.3-.677.022-1.291-.267-.609-1.175-1.011l-1.959-.868zm4.067 8.002 5.223-8.292 5.13 3.23-.515.818-4.134-2.604-1.821 2.89 3.779 2.38-.507.806-3.78-2.38-1.865 2.962 4.135 2.604-.515.817zm8.65 6.323q-.825-.695-1.182-1.508a2.93 2.93 0 0 1-.239-1.63q.12-.814.714-1.521l.943.794a2.2 2.2 0 0 0-.482.985 2.03 2.03 0 0 0 .093 1.085q.215.548.794 1.035.503.424.992.56.508.135.933 0 .437-.127.743-.49.37-.44.403-.87a1.75 1.75 0 0 0-.125-.873 5.3 5.3 0 0 0-.497-.931q-.3-.491-.634-1.03-.636-1.048-.675-1.849-.038-.8.565-1.519.515-.61 1.181-.836a2.54 2.54 0 0 1 1.418-.032q.76.183 1.489.796.717.604 1.016 1.314.31.72.213 1.443-.087.713-.602 1.323l-.942-.794a1.67 1.67 0 0 0 .276-1.653q-.15-.474-.643-.889a2.1 2.1 0 0 0-.845-.474 1.5 1.5 0 0 0-.835-.008q-.397.123-.722.51-.306.363-.346.714-.029.36.125.765.174.402.462.864.287.462.634 1.029.393.642.585 1.261.212.618.105 1.223-.097.614-.629 1.247a2.55 2.55 0 0 1-1.146.773q-.675.236-1.484.068-.81-.17-1.656-.882m4.972 4.566 6.561-5.916-1.96-2.173.718-.647 4.706 5.219-.717.647-1.96-2.173-6.56 5.916zm7.327 10.598q-.702-1.245-.669-2.468a4.27 4.27 0 0 1 .764-2.264q.724-1.051 2.041-1.795 1.317-.742 2.579-.813 1.275-.076 2.333.516 1.077.598 1.779 1.842.826 1.462.647 2.77-.178 1.306-1.302 2.278l-.64-1.134q.682-.642.821-1.508.15-.874-.428-1.897-.516-.915-1.321-1.344-.793-.437-1.792-.355-.987.074-2.084.694-1.098.62-1.684 1.432-.574.806-.622 1.718-.036.905.48 1.819.578 1.024 1.379 1.36.813.329 1.703.083l.64 1.134q-1.375.44-2.587-.083-1.21-.522-2.037-1.985m3.918 8.961q-.457-1.338-.209-2.562a4.5 4.5 0 0 1 1.144-2.15q.897-.928 2.328-1.416 1.418-.484 2.681-.294a4.5 4.5 0 0 1 2.234.998q.958.812 1.414 2.15.466 1.365.2 2.58a4.4 4.4 0 0 1-1.162 2.142q-.879.936-2.296 1.42-1.431.489-2.712.29a4.4 4.4 0 0 1-2.217-.99q-.94-.803-1.405-2.168m.98-.334q.344 1.006 1.052 1.608a3.2 3.2 0 0 0 1.714.731q1.007.13 2.199-.276 1.193-.408 1.895-1.12.721-.705.91-1.628.192-.909-.151-1.916-.34-.993-1.052-1.608-.709-.602-1.715-.732-.987-.12-2.18.286-1.193.407-1.914 1.112a3.34 3.34 0 0 0-.909 1.627q-.188.921.151 1.916m1.01 6.166 9.662-1.644.999 5.88-.952.162-.803-4.72-3.395.577.683 4.017-.938.16-.683-4.017-4.376.744zm1.068 7.118 9.794-.327.2 5.96-.966.033-.16-4.786-3.442.115.136 4.072-.951.032-.136-4.072-4.436.149zm.104 7.199 9.753.951-.588 6.033-.961-.093.474-4.863-3.4-.332-.433 4.445-.948-.092.434-4.445-3.484-.34-.474 4.863-.962-.094zm-.884 7.568 9.529 2.288-1.415 5.894-.939-.225 1.141-4.751-3.322-.797-1.043 4.342-.925-.222 1.042-4.343-3.403-.817-1.141 4.751-.939-.225zm-4.618 13.339q.46-.975 1.155-1.53.696-.554 1.514-.647.818-.094 1.654.3l-.526 1.115a2.2 2.2 0 0 0-1.076-.214 2.03 2.03 0 0 0-1.025.367q-.474.35-.797 1.033-.282.595-.289 1.102 0 .526.24.903.234.39.665.593.519.245.943.166a1.75 1.75 0 0 0 .812-.344q.383-.285.773-.719.398-.416.832-.876.85-.885 1.616-1.126.764-.243 1.613.157.722.342 1.11.927.384.6.394 1.363.018.783-.389 1.643-.4.848-1.01 1.32-.615.483-1.339.574-.713.097-1.434-.243l.526-1.114q.368.174.812.15.444-.022.857-.306.42-.266.695-.85.24-.474.242-.938a1.5 1.5 0 0 0-.206-.81q-.221-.351-.677-.566-.43-.204-.78-.152a1.75 1.75 0 0 0-.707.317q-.345.27-.718.667t-.831.877a5.6 5.6 0 0 1-1.07.888q-.543.363-1.156.414-.618.065-1.365-.288a2.54 2.54 0 0 1-1.041-.91q-.402-.592-.446-1.418t.429-1.825m-5.516 9.428 8.107 5.505-.66.973-8.108-5.505zm3.515-5.177 8.108 5.505-.661.972-8.108-5.505zm3.195 3.32.799.542-3.146 4.633-.799-.543zm-11.71 7.202q.99-1.01 2.195-1.337a4.5 4.5 0 0 1 2.436.057q1.231.384 2.31 1.444 1.07 1.049 1.467 2.263.398 1.234.111 2.444-.296 1.22-1.286 2.23-1.01 1.028-2.215 1.337a4.4 4.4 0 0 1-2.436-.077q-1.232-.364-2.3-1.414-1.08-1.06-1.477-2.293a4.4 4.4 0 0 1-.111-2.425q.296-1.2 1.306-2.229m.739.726q-.745.759-.965 1.662a3.2 3.2 0 0 0 .117 1.86q.335.957 1.234 1.84.9.882 1.852 1.19.954.328 1.862.082.9-.236 1.645-.995.735-.749.964-1.662.22-.903-.116-1.86-.335-.938-1.234-1.82-.9-.883-1.853-1.211a3.34 3.34 0 0 0-1.862-.082q-.908.246-1.644.996m-5.06 3.667 5.757 7.93L102.43 117q-.94.683-1.771.801-.834.138-1.495-.177-.673-.308-1.158-.976a2.96 2.96 0 0 1-.561-1.392q-.095-.727.275-1.48.37-.754 1.322-1.444l1.631-1.185-2.368-3.262zm2 4.758-1.62 1.176q-.951.691-1.055 1.406-.104.716.398 1.406.535.737 1.23.837.705.113 1.656-.579l1.62-1.176zm-13.191 6.245.353.929-5.183 1.969-.353-.929z"/></svg>