<svg width="128" height="127" viewBox="0 0 128 127" fill="none" xmlns="http://www.w3.org/2000/svg">
<path d="M58.9346 3.05762C61.1488 -0.350828 66.1383 -0.350826 68.3525 3.05762L69.7412 5.19531C71.8008 8.36575 76.0943 9.16824 79.1602 6.95605L81.2275 5.46387C84.5235 3.0855 89.1762 4.88817 90.0098 8.86621L90.5332 11.3613C91.3085 15.0617 95.0217 17.3616 98.6797 16.4062L101.146 15.7617C105.079 14.7346 108.766 18.0959 108.106 22.1064L107.692 24.6221C107.079 28.3526 109.711 31.8388 113.467 32.2695L116 32.5596C120.038 33.0224 122.262 37.4888 120.198 40.9902L118.903 43.1865C116.983 46.4435 118.178 50.6449 121.525 52.4033L123.783 53.5889C127.381 55.4793 127.842 60.4475 124.652 62.9668L122.651 64.5469C119.685 66.8902 119.281 71.2392 121.767 74.0879L123.443 76.0088C126.116 79.0712 124.75 83.8702 120.866 85.0674L118.43 85.8184C114.817 86.9318 112.869 90.8422 114.158 94.3965L115.027 96.793C116.413 100.614 113.406 104.596 109.352 104.309L106.809 104.129C103.037 103.862 99.8097 106.804 99.7275 110.584L99.6719 113.133C99.5836 117.196 95.341 119.823 91.6641 118.091L89.3584 117.005C85.9382 115.394 81.8649 116.971 80.4229 120.466L79.4502 122.823C77.8997 126.58 72.9951 127.497 70.1924 124.554L68.4346 122.707C65.8274 119.969 61.4597 119.969 58.8525 122.707L57.0947 124.554C54.292 127.497 49.3874 126.58 47.8369 122.823L46.8643 120.466C45.4222 116.971 41.3489 115.394 37.9287 117.005L35.623 118.091C31.9461 119.823 27.7035 117.196 27.6152 113.133L27.5596 110.584C27.4774 106.804 24.2498 103.862 20.4785 104.129L17.9355 104.309C13.8812 104.596 10.8742 100.614 12.2598 96.793L13.1289 94.3965C14.4178 90.8422 12.4706 86.9318 8.85742 85.8184L6.4209 85.0674C2.53687 83.8702 1.17146 79.0712 3.84375 76.0088L5.52051 74.0879C8.00604 71.2392 7.60258 66.8902 4.63574 64.5469L2.63477 62.9668C-0.554563 60.4475 -0.0939637 55.4793 3.50391 53.5889L5.76172 52.4033C9.10865 50.6449 10.3038 46.4434 8.38379 43.1865L7.08887 40.9902C5.02473 37.4888 7.24902 33.0224 11.2871 32.5596L13.8203 32.2695C17.5763 31.8388 20.2085 28.3526 19.5947 24.6221L19.1807 22.1064C18.5209 18.0959 22.2081 14.7346 26.1406 15.7617L28.6074 16.4062C32.2655 17.3616 35.9786 15.0617 36.7539 11.3613L37.2773 8.86621C38.1109 4.88817 42.7636 3.0855 46.0596 5.46387L48.127 6.95605C51.1928 9.16824 55.4863 8.36575 57.5459 5.19531L58.9346 3.05762Z" fill="#FFE62E" stroke="#21773E"/>
</svg>
