<svg width="124" height="124" viewBox="0 0 124 124" fill="none" xmlns="http://www.w3.org/2000/svg">
<path d="M21.1396 50.8284L13.1614 48.2L14.7873 43.2649L15.5737 43.524L14.2633 47.5017L17.0442 48.4178L18.242 44.7821L19.017 45.0374L17.8192 48.6732L20.6686 49.6119L21.979 45.6342L22.7655 45.8933L21.1396 50.8284ZM24.5175 42.5295C24.2896 42.979 24.0157 43.3335 23.6959 43.5929C23.3796 43.8452 23.0389 44.0043 22.6736 44.0702C22.3048 44.1254 21.9275 44.0822 21.5419 43.9405L22.0086 43.0201C22.2122 43.0784 22.4214 43.0903 22.6363 43.0557C22.8511 43.0211 23.0573 42.9328 23.2549 42.7908C23.4489 42.6381 23.6183 42.419 23.763 42.1336C23.8896 41.8838 23.9588 41.6588 23.9707 41.4585C23.9754 41.2546 23.9334 41.0809 23.8448 40.9372C23.7598 40.7865 23.6423 40.6732 23.4925 40.5972C23.2713 40.4851 23.0765 40.4536 22.908 40.5027C22.7432 40.5447 22.5781 40.6494 22.4126 40.8166C22.2399 40.9802 22.0563 41.1921 21.8616 41.4522C21.6994 41.6659 21.5248 41.8689 21.3377 42.0611C21.1506 42.2532 20.9547 42.4096 20.7501 42.5301C20.5384 42.647 20.3198 42.7155 20.0943 42.7357C19.8724 42.7488 19.6365 42.692 19.3868 42.5654C19.08 42.4099 18.8486 42.1939 18.6927 41.9176C18.5297 41.6376 18.4546 41.317 18.4673 40.9557C18.4837 40.5873 18.5913 40.2069 18.7903 39.8144C19.0833 39.2364 19.4594 38.8396 19.9185 38.6239C20.3777 38.4082 20.8875 38.4021 21.4481 38.6056L20.9977 39.4939C20.7085 39.3921 20.4383 39.4032 20.1872 39.527C19.9325 39.6401 19.7184 39.8679 19.5448 40.2104C19.3748 40.5457 19.3123 40.837 19.3575 41.0841C19.4062 41.3241 19.5412 41.5001 19.7624 41.6123C19.9051 41.6846 20.057 41.7033 20.2182 41.6685C20.3759 41.6228 20.541 41.5271 20.7136 41.3814C20.8897 41.2285 21.0733 41.0256 21.2643 40.7727C21.5094 40.4484 21.7596 40.1672 22.015 39.9289C22.2703 39.6906 22.5503 39.5365 22.8548 39.4667C23.1557 39.386 23.4989 39.4434 23.8842 39.6387C24.2196 39.8088 24.4687 40.0427 24.6316 40.3406C24.7982 40.6313 24.875 40.9662 24.8622 41.3454C24.8422 41.7209 24.7273 42.1157 24.5175 42.5295ZM27.3755 37.4538C27.1743 37.7522 26.9534 37.9796 26.7129 38.1359C26.4725 38.2921 26.2026 38.3562 25.9032 38.328C25.6016 38.2886 25.2618 38.1415 24.8837 37.8866L22.088 36.0013L21.4976 36.8768L20.7912 36.4005L21.3816 35.525L20.2416 34.597L20.7313 33.8707L21.9451 34.6892L22.9247 33.2366L23.6311 33.713L22.6515 35.1656L25.4473 37.0508C25.759 37.261 26.0138 37.3412 26.2115 37.2912C26.4026 37.2367 26.6055 37.0503 26.8202 36.7319L27.1825 36.1947L27.8989 36.6777L27.3755 37.4538ZM30.1776 34.225C29.8532 34.5895 29.5191 34.8384 29.1756 34.9717C28.826 35.0997 28.4935 35.1303 28.178 35.0636C27.8565 34.9917 27.5702 34.844 27.3193 34.6206C27.0145 34.3493 26.8267 34.0429 26.7559 33.7013C26.6844 33.3485 26.7225 32.9808 26.8703 32.5982C27.0174 32.2044 27.2665 31.8103 27.6176 31.4159L28.6788 30.2238C28.3979 29.9738 28.125 29.8111 27.8599 29.7359C27.5943 29.6493 27.3392 29.6471 27.0946 29.7293C26.8554 29.8056 26.6267 29.9662 26.4086 30.2112C26.1533 30.498 26.0043 30.8098 25.9615 31.1466C25.9187 31.4834 26.0165 31.8007 26.2548 32.0985L25.5686 32.8693C25.2778 32.5463 25.1047 32.1993 25.0492 31.8286C24.993 31.4465 25.0331 31.0645 25.1696 30.6826C25.3001 30.2954 25.501 29.9494 25.7723 29.6447C26.1446 29.2264 26.5308 28.949 26.9308 28.8124C27.3302 28.6645 27.7285 28.6442 28.1257 28.7515C28.517 28.8534 28.8978 29.0693 29.2683 29.3991L32.0648 31.8885L31.4664 32.5607L30.6288 31.8954C30.7011 32.0669 30.7514 32.2509 30.7799 32.4476C30.8076 32.633 30.8075 32.8256 30.7794 33.0256C30.7454 33.2202 30.6805 33.4195 30.5847 33.6234C30.4942 33.8213 30.3585 34.0218 30.1776 34.225ZM29.645 33.542C29.8312 33.3328 29.9569 33.1074 30.0222 32.8656C30.0868 32.6125 30.0976 32.3597 30.0546 32.1073C30.0056 31.8494 29.9151 31.6082 29.7831 31.3836C29.6564 31.1529 29.4914 30.9472 29.2882 30.7663L29.2614 30.7424L28.256 31.8718C27.9954 32.1646 27.8211 32.4325 27.7332 32.6756C27.6394 32.9134 27.6206 33.1269 27.677 33.3163C27.7273 33.5004 27.8302 33.6616 27.9856 33.7999C28.1469 33.9435 28.3192 34.0327 28.5026 34.0673C28.6912 34.096 28.8822 34.0679 29.0756 33.983C29.2743 33.8922 29.4641 33.7452 29.645 33.542ZM35.7602 28.9676C35.4914 29.1823 35.2176 29.3395 34.9389 29.4392C34.6615 29.5277 34.3891 29.5712 34.1217 29.5697C33.8544 29.5682 33.5977 29.5224 33.3516 29.4323L33.9075 30.2629L33.1949 30.8321L27.803 24.081L28.5907 23.4519L30.8298 26.2555C30.7851 25.8919 30.8335 25.5103 30.975 25.1106C31.1165 24.7109 31.3936 24.3463 31.8061 24.0168C32.2625 23.6523 32.7499 23.4422 33.2684 23.3864C33.782 23.3243 34.2823 23.406 34.7694 23.6313C35.2577 23.8453 35.6916 24.1899 36.071 24.6649C36.4505 25.14 36.6931 25.6425 36.7988 26.1723C36.9108 26.6971 36.8798 27.2031 36.7058 27.6902C36.5317 28.1773 36.2165 28.6031 35.7602 28.9676ZM35.1197 28.358C35.426 28.1134 35.638 27.8212 35.7558 27.4814C35.8735 27.1417 35.8931 26.7881 35.8147 26.4207C35.7376 26.0421 35.5542 25.6715 35.2646 25.309C34.9801 24.9527 34.6617 24.695 34.3095 24.5361C33.9635 24.3721 33.6119 24.31 33.2545 24.3497C32.8972 24.3894 32.5653 24.5315 32.259 24.7762C31.9465 25.0258 31.7314 25.3205 31.6136 25.6602C31.4959 25.9999 31.4788 26.3566 31.5622 26.7303C31.6456 27.1039 31.8296 27.4689 32.1141 27.8252C32.4037 28.1877 32.7215 28.451 33.0674 28.6149C33.4084 28.7726 33.7575 28.8316 34.1149 28.792C34.4722 28.7523 34.8072 28.6076 35.1197 28.358ZM39.1127 26.2301L34.5378 18.9007L35.3929 18.367L39.9678 25.6964L39.1127 26.2301ZM41.4942 24.8242L38.6754 19.4733L39.5672 19.0035L42.3861 24.3544L41.4942 24.8242ZM38.5228 18.1024C38.3459 18.1956 38.1674 18.2173 37.9874 18.1674C37.8108 18.1068 37.6759 17.988 37.5827 17.811C37.4895 17.6341 37.4715 17.4627 37.5288 17.2969C37.5895 17.1202 37.7083 16.9853 37.8852 16.8921C38.0551 16.8026 38.23 16.7828 38.41 16.8326C38.5863 16.8754 38.721 16.9853 38.8142 17.1622C38.9074 17.3392 38.9256 17.5195 38.8686 17.7032C38.808 17.8799 38.6927 18.0129 38.5228 18.1024ZM46.1636 22.8842C45.6962 23.0727 45.2567 23.1593 44.8451 23.144C44.441 23.1258 44.0797 23.0213 43.7613 22.8305C43.4473 22.6293 43.1918 22.3485 42.9947 21.988L43.9519 21.6022C44.0668 21.7801 44.2165 21.9268 44.401 22.0422C44.5855 22.1576 44.7989 22.2268 45.0411 22.2499C45.2877 22.2626 45.5594 22.2092 45.8562 22.0895C46.1159 21.9848 46.3161 21.861 46.4569 21.718C46.5946 21.5676 46.6774 21.4092 46.7052 21.2427C46.7404 21.0732 46.7266 20.9106 46.6637 20.7548C46.571 20.5248 46.4451 20.3729 46.2859 20.299C46.1342 20.2222 45.941 20.1922 45.7063 20.2092C45.4687 20.2187 45.191 20.2574 44.8732 20.3251C44.6104 20.3793 44.3454 20.4171 44.078 20.4386C43.8107 20.4602 43.5603 20.4489 43.327 20.405C43.0906 20.3536 42.8809 20.2614 42.6978 20.1281C42.5222 19.9919 42.382 19.794 42.2773 19.5343C42.1487 19.2153 42.1166 18.9004 42.1812 18.5897C42.2427 18.2717 42.3972 17.9808 42.6445 17.7172C42.8994 17.4506 43.2308 17.2351 43.6389 17.0705C44.2399 16.8283 44.7842 16.777 45.2719 16.9169C45.7595 17.0567 46.1474 17.3877 46.4355 17.9098L45.5117 18.2822C45.361 18.0152 45.1503 17.8457 44.8797 17.7736C44.6136 17.6911 44.3025 17.7217 43.9463 17.8652C43.5976 18.0058 43.3589 18.184 43.2302 18.3997C43.109 18.6125 43.0947 18.8339 43.1874 19.0639C43.2473 19.2123 43.3493 19.3264 43.4936 19.4062C43.6424 19.4757 43.8297 19.5123 44.0555 19.5162C44.2887 19.517 44.5605 19.4851 44.8708 19.4204C45.2687 19.3376 45.6422 19.2905 45.9913 19.2792C46.3404 19.2679 46.6525 19.3361 46.9277 19.4839C47.2074 19.6213 47.428 19.8904 47.5895 20.291C47.7301 20.6398 47.7637 20.9799 47.6903 21.3114C47.6243 21.6398 47.4617 21.9426 47.2025 22.2196C46.9403 22.4892 46.594 22.7107 46.1636 22.8842ZM49.6147 21.4759L47.6442 13.0636L48.6256 12.8337L49.4494 16.3505C49.562 15.9544 49.7699 15.614 50.073 15.3294C50.3838 15.0429 50.7496 14.8504 51.1702 14.7519C51.622 14.6461 52.0372 14.6474 52.4159 14.7559C52.7928 14.8566 53.1146 15.0729 53.3814 15.4048C53.6481 15.7367 53.8481 16.187 53.9812 16.7556L54.8023 20.2607L53.8325 20.4879L53.0361 17.0879C52.8975 16.4959 52.6688 16.0811 52.3503 15.8435C52.0298 15.5982 51.6321 15.5311 51.1569 15.6424C50.822 15.7209 50.5374 15.8738 50.3031 16.1012C50.0766 16.3268 49.921 16.6098 49.8364 16.95C49.7517 17.2903 49.7614 17.6824 49.8654 18.1264L50.5962 21.246L49.6147 21.4759ZM59.0029 20.011C58.4361 20.0481 57.9245 19.9492 57.4682 19.7145C57.0199 19.4793 56.6566 19.1342 56.3784 18.6794C56.0996 18.2166 55.9395 17.6699 55.8983 17.0393C55.8565 16.4006 55.94 15.838 56.1487 15.3513C56.3653 14.8642 56.6846 14.4745 57.1064 14.1823C57.5362 13.8897 58.0385 13.7245 58.6133 13.6869C59.204 13.6483 59.7116 13.7474 60.1359 13.9842C60.5683 14.2205 60.9063 14.5471 61.1501 14.9641C61.4013 15.3726 61.5436 15.8323 61.577 16.3432C61.5822 16.423 61.5877 16.5068 61.5934 16.5946C61.5992 16.6824 61.6017 16.7825 61.601 16.8948L56.6676 17.2174L56.6167 16.4391L60.5802 16.1799C60.5202 15.6306 60.3084 15.2116 59.9448 14.9227C59.5891 14.6333 59.1559 14.5053 58.645 14.5387C58.3017 14.5611 57.9876 14.6618 57.7027 14.8408C57.4252 15.0113 57.2086 15.254 57.0528 15.5688C56.8965 15.8756 56.8329 16.2526 56.8622 16.6996L56.8841 17.0349C56.9165 17.5299 57.0314 17.9392 57.229 18.263C57.4345 18.5863 57.6865 18.8224 57.9848 18.9712C58.2912 19.1195 58.612 19.1827 58.9473 19.1608C59.3704 19.1331 59.7116 19.0186 59.971 18.8173C60.2379 18.6074 60.4208 18.3389 60.5196 18.0117L61.5135 17.9467C61.4412 18.3122 61.2947 18.6465 61.074 18.9496C60.8533 19.2526 60.5688 19.4997 60.2206 19.6908C59.8798 19.8735 59.4739 19.9802 59.0029 20.011ZM65.775 20.169C65.1944 20.1065 64.6999 19.9164 64.2915 19.5989C63.884 19.2734 63.5867 18.8592 63.3995 18.3562C63.2123 17.8533 63.1512 17.2995 63.2163 16.695C63.2815 16.0905 63.4586 15.5665 63.7478 15.1229C64.0378 14.6714 64.4161 14.334 64.8827 14.1106C65.3573 13.8882 65.8849 13.8082 66.4655 13.8708C66.9586 13.9239 67.3774 14.0696 67.7219 14.3078C68.0743 14.547 68.3307 14.8562 68.491 15.2355L68.8752 11.6682L69.8774 11.7761L68.9521 20.3664L68.0454 20.2688L68.0685 19.2695C67.9198 19.4546 67.7367 19.624 67.519 19.7776C67.3021 19.9232 67.0485 20.0367 66.7581 20.118C66.4686 20.1915 66.1409 20.2085 65.775 20.169ZM65.9881 19.3109C66.3858 19.3538 66.7461 19.296 67.0689 19.1377C67.3917 18.9793 67.6546 18.7421 67.8576 18.4261C68.0615 18.102 68.1883 17.7094 68.238 17.248C68.2868 16.7946 68.2462 16.3879 68.116 16.0279C67.9858 15.6679 67.7798 15.3762 67.4981 15.1527C67.2164 14.9293 66.8768 14.7961 66.4791 14.7533C66.0893 14.7113 65.733 14.7695 65.4102 14.9278C65.0874 15.0862 64.8241 15.3274 64.6202 15.6514C64.4163 15.9754 64.29 16.3641 64.2411 16.8175C64.1914 17.2788 64.2317 17.6895 64.3619 18.0495C64.4929 18.4016 64.6993 18.6893 64.981 18.9128C65.2627 19.1362 65.5984 19.269 65.9881 19.3109ZM75.0073 21.8969L75.2736 21.2408C75.9683 21.0393 76.6387 20.8235 77.2846 20.5935C77.9379 20.3665 78.5341 20.1206 79.0732 19.8559C79.6153 19.5838 80.0713 19.2897 80.4413 18.9736C80.8187 18.6606 81.0827 18.3187 81.2331 17.9481C81.3444 17.6738 81.3985 17.4022 81.3953 17.1333C81.3952 16.857 81.3178 16.6011 81.163 16.3656C81.0156 16.1331 80.764 15.9447 80.4081 15.8003C80.0597 15.6589 79.739 15.6194 79.4461 15.6818C79.1561 15.7368 78.9007 15.8663 78.6798 16.0702C78.4693 16.2697 78.3039 16.5177 78.1836 16.8142L77.283 16.4487C77.4979 15.9402 77.7829 15.5465 78.1379 15.2675C78.5032 14.9841 78.9104 14.8212 79.3592 14.7789C79.8081 14.7366 80.2697 14.8117 80.7441 15.0042C81.2111 15.1937 81.5865 15.4496 81.8701 15.7719C82.1567 16.0868 82.3309 16.4553 82.3927 16.8775C82.4619 17.3028 82.3912 17.7748 82.1806 18.2937C82.0332 18.657 81.808 18.9886 81.5049 19.2887C81.2093 19.5917 80.8647 19.8663 80.4713 20.1125C80.0809 20.3512 79.6653 20.5668 79.2246 20.7592C78.7914 20.9546 78.3545 21.127 77.914 21.2763C77.4809 21.4286 77.0769 21.5626 76.702 21.678L80.4937 23.2167L80.1778 23.9951L75.0073 21.8969ZM83.9855 26.487C83.364 26.0928 82.9233 25.6002 82.6635 25.0091C82.4147 24.4156 82.3456 23.7702 82.4562 23.073C82.571 22.3691 82.8599 21.6523 83.3226 20.9226C83.7853 20.193 84.3084 19.6295 84.892 19.2323C85.4798 18.8283 86.093 18.6156 86.7317 18.5944C87.3814 18.5707 88.0171 18.7559 88.6386 19.1501C89.2602 19.5443 89.6919 20.036 89.934 20.6253C90.1871 21.2121 90.2562 21.8575 90.1413 22.5614C90.0307 23.2586 89.744 23.972 89.2813 24.7017C88.8186 25.4313 88.2933 25.9981 87.7055 26.4021C87.122 26.7994 86.5087 27.012 85.8658 27.04C85.2338 27.0655 84.6071 26.8812 83.9855 26.487ZM84.451 25.7307C84.8563 25.9878 85.2906 26.1021 85.7538 26.0738C86.2213 26.0387 86.6834 25.8629 87.14 25.5462C87.6009 25.2227 88.0242 24.757 88.4098 24.1489C88.7954 23.5409 89.0341 22.9629 89.1259 22.4148C89.222 21.86 89.1841 21.367 89.0123 20.936C88.8404 20.5049 88.5518 20.1608 88.1465 19.9037C87.7411 19.6467 87.3035 19.5301 86.8335 19.5542C86.3703 19.5825 85.9082 19.7584 85.4473 20.0818C84.9975 20.4028 84.5797 20.8673 84.1941 21.4754C83.8085 22.0834 83.5643 22.6627 83.4614 23.2132C83.3696 23.7613 83.4075 24.2542 83.5751 24.692C83.7537 25.1274 84.0456 25.4736 84.451 25.7307ZM88.8872 29.7357L93.6245 24.2185L92.2975 23.5536L92.7665 23.0073L94.6143 23.5816L95.1332 24.0272L89.661 30.4002L88.8872 29.7357ZM92.7188 33.8602C92.3349 33.4308 92.0792 32.9887 91.9516 32.534C91.8294 32.0852 91.8198 31.6484 91.9229 31.2236C92.0313 30.8048 92.2311 30.4222 92.5225 30.0758L93.1783 30.8094C92.9083 31.1796 92.7836 31.5862 92.8042 32.0293C92.8247 32.4723 93.0136 32.8937 93.3709 33.2932C93.6375 33.5914 93.9327 33.7836 94.2565 33.8697C94.5856 33.9617 94.9201 33.9578 95.26 33.8578C95.6052 33.7638 95.9239 33.5861 96.2161 33.3248C96.5203 33.0529 96.7353 32.7533 96.8613 32.4261C96.9872 32.0988 97.0195 31.7749 96.9581 31.4541C96.9027 31.1281 96.7497 30.8249 96.4991 30.5446C96.1951 30.2047 95.862 29.9821 95.4996 29.8769C95.1372 29.7716 94.7864 29.7633 94.4471 29.852L93.7993 29.1274L97.6804 26.5909L100.64 29.9008L99.9868 30.4847L97.5473 27.7562L95.312 29.127C95.6183 29.1215 95.9344 29.193 96.2604 29.3415C96.5976 29.4907 96.9129 29.7293 97.2062 30.0573C97.4835 30.3674 97.6804 30.6957 97.797 31.0421C97.9136 31.3886 97.9535 31.7393 97.9167 32.0941C97.8798 32.449 97.7729 32.7915 97.5958 33.1215C97.424 33.4575 97.1831 33.7642 96.873 34.0414C96.5688 34.3134 96.2372 34.5186 95.8782 34.6572C95.5305 34.7964 95.1696 34.8669 94.7956 34.8686C94.4275 34.865 94.0638 34.7824 93.7046 34.6207C93.3513 34.4536 93.0227 34.2001 92.7188 33.8602ZM100.997 39.7723L101.769 39.4111L104.435 45.106L103.663 45.4673L100.997 39.7723ZM102.648 52.9354L110.974 51.8252L111.301 54.2755C111.431 55.2509 111.367 56.0745 111.11 56.7464C110.861 57.4252 110.444 57.9571 109.857 58.3419C109.28 58.7337 108.555 58.9877 107.683 59.104C106.827 59.2182 106.069 59.1619 105.409 58.9351C104.75 58.7162 104.212 58.3118 103.794 57.7218C103.378 57.1398 103.104 56.3611 102.974 55.3857L102.648 52.9354ZM103.613 53.8235L103.804 55.2509C103.912 56.0597 104.128 56.6846 104.453 57.1255C104.786 57.5654 105.212 57.8556 105.732 57.9962C106.259 58.1358 106.863 58.1601 107.545 58.0691C108.243 57.9761 108.828 57.7932 109.3 57.5204C109.772 57.2476 110.111 56.8553 110.317 56.3436C110.524 55.8319 110.573 55.1716 110.465 54.3627L110.275 52.9354L103.613 53.8235ZM103.304 63.6998C103.331 63.1325 103.488 62.6355 103.773 62.209C104.058 61.7905 104.442 61.469 104.926 61.2444C105.418 61.0203 105.979 60.9237 106.61 60.9547C107.25 60.9862 107.799 61.1333 108.259 61.3962C108.718 61.667 109.069 62.0287 109.311 62.4811C109.552 62.9415 109.659 63.4594 109.631 64.0347C109.602 64.626 109.445 65.1189 109.162 65.5134C108.878 65.916 108.514 66.2145 108.072 66.4091C107.638 66.612 107.165 66.7009 106.654 66.6758C106.574 66.6718 106.49 66.6677 106.402 66.6634C106.314 66.6591 106.214 66.6502 106.103 66.6367L106.345 61.6986L107.125 61.7369L106.93 65.7041C107.482 65.7073 107.923 65.5447 108.251 65.2164C108.579 64.8961 108.756 64.4803 108.781 63.9689C108.798 63.6253 108.734 63.3018 108.588 62.9983C108.451 62.7032 108.234 62.4603 107.939 62.2696C107.652 62.0792 107.285 61.9731 106.838 61.9511L106.502 61.9346C106.007 61.9103 105.587 61.9778 105.243 62.1371C104.898 62.3043 104.635 62.5277 104.453 62.8071C104.27 63.0945 104.171 63.406 104.155 63.7416C104.134 64.1651 104.209 64.5172 104.379 64.7979C104.557 65.087 104.803 65.2993 105.117 65.4348L105.068 66.4296C104.713 66.3161 104.398 66.1324 104.122 65.8786C103.846 65.6247 103.633 65.3139 103.483 64.9461C103.34 64.5866 103.28 64.1712 103.304 63.6998ZM103.15 67.852L111.678 69.2391L111.516 70.2341L102.988 68.8469L103.15 67.852ZM102.649 70.5721L108.547 71.9094L108.324 72.8925L102.426 71.5551L102.649 70.5721ZM109.688 72.6849C109.732 72.4898 109.832 72.3401 109.986 72.2358C110.147 72.1411 110.325 72.1158 110.52 72.16C110.715 72.2042 110.857 72.302 110.946 72.4534C111.041 72.6143 111.066 72.7923 111.022 72.9874C110.979 73.1746 110.881 73.3204 110.726 73.4247C110.579 73.5308 110.408 73.5618 110.213 73.5176C110.018 73.4733 109.869 73.3699 109.766 73.2072C109.671 73.0462 109.645 72.8721 109.688 72.6849ZM100.886 75.7787C101.077 75.2437 101.373 74.8058 101.775 74.4649C102.174 74.1315 102.639 73.9235 103.169 73.8408C103.707 73.7609 104.27 73.8256 104.858 74.0351C105.461 74.25 105.942 74.5573 106.3 74.9569C106.659 75.3565 106.887 75.8116 106.986 76.3222C107.089 76.8431 107.045 77.371 106.854 77.9061C106.613 78.5843 106.234 79.0863 105.719 79.4122C105.211 79.7408 104.642 79.8606 104.011 79.7717L104.357 78.7996C104.738 78.8505 105.079 78.7639 105.38 78.5398C105.681 78.3158 105.902 78.0041 106.044 77.6047C106.16 77.2806 106.185 76.9497 106.118 76.6118C106.059 76.2765 105.897 75.9683 105.632 75.687C105.367 75.4057 104.998 75.1805 104.523 75.0113C104.169 74.885 103.835 74.8212 103.521 74.8198C103.215 74.821 102.942 74.8723 102.702 74.9736C102.462 75.075 102.254 75.2174 102.078 75.401C101.907 75.5949 101.779 75.8124 101.693 76.0535C101.596 76.3248 101.55 76.5845 101.555 76.8325C101.568 77.0833 101.634 77.3149 101.753 77.5274C101.873 77.7399 102.04 77.9142 102.255 78.0502L101.908 79.0223C101.379 78.6976 101.015 78.2409 100.817 77.6523C100.624 77.0739 100.647 76.4494 100.886 75.7787ZM99.5006 79.7704L104.923 82.45L104.476 83.3536L99.054 80.6741L99.5006 79.7704ZM105.85 83.4707C105.939 83.2914 106.071 83.1691 106.246 83.1039C106.424 83.0494 106.603 83.0665 106.783 83.1551C106.962 83.2437 107.077 83.3719 107.128 83.5399C107.182 83.7185 107.165 83.8975 107.077 84.0768C106.992 84.2489 106.862 84.3676 106.687 84.4328C106.519 84.5015 106.345 84.4916 106.166 84.403C105.987 84.3144 105.866 84.179 105.805 83.9968C105.75 83.8182 105.765 83.6428 105.85 83.4707ZM96.591 84.4064C96.8958 83.9366 97.2775 83.5834 97.7361 83.3469C98.2014 83.1148 98.7017 83.0197 99.237 83.0619C99.779 83.1083 100.315 83.3035 100.845 83.6475C101.389 84.0002 101.789 84.4123 102.046 84.884C102.305 85.3667 102.42 85.8656 102.391 86.3808C102.364 86.907 102.198 87.405 101.893 87.8748C101.58 88.3581 101.193 88.7124 100.732 88.9378C100.273 89.1744 99.7729 89.2694 99.2309 89.2229C98.6912 89.1875 98.1529 88.9956 97.616 88.6473C97.0791 88.299 96.6812 87.8835 96.4221 87.4008C96.1699 86.9224 96.0549 86.4235 96.0772 85.904C96.1063 85.3888 96.2775 84.8896 96.591 84.4064ZM97.3093 84.8867C97.1221 85.1753 97.0184 85.4894 96.9983 85.8292C96.9848 86.1733 97.0723 86.5162 97.2608 86.8577C97.4492 87.1993 97.7549 87.5073 98.1777 87.7816C98.6072 88.0602 99.013 88.2138 99.395 88.2423C99.7794 88.2819 100.123 88.2232 100.425 88.0663C100.729 87.9205 100.977 87.6999 101.169 87.4046C101.351 87.1227 101.452 86.8064 101.47 86.4556C101.49 86.1158 101.406 85.7751 101.217 85.4336C101.031 85.103 100.723 84.7985 100.294 84.5198C99.8709 84.2455 99.4673 84.0886 99.0829 84.049C98.6942 84.0161 98.3476 84.0726 98.0432 84.2185C97.7412 84.3753 97.4965 84.5981 97.3093 84.8867ZM92.605 89.6061C92.92 89.2654 93.2646 89.0283 93.6387 88.8948C94.0073 88.7672 94.3978 88.7633 94.8101 88.883C95.2169 89.0087 95.6318 89.267 96.0547 89.6581L98.7153 92.1187L98.0309 92.8587L95.4496 90.4715C95.0091 90.0641 94.5876 89.8541 94.1852 89.8416C93.7827 89.829 93.4186 89.9989 93.0927 90.3513C92.8645 90.598 92.7169 90.8755 92.6496 91.1838C92.5883 91.4976 92.6176 91.8134 92.7376 92.1314C92.858 92.4607 93.0827 92.7775 93.4116 93.0817L95.7904 95.2815L95.106 96.0215L90.6657 91.9152L91.2849 91.2456L92.1009 91.9186C91.9498 91.5282 91.9172 91.1275 92.003 90.7165C92.0947 90.311 92.2954 89.9409 92.605 89.6061ZM87.5767 94.3503C87.971 94.0363 88.3675 93.8279 88.7663 93.7251C89.1588 93.6273 89.5349 93.6243 89.8945 93.7163C90.2529 93.8196 90.5779 94.0158 90.8696 94.3051L90.0623 94.948C89.9015 94.8102 89.7162 94.7123 89.5064 94.6544C89.2966 94.5965 89.0724 94.591 88.8336 94.6379C88.5936 94.6961 88.3485 94.8249 88.0981 95.0243C87.8791 95.1987 87.7225 95.3745 87.6285 95.5517C87.5393 95.7352 87.5052 95.9107 87.5261 96.0781C87.5407 96.2506 87.6004 96.4025 87.705 96.5339C87.8595 96.7279 88.0236 96.8376 88.1972 96.863C88.3645 96.8933 88.5582 96.8669 88.7783 96.7836C89.0034 96.7067 89.2585 96.5904 89.5437 96.4349C89.7801 96.308 90.0234 96.196 90.2735 96.0991C90.5236 96.0022 90.7667 95.9415 91.0029 95.9171C91.2441 95.8989 91.4714 95.9275 91.6849 96.0029C91.8921 96.0833 92.0829 96.233 92.2574 96.4521C92.4717 96.7212 92.5922 97.0138 92.619 97.3299C92.6508 97.6523 92.5857 97.9752 92.4239 98.2984C92.2557 98.6266 91.9996 98.9278 91.6554 99.2019C91.1485 99.6056 90.6414 99.81 90.1341 99.8151C89.6269 99.8203 89.1607 99.6137 88.7356 99.1955L89.5147 98.575C89.7353 98.7879 89.9856 98.8903 90.2655 98.8821C90.5441 98.8852 90.8336 98.7672 91.134 98.528C91.4281 98.2937 91.606 98.0549 91.6678 97.8114C91.7233 97.5728 91.6738 97.3566 91.5193 97.1626C91.4196 97.0374 91.2892 96.9572 91.1281 96.9219C90.9658 96.8978 90.7758 96.9161 90.5583 96.9768C90.3345 97.0426 90.0831 97.1507 89.8042 97.3013C89.4464 97.4941 89.1019 97.6458 88.7706 97.7563C88.4392 97.8668 88.1206 97.8904 87.8146 97.8273C87.5074 97.7754 87.2192 97.5805 86.9501 97.2425C86.7158 96.9484 86.5866 96.632 86.5623 96.2934C86.5318 95.9597 86.6013 95.6232 86.7707 95.2837C86.9451 94.9505 87.2138 94.6394 87.5767 94.3503ZM84.6711 96.6853L87.6764 101.934L86.885 102.387L86.3186 101.494C86.3388 101.916 86.2479 102.305 86.0457 102.66C85.8407 103.026 85.5403 103.323 85.1446 103.549C84.7349 103.784 84.3332 103.903 83.9392 103.908C83.5493 103.919 83.1756 103.806 82.8182 103.568C82.4647 103.337 82.1429 102.968 81.8527 102.461L80.0579 99.3268L80.9326 98.826L82.6738 101.867C82.9759 102.394 83.3205 102.723 83.7076 102.851C84.0878 102.984 84.4896 102.929 84.9131 102.686C85.2047 102.519 85.4233 102.297 85.5689 102.02C85.7185 101.75 85.7852 101.44 85.769 101.09C85.7499 100.751 85.627 100.383 85.4004 99.9875L83.7964 97.1862L84.6711 96.6853ZM76.1058 100.774C76.6379 100.575 77.1563 100.523 77.6608 100.616C78.1578 100.712 78.605 100.938 79.0024 101.294C79.4026 101.657 79.7132 102.134 79.9342 102.726C80.158 103.326 80.24 103.889 80.1802 104.415C80.1129 104.944 79.9193 105.409 79.5994 105.81C79.272 106.214 78.8384 106.517 78.2988 106.718C77.7442 106.925 77.2296 106.976 76.755 106.872C76.273 106.77 75.8552 106.554 75.5018 106.225C75.1437 105.906 74.8751 105.507 74.6961 105.027C74.6681 104.952 74.6387 104.874 74.608 104.791C74.5772 104.709 74.546 104.614 74.5143 104.506L79.1462 102.777L79.419 103.508L75.6977 104.897C75.9132 105.406 76.2366 105.746 76.668 105.918C77.0919 106.093 77.5437 106.091 78.0234 105.912C78.3457 105.791 78.6175 105.605 78.8388 105.351C79.0555 105.108 79.1931 104.813 79.2517 104.467C79.3131 104.128 79.2655 103.749 79.1088 103.329L78.9913 103.014C78.8179 102.55 78.59 102.191 78.3076 101.937C78.0177 101.687 77.7085 101.533 77.38 101.477C77.0439 101.423 76.7185 101.455 76.4037 101.572C76.0065 101.72 75.7126 101.928 75.5221 102.196C75.3269 102.473 75.2291 102.783 75.2285 103.125L74.2954 103.473C74.2595 103.102 74.3036 102.74 74.4277 102.386C74.5519 102.033 74.7532 101.714 75.0317 101.431C75.3055 101.158 75.6636 100.939 76.1058 100.774ZM69.9612 102.562C70.4547 102.46 70.9026 102.453 71.3049 102.541C71.6993 102.631 72.0362 102.798 72.3157 103.042C72.5888 103.296 72.7903 103.618 72.9201 104.007L71.9096 104.217C71.8282 104.021 71.707 103.85 71.546 103.704C71.3849 103.558 71.1873 103.452 70.953 103.386C70.7126 103.329 70.4357 103.334 70.1224 103.399C69.8482 103.455 69.6291 103.542 69.4652 103.657C69.3029 103.781 69.1932 103.922 69.1363 104.081C69.0715 104.241 69.0562 104.404 69.0903 104.568C69.1406 104.811 69.2375 104.983 69.381 105.084C69.5166 105.187 69.7014 105.25 69.9353 105.276C70.1709 105.308 70.4511 105.32 70.7758 105.31C71.044 105.303 71.3116 105.313 71.5785 105.339C71.8454 105.366 72.0898 105.421 72.3116 105.506C72.535 105.599 72.725 105.727 72.8814 105.891C73.0301 106.056 73.1328 106.276 73.1896 106.55C73.2594 106.887 73.2349 107.202 73.1162 107.496C72.999 107.798 72.7953 108.057 72.5049 108.272C72.2068 108.489 71.8423 108.643 71.4114 108.732C70.7769 108.863 70.2322 108.817 69.7772 108.593C69.3222 108.368 68.9994 107.974 68.8087 107.409L69.784 107.206C69.8849 107.496 70.062 107.7 70.3154 107.819C70.5627 107.948 70.8743 107.973 71.2503 107.895C71.6185 107.819 71.8851 107.686 72.05 107.497C72.2072 107.309 72.2606 107.094 72.2103 106.851C72.1778 106.694 72.0977 106.564 71.9699 106.459C71.8359 106.365 71.6581 106.295 71.4366 106.251C71.2072 106.209 70.9341 106.192 70.6172 106.2C70.2109 106.211 69.835 106.191 69.4895 106.14C69.144 106.089 68.8489 105.966 68.6044 105.772C68.3536 105.587 68.1844 105.283 68.0968 104.86C68.0205 104.492 68.0479 104.151 68.1791 103.838C68.3025 103.526 68.5163 103.258 68.8207 103.031C69.1267 102.812 69.5069 102.656 69.9612 102.562ZM64.0298 103.335C64.5329 103.305 64.9771 103.362 65.3626 103.507C65.7401 103.653 66.0495 103.866 66.291 104.148C66.5249 104.439 66.6781 104.786 66.7507 105.191L65.7205 105.253C65.6681 105.048 65.5726 104.861 65.4343 104.693C65.2959 104.525 65.1155 104.392 64.8931 104.293C64.6633 104.203 64.3886 104.167 64.0692 104.187C63.7897 104.203 63.5606 104.257 63.3817 104.348C63.2034 104.447 63.0746 104.571 62.9955 104.72C62.9083 104.87 62.8698 105.028 62.88 105.196C62.8949 105.444 62.9661 105.628 63.0936 105.748C63.2132 105.869 63.3869 105.959 63.6148 106.017C63.8432 106.084 64.1188 106.135 64.4416 106.172C64.7081 106.204 64.9714 106.252 65.2318 106.316C65.4922 106.381 65.726 106.471 65.9334 106.586C66.1412 106.71 66.3108 106.864 66.4422 107.049C66.5656 107.233 66.6357 107.466 66.6526 107.745C66.6733 108.089 66.6038 108.397 66.4441 108.671C66.2848 108.954 66.0461 109.18 65.7278 109.352C65.4016 109.524 65.0189 109.623 64.5797 109.65C63.9329 109.689 63.4004 109.565 62.9823 109.277C62.5642 108.99 62.3014 108.553 62.1938 107.967L63.188 107.906C63.2463 108.207 63.3923 108.435 63.626 108.589C63.8522 108.752 64.157 108.822 64.5403 108.799C64.9156 108.776 65.1985 108.683 65.389 108.519C65.5714 108.356 65.6552 108.15 65.6402 107.903C65.6306 107.743 65.57 107.602 65.4585 107.481C65.3394 107.368 65.1734 107.274 64.9605 107.198C64.7396 107.123 64.4717 107.067 64.1569 107.03C63.7533 106.983 63.3842 106.909 63.0495 106.809C62.7149 106.709 62.4405 106.545 62.2264 106.318C62.0048 106.099 61.881 105.773 61.8549 105.342C61.8322 104.967 61.9083 104.634 62.083 104.343C62.2498 104.052 62.5 103.817 62.8338 103.636C63.168 103.464 63.5666 103.363 64.0298 103.335ZM55.6144 103.13L53.7704 111.325L51.3587 110.782C50.3987 110.566 49.6482 110.221 49.1071 109.747C48.5565 109.278 48.2022 108.702 48.0444 108.019C47.877 107.342 47.8899 106.574 48.0831 105.715C48.2727 104.873 48.5883 104.181 49.0296 103.641C49.4632 103.099 50.0291 102.734 50.7272 102.547C51.4176 102.358 52.2427 102.371 53.2027 102.587L55.6144 103.13ZM54.4466 103.728L53.0417 103.412C52.2456 103.233 51.5845 103.219 51.0582 103.371C50.5302 103.531 50.1103 103.831 49.7985 104.269C49.4849 104.715 49.2526 105.273 49.1016 105.945C48.947 106.631 48.9159 107.244 49.0082 107.781C49.1005 108.318 49.3509 108.772 49.7595 109.143C50.1681 109.514 50.7704 109.789 51.5665 109.968L52.9714 110.284L54.4466 103.728ZM45.2852 100.025C45.8084 100.246 46.2213 100.564 46.5239 100.978C46.8191 101.39 46.9891 101.861 47.0339 102.392C47.0755 102.931 46.9734 103.491 46.7275 104.074C46.4784 104.663 46.1515 105.129 45.7467 105.47C45.3346 105.808 44.8745 106.013 44.3665 106.085C43.851 106.154 43.328 106.077 42.7974 105.852C42.2521 105.622 41.8429 105.306 41.5698 104.904C41.2893 104.499 41.1336 104.055 41.1028 103.573C41.0614 103.096 41.1404 102.621 41.3396 102.149C41.3707 102.075 41.4034 101.998 41.4377 101.917C41.4719 101.836 41.5145 101.745 41.5655 101.645L46.1198 103.569L45.8162 104.288L42.1573 102.742C41.9646 103.26 41.966 103.729 42.1615 104.151C42.3496 104.569 42.6795 104.878 43.1511 105.077C43.468 105.211 43.7939 105.262 44.1288 105.229C44.4533 105.201 44.7557 105.082 45.0361 104.87C45.3135 104.666 45.5393 104.358 45.7136 103.945L45.8444 103.635C46.0374 103.178 46.1182 102.761 46.0868 102.383C46.0481 102.002 45.9288 101.678 45.7288 101.411C45.5215 101.141 45.2631 100.941 44.9536 100.81C44.563 100.645 44.2067 100.594 43.8845 100.658C43.5519 100.726 43.268 100.884 43.0329 101.132L42.1154 100.744C42.344 100.45 42.6248 100.217 42.958 100.045C43.2911 99.8732 43.6562 99.7799 44.0532 99.7652C44.4397 99.7548 44.8504 99.8415 45.2852 100.025ZM41.4382 98.4545L37.2079 105.988L36.329 105.494L40.5593 97.9609L41.4382 98.4545ZM39.0593 97.0439L35.7383 102.099L34.8958 101.545L38.2169 96.4904L39.0593 97.0439ZM34.612 102.895C34.7791 103.005 34.8844 103.15 34.9278 103.332C34.9601 103.516 34.9213 103.692 34.8115 103.859C34.7017 104.026 34.5603 104.124 34.3874 104.154C34.2035 104.187 34.028 104.148 33.8608 104.038C33.7003 103.933 33.5984 103.789 33.555 103.608C33.5073 103.433 33.5383 103.262 33.6481 103.094C33.758 102.927 33.907 102.824 34.0954 102.785C34.2793 102.753 34.4515 102.789 34.612 102.895ZM35.4359 94.3418L33.3807 100.474L32.5633 99.8057L34.3654 94.7218L29.7304 97.4884L28.9316 96.8349L34.5349 93.6048L35.4359 94.3418ZM30.5526 89.4679C30.9315 89.891 31.1695 90.3545 31.2664 90.8584C31.3579 91.3563 31.3106 91.8551 31.1245 92.3548C30.9324 92.8597 30.6009 93.323 30.1301 93.7447C29.6534 94.1717 29.1592 94.4532 28.6474 94.5893C28.1304 94.7195 27.6267 94.7088 27.1365 94.5571C26.641 94.3995 26.2011 94.1062 25.8168 93.6771C25.4218 93.2361 25.1866 92.7756 25.111 92.2956C25.0302 91.8095 25.0786 91.342 25.2563 90.8929C25.4227 90.4431 25.6966 90.0475 26.078 89.7059C26.1376 89.6525 26.2001 89.5965 26.2657 89.5378C26.3312 89.479 26.4084 89.4153 26.4972 89.3465L29.7956 93.0294L29.2146 93.5498L26.5646 90.591C26.1694 90.9771 25.9704 91.4024 25.9675 91.8668C25.9592 92.3253 26.1259 92.7452 26.4675 93.1266C26.697 93.3828 26.9701 93.5678 27.2867 93.6816C27.5921 93.7947 27.9167 93.8154 28.2606 93.7437C28.5985 93.6773 28.9343 93.4947 29.2681 93.1958L29.5183 92.9717C29.8878 92.6407 30.139 92.2977 30.2719 91.9424C30.3994 91.5812 30.4297 91.2372 30.3627 90.9106C30.2903 90.578 30.1421 90.2866 29.9179 90.0363C29.6351 89.7205 29.3344 89.5226 29.0158 89.4427C28.686 89.3623 28.3619 89.3841 28.0434 89.5082L27.3789 88.7662C27.7112 88.5976 28.0646 88.5066 28.4393 88.4932C28.8139 88.4798 29.1839 88.5512 29.5492 88.7073C29.9032 88.8628 30.2377 89.1163 30.5526 89.4679ZM27.7552 86.398L22.7674 89.8185L22.2516 89.0664L23.1609 88.3555C22.8597 88.3972 22.5711 88.3865 22.2951 88.3236C22.0146 88.254 21.7478 88.1266 21.4946 87.9413C21.2369 87.7494 20.9995 87.4951 20.7823 87.1784L21.6532 86.5812L21.8636 86.888C22.0083 87.0991 22.176 87.28 22.3666 87.4306C22.5506 87.5857 22.7573 87.6962 22.9867 87.762C23.2116 87.8211 23.4623 87.819 23.7389 87.7554C24.0043 87.6898 24.2954 87.5484 24.612 87.3312L27.1851 85.5667L27.7552 86.398ZM24.3958 80.4332C24.6525 80.9399 24.7626 81.4491 24.7259 81.9609C24.6857 82.4656 24.511 82.9352 24.2021 83.3698C23.886 83.8079 23.446 84.1698 22.8822 84.4554C22.3113 84.7447 21.7611 84.8889 21.2316 84.8881C20.6985 84.8802 20.2147 84.7397 19.7804 84.4665C19.3424 84.1862 18.9933 83.7891 18.733 83.2753C18.4654 82.7472 18.3572 82.2415 18.4083 81.7582C18.4558 81.2678 18.6234 80.8286 18.9112 80.4407C19.1882 80.0493 19.555 79.7379 20.0118 79.5065C20.0831 79.4703 20.1581 79.4324 20.2366 79.3926C20.3151 79.3528 20.4061 79.3112 20.5096 79.2677L22.744 83.678L22.0482 84.0305L20.2531 80.4873C19.7715 80.7582 19.4693 81.1176 19.3465 81.5654C19.22 82.0062 19.2724 82.4549 19.5038 82.9116C19.6593 83.2185 19.8753 83.4678 20.1518 83.6595C20.4175 83.8477 20.7258 83.9517 21.0765 83.9713C21.4201 83.9945 21.7917 83.9049 22.1913 83.7024L22.4911 83.5506C22.9335 83.3264 23.2648 83.0599 23.485 82.751C23.7016 82.435 23.8197 82.1106 23.8395 81.7778C23.8555 81.4378 23.7877 81.118 23.6358 80.8183C23.4442 80.44 23.2049 80.1712 22.9178 80.0117C22.62 79.8487 22.3012 79.786 21.9615 79.8235L21.5114 78.9351C21.8759 78.858 22.2409 78.8614 22.6063 78.9454C22.9716 79.0293 23.3106 79.1939 23.6232 79.4391C23.925 79.6808 24.1825 80.0122 24.3958 80.4332ZM21.8713 74.1459C22.0435 74.704 22.0645 75.2333 21.9344 75.734C21.7966 76.237 21.5337 76.6739 21.1458 77.0447C20.7579 77.4156 20.2735 77.6907 19.6925 77.87C19.1116 78.0492 18.5602 78.0938 18.0384 78.0036C17.509 77.9158 17.0494 77.7018 16.6598 77.3616C16.2678 77.0137 15.9857 76.5608 15.8135 76.0027C15.6672 75.5288 15.6354 75.0865 15.718 74.6759C15.7983 74.2576 15.9809 73.8999 16.2659 73.6026L12.8374 74.6606L12.5402 73.6974L20.7961 71.1498L21.065 72.0212L20.138 72.3952C20.3669 72.4585 20.5949 72.5598 20.822 72.699C21.0415 72.8406 21.2461 73.0286 21.4357 73.2632C21.6176 73.5 21.7628 73.7943 21.8713 74.1459ZM20.9989 74.2896C20.881 73.9074 20.6854 73.5993 20.4123 73.3654C20.1392 73.1316 19.8174 72.9839 19.4468 72.9225C19.0685 72.8634 18.6577 72.9022 18.2144 73.039C17.7786 73.1735 17.4212 73.3717 17.142 73.6337C16.8628 73.8956 16.6763 74.2002 16.5825 74.5472C16.4887 74.8943 16.5008 75.259 16.6187 75.6412C16.7343 76.0158 16.9286 76.32 17.2017 76.5539C17.4748 76.7878 17.8005 76.9342 18.1787 76.9933C18.557 77.0524 18.964 77.0148 19.3997 76.8803C19.8431 76.7435 20.2043 76.5441 20.4835 76.2821C20.755 76.0225 20.9377 75.7192 21.0315 75.3721C21.1254 75.025 21.1145 74.6641 20.9989 74.2896ZM16.7073 64.8888L15.8553 64.8895L15.8503 58.6015L16.7023 58.6008L16.7073 64.8888Z" fill="#21773E"/>
</svg>
