<svg xmlns="http://www.w3.org/2000/svg" width="103" height="49" fill="none" viewBox="0 0 103 49"><path fill="#0b2919" d="M5.262 9.6c-.664-1.689-.376-3.63.237-5.264C6.143 2.618 7.264.904 8.94 0c.083 1.811-.47 3.6-1.075 5.214-.543 1.45-1.21 2.997-2.312 4.197q-.253 1.365-.39 2.719A6.9 6.9 0 0 1 6.86 9.608c.95-.9 2.365-1.594 3.693-1.184-.389 1.468-1.275 2.875-2.325 3.862-.827.777-1.917 1.772-3.202 1.811a32 32 0 0 0 .086 3.943c.181-.95.57-1.844 1.13-2.51.772-.916 1.915-2.035 3.374-1.848-.08 1.486-.672 3.008-1.497 4.151-.656.91-1.521 2.068-2.75 2.367q.296 1.915.818 3.758c.004-.94.211-1.863.623-2.603.58-1.043 1.485-2.345 2.946-2.447.215 1.458-.076 3.05-.661 4.318-.468 1.013-1.092 2.304-2.23 2.839a31 31 0 0 0 1.691 3.844c-.227-1.068-.218-2.194.051-3.207.371-1.396 1.292-2.862 2.77-3.288.523 1.541.451 3.262.148 4.828-.25 1.29-.741 2.805-1.842 3.643a31 31 0 0 0 2.384 3.336c-.467-1.04-.698-2.177-.574-3.219.181-1.517.607-3.14 2.157-3.948.879 1.517 1.083 3.218 1.157 4.899.06 1.358-.135 3.034-1.079 4.14a31.5 31.5 0 0 0 3.354 3.02c-.772-.99-1.313-2.153-1.427-3.303-.162-1.624-.083-3.412 1.358-4.604 1.233 1.287 1.969 3.183 2.33 4.83.318 1.457.651 3.18-.108 4.613a32.3 32.3 0 0 0 4.866 2.61c-1.21-.86-2.199-2.043-2.67-3.263-.618-1.6-1-3.506.203-5.108 1.613 1.032 2.798 2.795 3.732 4.402.8 1.379 1.63 3.282 1.219 4.925q1.426.485 2.926.848l-.06.245a34 34 0 0 1-2.937-.85c-.67 1.977-2.862 2.63-4.635 2.919-2.526.41-5.534-.386-7.69-1.99 1.138-1.608 3.46-1.771 5.211-1.895l.023-.001a18.8 18.8 0 0 1 5.923.546 32.7 32.7 0 0 1-6.237-3.169l-.028.045c-1.054 1.709-3.17 1.775-4.83 1.667-2.254-.146-4.855-1.517-6.36-3.41 1.415-1.243 3.507-.895 5.128-.626l.008.002c1.809.3 3.786.956 5.445 1.966a8 8 0 0 1-.463-.394 32 32 0 0 1-4.452-3.84l-.048.047c-1.313 1.321-3.225.975-4.718.545-1.997-.575-4.068-2.31-5.06-4.303 1.537-.862 3.376-.152 4.807.41 1.57.617 3.231 1.603 4.508 2.86a7 7 0 0 1-.376-.519 31.5 31.5 0 0 1-3.194-4.288l-.047.03c-1.485.958-3.168.264-4.502-.419-1.809-.925-3.262-2.96-3.89-4.96 1.604-.514 3.19.495 4.422 1.293 1.347.874 2.712 2.12 3.65 3.549a7 7 0 0 1-.193-.432c-.9-1.57-1.665-3.22-2.284-4.93l-.032.01-.002.002c-1.351.513-2.855-.285-3.836-1.16-1.364-1.218-2.324-3.089-2.55-4.916 1.409-.183 2.735.907 3.642 1.836 1.044 1.07 1.982 2.334 2.558 3.738a6 6 0 0 1-.109-.464 31.5 31.5 0 0 1-1.183-4.96l-.02.002-.007.001c-1.428.238-2.748-.847-3.537-1.9C.449 16.87-.121 14.825.022 12.97c1.422.1 2.505 1.453 3.208 2.547.812 1.267 1.487 2.702 1.782 4.202a6 6 0 0 1-.016-.36 32 32 0 0 1-.224-5.267h-.004c-1.452-.053-2.525-1.4-3.079-2.597C.897 9.787.77 7.623 1.3 5.8c1.383.388 2.154 1.976 2.61 3.198.525 1.408.891 2.945.894 4.472q.113-1.923.46-3.87m28.593-3.162v6.118c0 2.691-2.437 3.986-6.131 3.986-3.453 0-5.929-1.282-5.929-4.303V6.437h3.44v5.802c0 1.079.927 1.752 2.628 1.752 1.625 0 2.59-.699 2.59-1.74V6.439zm11.456 7.312v2.653h-9.508V6.438h3.44v7.311zm10.223-4.812v-2.5H43.64v2.5h4.202v7.464h3.478V8.939z"/><path fill="#0b2919" fill-rule="evenodd" d="M67.738 7.453c.457.47.674 1.117.674 2.018 0 .775-.19 1.435-.509 1.88-.355.482-.901.888-1.574.99l3.01 4.062h-3.784l-2.476-3.517h-3.084v3.517h-3.39V6.438h7.934c1.575 0 2.603.38 3.199 1.015m-2.742 2.856c.09-.152.115-.355.115-.52 0-.19-.026-.394-.115-.52-.177-.33-.533-.42-1.066-.42h-3.922v1.816h3.985c.546 0 .877-.102 1.003-.356m8.924 4.253h5.382l.876 1.84h3.67L78.82 6.438h-4.1l-5.319 9.965h3.592zm4.303-2.234h-3.186l1.257-2.4.381-.914.356.902zm-10.846 5.953c-2.13 0-3.25 1.01-3.25 2.493 0 1.674 1.176 2.523 3.25 2.523 2.284 0 3.244-.985 3.244-2.523 0-1.563-1.084-2.493-3.244-2.493m0 3.78c-1.212 0-1.563-.5-1.563-1.269 0-.757.381-1.255 1.557-1.255 1.287 0 1.575.56 1.575 1.255 0 .739-.35 1.268-1.569 1.268" clip-rule="evenodd"/><path fill="#0b2919" d="M60.97 23.222V20.36h-3.212v1.04h1.717a.8.8 0 0 1-.154.327c-.178.209-.652.393-1.268.393-.64 0-1.052-.166-1.274-.424-.147-.191-.234-.462-.234-.868 0-.425.087-.714.253-.905.24-.27.646-.387 1.243-.387.535 0 .905.123 1.077.276.11.093.197.222.215.308h1.594a1.7 1.7 0 0 0-.141-.578c-.382-.776-1.268-1.237-2.776-1.237-1.31 0-2.19.4-2.677 1.003-.32.412-.468.93-.468 1.508 0 .64.172 1.187.456 1.55.48.622 1.335.93 2.363.93.905 0 1.526-.215 1.92-.542l.043.468zm-16.765-2.92c1.25.135 1.785.579 1.785 1.422 0 1.021-.997 1.575-2.96 1.575-1.828 0-2.616-.517-2.918-1.194a2 2 0 0 1-.116-.48h1.772a.6.6 0 0 0 .117.259c.148.178.56.283 1.262.283.904 0 1.12-.13 1.12-.37 0-.258-.222-.313-1.04-.4-.326-.03-.843-.08-1.059-.098-1.563-.142-2.142-.628-2.142-1.459 0-.861 1.022-1.52 2.887-1.52 1.655 0 2.425.493 2.745 1.108.098.185.16.394.178.542h-1.772a.4.4 0 0 0-.099-.222c-.135-.178-.48-.295-1.095-.295-.868 0-1.096.104-1.096.326 0 .246.29.302 1.256.406.375.03.972.092 1.175.117"/><path fill="#0b2919" fill-rule="evenodd" d="M26.536 18.803c.326.258.51.695.51 1.33 0 .516-.129.904-.375 1.175-.332.381-.88.554-1.594.56-.222.006-2.117 0-2.117 0v1.354h-1.656V18.39h3.748c.665 0 1.17.135 1.483.412m-1.225 1.705a.7.7 0 0 0 .074-.351c0-.16-.031-.296-.087-.37-.104-.153-.301-.227-.621-.227h-1.73v1.181h1.718c.344 0 .547-.08.646-.233m7.793-1.624c.221.228.326.542.326.979 0 .375-.093.695-.247.91a1.18 1.18 0 0 1-.763.48l1.459 1.97h-1.834l-1.2-1.705h-1.496v1.705h-1.643V18.39h3.847c.763 0 1.261.184 1.55.492m-1.33 1.385a.5.5 0 0 0 .055-.253.47.47 0 0 0-.055-.252c-.086-.16-.258-.203-.517-.203h-1.901v.88h1.932c.265 0 .425-.05.486-.172" clip-rule="evenodd"/><path fill="#0b2919" d="M39.496 23.222v-1.2h-3.465v-.628h3.324v-1.176h-3.323v-.621h3.421V18.39h-5.046v4.83zm12.484-3.619v-1.212h-5.767v1.212h2.037v3.619h1.686v-3.619zm2.216-1.213v4.832h-1.692V18.39zm9.261 0v4.832h-1.692V18.39zm13.693 0v2.967c0 1.305-1.182 1.933-2.973 1.933-1.674 0-2.874-.622-2.874-2.087v-2.812h1.668v2.812c0 .523.449.85 1.274.85.788 0 1.255-.339 1.255-.844v-2.818zm6.644 3.334c0-.843-.536-1.287-1.785-1.422a42 42 0 0 0-1.175-.117c-.967-.104-1.257-.16-1.257-.406 0-.222.228-.326 1.097-.326.615 0 .96.117 1.095.295a.4.4 0 0 1 .098.222h1.773a1.7 1.7 0 0 0-.179-.542c-.32-.615-1.089-1.108-2.745-1.108-1.864 0-2.886.659-2.886 1.52 0 .831.58 1.317 2.142 1.459l.1.009.168.015.79.074c.82.087 1.04.142 1.04.4 0 .24-.214.37-1.12.37-.701 0-1.113-.105-1.262-.283a.6.6 0 0 1-.116-.259H77.8c.02.123.05.32.117.48.302.677 1.09 1.194 2.918 1.194 1.963 0 2.96-.554 2.96-1.575"/><path fill="#0b2919" fill-rule="evenodd" d="M40.757 25.07c-1.383 0-2.111.656-2.111 1.62 0 1.088.764 1.64 2.111 1.64 1.484 0 2.108-.64 2.108-1.64 0-1.016-.704-1.62-2.108-1.62m0 2.456c-.788 0-1.015-.324-1.015-.824 0-.492.248-.816 1.011-.816.836 0 1.024.364 1.024.816 0 .48-.228.824-1.02.824" clip-rule="evenodd"/><path fill="#0b2919" d="M33.06 27.306c0-.548-.348-.836-1.16-.924-.132-.016-.52-.056-.764-.076-.628-.068-.816-.104-.816-.264 0-.144.148-.212.712-.212.4 0 .624.076.712.192.044.056.06.1.064.144h1.152a1.1 1.1 0 0 0-.116-.352c-.208-.4-.708-.72-1.784-.72-1.212 0-1.876.428-1.876.988 0 .54.376.856 1.392.948.14.012.476.044.688.064.532.056.676.092.676.26 0 .156-.14.24-.728.24-.456 0-.724-.068-.82-.184a.4.4 0 0 1-.076-.168h-1.152c.012.08.032.208.076.312.196.44.708.776 1.896.776 1.276 0 1.924-.36 1.924-1.024"/><path fill="#0b2919" fill-rule="evenodd" d="M25.076 27.393c0 .216-.06.428-.18.567-.184.225-.528.32-.972.32h-2.788v-3.14h2.712c.432 0 .708.105.86.26a.7.7 0 0 1 .196.52c0 .205-.048.373-.152.497a.6.6 0 0 1-.38.204c.224.028.436.14.556.296.1.116.148.292.148.476m-1.348-1.1a.27.27 0 0 0 .064-.184.23.23 0 0 0-.076-.184c-.056-.052-.16-.072-.312-.072h-1.22v.512h1.248c.136 0 .24-.02.296-.072m-.18 1.276c.188 0 .3-.024.364-.084q.058-.061.056-.176.002-.118-.068-.188c-.06-.052-.164-.076-.34-.076h-1.376v.524z" clip-rule="evenodd"/><path fill="#0b2919" d="M28.842 27.5v.78h-3.308v-3.14h3.28v.785H26.59v.404h2.16v.764h-2.16v.408zm8.111-2.36v.789h-1.328v2.352h-1.096v-2.352h-1.324v-.788zm9.572 0v.797h-2.132v.444h2.032v.788h-2.032v1.111h-1.076v-3.14zm5.42.789v-.788h-3.748v.788h1.324v2.352h1.096v-2.352zm4.088-.789v3.14H54.96v-1.14h-1.608v1.14H52.28v-3.14h1.072v1.145h1.608V25.14zm3.945 3.14v-.78h-2.252v-.407h2.16v-.764h-2.16v-.404h2.224v-.784h-3.28v3.14zm6.63-3.14h1.035l-1.147 3.14H65.32s-.628-1.875-.632-1.927c-.004.052-.636 1.927-.636 1.927H62.88l-1.176-3.14h1.163s.681 1.977.681 2.025c0-.048.628-2.024.628-2.024H65.3s.632 1.976.632 2.024c0-.048.676-2.024.676-2.024"/><path fill="#0b2919" fill-rule="evenodd" d="M69.697 25.07c-1.384 0-2.112.656-2.112 1.62 0 1.088.764 1.64 2.112 1.64 1.484 0 2.107-.64 2.107-1.64 0-1.016-.704-1.62-2.107-1.62m0 2.456c-.788 0-1.016-.324-1.016-.824 0-.492.248-.816 1.012-.816.836 0 1.024.364 1.024.816 0 .48-.228.824-1.02.824m6.069-2.066c.143.149.21.353.21.637 0 .244-.059.452-.16.592a.77.77 0 0 1-.495.312l.948 1.28h-1.192l-.78-1.108h-.972v1.108h-1.068v-3.14h2.5c.496 0 .82.12 1.008.32m-.865.9a.35.35 0 0 0 .036-.163.3.3 0 0 0-.035-.164c-.057-.104-.169-.132-.337-.132h-1.236v.572h1.256c.172 0 .276-.032.317-.112" clip-rule="evenodd"/><path fill="#0b2919" d="M79.609 28.28v-.835h-1.912V25.14h-1.084v3.14z"/><path fill="#0b2919" fill-rule="evenodd" d="M83.85 26.653c0 .488-.047.752-.19 1-.217.396-.645.628-1.401.628h-2.224v-3.14h2.2c.752 0 1.196.212 1.416.576.156.244.2.504.2.936m-1.795.856c.34 0 .532-.08.648-.256.073-.108.093-.36.093-.58-.005-.2-.029-.412-.093-.508-.124-.188-.311-.256-.64-.256h-.956v1.6z" clip-rule="evenodd"/><path fill="#0b2919" d="M40.943 43.555h-1.658s-1.081 3.161-1.081 3.238c0-.077-1.011-3.238-1.011-3.238h-1.798s-1.005 3.161-1.005 3.238c0-.077-1.088-3.238-1.088-3.238h-1.863l1.882 5.023h1.875s1.011-3.001 1.018-3.084c.006.083 1.01 3.084 1.01 3.084h1.882zm2.269 5.023v-5.023h-1.76v5.023zm6.845-5.023v5.023h-1.715l-2.49-2.796v2.796h-1.65v-5.023h1.804l2.413 2.732v-2.732zm6.856 5.023v-5.023h-1.638v2.732l-2.413-2.732h-1.804v5.023h1.65v-2.796l2.49 2.796zm6.295-1.248v1.248h-5.293v-5.023h5.248v1.254h-3.559v.646h3.456v1.223h-3.456v.652z"/><path fill="#0b2919" fill-rule="evenodd" d="M69.972 45.084c0-.454-.109-.78-.339-1.017-.301-.32-.819-.512-1.613-.512h-4v5.023h1.71v-1.772h1.555l1.248 1.772h1.907l-1.517-2.047c.339-.052.614-.256.794-.5.159-.224.255-.556.255-.947m-1.664.16a.54.54 0 0 1-.058.263c-.063.128-.23.179-.505.179h-2.01v-.915h1.978c.269 0 .449.044.537.21a.5.5 0 0 1 .058.263" clip-rule="evenodd"/><path fill="#0b2919" d="m35.833 34.69-.694-2.135-.694 2.136H32.2l1.817 1.32-.694 2.136 1.817-1.32 1.817 1.32-.694-2.136 1.817-1.32zm7.319-2.135.709 2.136h2.291l-1.854 1.32.709 2.136-1.855-1.32-1.854 1.32.709-2.136-1.855-1.32h2.292zm8.658 2.135-.707-2.135-.709 2.136h-2.291l1.854 1.32-.709 2.136 1.855-1.32 1.854 1.32-.709-2.136 1.855-1.32zm7.24-2.135.709 2.136h2.291l-1.854 1.32.709 2.136-1.855-1.32-1.854 1.32.709-2.136-1.855-1.32h2.292zm8.707 2.135-.695-2.135-.694 2.136h-2.246l1.817 1.32-.694 2.136 1.817-1.32 1.817 1.32-.693-2.136 1.816-1.32zM96.896 9.647c.664-1.689.376-3.63-.236-5.264-.645-1.718-1.766-3.432-3.442-4.336-.083 1.811.47 3.6 1.075 5.213.543 1.452 1.21 2.998 2.311 4.198q.255 1.363.39 2.718a6.9 6.9 0 0 0-1.694-2.52c-.95-.9-2.366-1.595-3.693-1.185.389 1.468 1.275 2.875 2.325 3.862.826.777 1.917 1.772 3.201 1.811a32 32 0 0 1-.086 3.944c-.181-.95-.57-1.845-1.131-2.512-.77-.915-1.914-2.034-3.373-1.846.08 1.485.672 3.007 1.497 4.15.655.91 1.521 2.068 2.75 2.367a31 31 0 0 1-.819 3.758c-.003-.94-.21-1.863-.622-2.603-.58-1.043-1.485-2.345-2.947-2.447-.214 1.458.077 3.05.663 4.318.467 1.013 1.092 2.304 2.229 2.839a31 31 0 0 1-1.692 3.844c.228-1.068.219-2.194-.05-3.207-.371-1.396-1.292-2.863-2.77-3.288-.524 1.542-.451 3.262-.147 4.828.25 1.29.74 2.805 1.84 3.643a31 31 0 0 1-2.384 3.338c.468-1.04.699-2.179.574-3.22-.18-1.517-.607-3.14-2.156-3.949-.88 1.517-1.083 3.219-1.157 4.899-.061 1.359.135 3.035 1.079 4.14a32 32 0 0 1-3.353 3.02c.772-.991 1.312-2.153 1.426-3.303.162-1.624.084-3.412-1.358-4.604-1.233 1.287-1.969 3.184-2.329 4.83-.319 1.457-.651 3.18.107 4.613a32.3 32.3 0 0 1-4.866 2.611c1.21-.861 2.199-2.044 2.67-3.264.619-1.6 1-3.506-.202-5.108-1.613 1.032-2.798 2.794-3.732 4.402-.802 1.38-1.631 3.283-1.219 4.925q-1.428.485-2.927.848l.06.245a34 34 0 0 0 2.937-.85c.67 1.977 2.862 2.63 4.635 2.919 2.526.41 5.534-.385 7.69-1.99-1.138-1.608-3.46-1.771-5.211-1.894l-.023-.002a18.8 18.8 0 0 0-5.922.547 32.8 32.8 0 0 0 6.237-3.17l.026.042c1.053 1.712 3.17 1.779 4.831 1.67 2.254-.146 4.855-1.516 6.36-3.41-1.416-1.243-3.507-.895-5.128-.626l-.008.002c-1.809.3-3.785.956-5.443 1.966a8 8 0 0 0 .462-.394 32 32 0 0 0 4.45-3.84l.057.056c1.314 1.311 3.22.965 4.71.536 1.998-.575 4.069-2.31 5.061-4.303-1.538-.862-3.377-.152-4.807.41-1.572.617-3.234 1.605-4.512 2.864q.198-.25.377-.52a31.6 31.6 0 0 0 3.196-4.291l.04.025.011.007c1.484.955 3.166.261 4.499-.42 1.808-.927 3.262-2.96 3.89-4.961-1.605-.514-3.19.494-4.422 1.293-1.349.874-2.715 2.121-3.652 3.551q.104-.21.194-.432a31.5 31.5 0 0 0 2.284-4.932l.032.01.005.003c1.35.511 2.854-.287 3.834-1.162 1.362-1.216 2.323-3.087 2.548-4.914-1.408-.183-2.735.907-3.642 1.836-1.044 1.07-1.982 2.335-2.558 3.74q.063-.23.11-.466a31.5 31.5 0 0 0 1.182-4.96l.04.005c1.422.23 2.738-.852 3.525-1.903 1.107-1.478 1.677-3.524 1.533-5.38-1.421.1-2.505 1.454-3.207 2.548-.813 1.268-1.488 2.703-1.783 4.204q.014-.18.017-.362a32 32 0 0 0 .222-5.267c1.453-.051 2.53-1.4 3.084-2.596.792-1.711.919-3.874.391-5.697-1.384.389-2.156 1.976-2.61 3.198-.526 1.408-.892 2.945-.895 4.473a33 33 0 0 0-.459-3.87"/></svg>