<svg xmlns="http://www.w3.org/2000/svg" width="44" height="44" fill="none" viewBox="0 0 44 44"><path fill="#8b1e1e" d="M37.992 13.415c0 .146.118.265.264.265q.02 0 .038-.004a1.7 1.7 0 0 0-.066-.522.263.263 0 0 0-.236.261m0 1.705c0 .103.06.192.146.235l.047-.49a.264.264 0 0 0-.194.254m.001 1.704.003.03.01-.11a.3.3 0 0 0-.014.08m-1.673-4.991a.263.263 0 0 0 .45.03 2 2 0 0 0-.34-.03zm1.118.435a.264.264 0 1 0 0 .529.264.264 0 0 0 0-.529m-.884.884a.264.264 0 1 0 0 .529.264.264 0 0 0 0-.529m.884.819a.264.264 0 1 0 0 .53.264.264 0 0 0 0-.53m-.884.885a.264.264 0 1 0 0 .529.264.264 0 0 0 0-.529m.884.82a.264.264 0 1 0 0 .529.264.264 0 0 0 0-.529m-.884.885a.264.264 0 1 0 0 .528.264.264 0 0 0 0-.529m.884.82a.264.264 0 1 0 0 .529.264.264 0 0 0 0-.53m-.884.885a.264.264 0 1 0 0 .529.264.264 0 0 0 0-.53m.884.821a.264.264 0 1 0 0 .528.264.264 0 0 0 0-.528m-.884.884a.264.264 0 1 0 0 .529.264.264 0 0 0 0-.529m.62 1.084a.264.264 0 0 0 .398.227l.041-.423a.262.262 0 0 0-.44.196m-.619.619a.264.264 0 1 0 0 .53.264.264 0 0 0 0-.53m.884.82a.264.264 0 0 0-.032.526l.05-.523zm-.884.885a.264.264 0 1 0 0 .528.264.264 0 0 0 0-.528m.62 1.084c0 .072.029.137.076.185l.038-.402a.26.26 0 0 0-.114.217m-.62.62a.264.264 0 1 0 0 .528.264.264 0 0 0 0-.528m0 1.704a.264.264 0 1 0 0 .529.264.264 0 0 0 0-.53m0 1.705a.264.264 0 1 0 0 .528.264.264 0 0 0 0-.528m-.264 1.968a.264.264 0 0 0 .38.236l.043-.446a.262.262 0 0 0-.423.21m.264 1.44a.264.264 0 0 0-.05.523zm-.264 1.968c0 .063.023.12.06.166l.035-.368a.26.26 0 0 0-.096.202m-1.439-21.887c.102 0 .19-.059.234-.144h-.468a.26.26 0 0 0 .234.144m.884.291a.264.264 0 1 0 0 .529.264.264 0 0 0 0-.529m-.884.884a.264.264 0 1 0 0 .529.264.264 0 0 0 0-.529m.884.819a.264.264 0 1 0 0 .53.264.264 0 0 0 0-.53m-.884.885a.264.264 0 1 0 0 .529.264.264 0 0 0 0-.529m.884.82a.264.264 0 1 0 0 .529.264.264 0 0 0 0-.529m-.884.885a.264.264 0 1 0 0 .528.264.264 0 0 0 0-.529m.884.82a.264.264 0 1 0 0 .529.264.264 0 0 0 0-.53m-.884.885a.264.264 0 1 0 0 .529.264.264 0 0 0 0-.53m.884.821a.264.264 0 1 0 0 .528.264.264 0 0 0 0-.528m-.884.884a.264.264 0 1 0 0 .529.264.264 0 0 0 0-.529m.884.82a.264.264 0 1 0 0 .529.264.264 0 0 0 0-.53m-.884.884a.264.264 0 1 0 0 .53.264.264 0 0 0 0-.53m.884.82a.264.264 0 1 0 0 .53.264.264 0 0 0 0-.53m-.884.885a.264.264 0 1 0 0 .528.264.264 0 0 0 0-.528m.884.82a.264.264 0 1 0 0 .528.264.264 0 0 0 0-.528m-.884.884a.264.264 0 1 0 0 .528.264.264 0 0 0 0-.528m.884.82a.264.264 0 1 0 0 .528.264.264 0 0 0 0-.528m-.884.884a.264.264 0 1 0 0 .529.264.264 0 0 0 0-.53m.884.821a.264.264 0 1 0 0 .528.264.264 0 0 0 0-.529m-.884.885a.264.264 0 1 0 0 .528.264.264 0 0 0 0-.528m.884.819a.264.264 0 1 0 0 .53.264.264 0 0 0 0-.53m-.884.884a.264.264 0 1 0 0 .53.264.264 0 0 0 0-.53m.884.82a.264.264 0 1 0 0 .53.264.264 0 0 0 0-.53m-.884.885a.264.264 0 1 0 0 .528.264.264 0 0 0 0-.529m.884.82a.264.264 0 1 0 0 .529.264.264 0 0 0 0-.529m-.884.884a.264.264 0 1 0 0 .529.264.264 0 0 0 0-.529m.884.82a.264.264 0 1 0 0 .529.264.264 0 0 0 0-.529m-.884.884a.264.264 0 1 0 0 .529.264.264 0 0 0 0-.529m.884.82a.264.264 0 1 0 0 .529.264.264 0 0 0 0-.529m-.884.884a.264.264 0 1 0 0 .53.264.264 0 0 0 0-.53m.884.82a.264.264 0 1 0 .211.422l.026-.272a.26.26 0 0 0-.237-.15m-.884.884a.264.264 0 1 0 0 .529.264.264 0 0 0 0-.529m.62 1.085c0 .145.118.264.264.264l.03-.003q.019-.118.03-.238l.027-.272a.264.264 0 0 0-.351.249m-.62 1.148a.264.264 0 1 0 0-.529.264.264 0 0 0 0 .529m-.262 1.417q.114-.115.22-.238a.26.26 0 0 0-.22.238m-.558-29.564a.264.264 0 1 0 0-.529.264.264 0 0 0 0 .529m0 1.704a.264.264 0 1 0 0-.529.264.264 0 0 0 0 .529m0 1.704a.264.264 0 1 0 0-.529.264.264 0 0 0 0 .529m-.884.884a.264.264 0 1 0 0-.529.264.264 0 0 0 0 .529m.884.82a.264.264 0 1 0 0-.529.264.264 0 0 0 0 .528m-.884.356a.264.264 0 1 0 0 .529.264.264 0 0 0 0-.53m.884 1.35a.264.264 0 1 0 0-.53.264.264 0 0 0 0 .53m-.884.355a.264.264 0 1 0 0 .529.264.264 0 0 0 0-.529m.884 1.349a.264.264 0 1 0 0-.53.264.264 0 0 0 0 .53m-.884.354a.264.264 0 1 0 0 .53.264.264 0 0 0 0-.53m.884 1.35a.264.264 0 1 0 0-.53.264.264 0 0 0 0 .53m-.884.355a.264.264 0 1 0 0 .528.264.264 0 0 0 0-.528m.884 1.348a.264.264 0 1 0 0-.528.264.264 0 0 0 0 .528m-.884.356a.264.264 0 1 0 0 .528.264.264 0 0 0 0-.528m-.821.815a.264.264 0 1 0 0 .529.264.264 0 0 0 0-.529m1.705.533a.264.264 0 1 0 0-.528.264.264 0 0 0 0 .528m-.884.356a.264.264 0 1 0 0 .529.264.264 0 0 0 0-.53m.884 1.349a.264.264 0 1 0 0-.528.264.264 0 0 0 0 .528m-.884.356a.264.264 0 1 0 0 .528.264.264 0 0 0 0-.528m.884 1.348a.264.264 0 1 0 0-.528.264.264 0 0 0 0 .528m-.884.355a.264.264 0 1 0 0 .53.264.264 0 0 0 0-.53m.884 1.349a.264.264 0 1 0 0-.528.264.264 0 0 0 0 .528m-.884.356a.264.264 0 1 0 0 .528.264.264 0 0 0 0-.529m.884 1.349a.264.264 0 1 0 0-.529.264.264 0 0 0 0 .529m-.884.355a.264.264 0 1 0 0 .53.264.264 0 0 0 0-.53m.884 1.349a.264.264 0 1 0 0-.529.264.264 0 0 0 0 .529m-.884.355a.264.264 0 1 0 0 .53.264.264 0 0 0 0-.53m.884 1.348a.264.264 0 1 0 0-.528.264.264 0 0 0 0 .529m-.884.355a.264.264 0 1 0 0 .53.264.264 0 0 0 0-.53m.884 1.349a.264.264 0 1 0 0-.529.264.264 0 0 0 0 .529m-.884.355a.264.264 0 1 0 0 .529.264.264 0 0 0 0-.529m.884 1.349a.264.264 0 1 0 0-.529.264.264 0 0 0 0 .529m-.884.355a.264.264 0 1 0 0 .529.264.264 0 0 0 0-.529m.884 1.349a.264.264 0 1 0 0-.529.264.264 0 0 0 0 .529m-.884.355a.264.264 0 1 0 0 .529.264.264 0 0 0 0-.529m-.82-14.515a.264.264 0 1 0 0 .528.264.264 0 0 0 0-.529m0 1.704a.264.264 0 1 0 0 .529.264.264 0 0 0 0-.529m0 1.704a.264.264 0 1 0 0 .529.264.264 0 0 0 0-.529m0 1.704a.264.264 0 1 0 0 .529.264.264 0 0 0 0-.529m0 1.704a.264.264 0 1 0 0 .529.264.264 0 0 0 0-.529m-.884 1.413a.264.264 0 0 0 0-.529.26.26 0 0 0-.228.134l-.02.216a.26.26 0 0 0 .248.18m.884.29a.264.264 0 1 0 0 .529.264.264 0 0 0 0-.529m-.884.884a.264.264 0 1 0 0 .529.264.264 0 0 0 0-.529m.884.82a.264.264 0 1 0 0 .529.264.264 0 0 0 0-.529m-.884.884a.264.264 0 1 0 0 .529.264.264 0 0 0 0-.529m.884.82a.264.264 0 1 0 0 .529.264.264 0 0 0 0-.529m-.884.884a.264.264 0 1 0 0 .529.264.264 0 0 0 0-.529m.884.82a.264.264 0 1 0 0 .529.264.264 0 0 0 0-.529m-.884 1.413a.264.264 0 1 0 0-.529.264.264 0 0 0 0 .529m.884.291a.264.264 0 1 0 0 .528.264.264 0 0 0 0-.528M30.62 39.53a.264.264 0 1 0 0 .529.264.264 0 0 0 0-.529m-.884.884a.264.264 0 1 0 0 .529.264.264 0 0 0 0-.529m.884.82a.264.264 0 1 0 0 .529.264.264 0 0 0 0-.529m-.884.884a.264.264 0 1 0 0 .529.264.264 0 0 0 0-.529m.884.82a.264.264 0 1 0 0 .529.264.264 0 0 0 0-.529m-2.588-2.524a.264.264 0 1 0 0 .529.264.264 0 0 0 0-.529m.884.82a.264.264 0 1 0 0 .528.264.264 0 0 0 0-.528m-.884.884a.264.264 0 1 0 0 .529.264.264 0 0 0 0-.529m.884.82a.264.264 0 1 0 0 .528.264.264 0 0 0 0-.528m-2.588-2.524a.264.264 0 1 0 0 .529.264.264 0 0 0 0-.529m.62 1.084a.264.264 0 1 0 .528 0 .264.264 0 0 0-.528 0m-.62.62a.264.264 0 1 0 0 .529.264.264 0 0 0 0-.529m.884 1.349a.264.264 0 1 0 0-.53.264.264 0 0 0 0 .53m-2.588-3.053a.264.264 0 1 0 0 .529.264.264 0 0 0 0-.529m.884.82a.264.264 0 1 0 0 .529.264.264 0 0 0 0-.529m-.884.884a.264.264 0 1 0 0 .529.264.264 0 0 0 0-.529m.884.82a.264.264 0 1 0 0 .529.264.264 0 0 0 0-.529m-2.588-2.524a.264.264 0 1 0 0 .529.264.264 0 0 0 0-.529m.884.82a.264.264 0 1 0 0 .529.264.264 0 0 0 0-.529m-.884.884a.264.264 0 1 0 0 .529.264.264 0 0 0 0-.529m.884.82a.264.264 0 1 0 0 .529.264.264 0 0 0 0-.529m-2.588-2.524a.264.264 0 1 0 0 .529.264.264 0 0 0 0-.529m.884.82a.264.264 0 1 0 0 .529.264.264 0 0 0 0-.529m-.884.884a.264.264 0 1 0 0 .529.264.264 0 0 0 0-.529m.884.82a.264.264 0 1 0 0 .528.264.264 0 0 0 0-.528m-2.588-2.524a.264.264 0 1 0 0 .529.264.264 0 0 0 0-.529m.885.82a.264.264 0 1 0 0 .529.264.264 0 0 0 0-.529m-.885.884a.264.264 0 1 0 0 .529.264.264 0 0 0 0-.529m.885.82a.264.264 0 1 0 0 .528.264.264 0 0 0 0-.528m-2.588-2.524a.264.264 0 1 0 0 .529.264.264 0 0 0 0-.529m.884.82a.264.264 0 1 0 0 .529.264.264 0 0 0 0-.529m-.884.884a.264.264 0 1 0 0 .529.264.264 0 0 0 0-.529m.884.82a.264.264 0 1 0 0 .528.264.264 0 0 0 0-.528m-2.588-2.524a.264.264 0 1 0 0 .529.264.264 0 0 0 0-.529m.884.82a.264.264 0 1 0 0 .529.264.264 0 0 0 0-.529m-.884.884a.264.264 0 1 0 0 .529.264.264 0 0 0 0-.529m.884.82a.264.264 0 1 0 0 .529.264.264 0 0 0 0-.529M14.4 40.414a.264.264 0 1 0 0 .529.264.264 0 0 0 0-.529m.885.82a.264.264 0 1 0 0 .529.264.264 0 0 0 0-.529m-.885.884a.264.264 0 1 0 0 .529.264.264 0 0 0 0-.529m.885.82a.264.264 0 1 0 0 .529.264.264 0 0 0 0-.529m-2.588-2.524a.264.264 0 1 0 0 .529.264.264 0 0 0 0-.529m.883.82a.264.264 0 1 0 0 .529.264.264 0 0 0 0-.529m-.883.884a.264.264 0 1 0 0 .529.264.264 0 0 0 0-.529m.883.82a.264.264 0 1 0 0 .529.264.264 0 0 0 0-.529m-2.587-2.524a.264.264 0 1 0 0 .529.264.264 0 0 0 0-.529m.884.82a.264.264 0 1 0 0 .529.264.264 0 0 0 0-.529m-.884.884a.264.264 0 1 0 0 .529.264.264 0 0 0 0-.529m.884.82a.264.264 0 1 0 0 .528.264.264 0 0 0 0-.528m-2.853-2.259a.264.264 0 1 0 .529 0 .264.264 0 0 0-.529 0m.885.819a.264.264 0 1 0 .528 0 .264.264 0 0 0-.528 0m-.62.62a.3.3 0 0 0-.085.015q.156.18.331.344a.262.262 0 0 0-.246-.359m.884.82q-.02 0-.038.004.14.09.285.17a.26.26 0 0 0-.247-.174m-1.53-1.637.086.16a.26.26 0 0 0-.086-.16"/><path fill="#8b1e1e" d="M36.288 32.159c0 .123.084.225.197.255v-.51a.264.264 0 0 0-.197.255m0 1.704c0 .063.023.12.06.166l.035-.368a.26.26 0 0 0-.096.202m-.555-2.853a.264.264 0 1 0 0 .53.264.264 0 0 0 0-.53m-.884 1.413a.264.264 0 1 0 0-.528.264.264 0 0 0 0 .528m.884.82a.264.264 0 1 0 0-.529.264.264 0 0 0 0 .529m-.884.884a.264.264 0 1 0 0-.529.264.264 0 0 0 0 .529m.884.82a.264.264 0 1 0 0-.529.264.264 0 0 0 0 .53m-.884.355a.264.264 0 0 0-.255.198h.51a.264.264 0 0 0-.255-.198m-.82-3.764a.264.264 0 1 0 0-.528.264.264 0 0 0 0 .528m-.884.884a.264.264 0 1 0 0-.528.264.264 0 0 0 0 .528m.884.82a.264.264 0 1 0 0-.529.264.264 0 0 0 0 .529m-.884.884a.264.264 0 1 0 0-.528.264.264 0 0 0 0 .528m.884.82a.264.264 0 1 0 0-.529.264.264 0 0 0 0 .53m-.884.355a.264.264 0 0 0-.255.198h.51a.264.264 0 0 0-.255-.198m-.82-3.764a.264.264 0 1 0 0-.529.264.264 0 0 0 0 .529m0 1.704a.264.264 0 1 0 0-.529.264.264 0 0 0 0 .529m0 1.704a.264.264 0 1 0 0-.529.264.264 0 0 0 0 .53m-.884.355a.26.26 0 0 0-.228.133l-.007.065h.49a.264.264 0 0 0-.255-.198"/><path fill="#8b1e1e" d="M38.088 12.214a2.2 2.2 0 0 0-1.044-.642l.5-5.76a1.76 1.76 0 0 0-.409-1.296 1.76 1.76 0 0 0-1.205-.626l-2.393-.208a1.76 1.76 0 0 0-1.294.41 1.76 1.76 0 0 0-.627 1.204l-.56 6.447q-.069.037-.135.078l.44-8.192a1.76 1.76 0 0 0-.45-1.28 1.76 1.76 0 0 0-1.226-.587l-2.398-.129A1.776 1.776 0 0 0 25.42 3.31l-.445 8.271V1.796C24.975.806 24.17 0 23.18 0h-2.358c-.99 0-1.796.806-1.796 1.796v11l-.51-9.487a1.776 1.776 0 0 0-1.867-1.676l-2.399.13a1.76 1.76 0 0 0-1.224.585 1.76 1.76 0 0 0-.452 1.281l.439 8.152a2 2 0 0 0-.136-.072l-.558-6.413a1.776 1.776 0 0 0-1.92-1.614l-2.393.208A1.776 1.776 0 0 0 6.39 5.811l.502 5.78a2.2 2.2 0 0 0-.98.623 2.1 2.1 0 0 0-.544 1.62l2.494 26.017C8.09 42.216 10.111 44 12.565 44h18.87c2.454 0 4.475-1.784 4.702-4.149l2.495-26.017a2.1 2.1 0 0 0-.544-1.62m-5.782-6.858c.025-.288.16-.549.382-.735.221-.186.502-.275.79-.25l2.392.209c.288.025.55.16.735.382.186.221.275.502.25.79l-.499 5.734h-4.251q-.17 0-.334.025zm-6.195-2.01a1.085 1.085 0 0 1 1.139-1.022l2.398.13c.289.015.554.142.747.357s.291.492.276.78l-.483 8.973a2.1 2.1 0 0 0-.296 1.071v3.675c0 2.922-2.065 5.387-4.861 6.115zm-6.394-1.55c0-.609.495-1.104 1.104-1.104h2.358c.61 0 1.104.495 1.104 1.104v21.779a7 7 0 0 1-.962.068H20.68q-.49-.001-.962-.068zM13.539 2.81a1.08 1.08 0 0 1 .748-.358l2.398-.13h.059c.57 0 1.049.447 1.08 1.023l1.079 20.06c-2.763-.748-4.795-3.197-4.795-6.096v-3.675c0-.437-.135-.844-.367-1.184l-.477-8.86a1.07 1.07 0 0 1 .275-.78M8.064 4.58l2.393-.208c.593-.052 1.12.39 1.172.984l.534 6.147a2 2 0 0 0-.268-.017H7.578L7.08 5.751c-.052-.594.39-1.12.984-1.171M7.738 31.3h7.095a5.1 5.1 0 0 0-.38 1.927c0 .673.134 1.32.38 1.927H8.108zm27.71 8.484c-.192 2.009-1.917 3.523-4.012 3.523H12.564c-2.094 0-3.82-1.514-4.012-3.523l-.378-3.938h6.998c1.21 2.086 3.815 3.533 6.828 3.533s5.619-1.447 6.828-3.533h6.998zM17.39 33.228c0-1.914 2.069-3.472 4.611-3.472s4.61 1.558 4.61 3.472S24.543 36.7 22 36.7s-4.61-1.558-4.61-3.472m18.503 1.927h-6.725c.246-.606.38-1.254.38-1.927s-.134-1.32-.38-1.927h7.095zm2.05-21.387L36.329 30.61h-7.5c-1.21-2.086-3.815-3.533-6.828-3.533s-5.619 1.447-6.828 3.533h-7.5L6.057 13.77c-.038-.4.092-.787.367-1.09.29-.318.708-.5 1.148-.5h4.323c.839 0 1.521.653 1.521 1.456v3.675c0 3.874 3.258 7.025 7.263 7.025h2.642c4.005 0 7.263-3.151 7.263-7.025v-3.675c0-.803.682-1.457 1.52-1.457h4.324c.44 0 .858.183 1.147.5.276.304.406.69.368 1.09"/></svg>