<svg xmlns="http://www.w3.org/2000/svg" width="44" height="44" fill="none" viewBox="0 0 44 44"><g fill="#8b1e1e" clip-path="url(#a)"><path d="M36.513 22.51c.14 0 .253-.11.262-.248l-.52.036c.023.12.13.212.258.212m-.883.355a.264.264 0 1 0 0 .527.264.264 0 0 0 0-.527m.883.818a.264.264 0 1 0 0 .528.264.264 0 0 0 0-.528m-.883.882a.264.264 0 1 0 0 .528.264.264 0 0 0 0-.528m.883.819a.264.264 0 1 0 0 .527.264.264 0 0 0 0-.527m-.883.882a.264.264 0 1 0 0 .527.264.264 0 0 0 0-.527m.883.818a.264.264 0 1 0 0 .528.264.264 0 0 0 0-.528m-.883.883a.264.264 0 1 0 0 .527.264.264 0 0 0 0-.527m0 1.7a.264.264 0 1 0 0 .528.264.264 0 0 0 0-.528m-.818-7.157c.096 0 .18-.052.226-.13l-.431.03c.048.06.122.1.205.1m-.618.618a.26.26 0 0 0-.04-.137q-.051.187-.107.372a.26.26 0 0 0 .147-.235m.618.555a.264.264 0 1 0 0 .528.264.264 0 0 0 0-.528m-.882.882a.264.264 0 1 0 0 .528.264.264 0 0 0 0-.528m.882.819a.264.264 0 1 0 0 .527.264.264 0 0 0 0-.527m-.882.882a.264.264 0 1 0 0 .527.264.264 0 0 0 0-.527m.882.818a.264.264 0 1 0 0 .528.264.264 0 0 0 0-.528m-.882.883a.264.264 0 1 0 0 .527.264.264 0 0 0 0-.527m.882 1.346a.264.264 0 1 0 0-.528.264.264 0 0 0 0 .527m-.882.355a.264.264 0 1 0 0 .528.264.264 0 0 0 0-.528m.882.819a.264.264 0 1 0 0 .527.264.264 0 0 0 0-.527m-.882.882a.264.264 0 1 0 0 .528.264.264 0 0 0 0-.528m-.818-4.284a.264.264 0 1 0 0 .528.264.264 0 0 0 0-.528m-.883.883a.264.264 0 1 0 0 .527.264.264 0 0 0 0-.527m-.821.821a.264.264 0 1 0 0 .527.264.264 0 0 0 0-.527m1.704.525a.264.264 0 1 0 0-.528.264.264 0 0 0 0 .527m-.883.355a.264.264 0 1 0 0 .528.264.264 0 0 0 0-.528m.883.819a.264.264 0 1 0 0 .527.264.264 0 0 0 0-.527m-.883.882a.264.264 0 1 0 0 .528.264.264 0 0 0 0-.528m.883.818a.264.264 0 1 0 0 .528.264.264 0 0 0 0-.528m-.883.883a.264.264 0 1 0 0 .527.264.264 0 0 0 0-.527m.883 1.346a.264.264 0 1 0 0-.528.264.264 0 0 0 0 .528m-.883.355a.264.264 0 1 0 0 .527.264.264 0 0 0 0-.528m-1.701-4.574a.264.264 0 0 0 .14-.486q-.164.201-.335.398a.26.26 0 0 0 .195.088m.882.291a.264.264 0 1 0 0 .527.264.264 0 0 0 0-.527m-.882.882a.264.264 0 1 0 0 .528.264.264 0 0 0 0-.528m.882.818a.264.264 0 1 0 0 .528.264.264 0 0 0 0-.528m-.882.883a.264.264 0 1 0 0 .527.264.264 0 0 0 0-.527m.882 1.346a.264.264 0 1 0 0-.528.264.264 0 0 0 0 .528m-.882.355a.264.264 0 1 0 0 .527.264.264 0 0 0 0-.528m.882.819a.264.264 0 1 0 0 .527.264.264 0 0 0 0-.527m-.882 1.41a.264.264 0 1 0 0-.528.264.264 0 0 0 0 .528m-.818-5.985a.264.264 0 0 0 .2-.434q-.178.192-.36.378.068.054.16.056m0 1.173a.264.264 0 1 0 0 .528.264.264 0 0 0 0-.528m-.882.883a.264.264 0 1 0 0 .527.264.264 0 0 0 0-.527m.882.818a.264.264 0 1 0 0 .528.264.264 0 0 0 0-.528m-.882.883a.264.264 0 1 0 0 .527.264.264 0 0 0 0-.528m.882.819a.264.264 0 1 0 0 .527.264.264 0 0 0 0-.527m-.882.882a.264.264 0 1 0 0 .527.264.264 0 0 0 0-.527m-1.701-2.874a.264.264 0 1 0-.05-.522l-.175.123a.264.264 0 0 0 .225.4m.883.29a.264.264 0 1 0 0 .528.264.264 0 0 0 0-.528m-.883.883a.264.264 0 1 0 0 .527.264.264 0 0 0 0-.528m.883.819a.264.264 0 1 0 0 .527.264.264 0 0 0 0-.527m-.883.882a.264.264 0 1 0 0 .527.264.264 0 0 0 0-.527m.883.818a.264.264 0 1 0 0 .528.264.264 0 0 0 0-.528m-.883.882a.264.264 0 1 0 0 .528.264.264 0 0 0 0-.527m-.818-3.756a.264.264 0 1 0 0-.528.264.264 0 0 0 0 .528m-.883.355a.264.264 0 1 0 0 .527.264.264 0 0 0 0-.528m.883.819a.264.264 0 1 0 0 .527.264.264 0 0 0 0-.527m-.883.882a.264.264 0 1 0 0 .527.264.264 0 0 0 0-.527m.883.818a.264.264 0 1 0 0 .528.264.264 0 0 0 0-.528m-.883.882a.264.264 0 1 0 0 .528.264.264 0 0 0 0-.527m-.818-2.583a.264.264 0 1 0 0 .527.264.264 0 0 0 0-.527m-.882.882a.264.264 0 1 0 0 .528.264.264 0 0 0 0-.528m.882.818a.264.264 0 1 0 0 .528.264.264 0 0 0 0-.528m-.882.882a.264.264 0 1 0 0 .528.264.264 0 0 0 0-.527m.882.818a.264.264 0 1 0 0 .528.264.264 0 0 0 0-.528m-1.701-3.401a.264.264 0 1 0 0 .527.264.264 0 0 0 0-.527m-.882.882a.264.264 0 1 0 0 .528.264.264 0 0 0 0-.528m.882.818a.264.264 0 1 0 0 .528.264.264 0 0 0 0-.528m-.882.882a.264.264 0 1 0 0 .528.264.264 0 0 0 0-.527m.882.818a.264.264 0 1 0 0 .527.264.264 0 0 0 0-.527m-.882.882a.264.264 0 1 0 0 .528.264.264 0 0 0 0-.528m-1.694-2.862a.264.264 0 1 0-.012-.528.264.264 0 0 0 .012.528m.876.279a.264.264 0 1 0 0 .528.264.264 0 0 0 0-.528m-.883.882a.264.264 0 1 0 0 .528.264.264 0 0 0 0-.527m.883.818a.264.264 0 1 0 0 .527.264.264 0 0 0 0-.527m-.883 1.41a.264.264 0 1 0 0-.528.264.264 0 0 0 0 .528m-1.7-3.401a.264.264 0 1 0 0-.528.264.264 0 0 0 0 .528m.882.29a.264.264 0 1 0 0 .528.264.264 0 0 0 0-.528m-.882 1.41a.264.264 0 1 0 0-.528.264.264 0 0 0 0 .528m.882.818a.264.264 0 1 0 0-.527.264.264 0 0 0 0 .527m-.882.883a.264.264 0 1 0 0-.528.264.264 0 0 0 0 .528m-.819-2.583a.264.264 0 1 0 0-.528.264.264 0 0 0 0 .528m-.882.354a.264.264 0 1 0 0 .528.264.264 0 0 0 0-.527m.882 1.345a.264.264 0 1 0 0-.527.264.264 0 0 0 0 .527m-.882.355a.264.264 0 1 0 0 .528.264.264 0 0 0 0-.528m-.818-2.583a.264.264 0 1 0 0 .528.264.264 0 0 0 0-.528m-.882.882a.264.264 0 1 0 0 .528.264.264 0 0 0 0-.527m.882.818a.264.264 0 1 0 0 .528.264.264 0 0 0 0-.528m-2.583-2.519a.264.264 0 1 0 0 .527.264.264 0 0 0 0-.527m.882.818a.264.264 0 1 0 0 .528.264.264 0 0 0 0-.528m-.882.882a.264.264 0 1 0 0 .528.264.264 0 0 0 0-.527m.882.818a.264.264 0 1 0 0 .527.264.264 0 0 0 0-.527m-2.583-1.991a.264.264 0 1 0 0-.528.264.264 0 0 0 0 .528m.883.29a.264.264 0 1 0 0 .528.264.264 0 0 0 0-.528m-.883.882a.264.264 0 1 0 0 .528.264.264 0 0 0 0-.527M10.12 36.47a.264.264 0 1 0 0 .528.264.264 0 0 0 0-.528m.883.818a.264.264 0 1 0 0 .528.264.264 0 0 0 0-.528M8.42 34.77a.264.264 0 1 0 0 .527.264.264 0 0 0 0-.528m.882.819a.264.264 0 1 0 0 .527.264.264 0 0 0 0-.527m7.621.882a.264.264 0 1 0 0 .528.264.264 0 0 0 0-.527m-1.7-.001a.264.264 0 1 0 0 .528.264.264 0 0 0 0-.527"/><path d="M39.861 22.052a1.53 1.53 0 0 0-.525-1.058 1.53 1.53 0 0 0-1.12-.377 1.53 1.53 0 0 0-1.057.526 1.53 1.53 0 0 0-.36.772l-16.381 1.117L24.83 7.216a1.545 1.545 0 0 0 1.558-1.125 1.545 1.545 0 0 0-1.072-1.902 20 20 0 0 0-3.301-.627C16.746 3.015 11.556 4.572 7.4 7.946S.654 16.08.107 21.348c-.547 5.269 1.01 10.459 4.384 14.615s8.134 6.746 13.402 7.293q1.038.108 2.068.107c4.545 0 8.937-1.56 12.547-4.491 4.156-3.374 6.746-8.134 7.293-13.402a20 20 0 0 0 .06-3.418m-20.24 1.264a.345.345 0 0 0 .357.437l13.906-.948c.029.696.008 1.397-.061 2.089-.39 3.868-2.258 7.34-5.26 9.776-2.877 2.336-6.446 3.41-10.048 3.025-7.648-.817-13.224-7.892-12.43-15.77.39-3.869 2.258-7.34 5.26-9.777 2.877-2.336 6.446-3.41 10.048-3.025.7.075 1.398.205 2.08.389zm1.846-14.88c-3.787-.404-7.536.723-10.558 3.176-3.145 2.553-5.102 6.19-5.51 10.243a15.24 15.24 0 0 0 3.213 11.02c2.475 3.138 5.966 5.094 9.83 5.507q.757.08 1.51.08c3.262 0 6.428-1.13 9.047-3.256 3.145-2.553 5.102-6.19 5.51-10.243.074-.73.095-1.47.064-2.204l2.229-.152c.04.847.016 1.702-.071 2.544a16.75 16.75 0 0 1-6.15 11.347 16.75 16.75 0 0 1-12.37 3.688c-9.25-.96-15.994-9.268-15.034-18.519s9.268-15.995 18.52-15.035c.825.086 1.65.234 2.456.441l-.494 1.774a14 14 0 0 0-2.192-.41M39.114 25.4c-.528 5.085-3.028 9.68-7.041 12.937-3.487 2.83-7.726 4.337-12.114 4.337q-.994 0-1.995-.104c-5.085-.528-9.68-3.028-12.937-7.041C1.769 31.515.266 26.505.794 21.42s3.029-9.68 7.041-12.938c3.487-2.83 7.726-4.337 12.114-4.337a19.3 19.3 0 0 1 5.182.71c.219.06.401.204.513.402s.14.429.079.648a.854.854 0 0 1-1.05.593 17.6 17.6 0 0 0-2.906-.552c-4.657-.484-9.23.88-12.874 3.839s-5.919 7.153-6.402 11.81.88 9.23 3.839 12.875a17.44 17.44 0 0 0 11.81 6.403q.925.095 1.84.095c4.01 0 7.872-1.366 11.035-3.935a17.44 17.44 0 0 0 6.402-11.81c.104-.997.122-2.009.054-3.008a.85.85 0 0 1 .208-.619.85.85 0 0 1 .585-.29.85.85 0 0 1 .618.208c.172.15.275.358.29.585a19.3 19.3 0 0 1-.058 3.3"/><path d="M16.671 18.336a3.13 3.13 0 0 1-3.128-3.129 3.13 3.13 0 0 1 3.128-3.129 3.13 3.13 0 0 1 3.129 3.129 3.13 3.13 0 0 1-3.129 3.129m0-5.567a2.44 2.44 0 0 0-2.438 2.438 2.44 2.44 0 0 0 2.438 2.438 2.44 2.44 0 0 0 2.439-2.438 2.44 2.44 0 0 0-2.439-2.438m-4.796 18.756a3.13 3.13 0 0 1-3.129-3.129 3.13 3.13 0 0 1 3.129-3.128 3.13 3.13 0 0 1 3.129 3.128 3.13 3.13 0 0 1-3.129 3.13m0-5.567a2.44 2.44 0 0 0-2.438 2.438 2.44 2.44 0 0 0 2.438 2.439 2.44 2.44 0 0 0 2.438-2.439 2.44 2.44 0 0 0-2.438-2.438m16.273 5.566a3.13 3.13 0 0 1-3.129-3.129 3.13 3.13 0 0 1 3.129-3.128 3.13 3.13 0 0 1 3.128 3.128 3.13 3.13 0 0 1-3.128 3.13m0-5.567a2.44 2.44 0 0 0-2.439 2.438 2.44 2.44 0 0 0 2.439 2.439 2.44 2.44 0 0 0 2.438-2.439 2.44 2.44 0 0 0-2.438-2.438m-16.182-3.051a2.89 2.89 0 0 1-2.29-1.123 2.894 2.894 0 0 1 .52-4.054c.227-.175.509-.252.793-.215a1.074 1.074 0 0 1 .519 1.913.746.746 0 0 0 .91 1.179 1.074 1.074 0 0 1 1.311 1.698 2.88 2.88 0 0 1-1.763.602m-1.114-4.71a.38.38 0 0 0-.234.079 2.203 2.203 0 0 0-.396 3.086 2.2 2.2 0 0 0 3.086.397.383.383 0 0 0-.468-.606 1.437 1.437 0 0 1-2.013-.259 1.437 1.437 0 0 1 .259-2.012.383.383 0 0 0-.234-.686m8.234 18.543c-.239 0-.48-.08-.679-.242a2.87 2.87 0 0 1-1.043-1.95 2.87 2.87 0 0 1 .64-2.118 2.894 2.894 0 0 1 4.067-.404 1.074 1.074 0 0 1-1.36 1.66.746.746 0 0 0-.944 1.152c.222.182.36.439.388.724s-.056.564-.238.786c-.212.258-.52.392-.83.392m1.155-4.677a2.197 2.197 0 0 0-2.19 2.416c.058.586.34 1.113.794 1.485a.383.383 0 0 0 .485-.592 1.437 1.437 0 0 1-.2-2.02 1.437 1.437 0 0 1 2.019-.2.383.383 0 0 0 .485-.592 2.2 2.2 0 0 0-1.393-.497m.954-2.407q-.102 0-.203-.02a1.074 1.074 0 0 1-.403-1.94.746.746 0 0 0-.838-1.231c-.237.16-.523.22-.804.167a1.074 1.074 0 0 1-.403-1.94 2.87 2.87 0 0 1 2.165-.45 2.87 2.87 0 0 1 1.85 1.212 2.87 2.87 0 0 1 .449 2.166 2.87 2.87 0 0 1-1.212 1.85c-.18.122-.388.186-.602.186m-1.028-4.01a1.435 1.435 0 0 1 .81 2.62.383.383 0 0 0 .43.633 2.2 2.2 0 0 0 .581-3.057 2.203 2.203 0 0 0-3.056-.58.383.383 0 0 0 .43.632c.247-.168.527-.248.805-.248"/><path d="M16.174 14.856a.36.36 0 1 1-.721 0 .36.36 0 0 1 .721 0m1.935 1.115a.525.525 0 1 1-1.05 0 .525.525 0 0 1 1.05 0M28.34 27.744a.36.36 0 1 1-.721 0 .36.36 0 0 1 .721 0m-.918 1.41a.262.262 0 1 1-.524 0 .262.262 0 0 1 .524 0m1.968.393a.459.459 0 1 0 0-.918.459.459 0 0 0 0 .918m-17.888-.725a.574.574 0 1 1-1.15 0 .574.574 0 0 1 1.15 0m1.502-1.413a.31.31 0 1 1-.619 0 .31.31 0 0 1 .619 0m30.992-8.262a20.5 20.5 0 0 0-4.58-11.613A20.5 20.5 0 0 0 28.972.694a1.545 1.545 0 0 0-1.902 1.071 1.545 1.545 0 0 0 .75 1.77l-4.723 16.921a.345.345 0 0 0 .356.438l17.527-1.195a1.54 1.54 0 0 0 1.582 1.093 1.53 1.53 0 0 0 1.058-.525c.27-.31.404-.708.376-1.12m-20.103 1.025L27.78 6.248a14.5 14.5 0 0 1 7.252 4.802 14.5 14.5 0 0 1 3.238 8.142zm11.675-9.558a15.2 15.2 0 0 0-7.603-5.031l.508-1.82a17.43 17.43 0 0 1 8.549 5.72 17.43 17.43 0 0 1 3.868 9.53l-1.931.132a15.2 15.2 0 0 0-3.391-8.53m7.531 9.199a.85.85 0 0 1-.732.288.85.85 0 0 1-.761-.79 18.1 18.1 0 0 0-4.049-10.264 18.1 18.1 0 0 0-9.23-6.045.854.854 0 0 1 .459-1.643A19.8 19.8 0 0 1 38.88 7.97a19.8 19.8 0 0 1 4.428 11.225.85.85 0 0 1-.209.619"/><path d="M30.08 14.49a3.13 3.13 0 0 1-3.13-3.129 3.13 3.13 0 0 1 3.13-3.128 3.13 3.13 0 0 1 3.128 3.128 3.13 3.13 0 0 1-3.129 3.129m0-5.567a2.44 2.44 0 0 0-2.439 2.438 2.44 2.44 0 0 0 2.438 2.439 2.44 2.44 0 0 0 2.439-2.439 2.44 2.44 0 0 0-2.439-2.438m1.83 10.307-.056-.002a1.074 1.074 0 0 1-1.017-1.126.74.74 0 0 0-.192-.536.746.746 0 0 0-1.296.461 1.07 1.07 0 0 1-1.126 1.018 1.07 1.07 0 0 1-.741-.353 1.07 1.07 0 0 1-.276-.773 2.895 2.895 0 0 1 3.033-2.74 2.86 2.86 0 0 1 1.997.949 2.87 2.87 0 0 1 .744 2.083 1.07 1.07 0 0 1-1.07 1.018m-1.818-2.6q.037 0 .073.002c.383.019.735.186.992.471.258.285.389.652.37 1.034a.383.383 0 0 0 .763.039 2.203 2.203 0 0 0-2.086-2.308 2.18 2.18 0 0 0-1.585.565 2.2 2.2 0 0 0-.723 1.52.38.38 0 0 0 .362.402.38.38 0 0 0 .401-.363 1.437 1.437 0 0 1 1.433-1.362"/><path d="M31.103 10.687a.53.53 0 1 1-1.06 0 .53.53 0 0 1 1.06 0m-2.032.265a.353.353 0 1 1-.707 0 .353.353 0 0 1 .707 0m1.591 1.634a.22.22 0 1 1-.442 0 .22.22 0 0 1 .442 0"/></g><defs><clipPath id="a"><path fill="#fff" d="M0 0h44v44H0z"/></clipPath></defs></svg>