<svg xmlns="http://www.w3.org/2000/svg" width="44" height="44" fill="none" viewBox="0 0 44 44"><path fill="#8b1e1e" d="M41.14 34.254a2 2 0 0 0-.14-.124q.047.088.14.124m.09 1.186a.263.263 0 1 0 0 .525.263.263 0 0 0 0-.526m0 1.694a.263.263 0 1 0 0 .526.263.263 0 0 0 0-.526m0 1.694a.263.263 0 1 0 0 .525.263.263 0 0 0 0-.525m0 1.693a.263.263 0 1 0 .182.452l.029-.346a.26.26 0 0 0-.21-.106m-.263 1.957q.001.084.047.149.124-.193.207-.411a.26.26 0 0 0-.254.262m-.552-7.917a.263.263 0 1 0 0 .526.263.263 0 0 0 0-.526m0 2.22a.263.263 0 1 0 0-.526.263.263 0 0 0 0 .526m0 1.694a.263.263 0 1 0 0-.526.263.263 0 0 0 0 .526m-.879.353a.263.263 0 1 0 0 .525.263.263 0 0 0 0-.525m.879 1.34a.263.263 0 1 0 0-.526.263.263 0 0 0 0 .526m-.879.353a.263.263 0 1 0 0 .526.263.263 0 0 0 0-.526m.879 1.34a.263.263 0 1 0 0-.525.263.263 0 0 0 0 .526m-.879.879a.263.263 0 1 0 0-.526.263.263 0 0 0 0 .525m.879.291a.263.263 0 0 0-.24.367q.23-.12.425-.291a.26.26 0 0 0-.185-.077m-1.694-3.387a.263.263 0 1 0 0 .525.263.263 0 0 0 0-.525m-1.142 1.141a.263.263 0 1 0 .526 0 .263.263 0 0 0-.525 0m1.141.552a.263.263 0 1 0 0 .526.263.263 0 0 0 0-.526m-.879 1.405a.263.263 0 1 0 0-.526.263.263 0 0 0 0 .525m.879.291a.263.263 0 1 0 0 .524.263.263 0 0 0 0-.525m-1.694-3.387a.263.263 0 1 0 0 .525.263.263 0 0 0 0-.525m-.878.878a.263.263 0 1 0 0 .525.263.263 0 0 0 0-.525m.878.815a.263.263 0 1 0 0 .526.263.263 0 0 0 0-.526m-.878.879a.263.263 0 1 0 0 .525.263.263 0 0 0 0-.525m.878.816a.263.263 0 1 0 0 .525.263.263 0 0 0 0-.526m-1.693-3.387a.263.263 0 1 0 0 .525.263.263 0 0 0 0-.525m-.879.878a.263.263 0 1 0 0 .526.263.263 0 0 0 0-.526m.879.815a.263.263 0 1 0 0 .526.263.263 0 0 0 0-.526m-.879.879a.263.263 0 1 0 0 .526.263.263 0 0 0 0-.526m.879.816a.263.263 0 1 0 0 .525.263.263 0 0 0 0-.526m-1.694-3.387a.263.263 0 1 0 0 .525.263.263 0 0 0 0-.525m-.879.878a.263.263 0 1 0 0 .526.263.263 0 0 0 0-.526m.879.815a.263.263 0 1 0 0 .526.263.263 0 0 0 0-.526m-.879.879a.263.263 0 1 0 0 .526.263.263 0 0 0 0-.526m.879.816a.263.263 0 1 0 0 .525.263.263 0 0 0 0-.526m-1.694-3.387a.263.263 0 1 0 0 .525.263.263 0 0 0 0-.525m-.878.878a.263.263 0 1 0 0 .526.263.263 0 0 0 0-.526m.878.815a.263.263 0 1 0 0 .526.263.263 0 0 0 0-.526m-.878.879a.263.263 0 1 0 0 .526.263.263 0 0 0 0-.526m.878.816a.263.263 0 1 0 0 .524.263.263 0 0 0 0-.525m-1.693-3.387a.263.263 0 1 0 0 .525.263.263 0 0 0 0-.525m-.879.878a.263.263 0 1 0 0 .526.263.263 0 0 0 0-.526m.879.815a.263.263 0 1 0 0 .526.263.263 0 0 0 0-.526m-.879.879a.263.263 0 1 0 0 .526.263.263 0 0 0 0-.526m.879.816a.263.263 0 1 0 0 .524.263.263 0 0 0 0-.525m-1.694-3.387a.263.263 0 1 0 0 .525.263.263 0 0 0 0-.525m-.879.878a.263.263 0 1 0 0 .526.263.263 0 0 0 0-.526m.879.815a.263.263 0 1 0 0 .526.263.263 0 0 0 0-.526m-.879.879a.263.263 0 1 0 0 .526.263.263 0 0 0 0-.526m.879.816a.263.263 0 1 0 0 .524.263.263 0 0 0 0-.525m-1.694-3.387a.263.263 0 1 0 0 .525.263.263 0 0 0 0-.525m-.878.878a.263.263 0 1 0 0 .526.263.263 0 0 0 0-.526m.878.815a.263.263 0 1 0 0 .526.263.263 0 0 0 0-.526m-.878.879a.263.263 0 1 0 0 .526.263.263 0 0 0 0-.526m.878.816a.263.263 0 1 0 0 .525.263.263 0 0 0 0-.526m-1.693-3.387a.263.263 0 1 0 0 .525.263.263 0 0 0 0-.525m-.879.878a.263.263 0 1 0 0 .526.263.263 0 0 0 0-.526m.879.815a.263.263 0 1 0 0 .526.263.263 0 0 0 0-.526m-.879.879a.263.263 0 1 0 0 .526.263.263 0 0 0 0-.526m.879.816a.263.263 0 1 0 0 .525.263.263 0 0 0 0-.526m-1.694-3.387a.263.263 0 1 0 0 .525.263.263 0 0 0 0-.525m-.879.878a.263.263 0 1 0 0 .526.263.263 0 0 0 0-.526m.879.815a.263.263 0 1 0 0 .526.263.263 0 0 0 0-.526m-.879.879a.263.263 0 1 0 0 .526.263.263 0 0 0 0-.526m.879.816a.263.263 0 1 0 0 .525.263.263 0 0 0 0-.526m-1.694-3.387a.263.263 0 1 0 0 .525.263.263 0 0 0 0-.525m-.878.878a.263.263 0 1 0 0 .526.263.263 0 0 0 0-.526m.878.815a.263.263 0 1 0 0 .526.263.263 0 0 0 0-.526m-.878.879a.263.263 0 1 0 0 .526.263.263 0 0 0 0-.526m.878.816a.263.263 0 1 0 0 .524.263.263 0 0 0 0-.525m-1.693-3.387a.263.263 0 1 0 0 .525.263.263 0 0 0 0-.525m-.879.878a.263.263 0 1 0 0 .526.263.263 0 0 0 0-.526m.879.815a.263.263 0 1 0 0 .526.263.263 0 0 0 0-.526m-.879.879a.263.263 0 1 0 0 .526.263.263 0 0 0 0-.526m.879.816a.263.263 0 1 0 0 .524.263.263 0 0 0 0-.525m-1.694-3.387a.263.263 0 1 0 0 .525.263.263 0 0 0 0-.525m-.878.878a.263.263 0 1 0 0 .526.263.263 0 0 0 0-.526m.878.815a.263.263 0 1 0 0 .526.263.263 0 0 0 0-.526m-.878.879a.263.263 0 1 0 0 .526.263.263 0 0 0 0-.526m.878.816a.263.263 0 1 0 0 .524.263.263 0 0 0 0-.525m-1.694-3.387a.263.263 0 1 0 0 .525.263.263 0 0 0 0-.525m-.878.878a.263.263 0 1 0 0 .526.263.263 0 0 0 0-.526m.878.815a.263.263 0 1 0 0 .526.263.263 0 0 0 0-.526m-.878.879a.263.263 0 1 0 0 .526.263.263 0 0 0 0-.526m.878.816a.263.263 0 1 0 0 .524.263.263 0 0 0 0-.525m-1.694-3.387a.263.263 0 1 0 0 .525.263.263 0 0 0 0-.525m-.878.878a.263.263 0 1 0 0 .526.263.263 0 0 0 0-.526m.878.815a.263.263 0 1 0 0 .526.263.263 0 0 0 0-.526m-.878.879a.263.263 0 1 0 0 .526.263.263 0 0 0 0-.526m.878.816a.263.263 0 1 0 0 .524.263.263 0 0 0 0-.525m-1.693-3.387a.263.263 0 1 0 0 .525.263.263 0 0 0 0-.525m-.879.878a.263.263 0 1 0 0 .526.263.263 0 0 0 0-.526m.879.815a.263.263 0 1 0 0 .526.263.263 0 0 0 0-.526m-.879.879a.263.263 0 1 0 0 .526.263.263 0 0 0 0-.526m.879.816a.263.263 0 1 0 0 .524.263.263 0 0 0 0-.525m-1.694-3.387a.263.263 0 1 0 0 .525.263.263 0 0 0 0-.525m-.878.878a.263.263 0 1 0 0 .526.263.263 0 0 0 0-.526m.878.815a.263.263 0 1 0 0 .526.263.263 0 0 0 0-.526m-.878.879a.263.263 0 1 0 0 .526.263.263 0 0 0 0-.526m.878.816a.263.263 0 1 0 0 .524.263.263 0 0 0 0-.525M9.93 39.642a.263.263 0 1 0 0 .525.263.263 0 0 0 0-.525m-.88.878a.263.263 0 1 0 0 .526.263.263 0 0 0 0-.526m.88.815a.263.263 0 1 0 0 .526.263.263 0 0 0 0-.526m-.88.879a.263.263 0 1 0 0 .526.263.263 0 0 0 0-.526m.88.816a.263.263 0 1 0 0 .525.263.263 0 0 0 0-.526m-1.694-3.387a.263.263 0 1 0 0 .525.263.263 0 0 0 0-.525m-.879.878a.263.263 0 1 0 0 .526.263.263 0 0 0 0-.526m.879.815a.263.263 0 1 0 0 .526.263.263 0 0 0 0-.526m-.879.879a.263.263 0 1 0 0 .526.263.263 0 0 0 0-.526m.879.816a.263.263 0 1 0 0 .525.263.263 0 0 0 0-.526m-1.694-3.387a.263.263 0 1 0 0 .525.263.263 0 0 0 0-.525m-.879.878a.263.263 0 1 0 0 .526.263.263 0 0 0 0-.526m.879.815a.263.263 0 1 0 0 .526.263.263 0 0 0 0-.526m-.879.879a.263.263 0 1 0 0 .526.263.263 0 0 0 0-.526m.879.816a.263.263 0 1 0 0 .525.263.263 0 0 0 0-.526m-1.693-3.387a.263.263 0 1 0 0 .525.263.263 0 0 0 0-.525m-.879.878a.263.263 0 1 0 0 .526.263.263 0 0 0 0-.526m.879.815a.263.263 0 1 0 0 .526.263.263 0 0 0 0-.526m-.879.879a.263.263 0 1 0 0 .526.263.263 0 0 0 0-.526m1.141 1.078a.263.263 0 1 0-.525 0 .263.263 0 0 0 .525 0m-1.956-3.65a.263.263 0 1 0 0 .525.263.263 0 0 0 0-.525m-.757.91.035.44a.262.262 0 0 0-.035-.44m.757.783a.263.263 0 1 0 0 .526.263.263 0 0 0 0-.526m.004 1.695q.119.114.253.21a.26.26 0 0 0-.253-.21"/><path fill="#8b1e1e" d="M39.597 33.288h-1.448a3.25 3.25 0 0 0 1.556-2.77v-.443a3.25 3.25 0 0 0-2.002-2.996 1.846 1.846 0 0 0-.382-3.065 2.54 2.54 0 0 0 1.034-2.046v-.335a2.54 2.54 0 0 0-.854-1.9h1.867a3.38 3.38 0 0 0 2.512-1.122 3.4 3.4 0 0 0 .849-2.635c-.295-2.727-1.28-6.676-4.301-10.001C34.827 2.01 29.3 0 22.004 0S9.18 2.01 5.576 5.974c-3.022 3.325-4.01 7.273-4.305 10a3.4 3.4 0 0 0 .848 2.637 3.38 3.38 0 0 0 2.512 1.122h.935a2.54 2.54 0 0 0-.854 1.9v.335c0 .838.407 1.582 1.033 2.046a1.846 1.846 0 0 0-.382 3.065 3.25 3.25 0 0 0-2.002 2.996v.443c0 1.171.624 2.199 1.556 2.77h-.66c-.717 0-1.408.302-1.894.829a2.58 2.58 0 0 0-.674 1.954l.448 5.56A2.59 2.59 0 0 0 4.706 44h34.43a2.59 2.59 0 0 0 2.568-2.364l.46-5.56a2.58 2.58 0 0 0-.672-1.957 2.58 2.58 0 0 0-1.895-.831M4.632 19.04a2.7 2.7 0 0 1-1.998-.892 2.7 2.7 0 0 1-.675-2.1C2.461 11.43 5.418.692 22.004.692S41.542 11.432 42.04 16.05a2.7 2.7 0 0 1-.676 2.1 2.7 2.7 0 0 1-1.997.891zm.773 2.927v-.335c0-1.022.83-1.853 1.852-1.853H35.81c1.022 0 1.853.831 1.853 1.852v.336a1.855 1.855 0 0 1-1.853 1.853H7.257a1.855 1.855 0 0 1-1.852-1.853m1.159 2.545h29.94a1.16 1.16 0 0 1 0 2.318h-3.09a.346.346 0 0 0-.346.346v2.985c0 .739-.6 1.346-1.34 1.353a1.34 1.34 0 0 1-.969-.395 1.34 1.34 0 0 1-.397-.968l.02-2.973a.346.346 0 0 0-.345-.348h-3.575a.346.346 0 0 0-.345.342l-.017 1.364a.98.98 0 0 1-.974.962.975.975 0 0 1-.974-.975v-1.347a.346.346 0 0 0-.346-.346H6.564a1.16 1.16 0 0 1 0-2.319m34.911 11.506-.46 5.56c-.08.97-.905 1.73-1.878 1.73H4.707a1.896 1.896 0 0 1-1.88-1.734l-.448-5.56a1.87 1.87 0 0 1 .493-1.429 1.87 1.87 0 0 1 1.386-.607h35.339c.533 0 1.026.216 1.387.608.36.393.535.901.491 1.432"/><path fill="#8b1e1e" d="M12.392 6.77a1.21 1.21 0 0 1-.262-2.392l.962-.213a1.21 1.21 0 1 1 .525 2.363l-.962.213q-.132.03-.263.03m13.728.097q-.145 0-.294-.036l-.956-.239a1.21 1.21 0 1 1 .587-2.348l.956.239a1.21 1.21 0 0 1-.293 2.384m-5.998 3.014h-.985a1.21 1.21 0 1 1 0-2.42h.985a1.21 1.21 0 1 1 0 2.42m12.188-.919a1.21 1.21 0 0 1-.667-2.222l.823-.541a1.21 1.21 0 0 1 1.33 2.022l-.822.541c-.205.135-.436.2-.665.2"/></svg>