<svg xmlns="http://www.w3.org/2000/svg" width="44" height="44" fill="none" viewBox="0 0 44 44"><path fill="#8b1e1e" d="M31.647 7.265a.724.724 0 1 1-1.449 0 .724.724 0 0 1 1.449 0m2.996-1.398a.474.474 0 1 1-.949 0 .474.474 0 0 1 .949 0m3.464 12.871a.263.263 0 1 0 0 .526.263.263 0 0 0 0-.526m0 1.695a.263.263 0 1 0 .169.463l.027-.373a.26.26 0 0 0-.197-.09m-.762-2.569h-.106a.263.263 0 1 0 .106 0m-.933 1.4a.263.263 0 1 0 0-.526.263.263 0 0 0 0 .526m.88.29a.263.263 0 1 0 0 .525.263.263 0 0 0 0-.525m-.88 1.405a.263.263 0 1 0 0-.526.263.263 0 0 0 0 .526m.88.29a.263.263 0 1 0 0 .526.263.263 0 0 0 0-.526m-.88 1.405a.263.263 0 1 0 0-.526.263.263 0 0 0 0 .526m.88.29a.263.263 0 1 0 0 .525.263.263 0 0 0 0-.525m-.88 1.405a.263.263 0 1 0 0-.526.263.263 0 0 0 0 .526m.88.29a.263.263 0 1 0 0 .525.263.263 0 0 0 0-.525m-.88 1.405a.263.263 0 1 0 0-.526.263.263 0 0 0 0 .526m.88.29a.263.263 0 1 0 0 .525.263.263 0 0 0 0-.525m-.88 1.405a.263.263 0 1 0 0-.526.263.263 0 0 0 0 .526m.88.29a.263.263 0 1 0 0 .526.263.263 0 0 0 0-.526m-.88 1.405a.263.263 0 1 0 0-.526.263.263 0 0 0 0 .526m.88.29a.263.263 0 1 0 0 .525.263.263 0 0 0 0-.525m-.88 1.406a.263.263 0 1 0 0-.527.263.263 0 0 0 0 .526m.88.29a.263.263 0 0 0 0 .526.26.26 0 0 0 .164-.059l.028-.382a.26.26 0 0 0-.192-.085m-.88 1.405a.263.263 0 1 0 0-.526.263.263 0 0 0 0 .526m0 1.695a.263.263 0 1 0 0-.526.263.263 0 0 0 0 .526m0 1.695a.263.263 0 1 0 0-.526.263.263 0 0 0 0 .526m0 1.696a.263.263 0 1 0 0-.527.263.263 0 0 0 0 .526m0 1.695a.263.263 0 1 0 0-.526.263.263 0 0 0 0 .526m-.762-21.74h-.106a.263.263 0 1 0 .106 0m-.932.874a.263.263 0 1 0 0 .526.263.263 0 0 0 0-.526m.879 1.342a.263.263 0 1 0 0-.526.263.263 0 0 0 0 .526m-.879.353a.263.263 0 1 0 0 .526.263.263 0 0 0 0-.526m.879.816a.263.263 0 1 0 0 .526.263.263 0 0 0 0-.526m-.879.879a.263.263 0 1 0 0 .526.263.263 0 0 0 0-.526m.879.816a.263.263 0 1 0 0 .525.263.263 0 0 0 0-.525m-.879.879a.263.263 0 1 0 0 .526.263.263 0 0 0 0-.526m.879.816a.263.263 0 1 0 0 .525.263.263 0 0 0 0-.525m-.879.879a.263.263 0 1 0 0 .526.263.263 0 0 0 0-.526m.879.816a.263.263 0 1 0 0 .525.263.263 0 0 0 0-.525m-.879.879a.263.263 0 1 0 0 .526.263.263 0 0 0 0-.526m.879 1.342a.263.263 0 1 0 0-.526.263.263 0 0 0 0 .526m-.879.353a.263.263 0 1 0 0 .526.263.263 0 0 0 0-.526m.879 1.342a.263.263 0 1 0 0-.526.263.263 0 0 0 0 .526m-.879.353a.263.263 0 1 0 0 .526.263.263 0 0 0 0-.526m.879.816a.263.263 0 1 0 0 .526.263.263 0 0 0 0-.526m-.879.879a.263.263 0 1 0 0 .526.263.263 0 0 0 0-.526m.879.816a.263.263 0 1 0 0 .526.263.263 0 0 0 0-.526m-.879.879a.263.263 0 1 0 0 .526.263.263 0 0 0 0-.526m.879 1.342a.263.263 0 1 0 0-.526.263.263 0 0 0 0 .526m-.879.353a.263.263 0 1 0 0 .526.263.263 0 0 0 0-.526m.879.816a.263.263 0 1 0 0 .526.263.263 0 0 0 0-.526m-.879.879a.263.263 0 1 0 0 .526.263.263 0 0 0 0-.526m.879.816a.263.263 0 1 0 0 .526.263.263 0 0 0 0-.526m-.879.879a.263.263 0 1 0 0 .526.263.263 0 0 0 0-.526m.879.816a.263.263 0 1 0 0 .526.263.263 0 0 0 0-.526m-.879.879a.263.263 0 1 0 0 .526.263.263 0 0 0 0-.526m.879.816a.263.263 0 1 0 0 .526l.02-.002q.127-.13.242-.269a.26.26 0 0 0-.262-.255m-1.642-23.725h-.106a.263.263 0 1 0 .106 0m-.933.874a.263.263 0 1 0 0 .526.263.263 0 0 0 0-.526m.879.816a.263.263 0 1 0 0 .525.263.263 0 0 0 0-.525m-.879.879a.263.263 0 1 0 0 .526.263.263 0 0 0 0-.526m.879.816a.263.263 0 1 0 0 .526.263.263 0 0 0 0-.526m-.879.879a.263.263 0 1 0 0 .526.263.263 0 0 0 0-.526m.879.816a.263.263 0 1 0 0 .525.263.263 0 0 0 0-.525m-.879.879a.263.263 0 1 0 0 .526.263.263 0 0 0 0-.526m.879.816a.263.263 0 1 0 0 .525.263.263 0 0 0 0-.525m-.879.879a.263.263 0 1 0 0 .526.263.263 0 0 0 0-.526m.879.816a.263.263 0 1 0 0 .525.263.263 0 0 0 0-.525m-.879.879a.263.263 0 1 0 0 .526.263.263 0 0 0 0-.526m.879.816a.263.263 0 1 0 0 .526.263.263 0 0 0 0-.526m-.879.879a.263.263 0 1 0 0 .526.263.263 0 0 0 0-.526m.879.816a.263.263 0 1 0 0 .525.263.263 0 0 0 0-.525m-.879.879a.263.263 0 1 0 0 .526.263.263 0 0 0 0-.526m.879.816a.263.263 0 1 0 0 .526.263.263 0 0 0 0-.526m-.879.879a.263.263 0 1 0 0 .526.263.263 0 0 0 0-.526m.879.816a.263.263 0 1 0 0 .526.263.263 0 0 0 0-.526m-.879.879a.263.263 0 1 0 0 .526.263.263 0 0 0 0-.526m.879.816a.263.263 0 1 0 0 .526.263.263 0 0 0 0-.526m-.879.879a.263.263 0 1 0 0 .526.263.263 0 0 0 0-.526m.879.816a.263.263 0 1 0 0 .526.263.263 0 0 0 0-.526m-.879.879a.263.263 0 1 0 0 .526.263.263 0 0 0 0-.526m.879.816a.263.263 0 1 0 0 .526.263.263 0 0 0 0-.526m-.879.879a.263.263 0 1 0 0 .526.263.263 0 0 0 0-.526m.879.816a.263.263 0 1 0 0 .526.263.263 0 0 0 0-.526m-.879.879a.263.263 0 1 0 0 .526.263.263 0 0 0 0-.526m.879.816a.263.263 0 1 0 0 .526.263.263 0 0 0 0-.526m-.879.879a.263.263 0 1 0 0 .526.263.263 0 0 0 0-.526m-.815-22.914a.263.263 0 1 0 0 .525.263.263 0 0 0 0-.525m0 1.695a.263.263 0 1 0 0 .526.263.263 0 0 0 0-.526m0 1.695a.263.263 0 1 0 0 .525.263.263 0 0 0 0-.525m0 1.695a.263.263 0 1 0 0 .525.263.263 0 0 0 0-.525m0 1.695a.263.263 0 1 0 0 .525.263.263 0 0 0 0-.525m0 1.695a.263.263 0 1 0 0 .526.263.263 0 0 0 0-.526m0 1.695a.263.263 0 1 0 0 .525.263.263 0 0 0 0-.525m-.88.879a.263.263 0 1 0 0 .526.263.263 0 0 0 0-.526m.88.816a.263.263 0 1 0 0 .526.263.263 0 0 0 0-.526m-.88.879a.263.263 0 1 0 0 .526.263.263 0 0 0 0-.526m.88.816a.263.263 0 1 0 0 .526.263.263 0 0 0 0-.526m-.88.879a.263.263 0 1 0 0 .526.263.263 0 0 0 0-.526m.88.816a.263.263 0 1 0 0 .526.263.263 0 0 0 0-.526m-.88.879a.263.263 0 1 0 0 .526.263.263 0 0 0 0-.526m.88.816a.263.263 0 1 0 0 .526.263.263 0 0 0 0-.526m-.88 1.406a.263.263 0 1 0 0-.527.263.263 0 0 0 0 .526m.88.29a.263.263 0 1 0 0 .526.263.263 0 0 0 0-.526m-.88.879a.263.263 0 1 0 0 .526.263.263 0 0 0 0-.526m.88.816a.263.263 0 1 0 0 .526.263.263 0 0 0 0-.526m-.88.879a.263.263 0 1 0 0 .526.263.263 0 0 0 0-.526m.88.816a.263.263 0 1 0 0 .526.263.263 0 0 0 0-.526m-.88.879a.263.263 0 1 0 0 .526.263.263 0 0 0 0-.526m-5.085-23.73a.263.263 0 1 0 0 .526.263.263 0 0 0 0-.526m0 1.695a.263.263 0 1 0 0 .526.263.263 0 0 0 0-.526m-.762-2.569h-.106a.263.263 0 1 0 .106 0m-.933.874a.263.263 0 1 0 0 .526.263.263 0 0 0 0-.526m.88.816a.263.263 0 1 0 0 .526.263.263 0 0 0 0-.526m-.88.879a.263.263 0 1 0 0 .526.263.263 0 0 0 0-.526m.88.816a.263.263 0 1 0 0 .526.263.263 0 0 0 0-.526m-1.642-3.385h-.107a.263.263 0 1 0 .107 0m-.933.874a.263.263 0 1 0 0 .526.263.263 0 0 0 0-.526m.879.816a.263.263 0 1 0 0 .525.263.263 0 0 0 0-.525m-.879.879a.263.263 0 1 0 0 .526.263.263 0 0 0 0-.526m.879.816a.263.263 0 1 0 0 .526.263.263 0 0 0 0-.526m-1.641-3.385h-.106a.263.263 0 1 0 .106 0m-.933.874a.263.263 0 1 0 0 .526.263.263 0 0 0 0-.526m.88 1.342a.263.263 0 1 0 0-.526.263.263 0 0 0 0 .526m-.88.353a.263.263 0 1 0 0 .526.263.263 0 0 0 0-.526m.88.816a.263.263 0 1 0 0 .526.263.263 0 0 0 0-.526m-1.642-3.385h-.106a.263.263 0 1 0 .106 0m-.933.874a.263.263 0 1 0 0 .526.263.263 0 0 0 0-.526m.879.816a.263.263 0 1 0 0 .525.263.263 0 0 0 0-.525m-.879.879a.263.263 0 1 0 0 .526.263.263 0 0 0 0-.526m.879.816a.263.263 0 1 0 0 .526.263.263 0 0 0 0-.526m-1.641-3.385h-.107a.263.263 0 1 0 .107 0m-.933.874a.263.263 0 1 0 0 .526.263.263 0 0 0 0-.526m.88.816a.263.263 0 1 0 0 .525.263.263 0 0 0 0-.525m-.88.879a.263.263 0 1 0 0 .526.263.263 0 0 0 0-.526m.88.816a.263.263 0 1 0 0 .526.263.263 0 0 0 0-.526m-1.642-3.385h-.107a.263.263 0 1 0 .107 0m-.054 1.69a.263.263 0 1 0 0 .526.263.263 0 0 0 0-.526m0 1.695a.263.263 0 1 0 0 .526.263.263 0 0 0 0-.526m-5.964-2.511a.263.263 0 1 0 0 .526.263.263 0 0 0 0-.526m0 1.695a.263.263 0 1 0 0 .526.263.263 0 0 0 0-.526m-.762-2.569h-.107a.263.263 0 1 0 .107 0m-.933.874a.263.263 0 1 0 0 .526.263.263 0 0 0 0-.526m.879 1.342a.263.263 0 1 0 0-.526.263.263 0 0 0 0 .526m-.879.353a.263.263 0 1 0 0 .526.263.263 0 0 0 0-.526m.879.816a.263.263 0 1 0 0 .526.263.263 0 0 0 0-.526m-1.641-3.385h-.107a.263.263 0 1 0 .107 0m-.933.874a.263.263 0 1 0 0 .526.263.263 0 0 0 0-.526m.879.816a.263.263 0 1 0 0 .526.263.263 0 0 0 0-.526m-.879.879a.263.263 0 1 0 0 .526.263.263 0 0 0 0-.526m.879.816a.263.263 0 1 0 0 .526.263.263 0 0 0 0-.526m-1.641-3.385h-.107a.263.263 0 1 0 .107 0m-.054 1.69a.263.263 0 1 0 0 .525.263.263 0 0 0 0-.525m0 2.221a.263.263 0 1 0 0-.526.263.263 0 0 0 0 .526m9.291-3.037a.263.263 0 1 0 0 .526.263.263 0 0 0 0-.526"/><path fill="#8b1e1e" d="m16.7 19.89-.008-.113-.004.04q.001.038.011.072m-.628.544a.263.263 0 1 0 0 .526.263.263 0 0 0 0-.526m.723.869a.262.262 0 0 0 .03.438zm-1.538-3.444a.263.263 0 1 0 0 .526.263.263 0 0 0 0-.526m-.88.88a.263.263 0 1 0 0 .526.263.263 0 0 0 0-.526m.88.816a.263.263 0 1 0 0 .525.263.263 0 0 0 0-.526m-.88.88a.263.263 0 1 0 0 .526.263.263 0 0 0 0-.526m.88.816a.263.263 0 1 0 0 .525.263.263 0 0 0 0-.526m-1.696-2.864a.263.263 0 1 0 0-.526.263.263 0 0 0 0 .526m-.879.354a.263.263 0 1 0 0 .526.263.263 0 0 0 0-.526m.879 1.342a.263.263 0 1 0 0-.527.263.263 0 0 0 0 .526m-.879.354a.263.263 0 1 0 0 .526.263.263 0 0 0 0-.526m.879.816a.263.263 0 1 0 0 .525.263.263 0 0 0 0-.526m-1.694-3.39a.263.263 0 1 0 0 .526.263.263 0 0 0 0-.526m-.776.901.03.466a.262.262 0 0 0-.03-.466m.776.795a.263.263 0 1 0 0 .525.263.263 0 0 0 0-.526m-.656 1.007.016.242a.26.26 0 0 0-.016-.242m.656 1.214a.263.263 0 1 0 0-.525.263.263 0 0 0 0 .525m20.34-3.916a.263.263 0 1 0 .188.446l.023-.337a.26.26 0 0 0-.211-.109m-.88.88a.263.263 0 1 0 0 .526.263.263 0 0 0 0-.526m.617 1.078a.263.263 0 0 0 .33.254l.034-.496a.262.262 0 0 0-.364.242m-.617.617a.263.263 0 1 0 0 .526.263.263 0 0 0 0-.526m.617 1.079c0 .128.092.234.213.257l.036-.519a.26.26 0 0 0-.249.262m0 1.695c0 .083.04.156.1.204l.03-.43a.26.26 0 0 0-.13.225m-.617 2.312a.263.263 0 1 0 0 .526.263.263 0 0 0 0-.526m0-1.693a.263.263 0 1 0 0 .526.263.263 0 0 0 0-.526m0-1.693a.263.263 0 1 0 0 .525.263.263 0 0 0 0-.525m0 5.607a.263.263 0 1 0 0-.526.263.263 0 0 0 0 .526m0 1.169a.263.263 0 1 0 0 .526.263.263 0 0 0 0-.526m0 1.695a.263.263 0 1 0 .192.442l.023-.33a.26.26 0 0 0-.215-.112m-.262 1.957a.263.263 0 0 0 .332.253l.034-.494a.262.262 0 0 0-.366.242m0 1.695c0 .129.093.236.215.258l.036-.52a.26.26 0 0 0-.252.262m.001 1.694c0 .086.04.16.102.208l.03-.434a.26.26 0 0 0-.133.227m.001 1.695v.004l.001-.022zm-.554-19.788a.263.263 0 1 0 0 .526.263.263 0 0 0 0-.526m-.879.88a.263.263 0 1 0 0 .526.263.263 0 0 0 0-.526m.879.816a.263.263 0 1 0 0 .525.263.263 0 0 0 0-.526m-.879.88a.263.263 0 1 0 0 .526.263.263 0 0 0 0-.526m.879.816a.263.263 0 1 0 0 .525.263.263 0 0 0 0-.526m-1.694-3.39a.263.263 0 1 0 0 .526.263.263 0 0 0 0-.526m-.88.88a.263.263 0 1 0 0 .526.263.263 0 0 0 0-.526m.88.816a.263.263 0 1 0 0 .525.263.263 0 0 0 0-.526m-.88.88a.263.263 0 1 0 0 .526.263.263 0 0 0 0-.526m.88.816a.263.263 0 1 0 0 .525.263.263 0 0 0 0-.526m-1.696-3.39a.263.263 0 1 0 0 .526.263.263 0 0 0 0-.526m0 1.696a.263.263 0 1 0 0 .525.263.263 0 0 0 0-.526m0 2.221a.263.263 0 1 0 0-.526.263.263 0 0 0 0 .526"/><path fill="#8b1e1e" d="m37.583 11.66.766-2.823a4.4 4.4 0 0 0-3.09-5.396l-1.576-.428a4.37 4.37 0 0 0-3.338.428 4.37 4.37 0 0 0-2.058 2.663l-.902 3.318-1.85-1.1a.39.39 0 0 1-.173-.427l3.054-6.445.018-.045a1.066 1.066 0 0 0-.457-1.237 1.066 1.066 0 0 0-1.289.106c-.448.297-5.738 3.804-6.765 4.927-.939 1.026-2.267 3.553-2.591 4.181l-1.784-1.06a.39.39 0 0 1-.173-.427l3.054-6.445.018-.045A1.07 1.07 0 0 0 17.99.168a1.066 1.066 0 0 0-1.29.106c-.448.296-5.738 3.804-6.765 4.927C8.906 6.327 7.405 9.263 7.28 9.51a2.64 2.64 0 0 0-.268 2.146h-.468a2.903 2.903 0 0 0-2.9 2.9v.683c0 1.253.799 2.322 1.913 2.727L7.17 39.339c.198 2.613 2.554 4.66 5.366 4.66H31.88c2.814 0 5.17-2.048 5.366-4.664l1.61-21.556a2.9 2.9 0 0 0 1.502-2.54v-.683a2.903 2.903 0 0 0-2.774-2.896m-8.63-5.376a3.68 3.68 0 0 1 1.734-2.245 3.7 3.7 0 0 1 2.815-.36l1.575.428a3.71 3.71 0 0 1 2.606 4.55l-.815 3h-6.161a3.3 3.3 0 0 0-.91-.802l-1.796-1.067zm-8.52-.617C21.424 4.58 27.033.873 27.09.836a.3.3 0 0 0 .046-.037.374.374 0 0 1 .473-.046.376.376 0 0 1 .17.426l-3.054 6.445-.017.045a1.08 1.08 0 0 0 .469 1.244l4.267 2.535q.158.095.3.209h-9.026a3.3 3.3 0 0 0-.909-.802l-1.884-1.12c.275-.532 1.617-3.096 2.506-4.068M7.874 9.859l.013-.025c.016-.03 1.567-3.086 2.557-4.167.993-1.086 6.602-4.794 6.659-4.831a.3.3 0 0 0 .046-.037.374.374 0 0 1 .473-.046c.12.075.224.225.17.426L14.74 7.624l-.018.045a1.08 1.08 0 0 0 .47 1.244l4.267 2.535q.159.095.3.208H7.742a1.95 1.95 0 0 1 .132-1.797m-.018 29.428L6.26 18.125q.14.014.283.014h4.012l1.804 25.167c-2.374-.082-4.336-1.817-4.502-4.02m24.205-21.148-1.66 25.17h-5.093l1.78-25.17zm-7.443 25.17H18.65l-1.744-25.17h9.49zm-8.403-25.17 1.744 25.17h-5.015l.104-.006-1.804-25.164zm20.34 21.145c-.168 2.258-2.223 4.026-4.677 4.026h-.787l1.66-25.17h4.705q.355-.002.684-.083zm3.11-24.045c0 1.219-.99 2.21-2.209 2.21H6.543a2.21 2.21 0 0 1-2.21-2.21v-.683c0-1.218.992-2.21 2.21-2.21h30.914c1.218 0 2.21.992 2.21 2.21z"/></svg>