<svg xmlns="http://www.w3.org/2000/svg" width="44" height="44" fill="none" viewBox="0 0 44 44"><g fill="#8b1e1e" clip-path="url(#a)"><path d="M32.666 27.5a.266.266 0 1 0 0 .531.266.266 0 0 0 0-.532m-.826.826a.266.266 0 1 0 0 .532.266.266 0 0 0 0-.532m-.89.89a.266.266 0 0 0-.088.515l.339-.161a.266.266 0 0 0-.25-.354m-3.431-6.861a.266.266 0 1 0 0 .532.266.266 0 0 0 0-.532m-.825-.89a.266.266 0 1 0 0 .532.266.266 0 0 0 0-.532m-.89.89a.266.266 0 1 0 0 .532.266.266 0 0 0 0-.532m.89.825a.266.266 0 1 0 0 .532.266.266 0 0 0 0-.532m-.89.89a.266.266 0 1 0 0 .532.266.266 0 0 0 0-.532m0 6.861a.266.266 0 1 0 0 .532.266.266 0 0 0 0-.532m-.825-7.751a.266.266 0 1 0 0 .532.266.266 0 0 0 0-.532m-.89 6.036a.266.266 0 1 0 0 .532.266.266 0 0 0 0-.532m.89.825a.266.266 0 1 0 0 .532.266.266 0 0 0 0-.532m-.89.89a.266.266 0 1 0 0 .532.266.266 0 0 0 0-.532m-1.715-12.007a.266.266 0 1 0 0 .532.266.266 0 0 0 0-.532m.889 11.117a.266.266 0 1 0 0 .532.266.266 0 0 0 0-.532m-.889.89a.266.266 0 1 0 0 .532.266.266 0 0 0 0-.532m.889.825a.266.266 0 1 0 0 .532.266.266 0 0 0 0-.532m-.889.89a.266.266 0 1 0 0 .532.266.266 0 0 0 0-.532M20.66 15.492a.266.266 0 1 0 0 .532.266.266 0 0 0 0-.532m.889.826a.266.266 0 1 0 0 .532.266.266 0 0 0 0-.532m-.889.89a.266.266 0 1 0-.001.531.266.266 0 0 0 0-.532m.89.826a.266.266 0 1 0 0 .532.266.266 0 0 0 0-.532m-.889.89a.266.266 0 1 0-.001.532.266.266 0 0 0 0-.532m.89.825a.266.266 0 1 0 0 .532.266.266 0 0 0 0-.532m0 10.292a.266.266 0 1 0 0 .532.266.266 0 0 0 0-.532m-.889.89a.266.266 0 1 0-.001.532.266.266 0 0 0 0-.532m.89.825a.266.266 0 1 0 0 .532.266.266 0 0 0 0-.532m-.889.89a.266.266 0 1 0-.001.532.266.266 0 0 0 0-.532m.89.825a.266.266 0 1 0 0 .532.266.266 0 0 0 0-.532m-2.605-19.693a.266.266 0 1 0 0 .532.266.266 0 0 0 0-.532m.89.825a.266.266 0 1 0 0 .532.266.266 0 0 0 0-.532m-.89.89a.266.266 0 1 0 0 .532.266.266 0 0 0 0-.532m.89.826a.266.266 0 1 0 0 .532.266.266 0 0 0 0-.532m-.89.89a.266.266 0 1 0 0 .531.266.266 0 0 0 0-.532m.89 1.358a.266.266 0 1 0 0-.532.266.266 0 0 0 0 .532m0 13.19a.266.266 0 1 0 0 .532.266.266 0 0 0 0-.532m-.89.89a.266.266 0 1 0 0 .532.266.266 0 0 0 0-.532m.89.825a.266.266 0 1 0 0 .532.266.266 0 0 0 0-.532m-.89.89a.266.266 0 1 0 0 .532.266.266 0 0 0 0-.532m-1.715-22.298a.266.266 0 1 0 0 .532.266.266 0 0 0 0-.532m.89.825a.266.266 0 1 0 0 .533.266.266 0 0 0 0-.533m-.89.89a.266.266 0 1 0 0 .532.266.266 0 0 0 0-.532m.89.825a.266.266 0 1 0 0 .532.266.266 0 0 0 0-.532m-.89.89a.266.266 0 1 0 0 .533.266.266 0 0 0 0-.533m.89 1.358a.266.266 0 1 0 0-.532.266.266 0 0 0 0 .532m0 14.905a.266.266 0 1 0 0 .532.266.266 0 0 0 0-.532m.825-.823a.266.266 0 1 0 0 .532.266.266 0 0 0 0-.532m-1.715 1.713a.266.266 0 1 0 0 .532.266.266 0 0 0 0-.532m.89.825a.266.266 0 1 0 0 .533.266.266 0 0 0 0-.533m-.89.89a.266.266 0 1 0 0 .532.266.266 0 0 0 0-.532m.89.826a.266.266 0 1 0 0 .532.266.266 0 0 0 0-.533m-1.716-24.013a.266.266 0 1 0 0 .532.266.266 0 0 0 0-.532m-.89.89a.266.266 0 1 0 0 .532.266.266 0 0 0 0-.532m0 1.715a.266.266 0 1 0 0 .532.266.266 0 0 0 0-.532m.89.825a.266.266 0 1 0 0 .532.266.266 0 0 0 0-.532m0 18.868a.266.266 0 1 0 0 .532.266.266 0 0 0 0-.532m-.89.89a.266.266 0 1 0 0 .532.266.266 0 0 0 0-.532m.89.826a.266.266 0 1 0 0 .532.266.266 0 0 0 0-.533m-.89.89a.266.266 0 1 0 0 .533.266.266 0 0 0 0-.533m-.825-22.655a.266.266 0 1 0 0-.533.266.266 0 0 0 0 .532m0 20.051a.266.266 0 1 0 0 .532.266.266 0 0 0 0-.532m.826-.822a.266.266 0 1 0 0 .532.266.266 0 0 0 0-.532m-1.716 1.712a.266.266 0 1 0 0 .532.266.266 0 0 0 0-.532m.89.826a.266.266 0 1 0 0 .531.266.266 0 0 0 0-.532m-.89.89a.266.266 0 1 0 0 .533.266.266 0 0 0 0-.533m1.156 1.092a.266.266 0 1 0-.213.26l.112-.053a.27.27 0 0 0 .101-.207m-1.981-1.981a.266.266 0 1 0 0 .531.266.266 0 0 0 0-.532m-.89.89a.266.266 0 1 0 0 .532.266.266 0 0 0 0-.532m.89.825a.266.266 0 1 0 0 .533.266.266 0 0 0 0-.532m-.89.889a.266.266 0 1 0 0 .533.266.266 0 0 0 0-.532m-.825-2.605a.266.266 0 1 0 0 .532.266.266 0 0 0 0-.533m.825-.825a.266.266 0 1 0 0 .532.266.266 0 0 0 0-.532m-1.715 1.715a.266.266 0 1 0 0 .533.266.266 0 0 0 0-.533m.89.825a.266.266 0 1 0 0 .533.266.266 0 0 0 0-.532m-.89.889a.266.266 0 1 0 0 .533.266.266 0 0 0 0-.532m-1.716-1.716a.266.266 0 1 0 0 .533.266.266 0 0 0 0-.533m.89.825a.266.266 0 1 0 0 .533.266.266 0 0 0 0-.532m-.89.889a.266.266 0 1 0 0 .533.266.266 0 0 0 0-.532m.89.825a.266.266 0 1 0 0 .532.266.266 0 0 0 0-.532m-.89.89a.266.266 0 1 0 0 .532.266.266 0 0 0 0-.532M7.827 36.9a.266.266 0 1 0 0 .533.266.266 0 0 0 0-.532m-.89.889a.266.266 0 1 0 0 .533.266.266 0 0 0 0-.532m.89.825a.266.266 0 1 0 0 .532.266.266 0 0 0 0-.532m-.89.89a.266.266 0 1 0 0 .532.266.266 0 0 0 0-.532m.89.826a.266.266 0 0 0-.163.475l.429-.205v-.004a.266.266 0 0 0-.266-.267M5.222 37.79a.266.266 0 1 0 0 .533.266.266 0 0 0 0-.532m.89.825a.266.266 0 1 0 0 .532.266.266 0 0 0 0-.532m-.89.89a.266.266 0 1 0 0 .532.266.266 0 0 0 0-.532m.89.826a.266.266 0 1 0 0 .532.266.266 0 0 0 0-.532m-.89.889a.266.266 0 1 0 0 .533.266.266 0 0 0 0-.533m-.826-2.073a.266.266 0 1 0 0-.532.266.266 0 0 0 0 .532m-.889.358a.266.266 0 1 0 0 .532.266.266 0 0 0 0-.532m.889.826a.266.266 0 1 0 0 .532.266.266 0 0 0 0-.532m-.889.889a.266.266 0 1 0 0 .533.266.266 0 0 0 0-.533m-1.716-1.183a.266.266 0 1 0-.128-.498l-.133.28c.022.124.13.218.261.218m.89.294a.266.266 0 1 0 0 .532.266.266 0 0 0 0-.532m-.89.889a.266.266 0 1 0 0 .533.266.266 0 0 0 0-.533m.89.826a.266.266 0 1 0 0 .532.266.266 0 0 0 0-.532m-.89 1.422a.266.266 0 1 0 0-.532.266.266 0 0 0 0 .532m-.825-.89a.266.266 0 1 0 0-.532.266.266 0 0 0 0 .532M43.15 10.346a.266.266 0 1 0 .235.388q-.035-.165-.074-.332a.26.26 0 0 0-.162-.056m.001 1.716a.266.266 0 1 0 0 .532.266.266 0 0 0 0-.532m0 1.715a.266.266 0 1 0 0 .532.266.266 0 0 0 0-.532m0 1.715a.266.266 0 1 0 0 .532.266.266 0 0 0 0-.532m-.267 1.982c0 .069.027.131.07.179q.075-.22.143-.44a.266.266 0 0 0-.213.26M41.434 6.916a.266.266 0 1 0 0 .532.266.266 0 0 0 0-.532m.624 1.091a.266.266 0 0 0 .496.131 13 13 0 0 0-.18-.392.264.264 0 0 0-.316.261m-.624.624a.266.266 0 1 0 0 .532.266.266 0 0 0 0-.532m.89.826a.266.266 0 1 0 0 .532.266.266 0 0 0 0-.532m-.89.889a.266.266 0 1 0 0 .532.266.266 0 0 0 0-.532m.89.826a.266.266 0 1 0 0 .532.266.266 0 0 0 0-.532m-.89.89a.266.266 0 1 0 0 .532.266.266 0 0 0 0-.532m.89.825a.266.266 0 1 0 0 .532.266.266 0 0 0 0-.532m-.89.89a.266.266 0 1 0 0 .532.266.266 0 0 0 0-.532m.89.825a.266.266 0 1 0 0 .532.266.266 0 0 0 0-.532m-.89.89a.266.266 0 1 0 0 .532.266.266 0 0 0 0-.532m.89.826a.266.266 0 1 0 0 .532.266.266 0 0 0 0-.532m-.89.89a.266.266 0 1 0 0 .531.266.266 0 0 0 0-.532m.89.826a.266.266 0 1 0 0 .532.266.266 0 0 0 0-.532m-.89.89a.266.266 0 1 0 0 .532.266.266 0 0 0 0-.532m-.266 1.981q.002.073.036.132.141-.195.273-.393l-.043-.005a.266.266 0 0 0-.266.266M39.675 4.013l-.215-.204a.265.265 0 0 0 .215.204m.31 1.454a.266.266 0 1 0-.532 0 .266.266 0 0 0 .532 0m.624.559a.266.266 0 1 0 0 .532.266.266 0 0 0 0-.532m0 1.715a.266.266 0 1 0 0 .532.266.266 0 0 0 0-.532m0 1.716a.266.266 0 1 0 0 .532.266.266 0 0 0 0-.532m0 1.715a.266.266 0 1 0 0 .532.266.266 0 0 0 0-.532m0 1.715a.266.266 0 1 0 0 .532.266.266 0 0 0 0-.532m-.895.888a.266.266 0 1 0 0 .532.266.266 0 0 0 0-.532m.895.827a.266.266 0 1 0 0 .532.266.266 0 0 0 0-.532m-.89.89a.266.266 0 1 0 0 .532.266.266 0 0 0 0-.532m.89.826a.266.266 0 1 0 0 .532.266.266 0 0 0 0-.532m-.89.89a.266.266 0 1 0 0 .531.266.266 0 0 0 0-.532m.89.826a.266.266 0 1 0 0 .532.266.266 0 0 0 0-.532m-.89 1.422a.266.266 0 1 0 0-.532.266.266 0 0 0 0 .532m.89.293a.266.266 0 1 0 0 .532.266.266 0 0 0 0-.532m-.89.89a.266.266 0 1 0 0 .532.266.266 0 0 0 0-.532m.89.825a.266.266 0 0 0-.134.495q.17-.198.334-.402a.26.26 0 0 0-.2-.093m-.89.89a.266.266 0 0 0-.107.51q.111-.105.22-.215.067-.067.131-.134a.27.27 0 0 0-.244-.16m-.826-6.036a.266.266 0 1 0 0 .532.266.266 0 0 0 0-.532m-.894.888a.266.266 0 1 0 0 .532.266.266 0 0 0 0-.532m.894.827a.266.266 0 1 0 0 .532.266.266 0 0 0 0-.532m-.889 1.422a.266.266 0 1 0 0-.532.266.266 0 0 0 0 .532m.889.293a.266.266 0 1 0 0 .532.266.266 0 0 0 0-.532m-.889.89a.266.266 0 1 0 0 .532.266.266 0 0 0 0-.532m.889.825a.266.266 0 1 0 0 .532.266.266 0 0 0 0-.532m-1.715-1.715a.266.266 0 1 0 0 .532.266.266 0 0 0 0-.532"/><path d="M40.077 22.893c5.23-5.23 5.23-13.74 0-18.97s-13.74-5.23-18.97 0q-.227.228-.441.466a3.68 3.68 0 0 0-2.365-.85c-.99 0-1.923.385-2.623 1.086S14.59 6.258 14.59 7.25c0 .916.33 1.78.933 2.46L.145 41.916a1.44 1.44 0 0 0 .284 1.654 1.44 1.44 0 0 0 1.654.284l32.209-15.379a3.68 3.68 0 0 0 2.459.933 3.7 3.7 0 0 0 2.624-1.086 3.715 3.715 0 0 0 .236-4.987q.237-.215.466-.443M30.592.692c3.258 0 6.516 1.24 8.996 3.72 4.96 4.96 4.96 13.031 0 17.991q-.223.223-.454.431L21.167 4.867q.208-.232.43-.455a12.68 12.68 0 0 1 8.995-3.72M1.785 43.23a.745.745 0 0 1-.867-.148.745.745 0 0 1-.148-.867l4.127-8.644 1.43 7.49zm5.188-2.477L5.4 32.517l3.04-6.365 2.437 12.737zm4.55-2.172-2.58-13.482 3.077-6.446 3.466 18.036zm4.608-2.2-3.606-18.768-.01.002 3.126-6.546 4.581 23.358zm4.736-2.262-4.649-23.705 5.407 5.406.618 3.216c-.267.415-.41.898-.41 1.403a2.59 2.59 0 0 0 1.086 2.116l1.863 9.695zm2.83-11.182a2.61 2.61 0 0 0 2.582-.656l.903-.903.752.751.193 1.01-2.899 2.9a2.75 2.75 0 0 0-.705 1.197zm1.73 9.005-.43-2.237q.107.137.23.263a2.77 2.77 0 0 0 1.965.812 2.77 2.77 0 0 0 1.965-.812l.233-.233.055.288zm4.664-2.227-.11-.572 2.484-2.483 1.3 1.3zm8.794-1.882c-.57.57-1.328.884-2.134.884a3 3 0 0 1-2.134-.884l-1.908-1.907a.346.346 0 0 0-.49 0l-3.551 3.552a2.09 2.09 0 0 1-2.95 0 2.09 2.09 0 0 1 0-2.95l3.552-3.552a.346.346 0 0 0 0-.49l-1.843-1.843a.345.345 0 0 0-.49 0l-1.148 1.148a1.9 1.9 0 0 1-1.352.56 1.9 1.9 0 0 1-1.352-.56 1.9 1.9 0 0 1-.56-1.352c0-.51.199-.991.56-1.352l1.148-1.148a.346.346 0 0 0 0-.49l-8.066-8.066a3 3 0 0 1-.884-2.134c0-.806.314-1.564.884-2.134a3 3 0 0 1 2.134-.884 3 3 0 0 1 2.135.884l18.45 18.45a3.02 3.02 0 0 1 0 4.268m-16.387-11.14 1 1.001-.678.678z"/><path d="M31.41 6.049a.346.346 0 0 1-.346-.346c0-.815-.663-1.477-1.477-1.477s-1.477.662-1.477 1.477a.346.346 0 0 1-.692 0c0-1.196.973-2.17 2.169-2.17s2.169.974 2.169 2.17a.346.346 0 0 1-.346.346m5.251 3.187a.346.346 0 0 1-.346-.346c0-.814-.662-1.477-1.476-1.477-.815 0-1.477.663-1.477 1.477a.346.346 0 0 1-.692 0c0-1.196.973-2.17 2.169-2.17a2.173 2.173 0 0 1 2.168 2.17.346.346 0 0 1-.346.346"/></g><defs><clipPath id="a"><path fill="#fff" d="M0 0h44v44H0z"/></clipPath></defs></svg>