<svg xmlns="http://www.w3.org/2000/svg" width="44" height="44" fill="none" viewBox="0 0 44 44"><g fill="#8b1e1e" clip-path="url(#a)"><path d="M43.132 18.313a.265.265 0 1 0 .26.306l-.027-.163a.26.26 0 0 0-.233-.143m0 1.705a.265.265 0 1 0 0 .53.265.265 0 0 0 0-.53m0 1.706a.265.265 0 1 0 0 .529.265.265 0 0 0 0-.53m0 1.706a.265.265 0 1 0 0 .53.265.265 0 0 0 0-.53m0 1.705a.265.265 0 1 0 .238.378l.024-.142a.264.264 0 0 0-.262-.236m-1.705-11.937a.264.264 0 1 0 0 .53.264.264 0 0 0 0-.53m0 1.706a.264.264 0 1 0 0 .529.264.264 0 0 0 0-.53m.884.821a.264.264 0 1 0 0 .529.264.264 0 0 0 0-.53m-.884.886a.264.264 0 1 0 0 .529.264.264 0 0 0 0-.53m.884.821a.265.265 0 1 0 0 .53.265.265 0 0 0 0-.53m-.884.885a.264.264 0 1 0 0 .529.264.264 0 0 0 0-.529m.884.821a.265.265 0 1 0 0 .529.265.265 0 0 0 0-.53m-.884.885a.264.264 0 1 0 0 .53.264.264 0 0 0 0-.53m.884.821a.264.264 0 1 0 0 .529.264.264 0 0 0 0-.53m-.884.886a.265.265 0 1 0 0 .529.265.265 0 0 0 0-.53m.884.821a.264.264 0 1 0 0 .53.264.264 0 0 0 0-.53m-.884.885a.264.264 0 1 0 0 .529.264.264 0 0 0 0-.529m.884.821a.264.264 0 1 0 0 .528.264.264 0 0 0 0-.528m-.884.884a.264.264 0 1 0 0 .53.264.264 0 0 0 0-.53m.884.821a.264.264 0 1 0 0 .529.264.264 0 0 0 0-.53m-.884.886a.264.264 0 1 0 0 .528.264.264 0 0 0 0-.528m.884.82a.264.264 0 1 0 0 .529.264.264 0 0 0 0-.53m-.884.886a.264.264 0 1 0 0 .529.264.264 0 0 0 0-.53m0 1.706a.264.264 0 1 0 0 .529.264.264 0 0 0 0-.529M39.721 9.787a.265.265 0 1 0 0 .529.265.265 0 0 0 0-.53m0 1.706a.265.265 0 1 0 0 .529.265.265 0 0 0 0-.53m.885.822a.264.264 0 1 0 0 .528.264.264 0 0 0 0-.528m-.885.884a.264.264 0 1 0 0 .53.264.264 0 0 0 0-.53m.885.821a.264.264 0 1 0 0 .529.264.264 0 0 0 0-.53m-.885.886a.264.264 0 1 0 0 .529.264.264 0 0 0 0-.53m.885.821a.264.264 0 1 0 0 .529.264.264 0 0 0 0-.53m-.885.886a.264.264 0 1 0 0 .529.264.264 0 0 0 0-.53m.885.821a.265.265 0 1 0 0 .53.265.265 0 0 0 0-.53m-.885.885a.264.264 0 1 0 0 .529.264.264 0 0 0 0-.529m.885.821a.265.265 0 1 0 0 .529.265.265 0 0 0 0-.53m-.885.885a.264.264 0 1 0 0 .53.264.264 0 0 0 0-.53m.885.821a.264.264 0 1 0 0 .529.264.264 0 0 0 0-.53m-.885.886a.265.265 0 1 0 0 .529.265.265 0 0 0 0-.53m.885.821a.264.264 0 1 0 0 .53.264.264 0 0 0 0-.53m-.885.885a.264.264 0 1 0 0 .529.264.264 0 0 0 0-.529m.885.821a.264.264 0 1 0 0 .528.264.264 0 0 0 0-.528m-.885.884a.264.264 0 1 0 0 .53.264.264 0 0 0 0-.53m.885.821a.264.264 0 1 0 0 .529.264.264 0 0 0 0-.53m-.885.886a.264.264 0 1 0 0 .528.264.264 0 0 0 0-.528m.885.82a.264.264 0 1 0 0 .529.264.264 0 0 0 0-.53m-.885.886a.264.264 0 1 0 0 .529.264.264 0 0 0 0-.53m.885.821a.265.265 0 1 0 0 .53.265.265 0 0 0 0-.53m-.885.885a.264.264 0 1 0 0 .529.264.264 0 0 0 0-.529m.885.82a.264.264 0 1 0 0 .53.264.264 0 0 0 0-.53m-.885.885a.265.265 0 1 0 0 .53.265.265 0 0 0 0-.53m0 1.705a.265.265 0 1 0 0 .53.265.265 0 0 0 0-.53M38.016 8.61a.265.265 0 1 0 0-.529.265.265 0 0 0 0 .53m.885.291a.264.264 0 1 0 0 .529.264.264 0 0 0 0-.53m-.885 1.415a.264.264 0 1 0 0-.53.264.264 0 0 0 0 .53m.885.291a.264.264 0 1 0 0 .53.264.264 0 0 0 0-.53m-.885 1.413a.264.264 0 1 0 0-.528.264.264 0 0 0 0 .529m-.825-.889a.265.265 0 1 0 0-.529.265.265 0 0 0 0 .53m1.71 1.18a.264.264 0 1 0 0 .528.264.264 0 0 0 0-.528m0 1.705a.264.264 0 1 0 0 .529.264.264 0 0 0 0-.53m0 13.643a.264.264 0 1 0 0 .529.264.264 0 0 0 0-.53m0 1.706a.265.265 0 1 0 0 .53.265.265 0 0 0 0-.53m-.885.885a.264.264 0 1 0 0 .529.264.264 0 0 0 0-.529m.885.82a.264.264 0 1 0 0 .53.264.264 0 0 0 0-.53m-.885.885a.265.265 0 1 0 0 .53.265.265 0 0 0 0-.53m.885.821a.264.264 0 1 0 0 .529.264.264 0 0 0 0-.53m-.885.885a.265.265 0 1 0 0 .53.265.265 0 0 0 0-.53m.885.821a.264.264 0 1 0 0 .53.264.264 0 0 0 0-.53m-.885.885a.264.264 0 1 0 0 .529.264.264 0 0 0 0-.529M36.31 6.905a.265.265 0 1 0 .001-.53.265.265 0 0 0 0 .53m.885.821a.265.265 0 1 0 0-.53.265.265 0 0 0 0 .53m-.886.884a.265.265 0 1 0 0-.529.265.265 0 0 0 0 .53m-.824-.884a.265.265 0 1 0 0-.529.265.265 0 0 0 0 .53m1.71 1.702a.264.264 0 1 0 0-.528.264.264 0 0 0 0 .529m0 21.639a.264.264 0 1 0 0 .53.264.264 0 0 0 0-.53m-.886.885a.265.265 0 1 0 .001.53.265.265 0 0 0 0-.53m.885.821a.264.264 0 1 0 0 .529.264.264 0 0 0 0-.53m-.886.885a.265.265 0 1 0 .001.53.265.265 0 0 0 0-.53m.885.821a.264.264 0 1 0 0 .53.264.264 0 0 0 0-.53m-.886.885a.264.264 0 1 0 0 .529.264.264 0 0 0 0-.529m.886.821a.265.265 0 1 0 0 .529.265.265 0 0 0 0-.53m-.886.885a.264.264 0 1 0 0 .53.264.264 0 0 0 0-.53M34.87 4.935a.265.265 0 1 0-.529 0 .265.265 0 0 0 .53 0m.619 1.085a.265.265 0 1 0 0-.529.265.265 0 0 0 0 .53m0 26.755a.265.265 0 1 0 0 .529.265.265 0 0 0 0-.53m-.884.885a.265.265 0 1 0 0 .53.265.265 0 0 0 0-.53m.884.821a.265.265 0 1 0 0 .53.265.265 0 0 0 0-.53m-.884.885a.264.264 0 1 0 0 .529.264.264 0 0 0 0-.529m.884.821a.265.265 0 1 0 0 .529.265.265 0 0 0 0-.53m-.884.885a.264.264 0 1 0 0 .53.264.264 0 0 0 0-.53m.884.821a.265.265 0 1 0 0 .53.265.265 0 0 0 0-.53m-.884.884a.264.264 0 1 0 0 .53.264.264 0 0 0 0-.53M33.52 4.05a.265.265 0 1 0 .525-.047l-.32-.21a.264.264 0 0 0-.205.258m.265 30.43a.264.264 0 1 0 0 .53.264.264 0 0 0 0-.53m-.885.885a.265.265 0 1 0 0 .53.265.265 0 0 0 0-.53m.885.821a.265.265 0 1 0 0 .529.265.265 0 0 0 0-.53m-.885.885a.265.265 0 1 0 0 .53.265.265 0 0 0 0-.53m.885.821a.265.265 0 1 0 0 .529.265.265 0 0 0 0-.53m-.885.885a.265.265 0 1 0 0 .53.265.265 0 0 0 0-.53m.885.821a.265.265 0 1 0 .092.511l.1-.065a.263.263 0 0 0-.192-.446m-1.705-3.41a.265.265 0 1 0 0 .529.265.265 0 0 0 0-.53m-.885.885a.265.265 0 1 0 0 .53.265.265 0 0 0 0-.53m.885.821a.265.265 0 1 0 0 .529.265.265 0 0 0 0-.53m-.885.885a.265.265 0 1 0 0 .53.265.265 0 0 0 0-.53m.885.821a.265.265 0 1 0 0 .529.265.265 0 0 0 0-.53m-.885.886a.265.265 0 1 0 0 .529.265.265 0 0 0 0-.53m-.82-3.766a.265.265 0 0 0 .221-.408q-.207.162-.418.32a.26.26 0 0 0 .197.088m-.001 1.177a.265.265 0 1 0 0 .529.265.265 0 0 0 0-.53m-.884.885a.264.264 0 1 0 0 .53.264.264 0 0 0 0-.53m.884.821a.265.265 0 1 0 0 .529.265.265 0 0 0 0-.53m-.884.886a.264.264 0 1 0 0 .529.264.264 0 0 0 0-.53m.884.821a.265.265 0 1 0 0 .53.265.265 0 0 0 0-.53m-1.704-3.41a.265.265 0 1 0 0 .529.265.265 0 0 0 0-.53m.813-.819a.264.264 0 1 0 0 .53.264.264 0 0 0 0-.53m-1.699 1.704a.264.264 0 1 0 0 .53.264.264 0 0 0 0-.53m.886.821a.265.265 0 1 0 0 .529.265.265 0 0 0 0-.53m-.886.886a.264.264 0 1 0 0 .529.264.264 0 0 0 0-.53m.886.821a.265.265 0 1 0 0 .53.265.265 0 0 0 0-.53m-.886.885a.264.264 0 1 0 0 .529.264.264 0 0 0 0-.529m-.82-2.59a.265.265 0 1 0 0 .529.265.265 0 0 0 0-.53m-.884.886a.264.264 0 1 0 0 .529.264.264 0 0 0 0-.53m.884.821a.265.265 0 1 0 0 .53.265.265 0 0 0 0-.53m-.884.885a.264.264 0 1 0 0 .529.264.264 0 0 0 0-.529m-.821-2.59a.265.265 0 1 0 0 .53.265.265 0 0 0 0-.53m-.885.885a.264.264 0 1 0 0 .529.264.264 0 0 0 0-.53m.885.821a.265.265 0 1 0 0 .53.265.265 0 0 0 0-.53m-.885.885a.264.264 0 1 0 0 .529.264.264 0 0 0 0-.529m1.149 1.085a.264.264 0 1 0-.467.168q.225-.032.447-.068a.3.3 0 0 0 .02-.1m-2.854-2.79a.264.264 0 1 0 0 .529.264.264 0 0 0 0-.53m.884.821a.265.265 0 1 0 0 .53.265.265 0 0 0 0-.53m-.884.885a.264.264 0 1 0 0 .529.264.264 0 0 0 0-.529m.884.821a.265.265 0 1 0 0 .529.265.265 0 0 0 0-.53m-1.969-1.44a.265.265 0 1 0 .529 0 .265.265 0 0 0-.53 0m-.62.62a.265.265 0 1 0 0 .53.265.265 0 0 0 0-.53m1.15 1.085a.265.265 0 1 0-.53 0 .265.265 0 0 0 .53 0m-1.97-1.97a.265.265 0 1 0 0 .53.265.265 0 0 0 0-.53m.819-.813a.265.265 0 1 0 0 .529.265.265 0 0 0 0-.53m-1.704 1.699a.264.264 0 1 0 0 .529.264.264 0 0 0 0-.529m.885.821a.264.264 0 1 0 0 .529.264.264 0 0 0 0-.53m-1.97-1.44a.265.265 0 1 0 .53 0 .265.265 0 0 0-.53 0m-.62 1.149a.265.265 0 1 0 0-.53.265.265 0 0 0 0 .53m-1.085-1.149a.265.265 0 1 0 .529 0 .265.265 0 0 0-.53 0m-.619.62a.264.264 0 1 0 0 .529.264.264 0 0 0 0-.529m-1.085-.62a.265.265 0 1 0 .529 0 .265.265 0 0 0-.53 0m-2.59-.821a.264.264 0 1 0 .53 0 .264.264 0 0 0-.53 0m1.414.821a.264.264 0 1 0-.431.204l.127.056q.02.004.04.004a.264.264 0 0 0 .264-.264m8.722-21.077c0-2.765-1.706-2.765-1.706-5.53 0-2.136 1.017-2.623 1.48-4.006.252-.751-.322-1.526-1.114-1.526H18.62c.235 0 .404.775.33 1.526-.137 1.383-.934 1.675-.934 3.81 0 2.766 1.4 2.835 1.4 5.6 0 2.767-1.4 2.697-1.4 5.463s1.4 2.836 1.4 5.602c0 2.46-.798 2.858-.886 4.834-.022.475-.144.824-.286.824h1.451c.48 0 .894-.35.965-.824.299-1.976 1.648-2.248 1.648-4.708 0-2.766-1.706-2.766-1.706-5.532s1.706-2.766 1.706-5.532M9.594 34.769c.12-1.631.864-2.154.864-4.44 0-2.766-1.4-2.835-1.4-5.6 0-2.767 1.4-2.697 1.4-5.463s-1.4-2.836-1.4-5.602c0-2.405.877-2.523.976-4.383.03-.553.173-.953.34-.953H9.037c-.562 0-1.049.4-1.149.953-.336 1.86-1.626 2.173-1.626 4.579 0 2.766 1.705 2.766 1.706 5.532s-1.706 2.766-1.706 5.532 1.705 2.765 1.706 5.531c0 2.287-1.166 2.683-1.57 4.314a.98.98 0 0 0 .948 1.218h2.528c-.188 0-.326-.6-.28-1.218m7.566-3.339c0-2.766-1.401-2.836-1.401-5.602 0-2.765 1.4-2.696 1.4-5.462s-1.4-2.835-1.4-5.601c0-2.406.877-2.524.977-4.383.03-.554.173-.954.34-.954h-1.337q-.155 0-.3.04a1.173 1.173 0 0 0-1.173-1.14H11.92c.234 0 .403.775.329 1.526-.137 1.383-.933 1.675-.933 3.81 0 2.766 1.4 2.835 1.4 5.6 0 2.767-1.4 2.697-1.4 5.463s1.4 2.836 1.4 5.601c0 2.46-.799 2.859-.887 4.835-.021.475-.143.824-.285.824h1.45q.044 0 .086-.004a.98.98 0 0 0 .969 1.104h2.528c-.189 0-.326-.6-.28-1.218.119-1.63.863-2.154.863-4.44m11.889-1.852a4.996 4.996 0 0 1-4.99-4.99 4.996 4.996 0 0 1 4.99-4.99 4.996 4.996 0 0 1 4.99 4.99 4.996 4.996 0 0 1-4.99 4.99m0-9.291a4.305 4.305 0 0 0-4.301 4.3 4.306 4.306 0 0 0 4.3 4.301 4.306 4.306 0 0 0 4.301-4.3 4.306 4.306 0 0 0-4.3-4.301"/><path d="M22 44a21.86 21.86 0 0 1-15.556-6.444A21.86 21.86 0 0 1 0 22 21.86 21.86 0 0 1 6.444 6.444 21.86 21.86 0 0 1 22 0a21.86 21.86 0 0 1 15.556 6.444A21.86 21.86 0 0 1 44 22a21.86 21.86 0 0 1-6.444 15.556A21.86 21.86 0 0 1 22 44M22 .69C10.25.69.69 10.25.69 22S10.25 43.31 22 43.31 43.31 33.75 43.31 22 33.75.69 22 .69"/><path d="M39.84 18.6a7.67 7.67 0 0 0-2.374-5.303 7.8 7.8 0 0 0-2.126-1.453c-3.068-4.02-7.905-6.62-13.34-6.62-3.397 0-6.56 1.017-9.204 2.759H9.037c-.732 0-1.358.52-1.488 1.237-.132.726-.421 1.196-.728 1.693-.444.72-.903 1.466-.903 2.947 0 .935.183 1.577.43 2.105A16.7 16.7 0 0 0 5.225 22c0 3.153.875 6.105 2.394 8.628-.033 1.17-.405 1.775-.798 2.412-.287.467-.585.95-.757 1.645a1.322 1.322 0 0 0 1.282 1.647h5.4a1.324 1.324 0 0 0 1.302 1.1h1.379A16.7 16.7 0 0 0 22 38.775c4.79 0 9.116-2.02 12.176-5.252a10.4 10.4 0 0 0 2.19-1.689 10.24 10.24 0 0 0 2.981-7.247c0-.422-.026-.848-.077-1.264a5.05 5.05 0 0 1 .22-2.139c.262-.833.38-1.702.35-2.585M22 5.913c4.809 0 9.13 2.123 12.08 5.478a7.69 7.69 0 0 0-8.046 2.706c-.413.526-.94.95-1.566 1.262a10.3 10.3 0 0 0-2.803 2.048c-.38-.621-.718-1.251-.718-2.449 0-1.285.39-1.916.802-2.584.238-.387.484-.786.66-1.311.154-.46.079-.951-.206-1.347a1.53 1.53 0 0 0-1.235-.634h-5.24a1.525 1.525 0 0 0-1.462-1.1h-.148A16 16 0 0 1 22 5.914M6.793 16.761l.028.046c.413.668.802 1.3.802 2.585s-.39 1.916-.802 2.585c-.317.515-.642 1.045-.802 1.846a16 16 0 0 1 .774-7.062m6.01 18.881H7.347a.636.636 0 0 1-.613-.79c.147-.593.404-1.01.675-1.45.445-.72.904-1.466.904-2.947 0-1.48-.46-2.226-.904-2.947-.412-.668-.8-1.3-.8-2.584 0-1.286.388-1.917.8-2.585.445-.721.904-1.466.904-2.947 0-1.48-.46-2.226-.904-2.947-.412-.669-.8-1.3-.8-2.585s.388-1.917.8-2.585c.327-.53.665-1.078.82-1.932a.82.82 0 0 1 .81-.67h5.228a.82.82 0 0 1 .79.573 1.5 1.5 0 0 0-.805 1.074c-.132.726-.421 1.196-.728 1.693-.444.72-.904 1.466-.904 2.947 0 1.48.46 2.226.904 2.947.412.669.802 1.3.802 2.585s-.39 1.917-.802 2.585c-.444.72-.904 1.466-.904 2.947 0 1.48.46 2.226.904 2.947.412.668.802 1.3.802 2.585s-.39 1.916-.802 2.584c-.267.434-.543.882-.72 1.502m.748.858a.64.64 0 0 1-.116-.548c.146-.592.403-1.009.675-1.45.445-.72.904-1.466.904-2.946s-.46-2.226-.904-2.947c-.412-.669-.801-1.3-.801-2.585s.389-1.917.801-2.585c.445-.72.904-1.466.904-2.947 0-1.48-.46-2.226-.904-2.947-.412-.668-.801-1.3-.801-2.585s.389-1.917.801-2.585c.327-.53.665-1.078.82-1.932a.82.82 0 0 1 .809-.67h5.229c.27 0 .517.126.675.346a.8.8 0 0 1 .112.726c-.15.45-.366.798-.593 1.168-.445.72-.904 1.466-.904 2.946s.46 2.226.904 2.947c.412.669.8 1.3.8 2.585s-.388 1.917-.8 2.585c-.445.72-.904 1.466-.904 2.947 0 1.48.46 2.226.904 2.947.412.669.8 1.3.8 2.585s-.388 1.917-.8 2.585c-.345.559-.701 1.137-.842 2.071a.63.63 0 0 1-.625.531h-5.647a.63.63 0 0 1-.497-.242m8.45 1.586c-1.577 0-3.1-.23-4.54-.654h2.234c.649 0 1.21-.48 1.306-1.118.12-.795.425-1.289.748-1.812.329-.534.665-1.082.818-1.93a10.2 10.2 0 0 0 6.588 2.313c1.07-.01 2.114-.185 3.104-.508A16 16 0 0 1 22 38.086m16.832-17.11a5.7 5.7 0 0 0-.247 2.43q.072.587.072 1.18c0 5.246-4.266 9.557-9.51 9.61a9.5 9.5 0 0 1-6.499-2.462q.003-.088.004-.18c0-1.48-.46-2.225-.904-2.946-.412-.669-.802-1.3-.802-2.585s.39-1.917.802-2.585c.444-.72.904-1.466.904-2.947 0-1.165-.285-1.874-.623-2.475a9.7 9.7 0 0 1 2.745-2.038 5.2 5.2 0 0 0 1.801-1.454 7 7 0 0 1 5.5-2.699h.04c3.758 0 6.91 3.041 7.036 6.797a7 7 0 0 1-.32 2.355"/></g><defs><clipPath id="a"><path fill="#fff" d="M0 0h44v44H0z"/></clipPath></defs></svg>