<svg xmlns="http://www.w3.org/2000/svg" width="44" height="44" fill="none" viewBox="0 0 44 44"><path fill="#8b1e1e" d="M38.997 27.858a.265.265 0 1 0 0 .53.265.265 0 0 0 0-.53m.886 1.352a.265.265 0 1 0 0-.53.265.265 0 0 0 0 .53m-.886.356a.265.265 0 1 0 0 .53.265.265 0 0 0 0-.53m.886.822a.265.265 0 1 0 .176.462l.074-.282a.26.26 0 0 0-.25-.18m-.886.887a.265.265 0 1 0 0 .53.265.265 0 0 0 0-.53m0 1.708a.265.265 0 1 0 0 .53.265.265 0 0 0 0-.53m-1.709-5.125a.265.265 0 1 0 0 .53.265.265 0 0 0 0-.53m.887 1.352a.265.265 0 1 0 0-.53.265.265 0 0 0 0 .53m-.887.356a.265.265 0 1 0 0 .53.265.265 0 0 0 0-.53m.887 1.353a.265.265 0 1 0 0-.53.265.265 0 0 0 0 .53m-.887.356a.265.265 0 1 0 0 .53.265.265 0 0 0 0-.53m.887 1.352a.265.265 0 1 0 0-.53.265.265 0 0 0 0 .53m-.887.356a.265.265 0 1 0 0 .53.265.265 0 0 0 0-.53m.887 1.353a.265.265 0 1 0 0-.53.265.265 0 0 0 0 .53m-.887.356a.265.265 0 1 0 0 .53.265.265 0 0 0 0-.53m.887 1.352a.265.265 0 1 0 0-.53.265.265 0 0 0 0 .53m-.887.356a.265.265 0 1 0 0 .53.265.265 0 0 0 0-.53m0 1.71a.265.265 0 1 0 0 .53.265.265 0 0 0 0-.53m0 1.708a.265.265 0 1 0 .174.463l.08-.273a.264.264 0 0 0-.254-.19m-1.708-11.96a.265.265 0 1 0 0 .53.265.265 0 0 0 0-.53m.886 1.352a.265.265 0 1 0 0-.53.265.265 0 0 0 0 .53m-.886.356a.265.265 0 1 0 0 .53.265.265 0 0 0 0-.53m.886 1.353a.265.265 0 1 0 0-.53.265.265 0 0 0 0 .53m-.886.356a.265.265 0 1 0 0 .53.265.265 0 0 0 0-.53m.886 1.352a.265.265 0 1 0 0-.53.265.265 0 0 0 0 .53m-.886.356a.265.265 0 1 0 0 .53.265.265 0 0 0 0-.53m.886 1.353a.265.265 0 1 0 0-.53.265.265 0 0 0 0 .53m-.886.356a.265.265 0 1 0 0 .53.265.265 0 0 0 0-.53m.886 1.352a.265.265 0 1 0 0-.53.265.265 0 0 0 0 .53m-.886.356a.265.265 0 1 0 0 .53.265.265 0 0 0 0-.53m.886 1.353a.265.265 0 1 0 0-.53.265.265 0 0 0 0 .53m-.886.357a.265.265 0 1 0 0 .53.265.265 0 0 0 0-.53m.886 1.351a.265.265 0 1 0 0-.53.265.265 0 0 0 0 .53m-.886.357a.265.265 0 1 0 0 .53.265.265 0 0 0 0-.53m.886 1.352a.265.265 0 1 0 0-.53.265.265 0 0 0 0 .53m-.886.356a.265.265 0 1 0 0 .53.265.265 0 0 0 0-.53m-1.71-13.138a.265.265 0 1 0 0-.53.265.265 0 0 0 0 .53m.887.822a.265.265 0 1 0 0-.53.265.265 0 0 0 0 .53m-.887.886a.265.265 0 1 0 0-.53.265.265 0 0 0 0 .53m.887.823a.265.265 0 1 0 0-.53.265.265 0 0 0 0 .53m-.887.886a.265.265 0 1 0 0-.53.265.265 0 0 0 0 .53m.887.822a.265.265 0 1 0 0-.53.265.265 0 0 0 0 .53m0 1.709a.265.265 0 1 0 0-.53.265.265 0 0 0 0 .53m0 1.708a.265.265 0 1 0 0-.53.265.265 0 0 0 0 .53m-.883.353a.265.265 0 1 0 0 .53.265.265 0 0 0 0-.53m.883 1.356a.265.265 0 1 0 0-.53.265.265 0 0 0 0 .53m-.887.357a.265.265 0 1 0 0 .53.265.265 0 0 0 0-.53m.887 1.351a.265.265 0 1 0 0-.53.265.265 0 0 0 0 .53m-.887.357a.265.265 0 1 0 0 .53.265.265 0 0 0 0-.53m.887 1.352a.265.265 0 1 0 0-.53.265.265 0 0 0 0 .53m-.887.356a.265.265 0 1 0 0 .53.265.265 0 0 0 0-.53m.887 1.352a.265.265 0 1 0 0-.53.265.265 0 0 0 0 .53m-2.595-15.02a.265.265 0 1 0 0 .53.265.265 0 0 0 0-.53m.887.822a.265.265 0 1 0 0 .53.265.265 0 0 0 0-.53m-.887 1.416a.265.265 0 1 0 0-.53.265.265 0 0 0 0 .53m.887.292a.265.265 0 1 0 0 .53.265.265 0 0 0 0-.53m0 10.252a.265.265 0 1 0 0 .53.265.265 0 0 0 0-.53m0 1.708a.265.265 0 1 0 0 .53.265.265 0 0 0 0-.53m-2.595-14.49a.265.265 0 1 0 0 .53.265.265 0 0 0 0-.53m.886 1.352a.265.265 0 1 0 0-.53.265.265 0 0 0 0 .53m-.886.356a.265.265 0 1 0 0 .53.265.265 0 0 0 0-.53m.886 1.353a.265.265 0 1 0 0-.53.265.265 0 0 0 0 .53m-2.595-3.061a.265.265 0 1 0 0 .53.265.265 0 0 0 0-.53m.887.822a.265.265 0 1 0 0 .53.265.265 0 0 0 0-.53m-.887.886a.265.265 0 1 0 0 .53.265.265 0 0 0 0-.53m.887.822a.265.265 0 1 0 0 .53.265.265 0 0 0 0-.53m-2.595-2.53a.265.265 0 1 0 0 .53.265.265 0 0 0 0-.53m.886 1.352a.265.265 0 1 0 0-.53.265.265 0 0 0 0 .53m-.886.356a.265.265 0 1 0 0 .53.265.265 0 0 0 0-.53m.886 1.353a.265.265 0 1 0 0-.53.265.265 0 0 0 0 .53m-2.595-3.061a.265.265 0 1 0 0 .53.265.265 0 0 0 0-.53m.887 1.352a.265.265 0 1 0 0-.53.265.265 0 0 0 0 .53m-.887.356a.265.265 0 1 0 0 .53.265.265 0 0 0 0-.53m.887 1.353a.265.265 0 1 0 0-.53.265.265 0 0 0 0 .53m-2.595-3.061a.265.265 0 1 0 0 .53.265.265 0 0 0 0-.53m.886 1.352a.265.265 0 1 0 0-.53.265.265 0 0 0 0 .53m-.886.356a.265.265 0 1 0 0 .53.265.265 0 0 0 0-.53m.886 1.353a.265.265 0 1 0 0-.53.265.265 0 0 0 0 .53m-2.595-3.061a.265.265 0 1 0 0 .53.265.265 0 0 0 0-.53m.887.822a.265.265 0 1 0 0 .53.265.265 0 0 0 0-.53m-.887.886a.265.265 0 1 0 0 .53.265.265 0 0 0 0-.53m.887.822a.265.265 0 1 0 0 .53.265.265 0 0 0 0-.53m-2.595-2.53a.265.265 0 1 0 0 .53.265.265 0 0 0 0-.53m.887.822a.265.265 0 1 0 0 .53.265.265 0 0 0 0-.53m-.887.886a.265.265 0 1 0 0 .53.265.265 0 0 0 0-.53m.887.822a.265.265 0 1 0 0 .53.265.265 0 0 0 0-.53m-2.596-2.53a.265.265 0 1 0 0 .53.265.265 0 0 0 0-.53m.886 1.352a.265.265 0 1 0 0-.53.265.265 0 0 0 0 .53m-.886.356a.265.265 0 1 0 0 .53.265.265 0 0 0 0-.53m.886 1.353a.265.265 0 1 0 0-.53.265.265 0 0 0 0 .53m-2.594-3.061a.265.265 0 1 0 0 .53.265.265 0 0 0 0-.53m.886 1.352a.265.265 0 1 0 0-.53.265.265 0 0 0 0 .53m-.886.356a.265.265 0 1 0 0 .53.265.265 0 0 0 0-.53m.886 1.353a.265.265 0 1 0 0-.53.265.265 0 0 0 0 .53m-2.595-3.061a.265.265 0 1 0 0 .53.265.265 0 0 0 0-.53m.887.822a.265.265 0 1 0 0 .53.265.265 0 0 0 0-.53m-.887.886a.265.265 0 1 0 0 .53.265.265 0 0 0 0-.53m.887.822a.265.265 0 1 0 0 .53.265.265 0 0 0 0-.53m-2.595-2.53a.265.265 0 1 0 0 .53.265.265 0 0 0 0-.53m.886.822a.265.265 0 1 0 0 .53.265.265 0 0 0 0-.53m-.886.886a.265.265 0 1 0 0 .53.265.265 0 0 0 0-.53m.886.822a.265.265 0 1 0 0 .53.265.265 0 0 0 0-.53m-2.595-2.53a.265.265 0 1 0 0 .53.265.265 0 0 0 0-.53m.887 1.352a.265.265 0 1 0 0-.53.265.265 0 0 0 0 .53m-.887.356a.265.265 0 1 0 0 .53.265.265 0 0 0 0-.53m.887 1.353a.265.265 0 1 0 0-.53.265.265 0 0 0 0 .53m-2.595-3.061a.265.265 0 1 0 0 .53.265.265 0 0 0 0-.53m.886 1.352a.265.265 0 1 0 0-.53.265.265 0 0 0 0 .53m-.886.356a.265.265 0 1 0 0 .53.265.265 0 0 0 0-.53m.886 1.353a.265.265 0 1 0 0-.53.265.265 0 0 0 0 .53m-2.595-3.061a.265.265 0 1 0 0 .53.265.265 0 0 0 0-.53m.887 1.352a.265.265 0 1 0 0-.53.265.265 0 0 0 0 .53m-.887.356a.265.265 0 1 0 0 .53.265.265 0 0 0 0-.53m.887 1.353a.265.265 0 1 0 0-.53.265.265 0 0 0 0 .53m-2.595-3.061a.265.265 0 1 0 0 .53.265.265 0 0 0 0-.53m.885.822a.265.265 0 1 0 .001.53.265.265 0 0 0 0-.53m-.886.886a.265.265 0 1 0 0 .53.265.265 0 0 0 0-.53m.885.822a.265.265 0 1 0 .001.53.265.265 0 0 0 0-.53m-2.595-2.53a.265.265 0 1 0 0 .53.265.265 0 0 0 0-.53m.886.822a.265.265 0 1 0 0 .53.265.265 0 0 0 0-.53m-.886.886a.265.265 0 1 0 0 .53.265.265 0 0 0 0-.53m.886.822a.265.265 0 1 0 0 .53.265.265 0 0 0 0-.53M4.004 29.21a.265.265 0 1 0 0-.53.265.265 0 0 0 0 .53"/><path fill="#8b1e1e" d="M40.608 20.712h-.643l.002-.064a2.294 2.294 0 0 0-3.32-2.048 10 10 0 0 0-.663-.708q.017-.15.017-.301a2.535 2.535 0 0 0-3.271-2.422 2.54 2.54 0 0 0-1.335-2l5.158-9.61a2.4 2.4 0 0 0 .178-1.86 2.4 2.4 0 0 0-1.203-1.43A2.4 2.4 0 0 0 33.66.125a2.4 2.4 0 0 0-1.408 1.236L24.977 16.35l-.116.061a12.2 12.2 0 0 0-2.536-2.184q.075-.314.076-.64a2.72 2.72 0 0 0-2.718-2.717 2.73 2.73 0 0 0-2.433 1.505 12.3 12.3 0 0 0-3.157.009 2.716 2.716 0 0 0-4.6.107 2.276 2.276 0 1 0-2.687 3.643q-.361.384-.688.799a2.276 2.276 0 0 0-2.79 2.214c0 .584.229 1.145.626 1.564h-.562a2.2 2.2 0 0 0-2.198 2.198v2.707a2.2 2.2 0 0 0 1.609 2.117c.47 1.759.944 3.518 1.408 5.24.771 2.857 1.568 5.812 2.333 8.72A3.09 3.09 0 0 0 9.532 44h24.892a3.11 3.11 0 0 0 2.965-2.223c1.245-4.246 2.482-8.77 3.842-14.053a2.2 2.2 0 0 0 1.575-2.107V22.91a2.2 2.2 0 0 0-2.198-2.198m-35.94-.288a1.583 1.583 0 0 1 1.463-2.766c.142.05.3.003.392-.117.34-.449.716-.877 1.119-1.273a.346.346 0 0 0-.14-.577 1.57 1.57 0 0 1-1.11-1.51 1.582 1.582 0 0 1 2.9-.87.347.347 0 0 0 .617-.079 2.025 2.025 0 0 1 3.701-.308c.07.129.213.2.357.178a11.7 11.7 0 0 1 3.444-.005.346.346 0 0 0 .375-.22 2.04 2.04 0 0 1 1.897-1.315 2.028 2.028 0 0 1 1.91 2.703.346.346 0 0 0 .144.41 11.6 11.6 0 0 1 2.783 2.402c.109.13.295.16.44.075a8.7 8.7 0 0 1 3.133-1.116.346.346 0 0 0 .291-.387 1.843 1.843 0 0 1 1.824-2.085 1.843 1.843 0 0 1 1.823 2.088.346.346 0 0 0 .517.346 1.839 1.839 0 0 1 2.726 1.953.35.35 0 0 0 .104.321c.331.307.64.64.918.992a.346.346 0 0 0 .469.07 1.601 1.601 0 0 1 2.51 1.315l-.004.063H22.606c-.926-3.306-3.965-5.739-7.562-5.739s-6.637 2.433-7.562 5.74H4.809a.35.35 0 0 0-.14-.29m15.19.288a5.27 5.27 0 0 0-4.814-3.145 5.27 5.27 0 0 0-4.815 3.145H8.206c.904-2.92 3.626-5.047 6.839-5.047 3.212 0 5.934 2.128 6.839 5.047zm-.768 0h-8.093a4.57 4.57 0 0 1 4.047-2.453 4.57 4.57 0 0 1 4.046 2.453m17.635 20.87a2.41 2.41 0 0 1-2.301 1.726H9.532a2.4 2.4 0 0 1-2.318-1.79c-.766-2.91-1.564-5.866-2.334-8.725-.442-1.636-.892-3.306-1.34-4.978h36.953a431 431 0 0 1-3.768 13.767m5.389-15.965c0 .83-.676 1.506-1.506 1.506H3.392c-.83 0-1.506-.676-1.506-1.506V22.91c0-.83.676-1.506 1.506-1.506h37.216c.83 0 1.506.676 1.506 1.506z"/></svg>