<svg xmlns="http://www.w3.org/2000/svg" width="44" height="44" fill="none" viewBox="0 0 44 44"><g fill="#8b1e1e" clip-path="url(#a)"><path d="M10.463 6.934a.265.265 0 1 0 .53 0 .265.265 0 0 0-.53 0m1.152.557a.265.265 0 0 0-.26.214q.231-.062.468-.11a.26.26 0 0 0-.209-.104M9.02 4.96a.265.265 0 1 0 0 .53.265.265 0 0 0 0-.53m.62 1.087a.265.265 0 1 0 .531 0 .265.265 0 0 0-.53 0m-.357.887a.265.265 0 1 0-.53 0 .265.265 0 0 0 .53 0m.622 1.087a.265.265 0 1 0 0-.53.265.265 0 0 0 0 .53M8.197 4.604a.26.26 0 0 0 .15-.046l-.311-.01c.045.034.1.056.161.056m-1.151.621a.265.265 0 1 0 .53 0 .265.265 0 0 0-.53 0m1.151 1.087a.265.265 0 1 0 0-.53.265.265 0 0 0 0 .53M6.693 4.505l-.42-.014a.264.264 0 0 0 .42.014M43.5 39.357a.264.264 0 1 0-.42.253.68.68 0 0 0 .42-.253m-1.969-1.401a.265.265 0 1 0 0-.53.265.265 0 0 0 0 .53m.887.292a.265.265 0 1 0 0 .53.265.265 0 0 0 0-.53m-.621 1.152a.265.265 0 1 0-.41.222h.289a.27.27 0 0 0 .12-.222m-1.973-3.152a.265.265 0 1 0 0-.53.265.265 0 0 0 0 .53m.887.822a.265.265 0 1 0 0-.53.265.265 0 0 0 0 .53m-.887.886a.265.265 0 1 0 0-.53.265.265 0 0 0 0 .53m.887.823a.265.265 0 1 0 0-.53.265.265 0 0 0 0 .53m-.622.621a.265.265 0 0 0-.423-.212c.087.146.174.292.269.434h.033a.26.26 0 0 0 .12-.222m-1.973-5.391a.265.265 0 1 0 0 .53.265.265 0 0 0 0-.53M39 35.361a.265.265 0 1 0 0-.53.265.265 0 0 0 0 .53m-.621.621a.265.265 0 1 0-.53 0 .265.265 0 0 0 .53 0M39 37.07a.265.265 0 1 0 0-.53.265.265 0 0 0 0 .53m.266 1.443c0-.12-.08-.219-.189-.252q.099.128.187.264zm-1.974-4.861a.265.265 0 1 0 0-.53.265.265 0 0 0 0 .53m-.622.622c0-.1-.056-.187-.138-.232q-.122.236-.262.458.06.038.135.039a.265.265 0 0 0 .265-.265m.622.556a.265.265 0 1 0 0 .531.265.265 0 0 0 0-.53m1.855 4.304a.265.265 0 0 0-.152.482.68.68 0 0 0 .413-.177q.004-.02.004-.04a.265.265 0 0 0-.265-.265m-1.709-1.179a.265.265 0 1 0 0-.53.265.265 0 0 0 0 .53m1.152.557a.265.265 0 1 0-.53 0 .265.265 0 0 0 .53 0m-.887.887a.265.265 0 1 0-.41.222h.29a.26.26 0 0 0 .12-.222m-1.973-3.152a.265.265 0 1 0 0-.53.265.265 0 0 0 0 .53m.886.822a.265.265 0 1 0 0-.53.265.265 0 0 0 0 .53m-.886.886a.265.265 0 1 0 0-.53.265.265 0 0 0 0 .53m.886.823a.265.265 0 1 0 0-.53.265.265 0 0 0 0 .53m-.621.621a.265.265 0 1 0-.41.222h.29a.26.26 0 0 0 .12-.222m-1.975-4.861a.265.265 0 1 0 0-.53.265.265 0 0 0 0 .53m.887.821a.265.265 0 1 0 0-.529.265.265 0 0 0 0 .53m-.887.887a.265.265 0 1 0 0-.53.265.265 0 0 0 0 .53m.887.822a.265.265 0 1 0 0-.53.265.265 0 0 0 0 .53m-2.595-4.24a.265.265 0 1 0 0-.53.265.265 0 0 0 0 .53m.887.822a.265.265 0 1 0 0-.53.265.265 0 0 0 0 .53m-.887.887a.265.265 0 1 0 0-.53.265.265 0 0 0 0 .53m.887.821a.265.265 0 1 0 0-.53.265.265 0 0 0 0 .53m-2.596-4.239a.265.265 0 1 0 0-.53.265.265 0 0 0 0 .53m.887.823a.265.265 0 1 0 0-.53.265.265 0 0 0 0 .53m-.887.886a.265.265 0 1 0 0-.53.265.265 0 0 0 0 .53m.887.822a.265.265 0 1 0 0-.53.265.265 0 0 0 0 .53m-2.595-4.239a.265.265 0 1 0 0-.53.265.265 0 0 0 0 .53m.886.822a.265.265 0 1 0 0-.53.265.265 0 0 0 0 .53m-.886.886a.265.265 0 1 0 0-.53.265.265 0 0 0 0 .53m.886.823a.265.265 0 1 0 0-.53.265.265 0 0 0 0 .53m-2.568-4.24a.265.265 0 1 0-.015-.53.265.265 0 0 0 .015.53m.859.822a.265.265 0 1 0 0-.53.265.265 0 0 0 0 .53m-.859.887a.265.265 0 1 0-.014-.53.265.265 0 0 0 .014.53m.859.822a.265.265 0 1 0 0-.53.265.265 0 0 0 0 .53m-2.595-4.24a.265.265 0 1 0 0-.53.265.265 0 0 0 0 .53m.887.822a.265.265 0 1 0 0-.53.265.265 0 0 0 0 .53m-.887.887a.265.265 0 1 0 0-.53.265.265 0 0 0 0 .53m.887.822a.265.265 0 1 0 0-.53.265.265 0 0 0 0 .53m-2.596-4.24a.265.265 0 1 0 0-.53.265.265 0 0 0 0 .53m.887.822a.265.265 0 1 0 0-.53.265.265 0 0 0 0 .53m-.887.887a.265.265 0 1 0 0-.53.265.265 0 0 0 0 .53m.887.822a.265.265 0 1 0 0-.53.265.265 0 0 0 0 .53m-2.589-4.227a.265.265 0 1 0-.012-.53.265.265 0 0 0 .012.53m.88.81a.265.265 0 1 0 0-.53.265.265 0 0 0 0 .53m-.886.886a.265.265 0 1 0 0-.53.265.265 0 0 0 0 .53m.886.822a.265.265 0 1 0 0-.53.265.265 0 0 0 0 .53m-2.596-4.239a.265.265 0 1 0 0-.53.265.265 0 0 0 0 .53m.887.822a.265.265 0 1 0 0-.53.265.265 0 0 0 0 .53m-.887.887a.265.265 0 1 0 0-.53.265.265 0 0 0 0 .53m.887.822a.265.265 0 1 0 0-.53.265.265 0 0 0 0 .53m-2.595-4.24a.265.265 0 1 0 0-.53.265.265 0 0 0 0 .53m.887.822a.265.265 0 1 0 0-.53.265.265 0 0 0 0 .53m-.887.887a.265.265 0 1 0 0-.53.265.265 0 0 0 0 .53m.887.822a.265.265 0 1 0 0-.53.265.265 0 0 0 0 .53m-2.596-4.24a.265.265 0 1 0 0-.53.265.265 0 0 0 0 .53m.887.823a.265.265 0 1 0 0-.53.265.265 0 0 0 0 .53m-.875.886a.265.265 0 1 0-.01-.53.265.265 0 0 0 .01.53m.875.822a.265.265 0 1 0 0-.53.265.265 0 0 0 0 .53m-2.596-4.239a.265.265 0 1 0 0-.53.265.265 0 0 0 0 .53m.887.822a.265.265 0 1 0 0-.53.265.265 0 0 0 0 .53m-.887.886a.265.265 0 1 0 0-.53.265.265 0 0 0 0 .53m.887.823a.265.265 0 1 0 0-.53.265.265 0 0 0 0 .53m-2.595-4.24a.265.265 0 1 0 0-.53.265.265 0 0 0 0 .53m.886.822a.265.265 0 1 0 0-.53.265.265 0 0 0 0 .53m-.886.887a.265.265 0 1 0 0-.53.265.265 0 0 0 0 .53m.886.822a.265.265 0 1 0 0-.53.265.265 0 0 0 0 .53m-2.593-4.235a.265.265 0 1 0-.009-.53.265.265 0 0 0 .009.53m.885.817a.265.265 0 1 0 0-.53.265.265 0 0 0 0 .53m-.887.887a.265.265 0 1 0 0-.53.265.265 0 0 0 0 .53m.887.822a.265.265 0 1 0 0-.53.265.265 0 0 0 0 .53m-2.596-4.24a.265.265 0 1 0 0-.53.265.265 0 0 0 0 .53m.887.823a.265.265 0 1 0 0-.53.265.265 0 0 0 0 .53m-.887.886a.265.265 0 1 0 0-.53.265.265 0 0 0 0 .53m.887.822a.265.265 0 1 0 0-.53.265.265 0 0 0 0 .53M8.39 8.908a.265.265 0 1 0 0-.53.265.265 0 0 0 0 .53m.886.822a.265.265 0 1 0 0-.53.265.265 0 0 0 0 .53m-.886.886a.265.265 0 1 0 0-.53.265.265 0 0 0 0 .53m.886.823a.265.265 0 1 0 0-.53.265.265 0 0 0 0 .53M6.68 7.199a.265.265 0 1 0 0-.53.265.265 0 0 0 0 .53m.887.822a.265.265 0 1 0 0-.53.265.265 0 0 0 0 .53m-.887.887a.265.265 0 1 0 0-.53.265.265 0 0 0 0 .53m.887.822a.265.265 0 1 0 0-.53.265.265 0 0 0 0 .53M4.972 5.49a.265.265 0 1 0 0-.53.265.265 0 0 0 0 .53m.887.292a.265.265 0 1 0 0 .53.265.265 0 0 0 0-.53m-.887.887a.265.265 0 1 0 0 .53.265.265 0 0 0 0-.53m.887.822a.265.265 0 1 0 0 .53.265.265 0 0 0 0-.53M4.15 4.604c.127 0 .234-.09.26-.21h-.52c.026.12.132.21.26.21m-1.152.621a.265.265 0 1 0 .53 0 .265.265 0 0 0-.53 0m1.152.557a.265.265 0 1 0 0 .53.265.265 0 0 0 0-.53M2.7 4.393h-.518a.265.265 0 0 0 .518 0"/><path d="M37.4 31.881q.025-.32.026-.643c0-4.327-3.334-7.89-7.568-8.256L25.642 7.846a1.937 1.937 0 0 0-2.383-1.344l-6.007 1.674a8.24 8.24 0 0 0-4.441-.916l-2.9-2.904a1.05 1.05 0 0 0-.642-.306v.002l-.04-.004H1.212a1.03 1.03 0 0 0-.572.067 1.02 1.02 0 0 0-.64.958L.023 38.93c0 .57.466 1.035 1.037 1.035h41.892c.43 0 .8-.247.966-.645a1.03 1.03 0 0 0-.226-1.14zm-.664-.643A7.6 7.6 0 0 1 36 34.502l-1.388-1.39a5.792 5.792 0 0 0-7.34-7.35l-1.39-1.391a7.6 7.6 0 0 1 3.256-.731c4.19 0 7.598 3.409 7.598 7.598m-2.676 1.32-6.237-6.244a5.102 5.102 0 0 1 6.236 6.244M23.444 7.167a1.246 1.246 0 0 1 1.534.866l4.156 14.918a8.3 8.3 0 0 0-3.766.905l-4.56-4.565a8.286 8.286 0 0 0-2.74-10.626zm-2.422 8.359a7.6 7.6 0 0 1-.729 3.25l-1.389-1.392a5.792 5.792 0 0 0-7.33-7.34l-1.39-1.392a7.6 7.6 0 0 1 3.24-.725c4.19 0 7.598 3.409 7.598 7.599m-2.672 1.303-6.224-6.232a5.098 5.098 0 0 1 6.224 6.232M8.672 4.75l.543-.011a.36.36 0 0 1 .207.104l2.524 2.527c-.792.144-1.561.4-2.278.765L6.284 4.746zM1.06 39.277a.347.347 0 0 1-.347-.347L.69 5.072c0-.215.163-.3.214-.32a.4.4 0 0 1 .127-.027.3.3 0 0 0 .085.012h.015c.05.014.1.04.15.09l33.815 33.858a.34.34 0 0 1 .075.378.34.34 0 0 1-.32.214zm34.766 0a1.02 1.02 0 0 0-.242-1.08L2.169 4.74l3.058.005c.057.012.12.04.18.1l33.78 33.825a.35.35 0 0 1 .077.388.35.35 0 0 1-.329.22zm7.455-.22a.35.35 0 0 1-.33.22h-3.033a1.03 1.03 0 0 0-.243-1.096l-3.16-3.164a8.3 8.3 0 0 0 .772-2.272l5.916 5.924a.35.35 0 0 1 .078.388"/><path d="M5.866 24.999a2.394 2.394 0 0 1-2.392-2.391 2.394 2.394 0 0 1 2.392-2.392 2.394 2.394 0 0 1 2.39 2.392 2.394 2.394 0 0 1-2.39 2.39m0-4.093c-.938 0-1.702.763-1.702 1.702 0 .938.763 1.701 1.702 1.701.938 0 1.701-.763 1.701-1.701s-.763-1.702-1.701-1.702m6.241 15.076a1.607 1.607 0 0 1 0-3.213c.886 0 1.607.72 1.607 1.606s-.72 1.607-1.607 1.607m0-2.524a.918.918 0 0 0 0 1.834.918.918 0 0 0 0-1.834m6.856-4.028a.682.682 0 1 1-1.365 0 .682.682 0 0 1 1.365 0M6.226 17.972a.682.682 0 1 0-.167-1.355.682.682 0 0 0 .167 1.355M24.542 33.76a.682.682 0 1 0-.526-1.259.682.682 0 0 0 .526 1.26"/></g><defs><clipPath id="a"><path fill="#fff" d="M0 0h44v44H0z"/></clipPath></defs></svg>