<svg xmlns="http://www.w3.org/2000/svg" width="44" height="44" fill="none" viewBox="0 0 44 44"><g fill="#8b1e1e" clip-path="url(#a)"><path d="M42.86 9.8a.268.268 0 1 0 .267.268v-.005l-.043-.14a.27.27 0 0 0-.225-.123m.001 1.727a.268.268 0 1 0 0 .536.268.268 0 0 0 0-.536m.627 1.099c0 .1.055.185.136.232q-.015-.22-.038-.437a.27.27 0 0 0-.098.205m-.627.628a.268.268 0 1 0 0 .536.268.268 0 0 0 0-.536m.627 1.099c0 .101.057.189.14.234q.015-.24.023-.48a.27.27 0 0 0-.163.246m-.627.628a.268.268 0 1 0 0 .536.268.268 0 0 0 0-.536m0 1.727a.268.268 0 1 0 0 .536.268.268 0 0 0 0-.536m-.269 1.995q.001.07.034.128.081-.19.157-.383a.27.27 0 0 0-.19.255m-1.46-12.358a.268.268 0 1 0 0 .536.268.268 0 0 0 0-.536m.628 1.1a.268.268 0 0 0 .412.225 14 14 0 0 0-.254-.47.27.27 0 0 0-.158.245m-.628.628a.268.268 0 1 0 0 .535.268.268 0 0 0 0-.535m.896.831a.268.268 0 1 0 0 .536.268.268 0 0 0 0-.536m-.896.896a.268.268 0 1 0 0 .536.268.268 0 0 0 0-.536m.896.83a.268.268 0 1 0 0 .537.268.268 0 0 0 0-.536m-.896.896a.268.268 0 1 0 0 .536.268.268 0 0 0 0-.536m.896.831a.268.268 0 1 0 0 .536.268.268 0 0 0 0-.536m-.896.896a.268.268 0 1 0 0 .536.268.268 0 0 0 0-.536m.896.831a.268.268 0 1 0 0 .536.268.268 0 0 0 0-.536m-.896.896a.268.268 0 1 0 0 .536.268.268 0 0 0 0-.536m.896.831a.268.268 0 1 0 0 .536.268.268 0 0 0 0-.536m-.896.896a.268.268 0 1 0 0 .536.268.268 0 0 0 0-.536m.896.832a.268.268 0 1 0 0 .535.268.268 0 0 0 0-.536m-.896.896a.268.268 0 1 0 0 .536.268.268 0 0 0 0-.536m.896.831a.268.268 0 1 0 .162.48q.053-.101.105-.205l.001-.007a.27.27 0 0 0-.268-.268m-.896.896a.268.268 0 1 0 0 .536.268.268 0 0 0 0-.536M39.405 4.618a.268.268 0 1 0 0 .536.268.268 0 0 0 0-.536m.896.832a.268.268 0 1 0 0 .535.268.268 0 0 0 0-.536m-.896.896a.268.268 0 1 0 0 .536.268.268 0 0 0 0-.536m.896.832a.268.268 0 1 0 0 .535.268.268 0 0 0 0-.535m0 1.727a.268.268 0 1 0 0 .536.268.268 0 0 0 0-.536m-.894-.834a.268.268 0 1 0 0 .536.268.268 0 0 0 0-.536m.894 2.56a.268.268 0 1 0 0 .537.268.268 0 0 0 0-.536m-.901.894a.268.268 0 1 0 0 .536.268.268 0 0 0 0-.536m0-1.72a.268.268 0 1 0 0 .536.268.268 0 0 0 0-.536m.901 2.553a.268.268 0 1 0 0 .536.268.268 0 0 0 0-.536m-.896.896a.268.268 0 1 0 0 .536.268.268 0 0 0 0-.536m-.825.833a.268.268 0 1 0 0 .536.268.268 0 0 0 0-.536m1.721-.002a.268.268 0 1 0 0 .536.268.268 0 0 0 0-.536m-.896.896a.268.268 0 1 0 0 .536.268.268 0 0 0 0-.536m.896.831a.268.268 0 1 0 0 .536.268.268 0 0 0 0-.536m-.896.896a.268.268 0 1 0 0 .536.268.268 0 0 0 0-.536m.896.832a.268.268 0 1 0 0 .535.268.268 0 0 0 0-.536m-.896.896a.268.268 0 1 0 0 .536.268.268 0 0 0 0-.536m.896.831a.268.268 0 1 0 0 .536.268.268 0 0 0 0-.536m-.896.896a.268.268 0 1 0 0 .536.268.268 0 0 0 0-.536m.896 1.368a.268.268 0 1 0 0-.536.268.268 0 0 0 0 .535m-.896.361a.268.268 0 1 0 0 .535.268.268 0 0 0 0-.536M38.842 3.99a.268.268 0 1 0-.536 0 .268.268 0 0 0 .536 0m-.268 11.822a.268.268 0 1 0 0 .536.268.268 0 0 0 0-.536m-.896.896a.268.268 0 1 0 0 .536.268.268 0 0 0 0-.536m.896.832a.268.268 0 1 0 0 .535.268.268 0 0 0 0-.536m-.896.896a.268.268 0 1 0 0 .536.268.268 0 0 0 0-.536m.896.831a.268.268 0 1 0 0 .536.268.268 0 0 0 0-.536m-.896.896a.268.268 0 1 0 0 .536.268.268 0 0 0 0-.536m.896.831a.268.268 0 1 0 0 .536.268.268 0 0 0 0-.536m-.896.897a.268.268 0 1 0 0 .535.268.268 0 0 0 0-.536m.896.831a.268.268 0 1 0 0 .536.268.268 0 0 0 0-.535m-.896.896a.268.268 0 1 0 0 .535.268.268 0 0 0 0-.536m-.831-6.076a.268.268 0 1 0 0 .535.268.268 0 0 0 0-.536m-.897.896a.268.268 0 1 0 0 .536.268.268 0 0 0 0-.536m.897.831a.268.268 0 1 0 0 .536.268.268 0 0 0 0-.536m-.897.896a.268.268 0 1 0 0 .536.268.268 0 0 0 0-.536m.897.831a.268.268 0 1 0 0 .536.268.268 0 0 0 0-.536m-.897.897a.268.268 0 1 0 0 .535.268.268 0 0 0 0-.536m.897.831a.268.268 0 1 0 0 .536.268.268 0 0 0 0-.535m-.897.896a.268.268 0 1 0 0 .535.268.268 0 0 0 0-.536m.897.832a.268.268 0 1 0 0 .535.268.268 0 0 0 0-.535m-1.164 1.16q.227-.09.45-.19a.266.266 0 0 0-.45.19m-.564-6.342a.268.268 0 1 0 0 .536.268.268 0 0 0 0-.536m-.896.896a.268.268 0 1 0 0 .536.268.268 0 0 0 0-.536m.896.831a.268.268 0 1 0 0 .536.268.268 0 0 0 0-.536m-.896.897a.268.268 0 1 0 0 .535.268.268 0 0 0 0-.536m.896.831a.268.268 0 1 0 0 .536.268.268 0 0 0 0-.535m-.896.896a.268.268 0 1 0 0 .535.268.268 0 0 0 0-.536m.896.832a.268.268 0 1 0 0 .535.268.268 0 0 0 0-.535m-.896.896a.268.268 0 1 0 0 .535.268.268 0 0 0 0-.536m-.831-4.35a.268.268 0 1 0 0 .536.268.268 0 0 0 0-.536m-.896.897a.268.268 0 1 0 0 .535.268.268 0 0 0 0-.536m.896.831a.268.268 0 1 0 0 .536.268.268 0 0 0 0-.535m-.896.896a.268.268 0 1 0 0 .535.268.268 0 0 0 0-.536m.896.832a.268.268 0 1 0 0 .535.268.268 0 0 0 0-.535m-.896.896a.268.268 0 1 0 0 .535.268.268 0 0 0 0-.536m.896.832a.268.268 0 0 0-.112.51q.185-.093.372-.183a.265.265 0 0 0-.26-.327m-1.135 1.044q.135-.074.27-.145l-.032-.003a.27.27 0 0 0-.238.148M30.77 21.89a.268.268 0 1 0 0 .535.268.268 0 0 0 0-.536m.893-.886a.268.268 0 1 0 0 .536.268.268 0 0 0 0-.536m.003 1.717a.268.268 0 1 0 0 .536.268.268 0 0 0 0-.535m-.896.896a.268.268 0 1 0 0 .535.268.268 0 0 0 0-.536m.896.832a.268.268 0 1 0 0 .535.268.268 0 0 0 0-.535m-.896.896a.268.268 0 1 0 0 .535.268.268 0 0 0 0-.536m.896.832a.268.268 0 1 0 0 .535.268.268 0 0 0 0-.535m-.896.895a.268.268 0 1 0 0 .537.268.268 0 0 0 0-.536m-.832-4.351a.268.268 0 1 0 0 .536.268.268 0 0 0 0-.535m-.895.896a.268.268 0 1 0 0 .535.268.268 0 0 0 0-.536m.895.832a.268.268 0 1 0 0 .535.268.268 0 0 0 0-.535m-.895.896a.268.268 0 1 0 0 .535.268.268 0 0 0 0-.536m.895.832a.268.268 0 1 0 0 .535.268.268 0 0 0 0-.535m-.895.895a.268.268 0 1 0 0 .537.268.268 0 0 0 0-.536m.895.831a.268.268 0 1 0 0 .536.268.268 0 0 0 0-.536m-.895.896a.268.268 0 0 0-.15.49q.207-.124.414-.254a.27.27 0 0 0-.264-.236m-1.728-5.181a.268.268 0 1 0 0 .535.268.268 0 0 0 0-.536m.895-.886a.268.268 0 1 0 0 .536.268.268 0 0 0 0-.536m.001 1.718a.268.268 0 1 0 0 .535.268.268 0 0 0 0-.535m-.896.896a.268.268 0 1 0 0 .535.268.268 0 0 0 0-.536m.896.832a.268.268 0 1 0 0 .535.268.268 0 0 0 0-.535m-.896.895a.268.268 0 1 0 0 .537.268.268 0 0 0 0-.536m.896.831a.268.268 0 1 0 0 .535.268.268 0 0 0 0-.535m-.896.896a.268.268 0 1 0 0 .536.268.268 0 0 0 0-.536m.645 1.012q.16-.084.32-.172a.267.267 0 0 0-.32.17m-1.476-5.36a.268.268 0 1 0 0 .535.268.268 0 0 0 0-.535m-.896.896a.268.268 0 1 0 0 .535.268.268 0 0 0 0-.536m.896.832a.268.268 0 1 0 0 .535.268.268 0 0 0 0-.535m-.896.895a.268.268 0 1 0 0 .537.268.268 0 0 0 0-.536m.896.831a.268.268 0 1 0 0 .536.268.268 0 0 0 0-.536m-.896.896a.268.268 0 1 0 0 .536.268.268 0 0 0 0-.536m.896.831a.268.268 0 1 0 0 .536.268.268 0 0 0 0-.536m-.896.896a.268.268 0 0 0-.234.396q.25-.082.497-.174a.27.27 0 0 0-.263-.222m-.831-4.35a.268.268 0 1 0 0 .535.268.268 0 0 0 0-.535m-.896.895a.268.268 0 1 0 0 .537.268.268 0 0 0 0-.536m.896.831a.268.268 0 1 0 0 .535.268.268 0 0 0 0-.535m-.896.896a.268.268 0 1 0 0 .536.268.268 0 0 0 0-.536m.896.831a.268.268 0 1 0 0 .535.268.268 0 0 0 0-.535m-.896.896a.268.268 0 1 0 0 .536.268.268 0 0 0 0-.536m-.831-4.35a.268.268 0 1 0 0 .535.268.268 0 0 0 0-.535m.833-.834a.268.268 0 1 0 0 .536.268.268 0 0 0 0-.536m-1.729 1.729a.268.268 0 1 0 0 .537.268.268 0 0 0 0-.536m.896.831a.268.268 0 1 0 0 .536.268.268 0 0 0 0-.536m-.896.896a.268.268 0 1 0 0 .536.268.268 0 0 0 0-.536m.896.831a.268.268 0 1 0 0 .536.268.268 0 0 0 0-.536m-.896.896a.268.268 0 1 0 0 .536.268.268 0 0 0 0-.536m.896.831a.27.27 0 0 0-.253.183q.232-.034.466-.076a.27.27 0 0 0-.213-.107m-2.623-4.286a.268.268 0 1 0 0 .537.268.268 0 0 0 0-.536m.896.831a.268.268 0 1 0 0 .535.268.268 0 0 0 0-.535m-.896 1.432a.268.268 0 1 0 0-.536.268.268 0 0 0 0 .536m.896.295a.268.268 0 1 0 0 .535.268.268 0 0 0 0-.535m-.896 1.431a.268.268 0 1 0 0-.535.268.268 0 0 0 0 .536m1.163.563a.268.268 0 1 0-.53.048q.262 0 .527-.015.003-.016.004-.033m-1.995-3.187a.268.268 0 1 0 0-.535.268.268 0 0 0 0 .535m-.896.361a.268.268 0 1 0 0 .536.268.268 0 0 0 0-.536m.896 1.367a.268.268 0 1 0 0-.536.268.268 0 0 0 0 .536m-.896.36a.268.268 0 1 0 0 .536.268.268 0 0 0 0-.536m.896.831a.27.27 0 0 0-.255.192q.258.04.522.067a.267.267 0 0 0-.267-.259m-1.727-3.454a.268.268 0 1 0 0 .536.268.268 0 0 0 0-.536m.833-.818a.268.268 0 1 0 0 .535.268.268 0 0 0 0-.535m-1.729 2.25a.268.268 0 1 0 0-.536.268.268 0 0 0 0 .536m.896.295a.268.268 0 1 0 0 .536.268.268 0 0 0 0-.536m-.896.896a.27.27 0 0 0-.258.198q.235.118.478.221a.267.267 0 0 0-.22-.42m-.831-2.622a.268.268 0 1 0 0 .535.268.268 0 0 0 0-.535m-.902-.834a.268.268 0 1 0 0 .536.268.268 0 0 0 0-.536m.006 2.266a.268.268 0 1 0 0-.536.268.268 0 0 0 0 .536m.896.295a.268.268 0 1 0 0 .535.268.268 0 0 0 0-.535m-2.355-2.29a.268.268 0 0 0-.52-.092q.088.178.184.35a.264.264 0 0 0 .336-.259m.628.564a.268.268 0 1 0 0 .536.268.268 0 0 0 0-.536"/><path d="M39.81 3.913c-5.337-5.195-13.83-5.21-18.932-.034a12.9 12.9 0 0 0-2.858 4.414c-.734 1.892-1.731 3.77-3.049 5.74-1.801 2.695-2.86 5.693-2.983 8.44-.066 1.485.13 2.854.576 4.071l-6.223 6.223a3.77 3.77 0 0 0-2.715-1.028 3.73 3.73 0 0 0-2.71 1.294 3.77 3.77 0 0 0-.002 4.923 3.77 3.77 0 0 0 4.01 1.113 3.77 3.77 0 0 0 1.114 4.01c.701.61 1.58.914 2.46.914s1.76-.305 2.462-.916a3.73 3.73 0 0 0 1.294-2.71 3.77 3.77 0 0 0-1.099-2.788l-.004-.004a.14.14 0 0 1-.043-.1c0-.023.006-.056.035-.085l6.057-6.056c1.127.452 2.39.684 3.761.684q.29 0 .586-.014c2.76-.129 5.767-1.201 8.468-3.019a31 31 0 0 1 5.797-3.056 12.9 12.9 0 0 0 4.37-2.88c2.485-2.487 3.841-5.816 3.818-9.375-.025-3.688-1.513-7.155-4.19-9.761M10.654 36.9a.8.8 0 0 0-.238.574.83.83 0 0 0 .25.593c.607.608.926 1.416.896 2.275a3.05 3.05 0 0 1-1.056 2.213 3.07 3.07 0 0 1-4.016.002 3.07 3.07 0 0 1-.532-4.044.345.345 0 0 0-.48-.48 3.07 3.07 0 0 1-4.044-.531 3.07 3.07 0 0 1 .003-4.016A3.05 3.05 0 0 1 3.65 32.43c.86-.03 1.668.289 2.276.897a.6.6 0 0 0 .416.172.6.6 0 0 0 .417-.172l6.092-6.093a8.08 8.08 0 0 0 3.675 3.795zm29.039-14.34a12.2 12.2 0 0 1-4.137 2.727 31.6 31.6 0 0 0-5.927 3.125c-2.87 1.932-5.922 2.909-8.64 2.908-2.388 0-4.519-.753-6.04-2.275-3.24-3.24-2.995-9.255.596-14.627 1.347-2.014 2.367-3.936 3.12-5.875a12.2 12.2 0 0 1 2.705-4.18C23.781 1.919 26.99.698 30.232.698a13.03 13.03 0 0 1 9.095 3.71c2.544 2.477 3.958 5.77 3.982 9.271.023 3.373-1.262 6.528-3.616 8.882"/><path d="M29.794 8.874A2.345 2.345 0 0 1 27.45 6.53a2.345 2.345 0 0 1 2.343-2.343 2.345 2.345 0 0 1 2.342 2.343 2.345 2.345 0 0 1-2.342 2.343m0-3.995a1.653 1.653 0 1 0 1.652 1.652c0-.911-.742-1.652-1.652-1.652M26.52 15.436c-.898 0-1.63-.73-1.63-1.63a1.631 1.631 0 0 1 3.26.001c0 .898-.731 1.63-1.63 1.63m0-2.568a.94.94 0 0 0 0 1.877.94.94 0 0 0 0-1.877m8.329-.839a1.198 1.198 0 1 0-1.695-1.695 1.198 1.198 0 0 0 1.695 1.694M20.33 16.437a1.198 1.198 0 1 0-2.333-.553 1.198 1.198 0 0 0 2.332.553"/></g><defs><clipPath id="a"><path fill="#fff" d="M0 0h44v44H0z"/></clipPath></defs></svg>