<svg xmlns="http://www.w3.org/2000/svg" width="44" height="44" fill="none" viewBox="0 0 44 44"><g fill="#8b1e1e" clip-path="url(#a)"><path d="M29.38 15.263a.263.263 0 1 0 0 .526.263.263 0 0 0 0-.526m-.88.88a.263.263 0 1 0 0 .525.263.263 0 0 0 0-.525m.88.815a.263.263 0 1 0 0 .526.263.263 0 0 0 0-.526m-.88.879a.263.263 0 1 0 0 .526.263.263 0 0 0 0-.526m.88.816a.263.263 0 1 0 0 .526.263.263 0 0 0 0-.526m-.88.879a.263.263 0 1 0 0 .526.263.263 0 0 0 0-.526m.88.816a.263.263 0 1 0 0 .525.263.263 0 0 0 0-.525m-.88.879a.263.263 0 1 0 0 .526.263.263 0 0 0 0-.526m.88.816a.263.263 0 1 0 0 .525.263.263 0 0 0 0-.526m-.88.88a.263.263 0 1 0 0 .526.263.263 0 0 0 0-.526m.88.815a.263.263 0 1 0 0 .526.263.263 0 0 0 0-.526m-.88.88a.263.263 0 1 0 0 .525.263.263 0 0 0 0-.525m.88.815a.263.263 0 1 0 0 .526.263.263 0 0 0 0-.526m-.88.88a.263.263 0 1 0 0 .525.263.263 0 0 0 0-.526m.88.816a.263.263 0 1 0 .175.457l.023-.365a.26.26 0 0 0-.198-.092m-.88.879a.263.263 0 1 0 0 .526.263.263 0 0 0 0-.526m0 1.694a.263.263 0 1 0 0 .527.263.263 0 0 0 0-.526m0 1.695a.263.263 0 1 0 0 .526.263.263 0 0 0 0-.526m0 1.694a.263.263 0 1 0 0 .526.263.263 0 0 0 0-.525m0 1.694a.263.263 0 1 0 0 .526.263.263 0 0 0 0-.526m0 1.695a.263.263 0 1 0 0 .526.263.263 0 0 0 0-.526m0 1.695a.263.263 0 1 0 0 .526.263.263 0 0 0 0-.526m0 1.695a.263.263 0 1 0 0 .525.263.263 0 0 0 0-.525m0 1.695a.263.263 0 1 0 .173.459l.023-.37a.26.26 0 0 0-.196-.09m-.815-26.301a.263.263 0 1 0 0 .526.263.263 0 0 0 0-.526m-.879 1.405a.263.263 0 1 0 0-.525.263.263 0 0 0 0 .525m.879.29a.263.263 0 1 0 0 .526.263.263 0 0 0 0-.526m-.879 1.405a.263.263 0 1 0 0-.525.263.263 0 0 0 0 .525m-.816.817a.263.263 0 1 0 0-.526.263.263 0 0 0 0 .525m1.695-.526a.263.263 0 1 0 0 .526.263.263 0 0 0 0-.526m-.879 1.405a.263.263 0 1 0 0-.526.263.263 0 0 0 0 .526m.879.29a.263.263 0 1 0 0 .525.263.263 0 0 0 0-.525m-.879 1.405a.263.263 0 1 0 0-.526.263.263 0 0 0 0 .526m0 1.695a.263.263 0 1 0 0-.526.263.263 0 0 0 0 .526m0 1.694a.263.263 0 1 0 0-.525.263.263 0 0 0 0 .525m.879.29a.263.263 0 1 0 0 .526.263.263 0 0 0 0-.526m-.879 1.405a.263.263 0 1 0 0-.525.263.263 0 0 0 0 .525m.879.29a.263.263 0 1 0 0 .525.263.263 0 0 0 0-.525m-.879 1.405a.263.263 0 1 0 0-.526.263.263 0 0 0 0 .526m.879.29a.263.263 0 1 0 0 .525.263.263 0 0 0 0-.525m-.879 1.405a.263.263 0 1 0 0-.526.263.263 0 0 0 0 .526m.879.289a.263.263 0 1 0 0 .526.263.263 0 0 0 0-.526m-.879 1.406a.263.263 0 1 0 0-.526.263.263 0 0 0 0 .526m.879.289a.263.263 0 1 0 0 .526.263.263 0 0 0 0-.526m-.879 1.405a.263.263 0 1 0 0-.525.263.263 0 0 0 0 .525m.879.29a.263.263 0 1 0 0 .526.263.263 0 0 0 0-.526m-.879 1.405a.263.263 0 1 0 0-.525.263.263 0 0 0 0 .525m.879.289a.263.263 0 1 0 0 .526.263.263 0 0 0 0-.525m0 1.695a.263.263 0 1 0 0 .525.263.263 0 0 0 0-.525m-.879 1.404a.263.263 0 1 0 0-.525.263.263 0 0 0 0 .526m.879.289a.263.263 0 1 0 0 .526.263.263 0 0 0 0-.526m-.879 1.405a.263.263 0 1 0 0-.525.263.263 0 0 0 0 .525m.879.29a.263.263 0 1 0 0 .526.263.263 0 0 0 0-.526m-.879 1.405a.263.263 0 1 0 0-.525.263.263 0 0 0 0 .525m.879.816a.263.263 0 1 0 0-.526.263.263 0 0 0 0 .526m-.617.616a.263.263 0 1 0-.489.132h.453a.26.26 0 0 0 .036-.132M25.99 23.737a.263.263 0 1 0 0 .526.263.263 0 0 0 0-.526m0 1.695a.263.263 0 1 0 0 .526.263.263 0 0 0 0-.526m0 1.695a.263.263 0 1 0 0 .525.263.263 0 0 0 0-.525m0 1.695a.263.263 0 1 0 0 .525.263.263 0 0 0 0-.525m0 1.694a.263.263 0 1 0 0 .526.263.263 0 0 0 0-.526m0 1.695a.263.263 0 1 0 0 .526.263.263 0 0 0 0-.526m0 1.695a.263.263 0 1 0 0 .526.263.263 0 0 0 0-.526m0 1.694a.263.263 0 1 0 0 .526.263.263 0 0 0 0-.525m-.88 1.405a.263.263 0 1 0-.249-.341l-.008.13c.024.12.13.21.258.21m.879.291a.263.263 0 1 0 0 .525.263.263 0 0 0 0-.525m-.88.879a.263.263 0 1 0 0 .525.263.263 0 0 0 0-.525m.88.815a.263.263 0 1 0 0 .526.263.263 0 0 0 0-.526m-.88.88a.263.263 0 1 0 0 .525.263.263 0 0 0 0-.525m.88.815a.263.263 0 1 0 0 .526.263.263 0 0 0 0-.526m-.88.88a.263.263 0 1 0 0 .525.263.263 0 0 0 0-.526m.88.816a.263.263 0 1 0 0 .525.263.263 0 0 0 0-.525m-.616 1.142a.263.263 0 1 0-.49.132h.453a.26.26 0 0 0 .037-.132"/><path d="M26.805 20.058a.263.263 0 1 0 0-.526.263.263 0 0 0 0 .526m.88.29a.263.263 0 1 0 .171.46l.025-.37a.26.26 0 0 0-.196-.09m-.88.879a.263.263 0 1 0 0 .526.263.263 0 0 0 0-.526m-.815-.879a.263.263 0 1 0 0 .525.263.263 0 0 0 0-.525m0 1.695a.263.263 0 1 0 0 .526.263.263 0 0 0 0-.526m.815.879a.263.263 0 1 0 0 .525.263.263 0 0 0 0-.525m0 1.695a.263.263 0 1 0 0 .525.263.263 0 0 0 0-.525m.617 1.078c0 .082.038.155.097.203l.028-.426a.26.26 0 0 0-.125.223m-.617.617a.263.263 0 1 0 0 .525.263.263 0 0 0 0-.526m0 1.695a.263.263 0 1 0 0 .526.263.263 0 0 0 0-.526m0 1.695a.263.263 0 1 0 0 .526.263.263 0 0 0 0-.526m0 2.221a.263.263 0 1 0 0-.526.263.263 0 0 0 0 .526m0 1.168a.263.263 0 1 0 .21.421l.018-.286a.26.26 0 0 0-.228-.134m-.262 1.957a.263.263 0 0 0 .353.246l.032-.477a.263.263 0 0 0-.386.231m.001 3.39c0 .096.052.18.13.226l.031-.469a.26.26 0 0 0-.162.243m.001 1.695q.001.06.025.111l.017-.254a.26.26 0 0 0-.043.143m-.552-16.395a.263.263 0 1 0 0 .525.263.263 0 0 0 0-.526m0 1.695a.263.263 0 1 0 0 .526.263.263 0 0 0 0-.526m0 1.695a.263.263 0 1 0 0 .526.263.263 0 0 0 0-.526m0 1.695a.263.263 0 1 0 0 .526.263.263 0 0 0 0-.526m0 1.695a.263.263 0 1 0 0 .525.263.263 0 0 0 0-.525m0 1.694a.263.263 0 1 0 0 .526.263.263 0 0 0 0-.526m0 1.695a.263.263 0 1 0 0 .526.263.263 0 0 0 0-.526m-.88-.816a.263.263 0 1 0 0 .526.263.263 0 0 0 0-.526m.88 2.511a.263.263 0 1 0 0 .526.263.263 0 0 0 0-.526m-.88 1.405a.263.263 0 1 0-.25-.341l-.007.13c.024.12.13.21.257.21m.88.291a.263.263 0 1 0 0 .525.263.263 0 0 0 0-.525m-.88.879a.263.263 0 1 0 0 .526.263.263 0 0 0 0-.526m.88.815a.263.263 0 1 0 0 .526.263.263 0 0 0 0-.526m-.88 1.406a.263.263 0 1 0 0-.526.263.263 0 0 0 0 .526m.88.289a.263.263 0 1 0 0 .526.263.263 0 0 0 0-.526m-.88.88a.26.26 0 0 0-.189.08h.38a.26.26 0 0 0-.19-.08M14.685 25.147a1.261 1.261 0 0 1 0-2.52 1.261 1.261 0 0 1 0 2.52m0-1.826a.568.568 0 1 0 .001 1.135.568.568 0 0 0-.001-1.135m7.952 8.032c-.695 0-1.26-.565-1.26-1.26a1.26 1.26 0 0 1 2.52.001c0 .694-.565 1.26-1.26 1.26m0-1.826a.568.568 0 1 0 .001 1.135.568.568 0 0 0 0-1.135"/><path d="M23.356 39.991q-.224 0-.443-.091l-3.166-1.357a1.12 1.12 0 0 1-.603-.618 1.12 1.12 0 0 1 .01-.865l1.357-3.165c.119-.278.338-.492.619-.604a1.12 1.12 0 0 1 .864.01l3.165 1.357c.278.12.492.339.604.619s.108.587-.01.864l-1.357 3.166a1.13 1.13 0 0 1-1.04.684m-.17-.728a.437.437 0 0 0 .573-.23l1.357-3.165a.437.437 0 0 0-.23-.573l-3.165-1.357a.437.437 0 0 0-.573.23l-1.357 3.165a.437.437 0 0 0 .23.573z"/><path d="M36.076.893a1.466 1.466 0 0 0-1.92-.777L24.498 4.23a4.95 4.95 0 0 0-2.89 3.454l-.526 2.319H9.913c-1.16 0-2.105.944-2.105 2.105v.842c0 .75.394 1.408.985 1.781l1.574 27.606c.053.933.892 1.664 1.91 1.664H27.09c1.015 0 1.854-.728 1.91-1.657l1.687-27.606a2.1 2.1 0 0 0 .996-1.788v-.842c0-1.16-.944-2.105-2.105-2.105h-5.494l.378-1.67a2.02 2.02 0 0 1 1.179-1.408l9.658-4.112a1.466 1.466 0 0 0 .777-1.92M28.309 42.3c-.034.565-.57 1.007-1.219 1.007H12.278c-.652 0-1.187-.444-1.22-1.01L9.504 15.014q.2.04.41.04h10.024l-.908 4.01h-7.486a.346.346 0 0 0-.346.368l1.317 21.296c.044.709.72 1.264 1.539 1.264h11.292c.815 0 1.491-.553 1.538-1.26l1.412-21.298a.347.347 0 0 0-.346-.37h-5.918l.908-4.01h6.64q.203 0 .397-.038zm-12.996-8.788a.52.52 0 0 1-.633-.388l-.884-3.683a.526.526 0 0 1 .388-.633l3.682-.885a.53.53 0 0 1 .398.063c.12.074.203.19.236.326l.884 3.682a.526.526 0 0 1-.388.634zm2.72.06-1.257 5.55a.777.777 0 0 1-.923.58.77.77 0 0 1-.581-.923l1.089-4.806zm-.89-6.187-3.121.75a1.22 1.22 0 0 0-.9 1.468l.884 3.683c.076.316.27.584.548.754a1.2 1.2 0 0 0 .921.146l.135-.033-1.014 4.473a1.465 1.465 0 0 0 1.429 1.789c.687 0 1.274-.469 1.426-1.14l1.333-5.884.373-.09a1.22 1.22 0 0 0 .9-1.468l-.473-1.971 2.29-10.105h5.705l-1.387 20.93c-.022.338-.403.613-.847.613H14.053c-.446 0-.827-.276-.848-.615l-1.294-20.928h6.96zm2.076.955-.046-.19a1.21 1.21 0 0 0-1.282-.928l2.757-12.168h1.581zm10.36-17.645c.778 0 1.412.633 1.412 1.412v.842c0 .779-.634 1.413-1.413 1.413H9.913a1.414 1.414 0 0 1-1.412-1.413v-.842c0-.779.633-1.412 1.412-1.412zm5.45-8.52L25.37 6.286a2.71 2.71 0 0 0-1.583 1.892l-.413 1.823h-1.582l.49-2.165a4.26 4.26 0 0 1 2.487-2.97L34.427.753a.773.773 0 0 1 .601 1.42"/></g><defs><clipPath id="a"><path fill="#fff" d="M0 0h44v44H0z"/></clipPath></defs></svg>