<svg xmlns="http://www.w3.org/2000/svg" width="44" height="44" fill="none" viewBox="0 0 44 44"><g fill="#8b1e1e" clip-path="url(#a)"><path d="M38.341 25.984a.264.264 0 1 0 0 .527.264.264 0 0 0 0-.527m-1.145 1.146a.264.264 0 1 0 .527 0 .264.264 0 0 0-.527 0m.264 1.435a.264.264 0 0 0-.02.525q.147-.15.28-.302a.26.26 0 0 0-.26-.223m-1.082-.618a.264.264 0 1 0 .527 0 .264.264 0 0 0-.527 0m-.882.882a.264.264 0 1 0 .528 0 .264.264 0 0 0-.528 0m-1.436-.264a.264.264 0 1 0 0 .527.264.264 0 0 0 0-.527m.882.818a.264.264 0 1 0 0 .527.264.264 0 0 0 0-.527m-.882.882a.264.264 0 1 0 0 .527.264.264 0 0 0 0-.527m-.817-.882a.264.264 0 1 0 0 .527.264.264 0 0 0 0-.527m-1.146 1.146a.264.264 0 1 0 .527 0 .264.264 0 0 0-.527 0m1.146.554a.264.264 0 1 0 0 .527.264.264 0 0 0 0-.527m-1.7-1.173a.264.264 0 0 0 .134-.49q-.183.057-.37.111a.264.264 0 0 0 .236.379m-1.145.619a.264.264 0 1 0 .527 0 .264.264 0 0 0-.527 0m1.145.554a.264.264 0 1 0 0 .527.264.264 0 0 0 0-.527m-.618 1.145a.264.264 0 1 0-.309.26l.212-.057a.26.26 0 0 0 .097-.203m-1.963-1.963a.264.264 0 1 0 0 .527.264.264 0 0 0 0-.527m.618 1.081a.264.264 0 1 0 .527 0 .264.264 0 0 0-.527 0m-.618.618a.264.264 0 1 0 0 .528.264.264 0 0 0 0-.528m-1.082-.618a.264.264 0 1 0 .527 0 .264.264 0 0 0-.527 0m-.618.618a.264.264 0 1 0 0 .528.264.264 0 0 0 0-.528m-1.082-.618a.264.264 0 1 0 .528 0 .264.264 0 0 0-.527 0m-.619.618a.264.264 0 1 0 0 .528.264.264 0 0 0 0-.528m1.146 1.082a.264.264 0 1 0-.389.23q.15-.016.301-.035a.26.26 0 0 0 .088-.195m-1.963-1.963a.264.264 0 1 0 0 .527.264.264 0 0 0 0-.527m-.882.881a.264.264 0 1 0 0 .528.264.264 0 0 0 0-.528m.882.818a.264.264 0 1 0 0 .527.264.264 0 0 0 0-.527m-1.7-1.699a.264.264 0 1 0 0 .527.264.264 0 0 0 0-.527M21.9 32.228a.264.264 0 1 0 .527 0 .264.264 0 0 0-.527 0m1.145.554a.264.264 0 1 0 0 .527.264.264 0 0 0 0-.527m-1.7-1.699a.264.264 0 1 0 0 .527.264.264 0 0 0 0-.527M20.2 32.228a.264.264 0 1 0 .527 0 .264.264 0 0 0-.527 0m1.145.554a.264.264 0 1 0 0 .527.264.264 0 0 0 0-.527m-1.699-1.699a.264.264 0 1 0 0 .527.264.264 0 0 0 0-.527m-.882.881a.264.264 0 1 0 0 .528.264.264 0 0 0 0-.528m.882.818a.264.264 0 1 0 0 .527.264.264 0 0 0 0-.527m-1.963-1.436a.264.264 0 1 0 .527 0 .264.264 0 0 0-.527 0m-.619.618a.264.264 0 1 0 0 .528.264.264 0 0 0 0-.528m1.146 1.082a.264.264 0 1 0-.334.253l.086.009a.263.263 0 0 0 .248-.262m-2.845-2.781a.264.264 0 1 0 0 .527.264.264 0 0 0 0-.527m.618 1.081a.264.264 0 1 0 .527 0 .264.264 0 0 0-.527 0m-.618.618a.264.264 0 1 0 0 .528.264.264 0 0 0 0-.528m1.145 1.082a.264.264 0 0 0-.526-.008q.255.042.515.082a.3.3 0 0 0 .011-.074m-2.845-2.781a.264.264 0 1 0 0 .527.264.264 0 0 0 0-.527m.618 1.081a.264.264 0 1 0 .528 0 .264.264 0 0 0-.528 0m-.618.618a.264.264 0 1 0 0 .528.264.264 0 0 0 0-.528m-1.963-1.435a.264.264 0 1 0 .527 0 .264.264 0 0 0-.527 0m1.145.554a.264.264 0 1 0 0 .527.264.264 0 0 0 0-.527m-1.699-1.7a.264.264 0 1 0 0 .527.264.264 0 0 0 0-.527m-.882.882a.264.264 0 1 0 0 .527.264.264 0 0 0 0-.527m.882.818a.264.264 0 1 0 0 .527.264.264 0 0 0 0-.527m-2.582-1.991a.264.264 0 1 0 0-.527.264.264 0 0 0 0 .527m.619.555a.264.264 0 1 0 .527 0 .264.264 0 0 0-.527 0M6.603 27.13a.264.264 0 1 0 .527 0 .264.264 0 0 0-.527 0m1.146.553a.264.264 0 1 0 0 .528.264.264 0 0 0 0-.528m-.882 1.409a.264.264 0 1 0 0-.527.264.264 0 0 0 0 .527m.882.291a.264.264 0 1 0 0 .527.264.264 0 0 0 0-.527m-1.7-3.399a.264.264 0 1 0 0 .527.264.264 0 0 0 0-.527m.264 1.963a.264.264 0 1 0-.528 0 .264.264 0 0 0 .528 0m32.028-7.062a.264.264 0 1 0 0 .527.264.264 0 0 0 0-.527m-1.145 1.145a.264.264 0 1 0 .527 0 .264.264 0 0 0-.527 0m-.818.818a.264.264 0 1 0 .527 0 .264.264 0 0 0-.527 0m-.618.618a.264.264 0 1 0 0 .527.264.264 0 0 0 0-.527m-1.7 0a.264.264 0 1 0 0 .527.264.264 0 0 0 0-.527m.882.818a.264.264 0 1 0 0 .527.264.264 0 0 0 0-.527m-.882.882a.264.264 0 1 0 0 .527.264.264 0 0 0 0-.527m-5.098 0a.264.264 0 1 0 0 .527.264.264 0 0 0 0-.527m.881.818a.264.264 0 1 0 0 .527.264.264 0 0 0 0-.527m-.881.882a.264.264 0 1 0 0 .527.264.264 0 0 0 0-.527m-1.7-1.7a.264.264 0 1 0 0 .527.264.264 0 0 0 0-.527m.618 1.082a.264.264 0 1 0 .528 0 .264.264 0 0 0-.528 0m-.618.618a.264.264 0 1 0 0 .527.264.264 0 0 0 0-.527m-1.7-1.7a.264.264 0 1 0 0 .527.264.264 0 0 0 0-.527m.618 1.082a.264.264 0 1 0 .528 0 .264.264 0 0 0-.527 0m-.619.618a.264.264 0 1 0 0 .527.264.264 0 0 0 0-.527m-1.081-.618a.264.264 0 1 0 .527 0 .264.264 0 0 0-.527 0m-.618.618a.264.264 0 1 0 0 .527.264.264 0 0 0 0-.527m-1.082-.618a.264.264 0 1 0 .528 0 .264.264 0 0 0-.528 0m-.618.618a.264.264 0 1 0 0 .527.264.264 0 0 0 0-.527m-1.081-.618a.264.264 0 1 0 .527 0 .264.264 0 0 0-.527 0m-.618.618a.264.264 0 1 0 0 .527.264.264 0 0 0 0-.527M18.5 25.43a.264.264 0 1 0 .38-.236l-.191-.016a.26.26 0 0 0-.189.252m.882.818a.264.264 0 1 0 .527 0 .264.264 0 0 0-.527 0m-.618.618a.264.264 0 1 0 0 .527.264.264 0 0 0 0-.527m-1.7-1.7a.264.264 0 1 0 0 .527.264.264 0 0 0 0-.527m.619 1.082a.264.264 0 1 0 .527 0 .264.264 0 0 0-.527 0m-.619.618a.264.264 0 1 0 0 .527.264.264 0 0 0 0-.527m-1.699-1.7a.264.264 0 1 0 0 .527.264.264 0 0 0 0-.527m.618 1.082a.264.264 0 1 0 .527 0 .264.264 0 0 0-.527 0m-.618.618a.264.264 0 1 0 0 .527.264.264 0 0 0 0-.527m-1.963-1.436a.264.264 0 1 0 .527 0 .264.264 0 0 0-.527 0m1.145.554a.264.264 0 1 0 0 .527.264.264 0 0 0 0-.527m-1.7-1.7a.264.264 0 1 0 0 .527.264.264 0 0 0 0-.527m-1.145 1.146a.264.264 0 1 0 .527 0 .264.264 0 0 0-.527 0m1.145.554a.264.264 0 1 0 0 .527.264.264 0 0 0 0-.527m-2.581-2.518a.264.264 0 1 0 0 .528.264.264 0 0 0 0-.528m.618 1.082a.264.264 0 1 0 .528 0 .264.264 0 0 0-.528 0m-.618.618a.264.264 0 1 0 0 .527.264.264 0 0 0 0-.527M8.303 23.73a.264.264 0 1 0 .527 0 .264.264 0 0 0-.527 0m1.145.554a.264.264 0 1 0 0 .527.264.264 0 0 0 0-.527m-2.581-1.99a.264.264 0 1 0 0-.527.264.264 0 0 0 0 .527m.618.554a.264.264 0 1 0 .527 0 .264.264 0 0 0-.527 0m-1.436-1.963a.264.264 0 1 0 0 .527.264.264 0 0 0 0-.527m32.292-6.798a.264.264 0 1 0 0 .527.264.264 0 0 0 0-.527m-.881.882a.264.264 0 1 0 0 .527.264.264 0 0 0 0-.527m0 1.699a.264.264 0 1 0 0 .527.264.264 0 0 0 0-.527m-.818-.882a.264.264 0 1 0 0 .527.264.264 0 0 0 0-.527m-1.146 1.146a.264.264 0 1 0 .528 0 .264.264 0 0 0-.528 0m1.146.554a.264.264 0 1 0 0 .527.264.264 0 0 0 0-.527m-.882.882a.264.264 0 0 0-.021.525q.136-.085.268-.17a.264.264 0 0 0-.247-.354m-1.081-.619a.264.264 0 1 0 .527 0 .264.264 0 0 0-.528 0m-.618.618a.264.264 0 1 0 0 .527.264.264 0 0 0 0-.527m-5.098 1.699a.264.264 0 1 0 0 .527.264.264 0 0 0 0-.527m-.818.818a.264.264 0 1 0 0 .527.264.264 0 0 0 0-.527m-3.399-1.699a.264.264 0 1 0 0 .527.264.264 0 0 0 0-.527M23.6 20.33a.264.264 0 1 0 .526 0 .264.264 0 0 0-.527 0m1.146.555a.264.264 0 1 0 0 .527.264.264 0 0 0 0-.527m-1.964-1.435a.264.264 0 1 0 .38-.236l-.244.006a.26.26 0 0 0-.136.23m-.881.88a.264.264 0 1 0 .527 0 .264.264 0 0 0-.527 0m1.145.555a.264.264 0 1 0 0 .527.264.264 0 0 0 0-.527m-1.963-1.435a.264.264 0 1 0 .405-.223q-.138 0-.275-.004a.26.26 0 0 0-.13.226m-.882.881a.264.264 0 1 0 .527 0 .264.264 0 0 0-.527 0m1.145.555a.264.264 0 1 0 0 .527.264.264 0 0 0 0-.527m-1.699-1.699a.264.264 0 1 0 0 .527.264.264 0 0 0 0-.527M18.5 20.33a.264.264 0 1 0 .528 0 .264.264 0 0 0-.528 0m1.146.555a.264.264 0 1 0 0 .527.264.264 0 0 0 0-.527m-1.7-1.699a.264.264 0 1 0 0 .527.264.264 0 0 0 0-.527M16.8 20.33a.264.264 0 1 0 .528 0 .264.264 0 0 0-.527 0m1.145.555a.264.264 0 1 0 0 .527.264.264 0 0 0 0-.527m-1.699-1.699a.264.264 0 1 0 0 .527.264.264 0 0 0 0-.527m-.882.881a.264.264 0 1 0 0 .527.264.264 0 0 0 0-.527m.882.818a.264.264 0 1 0 0 .527.264.264 0 0 0 0-.527m-2.582-2.517a.264.264 0 1 0 0 .527.264.264 0 0 0 0-.527m.618 1.082a.264.264 0 1 0 .528 0 .264.264 0 0 0-.528 0m-.618.617a.264.264 0 1 0 0 .527.264.264 0 0 0 0-.527m1.145 1.082a.264.264 0 0 0-.527 0q0 .016.004.033.24.054.483.105a.26.26 0 0 0 .04-.138m-3.108-2.518a.264.264 0 1 0 .527 0 .264.264 0 0 0-.527 0m.882.819a.264.264 0 1 0 .527 0 .264.264 0 0 0-.527 0m-.354.88a.264.264 0 1 0-.484.147l.308.101a.26.26 0 0 0 .175-.247m-1.345-2.581a.264.264 0 1 0 .456-.18l-.223-.081a.263.263 0 0 0-.233.26m-.882.882a.264.264 0 1 0 .528 0 .264.264 0 0 0-.528 0m1.146.555a.264.264 0 1 0 0 .527.264.264 0 0 0 0-.527m-2.582-2.518a.264.264 0 1 0 0 .527.264.264 0 0 0 0-.527m.619 1.082a.264.264 0 1 0 .527 0 .264.264 0 0 0-.527 0m-.619.618a.264.264 0 1 0 0 .527.264.264 0 0 0 0-.527M7.485 16.05a.264.264 0 1 0 .51-.094 11 11 0 0 1-.252-.17.263.263 0 0 0-.258.264m-.618 1.145a.264.264 0 1 0 0-.527.264.264 0 0 0 0 .527m.882.291a.264.264 0 1 0 0 .527.264.264 0 0 0 0-.527m-1.7-1.7a.264.264 0 1 0 0 .527.264.264 0 0 0 0-.527"/><path d="M43.58 26.415c-.709-1.608-2.333-3.105-4.679-4.351q.23-.626.231-1.276c0-.512-.111-1.024-.331-1.523-.231-.523-.587-1.032-1.054-1.517.908-.945 1.386-1.978 1.386-3.05 0-.511-.112-1.023-.332-1.522-.764-1.73-2.87-3.295-5.93-4.407-3.044-1.106-6.905-1.715-10.87-1.715q-.825 0-1.64.036a2.49 2.49 0 0 0-2.547.195 35 35 0 0 0-1.563.207 2.515 2.515 0 0 0-2.336-1.59 2.514 2.514 0 0 0-2.497 2.766l-.29.101c-3.06 1.112-5.165 2.677-5.929 4.407a3.8 3.8 0 0 0-.331 1.522c0 1.072.477 2.104 1.384 3.05-.467.485-.822.993-1.053 1.517a3.8 3.8 0 0 0-.331 1.523q.002.65.231 1.276C2.753 23.31 1.13 24.809.42 26.415A4.75 4.75 0 0 0 0 28.34c0 2.66 2.326 5.137 6.55 6.974C10.683 37.11 16.17 38.1 22 38.1s11.318-.99 15.45-2.786C41.674 33.477 44 31 44 28.34c0-.646-.141-1.293-.42-1.924m-5.257-6.04.045-.066.027-.038q.047.259.047.517c0 1.803-1.672 3.524-4.71 4.844l-.151.064q.045-.202.045-.417v-1.62c2.172-.89 3.79-2.02 4.687-3.272zm-.24 5.747q.081-.1.158-.201l.008-.01q.066-.09.128-.18l.018-.025q.047.258.047.516c0 1.804-1.672 3.524-4.709 4.845-3.128 1.36-7.295 2.109-11.733 2.109s-8.604-.75-11.733-2.11c-3.037-1.32-4.709-3.04-4.709-4.844q0-.258.047-.517l.025.036a5 5 0 0 0 .173.236l.015.02c1.028 1.32 2.864 2.5 5.31 3.388C14.174 30.491 18.035 31.1 22 31.1c3.966 0 7.827-.609 10.872-1.715 2.364-.859 4.158-1.988 5.204-3.256zm.011-1.264-.008.017-.078.145c-.802 1.432-2.69 2.742-5.372 3.717C29.665 29.816 25.887 30.41 22 30.41s-7.664-.594-10.636-1.674c-2.735-.993-4.644-2.335-5.418-3.8l-.05-.098q.209-.418.536-.82c.857.832 2.054 1.592 3.56 2.247 3.213 1.397 7.478 2.166 12.008 2.166 3.341 0 6.537-.418 9.274-1.198q.111.012.226.013h.16a1.96 1.96 0 0 0 1.415-.604q.48-.18.933-.377c1.507-.655 2.704-1.416 3.562-2.25q.328.405.534.823zm.01-5.455-.015.032-.017.031q-.038.075-.08.149c-.707 1.237-2.225 2.382-4.366 3.297v-2.576q.194-.08.382-.16c1.328-.578 2.416-1.237 3.242-1.956q.552.575.854 1.183m.291-5.221q.047.258.047.516c0 1.804-1.672 3.524-4.71 4.845l-.106.044V17.57c2.23-.913 3.876-2.081 4.758-3.372zm-.29-.867-.003.005c-.65 1.316-2.217 2.537-4.476 3.501v-1.587q.374-.121.735-.229c1.067-.323 1.988-.603 2.342-1.289.62-1.202-.756-2.12-1.667-2.73-.2-.133-.413-.342-.639-.564a10 10 0 0 0-.557-.52c2.147.95 3.636 2.137 4.264 3.413M22 7.745c3.46 0 6.833.472 9.628 1.337-.229.012-.463.04-.703.068-.47.055-.954.113-1.406.043-.358-.055-.736-.235-1.138-.425-.538-.256-1.095-.52-1.726-.556-.725-.042-1.425.155-2.101.346-.526.148-1.024.289-1.502.31-.444.02-.905-.044-1.36-.122a2.5 2.5 0 0 0-.497-.992q.402-.01.805-.01m-5.573.668q0-.126-.013-.247.336-.053.676-.098a2.5 2.5 0 0 0-.315 1.679 7 7 0 0 1-.398.212 2.5 2.5 0 0 0-.338-.209c.245-.388.387-.846.387-1.337m.986 3.575c0-.571-.193-1.098-.515-1.52l.088-.048a2.52 2.52 0 0 0 2.267 1.432 2.514 2.514 0 0 0 2.509-2.395c.432.07.873.122 1.321.101.558-.025 1.118-.183 1.659-.336.65-.183 1.264-.356 1.873-.321.497.029.992.264 1.47.49.429.204.871.414 1.329.484.545.085 1.077.021 1.592-.04.508-.06.987-.117 1.36-.005.64.191 1.101.645 1.547 1.084.25.245.485.477.74.647 1.124.75 1.72 1.292 1.437 1.84-.22.426-1.012.666-1.929.944-.32.097-.653.197-.993.316a.345.345 0 0 0-.232.326v10.292c0 .704-.573 1.277-1.277 1.277h-.16a1.28 1.28 0 0 1-1.276-1.277V16.56a.345.345 0 0 0-.408-.34l-.039.009-.02.003c-.49.081-1.038-.002-1.65-.11a.344.344 0 0 0-.406.34v3.842a.83.83 0 0 1-.829.829h-.115a.83.83 0 0 1-.83-.83v-3.962a.346.346 0 0 0-.41-.339c-.333.065-.667.16-.99.25-.651.184-1.266.357-1.875.322-.497-.029-.992-.264-1.471-.49-.428-.204-.87-.414-1.328-.485-.545-.084-1.078-.02-1.593.04-.507.06-.986.117-1.36.006-.64-.191-1.1-.645-1.547-1.084l-.09-.089a2.515 2.515 0 0 0 2.151-2.485m12.005 6.137-.135.029q-.44.093-.893.174V16.87c.397.062.774.1 1.142.08v1.15zm.114.68v2.066q-.684.152-1.397.275c.16-.241.255-.53.255-.841V19.03q.279-.05.552-.103l.193-.038zM11.364 9.419l.22-.076a2.53 2.53 0 0 0 1.194 1.308 2.5 2.5 0 0 0-.369 1.641c-.019.316.092.608.277.877.28.525.742.939 1.301 1.158l.242.163c.2.134.414.343.639.565.459.451 1.03 1.013 1.833 1.253.511.153 1.06.088 1.64.02.468-.057.953-.114 1.405-.044.358.055.737.235 1.138.425.538.255 1.095.52 1.727.556.724.042 1.424-.155 2.101-.346q.269-.077.524-.143v1.97c-1.06.092-2.143.14-3.236.14-3.887 0-7.665-.593-10.636-1.673-2.701-.98-4.597-2.302-5.39-3.745l.002-.003q-.042-.075-.08-.151c.742-1.502 2.674-2.88 5.468-3.895m-5.806 5.28q0-.258.047-.517l.026.037.052.074.024.034c1.004 1.38 2.884 2.614 5.421 3.535 3.046 1.106 6.907 1.715 10.872 1.715 1.092 0 2.175-.047 3.236-.138v.867c0 .465.21.881.541 1.16a38 38 0 0 1-3.777.187c-4.438 0-8.605-.75-11.733-2.11-3.037-1.32-4.71-3.04-4.71-4.844m1.191 3.522c.827.719 1.915 1.378 3.243 1.956 3.213 1.397 7.478 2.166 12.008 2.166 2.655 0 5.218-.265 7.532-.765v2.613c-2.316.512-4.898.785-7.532.785-3.887 0-7.665-.594-10.636-1.673-2.708-.984-4.606-2.309-5.395-3.756v-.003l-.073-.14c.2-.404.487-.8.853-1.183m-1.144 2.05.018.027c.981 1.428 2.896 2.706 5.505 3.654 3.046 1.105 6.907 1.715 10.872 1.715 2.626 0 5.205-.27 7.532-.77v.383c0 .608.278 1.153.713 1.514-2.48.618-5.303.948-8.245.948-4.438 0-8.605-.749-11.733-2.109-3.037-1.32-4.71-3.04-4.71-4.844q0-.258.048-.517m31.57 14.41c-4.048 1.76-9.437 2.729-15.175 2.729s-11.127-.97-15.175-2.73C2.87 32.96.69 30.709.69 28.34c0-.55.122-1.103.36-1.645.646-1.463 2.15-2.84 4.337-4.003q.235.417.57.818-.486.58-.758 1.191a3.8 3.8 0 0 0-.332 1.522c0 2.096 1.82 4.041 5.125 5.478 3.213 1.397 7.478 2.166 12.008 2.166s8.795-.77 12.008-2.166c3.304-1.437 5.124-3.382 5.124-5.478 0-.511-.111-1.023-.331-1.522a5 5 0 0 0-.759-1.191q.336-.4.571-.819c2.187 1.164 3.691 2.541 4.336 4.004.24.542.36 1.096.36 1.645 0 2.369-2.178 4.62-6.134 6.34"/></g><defs><clipPath id="a"><path fill="#fff" d="M0 0h44v44H0z"/></clipPath></defs></svg>