<svg width="146" height="30" viewBox="0 0 146 30" fill="none" xmlns="http://www.w3.org/2000/svg">
<path d="M15.8785 26.1981C15.8785 26.5718 15.9168 26.941 15.9889 27.3042C16.2981 27.1619 16.591 26.984 16.8678 26.7749C20.2712 24.2053 19.756 17.7244 15.7181 12.2977C12.2131 7.58708 7.2051 5.21919 3.71924 6.35791C3.82964 6.59663 3.91061 6.85017 4.00335 7.09927L4.13289 7.59598C4.17852 7.76352 4.19766 7.93107 4.23152 8.09862C4.33898 8.77177 4.36842 9.44196 4.42436 10.0795C4.47735 10.7186 4.58187 11.3206 4.77913 11.8899C4.86009 12.179 5.00583 12.4445 5.12212 12.7188L5.35029 13.1102C5.42537 13.2407 5.49897 13.3741 5.59466 13.4942C5.77425 13.7403 5.94059 13.9954 6.14816 14.2207L6.44404 14.5692C6.55003 14.6774 6.65896 14.7768 6.7679 14.8806C6.97546 15.1 7.21982 15.2601 7.44652 15.4484C7.6953 15.6026 7.93378 15.7702 8.20317 15.8888C8.73017 16.1557 9.30575 16.3499 9.92843 16.5382C10.5496 16.7369 11.215 16.9578 11.851 17.2885C12.1733 17.4442 12.4678 17.6562 12.7666 17.8564C13.0419 18.0891 13.3363 18.3012 13.5703 18.5666C13.6925 18.6971 13.8206 18.8201 13.9354 18.9521L14.2622 19.3643C14.4889 19.6312 14.6641 19.9351 14.8525 20.2287C14.9526 20.371 15.0306 20.5312 15.1101 20.6869C15.1881 20.847 15.2721 21.0027 15.3442 21.1628C15.4649 21.4979 15.6077 21.8241 15.6828 22.1755C15.8638 22.8635 15.9198 23.5752 15.9065 24.2469C15.9006 24.9185 15.855 25.565 15.8756 26.1966L15.8785 26.1981Z" fill="black"/>
<path d="M41.6293 27.8217C39.851 27.7016 38.0727 27.6111 36.2945 27.537C35.4569 27.5029 34.6193 27.4747 33.7817 27.4495C35.3965 26.6829 36.8877 25.651 38.1949 24.3758C39.1209 23.4714 39.9217 22.478 40.5915 21.4148C41.7029 22.002 42.9409 22.3119 44.2083 22.3119C48.5038 22.3119 52 18.7904 52 14.4639C52 10.1373 48.5053 6.61587 44.2083 6.61587C43.7358 6.61587 43.2662 6.65887 42.8054 6.74339C42.7701 6.70335 42.7304 6.66629 42.6877 6.63367C42.0017 2.91947 34.9814 0 26.4198 0C19.0845 0 12.8797 2.14401 10.8232 5.09461C10.7408 5.15836 10.6701 5.23991 10.6201 5.33777C10.4287 5.70252 10.5671 6.15475 10.9307 6.3475C13.6849 7.81094 16.2728 10.7022 18.0334 14.2815C18.1041 14.4253 18.1777 14.5766 18.2498 14.7337C20.2754 19.0825 20.8539 23.8094 19.8029 27.3932C18.3558 27.4228 16.9073 27.4658 15.4603 27.5207C15.4868 27.5118 15.5118 27.5029 15.5383 27.494C15.5103 27.4198 15.4838 27.3413 15.4558 27.2671L15.3263 26.7704C15.2807 26.6029 15.2615 26.4353 15.2277 26.2678C15.1202 25.5946 15.0908 24.9244 15.0334 24.2883C14.9804 23.6493 14.8758 23.0473 14.6786 22.478C14.5976 22.1888 14.4519 21.9234 14.3341 21.6476L14.1104 21.2562C14.0353 21.1257 13.9617 20.9923 13.866 20.8722C13.6849 20.6275 13.5201 20.3695 13.3125 20.1456L13.0152 19.7987C12.9121 19.6905 12.8002 19.5911 12.6942 19.4858C12.4881 19.2679 12.2438 19.1048 12.0156 18.918C11.7683 18.7652 11.5298 18.5977 11.259 18.4776C10.7334 18.2092 10.1564 18.0165 9.53518 17.8267C8.91396 17.628 8.24859 17.4071 7.61265 17.0764C7.29174 16.9207 6.99585 16.7087 6.69555 16.51C6.42322 16.2787 6.12733 16.0637 5.89327 15.7983C5.77109 15.6678 5.64449 15.5433 5.5282 15.4128L5.2014 15.0006C4.9747 14.7337 4.801 14.4283 4.6111 14.1362C4.51394 13.9939 4.43445 13.8352 4.35496 13.6766C4.27547 13.5179 4.19156 13.3622 4.11796 13.2021C3.99725 12.867 3.85445 12.5408 3.78085 12.1924C3.59979 11.5044 3.5409 10.7927 3.5571 10.121C3.56151 9.44637 3.60715 8.80436 3.58654 8.16976C3.58654 7.60633 3.49821 7.04734 3.3407 6.50467C2.95355 6.6648 2.58847 6.87387 2.2499 7.12889C-1.15206 9.69695 -0.638305 16.1794 3.39959 21.6061C5.88738 24.9511 9.13477 27.1144 12.0568 27.6793C11.2472 27.7223 10.4376 27.7712 9.62792 27.8261C8.73879 27.8884 7.84965 27.9536 6.96052 28.0307C6.07139 28.1078 5.18226 28.1923 4.29313 28.2991C5.18226 28.4073 6.07139 28.4918 6.96052 28.5675C7.84965 28.6461 8.73879 28.7113 9.62792 28.7721C11.4062 28.8922 13.1844 28.9826 14.9627 29.0568C18.5192 29.1976 22.0757 29.2643 25.6323 29.2629C29.1888 29.2629 32.7453 29.1961 36.3018 29.0538C38.0801 28.9797 39.8584 28.8892 41.6366 28.7691C42.5258 28.7068 43.4149 28.6431 44.304 28.5645C45.1931 28.4874 46.0823 28.4044 46.9714 28.2976C46.0823 28.1909 45.1931 28.1063 44.304 28.0307C43.4149 27.9536 42.5258 27.8884 41.6366 27.8261L41.6293 27.8217ZM42.9865 13.0864V8.22907C43.3869 8.15048 43.7947 8.10897 44.2083 8.10897C47.6868 8.10897 50.5162 10.9587 50.5162 14.4624C50.5162 17.9661 47.6868 20.8158 44.2083 20.8158C43.2 20.8158 42.2137 20.5741 41.326 20.113C42.4124 17.9527 42.988 15.5626 42.988 13.085L42.9865 13.0864ZM25.6264 27.3294C24.6578 27.3294 23.6906 27.3338 22.722 27.3442C22.2833 27.2716 21.849 27.1811 21.4192 27.0699C22.2951 23.2549 21.6341 18.4761 19.5924 14.0947C19.5408 13.9835 19.4878 13.8738 19.4378 13.7685C21.5546 14.2133 23.9217 14.4624 26.4198 14.4624C33.2208 14.4624 39.0487 12.6194 41.5027 9.99943V13.085C41.5027 20.2524 36.1222 26.2174 29.0887 27.3502C27.9346 27.3353 26.7805 27.3279 25.6264 27.3279V27.3294Z" fill="black"/>
<path d="M39.6993 14.6878C39.823 14.2948 39.6066 13.8752 39.2165 13.7507C38.8264 13.6261 38.4098 13.8441 38.2846 14.237C38.267 14.2948 36.3871 20.0893 31.5764 22.4943C31.2099 22.6781 31.0597 23.1259 31.2423 23.4951C31.3718 23.7575 31.6338 23.9102 31.9076 23.9102C32.018 23.9102 32.1314 23.885 32.2374 23.8317C34.4735 22.7137 36.4725 20.7773 38.0197 18.2344C39.1797 16.3262 39.6802 14.7545 39.7008 14.6878H39.6993Z" fill="black"/>
<path d="M59.6004 2.83147H66.0204C67.6604 2.83147 69.0337 3.31147 70.1404 4.27147C70.6604 4.73814 71.1071 5.33147 71.4804 6.05147C71.8671 6.77147 72.1471 7.55147 72.3204 8.39147C72.5071 9.29814 72.6004 10.2848 72.6004 11.3515V18.1115C72.6004 19.2181 72.5071 20.2115 72.3204 21.0915C72.1337 21.9715 71.8537 22.7515 71.4804 23.4315C71.1071 24.1381 70.6604 24.7248 70.1404 25.1915C69.6204 25.6448 69.0071 25.9981 68.3004 26.2515C67.6204 26.5048 66.8604 26.6315 66.0204 26.6315H59.6004V2.83147ZM64.3004 22.2315H64.9604C66.9204 22.2315 67.9004 20.8581 67.9004 18.1115V11.3515C67.9004 8.6048 66.9204 7.23147 64.9604 7.23147H64.3004V22.2315ZM74.2004 26.6315V2.83147H78.9004V26.6315H74.2004ZM85.6098 20.8115V26.6315H80.9098V2.83147H86.4098L88.1898 9.23147C88.3498 9.77814 88.5164 10.3915 88.6898 11.0715C88.8631 11.7381 89.0298 12.4115 89.1898 13.0915C89.3498 13.7581 89.4831 14.3515 89.5898 14.8715C89.8298 15.9781 90.0431 17.0048 90.2298 17.9515C90.4164 18.8981 90.6031 19.8715 90.7898 20.8715C90.8698 21.3515 90.9431 21.8181 91.0098 22.2715C91.0764 22.7381 91.1431 23.1915 91.2098 23.6315H91.6098C91.5031 22.9248 91.4031 22.2915 91.3098 21.7315C91.2164 21.1581 91.1231 20.5715 91.0298 19.9715C90.9364 19.3715 90.8364 18.6581 90.7298 17.8315C90.6364 17.2448 90.5431 16.5848 90.4498 15.8515C90.3564 15.1048 90.2698 14.3715 90.1898 13.6515C90.1098 12.9181 90.0564 12.2715 90.0298 11.7115C89.9898 11.2181 89.9564 10.7381 89.9298 10.2715C89.9164 9.79147 89.9098 9.33147 89.9098 8.89147V2.83147H94.6098V26.6315H89.4098L87.5698 20.4515C87.4364 20.0248 87.2831 19.4915 87.1098 18.8515C86.9364 18.2115 86.7498 17.5315 86.5498 16.8115C86.3631 16.0781 86.1898 15.3581 86.0298 14.6515C85.8031 13.6781 85.5764 12.6781 85.3498 11.6515C85.1231 10.6115 84.9231 9.59147 84.7498 8.59147C84.6564 8.11147 84.5698 7.63814 84.4898 7.17147C84.4098 6.7048 84.3364 6.25814 84.2698 5.83147H83.8698C84.0031 6.69814 84.1498 7.61814 84.3098 8.59147C84.4698 9.55147 84.6298 10.5715 84.7898 11.6515C84.9231 12.6915 85.0564 13.7448 85.1898 14.8115C85.3231 15.8648 85.4298 16.8981 85.5098 17.9115C85.5364 18.4181 85.5564 18.9181 85.5698 19.4115C85.5964 19.8915 85.6098 20.3581 85.6098 20.8115ZM106.604 26.6315H96.6035V2.83147H106.504V7.23147H101.304V11.7715H106.104V16.1715H101.304V22.2315H106.604V26.6315ZM111.7 2.83147L113.58 18.1715C113.607 18.3181 113.634 18.5181 113.66 18.7715C113.687 19.0248 113.707 19.2915 113.72 19.5715C113.747 19.8381 113.767 20.0715 113.78 20.2715C113.807 20.6448 113.827 21.0248 113.84 21.4115C113.854 21.7981 113.867 22.1781 113.88 22.5515C113.88 22.7381 113.88 22.9181 113.88 23.0915V23.6315H114.28C114.28 23.3248 114.28 23.0648 114.28 22.8515C114.294 22.6381 114.3 22.4248 114.3 22.2115C114.314 21.9981 114.327 21.7315 114.34 21.4115C114.34 21.0648 114.354 20.6915 114.38 20.2915C114.407 19.8915 114.44 19.5181 114.48 19.1715C114.494 18.9981 114.507 18.8248 114.52 18.6515C114.534 18.4915 114.554 18.3315 114.58 18.1715L116.46 2.83147H121.16L117.44 26.6315H110.72L107 2.83147H111.7ZM120.946 14.5915C120.946 13.2715 121.152 12.0248 121.566 10.8515C121.979 9.6648 122.559 8.5648 123.306 7.55147C124.039 6.55147 124.912 5.6848 125.926 4.95147C126.952 4.21813 128.052 3.65147 129.226 3.25147C129.812 3.05147 130.419 2.89814 131.046 2.79147C131.686 2.6848 132.332 2.63147 132.986 2.63147C134.332 2.63147 135.599 2.8448 136.786 3.27147C137.972 3.6848 139.059 4.2448 140.046 4.95147C141.179 5.79147 142.099 6.73147 142.806 7.77147C143.512 8.79814 144.039 9.81814 144.386 10.8315C144.586 11.4315 144.739 12.0448 144.846 12.6715C144.952 13.2981 145.006 13.9381 145.006 14.5915C145.006 15.8981 144.799 17.1715 144.386 18.4115C143.986 19.6515 143.419 20.7848 142.686 21.8115C141.939 22.8248 141.052 23.7115 140.026 24.4715C139.012 25.2181 137.926 25.7915 136.766 26.1915C135.552 26.6181 134.292 26.8315 132.986 26.8315C131.652 26.8315 130.386 26.6181 129.186 26.1915C127.986 25.7648 126.892 25.1848 125.906 24.4515C124.906 23.7048 124.032 22.8315 123.286 21.8315C122.552 20.8315 121.979 19.6981 121.566 18.4315C121.366 17.8315 121.212 17.2115 121.106 16.5715C120.999 15.9181 120.946 15.2581 120.946 14.5915ZM125.646 14.6315C125.646 15.4448 125.772 16.2448 126.026 17.0315C126.279 17.8181 126.626 18.5115 127.066 19.1115C127.546 19.7781 128.092 20.3448 128.706 20.8115C129.319 21.2648 129.979 21.6048 130.686 21.8315C131.432 22.0981 132.206 22.2315 133.006 22.2315C133.806 22.2315 134.572 22.1048 135.306 21.8515C136.039 21.5848 136.706 21.2181 137.306 20.7515C137.906 20.2981 138.432 19.7581 138.886 19.1315C139.339 18.4915 139.686 17.7915 139.926 17.0315C140.046 16.6581 140.139 16.2715 140.206 15.8715C140.272 15.4715 140.306 15.0581 140.306 14.6315C140.306 13.8448 140.179 13.0781 139.926 12.3315C139.672 11.5715 139.326 10.8915 138.886 10.2915C137.952 9.0248 136.752 8.13147 135.286 7.61147C134.552 7.35814 133.792 7.23147 133.006 7.23147C132.366 7.23147 131.672 7.33814 130.926 7.55147C130.179 7.75147 129.432 8.1248 128.686 8.67147C128.072 9.1248 127.532 9.65814 127.066 10.2715C126.612 10.8848 126.266 11.5581 126.026 12.2915C125.906 12.6648 125.812 13.0515 125.746 13.4515C125.679 13.8381 125.646 14.2315 125.646 14.6315Z" fill="black"/>
</svg>
