<svg width="128" height="34" viewBox="0 0 128 34" fill="none" xmlns="http://www.w3.org/2000/svg">
<path fill-rule="evenodd" clip-rule="evenodd" d="M9.97816 13.6914C9.97816 7.39436 16.0222 9.65345 15.4454 0C6.78535 0.786421 0 8.08087 0 16.9642C0 26.3724 7.61144 34 16.9999 34C26.3898 34 34 26.3724 34 16.9642C34 8.08085 27.2139 0.786398 18.5539 0C17.9785 9.65345 24.0218 7.39434 24.0218 13.6914L23.1685 27.5193C23.1685 28.0024 22.7745 28.3972 22.2929 28.3972C21.8114 28.3972 21.4175 28.0024 21.4175 27.5193V14.6862C21.4175 14.2186 21.0346 13.8349 20.568 13.8349C20.1014 13.8349 19.7184 14.216 19.7184 14.6862L19.64 27.5193C19.64 28.0024 19.2461 28.3972 18.7644 28.3972C18.2823 28.3972 17.8884 28.0024 17.8884 27.5193V18.3947C17.8884 17.9271 17.5061 17.5429 17.0395 17.5429C16.5729 17.5429 16.19 17.9248 16.19 18.3947V27.2951C16.19 28.0192 15.7131 28.3919 15.2355 28.3972C14.7584 28.3919 14.2815 28.0192 14.2815 27.2951V22.2604C14.2815 21.7905 13.8986 21.4091 13.432 21.4091C12.9661 21.4091 12.5832 21.7931 12.5832 22.2604V27.5193C12.5832 28.0024 12.189 28.3972 11.7076 28.3972C11.2254 28.3972 10.8315 28.0024 10.8315 27.5193" fill="white"/>
<path d="M41.6004 5.2H48.0204C49.6604 5.2 51.0337 5.68 52.1404 6.64C52.6604 7.10667 53.1071 7.7 53.4804 8.42C53.8671 9.14 54.1471 9.92 54.3204 10.76C54.5071 11.6667 54.6004 12.6533 54.6004 13.72V20.48C54.6004 21.5867 54.5071 22.58 54.3204 23.46C54.1337 24.34 53.8537 25.12 53.4804 25.8C53.1071 26.5067 52.6604 27.0933 52.1404 27.56C51.6204 28.0133 51.0071 28.3667 50.3004 28.62C49.6204 28.8733 48.8604 29 48.0204 29H41.6004V5.2ZM46.3004 24.6H46.9604C48.9204 24.6 49.9004 23.2267 49.9004 20.48V13.72C49.9004 10.9733 48.9204 9.6 46.9604 9.6H46.3004V24.6ZM56.2004 29V5.2H60.9004V29H56.2004ZM67.6098 23.18V29H62.9098V5.2H68.4098L70.1898 11.6C70.3498 12.1467 70.5164 12.76 70.6898 13.44C70.8631 14.1067 71.0298 14.78 71.1898 15.46C71.3498 16.1267 71.4831 16.72 71.5898 17.24C71.8298 18.3467 72.0431 19.3733 72.2298 20.32C72.4164 21.2667 72.6031 22.24 72.7898 23.24C72.8698 23.72 72.9431 24.1867 73.0098 24.64C73.0764 25.1067 73.1431 25.56 73.2098 26H73.6098C73.5031 25.2933 73.4031 24.66 73.3098 24.1C73.2164 23.5267 73.1231 22.94 73.0298 22.34C72.9364 21.74 72.8364 21.0267 72.7298 20.2C72.6364 19.6133 72.5431 18.9533 72.4498 18.22C72.3564 17.4733 72.2698 16.74 72.1898 16.02C72.1098 15.2867 72.0564 14.64 72.0298 14.08C71.9898 13.5867 71.9564 13.1067 71.9298 12.64C71.9164 12.16 71.9098 11.7 71.9098 11.26V5.2H76.6098V29H71.4098L69.5698 22.82C69.4364 22.3933 69.2831 21.86 69.1098 21.22C68.9364 20.58 68.7498 19.9 68.5498 19.18C68.3631 18.4467 68.1898 17.7267 68.0298 17.02C67.8031 16.0467 67.5764 15.0467 67.3498 14.02C67.1231 12.98 66.9231 11.96 66.7498 10.96C66.6564 10.48 66.5698 10.0067 66.4898 9.54C66.4098 9.07333 66.3364 8.62667 66.2698 8.2H65.8698C66.0031 9.06667 66.1498 9.98667 66.3098 10.96C66.4698 11.92 66.6298 12.94 66.7898 14.02C66.9231 15.06 67.0564 16.1133 67.1898 17.18C67.3231 18.2333 67.4298 19.2667 67.5098 20.28C67.5364 20.7867 67.5564 21.2867 67.5698 21.78C67.5964 22.26 67.6098 22.7267 67.6098 23.18ZM88.6035 29H78.6035V5.2H88.5035V9.6H83.3035V14.14H88.1035V18.54H83.3035V24.6H88.6035V29ZM93.7004 5.2L95.5804 20.54C95.6071 20.6867 95.6337 20.8867 95.6604 21.14C95.6871 21.3933 95.7071 21.66 95.7204 21.94C95.7471 22.2067 95.7671 22.44 95.7804 22.64C95.8071 23.0133 95.8271 23.3933 95.8404 23.78C95.8537 24.1667 95.8671 24.5467 95.8804 24.92C95.8804 25.1067 95.8804 25.2867 95.8804 25.46V26H96.2804C96.2804 25.6933 96.2804 25.4333 96.2804 25.22C96.2937 25.0067 96.3004 24.7933 96.3004 24.58C96.3137 24.3667 96.3271 24.1 96.3404 23.78C96.3404 23.4333 96.3537 23.06 96.3804 22.66C96.4071 22.26 96.4404 21.8867 96.4804 21.54C96.4937 21.3667 96.5071 21.1933 96.5204 21.02C96.5337 20.86 96.5537 20.7 96.5804 20.54L98.4604 5.2H103.16L99.4404 29H92.7204L89.0004 5.2H93.7004ZM102.946 16.96C102.946 15.64 103.152 14.3933 103.566 13.22C103.979 12.0333 104.559 10.9333 105.306 9.92C106.039 8.92 106.912 8.05333 107.926 7.32C108.952 6.58667 110.052 6.02 111.226 5.62C111.812 5.42 112.419 5.26667 113.046 5.16C113.686 5.05333 114.332 5 114.986 5C116.332 5 117.599 5.21333 118.786 5.64C119.972 6.05333 121.059 6.61333 122.046 7.32C123.179 8.16 124.099 9.1 124.806 10.14C125.512 11.1667 126.039 12.1867 126.386 13.2C126.586 13.8 126.739 14.4133 126.846 15.04C126.952 15.6667 127.006 16.3067 127.006 16.96C127.006 18.2667 126.799 19.54 126.386 20.78C125.986 22.02 125.419 23.1533 124.686 24.18C123.939 25.1933 123.052 26.08 122.026 26.84C121.012 27.5867 119.926 28.16 118.766 28.56C117.552 28.9867 116.292 29.2 114.986 29.2C113.652 29.2 112.386 28.9867 111.186 28.56C109.986 28.1333 108.892 27.5533 107.906 26.82C106.906 26.0733 106.032 25.2 105.286 24.2C104.552 23.2 103.979 22.0667 103.566 20.8C103.366 20.2 103.212 19.58 103.106 18.94C102.999 18.2867 102.946 17.6267 102.946 16.96ZM107.646 17C107.646 17.8133 107.772 18.6133 108.026 19.4C108.279 20.1867 108.626 20.88 109.066 21.48C109.546 22.1467 110.092 22.7133 110.706 23.18C111.319 23.6333 111.979 23.9733 112.686 24.2C113.432 24.4667 114.206 24.6 115.006 24.6C115.806 24.6 116.572 24.4733 117.306 24.22C118.039 23.9533 118.706 23.5867 119.306 23.12C119.906 22.6667 120.432 22.1267 120.886 21.5C121.339 20.86 121.686 20.16 121.926 19.4C122.046 19.0267 122.139 18.64 122.206 18.24C122.272 17.84 122.306 17.4267 122.306 17C122.306 16.2133 122.179 15.4467 121.926 14.7C121.672 13.94 121.326 13.26 120.886 12.66C119.952 11.3933 118.752 10.5 117.286 9.98C116.552 9.72667 115.792 9.6 115.006 9.6C114.366 9.6 113.672 9.70667 112.926 9.92C112.179 10.12 111.432 10.4933 110.686 11.04C110.072 11.4933 109.532 12.0267 109.066 12.64C108.612 13.2533 108.266 13.9267 108.026 14.66C107.906 15.0333 107.812 15.42 107.746 15.82C107.679 16.2067 107.646 16.6 107.646 17Z" fill="white"/>
</svg>
