<svg width="146" height="30" viewBox="0 0 146 30" fill="none" xmlns="http://www.w3.org/2000/svg">
<path d="M15.8785 26.197C15.8785 26.5706 15.9168 26.9398 15.9889 27.3031C16.2981 27.1607 16.591 26.9828 16.8678 26.7737C20.2712 24.2042 19.756 17.7232 15.7181 12.2965C12.2131 7.58592 7.2051 5.21803 3.71924 6.35675C3.82964 6.59547 3.91061 6.84901 4.00335 7.09811L4.13289 7.59482C4.17852 7.76236 4.19766 7.92991 4.23152 8.09746C4.33898 8.77061 4.36842 9.4408 4.42436 10.0784C4.47735 10.7174 4.58187 11.3194 4.77913 11.8888C4.86009 12.1779 5.00583 12.4433 5.12212 12.7176L5.35029 13.109C5.42537 13.2395 5.49897 13.373 5.59466 13.4931C5.77425 13.7392 5.94059 13.9942 6.14816 14.2196L6.44404 14.568C6.55003 14.6763 6.65896 14.7756 6.7679 14.8794C6.97546 15.0988 7.21982 15.259 7.44652 15.4473C7.6953 15.6015 7.93378 15.769 8.20317 15.8876C8.73017 16.1545 9.30575 16.3488 9.92843 16.5371C10.5496 16.7358 11.215 16.9567 11.851 17.2873C12.1733 17.443 12.4678 17.655 12.7666 17.8552C13.0419 18.088 13.3363 18.3 13.5703 18.5654C13.6925 18.6959 13.8206 18.819 13.9354 18.9509L14.2622 19.3631C14.4889 19.63 14.6641 19.934 14.8525 20.2275C14.9526 20.3699 15.0306 20.53 15.1101 20.6857C15.1881 20.8458 15.272 21.0015 15.3442 21.1617C15.4649 21.4968 15.6077 21.8229 15.6828 22.1744C15.8638 22.8623 15.9198 23.574 15.9065 24.2457C15.9006 24.9174 15.855 25.5638 15.8756 26.1955L15.8785 26.197Z" fill="#3E2723"/>
<path d="M41.6293 27.8217C39.851 27.7016 38.0727 27.6111 36.2945 27.537C35.4569 27.5029 34.6193 27.4747 33.7817 27.4495C35.3965 26.6829 36.8877 25.651 38.1949 24.3758C39.1209 23.4714 39.9217 22.478 40.5914 21.4148C41.7029 22.002 42.9409 22.3119 44.2083 22.3119C48.5038 22.3119 52 18.7904 52 14.4639C52 10.1373 48.5053 6.61587 44.2083 6.61587C43.7358 6.61587 43.2662 6.65887 42.8054 6.74339C42.7701 6.70335 42.7304 6.66629 42.6877 6.63367C42.0017 2.91947 34.9814 0 26.4198 0C19.0845 0 12.8797 2.14401 10.8232 5.09461C10.7408 5.15836 10.6701 5.23991 10.6201 5.33777C10.4287 5.70252 10.5671 6.15475 10.9307 6.3475C13.6849 7.81094 16.2728 10.7022 18.0334 14.2815C18.1041 14.4253 18.1777 14.5766 18.2498 14.7337C20.2754 19.0825 20.8539 23.8094 19.8029 27.3932C18.3558 27.4228 16.9073 27.4658 15.4603 27.5207C15.4868 27.5118 15.5118 27.5029 15.5383 27.494C15.5103 27.4198 15.4838 27.3413 15.4558 27.2671L15.3263 26.7704C15.2807 26.6029 15.2615 26.4353 15.2277 26.2678C15.1202 25.5946 15.0908 24.9244 15.0334 24.2883C14.9804 23.6493 14.8758 23.0473 14.6786 22.478C14.5976 22.1888 14.4519 21.9234 14.3341 21.6476L14.1104 21.2562C14.0353 21.1257 13.9617 20.9923 13.866 20.8722C13.6849 20.6275 13.5201 20.3695 13.3125 20.1456L13.0152 19.7987C12.9121 19.6905 12.8002 19.5911 12.6942 19.4858C12.4881 19.2679 12.2438 19.1048 12.0156 18.918C11.7683 18.7652 11.5298 18.5977 11.259 18.4776C10.7334 18.2092 10.1564 18.0165 9.53518 17.8267C8.91396 17.628 8.24859 17.4071 7.61265 17.0764C7.29174 16.9207 6.99585 16.7087 6.69555 16.51C6.42322 16.2787 6.12733 16.0637 5.89327 15.7983C5.77109 15.6678 5.64449 15.5433 5.5282 15.4128L5.2014 15.0006C4.9747 14.7337 4.801 14.4283 4.6111 14.1362C4.51394 13.9939 4.43445 13.8352 4.35496 13.6766C4.27547 13.5179 4.19156 13.3622 4.11796 13.2021C3.99725 12.867 3.85445 12.5408 3.78085 12.1924C3.59979 11.5044 3.5409 10.7927 3.5571 10.121C3.56151 9.44637 3.60715 8.80436 3.58654 8.16976C3.58654 7.60633 3.49821 7.04734 3.3407 6.50467C2.95355 6.6648 2.58847 6.87387 2.2499 7.12889C-1.15206 9.69695 -0.638305 16.1794 3.39959 21.6061C5.88738 24.9511 9.13477 27.1144 12.0568 27.6793C11.2472 27.7223 10.4376 27.7712 9.62792 27.8261C8.73879 27.8884 7.84965 27.9536 6.96052 28.0307C6.07139 28.1078 5.18226 28.1923 4.29313 28.2991C5.18226 28.4073 6.07139 28.4918 6.96052 28.5675C7.84965 28.646 8.73879 28.7113 9.62792 28.7721C11.4062 28.8922 13.1844 28.9826 14.9627 29.0568C18.5192 29.1976 22.0757 29.2643 25.6323 29.2629C29.1888 29.2629 32.7453 29.1961 36.3018 29.0538C38.0801 28.9797 39.8584 28.8892 41.6366 28.7691C42.5258 28.7068 43.4149 28.6431 44.304 28.5645C45.1931 28.4874 46.0823 28.4044 46.9714 28.2976C46.0823 28.1909 45.1931 28.1063 44.304 28.0307C43.4149 27.9536 42.5258 27.8884 41.6366 27.8261L41.6293 27.8217ZM42.9865 13.0864V8.22907C43.3869 8.15048 43.7947 8.10897 44.2083 8.10897C47.6868 8.10897 50.5162 10.9587 50.5162 14.4624C50.5162 17.9661 47.6868 20.8158 44.2083 20.8158C43.2 20.8158 42.2137 20.5741 41.326 20.113C42.4124 17.9527 42.988 15.5626 42.988 13.085L42.9865 13.0864ZM25.6264 27.3294C24.6578 27.3294 23.6906 27.3338 22.722 27.3442C22.2833 27.2716 21.849 27.1811 21.4192 27.0699C22.2951 23.2549 21.6341 18.4761 19.5924 14.0947C19.5408 13.9835 19.4878 13.8738 19.4378 13.7685C21.5546 14.2133 23.9217 14.4624 26.4198 14.4624C33.2208 14.4624 39.0487 12.6194 41.5027 9.99943V13.085C41.5027 20.2524 36.1222 26.2174 29.0887 27.3502C27.9346 27.3353 26.7805 27.3279 25.6264 27.3279V27.3294Z" fill="#3E2723"/>
<path d="M39.6993 14.687C39.823 14.294 39.6066 13.8744 39.2165 13.7499C38.8264 13.6253 38.4098 13.8433 38.2846 14.2362C38.267 14.294 36.3871 20.0885 31.5764 22.4935C31.2099 22.6773 31.0597 23.1251 31.2423 23.4943C31.3718 23.7567 31.6338 23.9095 31.9076 23.9095C32.018 23.9095 32.1314 23.8842 32.2374 23.8309C34.4735 22.7129 36.4725 20.7765 38.0197 18.2336C39.1797 16.3254 39.6802 14.7537 39.7008 14.687H39.6993Z" fill="#3E2723"/>
<path d="M59.6004 2.83281H66.0204C67.6604 2.83281 69.0337 3.31281 70.1404 4.27281C70.6604 4.73948 71.1071 5.33281 71.4804 6.05281C71.8671 6.77281 72.1471 7.55281 72.3204 8.39281C72.5071 9.29948 72.6004 10.2861 72.6004 11.3528V18.1128C72.6004 19.2195 72.5071 20.2128 72.3204 21.0928C72.1337 21.9728 71.8537 22.7528 71.4804 23.4328C71.1071 24.1395 70.6604 24.7261 70.1404 25.1928C69.6204 25.6461 69.0071 25.9995 68.3004 26.2528C67.6204 26.5061 66.8604 26.6328 66.0204 26.6328H59.6004V2.83281ZM64.3004 22.2328H64.9604C66.9204 22.2328 67.9004 20.8595 67.9004 18.1128V11.3528C67.9004 8.60615 66.9204 7.23281 64.9604 7.23281H64.3004V22.2328ZM74.2004 26.6328V2.83281H78.9004V26.6328H74.2004ZM85.6098 20.8128V26.6328H80.9098V2.83281H86.4098L88.1898 9.23281C88.3498 9.77948 88.5164 10.3928 88.6898 11.0728C88.8631 11.7395 89.0298 12.4128 89.1898 13.0928C89.3498 13.7595 89.4831 14.3528 89.5898 14.8728C89.8298 15.9795 90.0431 17.0061 90.2298 17.9528C90.4164 18.8995 90.6031 19.8728 90.7898 20.8728C90.8698 21.3528 90.9431 21.8195 91.0098 22.2728C91.0764 22.7395 91.1431 23.1928 91.2098 23.6328H91.6098C91.5031 22.9261 91.4031 22.2928 91.3098 21.7328C91.2164 21.1595 91.1231 20.5728 91.0298 19.9728C90.9364 19.3728 90.8364 18.6595 90.7298 17.8328C90.6364 17.2461 90.5431 16.5861 90.4498 15.8528C90.3564 15.1061 90.2698 14.3728 90.1898 13.6528C90.1098 12.9195 90.0564 12.2728 90.0298 11.7128C89.9898 11.2195 89.9564 10.7395 89.9298 10.2728C89.9164 9.79281 89.9098 9.33281 89.9098 8.89281V2.83281H94.6098V26.6328H89.4098L87.5698 20.4528C87.4364 20.0261 87.2831 19.4928 87.1098 18.8528C86.9364 18.2128 86.7498 17.5328 86.5498 16.8128C86.3631 16.0795 86.1898 15.3595 86.0298 14.6528C85.8031 13.6795 85.5764 12.6795 85.3498 11.6528C85.1231 10.6128 84.9231 9.59281 84.7498 8.59281C84.6564 8.11281 84.5698 7.63948 84.4898 7.17281C84.4098 6.70615 84.3364 6.25948 84.2698 5.83281H83.8698C84.0031 6.69948 84.1498 7.61948 84.3098 8.59281C84.4698 9.55281 84.6298 10.5728 84.7898 11.6528C84.9231 12.6928 85.0564 13.7461 85.1898 14.8128C85.3231 15.8661 85.4298 16.8995 85.5098 17.9128C85.5364 18.4195 85.5564 18.9195 85.5698 19.4128C85.5964 19.8928 85.6098 20.3595 85.6098 20.8128ZM106.604 26.6328H96.6035V2.83281H106.504V7.23281H101.304V11.7728H106.104V16.1728H101.304V22.2328H106.604V26.6328ZM111.7 2.83281L113.58 18.1728C113.607 18.3195 113.634 18.5195 113.66 18.7728C113.687 19.0261 113.707 19.2928 113.72 19.5728C113.747 19.8395 113.767 20.0728 113.78 20.2728C113.807 20.6461 113.827 21.0261 113.84 21.4128C113.854 21.7995 113.867 22.1795 113.88 22.5528C113.88 22.7395 113.88 22.9195 113.88 23.0928V23.6328H114.28C114.28 23.3261 114.28 23.0661 114.28 22.8528C114.294 22.6395 114.3 22.4261 114.3 22.2128C114.314 21.9995 114.327 21.7328 114.34 21.4128C114.34 21.0661 114.354 20.6928 114.38 20.2928C114.407 19.8928 114.44 19.5195 114.48 19.1728C114.494 18.9995 114.507 18.8261 114.52 18.6528C114.534 18.4928 114.554 18.3328 114.58 18.1728L116.46 2.83281H121.16L117.44 26.6328H110.72L107 2.83281H111.7ZM120.946 14.5928C120.946 13.2728 121.152 12.0261 121.566 10.8528C121.979 9.66615 122.559 8.56615 123.306 7.55281C124.039 6.55281 124.912 5.68614 125.926 4.95281C126.952 4.21948 128.052 3.65281 129.226 3.25281C129.812 3.05281 130.419 2.89948 131.046 2.79281C131.686 2.68614 132.332 2.63281 132.986 2.63281C134.332 2.63281 135.599 2.84614 136.786 3.27281C137.972 3.68614 139.059 4.24614 140.046 4.95281C141.179 5.79281 142.099 6.73281 142.806 7.77281C143.512 8.79948 144.039 9.81948 144.386 10.8328C144.586 11.4328 144.739 12.0461 144.846 12.6728C144.952 13.2995 145.006 13.9395 145.006 14.5928C145.006 15.8995 144.799 17.1728 144.386 18.4128C143.986 19.6528 143.419 20.7861 142.686 21.8128C141.939 22.8261 141.052 23.7128 140.026 24.4728C139.012 25.2195 137.926 25.7928 136.766 26.1928C135.552 26.6195 134.292 26.8328 132.986 26.8328C131.652 26.8328 130.386 26.6195 129.186 26.1928C127.986 25.7661 126.892 25.1861 125.906 24.4528C124.906 23.7061 124.032 22.8328 123.286 21.8328C122.552 20.8328 121.979 19.6995 121.566 18.4328C121.366 17.8328 121.212 17.2128 121.106 16.5728C120.999 15.9195 120.946 15.2595 120.946 14.5928ZM125.646 14.6328C125.646 15.4461 125.772 16.2461 126.026 17.0328C126.279 17.8195 126.626 18.5128 127.066 19.1128C127.546 19.7795 128.092 20.3461 128.706 20.8128C129.319 21.2661 129.979 21.6061 130.686 21.8328C131.432 22.0995 132.206 22.2328 133.006 22.2328C133.806 22.2328 134.572 22.1061 135.306 21.8528C136.039 21.5861 136.706 21.2195 137.306 20.7528C137.906 20.2995 138.432 19.7595 138.886 19.1328C139.339 18.4928 139.686 17.7928 139.926 17.0328C140.046 16.6595 140.139 16.2728 140.206 15.8728C140.272 15.4728 140.306 15.0595 140.306 14.6328C140.306 13.8461 140.179 13.0795 139.926 12.3328C139.672 11.5728 139.326 10.8928 138.886 10.2928C137.952 9.02614 136.752 8.13281 135.286 7.61281C134.552 7.35948 133.792 7.23281 133.006 7.23281C132.366 7.23281 131.672 7.33948 130.926 7.55281C130.179 7.75281 129.432 8.12614 128.686 8.67281C128.072 9.12615 127.532 9.65948 127.066 10.2728C126.612 10.8861 126.266 11.5595 126.026 12.2928C125.906 12.6661 125.812 13.0528 125.746 13.4528C125.679 13.8395 125.646 14.2328 125.646 14.6328Z" fill="#3E2723"/>
</svg>
