<svg width="52" height="30" viewBox="0 0 52 30" fill="none" xmlns="http://www.w3.org/2000/svg">
<path d="M15.8785 26.1981C15.8785 26.5717 15.9168 26.9409 15.9889 27.3042C16.2981 27.1618 16.591 26.9839 16.8678 26.7749C20.2712 24.2053 19.756 17.7244 15.7181 12.2976C12.2131 7.58705 7.2051 5.21916 3.71924 6.35788C3.82964 6.5966 3.91061 6.85014 4.00335 7.09924L4.13289 7.59595C4.17852 7.76349 4.19766 7.93104 4.23152 8.09859C4.33898 8.77174 4.36842 9.44193 4.42436 10.0795C4.47735 10.7185 4.58187 11.3205 4.77913 11.8899C4.86009 12.179 5.00583 12.4444 5.12212 12.7187L5.35029 13.1102C5.42537 13.2406 5.49897 13.3741 5.59466 13.4942C5.77425 13.7403 5.94059 13.9953 6.14816 14.2207L6.44404 14.5692C6.55003 14.6774 6.65896 14.7767 6.7679 14.8805C6.97546 15.1 7.21982 15.2601 7.44652 15.4484C7.6953 15.6026 7.93378 15.7702 8.20317 15.8888C8.73017 16.1557 9.30575 16.3499 9.92843 16.5382C10.5496 16.7369 11.215 16.9578 11.851 17.2885C12.1733 17.4441 12.4678 17.6562 12.7666 17.8563C13.0419 18.0891 13.3363 18.3011 13.5703 18.5666C13.6925 18.697 13.8206 18.8201 13.9354 18.9521L14.2622 19.3643C14.4889 19.6311 14.6641 19.9351 14.8525 20.2287C14.9526 20.371 15.0306 20.5311 15.1101 20.6868C15.1881 20.847 15.272 21.0027 15.3442 21.1628C15.4649 21.4979 15.6077 21.8241 15.6828 22.1755C15.8638 22.8635 15.9198 23.5752 15.9065 24.2468C15.9006 24.9185 15.855 25.565 15.8756 26.1966L15.8785 26.1981Z" fill="white"/>
<path d="M41.6293 27.8217C39.851 27.7016 38.0727 27.6111 36.2945 27.537C35.4569 27.5029 34.6193 27.4747 33.7817 27.4495C35.3965 26.6829 36.8877 25.651 38.1949 24.3758C39.1209 23.4714 39.9217 22.478 40.5914 21.4148C41.7029 22.002 42.9409 22.3119 44.2083 22.3119C48.5038 22.3119 52 18.7904 52 14.4639C52 10.1373 48.5053 6.61587 44.2083 6.61587C43.7358 6.61587 43.2662 6.65887 42.8054 6.74339C42.7701 6.70335 42.7304 6.66629 42.6877 6.63367C42.0017 2.91947 34.9814 0 26.4198 0C19.0845 0 12.8797 2.14401 10.8232 5.09461C10.7408 5.15836 10.6701 5.23991 10.6201 5.33777C10.4287 5.70252 10.5671 6.15475 10.9307 6.3475C13.6849 7.81094 16.2728 10.7022 18.0334 14.2815C18.1041 14.4253 18.1777 14.5766 18.2498 14.7337C20.2754 19.0825 20.8539 23.8094 19.8029 27.3932C18.3558 27.4228 16.9073 27.4658 15.4603 27.5207C15.4868 27.5118 15.5118 27.5029 15.5383 27.494C15.5103 27.4198 15.4838 27.3413 15.4558 27.2671L15.3263 26.7704C15.2807 26.6029 15.2615 26.4353 15.2277 26.2678C15.1202 25.5946 15.0908 24.9244 15.0334 24.2883C14.9804 23.6493 14.8758 23.0473 14.6786 22.478C14.5976 22.1888 14.4519 21.9234 14.3341 21.6476L14.1104 21.2562C14.0353 21.1257 13.9617 20.9923 13.866 20.8722C13.6849 20.6275 13.5201 20.3695 13.3125 20.1456L13.0152 19.7987C12.9121 19.6905 12.8002 19.5911 12.6942 19.4858C12.4881 19.2679 12.2438 19.1048 12.0156 18.918C11.7683 18.7652 11.5298 18.5977 11.259 18.4776C10.7334 18.2092 10.1564 18.0165 9.53518 17.8267C8.91396 17.628 8.24859 17.4071 7.61265 17.0764C7.29174 16.9207 6.99585 16.7087 6.69555 16.51C6.42322 16.2787 6.12733 16.0637 5.89327 15.7983C5.77109 15.6678 5.64449 15.5433 5.5282 15.4128L5.2014 15.0006C4.9747 14.7337 4.801 14.4283 4.6111 14.1362C4.51394 13.9939 4.43445 13.8352 4.35496 13.6766C4.27547 13.5179 4.19156 13.3622 4.11796 13.2021C3.99725 12.867 3.85445 12.5408 3.78085 12.1924C3.59979 11.5044 3.5409 10.7927 3.5571 10.121C3.56151 9.44637 3.60715 8.80436 3.58654 8.16976C3.58654 7.60633 3.49821 7.04734 3.3407 6.50467C2.95355 6.6648 2.58847 6.87387 2.2499 7.12889C-1.15206 9.69695 -0.638305 16.1794 3.39959 21.6061C5.88738 24.9511 9.13477 27.1144 12.0568 27.6793C11.2472 27.7223 10.4376 27.7712 9.62792 27.8261C8.73879 27.8884 7.84965 27.9536 6.96052 28.0307C6.07139 28.1078 5.18226 28.1923 4.29313 28.2991C5.18226 28.4073 6.07139 28.4918 6.96052 28.5675C7.84965 28.646 8.73879 28.7113 9.62792 28.7721C11.4062 28.8922 13.1844 28.9826 14.9627 29.0568C18.5192 29.1976 22.0757 29.2643 25.6323 29.2629C29.1888 29.2629 32.7453 29.1961 36.3018 29.0538C38.0801 28.9797 39.8584 28.8892 41.6366 28.7691C42.5258 28.7068 43.4149 28.6431 44.304 28.5645C45.1931 28.4874 46.0823 28.4044 46.9714 28.2976C46.0823 28.1909 45.1931 28.1063 44.304 28.0307C43.4149 27.9536 42.5258 27.8884 41.6366 27.8261L41.6293 27.8217ZM42.9865 13.0864V8.22907C43.3869 8.15048 43.7947 8.10897 44.2083 8.10897C47.6868 8.10897 50.5162 10.9587 50.5162 14.4624C50.5162 17.9661 47.6868 20.8158 44.2083 20.8158C43.2 20.8158 42.2137 20.5741 41.326 20.113C42.4124 17.9527 42.988 15.5626 42.988 13.085L42.9865 13.0864ZM25.6264 27.3294C24.6578 27.3294 23.6906 27.3338 22.722 27.3442C22.2833 27.2716 21.849 27.1811 21.4192 27.0699C22.2951 23.2549 21.6341 18.4761 19.5924 14.0947C19.5408 13.9835 19.4878 13.8738 19.4378 13.7685C21.5546 14.2133 23.9217 14.4624 26.4198 14.4624C33.2208 14.4624 39.0487 12.6194 41.5027 9.99943V13.085C41.5027 20.2524 36.1222 26.2174 29.0887 27.3502C27.9346 27.3353 26.7805 27.3279 25.6264 27.3279V27.3294Z" fill="white"/>
<path d="M39.6993 14.6878C39.823 14.2949 39.6066 13.8753 39.2165 13.7507C38.8264 13.6262 38.4098 13.8441 38.2846 14.237C38.267 14.2949 36.3871 20.0893 31.5764 22.4943C31.2099 22.6781 31.0597 23.1259 31.2423 23.4951C31.3718 23.7576 31.6338 23.9103 31.9076 23.9103C32.018 23.9103 32.1314 23.8851 32.2374 23.8317C34.4735 22.7137 36.4725 20.7773 38.0197 18.2344C39.1797 16.3262 39.6802 14.7545 39.7008 14.6878H39.6993Z" fill="white"/>
</svg>
