<svg xmlns="http://www.w3.org/2000/svg" width="100" height="49" fill="none" viewBox="0 0 100 49"><path fill="#8b1e1e" d="M90.6 3.397c.937 1.399 1.835 3.124 1.393 4.973-1.524-.872-2.75-2.297-3.723-3.703C87.29 3.25 86.274 1.745 85.926 0c1.923.492 3.644 1.857 4.675 3.397M7.95 8.366c-.441-1.85.459-3.575 1.396-4.972C10.378 1.854 12.1.49 14.024 0c-.35 1.745-1.368 3.25-2.348 4.665-.974 1.406-2.202 2.83-3.727 3.7"/><path fill="#8b1e1e" d="M6.608 11.916c.344-1.465.336-3.068.009-4.442-.288-1.207-.707-2.914-2.086-3.49-1.002 1.608-1.405 3.798-.821 5.438.422 1.187 1.182 2.756 2.757 2.999 1.446.333 2.908-.438 4.062-1.075 1.284-.707 2.541-1.834 3.305-3.172-1.401-.708-2.997-.134-4.198.416-1.294.593-2.483 1.866-3.028 3.326m28.054 1.406V5.97h-2.51v2.679h-3.767v-2.68h-2.51v7.354h2.51v-2.67h3.766v2.67zm8.323-7.353h2.772l-3.934 4.927v2.426h-2.52v-2.417L35.416 5.97h2.857l2.323 2.941z"/><path fill="#8b1e1e" fill-rule="evenodd" d="M54.503 6.596c.497.394.778 1.059.778 2.024 0 .787-.197 1.377-.572 1.789-.506.58-1.34.843-2.426.852-.337.01-3.222 0-3.222 0v2.061h-2.52V5.97h5.705c1.011 0 1.78.206 2.257.627M52.64 9.191c.075-.131.113-.3.113-.534 0-.243-.047-.45-.132-.562-.159-.234-.459-.347-.946-.347h-2.632v1.8h2.614c.524 0 .833-.123.983-.357" clip-rule="evenodd"/><path fill="#8b1e1e" d="M64.03 11.495v1.827h-7.747V5.97h7.682v1.836h-5.209v.946h5.059v1.789h-5.059v.955z"/><path fill="#8b1e1e" fill-rule="evenodd" d="M73.433 6.718c.338.347.497.824.497 1.49 0 .571-.14 1.058-.375 1.386-.262.356-.665.656-1.161.73l2.22 2.998h-2.792l-1.826-2.595H67.72v2.595h-2.5V5.97h5.854c1.161 0 1.92.28 2.36.75M71.41 8.826a.8.8 0 0 0 .084-.384c0-.14-.018-.29-.084-.384-.13-.244-.393-.31-.787-.31H67.73v1.34h2.941c.403 0 .647-.075.74-.262" clip-rule="evenodd"/><path fill="#8b1e1e" d="M62.689 22.543c0-1.681-1.068-2.564-3.559-2.834a84 84 0 0 0-2.343-.234c-1.926-.208-2.503-.319-2.503-.81 0-.441.454-.65 2.184-.65 1.227 0 1.914.233 2.184.59.135.171.184.306.196.441h3.534a3.4 3.4 0 0 0-.356-1.08c-.638-1.227-2.172-2.208-5.472-2.208-3.718 0-5.754 1.313-5.754 3.03 0 1.657 1.153 2.626 4.27 2.908.352.03 1.108.102 1.728.16l.038.004h.01l.334.032c1.631.172 2.073.283 2.073.798 0 .478-.43.736-2.233.736-1.399 0-2.22-.208-2.515-.564a1.2 1.2 0 0 1-.233-.516h-3.534c.037.246.098.638.233.957.602 1.35 2.172 2.38 5.816 2.38 3.914 0 5.902-1.104 5.902-3.14"/><path fill="#8b1e1e" fill-rule="evenodd" d="M37.639 24.556c.368-.43.552-1.08.552-1.742 0-.564-.148-1.104-.454-1.46-.368-.479-1.019-.822-1.706-.908.467-.061.908-.307 1.166-.626.319-.38.466-.896.466-1.521 0-.626-.184-1.178-.601-1.595-.466-.479-1.313-.798-2.638-.798h-8.318v9.632h8.551c1.362 0 2.417-.295 2.982-.982m-3.387-5.68a.83.83 0 0 1-.196.564c-.172.16-.49.22-.908.22H29.32v-1.57h3.742c.466 0 .785.062.957.221.16.135.233.331.233.564m.368 4.22c-.196.184-.54.258-1.116.258H29.32v-1.607h4.22c.54 0 .86.073 1.043.233.148.147.209.33.209.576 0 .233-.049.417-.172.54" clip-rule="evenodd"/><path fill="#8b1e1e" d="M49.74 23.145v2.393H39.594v-9.632h10.06v2.405h-6.821v1.24h6.625v2.343h-6.625v1.251zm24.887-4.822v-2.417H63.13v2.417h4.061v7.215h3.361v-7.215zm-.291 15.737h-.541l-.039-.52c-.165.264-.514.58-1.252.58-1.247 0-1.826-.752-1.826-2.67 0-1.483.369-2.677 1.89-2.677 1.32 0 1.722.864 1.742 1.794h-.66c-.019-.607-.29-1.167-1.068-1.167-.935 0-1.206.56-1.206 2.07 0 1.575.337 2.07 1.22 2.07.62 0 .982-.343 1.101-.752v-.982h-1.332v-.6h1.964v1.516c0 .453.005.937.006 1.18z"/><path fill="#8b1e1e" fill-rule="evenodd" d="M26.229 32.75h1.845l.383 1.311h.698l-1.529-5.221h-.85l-1.636 5.22h.692zm1.68-.588h-1.503l.666-2.155.112-.501.073.346.033.155c.006.033.62 2.155.62 2.155" clip-rule="evenodd"/><path fill="#8b1e1e" d="M34.158 28.84h.633l-1.233 5.221h-.784s-.877-4.06-.877-4.232c-.007.171-.903 4.232-.903 4.232h-.785l-1.232-5.221h.712s.955 4.133.955 4.298c0-.165.877-4.298.877-4.298h.785s.877 4.14.877 4.298c0-.158.975-4.298.975-4.298"/><path fill="#8b1e1e" fill-rule="evenodd" d="M37.502 32.75h-1.846l-.395 1.311h-.693l1.635-5.221h.85l1.53 5.221h-.698zm-1.668-.588h1.503s-.613-2.122-.62-2.155l-.05-.238-.055-.263-.112.5c-.013.047-.666 2.156-.666 2.156m5.289-3.322c.804 0 1.239.376 1.239 1.47 0 .93-.35 1.24-.712 1.345l1.002 2.406h-.725l-.93-2.274h-1.265v2.274h-.66V28.84zm-.1 2.353c.521 0 .647-.27.647-.863 0-.673-.198-.877-.68-.877h-1.252v1.74zm5.727.172c0 1.233-.092 1.734-.355 2.11-.264.362-.68.586-1.352.586H43.25V28.84h1.747c.66 0 1.173.198 1.41.554.265.382.344.857.344 1.97m-1.845 2.076c.402 0 .738-.105.91-.336.184-.25.237-.758.237-1.74 0-.824-.046-1.266-.238-1.55-.178-.243-.52-.349-.922-.349h-.976v3.975z" clip-rule="evenodd"/><path fill="#8b1e1e" d="M53.707 28.84h.633l-1.233 5.221h-.784s-.877-4.06-.877-4.232c-.007.171-.903 4.232-.903 4.232h-.785l-1.233-5.221h.712s.956 4.133.956 4.298c0-.165.877-4.298.877-4.298h.785s.876 4.14.876 4.298c0-.158.976-4.298.976-4.298m1.797 0v5.221h-.686V28.84zm4.292 0v5.221h-.758l-1.945-4.048v4.048h-.64V28.84h.798l1.899 3.988V28.84zm4.274 0v5.221h-.757l-1.945-4.048v4.048h-.64V28.84h.798l1.9 3.988V28.84zm1.62 0v5.221h-.686V28.84zm4.293 0v5.221h-.758l-1.944-4.048v4.048h-.64V28.84h.798l1.899 3.988V28.84zM33.649 44.353l-.755-2.326-.756 2.325h-2.445l1.978 1.438-.755 2.325 1.978-1.437 1.977 1.437-.755-2.326 1.978-1.437zm8.739 0-.77-2.326-.772 2.325h-2.494l2.018 1.437-.771 2.325 2.018-1.436 2.018 1.437-.77-2.326 2.018-1.437zm8.654 0-.77-2.326-.771 2.325h-2.495l2.018 1.437-.77 2.325 2.017-1.436 2.019 1.437-.771-2.326 2.018-1.437zm8.651 0-.771-2.326-.771 2.325h-2.495l2.018 1.437-.77 2.325 2.018-1.436 2.018 1.437-.77-2.326 2.017-1.437zm8.704 0-.755-2.326-.756 2.325H64.44l1.978 1.437-.755 2.325 1.978-1.436 1.978 1.437-.757-2.326 1.98-1.437zM2.154 15.866c.711 1.085 1.811 2.443 3.415 2.404 1.459.073 2.719-.922 3.711-1.753 1.069-.895 2.034-2.203 2.44-3.618-1.49-.434-2.92.37-3.984 1.128-1.112.793-1.968 2.242-2.152 3.73a9.65 9.65 0 0 0-1.068-4.271c-.595-1.135-1.424-2.668-2.903-2.974-.582 1.765-.396 3.924.541 5.354"/><path fill="#8b1e1e" d="M6.045 24.114c-1.488.25-2.94-.663-3.883-1.736C.948 20.997.225 19.144.372 17.29c1.53.039 2.688 1.36 3.544 2.36a9.9 9.9 0 0 1 2.04 3.955c-.16-1.456.33-3.029 1.237-4 .876-.938 2.103-1.96 3.63-1.797-.033 1.477-.773 2.884-1.537 3.937-.711.982-1.807 2.197-3.24 2.37"/><path fill="#8b1e1e" d="M3.294 29.018c1.37.893 3.034 1.776 4.781 1.108 1.434-.508 2.345-1.95 2.906-3.275.594-1.404.99-3.022.716-4.558-1.575.14-2.882 1.267-3.576 2.643-.725 1.438-.864 3.15-.307 4.659-.823-1.552-2.027-2.807-3.303-3.967C3.352 24.573 1.682 23.463 0 23.672c.32 2.079 1.589 4.236 3.294 5.346"/><path fill="#8b1e1e" d="M11.607 35.744c1.35-.807 1.892-2.504 2.114-3.958.24-1.569.229-3.298-.422-4.786-1.566.437-2.64 1.846-2.995 3.39a6.2 6.2 0 0 0 .853 4.755c-1.212-1.39-2.823-2.539-4.368-3.344-1.491-.777-3.322-1.715-5.113-1.149.864 2.109 2.712 4.072 4.76 4.884 1.586.628 3.516 1.25 5.171.208"/><path fill="#8b1e1e" d="M18.002 36.292c.198 1.514.193 3.434-.983 4.599-1.468 1.503-3.741 1.213-5.494.882-2.354-.444-5.003-2.05-6.423-4.187 1.734-.954 3.855-.344 5.572.15l.098.029c1.916.551 3.958 1.44 5.667 2.653-1.364-1.232-2.357-3.04-2.405-4.862-.044-1.63.663-3.373 2.186-4.15 1.062 1.395 1.56 3.186 1.782 4.886"/><path fill="#8b1e1e" d="M24.825 45.178c.866-1.647.008-3.581-.675-5.01-.808-1.69-1.912-3.412-3.492-4.648-1.517 1.307-1.372 3.177-.921 4.803.536 1.933 2.395 3.58 4.32 4.52a24.8 24.8 0 0 0-6.981-1.478l-.235-.016c-1.86-.12-4.284-.279-5.767 1.083 2.243 1.907 5.428 3.006 8.235 2.95 1.881-.039 4.462-.261 5.516-2.204M93.33 11.916c-.543-1.46-1.731-2.735-3.025-3.33-1.201-.55-2.796-1.125-4.198-.42.763 1.34 2.019 2.467 3.302 3.176 1.153.637 2.614 1.41 4.06 1.078 1.576-.242 2.338-1.81 2.761-2.997.587-1.64.186-3.83-.815-5.439-1.38.575-1.801 2.282-2.09 3.489-.328 1.374-.337 2.978.005 4.443"/><path fill="#8b1e1e" d="M92.199 14.031c1.11.792 1.963 2.241 2.147 3.729a9.66 9.66 0 0 1 1.072-4.269c.596-1.133 1.427-2.666 2.906-2.971.58 1.765.393 3.924-.547 5.353-.71 1.083-1.81 2.439-3.41 2.402-1.461.075-2.723-.923-3.716-1.755-1.068-.896-2.03-2.205-2.436-3.62 1.491-.433 2.919.372 3.984 1.131"/><path fill="#8b1e1e" d="M93.972 23.609c.163-1.458-.325-3.033-1.233-4.007-.875-.939-2.1-1.962-3.628-1.799.031 1.477.77 2.884 1.533 3.939.71.982 1.804 2.196 3.237 2.371 1.489.252 2.943-.66 3.888-1.732 1.215-1.38 1.939-3.233 1.794-5.088-1.53.038-2.69 1.359-3.547 2.358a9.9 9.9 0 0 0-2.044 3.958"/><path fill="#8b1e1e" d="M91.804 24.939c.724 1.439.861 3.151.302 4.659.825-1.551 2.03-2.806 3.307-3.965 1.16-1.054 2.831-2.163 4.513-1.953-.321 2.08-1.593 4.236-3.299 5.345-1.37.89-3.031 1.772-4.777 1.106-1.435-.507-2.347-1.953-2.908-3.28-.593-1.403-.988-3.022-.711-4.558 1.574.141 2.88 1.27 3.573 2.646"/><path fill="#8b1e1e" d="M88.757 35.143a6.2 6.2 0 0 0 .856-4.752c-.353-1.543-1.427-2.953-2.992-3.391-.653 1.487-.664 3.217-.427 4.785.22 1.452.76 3.146 2.102 3.955 1.656 1.05 3.59.43 5.179-.2 2.05-.81 3.9-2.771 4.765-4.88-1.791-.567-3.622.37-5.115 1.146-1.544.803-3.156 1.95-4.368 3.337"/><path fill="#8b1e1e" d="M81.911 36.287c-.2 1.513-.196 3.433.98 4.6 1.466 1.504 3.74 1.215 5.493.886 2.354-.443 5.005-2.046 6.427-4.182-1.733-.956-3.855-.347-5.572.146l-.1.028c-1.915.55-3.958 1.436-5.667 2.648 1.364-1.231 2.358-3.037 2.408-4.859.046-1.63-.66-3.374-2.181-4.152-1.065 1.394-1.564 3.185-1.788 4.885"/><path fill="#8b1e1e" d="M80.595 47.378c-1.881-.04-4.462-.264-5.514-2.207l-.015-.027c-.84-1.642.014-3.562.695-4.983.81-1.689 1.915-3.41 3.495-4.645 1.516 1.308 1.37 3.178.918 4.803-.539 1.933-2.4 3.58-4.326 4.517a24.8 24.8 0 0 1 6.983-1.473l.236-.015c1.861-.12 4.284-.275 5.765 1.087-2.244 1.905-5.43 3.002-8.237 2.943"/></svg>