<svg xmlns="http://www.w3.org/2000/svg" width="185" height="153" fill="none" viewBox="0 0 185 153"><g fill="#fff" opacity=".05"><path d="M76.534 129.728c-29.357 0-53.251-23.874-53.251-53.228s23.884-53.227 53.251-53.227 53.252 23.873 53.252 53.227-23.885 53.228-53.252 53.228m0-103.636c-27.806 0-50.43 22.615-50.43 50.408s22.624 50.408 50.43 50.408 50.431-22.615 50.431-50.408-22.625-50.408-50.43-50.408"/><path d="M76.534 153C34.332 153 0 118.684 0 76.5S34.332 0 76.534 0c19.155 0 37.483 7.106 51.607 20.01 14.03 12.821 22.756 30.257 24.561 49.102l-2.811.273C146.252 31.44 114.712 2.82 76.525 2.82 35.883 2.82 2.812 35.877 2.812 76.5s33.071 73.68 73.713 73.68c38.187 0 69.727-28.62 73.366-66.565l2.811.273c-1.805 18.845-10.531 36.281-24.561 49.101C114.017 145.894 95.689 153 76.534 153"/><path d="M178.797 85.157h-27.496v-2.82h27.496A3.34 3.34 0 0 0 182.135 79v-5a3.34 3.34 0 0 0-3.338-3.337h-27.496v-2.82h27.496c3.394 0 6.159 2.764 6.159 6.157v5c0 3.393-2.765 6.157-6.159 6.157m-100.034 32.06L44.281 88.305c-1.223-1.156-1.881-2.64-1.928-4.239a5.9 5.9 0 0 1 1.636-4.267c2.276-2.387 6.065-2.49 8.454-.225l26.16 26.543 23.763-25.133c2.379-2.35 6.178-2.322 8.491.028a5.98 5.98 0 0 1-.066 8.45zm-30.41-36.46a3.163 3.163 0 0 0-3.17 3.244 3.13 3.13 0 0 0 .988 2.208l32.573 27.305 30.148-26.12c1.175-1.156 1.194-3.168-.029-4.409a3.16 3.16 0 0 0-4.466-.037l-25.738 27.22-28.172-28.592a3.08 3.08 0 0 0-2.125-.837z"/><path d="M78.763 95.543 50.12 69.244a5.95 5.95 0 0 1-1.88-4.192 5.9 5.9 0 0 1 1.636-4.267c2.275-2.387 6.065-2.49 8.453-.226l.104.104 20.189 23.554 19.559-23.46c2.341-2.312 6.14-2.284 8.454.066a5.98 5.98 0 0 1-.066 8.45l-27.797 26.27zM54.21 61.734c-.836 0-1.673.33-2.294.987a3.13 3.13 0 0 0-.865 2.256c.019.846.376 1.626.987 2.209l26.697 24.503 25.869-24.447c1.222-1.203 1.231-3.205.018-4.446-1.213-1.221-3.178-1.26-4.419-.075L78.65 88.588 56.345 62.56a3.16 3.16 0 0 0-2.125-.817z"/><path d="m77.663 71.95-1.289-2.913c-.64-1.448-6.272-14.268-6.272-17.859 0-4.163 3.395-7.556 7.56-7.556 4.166 0 7.56 3.393 7.56 7.557 0 3.59-5.632 16.401-6.271 17.858zm0-25.5a4.74 4.74 0 0 0-4.74 4.738c0 1.87 2.54 8.506 4.74 13.723 2.2-5.217 4.739-11.853 4.739-13.723a4.743 4.743 0 0 0-4.74-4.737"/></g></svg>