<svg xmlns="http://www.w3.org/2000/svg" width="40" height="50" fill="none" viewBox="0 0 40 50"><g clip-path="url(#a)"><path fill="#8b1e1e" d="M19.201 0C8.694 0 .176 8.518.176 19.025V42.09a11.4 11.4 0 0 1 .629-1.571V19.025C.805 8.865 9.04.63 19.2.63s18.396 8.236 18.396 18.396V34.93q.319.051.63.143V19.025C38.226 8.518 29.707 0 19.2 0"/><path fill="#8b1e1e" d="M37.1 34.877V19.182c0-9.9-8.026-17.924-17.925-17.924S1.251 9.283 1.251 19.182v20.473q.156-.28.314-.532v-19.94c0-9.726 7.884-17.61 17.61-17.61s17.61 7.884 17.61 17.61v15.69q.157-.004.315.004"/><path fill="#8b1e1e" d="M36.32 33.737v1.172l-.156.024v-.692c.045-.132.1-.31.157-.504m-.551 1.29v-.157q-.075.078-.157.15v.058zm0-3.799-.157.094V18.475h.157zm.394-.196a.4.4 0 0 1 .157-.024V18.475h-.157zm-1.019.583.075-.049V18.475h-.157v13.192zm-.475.31v-13.45h-.157V32.03zm-.55-13.45v13.841l-.012.01-.012.011q-.07.067-.134.136V18.475zm-.158 18.121v-.4q.072-.065.158-.133v.281l-.11.175-.04.065zm-.392-18.121v14.521l-.018.03a6.5 6.5 0 0 0-.14-1.22V18.475zm-.551 12.29v-12.29h-.157v12.04q.084.12.157.25m-.55 4.448v-.857l-.158-.137v.72q.058.09.113.182l.02.037zm0-5.178v-11.56h-.158v11.404q.08.076.157.156m-.55-11.56v11.069l-.157-.118V18.475zm-.55 10.685V18.475h-.157v10.588zm-.55-10.685v10.363l-.158-.085V18.475zm-.551 10.075V18.475h-.157v9.996zm-.55-10.075v9.803l-.157-.078v-9.725zm-.157 12.244c.051.148.105.298.157.44v1.823l-.157-.038zm-.393-1.257c-.19-.719-.157-.977 0-1.135v-9.852h-.158v14.381q.08.008.158.018zm-.55 3.372v-14.36h-.158v3.422a.8.8 0 0 1 .06.206l.005.03v.032q0 .26-.065.523V32.92l.038-.026.1-.061zm0 1.286a5 5 0 0 1-.158-.3v4.165l.157-.15zm-.551 4.272V23.569a4 4 0 0 1-.157.227v14.769zm-.55-14.132v14.753l-.157.181V24.418a6 6 0 0 0 .157-.158m-.55 15.382V24.77l-.158.126v14.92zm-.551-14.462v15.045l-.157.15V25.284q.08-.05.157-.102m-.55 15.542V25.532q-.075.048-.157.098v15.226zm-.55-14.867v15.316l-.158.12V25.947l.143-.081.01-.006zm-.551 15.722v-15.4l-.157.1v2.865q.027.115.036.209a3 3 0 0 1-.036.837v11.497zm-.55-10.502v10.865l-.157.096V31.245q.084-.078.157-.168m-.55 10.751v-10.33q-.075.03-.158.054v9.996q.078.143.158.28m-.551-4.835v3.866a5 5 0 0 0-.157-.237v-3.39q.086-.114.157-.239m-.55 3.154v-2.5q-.076.063-.157.118v2.228q.08.074.157.154m-.55-2.172v1.689l-.158-.12V38.03l.05-.015zm-.551 1.279v-1.169l-.157.014v1.034zm-.55-1.125v.657a2 2 0 0 1-.157-.177v-.467zM9.355 22.487v1.112l-.157.11v-5.234h.157v.97c-.169.866-.096 1.798-.025 2.714zm13.758 12.116a7 7 0 0 0-.157-.213v-2.408a.8.8 0 0 0 .067-.376l.09.002zm-.157-13.671a.8.8 0 0 0 .157.09v-2.547h-.157zm.706.102h.002v-2.56h-.158v2.565zm.552-.016-.157.004v-2.547h.157zm.393-.008.157-.001v-2.534h-.157zm.708 0-.158-.002v-2.533h.157zm.393.008.157.006v-2.55h-.157zm.707.04-.157-.012v-2.571h.157zm.393.042.158.023v-2.648h-.158zm.708.14-.158-.041v-2.724h.158zm.55.23a2 2 0 0 0-.157-.085v-2.91h.157zm-3.852 5.085q-.086.067-.157.133v.976l.042.103.115.277zm-1.651-8.08v2.013a4 4 0 0 1-.157-.261v-1.752zm-.55.935v-.935h-.158v.57q.079.186.158.365m-13.208-.935v5.496l-.157.102v-5.598zm-.55 5.849v-5.85h-.157v5.95zm-.551-5.849v6.198l-.157.101v-6.3zm-.55 6.555v-6.555h-.157v6.66zm-.55-6.555v6.93l-.157.112v-7.042zm-.551 7.335v-7.335h-.157v7.46zm-.55-7.335v7.794l-.157.147v-7.941zm-.55 8.36v-8.36h-.157v8.56q.074-.102.157-.2m0 2.603a2 2 0 0 1-.157-.092v6.62l.157-.098zm-.55-1.678q-.06.171-.086.35c-.06.338-.006.597.086.788v7.323l-.158.106V18.475h.158zm-.551-9.285v18.133l-.157.12V18.475zm-.55 18.577V18.475h-.157v18.718q.078-.072.157-.141m-.55-18.577v19.103l-.158.169V18.475zm-.551 19.738V18.475h-.157v19.944q.079-.106.157-.206m3.145-8.626v6.038l.157-.096v-5.904a3 3 0 0 1-.157-.038m.55 5.699.158-.098v-5.486l-.158-.015zm.551-.35v-5.214l.157.002v5.108zm.55-5.216v4.843l.157-.113v-4.735zm.55 4.437v-4.461l.157-.01v4.349zm.551-4.496v4.054l.157-.135v-3.93zm.55 3.465v-3.502l.157-.01v3.293q-.08.115-.157.219m.55-3.536v2.72l.157-.251v-2.477zm.551 1.834v-1.856l.157-.002v1.61q-.076.116-.157.248m.55-1.848v1.042q.08-.1.157-.174v-.857h-.01zm.551.635v-.56q.09.023.156.052v.475q-.075.011-.157.033"/><path fill="#8b1e1e" d="M.176 47.418c-.331-2.184-.262-4.2.801-6.507 1.413-3.062 2.82-3.924 4.567-4.995.855-.523 1.79-1.097 2.85-2.002.427-.367.928-1.178 1.377-1.906.395-.64.75-1.215.98-1.365a.8.8 0 0 1 .29-.086c.28-.045.568-.092.432-.788-.142-.732-1.643-.628-3.205-.52-1.898.133-3.887.27-3.64-1.078.174-1.241 2.03-2.418 3.617-3.425.553-.35 1.073-.681 1.48-.986a18 18 0 0 0-.08-1.632c-.143-1.832-.28-3.605 1.486-4.795 1.717-1.156 5.453-2.49 7.454-1.825 1.47.488 2.167 2.127 2.777 3.562.502 1.18.945 2.222 1.71 2.37.119 0 .301-.006.527-.014h.003c1.364-.047 4.312-.148 4.452.737 0 1.213-1.35 2.378-2.32 2.928a7 7 0 0 1-.696.426l-.001.001c-.733.416-1.653.94-1.699 1.512-.007.096.145.463.322.888v.002c.224.538.487 1.17.515 1.468.093.98-.35 2.043-1.483 1.787a.1.1 0 0 1-.043-.02.9.9 0 0 1-.125.338c.15.415-.341.75-.582.914-.073.05-.124.084-.125.1 0 .01.043.045.1.092.103.084.251.207.28.288.076.204.06.454.045.695-.015.223-.028.437.032.598.044.118.156.267.277.427.174.23.367.484.407.714.165.943-.343 2.013-1.255 2.32-.103.034-.39.056-.706.08-.495.038-1.058.08-1.081.186.206.905.816 1.354 1.442 1.815h.002c.317.234.638.47.914.77.321.351.54.752.76 1.15.193.353.386.705.647 1.018a13.8 13.8 0 0 0 2.662-1.901c.468-.42.889-.907 1.305-1.388v-.001c1.247-1.442 2.447-2.828 4.741-2.224-.09-.85-.607-.983-1.217-1.14-.424-.108-.893-.228-1.293-.61-.16-.151-1.466-2.038-1.254-2.167 1.49.053 2.635.834 3.384 2.092l.837 1.825c.006-.137.02-.321.036-.532.059-.784.145-1.934-.036-2.358-.024-.055-.267-.262-.596-.542l-.002-.002c-.647-.55-1.623-1.38-1.912-1.89-.198-.349-1.173-3.062-.95-3.232l.218.107c1.156.57 2.513 1.237 3.09 2.44.39.814.394 1.705.398 2.599.003.546.006 1.092.096 1.623l.075-.376v-.002c.172-.881.33-1.692 1.028-2.36.162-.155 1.828-1.241 1.94-1.217.283.06-.453 2.62-.571 2.852-.213.417-.697.725-1.183 1.035-.741.471-1.488.946-1.289 1.817.145-.183.415-.061.596.02.077.035.137.063.165.056.038-.009.164-.212.317-.457v-.001c.202-.323.449-.718.596-.835 1.438-1.149 3.837-.592 5.057.647-.498.036-.98.21-1.458.381-.39.14-.777.28-1.166.341-.197.031-.583.026-1.025.02-.965-.012-2.194-.027-2.283.322-.09.535.417.826.87 1.085.324.186.621.356.65.589.017.122-.08.333-.168.527-.074.161-.142.31-.135.386 0 .014.04.08.092.17l.002.004c.106.182.265.456.286.586.186 1.172-.594 1.694-1.392 2.229l-.003.001q-.18.12-.354.242c-.107.075-.215.186-.33.303-.225.231-.474.486-.773.534-.294.047-.557-.066-.794-.168-.181-.078-.347-.15-.5-.137-.202.017-3.077 2.36-3.156 2.548-.083.2-.095.505-.107.814-.012.324-.025.652-.12.86-.036.077-.558.627-1.121 1.196h10.663V37.619a6 6 0 0 0 .63-.173V50H.175z"/><path fill="#8b1e1e" d="M36.785 37.68q.172 0 .315-.004v11.066h-8.937c.151-.164.229-.257.271-.314h.025v-.036c.017-.025.024-.04.03-.052.07-.156.107-.34.127-.536v.624h.393v-2.015l.158-.137v2.152h.393v-2.484l.157-.13v2.614h.393v-2.935l.157-.127v3.062h.393v-3.376l.158-.123v3.499h.393v-3.801q.084-.065.157-.117v3.918h.393V44.41l.098.042.06.025v3.95h.392v-3.811q.077.02.158.032v3.78h.393v-3.78l.009-.001q.075-.012.148-.035v3.816h.393V44.41a2 2 0 0 0 .157-.125v4.143h.393V43.9a2 2 0 0 1 .158-.143v4.67h.393v-4.939l.157-.105v5.045h.393V43.1a5 5 0 0 0 .157-.128v5.456h.393v-5.85q.085-.103.157-.216v6.066h.394V37.673l.157.002v10.753h.464zm-7.775-.184v-2.742q.079.12.157.23v2.392zm.55-.38q.078-.045.157-.088v-1.316l-.032-.03a3 3 0 0 1-.125-.157zm.707-.326-.157.058v-.845q.078.046.157.085zm.393-.107q.079-.017.157-.03v-.355l-.157-.049zm.708-.077q-.08 0-.157.005v-.208l.157.043zm.55-2.723v.521a5 5 0 0 0-.157-.178v-.478zm-.55-.036v-.442l-.157-.14v.454q.08.062.157.128m-.55-.949v.55l-.158-.09v-.616q.075.076.158.156m-.551.27v-.865a3 3 0 0 1-.157-.221v1.024q.08.03.157.062m1.543 3.459-.049-.031v.027zm2.703 1.273q.055.075.157.154v-.33q-.09.012-.157.03zm.55.41v-.622l.157-.007v.719l-.09-.053z"/><path fill="#8b1e1e" d="M35.613 37.672v.985q.086.069.157.146v-1.132zm.157 2.304v-.003.29l-.05-.087-.006-.012-.003-.005-.01-.016-.003-.006c.02-.05.049-.112.071-.161M20.646 27.767l-.083-.09q.042.052.083.09"/><path fill="#f4f0e9" d="m19.916 31.556-.152.114c.02-.066.156-.106.152-.114"/><path fill="#f4f0e9" d="m23.11 27.79-.912.38.722-.722-1.369 1.065v-1.065c-.248.405-.551.656-.905.317l.487.52c-.494.174-.826.07-1.18-.152-.006-.005-.093.13-.151.076-.213-.2-.314-.58-.152-.837-.405.126-.826.317-1.255.19 1.105-.343 2.265-1.074 3.46-.798.12-.08.138-.16 0-.229-.438-.216-1.964.357-2.015.267-.005-.009.35-.122.038-.19-.573.476-1.242.086-1.864-.115l1.141.152c-.247-.362-.771-.139-.95-.57-.143.153-1.056 1.393-1.141 1.369-.128-.036.116-.236 0-.304-.015-.009-.192.28-.19.038.433-.679 1.019-1.102 1.178-1.94-.142-.076-3.003.724-3.118.837-.187.184.112.425-.152.608-.093-.137-.423-.28-.57-.114.062.363.236-.002.304.076.222.26-.085.432-.076.457.024.077.206.017.228.038.037-.091.05-.382.228-.342.108.324-.184 1.382-.152 1.52.03.131.52.34.532.533.006.1-.276 1.066-.228 1.293.01.046.512.54.533.76.044.49-.641 1.697-.38 2.358l.303-1.292c-.05.652-.283 1.449.267 1.939.035.032.483.093.57.266.065.13-.056 1.08.266 1.331.21-.247-.192-1.102.19-1.179.052.723-.275 1.36.609 1.598l-3.347-.533c.205.124.495.216.723.266.762.168 2.564.247 3.194.533.135.061.594 1.217.419.076-.34-.368-.738-.912-.723-1.445.209.492.639.9.723 1.445.184.2.594.468.798.684l-.228-.76c.254.47.704.74 1.217.836h-1.065l-.418-.266c.114.488.643.354.875.419.471.13 1.53.33 2.053.076.273-.133.267-.506.305-.533.047-.033.497.335.494-.646-.603-.907-.83-2.27-1.483-2.928l-.19.114c-.001-.107-.054-.73-.076-.76-.082-.116-.316.179-.305-.077.013-.287.983-.272.951-.799l.076.305.228-.229c.029.666.661.043.875-.266l.002.005c.127-.362.036-.575.036-.575-.129-.061-.05.185-.304.152-.237-.03-.477-.183-.76-.152-.085.01-1.463.607-1.56.684-.058-.116-.021-.237-.19-.076-.145.3-.328.905-.342 1.255-.027.618.09 1.821.38 2.358l.532.532c-.747-.11-.92-1.042-.989-1.673-.044-.408.117-2.175.077-2.282-.012-.03-.45-.287-.495-.418l-.076.532c-.295-.695-.74-1.975-.989-.38-.074-.164.024-.593-.266-.342.245-.632-.293-.394-.38-.609-.013-.032.34-.588-.228-.304.178-.21.457-1.005.076-.837l.152-.76.646.266-.494-.494.608.076-.532-.38c.961.249.331-.008-.076-.305l.685.076-.609-.304c.402.066.84.232.342-.19.6-.087.428.307.799.494l-.304.152.684.152-.76.153.988.228-.989.076 1.522.304c-.361.24-1.292-.35-1.483.038l2.015.342-2.015-.19c.235.31 1.597.468 2.053.457.441-.011.948-.078 1.255-.419.043 1.75-2.746.975-3.84.875l.303.228c.763.055 1.593.232 2.358.152.817-.085 1.231-.6 2.054-.608l.19.114c-.41.042-.587.186-.989.38l.723.114h-.837c.182.158 1.697.307 1.977.228.981-.275-.087-2.178-.342-2.776m-7.871.647c-.086-.508-.06-1.05.152-1.521zm.836-1.978-.152 1.598-.114-.799zm0 1.902c-.112.727-.384 1.377-.228 2.13-.438-.215.095-2.164.228-2.13m-.228 5.248c-.438-.588-.168-1.502.076-2.13-.035.752-.323 1.367-.076 2.13m.228-.152c-.126-.546-.093-1.173.228-1.673zm.457-3.042-.19-.799.19-1.331zm3.232 1.255c.017-.055.113-.092.142-.107zm1.331 3.384c.444.26.677.76.989 1.141-.448-.254-.724-.72-.989-1.14m-.38-1.065.684.761c-.275.096-.765-.723-.684-.76m.722 2.624c-.292.072-.972-.37-.874-.722zm-1.103-5.134-.304 1.293c-.063-.462.113-.883.304-1.293m-.38 2.13c.054.666.371 1.118.685 1.673-.561-.293-.808-1.094-.685-1.673m-.913 1.597c.363.852 1.125 1.165 1.788 1.712-.115.23-2.096-1.148-1.788-1.712m-.684-2.814c.165.808.132 1.614.266 2.434-.136-.359-.257-.635-.304-1.027zm-1.293 3.194c-.16-.377-.144-.818-.076-1.216.18.287.165.898.076 1.217m.532-3.194.457 2.434c-.207.067-.643-2.196-.457-2.434m-.076 3.347c-.186.089-.383-1.127-.304-1.293zm-.304-1.75c-.398-.75-.838-1.537-.38-2.357zm.989-7.225c.142-.029.927.312 1.179.266-.173.12-1.276-.089-1.293-.152.04-.026.086-.108.114-.114m-.456.228 1.102.19c-.16.198-1.002.08-1.102-.19m5.057 2.092.419-.267c.21.085-.344.431-.419.267m.19-1.18c.05.23-.355.276.115.267l-.495.342c-.371-.322.123-.38.38-.608m-.342 1.027.419-.342c.324.076-.398.433-.419.343m.799 1.484c-.09-.069-.004-.29-.038-.343-.01-.016-.3-.21-.305-.228-.06-.262.468-.242-.304-.38l.418-.342c.117-.007.704 1.177.229 1.293"/><path fill="#f4f0e9" d="m21.932 32.925.456 2.738c-.1-.27-.953-1.832-.95-1.94.003-.22.383-.576.494-.798m-4.259-2.738 3.46.19c-.68.177-1.392.281-2.091.114.335.308 1.045.18 1.445.152-.165.246-1.199.563-.685.152-.655-.092-1.63-.195-2.13-.609m-6.008 2.207c.59.089 1.17.244 1.75.38.503.118 1.23.183 1.634.494-1.08-.284-2.422-.242-3.384-.874m5.78-2.891c1.209.474 2.5.38 3.765.342l-.646.19c-.943-.074-2.41.176-3.119-.532m-4.715 4.488 3.46.799-2.852-.419z"/><path fill="#f4f0e9" d="m18.28 29.427 3.081.114c-.77.282-1.984.29-2.776.114-.054-.012-.446-.093-.304-.228m-5.096 5.019 3.08.647c-.716.042-1.92-.145-2.624-.343-.148-.041-.46-.097-.456-.304m.305.38 3.004.723c-.932-.2-2.32-.142-3.005-.723m1.251 1.296 3.05.489c-.944-.126-2.322.037-3.05-.489m.494.427 2.568.294c-.792-.066-1.912.183-2.568-.294m2.718 1.196c-.588.011-1.2.017-1.697-.114q.148.177.31.344l1.367.045zm-.03.417c-.382.066-.816.004-1.24-.07q.185.179.386.34l.832.027zm-.034.468a3 3 0 0 1-.593-.024q.277.201.567.365zm.058-1.096a.076.076 0 0 0-.066-.097l-1.957-.176c.122.184.33.287.551.293l1.397.035a.08.08 0 0 0 .075-.055m3.225-10.466c-.197.162-.254.276-.228.533-1.572.026-.854-.349.228-.533m1.369 8.062c.186.127.214 1.032.076 1.066-.256-.263-.099-.713-.076-1.065"/><path fill="#f4f0e9" fill-rule="evenodd" d="m16.684 47.452-1.753-2.981c.5.886.954 1.779 1.258 2.639l.023.06c.055.139.142.36.015.434l-3.65-6.617 2.89 6.009-3.651-6.313 2.966 5.628-3.08-4.981C9.987 39.397 7.53 37.942 4.9 37.907h1.326l-1.788-.418c.777-.104 1.474.11 2.192.332l.28.086c-.38-.34-.853-.447-1.327-.553-.287-.065-.573-.13-.84-.246l2.471.57-2.091-.874 2.395.646c.06-.168-1.778-.869-2.015-.798.064-.262.825.033 1.443.273.42.163.774.3.8.221l-1.863-.874c.558.043 1.058.273 1.556.502.228.105.455.21.688.296.072-.158-.44-.384-.933-.602-.428-.189-.843-.372-.855-.5l2.13.836c-.311-.389-.776-.565-1.234-.738q-.225-.082-.44-.175l.077-.152 2.282 1.065c-.031-.177-.3-.353-.446-.45l-.01-.007c-.192-.125-.43-.223-.672-.323-.342-.14-.691-.285-.926-.513l2.434 1.217c-.23-.495-.714-.74-1.194-.983-.312-.157-.622-.314-.86-.538 2.502.9 4.242 2.703 6.02 4.549q.52.541 1.054 1.08c.146.145.314.258.489.375.232.154.474.317.69.575.785.941 1.53 2.66 2.09 3.951v.002l.002.003.266.608c-.331-.396-.583-.894-.836-1.394-.288-.57-.579-1.142-.99-1.573l1.483 3.46-3.004-5.133 2.776 5.59-3.27-5.78 2.89 6.084a75 75 0 0 1-.928-1.836c-.69-1.395-1.396-2.823-2.229-4.058l-.005-.009c-.045-.07-.328-.517-.375-.295zm-3.69-6.274.993 1.687-.041-.068a62 62 0 0 1-.951-1.62" clip-rule="evenodd"/><path fill="#f4f0e9" d="M4.704 37.907H4.9zm11.638 4.069a5 5 0 0 0-.365-.699 4.6 4.6 0 0 1-.396-.784c.566.192 3.45 5.248 3.156 5.362-.231-.327-.425-.7-.619-1.075-.309-.596-.62-1.196-1.092-1.625l1.331 3.005c-.269-.48-.529-.968-.79-1.456-.442-.831-.887-1.664-1.378-2.462a7 7 0 0 0-.24-.33c-.376-.505-1.022-1.371-.863-1.457.3.286.55.614.8.944.148.195.296.39.456.577m-.343-1.597c.494.131 3.39 5.035 3.118 5.172zm.913-.305a22 22 0 0 1 2.89 5.02l-1.521-2.51zm2.161 4.344c-.75-1.475-1.518-2.984-2.617-4.191l3.042 5.02a99 99 0 0 1-.423-.825v-.002zm-1.324-4.571a20.2 20.2 0 0 1 2.814 4.791l-1.483-2.395zm2.434 5.02c-.802-1.714-1.68-3.475-2.89-4.944.24.677.662 1.35 1.064 1.994q.177.28.342.554l.319.534c.373.63.747 1.26 1.165 1.862m-1.066-3.5c.688.892 1.427 1.95 1.75 3.042l-.384-.626c-.486-.787-.974-1.58-1.366-2.416m2.739 1.825c.133-.052-.95-2.448-1.217-2.586.15.59.462 1.16.768 1.721.159.29.316.58.448.865m-1.977-1.216c.343.379.692.816.95 1.255l.069.11c.16.26.425.686.35.916zm1.293-1.293c.522.421.878 1.256 1.065 1.901zm-8.366 2.662c.103.185.224.369.347.555.266.403.538.815.641 1.27q-.106-.164-.218-.332l-.001-.002c-.312-.467-.633-.948-.77-1.491m9.622-1.711-.494-.647.836 1.598zm-2.244-.799.685 1.217c-.11-.122-.874-1.12-.685-1.217m.761 2.054c.283.33.547.725.684 1.14-.285-.248-.605-.77-.684-1.14m-3.499-13.691.647.267c-.173.104-.61-.067-.647-.267m-6.046 5.552 4.373 5.02a29 29 0 0 0-1.14-.152c-.55-.058-5.087-5.405-5.249-6.236-.203-1.048.46.66.494.722.74 1.308 2.077 2.294 2.967 3.499l1.75 1.52c-1.263-1.407-2.802-2.778-3.88-4.334-.076-.111-1.486-2.22-.95-2.092 1.107 2.733 3.548 4.684 5.59 6.731-1.299-1.571-2.915-2.9-3.955-4.677m.646.075 4.031 4.792c-.863-.97-1.864-1.862-2.7-2.852-.116-.138-1.51-1.855-1.33-1.94"/><path fill="#f4f0e9" d="M9.23 33.382c.39 1.878 2.14 2.991 3.27 4.411-1.117-.802-2.487-2.125-3.08-3.384-.12-.256-.435-.823-.19-1.027m5.02 3.65c.803.699 1.65 1.445 2.206 2.358-.851-.598-1.557-1.538-2.206-2.358m-3.651-5.552.266.874c-.176.043-.278-.601-.342-.57-.286.138.863 1.985.913 2.282-.409-.667-1.542-1.951-.837-2.587m-.456.609.684 1.75c-.094.046-1.124-1.77-.684-1.75M9.078 34.37l1.369 1.902c-.26-.053-1.735-1.826-1.37-1.902m6.39 3.423c.328.355.986.9 1.217 1.293.066.113.19.076 0 .228zm-4.259-6.77c.063.316.063.673 0 .99-.147-.25-.208-.75 0-.99m5.4 7.606.57.494c-.087.188-.675-.318-.57-.494m-8.063-4.335c.115.017.316.655.229.684l-.19-.266zm1.37-1.749c.08.259.388.544.304.837-.048.016-.408-.7-.304-.837m7.605-3.727.495.343-.57-.19zm-5.704 1.749 3.423.685c.125.27-.04.232-.229.228-.732-.017-1.897-.555-2.7-.494.19.271 3.031.635 2.89.836l-3.27-.608c.972.546 2.256.521 3.156.95l-2.928-.494c.9.444 1.946.478 2.89.76.069.279-2.964-.46-3.194-.532l3.118.99-3.308-.571c-.16-.584-.07-1.186.152-1.75m-.494-1.749c.404.21 1.228.067 1.407.457-.028-.03-1.366-.302-1.065 0 .322.152.953.095 1.217.228.187.094.486.718.989.913.359.138.956.08 1.33.266l-2.395-.266c.84.35 1.864.306 2.624.646l-3.46-.57-.077-.229.647.038-.723-.342c.39-.047.906.379 1.255.038-.391-.13-1.115-.044-1.331-.342l1.179.114c-1-.456-1.043.09-1.598-.95m.001-.001c-.637-1.193-.01-1.034 1.064-.875l-1.14.152 1.178.343-1.178-.039 1.255.419zm.798 4.335c1.324.466 2.753.537 4.07 1.027l-2.168-.418zm-.456-.456c1.204.466 2.619.433 3.765 1.027a38 38 0 0 1-1.94-.418c-.536-.126-1.458-.158-1.825-.609m.609.836 3.993.95c-1.008-.122-2.1-.238-3.08-.493-.285-.074-.82-.158-.913-.457m-.457-6.008c.112-.037.482-.032.57.114l-.646.038c-.075-.038.053-.145.076-.152m9.735-3.271c.382 0 1.013.152 1.255.418.05.056.61 1.294.609 1.37-.002.072-.341.537-.342.722-.128.08-.353-.76-.533-.837-.05-.021-.87-.059-.912-.076-.129-.052.103-.191 0-.304-.03-.032-.745.11-.837.152-.278.127-.685.831-1.027.494.044-.108.785-.205.799-.494l-1.103.418c.203-.681 1.162-.63 1.673-.988l-1.14.228c.35-.391.873-.498 1.368-.609-.612-.166-1.304.415-1.863.038l1.901-.228-1.255-.038c.452-.033.96-.266 1.407-.266m-2.814.989c.072 0 .148-.024.19.038-.082.422-.953 1.15-.684.305.01-.035.464-.343.494-.343m.229.304c.09-.026.637.168.037.19l.343.19-.076.153-.57-.19c.109-.036.245-.337.265-.343"/><path fill="#f4f0e9" d="M19.118 25.32c.081-.024.484.036.494.19l-.57-.038c-.076-.038.054-.146.076-.152m-.533.684.494.266-.57-.038zm.989-.914c.018-.002.234.12.342.115l-.418.038c-.077-.039.061-.15.076-.152m10.268 4.107c1.781.578 3.032 2.118 2.966 4.031-.352-.751-.527-1.881-1.027-2.548-.457-.61-1.309-.639-1.787-1.255-.252.576 1.172 1.46 1.255 1.788l-.038.19a2.09 2.09 0 0 1-1.37-2.206m6.846 6.312c.911-.108 1.86.331 2.548.876-.071.123-2.357-.865-2.776-.343l.152-.304-1.065.456c.063-.347.851-.65 1.141-.684m-.684-3.651c.016.547-.257.94-.8 1.027l.343-.57c-1.155.635-1.465 1.589-1.901 2.738-.051-1.647 1.07-2.468 2.357-3.195m-6.769 1.673c1.168.311 2.165 1.12 2.624 2.244z"/><path fill="#f4f0e9" d="m37.295 36.272.951.418c-.658.26-1.092.415-1.597-.152.16-.272 1.48.68.646-.266m-1.597.38c.25-.009.858.222 1.103.342l-1.787.038c-.136-.16.643-.379.684-.38m-.304-2.89c.18.364-1.276 1.487-1.369 1.445.156-.69.977-.895 1.369-1.445m-5.324 1.217 1.331.722c-.05.15-1.425-.349-1.331-.723m.837-3.041c.027.16 1.53 1.224 1.217 1.369-.375-.475-1.07-.747-1.217-1.37m0-.38c.365.132.682.381.874.722-.108.202-.874-.568-.874-.722m4.411 4.336c.2.07-.261.405-.304.456-.156.184-.273.458-.533.532l.343-.494zm0-2.815c.02.295-.416.535-.608.685-.031-.323.438-.492.608-.685m-5.476 1.446.722.342c-.212.105-.676-.102-.722-.343m-4.488 10.8c.369.38.683.838.76 1.37zm.989 1.978c.193-.017.326 1.1.228 1.293-.028-.131-.486-1.27-.228-1.293m.38-.304.229 1.141c-.145-.074-.461-1.141-.229-1.14m.305-.382c.21.25.217.751.228 1.065-.177-.249-.29-.762-.228-1.065m.608-.532c.194.12.229.575.152.76zm-.228.229.076.836c-.048-.268-.343-.616-.076-.837m-1.75-1.065c.199.181.539.468.533.76-.136-.235-.529-.475-.533-.76m8.443-5.248c1.046.16 1.296.562 1.255 1.635l-.38-.38-.038.875-.114-1.255-.076.836-.267-.95c-.19.162.205.875-.114.798zm-4.868-1.749c.375.384.846.837.989 1.37zM14.022 23.798c.064-.002.175-.02.19.038-2.56 1.004-5.655 1.883-7.872 3.613-.113.088-.65.362-.915.693a.5.5 0 0 0-.084.394c.036.214.057.44-.256-.06-.21-.337.414-.917.646-1.103.938-.75 7.233-3.53 8.29-3.575"/><path fill="#f4f0e9" fill-rule="evenodd" d="m14.285 16.804-.002.014c-.007.038-.022.132-.185.21-.233.112-.49.206-.751.301-.57.208-1.156.421-1.531.84.15-.058.459-.193.84-.36 1.083-.473 2.752-1.201 3.039-1.16.02.002.137.095.076.151-.082.076-.346.156-.653.25-.471.142-1.042.315-1.21.549l2.243-.646v.152l-4.183 1.901 4.297-1.559-3.917 1.863 3.841-1.407-3.84 1.864 3.612-1.407-3.537 1.787 3.993-1.56-4.03 1.902c.031.106 1.16-.41 2.08-.83.55-.251 1.026-.469 1.152-.5l.056-.018c.131-.041.37-.116.362.055l-3.575 1.674 4.108-1.446-4.184 1.902 4.184-1.521-4.184 1.901 4.26-1.52-4.146 1.939c.39-.152.788-.333 1.192-.517 1.01-.459 2.056-.933 3.068-1.005-1.309.373-2.574.955-3.765 1.56.02.055.127.044.185.038h.005c.295-.03.87-.296 1.47-.573.617-.284 1.26-.58 1.648-.644.213-.035.39.004.555.04.148.033.287.063.434.036.444-.082.886-.176 1.33-.27.831-.177 1.664-.354 2.51-.453l-2.737.229 2.662-.457c.224-.95-1.369-4.308-3.194-4.386-1.293-.118-2.862.095-4.032.811l.419.038c-.288.16-.662.313-1.042.467-.516.21-1.045.425-1.392.674-.026.018-.301.232-.076.229.804-.503 1.667-.822 2.545-1.14zm5.67 3.039c.253-.02.687-.047.912.076l-2.472.266c.445-.124 1.113-.306 1.56-.342m.47-.457a6 6 0 0 0-.243 0c-.501.014-1.102.16-1.624.286l-.239.057.23-.014c.703-.04 1.586-.09 2.09-.329q-.107.002-.214 0m-.547-1.216c.13.016.181.065.076.152-.08.066-1.61.233-1.863.19.131-.022.339-.072.569-.128.457-.11 1.002-.242 1.218-.214m.206.835a3 3 0 0 0-.282.001c-.422.033-1.175.15-1.56.343l.366-.034c.588-.05 1.2-.103 1.726-.309-.082.005-.166.002-.25 0m-5.796-2.204q.162-.08.32-.168c.352-.191.707-.383 1.125-.403-.255.25-.65.352-1.015.446-.153.04-.3.078-.43.125m5.34 1.117c-.02-.026-.04-.05-.054-.053-.13-.023-1.35.228-1.56.343a9.5 9.5 0 0 0 1.674-.229.3.3 0 0 1-.06-.061m-.51-.737h.228c.24.134-1.451.342-1.56.342.204-.176 1.059-.34 1.331-.342m.202.38q-.102-.004-.203 0a5 5 0 0 0-1.178.266l.267-.013c.452-.018.993-.04 1.292-.253q-.09.002-.178 0m.102 1.065h.228c.225.123-1.348.391-1.483.266.084-.018.198-.047.324-.079.328-.082.74-.186.93-.187m-1.56-1.56c.139.192 1.733-.202 1.256-.265-.089-.012-.451.077-.773.156a8 8 0 0 1-.482.11m.419-.874a4 4 0 0 1 .202 0h.178c.055.217-1.167.263-1.179.19l.076-.022c.216-.063.56-.163.723-.168m.543.304q-.082-.002-.163 0a3 3 0 0 0-.511.106 4 4 0 0 1-.363.084c.351.076.942.05 1.178-.19q-.07.002-.142 0" clip-rule="evenodd"/><path fill="#f4f0e9" d="M13.26 26.612c.053-.013.162-.015.191.039l-.646.798c-.285-.226.337-.806.456-.837m0 2.815c.207.117.373.25.531.375.347.277.653.521 1.256.5-.66.218-1.527-.262-1.787-.875m1.141-1.293c.194.096.534-.737.266-.99-.062.153-.093.314-.125.476a2.5 2.5 0 0 1-.141.514"/><path fill="#f4f0e9" d="M14.859 29.73c.182.022.134.2.075.305-.875.189-.266-.328-.075-.305"/><path fill="#f4f0e9" fill-rule="evenodd" d="M14.06 29.046q.04-.003.075-.002c.092 0 .155 0 .229-.112.02-.056-.067-.15-.167-.26-.176-.192-.394-.43-.137-.577l-.152-.076-.457.38.533-.608-.533.076.305-.304c-.387-.1-.287-.14-.16-.188.078-.03.165-.064.16-.116h-.305l.609-.305c-.488-.14-.713.05-.913.609-.05.142-.106 1.13-.076 1.217.032.093.954 1.022 1.027 1.026.45.03.077-.614-.038-.76" clip-rule="evenodd"/><path fill="#f4f0e9" d="M17.9 36.348c-.125-.092-.723-.167-1.402-.253-.868-.109-1.867-.235-2.172-.432.29.373 1.301.487 2.175.585.052.006 1.631.269 1.4.1m-1.116.677c-.385 0-.796-.083-1.09-.07.585.226 1.526.236 2.27.282.084-.281-.654-.212-1.18-.212"/><path fill="#f4f0e9" fill-rule="evenodd" d="m30.384 41.174.827 1.03c-.229-1.485-1.125-2.719-2.206-3.726-.214-.03.267.557.44.768l.055.068.049.047.117.108.002.002.012.012.006.006.01.01.007.008.012.013.012.013.008.01.008.01.008.01.008.011.008.012.01.014.013.02.01.017.012.018.008.014.013.021.009.015.015.025.003.005.02.036-.012-.012-.032-.031-.018-.017-.029-.03-.017-.017-.023-.025-.047-.053-.017-.02-.011-.015-.013-.016-.024-.033-.003-.004-.038-.052-.096-.132c-.089-.084-.676-.612-.723-.608-1.578 1.861-3.097 3.617-5.21 4.906l1.483 1.103-.722-.875c.524.214.947.677 1.364 1.134.239.261.475.52.727.73l-.266-.571-1.483-1.787 2.13 2.281-1.75-2.434 2.282 2.434-2.091-2.7 2.395 2.472-2.015-2.624 2.168 2.244-1.674-2.51 2.054 2.586c.411-.199-1.776-2.83-2.092-3.004.096-.209.668.422.81.579l.027.03c.371.394.685.857.995 1.316.161.237.321.474.488.699.316-.111-.902-1.619-1.571-2.447a8 8 0 0 1-.407-.52l2.358 2.967c-.3-1.214-1.204-2.312-2.091-3.157-.042-.314.476.234.68.45.046.05.076.081.08.083l1.635 2.395-1.977-3.346 2.282 3.194c-.168-1.035-.879-1.897-1.558-2.72a23 23 0 0 1-.534-.664c.918.662 1.52 1.635 2.103 2.578l.217.35c.411-.163-1.077-1.952-1.71-2.712a7 7 0 0 1-.268-.33l-.015-.025c-.048-.074-.146-.225.015-.203 1.078 1.097 2.003 2.335 2.51 3.802-.196-1.652-1.39-2.96-2.47-4.143l-.002-.002c1.238.786 1.997 2.184 2.625 3.46-.215-1.413-1.309-2.595-2.259-3.621l-.061-.067c1.332.87 2.216 2.465 2.776 3.917l-.114-.799c-.618-1.296-1.41-2.483-2.434-3.498 1.3.887 2.156 2.435 2.776 3.84.55-.115-2.004-3.828-2.396-3.992l.304.076.232.29c.837 1.05 1.69 2.12 2.164 3.398.313-.06-.232-1.081-.903-2.095" clip-rule="evenodd"/><path fill="#f4f0e9" d="M34.177 38.478c-.306-.072-.874.273-1.026.114-.204-.316-.056-.401-.039-.723l.228.304.077-.304.228.38-.114-.57.342.418c.141-.336-.191-.61-.456-.76-.127.36-.123-.14-.38-.076-.105.025.237.202 0 .304-1.22-.325-2.662-.484-3.613.494 1.217 1.434 1.885 3.147 2.243 4.982.295-.199-.333-1.484.076-1.369l.38 1.37-.113-1.484c.35.375.263.95.342 1.407l.038-1.56c.308.386.241 1.025.19 1.484l.19-.266c-.036-2.482.397-.373.152.532-.03.113-.698.577-.418.799l.38-.609v.609l.305-.533-.114.495c.348-.02.321-.566.38-.685.098-.197.644-.335.076-.38l.266-.646-.038.494.266-.343.076.609c.991-.72.245-.725.038-1.407-.125-.414-.545-2.005-.608-2.358-.099-.548.177.316.304 0l-.228-.38.646.798c.078.062-.51-1.23-.19-.798.198.267.252.663.418.95l-.228-1.064c.336.283.333.748.457 1.14v-.836l.19.57c.47-.239-.405-1.028-.723-1.102m-2.434 1.216-.532-1.369c.258.071.738 1.333.532 1.37m-.228.077-.684-1.598c.079-.039.846 1.367.684 1.598m-1.787-1.636.38.153.875 1.483-.76-1.826c.53.44.712 1.126 1.026 1.712-.651.938-.867-1.251-1.521-1.522m1.407 2.168c.206.32.331.689.38 1.065-.2-.248-.442-.733-.38-1.065m.228-.152.38.989c-.227-.197-.413-.702-.38-.99m.608.836-.304-.912c.058-.02.458.758.304.912m.305-.076c-.16-.21-.218-.579-.229-.836.145.206.31.58.229.836m-6.237-19.014c-2.84-.238-4.165.321-4.564-1.217-1.457.386-3.028.27-4.487.608-1.61.373-5.514 1.7-6.921 2.51-.19.11-.393.468-.647.57l1.537-.448c-1.305.465-2.55 1.064-3.59 1.894 5.192-2.6 11.77-3.986 17.607-3.69.396.02 2.244.416 2.358.381.709-.215-.632-.553-1.293-.608m-10.192.152h.228c.2.108-2.643.732-2.852.646.689-.095 2.003-.637 2.624-.646m-1.787.874c-.023-.093 1.726-.48 1.863-.494.15-.016.306.011.457 0-.704.257-1.552.372-2.32.494m5.742-1.787c.117-.01.478-.055.532.076l-1.483.19c.186-.151.728-.248.951-.266m-.95.95c.229-.088.895-.265 1.102-.265h.228c.21.113-1.2.384-1.33.266m.075-.38c.257-.097.854-.253 1.103-.266.126-.006.254.005.38 0-.25.247-1.055.31-1.483.266m-15 27.676c-.31-.608-.81-2.397-.989-3.118-.482-1.95-.698-3.971-.874-5.971-.109 3.053.744 6.15 1.574 9.099h.294l-.003-.007z"/><path fill="#f4f0e9" d="m2.9 39.23-.114 1.71c.317 2.867.879 5.697 1.75 8.443-.248-.159-.449-.748-.576-1.12l-.033-.097c-.647-1.872-1.185-4.715-1.369-6.693a13 13 0 0 1-.033-1.243c.002-.26.003-.52-.005-.772-.312 3.353.616 6.766 1.64 9.935h.798c-.585-1.156-1.05-2.685-1.335-3.965-.45-2.025-.667-4.125-.723-6.198m-1.216 1.672c-.09 2.89.725 5.734 1.527 8.49h.372c-1.134-2.2-1.442-4.748-1.742-7.222q-.076-.638-.157-1.268m3.909 7.525v.002q.125.482.247.964h.397c-1.256-3.494-1.954-7.148-2.272-10.848-.046 3.37.795 6.645 1.628 9.882"/><path fill="#f4f0e9" d="M4.969 47.67c.15.576.302 1.15.444 1.723h.411c-1.378-3.402-2.054-7.1-2.163-10.772-.264 3.065.53 6.084 1.307 9.048"/><path fill="#f4f0e9" d="M3.09 39.28q.003.064 0 .14c-.03.786.18 2.34.297 3.21l.008.06c.264 1.957.797 3.88 1.326 5.785v.001l.253.916h.414C4.005 46.127 3.354 42.399 3.28 38.85c-.199.135-.195.26-.19.43m-1.869 9.007c.162.452.304.85.368 1.105h.242L.543 45.39c-.188.477.298 1.834.678 2.897M.91 44.922l-.14-.75c-.019 1.524.413 2.978.841 4.42q.12.4.235.8h.352c-.718-1.367-1.007-2.94-1.288-4.47m24.888 2.004c-.063.393-1.261 2.428-1.51 2.428.15-.295.226-.35.295-.466.396-.66.771-1.337 1.211-1.969-.662-1.45-1.863-3.118-2.814-2.974-.596.474-1.272.856-1.948 1.239-.728.41-1.455.822-2.083 1.347-.161.135-.462.476-.76.815-.37.42-.738.838-.837.859-.24.05-.414-.05-.519-.111a.3.3 0 0 0-.09-.042 2.6 2.6 0 0 0-.423.037 3 3 0 0 1-.49.04c-.015-.001-.037-.027-.065-.062-.054-.066-.133-.163-.239-.167-.17-.006-.723.107-1.597.457-.475.082.107-.288.523-.554.19-.121.346-.22.351-.245.044-.2-.716-1.087-1.07-1.5l-.146-.173c-.464-.566-.558-.79-.797-1.36l-.116-.276c-1.39-3.258-4.303-6.66-8.253-5.856-.156 3.066.602 6.097 1.348 9.079.16.642.32 1.283.471 1.921h18.33l.882-1.379-.66 1.38h.235l.843-1.266c.159-.002.113.097.07.191q-.02.04-.032.076c-.09.282-.303.64-.53.998h.158c.158-.322.333-.631.562-.808-.023.275-.186.538-.35.8l-.005.008h.2c.18-.306.338-.596.345-.77.014-.371-.177-1.009-.49-1.697m-13.156.973c-.162-1.402-.478-2.779-.608-4.183.348 1.353.628 2.776.608 4.183m-.913-2.586-.304-1.977c.115.611.47 1.366.304 1.977m-2.053-3.422c.176.807.325 1.62.456 2.434-.313-.7-.49-1.67-.456-2.434m-4.944-3.423.989 7.301c-.446-2.407-1.098-4.826-.989-7.301m1.991 10.794a36 36 0 0 1-.736-2.82 68 68 0 0 1-.76-6.506c-.028-.435-.052-1.046.037-1.468.36 3.711.756 7.178 1.616 10.794zm.525 0-.424-1.154c-.688-3.058-1.002-6.185-1.18-9.323.416 2.019.414 4.116.723 6.15.234 1.54.647 2.802.94 4.327zm.422 0-.162-.357c-.613-2.965-1.18-5.772-1.369-8.81-.024-.396-.089-1.022.038-1.389.308 3.63.67 7.034 1.572 10.556zm.434 0-.292-.678c-.553-3.157-1.123-6.341-1.178-9.56l1.539 10.238zm.425 0c-.363-1.404-.652-2.618-.869-4.05a52 52 0 0 1-.57-5.871l.722 5.87.744 4.05zm.474 0c-.857-3.117-1.17-6.145-1.457-9.366l1.485 9.366zm.458 0c-.798-2.968-1.14-5.833-1.458-8.89.501 3.04.856 5.874 1.473 8.89zm.455 0-.81-3.773-.571-4.72c.508 2.9.888 5.593 1.391 8.493zm.49 0c-.728-2.706-1.014-5.316-1.339-8.096.52 2.764.792 5.343 1.363 8.096zm.43 0c-.394-1.492-.551-2.838-.704-4.367.352 1.513.502 2.834.755 4.367zm.49 0c-.52-2.484-.88-4.784-1.194-7.303.504 2.492.861 4.784 1.225 7.303zm.448 0a.4.4 0 0 0-.007-.08c-.346-1.732-.79-3.864-.988-5.597-.018-.152-.081-.481.038-.595.377 2.095.827 3.99 1.027 6.113q.008.081.027.159zm.032-3.568c.322 1.225.519 2.298.532 3.568a49 49 0 0 1-.532-3.568m.912 3.568c-.013-.328-.172-.424-.076-.754.199.05.126.754.076.754m.228-3.112.152 1.369c-.23-.11-.222-1.369-.152-1.369m.229 3.188c-.184-.083-.127-.753-.077-.754s.191.634.076.754m.492-.302.076-.532.115.038zm.38.152c.032-.156.002-.35.153-.456.08.02-.005.467-.152.456m.457.152c-.033-.095.168-.552.228-.532.124.041-.113.578-.228.532m.69-.257-.091-.018c.006-.159.202-.493.265-.529.032.176-.058.399-.175.547m.378.077c.047-.257.314-.795.405-.852l-.334.867zm.496.102-.104-.022c.059-.278.282-.714.317-.704.103.03-.088.465-.213.726m.377.077-.058-.012.274-.715c.144.152-.05.474-.216.727m.456.005-.096-.02c.135-.348.346-.803.389-.788.132.046-.09.484-.293.808m.36-.146.313-.662c.137.256-.065.356-.277.67zm.391.08-.078-.016c.145-.355.26-.4.457-.726-.061.307-.133.48-.379.742m.691.072-.029-.006c.388-.927.251-.556.717-1.445l-.608 1.445zm1.372-1.527c-.244.998-.169.644-.725 1.504.375-.985.272-.553.726-1.504m.533 0c.103.107-.138.601-.19.723-.138.156-.115.138-.572.804zm-.294 1.502.988-1.978c.17.081-.782 1.845-.988 1.978m.487.025c.626-1.183.6-1.042 1.252-2.211l-.218.513q-.267.627-.665 1.182zm2.317-3.2-1.141 2.206-.642.969c.732-1.55.951-1.686 1.783-3.175m-1.293 3.156c.08-.412.407-.752.608-1.102.691-1.202.65-1.31 1.407-2.396.017-.024.21-.304.305-.305-.829 1.332-.813 1.442-1.636 2.776-.212.346-.368.755-.684 1.027m2.32-3.232c.125-.278.194-.604.418-.837zc-.359.793-.737 1.55-1.141 2.32l-.637.912zm.874-.913c-.778 1.92-.952 2.411-2.195 4.07 1.024-1.82 1.25-2.206 2.195-4.07m-1.806 4.164c-.182-.085.29-.467.4-.665.58-1.058 1.065-2.172 1.71-3.194-.366 1.101-1.06 2.158-1.635 3.194-.38.684-.475.665-.475.665m2.262-3.403-.418 1.179-.646 1.178c.237-.829.753-1.557 1.065-2.357m-1.181 1.954c.2-.005.073.166.038.267-.156.44-.543.735-.78 1.182zm.32.267c.174.283-.39.867-.532 1.14zm1.242-1.765c-.28.925-.82 1.748-1.293 2.586.276-.9.813-1.761 1.293-2.586M1.06 43.138l-.061-.41c-.044 1.98.509 3.898 1.054 5.788q.127.44.25.876h.328c-.934-1.921-1.26-4.132-1.572-6.254"/><path fill="#f4f0e9" d="M1.341 43.222c.228 1.965.755 3.86 1.283 5.756v.003l.115.412h.392c-1.133-2.341-1.524-5.066-1.752-7.654z"/><path fill="#8b1e1e" d="M18.791 3.68a1.1 1.1 0 0 1 .384.506 1.1 1.1 0 0 1 .377-.502 1.02 1.02 0 0 0-.38-.618 1.02 1.02 0 0 0-.381.614"/><path fill="#8b1e1e" d="M20.272 3.592a.968.968 0 0 0-1.045 1.044.968.968 0 0 0 1.045-1.044m-2.195 0a.968.968 0 0 1 1.046 1.044.97.97 0 0 1-1.046-1.044m1.725 10.363-.627-.628-.628.628H5.73v.079h12.816l.628.627.627-.627h12.816v-.08zM5.813 16.94q-.036 0-.036-.026 0-.022.031-.03l.055-.009q.05-.01.065-.026.017-.017.017-.067V15.37q0-.05-.017-.067-.014-.017-.065-.026l-.055-.01q-.03-.007-.031-.029 0-.026.036-.026h.806q.056 0 .06.055l.02.399q.004.04-.032.04-.029 0-.033-.03l-.015-.09a.4.4 0 0 0-.108-.237.32.32 0 0 0-.225-.077q-.097 0-.135.029-.036.026-.036.096v.578q0 .034.034.034h.12q.106 0 .13-.113l.024-.12q.01-.036.04-.031.027.005.027.04v.54q0 .037-.027.041-.03.005-.04-.03l-.024-.118q-.018-.084-.048-.11-.03-.027-.084-.027h-.118q-.034 0-.034.033v.603q0 .087.043.125.045.038.164.038t.204-.06q.086-.062.12-.23l.029-.142q.006-.03.036-.031.034 0 .028.04l-.024.428q-.005.055-.06.055zm1.352.022a1 1 0 0 1-.108-.01 1 1 0 0 1-.11-.023.4.4 0 0 1-.08-.031.1.1 0 0 1-.026-.02.1.1 0 0 1-.008-.038l-.012-.377q0-.048.032-.048.026 0 .036.043l.021.091q.082.345.305.344a.24.24 0 0 0 .19-.08.33.33 0 0 0 .072-.227.5.5 0 0 0-.075-.265.9.9 0 0 0-.233-.242 1.1 1.1 0 0 1-.259-.245.44.44 0 0 1-.081-.254q0-.178.122-.284a.47.47 0 0 1 .317-.107q.072 0 .139.016a.3.3 0 0 1 .11.048q.015.01.022.022.01.012.01.031l.007.363q0 .04-.031.04-.022 0-.032-.033l-.016-.06a1 1 0 0 0-.11-.27.18.18 0 0 0-.162-.085.22.22 0 0 0-.165.067.28.28 0 0 0-.06.19q0 .102.067.196t.235.228q.18.147.262.283.084.135.084.288a.43.43 0 0 1-.226.394.5.5 0 0 1-.237.055m.704-.022q-.036 0-.036-.026t.031-.028l.108-.017q.048-.008.065-.024.017-.02.017-.07v-1.44q0-.033-.015-.048t-.06-.014a.26.26 0 0 0-.175.077q-.087.075-.113.247l-.012.079q-.005.03-.033.031-.036 0-.032-.04l.022-.435q.005-.055.043-.055.017 0 .031.01a.3.3 0 0 0 .048.016q.036.01.113.01h.535a.4.4 0 0 0 .11-.01.3.3 0 0 0 .051-.017.1.1 0 0 1 .031-.01q.038.001.044.056l.021.434q.005.041-.031.041-.029 0-.034-.031l-.012-.08q-.023-.17-.11-.246a.27.27 0 0 0-.178-.077q-.045 0-.06.014t-.014.048v1.44q0 .05.017.07a.13.13 0 0 0 .065.024l.108.017q.03.001.03.029 0 .026-.035.026zm.892.022a.13.13 0 0 1-.09-.034.13.13 0 0 1-.037-.093q0-.056.036-.089a.13.13 0 0 1 .091-.036q.048 0 .087.036a.11.11 0 0 1 .038.089.12.12 0 0 1-.125.127m21.511-4.322-1.217-2.79-.204 2.286a.32.32 0 0 0 .1.282.44.44 0 0 0 .287.118v.043h-.87v-.043a.4.4 0 0 0 .279-.122.45.45 0 0 0 .13-.283l.217-2.403a.7.7 0 0 0-.208-.265.48.48 0 0 0-.318-.1v-.044h1.044l1.06 2.456 1.06-2.456h.814v.044a.35.35 0 0 0-.235.082.26.26 0 0 0-.087.226l.221 2.573a.3.3 0 0 0 .14.222q.12.075.239.074v.04h-1.348v-.04q.075 0 .152-.035a.3.3 0 0 0 .126-.1.2.2 0 0 0 .04-.152l-.213-2.4z"/><path fill="#8b1e1e" d="M27.012 12.64q-.382 0-.665-.148a1.07 1.07 0 0 1-.439-.417 1.3 1.3 0 0 1-.152-.639V9.71a.34.34 0 0 0-.095-.252.34.34 0 0 0-.252-.095h-.018v-.044h1.4v.044h-.013a.34.34 0 0 0-.252.095.34.34 0 0 0-.096.252v1.726q0 .46.235.73.238.265.643.265.408 0 .643-.27.235-.273.235-.725v-1.66a.4.4 0 0 0-.113-.296.45.45 0 0 0-.3-.117v-.044h.9v.044a.45.45 0 0 0-.3.117.4.4 0 0 0-.113.296v1.66q0 .365-.152.635a1.04 1.04 0 0 1-.43.421 1.4 1.4 0 0 1-.666.148m-2.768 0a1.6 1.6 0 0 1-.326-.031 2 2 0 0 0-.17-.022 3 3 0 0 0-.273-.009l-.152-1.13h.052q.065.535.295.826a.74.74 0 0 0 .6.287q.27 0 .44-.152a.5.5 0 0 0 .169-.396.5.5 0 0 0-.04-.2.7.7 0 0 0-.121-.204 2 2 0 0 0-.23-.235 5 5 0 0 0-.357-.29l-.178-.135q-.326-.248-.452-.444a.77.77 0 0 1-.126-.426q0-.383.278-.6.282-.22.743-.221a1.5 1.5 0 0 1 .322.03q.07.013.16.022.093.009.235.009l.044.878h-.044q-.06-.405-.26-.64a.61.61 0 0 0-.483-.234q-.2 0-.321.117a.42.42 0 0 0-.118.313q0 .17.109.326.112.152.387.357l.187.139q.285.209.452.387a1.2 1.2 0 0 1 .243.339q.074.165.074.352 0 .285-.143.508a1 1 0 0 1-.4.348 1.4 1.4 0 0 1-.596.13m-3.666-.059v-.044a.34.34 0 0 0 .253-.096.34.34 0 0 0 .095-.252V9.71a.34.34 0 0 0-.095-.252.34.34 0 0 0-.253-.095v-.044h1.452q.334.004.582.118a.9.9 0 0 1 .392.304q.143.196.143.46a.78.78 0 0 1-.143.466.93.93 0 0 1-.4.308 1.6 1.6 0 0 1-.609.109h-.4v1.104q0 .156.096.252a.34.34 0 0 0 .252.096h.009v.043zm1.018-1.553h.256a.5.5 0 0 0 .322-.104.7.7 0 0 0 .213-.295q.078-.187.078-.426 0-.24-.078-.426a.65.65 0 0 0-.213-.291.5.5 0 0 0-.326-.11h-.252z"/><path fill="#8b1e1e" d="M19.25 12.58v-.044h.004a.34.34 0 0 0 .252-.096.34.34 0 0 0 .096-.252V9.71a.34.34 0 0 0-.096-.252.34.34 0 0 0-.252-.095h-.004v-.044h1.378v.044h-.005a.34.34 0 0 0-.252.095.34.34 0 0 0-.095.252v2.478q0 .156.095.252a.34.34 0 0 0 .252.096h.005v.043zm-1.853.06q-.52 0-.917-.21a1.56 1.56 0 0 1-.613-.59 1.8 1.8 0 0 1-.217-.891q0-.51.217-.887.222-.383.613-.591.396-.213.917-.213.522 0 .913.213.396.209.613.59.222.38.222.888 0 .509-.222.89-.218.38-.613.592-.39.208-.913.208m0-.07q.227 0 .413-.118.187-.117.322-.33.13-.213.2-.513.075-.3.074-.665a2.8 2.8 0 0 0-.074-.665 1.7 1.7 0 0 0-.2-.517 1 1 0 0 0-.322-.33.76.76 0 0 0-.413-.118.76.76 0 0 0-.412.118 1 1 0 0 0-.318.33q-.135.213-.209.517-.069.3-.069.665t.07.665q.073.3.208.513a1 1 0 0 0 .317.33.76.76 0 0 0 .413.118m-3.447.071q-.578 0-1.004-.21a1.54 1.54 0 0 1-.652-.59 1.7 1.7 0 0 1-.23-.9q0-.504.23-.882.23-.379.643-.587.417-.213.974-.213.17 0 .278.013.113.009.2.022l.191.026q.108.008.27.008l.13.87h-.043a1.1 1.1 0 0 0-.353-.648 1 1 0 0 0-.673-.235.9.9 0 0 0-.452.118 1.1 1.1 0 0 0-.348.326 1.7 1.7 0 0 0-.226.513q-.078.3-.078.664 0 .37.074.674.078.3.213.513.138.213.33.33a.83.83 0 0 0 .434.118q.179 0 .34-.061a.7.7 0 0 0 .252-.152v-1.109a.34.34 0 0 0-.096-.252.34.34 0 0 0-.252-.095h-.013v-.044h1.4v.044h-.018a.34.34 0 0 0-.252.095.34.34 0 0 0-.096.252v1.109a.7.7 0 0 1-.278.152q-.186.06-.426.096a3 3 0 0 1-.47.034m-3.954.001q-.521 0-.917-.21a1.56 1.56 0 0 1-.613-.59 1.8 1.8 0 0 1-.217-.891q0-.51.217-.887.222-.383.613-.591.396-.213.917-.213.522 0 .913.213.396.209.613.59.22.38.221.888 0 .509-.221.89-.218.38-.613.592-.391.208-.913.208m0-.07a.76.76 0 0 0 .413-.118q.187-.117.322-.33.13-.213.2-.513.073-.3.073-.665a2.8 2.8 0 0 0-.073-.665 1.7 1.7 0 0 0-.2-.517 1 1 0 0 0-.322-.33.76.76 0 0 0-.413-.118.76.76 0 0 0-.413.118 1 1 0 0 0-.317.33q-.135.213-.209.517-.07.3-.07.665t.07.665q.075.3.209.513a1 1 0 0 0 .317.33.76.76 0 0 0 .413.118m-4.264.011v-.044h.005a.37.37 0 0 0 .252-.083q.095-.083.095-.239V9.71a.34.34 0 0 0-.095-.252.34.34 0 0 0-.252-.095H5.73v-.044h1.387v.044H7.1a.34.34 0 0 0-.252.095.34.34 0 0 0-.095.252v2.521a.33.33 0 0 0 .065.218q.07.074.239.074h.091q.387 0 .652-.24.265-.238.335-.673h.043l-.13.97zm16.641-4.718q-.036 0-.036-.026 0-.022.031-.03l.055-.009q.051-.01.065-.026.017-.017.017-.067V6.292q0-.05-.017-.067-.014-.017-.065-.026l-.055-.01q-.03-.007-.031-.029 0-.026.036-.026h.806q.055 0 .06.055l.02.398q.004.041-.032.041-.028 0-.033-.031l-.015-.089a.4.4 0 0 0-.108-.237.32.32 0 0 0-.225-.077q-.096 0-.135.029-.036.026-.036.096v.578q0 .034.034.034h.12q.105 0 .13-.113l.024-.12q.01-.036.04-.031.027.004.027.04v.54q0 .036-.027.041-.03.005-.04-.03l-.024-.119q-.018-.083-.048-.11t-.084-.026h-.118q-.034 0-.034.033v.603q0 .086.044.125.045.038.163.038.12 0 .204-.06.085-.062.12-.23l.029-.142q.006-.03.036-.031.034 0 .028.04l-.024.428q-.005.055-.06.055zm-3.782 0q-.037 0-.037-.026 0-.022.032-.03l.055-.009q.05-.01.065-.026.017-.017.017-.067V6.292q0-.05-.017-.067-.015-.017-.065-.026l-.055-.01q-.032-.007-.032-.029 0-.026.037-.026h.439q.036 0 .036.029 0 .021-.027.026l-.064.01q-.05.006-.068.026-.015.02-.014.07v.602q0 .034.034.034h.475q.033 0 .033-.034v-.602q0-.05-.016-.07-.015-.02-.065-.026l-.065-.01q-.026-.005-.026-.026 0-.03.036-.03h.439q.036 0 .036.027 0 .022-.031.029l-.056.01q-.05.01-.067.026-.014.017-.014.067v1.412q0 .05.014.067.018.016.067.026l.056.01q.03.007.03.029 0 .026-.035.026h-.44q-.035 0-.035-.029 0-.021.026-.026l.065-.01q.05-.007.065-.026.016-.02.016-.07v-.665q0-.033-.033-.033h-.475q-.034 0-.034.033v.665q0 .05.014.07.017.019.068.026l.064.01q.027.005.027.026 0 .03-.036.029zm-3.377 0q-.036 0-.036-.027 0-.026.03-.028l.109-.017q.047-.007.065-.024.015-.02.016-.07v-1.44q0-.033-.014-.048t-.06-.014a.26.26 0 0 0-.175.076q-.087.078-.113.248l-.012.079q-.004.03-.034.031-.036 0-.03-.04l.02-.435q.005-.055.044-.055.016 0 .031.01l.048.016q.036.01.113.01h.535a.5.5 0 0 0 .11-.01.3.3 0 0 0 .051-.017.1.1 0 0 1 .031-.01q.039.001.043.056l.022.434q.005.042-.031.041-.029 0-.034-.031l-.012-.08q-.024-.17-.11-.247a.27.27 0 0 0-.178-.076q-.045 0-.06.014t-.014.048v1.44q0 .05.017.07a.13.13 0 0 0 .064.024l.108.017q.032.001.032.028t-.036.027zm16.734 9.06q-.024.004-.036-.005a.03.03 0 0 1-.01-.024q0-.022.027-.034a.66.66 0 0 0 .305-.233q.12-.166.165-.448.005-.02-.005-.024-.009-.005-.024.007a.3.3 0 0 1-.182.057.32.32 0 0 1-.202-.07.5.5 0 0 1-.141-.186.7.7 0 0 1-.05-.264q0-.147.055-.27a.55.55 0 0 1 .146-.2.32.32 0 0 1 .42.004.53.53 0 0 1 .142.228 1 1 0 0 1 .052.338q0 .298-.09.536-.09.235-.24.386a.74.74 0 0 1-.332.202m.02-1.236q0 .473.222.473.123 0 .185-.128a.8.8 0 0 0 .063-.36.75.75 0 0 0-.06-.338q-.058-.118-.178-.118-.233 0-.233.47m-.689 1.218q-.036 0-.036-.027 0-.026.032-.028l.093-.01q.05-.005.067-.024.02-.02.02-.07V15.32q0-.041-.024-.053a.08.08 0 0 0-.058-.01l-.086.01q-.044.002-.044-.031 0-.027.039-.034a2 2 0 0 0 .187-.04.3.3 0 0 1 .089-.022q.05 0 .05.052v1.553q0 .05.017.07.02.019.07.024l.079.01q.03.001.03.028t-.035.027zm-.504.021a.32.32 0 0 1-.244-.117.8.8 0 0 1-.164-.32 1.7 1.7 0 0 1-.057-.451q0-.25.057-.449a.8.8 0 0 1 .164-.319.32.32 0 0 1 .244-.118q.14 0 .243.118a.8.8 0 0 1 .163.32q.06.198.06.448t-.06.451a.8.8 0 0 1-.163.32.31.31 0 0 1-.243.117m0-.065q.152 0 .221-.204.072-.204.072-.619t-.072-.617q-.07-.204-.22-.204-.152 0-.224.204-.07.202-.07.617t.07.62q.072.203.223.203m-1.335.044q-.043 0-.043-.032 0-.016.017-.043l.288-.44q.18-.273.259-.47a1 1 0 0 0 .082-.364q0-.15-.063-.228-.06-.08-.175-.08a.3.3 0 0 0-.209.082q-.093.08-.12.254-.007.039-.036.039-.036 0-.031-.048a.5.5 0 0 1 .081-.25.37.37 0 0 1 .161-.132.5.5 0 0 1 .19-.04q.165 0 .269.1a.36.36 0 0 1 .105.276q0 .125-.06.257a2 2 0 0 1-.16.286l-.233.352-.187.284q-.015.021-.003.038.015.015.038.015h.257q.092 0 .152-.02a.2.2 0 0 0 .096-.076.5.5 0 0 0 .055-.164l.021-.112q.008-.032.036-.032.034 0 .03.041l-.03.451q-.005.055-.06.055z"/></g><defs><clipPath id="a"><path fill="#fff" d="M0 0h40v50H0z"/></clipPath></defs></svg>