<svg width="49" height="40" viewBox="0 0 49 40" fill="none" xmlns="http://www.w3.org/2000/svg">
<g clip-path="url(#clip0_640_27560)">
<path d="M24.9727 0L29.687 3.92858L25.6129 7.32367C25.2421 7.63271 24.7034 7.63271 24.3325 7.32367L20.2585 3.92858L24.9727 0Z" fill="#8B1E1E"/>
<path fill-rule="evenodd" clip-rule="evenodd" d="M24.3325 11.3549C24.7034 11.6639 25.2421 11.6639 25.6129 11.3549L32.1054 5.94434L35.8399 9.05643L27.5335 15.9786C26.0501 17.2147 23.8954 17.2147 22.412 15.9786L14.1055 9.05643L17.84 5.94434L24.3325 11.3549Z" fill="#8B1E1E"/>
<path d="M24.9727 39.9998L20.2585 36.0712L24.3325 32.6761C24.7034 32.3671 25.2421 32.3671 25.6129 32.6761L29.687 36.0712L24.9727 39.9998Z" fill="#8B1E1E"/>
<path fill-rule="evenodd" clip-rule="evenodd" d="M25.6129 28.6455C25.2421 28.3365 24.7034 28.3365 24.3325 28.6455L17.84 34.056L14.1055 30.9439L22.412 24.0218C23.8954 22.7857 26.0501 22.7857 27.5335 24.0218L35.8399 30.9439L32.1054 34.056L25.6129 28.6455Z" fill="#8B1E1E"/>
<path d="M48.9727 19.9999L44.2585 16.0713L40.4661 19.2317C39.9863 19.6315 39.9863 20.3683 40.4661 20.7681L44.2585 23.9285L48.9727 19.9999Z" fill="#8B1E1E"/>
<path fill-rule="evenodd" clip-rule="evenodd" d="M35.6291 20.7686C35.1493 20.3688 35.1493 19.632 35.6291 19.2322L41.8399 14.0564L38.1054 10.9443L30.9257 16.9275C29.0067 18.5267 29.0067 21.4741 30.9257 23.0733L38.1054 29.0565L41.8399 25.9444L35.6291 20.7686Z" fill="#8B1E1E"/>
<path d="M0.972656 19.9999L5.68692 23.9285L9.47933 20.7681C9.95909 20.3683 9.95909 19.6315 9.47933 19.2317L5.68692 16.0713L0.972656 19.9999Z" fill="#8B1E1E"/>
<path fill-rule="evenodd" clip-rule="evenodd" d="M14.3163 19.2322C14.7961 19.632 14.7961 20.3688 14.3164 20.7686L8.10547 25.9444L11.84 29.0565L19.0197 23.0733C20.9387 21.4741 20.9387 18.5267 19.0197 16.9275L11.84 10.9443L8.10547 14.0564L14.3163 19.2322Z" fill="#8B1E1E"/>
</g>
<defs>
<clipPath id="clip0_640_27560">
<rect width="49" height="40" fill="white"/>
</clipPath>
</defs>
</svg>
