<svg xmlns="http://www.w3.org/2000/svg" width="46" height="40" fill="none" viewBox="0 0 46 40"><g fill="#8b1e1e" clip-path="url(#a)"><path fill-rule="evenodd" d="M28.75 34.285c1.51 0 3.006-.295 4.4-.87a11.5 11.5 0 0 0 3.732-2.477 11.4 11.4 0 0 0 2.493-3.708 11.4 11.4 0 0 0 .875-4.373 17.1 17.1 0 0 0-5.052-12.122A17.3 17.3 0 0 0 23 5.714a17.3 17.3 0 0 0-12.198 5.02A17.1 17.1 0 0 0 5.75 22.858c0 1.5.297 2.987.875 4.373a11.4 11.4 0 0 0 2.493 3.708 11.5 11.5 0 0 0 3.731 2.477c1.395.575 2.89.87 4.401.87zm-5.75-24a12.7 12.7 0 0 0-8.945 3.682 12.53 12.53 0 0 0-3.705 8.89 6.82 6.82 0 0 0 2.021 4.848 6.94 6.94 0 0 0 4.879 2.008h11.5a6.94 6.94 0 0 0 4.879-2.008 6.82 6.82 0 0 0 2.021-4.849c0-3.333-1.333-6.531-3.705-8.889A12.7 12.7 0 0 0 23 10.285" clip-rule="evenodd"/><path fill-rule="evenodd" d="M14.95 40c-1.963 0-3.907-.443-5.721-1.305s-3.462-2.124-4.85-3.716-2.49-3.482-3.241-5.561A19.4 19.4 0 0 1 0 22.858 22.8 22.8 0 0 1 6.737 6.694 23.07 23.07 0 0 1 23 0c6.1 0 11.95 2.408 16.263 6.695A22.8 22.8 0 0 1 46 22.857c0 2.251-.387 4.48-1.138 6.56s-1.853 3.97-3.24 5.562c-1.389 1.592-3.037 2.855-4.85 3.716A13.3 13.3 0 0 1 31.05 40zM9.99 9.927A18.46 18.46 0 0 1 23 4.571c4.88 0 9.56 1.927 13.01 5.356a18.23 18.23 0 0 1 5.39 12.93c0 1.735-.298 3.44-.867 5.016-.57 1.575-1.39 2.967-2.388 4.112-.997 1.143-2.145 2.01-3.358 2.586a8.7 8.7 0 0 1-3.737.858h-16.1a8.7 8.7 0 0 1-3.737-.858c-1.213-.576-2.361-1.443-3.358-2.586-.998-1.145-1.819-2.537-2.388-4.112a14.8 14.8 0 0 1-.867-5.016c0-4.85 1.939-9.5 5.39-12.93" clip-rule="evenodd"/><path d="M28.75 28.572h-5.755a5.8 5.8 0 0 1-3.19-.963A5.72 5.72 0 0 1 17.367 24a5.7 5.7 0 0 1 1.568-5.183A5.76 5.76 0 0 1 23 17.143c.752 0 1.5.146 2.2.435a5.74 5.74 0 0 1 2.58 2.105c.633.94.97 2.044.97 3.174h-4.6a1.14 1.14 0 0 0-.71-1.056 1.16 1.16 0 0 0-1.253.248A1.14 1.14 0 0 0 23 24h5.75a1.16 1.16 0 0 0 .813-.335 1.15 1.15 0 0 0 .337-.808 6.84 6.84 0 0 0-2.021-4.848 6.92 6.92 0 0 0-6.886-1.712 6.9 6.9 0 0 0-2.872 1.712 6.86 6.86 0 0 0-2.002 4.339 6.8 6.8 0 0 0 .506 3.133 6.87 6.87 0 0 0 2.542 3.078l.019.013H17.25a5.78 5.78 0 0 1-4.066-1.674 5.68 5.68 0 0 1-1.684-4.04c0-3.032 1.212-5.939 3.368-8.082A11.54 11.54 0 0 1 23 11.429c3.05 0 5.975 1.204 8.132 3.347a11.4 11.4 0 0 1 3.368 8.081 5.68 5.68 0 0 1-1.684 4.04 5.75 5.75 0 0 1-4.066 1.675"/></g><defs><clipPath id="a"><path fill="#fff" d="M0 0h46v40H0z"/></clipPath></defs></svg>