<svg width="43" height="44" viewBox="0 0 43 44" fill="none" xmlns="http://www.w3.org/2000/svg">
<g clip-path="url(#clip0_640_27556)">
<path fill-rule="evenodd" clip-rule="evenodd" d="M14.7432 0.553711C12.3176 0.553711 9.99137 1.51563 8.27622 3.22787L0 11.49V15.2718C0 17.9437 1.14965 20.3475 2.98206 22.0171C1.14965 23.6868 0 26.0905 0 28.7624V32.5443L8.27622 40.8064C9.99137 42.5186 12.3176 43.4805 14.7432 43.4805C17.4196 43.4805 19.8275 42.3329 21.5 40.5036C23.1725 42.3329 25.5804 43.4805 28.2568 43.4805C30.6824 43.4805 33.0086 42.5186 34.7238 40.8064L43 32.5443V28.7624C43 26.0905 41.8504 23.6868 40.018 22.0171C41.8504 20.3475 43 17.9437 43 15.2718V11.49L34.7238 3.22787C33.0086 1.51563 30.6824 0.553711 28.2568 0.553711C25.5804 0.553711 23.1725 1.7014 21.5 3.53069C19.8275 1.7014 17.4196 0.553711 14.7432 0.553711ZM27.6907 22.0171C27.5876 21.9232 27.4865 21.8267 27.3873 21.7278L21.5 15.8505L15.6127 21.7278C15.5135 21.8267 15.4124 21.9232 15.3093 22.0171C15.4124 22.111 15.5135 22.2075 15.6127 22.3064L21.5 28.1838L27.3873 22.3064C27.4865 22.2075 27.5876 22.111 27.6907 22.0171ZM23.8889 32.5443V34.3504C23.8889 36.7586 25.8445 38.7109 28.2568 38.7109C29.4152 38.7109 30.5262 38.2515 31.3454 37.4337L38.2223 30.5686V28.7624C38.2223 26.3542 36.2666 24.4019 33.8543 24.4019C32.6959 24.4019 31.5849 24.8613 30.7657 25.6791L23.8889 32.5443ZM19.1111 32.5443L12.2343 25.6791C11.4151 24.8613 10.3041 24.4019 9.14569 24.4019C6.73336 24.4019 4.77777 26.3542 4.77777 28.7624V30.5686L11.6546 37.4337C12.4738 38.2515 13.5848 38.7109 14.7432 38.7109C17.1555 38.7109 19.1111 36.7586 19.1111 34.3504V32.5443ZM19.1111 9.68384V11.49L12.2343 18.3551C11.4151 19.1729 10.3041 19.6323 9.14569 19.6323C6.73336 19.6323 4.77777 17.68 4.77777 15.2718V13.4657L11.6546 6.60051C12.4738 5.78276 13.5848 5.32336 14.7432 5.32336C17.1555 5.32336 19.1111 7.27561 19.1111 9.68384ZM30.7657 18.3551L23.8889 11.49V9.68384C23.8889 7.27561 25.8445 5.32336 28.2568 5.32336C29.4152 5.32336 30.5262 5.78276 31.3454 6.60051L38.2223 13.4657V15.2718C38.2223 17.68 36.2666 19.6323 33.8543 19.6323C32.6959 19.6323 31.5849 19.1729 30.7657 18.3551Z" fill="#8B1E1E"/>
</g>
<defs>
<clipPath id="clip0_640_27556">
<rect width="43" height="44" fill="white"/>
</clipPath>
</defs>
</svg>
