<svg xmlns="http://www.w3.org/2000/svg" width="84" height="40" fill="none" viewBox="0 0 84 40"><g clip-path="url(#a)"><path fill="#8b1e1e" d="M76.062 38.945v.095a1 1 0 0 1-.084.154l-.12.142-.121.107a1.5 1.5 0 0 1-.422.248h-.06q-.226.089-.47.095H69.97a.9.9 0 0 1-.686-.284l-5.261-5.352-3.455 5.162-.072.095-.12.142h-.206a1.1 1.1 0 0 1-.325.19l-.12.059q-.227.081-.47.094H54.44a.9.9 0 0 1-.686-.284l-1.794-2.024-6.308 2.214a1.1 1.1 0 0 1-.47.094.92.92 0 0 1-.602-.2l-.096-.096-3.01-3.386c-.12.403-.217.805-.349 1.184l-.072.166a.6.6 0 0 1-.084.154l-.073.095-.132.142-.169.154q-.14.106-.3.177l-.35.426c-.165.062-.34.093-.517.095h-3.95a.9.9 0 0 1-.685-.272l-1.3-1.468-.567 1.847a.6.6 0 0 1-.072.177l-.072.154-.072.095-.12.142a1 1 0 0 1-.17.154 3 3 0 0 1-.312.178l-.157.082a1.6 1.6 0 0 1-.505.107h-7.151a.9.9 0 0 1-.699-.284L22.55 38.53h-3.792l-.085.284q-.021.09-.06.178a1 1 0 0 0-.084.154l-.072.094-.12.142a1 1 0 0 1-.17.154q-.15.1-.312.178l-.157.083c-.16.063-.332.1-.505.106h-4.467a.9.9 0 0 1-.686-.284l-1.384-1.551h-4.13a.9.9 0 0 1-.686-.272L.217 31.805q.068.068.156.107a.7.7 0 0 1-.252-.249 1.06 1.06 0 0 1 0-.983A122 122 0 0 0 7.91 10.705v-.083l-.398-.45s.06 0 .097.083a.9.9 0 0 1-.241-.971L8.68 4.95a1.73 1.73 0 0 1 .593-.825c.276-.211.61-.336.96-.359h4.816l.782-2.581c.111-.326.318-.613.594-.824.277-.21.61-.336.96-.36h4.502a.86.86 0 0 1 .698.32l1.541 1.74.12-.32c.11-.33.317-.619.596-.83.28-.212.618-.335.97-.354h15.903a.9.9 0 0 1 .698.32l4.816 5.458-.084-4.546A1.45 1.45 0 0 1 47.65.735a1.62 1.62 0 0 1 1.108-.486h4.815a.88.88 0 0 1 .77.415.5.5 0 0 0-.084-.13l3.612 4.037.614-2.025c.107-.328.312-.618.59-.829a1.75 1.75 0 0 1 .963-.355h17.577a.9.9 0 0 1 .71.308l5.49 6.193.072.083a.7.7 0 0 1 .109.296v.06q.008.13 0 .26a2 2 0 0 1 0 .2L78.47 26.869l-.073.177-.084.154s0 .06-.072.095l-.12.142-.181.154c-.096.07-.205.118-.301.177-.096.06-.108.072-.157.083-.163.07-.339.107-.517.107h-2.408l.951 1.066v.082q.092.167.108.356l.53 8.928v.402c0 .083-.084.119-.084.154"/><path fill="#fff" d="M1.3 30.906a124 124 0 0 0 7.886-20.2h3.744a130 130 0 0 1-7.633 20.2zM25.498 1.718l-1.312 4.286h15.88l1.312-4.286zM13.315 31.32h4.479a66.7 66.7 0 0 0 6.633-14.801h-3.985a56.8 56.8 0 0 1-7.151 14.742zm7.813-21.03-1.324 4.358h7.597l-4.202 13.795h-2.745l-1.324 4.322h7.15l5.515-18.117h7.38l1.336-4.357zm-3.37 3.446 1.348-4.416h2.78l1.325-4.334h-2.757l1.204-3.754h-4.587l-1.204 3.754H9.908L8.584 9.32h6.02L7.5 32.788h4.467l4.19-13.759 1.576 1.528 1.601-5.258zm14.687 2.925a46.4 46.4 0 0 1-2.07 14.813h3.96a53.5 53.5 0 0 0 2.408-14.813zM53.308 1.398h-4.876l.133 7.567h4.888zm-10.197 9.935-1.408 4.641h3.359l-5.117 16.814 8.632-3.03 1.577-5.2-3.443 1.185 4.394-14.422zm10.944 21.432 5.959-8.916h-4.816l-6.02 8.916zM59.76 2.523l-5.55 18.188h17.577l5.538-18.188zm8.812 13.653h-8.366l2.768-9.13h8.428l-2.781 9.13m-4.6 7.637.53 8.916h4.816l-.542-8.916z"/></g><defs><clipPath id="a"><path fill="#fff" d="M0 0h84v40H0z"/></clipPath></defs></svg>