<svg xmlns="http://www.w3.org/2000/svg" width="64" height="60" fill="none" viewBox="0 0 64 60"><g fill="#8b1e1e" clip-path="url(#a)"><path d="M31.056 5.912c-.278-.66-.74-1.578-1.418-2.57a15 15 0 0 0-3.1-3.331c.643-.028 1.26 0 1.83.063.421.415.795.866 1.121 1.33.91 1.29 1.422 2.634 1.557 3.447q.01.058.041.108a.3.3 0 0 0 .041-.108c.135-.813.648-2.158 1.557-3.448A9.7 9.7 0 0 1 33.806.074a12 12 0 0 1 1.83-.063 15 15 0 0 0-3.1 3.331c-.678.992-1.14 1.91-1.418 2.57v.153l-.031-.077-.031.077z"/><path d="M31.087.732a9 9 0 0 0-1.591-.477q.339.398.627.807c.372.528.683 1.067.933 1.581v.132l.031-.066.031.066v-.132c.25-.514.561-1.053.933-1.58q.287-.41.627-.808c-.645.136-1.19.31-1.591.477M29 3.676c-.816-1.192-1.956-2.495-3.488-3.573Q25.011.17 24.5.292c1.168.6 2.125 1.508 2.95 2.435.447.504.867 1.027 1.263 1.52l.49.606c.404.492.78.924 1.146 1.261A14.3 14.3 0 0 0 29 3.676m-2.139-.549c-.967-1.087-2.04-2.05-3.348-2.545a9.5 9.5 0 0 0-1.292.564c1.165.22 2.174.852 3.047 1.568.63.517 1.216 1.101 1.748 1.63q.305.306.584.577a9 9 0 0 0 .996.852q.27.04.566.124a21 21 0 0 1-.565-.665 75 75 0 0 1-.506-.626 38 38 0 0 0-1.23-1.479m4.226 35.793.031.115v-.226c.155-.535.349-1.06.562-1.577.265-.64.563-1.27.86-1.89l.092-.195c.266-.555.527-1.102.765-1.648 1.025-2.358 1.562-4.614-.082-7.038-.668.208-1.458.3-2.228.306-.77-.006-1.56-.098-2.228-.306-1.644 2.425-1.107 4.68-.082 7.038.238.546.5 1.093.765 1.648l.093.195c.296.62.594 1.25.859 1.89.214.516.407 1.042.562 1.577v.226z"/><path d="M28.175 26.194c-1.766 2.659-1.136 5.138-.093 7.536.242.556.508 1.113.773 1.667l.093.195c.297.62.588 1.237.846 1.86.288.696.532 1.393.69 2.098a11.4 11.4 0 0 0-1.48-1.996c-.21-.415-.45-.833-.703-1.253s-.52-.84-.787-1.264c-.556-.88-1.12-1.771-1.584-2.68-.684-1.337-1.12-2.653-.983-3.922.12-1.114.684-2.226 1.993-3.309.246.447.683.803 1.235 1.068"/><path d="M24.206 28.375c.148-1.378.89-2.712 2.521-3.959a2 2 0 0 1-.002-.283c.053-.059.17-.13.435-.204a9 9 0 0 1 .948-.185l.379-.063c.509-.088 1.074-.202 1.577-.41.386-.16.747-.379 1.023-.691.276.312.637.532 1.023.69.503.209 1.068.323 1.578.41l.378.064c.367.06.685.111.948.185.265.074.383.145.435.204q.009.146-.002.284c1.63 1.246 2.374 2.58 2.521 3.958.155 1.434-.341 2.872-1.045 4.248-.477.933-1.067 1.867-1.631 2.761l-.39.618c1.052-.793 2.188-1.446 3.346-2.111l.14-.08c1.182-2.673 1.28-4.78.847-6.461-.516-2.002-1.796-3.446-3.018-4.553l-.008.008-.016.018q-.151.153-.264.245-.062.052-.12.09a.8.8 0 0 1-.289.133q-.097.025-.207.039l-.073-.021c-.311-.087-.694-.15-1.073-.211l-.336-.056c-.502-.086-.989-.188-1.403-.36-.399-.164-.71-.385-.9-.701l.235-1.353c.073-.42.319-.804.71-1.056l.12-.076.006-.004c.537-.344 1.095-.702 1.646-1.263.255-.26.372-.599.372-.942a2.34 2.34 0 0 1-1.5.527h-4.06a2.34 2.34 0 0 1-1.5-.527c0 .343.117.682.373.942.55.561 1.108.919 1.645 1.263l.002.002.123.078c.392.252.639.636.712 1.056l.234 1.352c-.19.317-.5.538-.9.703-.414.17-.901.273-1.403.359l-.335.056c-.38.062-.762.124-1.074.21l-.073.022a2 2 0 0 1-.207-.038.8.8 0 0 1-.289-.133 2 2 0 0 1-.12-.09 3 3 0 0 1-.263-.246l-.025-.026c-1.222 1.107-2.502 2.551-3.018 4.553-.433 1.68-.335 3.788.847 6.46l.14.08c1.158.666 2.294 1.32 3.346 2.112l-.389-.617c-.565-.895-1.155-1.829-1.632-2.762-.704-1.376-1.2-2.814-1.045-4.248"/><path d="M25.517 22.259c-1.29 1.154-2.73 2.725-3.304 4.947-.423 1.642-.366 3.612.535 6-.914-.542-1.83-1.124-2.715-1.819a6.3 6.3 0 0 1-.397-1.948c-.052-1.528.539-2.83 1.372-3.984.658-.912 1.451-1.713 2.194-2.463q.31-.313.603-.615c.41-.425.786-.84 1.072-1.248h.043a5 5 0 0 0 .597 1.13"/><path d="M24.297 20.708q.264-.393.35-.725a4.7 4.7 0 0 1-.004-.963c.027-.27.068-.616.093-.82l-.217-.164-.153-.119q-.028.087-.063.178c-.136.353-.362.773-.7 1.251-.675.956-1.806 2.16-3.6 3.55-2.148 1.665-2.858 3.324-2.833 4.794q.01.474.112.925a15 15 0 0 0 1.739 1.91 6.4 6.4 0 0 1-.129-1.067c-.058-1.697.602-3.126 1.486-4.35.691-.958 1.534-1.809 2.28-2.563q.303-.305.577-.588c.437-.452.804-.863 1.062-1.25"/><path d="M23.727 17.355a1.7 1.7 0 0 1-.129.532c-.115.298-.314.673-.628 1.118-.628.89-1.708 2.046-3.46 3.404-2.145 1.663-3.008 3.38-3.08 4.984q-.398-.622-.731-1.246.016-.41.093-.813c.31-1.62 1.372-3.21 3.471-4.652 1.797-1.234 2.82-2.39 3.412-3.269.187-.277.33-.525.441-.738q.268.342.611.68"/><path d="m22.588 16.099.053-.122a5.5 5.5 0 0 1-.484-1.088 12 12 0 0 1-.96 1.07c-.827.83-2.037 1.865-3.726 3.02-1.928 1.317-2.705 3.029-2.936 4.473q.249.749.582 1.502c.408-1.707 1.58-3.336 3.687-4.784 1.724-1.184 2.685-2.279 3.23-3.088a6.6 6.6 0 0 0 .554-.983"/><path d="M21.947 13.921c-.137.27-.535.832-1.31 1.61-.794.795-1.969 1.803-3.624 2.934-1.552 1.061-2.423 2.353-2.876 3.592a16 16 0 0 1-.436-3.316c.41-.918 1.584-2.332 4.14-3.38 1.673-.687 2.898-1.5 3.738-2.226q.184-.159.346-.314c-.027.344-.025.713.022 1.1m-.891-1.248c.608-.526.973-.98 1.148-1.266q.113-.358.267-.711a8 8 0 0 1-.569-.24c-.67.498-1.89 1.265-4.397 2.137-1.385.482-2.234 1.208-2.725 2.009-.436.713-.599 1.503-.579 2.262.748-.733 1.828-1.479 3.323-2.092 1.595-.655 2.751-1.425 3.532-2.1m1.707-2.574c-2.263-.859-3.161-2.462-3.184-3.89-.025-1.518.908-2.72 2.137-2.857.55-.061 1.106.182 1.917.784a33 33 0 0 1 1.291 1.038l.056.046c.401.333.844.7 1.34 1.09-.215.14-.424.3-.633.467-.506-.73-1.86-1.475-4.518-1.321-.205.012-.36.167-.347.346.014.18.19.315.396.303 2.757-.16 3.682.697 3.904 1.136l-.1.088c-.605-.157-1.34-.189-2.032-.154-.777.038-1.548.164-2.098.324-.195.057-.3.241-.236.412.065.17.276.262.47.205.478-.139 1.182-.256 1.906-.292.5-.025.988-.01 1.405.054a9.8 9.8 0 0 0-1.675 2.22"/><path d="M25.492 4.747c.445.37.935.774 1.489 1.206a3 3 0 0 1 .534-.163q-.231-.205-.466-.432-.304-.295-.617-.609c-.524-.521-1.071-1.067-1.673-1.56a9 9 0 0 0-1.013-.725c-1.462-.884-3.322-.344-4.492.907-1.932 2.065-1.256 3.728-.597 5.227-.813.104-1.677.695-2.45 1.652a8.4 8.4 0 0 1 1.636-.649 9.8 9.8 0 0 1 2.309-.362c-.896-.91-1.301-1.997-1.318-3.023-.027-1.68 1.02-3.315 2.788-3.511.893-.1 1.671.324 2.493.934.4.297.833.657 1.313 1.055zm-7.42 5.473a7.5 7.5 0 0 0-1.612.658c-.927.518-1.557 1.432-1.917 2.437q-.122.338-.229.695c.596-.825 1.535-1.541 2.916-2.021 2.203-.767 3.355-1.44 4.004-1.895a6 6 0 0 1-.282-.184c-.595-.062-1.702-.022-2.88.31m11.623 1.854-1.216 3.672c.336-1.032.226-2.028.081-2.718a3.8 3.8 0 0 1-1.205-.065c-.905-.202-1.508-.902-2.083-1.57q-.128-.149-.255-.293a6 6 0 0 0-.416-.418q.393.062.77.116c1.558.23 2.93.433 4.324 1.276m-1.215 3.672-.015.042zm4.695-12.07c.815-1.192 1.956-2.495 3.487-3.573q.502.067 1.013.189c-1.167.6-2.124 1.508-2.95 2.435-.447.504-.867 1.027-1.263 1.52q-.25.313-.49.606c-.403.492-.78.924-1.146 1.261a14.3 14.3 0 0 1 1.35-2.438m2.137-.549c.967-1.087 2.04-2.05 3.348-2.545q.65.227 1.292.564c-1.165.22-2.173.852-3.047 1.568-.63.517-1.216 1.101-1.748 1.63q-.305.306-.584.577a9 9 0 0 1-.995.852 5 5 0 0 0-.566.124q.282-.319.564-.665.251-.307.507-.626c.39-.487.793-.989 1.229-1.479M34 26.194c1.765 2.659 1.135 5.138.092 7.536a52 52 0 0 1-.773 1.667l-.093.195c-.297.62-.588 1.237-.846 1.86a13 13 0 0 0-.69 2.098 11.3 11.3 0 0 1 1.48-1.996c.21-.415.45-.833.703-1.253.254-.42.52-.84.787-1.264.557-.88 1.12-1.771 1.584-2.68.684-1.337 1.12-2.653.984-3.922-.12-1.114-.685-2.226-1.994-3.309-.246.447-.683.803-1.235 1.068m2.658-3.935c1.29 1.154 2.731 2.725 3.304 4.947.423 1.642.366 3.612-.535 6 .915-.542 1.83-1.124 2.715-1.819a6.3 6.3 0 0 0 .397-1.948c.052-1.528-.538-2.83-1.372-3.984-.657-.912-1.451-1.713-2.193-2.463a64 64 0 0 1-.603-.615c-.41-.425-.787-.84-1.072-1.248h-.044a5 5 0 0 1-.597 1.13"/><path d="M37.877 20.708a2.4 2.4 0 0 1-.35-.725q.052-.478.004-.963c-.026-.27-.068-.616-.093-.82l.217-.164.153-.119q.029.087.063.178c.137.353.363.773.7 1.251.675.956 1.806 2.16 3.6 3.55 2.148 1.665 2.859 3.324 2.833 4.794a4.6 4.6 0 0 1-.112.925 15 15 0 0 1-1.739 1.91q.112-.547.129-1.067c.058-1.697-.602-3.126-1.486-4.35-.691-.958-1.534-1.809-2.28-2.563q-.303-.305-.577-.588c-.437-.452-.804-.863-1.062-1.25"/><path d="M38.447 17.355c.004.117.037.294.13.532.114.298.313.673.627 1.118.629.89 1.708 2.046 3.46 3.404 2.146 1.663 3.008 3.38 3.08 4.984q.398-.622.731-1.246a5.5 5.5 0 0 0-.093-.813c-.309-1.62-1.371-3.21-3.471-4.652-1.797-1.234-2.82-2.39-3.412-3.269a8 8 0 0 1-.44-.738 7 7 0 0 1-.612.68"/><path d="m39.586 16.099-.053-.122c.213-.366.37-.731.484-1.088.238.303.555.663.96 1.07.828.83 2.037 1.865 3.726 3.02 1.928 1.317 2.705 3.029 2.936 4.473q-.249.749-.582 1.502c-.408-1.707-1.58-3.336-3.687-4.784-1.724-1.184-2.685-2.279-3.23-3.088a6.7 6.7 0 0 1-.554-.983"/><path d="M40.227 13.921c.137.27.536.832 1.311 1.61.794.795 1.968 1.803 3.624 2.934 1.551 1.061 2.422 2.353 2.875 3.592.271-1.135.409-2.248.437-3.316-.41-.918-1.585-2.332-4.14-3.38-1.674-.687-2.9-1.5-3.739-2.226a9 9 0 0 1-.346-.314c.027.344.025.713-.022 1.1m.892-1.248c-.609-.526-.974-.98-1.149-1.266a7 7 0 0 0-.267-.711q.298-.113.569-.24c.67.498 1.89 1.265 4.397 2.137 1.385.482 2.234 1.208 2.725 2.009.437.713.599 1.503.579 2.262-.748-.733-1.827-1.479-3.323-2.092-1.595-.655-2.751-1.425-3.532-2.1m-1.706-2.574c2.262-.859 3.16-2.462 3.184-3.89.024-1.518-.909-2.72-2.137-2.857-.55-.061-1.106.182-1.918.784a32 32 0 0 0-1.291 1.038l-.056.046c-.4.333-.844.7-1.34 1.09.215.14.424.3.633.467.506-.73 1.86-1.475 4.518-1.321.206.012.36.167.347.346-.013.18-.19.315-.396.303-2.756-.16-3.682.697-3.904 1.136l.101.088c.604-.157 1.339-.189 2.031-.154.778.038 1.549.164 2.099.324.195.057.3.241.235.412s-.276.262-.47.205c-.477-.139-1.182-.256-1.906-.292-.5-.025-.988-.01-1.405.054a9.8 9.8 0 0 1 1.675 2.22"/><path d="M36.682 4.747c-.445.37-.935.774-1.489 1.206a3 3 0 0 0-.534-.163q.232-.205.466-.432.304-.295.617-.609c.523-.521 1.071-1.067 1.673-1.56a9 9 0 0 1 1.013-.725c1.462-.884 3.322-.344 4.492.907 1.932 2.065 1.256 3.728.597 5.227.813.104 1.676.695 2.45 1.652a8.4 8.4 0 0 0-1.636-.649 10 10 0 0 0-2.309-.362c.895-.91 1.301-1.997 1.318-3.023.027-1.68-1.02-3.315-2.788-3.511-.894-.1-1.672.324-2.493.934-.4.297-.833.657-1.313 1.055zm7.42 5.473a7.5 7.5 0 0 1 1.612.658c.927.518 1.557 1.432 1.918 2.437q.12.338.228.695c-.596-.825-1.535-1.541-2.916-2.021-2.203-.767-3.355-1.44-4.004-1.895a6 6 0 0 0 .282-.184c.595-.062 1.702-.022 2.88.31m-11.623 1.854 1.216 3.672.014.041-.014-.041c-.336-1.032-.225-2.028-.08-2.718a3.8 3.8 0 0 0 1.205-.065c.904-.202 1.507-.902 2.082-1.57q.128-.149.255-.293c.117-.132.254-.268.417-.418q-.394.062-.771.116c-1.558.23-2.929.433-4.324 1.276"/><path fill-rule="evenodd" d="M5.996 49.74a4.3 4.3 0 0 1-.295-1.62q0-.88.295-1.608a3.67 3.67 0 0 1 2.11-2.093 4.4 4.4 0 0 1 1.639-.297q.896 0 1.628.297.743.287 1.279.826.546.53.841 1.267a4.2 4.2 0 0 1 .295 1.608q0 .881-.295 1.62a3.7 3.7 0 0 1-.841 1.266 3.8 3.8 0 0 1-1.28.826 4.4 4.4 0 0 1-1.627.286 4.5 4.5 0 0 1-1.64-.286 4 4 0 0 1-1.278-.826 3.8 3.8 0 0 1-.831-1.267m6.284-1.62q0-.771-.328-1.344a2.3 2.3 0 0 0-.885-.914q-.569-.33-1.322-.33-.744 0-1.323.33-.568.33-.896.914-.317.573-.317 1.344 0 .76.317 1.344.328.584.896.914.579.33 1.323.33.753 0 1.322-.33t.885-.914q.328-.584.328-1.344" clip-rule="evenodd"/><path d="M4.044 50.554H1.825V45.62q0-.517.098-.804.11-.286.296-.408v-.088H.033v.088q.057.047.106.114a1 1 0 0 1 .053.085q.053.1.092.231.087.286.088.782v5q0 .495-.099.793-.097.286-.273.419v.088h4.404q.252 0 .492.011a3 3 0 0 1 .448.077v-1.817h-.087q-.132.176-.426.275-.296.088-.787.088m16.85-4.35h.087v-1.939a1 1 0 0 1-.132.041 1.1 1.1 0 0 1-.389.014 4 4 0 0 1-.451-.088 3.8 3.8 0 0 0-.984-.11q-1.29 0-2.262.507a3.64 3.64 0 0 0-1.498 1.398q-.535.893-.535 2.093 0 .87.295 1.608.295.727.841 1.267.547.54 1.28.837.742.286 1.627.286 1.16 0 2-.485.842-.484 1.29-1.343.46-.86.46-1.983 0-.22.054-.385a.8.8 0 0 1 .175-.275v-.089h-3.508a6 6 0 0 1-.362-.012l-.03-.002-.065-.005-.035-.003a3.4 3.4 0 0 1-.448-.066v1.796h.087q.13-.187.437-.298.185-.074.44-.102.165-.02.358-.019h1.343a1.8 1.8 0 0 1-.283.936q-.285.43-.787.683a2.5 2.5 0 0 1-1.126.242 2.6 2.6 0 0 1-1.322-.33 2.4 2.4 0 0 1-.896-.914q-.317-.584-.317-1.344 0-.781.35-1.366.349-.584.983-.903.645-.32 1.498-.32.306 0 .568.045.273.033.503.121.24.077.437.231.207.154.317.276"/><path fill-rule="evenodd" d="M23.691 49.74a4.3 4.3 0 0 1-.295-1.62q0-.88.295-1.608a3.67 3.67 0 0 1 2.11-2.093 4.4 4.4 0 0 1 1.639-.297q.896 0 1.628.297a3.6 3.6 0 0 1 1.278.826q.547.53.842 1.267a4.2 4.2 0 0 1 .295 1.608q0 .881-.295 1.62a3.73 3.73 0 0 1-2.12 2.092 4.4 4.4 0 0 1-1.628.286 4.5 4.5 0 0 1-1.64-.286 4 4 0 0 1-1.279-.826 3.8 3.8 0 0 1-.83-1.267m6.284-1.62q0-.771-.328-1.344a2.3 2.3 0 0 0-.885-.914q-.569-.33-1.322-.33-.744 0-1.323.33-.568.33-.896.914-.317.573-.317 1.344 0 .76.317 1.344.328.584.896.914.579.33 1.323.33.753 0 1.322-.33.568-.33.885-.914.328-.584.328-1.344" clip-rule="evenodd"/><path d="M32.633 44.838q.087.286.087.782v5q0 .495-.087.793-.088.286-.252.419v.088h2.131v-.088q-.164-.132-.25-.419a2 2 0 0 1-.057-.269 4 4 0 0 1-.031-.524v-5q0-.495.087-.782.087-.297.251-.43v-.088h-2.13v.088q.163.133.25.43"/><path fill-rule="evenodd" d="M37.162 50.62q0 .507.098.804a1.2 1.2 0 0 0 .128.244.7.7 0 0 0 .168.164v.088H35.37v-.088a.6.6 0 0 0 .155-.188 1 1 0 0 0 .096-.23q.087-.298.087-.794v-5q0-.495-.098-.782-.099-.297-.273-.43v-.088h2.721q1.399 0 2.186.727.798.727.797 2.005 0 .848-.36 1.465-.36.605-1.027.936-.667.33-1.596.33h-.896zm.83-2.18h-.83v-2.776h.83q.755 0 1.148.352.393.353.393 1.036 0 .672-.393 1.035-.393.353-1.148.353" clip-rule="evenodd"/><path d="M43.888 45.356q-.404.573-.798 1.553l-.841 2.082q-.252.627-.47.958-.208.33-.416.451a.8.8 0 0 1-.437.122.9.9 0 0 1-.35-.067l-.075-.04-.024-.014a1 1 0 0 1-.184-.155h-.088v1.652a2.2 2.2 0 0 0 .483.073l.184.004q.513 0 .918-.143.415-.143.743-.452a4 4 0 0 0 .623-.814q.295-.496.58-1.201l.84-2.082q.252-.627.47-.958.23-.342.427-.463a.7.7 0 0 1 .382-.132q.176 0 .317.077a.6.6 0 0 1 .219.155h.087v-1.73a1 1 0 0 1-.262.044h-.142a1.5 1.5 0 0 0-.219-.01q-.6 0-1.082.253-.47.254-.885.837m3.302.264q0-.234-.02-.42a2 2 0 0 0-.067-.362q-.087-.297-.251-.43v-.088h2.13v.088q-.163.133-.25.43a2 2 0 0 0-.072.392 4 4 0 0 0-.016.39v3.535q0 .76.328 1.157t.961.397.962-.397.328-1.157V45.62q0-.495-.087-.782-.089-.297-.252-.43v-.088h2.131v.088a.7.7 0 0 0-.144.172l-.011.02a1 1 0 0 0-.061.134l-.035.104q-.088.286-.088.782v3.602q0 .936-.317 1.586-.305.65-.917.98t-1.509.33-1.508-.33a2.16 2.16 0 0 1-.929-.98q-.306-.65-.306-1.586zm6.852-.738q.098.33.098.826v4.912q0 .495-.088.793-.087.286-.251.419v.088h2.131v-.088q-.165-.132-.251-.419-.088-.297-.088-.793v-3.67l2.175 1.952h.044l2.164-1.974v3.692q0 .495-.088.793a1 1 0 0 1-.103.242.7.7 0 0 1-.148.177v.088h2.131v-.088a.7.7 0 0 1-.202-.282 1 1 0 0 1-.05-.137q-.087-.297-.087-.793v-4.912q0-.496.099-.826a1.4 1.4 0 0 1 .132-.294.7.7 0 0 1 .152-.18v-.088h-1.946v.066a.63.63 0 0 1 .099.507q-.044.286-.339.562l-1.812 1.696-1.947-1.762q-.263-.242-.296-.518a.63.63 0 0 1 .132-.485v-.066h-1.946v.088a.7.7 0 0 1 .179.216q.06.11.105.258"/><path fill-rule="evenodd" d="M34.962 58.203q0 .865.298 1.331t.85.466a.95.95 0 0 0 .854-.466q.298-.465.298-1.331 0-.867-.298-1.332a.95.95 0 0 0-.855-.466.95.95 0 0 0-.85.466q-.297.465-.297 1.332m1.868 0q0 .686-.184 1.04-.18.357-.537.356-.353 0-.536-.355-.184-.356-.184-1.041 0-.687.184-1.042.183-.355.536-.355.358 0 .537.355.183.355.184 1.042" clip-rule="evenodd"/><path d="M33.973 59.534h-.94l.582-.796q.323-.44.462-.761.06-.135.095-.26.05-.177.05-.34 0-.441-.299-.697-.297-.26-.81-.26h-.04a2 2 0 0 0-.233.019l-.034.006q-.124.025-.204.05a.5.5 0 0 1-.13.02h-.054l-.075-.01v.626h.035a.6.6 0 0 1 .08-.1.8.8 0 0 1 .323-.175 1 1 0 0 1 .278-.04q.333 0 .526.165a.55.55 0 0 1 .194.45q0 .15-.07.34-.069.187-.223.436-.15.25-.392.586l-.8 1.101v.035h1.823q.094 0 .184.005a1 1 0 0 1 .159.03v-.63h-.04a.35.35 0 0 1-.159.15.7.7 0 0 1-.288.05m-12.683-.01h-1.232v-1.346h.636q.164 0 .243.035a.3.3 0 0 1 .101.066l.007.008.003.004.003.005.006.007h.034v-.651h-.034a.3.3 0 0 1-.156.103.8.8 0 0 1-.207.022h-.636v-.896h1.202q.185 0 .288.05a.32.32 0 0 1 .16.15h.039v-.64a1.4 1.4 0 0 1-.235.031l-.108.003h-1.947v.04a.3.3 0 0 1 .124.156q.05.11.05.31v2.443a.8.8 0 0 1-.05.31.4.4 0 0 1-.055.097.3.3 0 0 1-.069.059v.04h1.977q.094 0 .184.005a1 1 0 0 1 .159.03v-.64h-.035a.35.35 0 0 1-.245.178 1 1 0 0 1-.207.021m2.399-2.488h-.035a.4.4 0 0 0-.09-.08.43.43 0 0 0-.218-.09.5.5 0 0 0-.134-.015.6.6 0 0 0-.408.13.41.41 0 0 0-.154.33v.018l.001.014a.5.5 0 0 0 .025.129q.021.06.059.115.084.115.293.255l.258.17a2 2 0 0 1 .228.173q.072.063.13.128.144.15.213.32.034.084.052.176.018.095.018.2a.87.87 0 0 1-.303.685q-.298.26-.854.26-.144 0-.293-.02a2 2 0 0 1-.239-.034v-.56h.035l.08.08a1 1 0 0 0 .089.054.6.6 0 0 0 .234.078 1 1 0 0 0 .114.007q.312 0 .496-.15a.5.5 0 0 0 .184-.4.54.54 0 0 0-.14-.372 1 1 0 0 0-.121-.125 2 2 0 0 0-.246-.184l-.253-.175a1.6 1.6 0 0 1-.268-.217.82.82 0 0 1-.247-.562l-.002-.057q0-.391.284-.626.288-.24.79-.24a1 1 0 0 1 .138.006l.025.004.03.002h.024l.02.002h.045l.05-.004a1 1 0 0 0 .09-.02zm.904-.155h.562v2.573a.7.7 0 0 1-.045.29.3.3 0 0 1-.052.091.3.3 0 0 1-.067.06v.035h.755v-.035a.33.33 0 0 1-.124-.15.5.5 0 0 1-.031-.131l-.003-.026-.003-.03v-.017l-.001-.01v-.01l-.001-.019-.001-.028V56.88h.561q.185 0 .288.05a.4.4 0 0 1 .095.062.3.3 0 0 1 .064.088h.04v-.64a1.6 1.6 0 0 1-.343.034H24.45a2 2 0 0 1-.343-.035v.641h.04a.3.3 0 0 1 .154-.15.7.7 0 0 1 .293-.05"/><path fill-rule="evenodd" d="M28.045 56.476q.6 0 1.028.205.432.205.66.596.234.386.234.926t-.233.931a1.5 1.5 0 0 1-.661.59q-.428.207-1.029.206h-1.077v-.04a.3.3 0 0 0 .124-.155.8.8 0 0 0 .05-.31V56.98q0-.067-.006-.124a.6.6 0 0 0-.044-.186l-.007-.016-.006-.012-.003-.007-.008-.015-.009-.014a.3.3 0 0 0-.091-.091v-.04zm1.475 1.727q0-.401-.174-.696a1.15 1.15 0 0 0-.492-.46 1.6 1.6 0 0 0-.75-.166h-.536v2.644h.536q.437 0 .75-.16.318-.165.492-.461.174-.3.174-.701" clip-rule="evenodd"/><path d="M30.245 59.67q0 .072.027.133.02.047.058.087.089.09.223.09a.28.28 0 0 0 .214-.09.3.3 0 0 0 .09-.22.3.3 0 0 0-.09-.216.28.28 0 0 0-.214-.09q-.134 0-.224.09a.3.3 0 0 0-.084.216m8.693-.216q0 .19.045.29a.36.36 0 0 0 .129.15v.036h-.78v-.035a.3.3 0 0 0 .09-.082.4.4 0 0 0 .04-.068.7.7 0 0 0 .049-.29v-2.419l-.755.366h-.04v-.416l1.182-.546h.04z"/><path fill-rule="evenodd" d="m41.186 58.533-.864 1.362v.035h.477l.899-1.487q.174-.285.248-.506a1.5 1.5 0 0 0 .075-.445q0-.32-.15-.566a1 1 0 0 0-.402-.38 1.1 1.1 0 0 0-.286-.108 1.4 1.4 0 0 0-.305-.033q-.172 0-.324.038-.146.036-.272.108a1.04 1.04 0 0 0-.407.395q-.15.25-.15.58a1.3 1.3 0 0 0 .042.321 1.04 1.04 0 0 0 .48.621q.244.14.552.14.204 0 .387-.075m.413-1.021a1 1 0 0 1-.015.155.7.7 0 0 1-.338.48.8.8 0 0 1-.378.09.74.74 0 0 1-.372-.09.7.7 0 0 1-.254-.25.8.8 0 0 1-.089-.37q0-.216.09-.376a.67.67 0 0 1 .258-.25.74.74 0 0 1 .377-.095q.21 0 .368.09a.67.67 0 0 1 .327.413q.026.094.026.203" clip-rule="evenodd"/><path d="M63.715 43.63a.656.656 0 0 1-.654.66.656.656 0 0 1-.653-.66c0-.363.292-.657.653-.657s.654.294.654.658"/></g><defs><clipPath id="a"><path fill="#fff" d="M0 0h64v60H0z"/></clipPath></defs></svg>