<svg width="51" height="40" viewBox="0 0 51 40" fill="none" xmlns="http://www.w3.org/2000/svg">
<g clip-path="url(#clip0_640_27541)">
<path d="M12.446 0L22.7801 8.82887C23.3936 9.35302 23.7473 10.1222 23.7473 10.9323V17.5862L13.4131 8.75734C12.7996 8.23319 12.446 7.464 12.446 6.65386V0Z" fill="#8B1E1E"/>
<path d="M12.446 40.0003L22.7801 31.1714C23.3936 30.6473 23.7473 29.8781 23.7473 29.068V22.4141L13.4131 31.243C12.7996 31.7671 12.446 32.5363 12.446 33.3464V40.0003Z" fill="#8B1E1E"/>
<path d="M0.117188 9.31055L10.3108 17.9707C10.805 18.3906 11.4308 18.6209 12.0775 18.6209H20.2982L10.1297 9.96274C9.63514 9.54162 9.00837 9.31055 8.36065 9.31055H0.117188Z" fill="#8B1E1E"/>
<path d="M0.117188 30.6893L10.2481 22.0341C10.7432 21.6111 11.3713 21.3789 12.0206 21.3789H20.3227L10.1291 30.039C9.63487 30.4589 9.00904 30.6893 8.36236 30.6893H0.117188Z" fill="#8B1E1E"/>
<path d="M37.7884 0L27.4542 8.82887C26.8407 9.35302 26.4871 10.1222 26.4871 10.9323V17.5862L36.8212 8.75734C37.4347 8.23319 37.7884 7.464 37.7884 6.65386V0Z" fill="#8B1E1E"/>
<path d="M37.7884 40.0003L27.4542 31.1714C26.8407 30.6473 26.4871 29.8781 26.4871 29.068V22.4141L36.8212 31.243C37.4347 31.7671 37.7884 32.5363 37.7884 33.3464V40.0003Z" fill="#8B1E1E"/>
<path d="M50.1172 9.31055L39.9236 17.9707C39.4294 18.3906 38.8035 18.6209 38.1569 18.6209H29.9361L40.1047 9.96274C40.5992 9.54162 41.226 9.31055 41.8737 9.31055H50.1172Z" fill="#8B1E1E"/>
<path d="M50.1171 30.6893L39.9862 22.0341C39.4911 21.6111 38.8629 21.3789 38.2136 21.3789H29.9116L40.1051 30.039C40.5994 30.4589 41.2252 30.6893 41.8719 30.6893H50.1171Z" fill="#8B1E1E"/>
</g>
<defs>
<clipPath id="clip0_640_27541">
<rect width="51" height="40" fill="white"/>
</clipPath>
</defs>
</svg>
