<svg xmlns="http://www.w3.org/2000/svg" width="78" height="30" fill="none" viewBox="0 0 78 30"><g fill="#8b1e1e" clip-path="url(#a)"><path d="M18.515 0c-3.046 0-5.968 1.21-8.122 3.364l-7.029 7.03A11.5 11.5 0 0 0 0 18.513C0 24.859 5.142 30 11.485 30c3.046 0 5.968-1.21 8.122-3.364l4.862-4.862L38.636 7.607a5.485 5.485 0 0 1 9.095 2.177l4.471-4.471A11.48 11.48 0 0 0 42.515 0c-3.046 0-5.968 1.21-8.122 3.364l-19.029 19.03a5.485 5.485 0 0 1-7.757-7.758l7.029-7.03a5.485 5.485 0 0 1 9.095 2.178l4.471-4.47A11.48 11.48 0 0 0 18.515 0"/><path d="M39.364 22.393a5.485 5.485 0 0 1-9.095-2.176l-4.47 4.47A11.48 11.48 0 0 0 35.484 30c3.046 0 5.968-1.21 8.122-3.364l19.029-19.03a5.485 5.485 0 0 1 7.757 7.758l-7.029 7.03a5.485 5.485 0 0 1-9.095-2.178l-4.471 4.471A11.48 11.48 0 0 0 59.485 30c3.046 0 5.968-1.21 8.122-3.364l7.029-7.03A11.5 11.5 0 0 0 78 11.487C78 5.141 72.858 0 66.515 0c-3.046 0-5.968 1.21-8.122 3.364z"/></g><defs><clipPath id="a"><path fill="#fff" d="M0 0h78v30H0z"/></clipPath></defs></svg>