<svg width="53" height="34" viewBox="0 0 53 34" fill="none" xmlns="http://www.w3.org/2000/svg">
<g clip-path="url(#clip0_640_27552)">
<path d="M6.00137 17.4369L32.7719 10.3109H8.62917L6.00137 17.4369ZM5.64154 18.4127L4.51688 21.4625H4.51844L1.79222 29.0271L32.9917 11.1324L5.64154 18.4127ZM1.34633 30.2642L0 34H11.1415L33.4191 11.8688L1.34633 30.2642ZM12.3515 34H21.513L34.0279 12.4661L12.3515 34ZM22.501 34H29.0744L34.7672 12.8939L22.501 34ZM29.9602 34H35.5934V13.1148L29.9602 34ZM36.449 34H42.0827L36.449 13.1132V34ZM42.8884 33.7028L44.7254 28.6054C45.0026 27.8361 45.1014 27.0256 45.0269 26.2311L37.2757 12.8937L42.8884 33.7028ZM43.0719 21.1671C43.9939 20.931 44.8677 20.5587 45.6663 20.0688L38.0174 12.4701L43.0719 21.1671ZM46.3853 19.5809C47.1647 18.9977 47.854 18.2936 48.4228 17.4899L38.622 11.8685L46.3853 19.5809ZM48.8828 16.7722C49.1464 16.3163 49.3736 15.8341 49.56 15.3287L50.0299 14.0544L39.0472 11.1309L48.8828 16.7722ZM50.3255 13.253L51.4103 10.3109H39.2726L50.3255 13.253ZM51.7238 9.46093L52.685 6.85431C52.8119 6.51022 52.8992 6.16402 52.9497 5.81981L39.271 9.46093H51.7238ZM53 4.92645C52.9561 3.62067 52.4004 2.39849 51.5005 1.49809L39.048 8.64034L53 4.92645ZM50.8051 0.915459C49.9836 0.34278 48.977 0 47.8646 0H46.5764L38.6196 7.90448L50.8051 0.915459ZM45.3664 0H42.2607L38.0184 7.29968L45.3664 0ZM41.2728 0H39.1308L37.2758 6.87751L41.2728 0ZM38.245 0H36.449V6.65841L38.245 0ZM35.5934 0H33.7979L35.5934 6.65681V0ZM32.9121 0H30.7702L34.7671 6.87731L32.9121 0ZM29.7822 0H26.6749L34.0269 7.30369L29.7822 0ZM25.4649 0H19.6403L33.4214 7.90419L25.4649 0ZM8.94264 9.46093H32.7734L11.0727 3.68445L8.94264 9.46093ZM11.3722 2.88419L32.991 8.6388L17.929 0H15.7192C13.8105 0 12.098 1.14427 11.3722 2.88419Z" fill="#8B1E1E"/>
</g>
<defs>
<clipPath id="clip0_640_27552">
<rect width="53" height="34" fill="white"/>
</clipPath>
</defs>
</svg>
