<svg xmlns="http://www.w3.org/2000/svg" width="36" height="50" fill="none" viewBox="0 0 36 50"><g clip-path="url(#a)"><path fill="#fff" d="m32.034 10.534.69.347 1.33-2.627.733.263v28.405l-.39.225a32.7 32.7 0 0 1-16.412 4.431 32.7 32.7 0 0 1-16.416-4.42l-.388-.224V8.516l.732-.264 1.33 2.628.69-.348a31.2 31.2 0 0 1 14.05-3.345 31.2 31.2 0 0 1 14.05 3.345z"/><path fill="#8b1e1e" d="M34.787 37.827a33.45 33.45 0 0 1-16.801 4.536A33.45 33.45 0 0 1 1.18 37.838v2.425l16.743 8.423 16.863-8.423zM32.381 9.832a32 32 0 0 0-14.398-3.428A31.96 31.96 0 0 0 3.585 9.832L1.05 4.82A37.56 37.56 0 0 1 17.983.782c5.88 0 11.678 1.382 16.933 4.037z"/><path fill="#8b1e1e" fill-rule="evenodd" d="m32.724 10.881-.691-.347a31.2 31.2 0 0 0-14.05-3.346 31.2 31.2 0 0 0-14.05 3.346l-.69.347-.352-.694-.92-1.818L.356 5.175 0 4.472l.701-.353A38.3 38.3 0 0 1 17.983 0c6 0 11.918 1.411 17.282 4.12l.702.354zm-.343-1.05a32 32 0 0 0-14.398-3.428A31.96 31.96 0 0 0 3.585 9.83l-.919-1.817q-.632-1.247-1.262-2.495L1.05 4.82A37.55 37.55 0 0 1 17.984.783c5.88 0 11.678 1.382 16.933 4.037l-2.536 5.012" clip-rule="evenodd"/><path fill="#8b1e1e" fill-rule="evenodd" d="m34.055 8.254.732.264v31.746l-16.863 8.422-16.743-8.423V8.518l.732-.264-.534-1.058-1.367.494v33.301L17.923 50l18.032-9.007V7.69l-1.365-.494z" clip-rule="evenodd"/><path fill="#8b1e1e" d="m3.979 10.51.333.66a30.35 30.35 0 0 1 13.671-3.254 30.35 30.35 0 0 1 13.67 3.255l.336-.66a31.2 31.2 0 0 0-14.005-3.323A31.2 31.2 0 0 0 3.979 10.51M1.177 5.073A40 40 0 0 1 6.969 2.73a39.6 39.6 0 0 0-5.765 2.398zm.172.342a39.4 39.4 0 0 1 5.733-2.318A39.4 39.4 0 0 0 1.377 5.47zm.174.343a39 39 0 0 1 5.673-2.294A39 39 0 0 0 1.55 5.813zm.173.342a38.6 38.6 0 0 1 5.613-2.27 38.6 38.6 0 0 0-5.586 2.325zm.173.343a38 38 0 0 1 5.554-2.245 38 38 0 0 0-5.526 2.3zm.173.342a38 38 0 0 1 5.494-2.222 38 38 0 0 0-5.465 2.275zm.174.343A37.5 37.5 0 0 1 7.65 4.932a37.6 37.6 0 0 0-5.408 2.25zm.174.342a37 37 0 0 1 5.375-2.172 37 37 0 0 0-5.35 2.227zm.172.343a37 37 0 0 1 5.316-2.148 37 37 0 0 0-5.289 2.203zm.174.342A36 36 0 0 1 7.99 6.032 36 36 0 0 0 2.763 8.21zm.172.343a36 36 0 0 1 5.197-2.1 36 36 0 0 0-5.168 2.154zm.174.342A35.5 35.5 0 0 1 8.22 6.765a35.5 35.5 0 0 0-5.11 2.13zm.173.342a35 35 0 0 1 5.077-2.05 35 35 0 0 0-5.049 2.106zm.174.343A35 35 0 0 1 8.446 7.5a35 35 0 0 0-4.99 2.08zm29.08.054A35 35 0 0 0 27.52 7.5a35 35 0 0 1 5.017 2.025zm.174-.341a35 35 0 0 0-5.049-2.105 35 35 0 0 1 5.078 2.05zm.172-.344a35.5 35.5 0 0 0-5.108-2.129c1.763.557 3.48 1.25 5.137 2.075zm.174-.342a36 36 0 0 0-5.168-2.153 36 36 0 0 1 5.196 2.099zm.174-.342a36 36 0 0 0-5.229-2.178 36.4 36.4 0 0 1 5.256 2.123zm.173-.342a37 37 0 0 0-5.289-2.203 37 37 0 0 1 5.316 2.148zm.173-.343a37 37 0 0 0-5.347-2.227 37 37 0 0 1 5.375 2.172zm.173-.342a37.6 37.6 0 0 0-5.406-2.251 37.5 37.5 0 0 1 5.435 2.196zm.174-.343a38 38 0 0 0-5.467-2.275 38 38 0 0 1 5.494 2.22zm.172-.342a38 38 0 0 0-5.525-2.3 38 38 0 0 1 5.554 2.245zm.174-.343a38.6 38.6 0 0 0-5.586-2.325 38.6 38.6 0 0 1 5.613 2.27zm.174-.342a39 39 0 0 0-5.646-2.35 39 39 0 0 1 5.673 2.295zm.173-.343a39.4 39.4 0 0 0-5.705-2.373 39.4 39.4 0 0 1 5.733 2.318zm.173-.342a40 40 0 0 0-5.765-2.398 40 40 0 0 1 5.793 2.343z"/><path fill="#fff" fill-rule="evenodd" d="M14.53 4.294a2 2 0 0 1-.175-.734 2 2 0 0 1 .095-.748 1.7 1.7 0 0 1 .918-1.012q.333-.15.743-.175.415-.022.76.092.345.116.608.345.263.232.417.562t.175.732c.016.253-.016.507-.096.748a1.7 1.7 0 0 1-.352.602c-.16.174-.353.313-.568.411q-.33.15-.745.175a2 2 0 0 1-.757-.092 1.68 1.68 0 0 1-1.022-.907m2.707-.892a1.1 1.1 0 0 0-.162-.537 1 1 0 0 0-.38-.348 1.03 1.03 0 0 0-.542-.106 1.03 1.03 0 0 0-.52.165 1 1 0 0 0-.345.387 1.1 1.1 0 0 0-.102.55c.006.19.061.375.161.535a1 1 0 0 0 .385.35c.166.084.35.12.535.108.188-.006.37-.064.528-.166a1 1 0 0 0 .34-.389c.08-.171.115-.361.1-.55zm-4.215-.412.038-.009-.177-.987a.6.6 0 0 1-.29.074l-.173-.002q-.123-.006-.268.011a3 3 0 0 0-.165.025 2.24 2.24 0 0 0-.982.413 1.7 1.7 0 0 0-.564.756c-.113.32-.137.664-.07.996q.071.392.264.698a1.7 1.7 0 0 0 1.13.772q.354.071.754-.002a1.8 1.8 0 0 0 .868-.384q.34-.289.475-.72c.092-.308.106-.634.043-.949a.6.6 0 0 1-.008-.185.4.4 0 0 1 .05-.14l-.006-.04-1.527.28a3 3 0 0 1-.248.035q-.106.011-.213.008l.155.862.04-.006a.4.4 0 0 1 .168-.161q.155-.083.329-.109l.484-.088a.7.7 0 0 1-.051.332.8.8 0 0 1-.26.321 1 1 0 0 1-.432.179 1.05 1.05 0 0 1-.548-.035.93.93 0 0 1-.422-.303 1.1 1.1 0 0 1-.226-.515.99.99 0 0 1 .386-1.019q.239-.175.588-.24l.033-.006.042-.007q.093-.014.188-.018.1-.004.197.01l.014.003q.012 0 .021.004a.7.7 0 0 1 .305.107l.007.005.015.009.014.009.01.006.012.007zM6.688 6.165a2 2 0 0 1-.35-.667 2 2 0 0 1-.09-.748 1.7 1.7 0 0 1 .64-1.209c.202-.16.431-.28.677-.355q.396-.124.76-.1.36.027.674.184.31.157.54.438t.35.668q.121.384.092.747a1.7 1.7 0 0 1-.195.673q-.166.308-.45.537c-.202.16-.432.281-.679.356q-.39.124-.756.1a1.67 1.67 0 0 1-1.213-.624m2.404-1.538a1.1 1.1 0 0 0-.287-.48.97.97 0 0 0-.453-.242 1.03 1.03 0 0 0-.552.032 1.03 1.03 0 0 0-.464.289 1 1 0 0 0-.24.463 1.1 1.1 0 0 0 .036.558q.092.295.288.478a1 1 0 0 0 .459.244c.181.039.37.028.545-.03a.98.98 0 0 0 .704-.754 1.1 1.1 0 0 0-.037-.557m-3.147 2.15-.852.369-.834-1.955a2 2 0 0 1-.077-.209 1 1 0 0 1-.03-.156.4.4 0 0 1 .044-.228l-.015-.037-1.04.45.016.037q.094.03.183.138.09.106.183.325l.886 2.075q.08.17.103.359a.45.45 0 0 1-.032.23l.016.037 1.9-.822q.107-.046.218-.087a1 1 0 0 1 .199-.05l-.37-.866-.041.018a.37.37 0 0 1-.132.188q-.15.115-.325.184m12.724-4.863q.034.134.027.37l-.07 2.26q0 .187-.053.368a.4.4 0 0 1-.121.195v.042l1.105.035v-.04a.4.4 0 0 1-.105-.203 1.4 1.4 0 0 1-.026-.372l.071-2.258q.008-.237.05-.37a1 1 0 0 1 .04-.098l.01-.016a.3.3 0 0 1 .069-.081v-.041L18.56 1.67l-.002.041q.075.067.11.202m2.172 2.75q-.025.189.008.378a.4.4 0 0 0 .11.207l-.003.04-1.126-.115.004-.04q.08-.057.134-.187.065-.176.076-.365l.226-2.247q.018-.167.007-.285a.7.7 0 0 0-.053-.204.3.3 0 0 0-.062-.095l.005-.04 1.31.134q.663.068 1.003.445.34.376.28.972a1.3 1.3 0 0 1-.239.663c-.134.18-.319.315-.53.39-.247.085-.51.112-.77.079l-.349-.035zm.416-.982-.314-.031.114-1.14.315.032q.309.033.454.194t.115.443q-.027.275-.2.405-.176.13-.485.097zm3.02-.963q-.271.28-.475.612l-.527.837a2.2 2.2 0 0 1-.257.357.6.6 0 0 1-.211.156.4.4 0 0 1-.357-.041.4.4 0 0 1-.109-.113l-.04-.007-.155.862a1 1 0 0 0 .087.037l.02.007.015.005.02.006.028.009.024.008c.195.054.4.07.6.046a1 1 0 0 0 .386-.145q.195-.131.347-.312a4 4 0 0 0 .351-.48l.527-.838q.142-.225.254-.343a.7.7 0 0 1 .205-.16.3.3 0 0 1 .117-.031.24.24 0 0 1 .102.015l.03.013q.087.042.138.123l.04.006.161-.903a.4.4 0 0 1-.163-.01l-.013-.004a1.14 1.14 0 0 0-.676-.01 1.15 1.15 0 0 0-.47.299zm1.732.237a1 1 0 0 0 .004-.194l-.002-.015-.003-.01a.3.3 0 0 0-.05-.129l.013-.037 1.06.299-.01.037a.4.4 0 0 0-.158.164 1.4 1.4 0 0 0-.136.346l-.42 1.51q-.08.292 0 .477.082.186.323.253.242.069.408-.047.168-.116.249-.407l.42-1.51q.062-.229.063-.366a.4.4 0 0 0-.055-.222l.011-.039 1.06.299-.01.038a.4.4 0 0 0-.161.162 1.5 1.5 0 0 0-.137.346l-.434 1.564a1.64 1.64 0 0 1-.341.664 1 1 0 0 1-.55.318 1.5 1.5 0 0 1-.731-.046 1.5 1.5 0 0 1-.647-.342 1 1 0 0 1-.306-.56 1.6 1.6 0 0 1 .051-.746l.435-1.562q.041-.14.054-.245m3.353.861a1.4 1.4 0 0 1-.105.381l-.828 2.057a1.4 1.4 0 0 1-.174.327.4.4 0 0 1-.182.141l-.015.038 1.016.415.015-.038a.4.4 0 0 1-.03-.226q.016-.139.103-.357l.553-1.37.541 1.097.019.008 1.148-.438-.561 1.395a2 2 0 0 1-.087.193 1 1 0 0 1-.087.137.4.4 0 0 1-.177.141l-.017.038 1.017.415.015-.037a.4.4 0 0 1-.032-.228q.025-.187.102-.359l.827-2.056q.048-.118.097-.207.06-.11.15-.2a1 1 0 0 1 .082-.065q.03-.018.061-.028l.015-.037-.915-.374-.01.029.005.037v.049l-.003.021a.3.3 0 0 1-.05.126.47.47 0 0 1-.237.175l-.99.393-.479-1.013a.44.44 0 0 1-.04-.275.3.3 0 0 1 .136-.192l.012-.028-.918-.375-.016.038q.055.092.04.25z" clip-rule="evenodd"/><path fill="#8b1e1e" fill-rule="evenodd" d="M17.135 3.95c.08-.171.114-.36.1-.549a1.1 1.1 0 0 0-.16-.536 1 1 0 0 0-.38-.347 1.03 1.03 0 0 0-.542-.107 1.03 1.03 0 0 0-.52.165 1 1 0 0 0-.345.388 1.1 1.1 0 0 0-.103.55c.005.19.061.374.161.535.095.15.228.27.385.35.166.083.351.12.536.107.188-.006.37-.064.528-.166a1 1 0 0 0 .34-.39m-.88.36a.84.84 0 0 1-.434-.086.8.8 0 0 1-.31-.281.9.9 0 0 1-.131-.438.9.9 0 0 1 .083-.454.8.8 0 0 1 .278-.312.83.83 0 0 1 .485-.134q.213 0 .381.088c.125.063.23.16.306.278.08.134.124.286.127.442a.9.9 0 0 1-.08.45.77.77 0 0 1-.273.313.84.84 0 0 1-.431.134" clip-rule="evenodd"/><path fill="#8b1e1e" fill-rule="evenodd" d="M17.607 1.915c.194.171.352.381.464.625q.17.366.193.805c.017.293-.018.57-.105.821-.083.25-.217.48-.394.673-.173.19-.386.344-.629.455a2.2 2.2 0 0 1-.958.196 2.2 2.2 0 0 1-.687-.105 1.87 1.87 0 0 1-1.138-1.009 2.2 2.2 0 0 1-.193-.805 2.2 2.2 0 0 1 .106-.82 1.9 1.9 0 0 1 1.022-1.13 2.2 2.2 0 0 1 .813-.19c.299-.018.58.017.831.1.252.084.48.213.675.384m.014 2.791q.238-.256.354-.602.117-.346.096-.748a2 2 0 0 0-.177-.733 1.7 1.7 0 0 0-.415-.56 1.8 1.8 0 0 0-.609-.345 2 2 0 0 0-.76-.093 2 2 0 0 0-.743.175 1.68 1.68 0 0 0-.919 1.013c-.079.24-.11.494-.094.747q.022.403.175.733a1.68 1.68 0 0 0 1.023.906q.346.114.757.092c.257-.01.51-.07.745-.175a1.7 1.7 0 0 0 .567-.41m-8.53-.077c.06.18.073.371.038.557a1 1 0 0 1-.236.463 1.04 1.04 0 0 1-.469.291 1 1 0 0 1-.545.03 1 1 0 0 1-.46-.244 1.1 1.1 0 0 1-.287-.477 1.1 1.1 0 0 1-.035-.56 1 1 0 0 1 .24-.461 1 1 0 0 1 .463-.29 1.03 1.03 0 0 1 .55-.032.97.97 0 0 1 .455.243q.195.181.287.48m-1.17 1.15a.84.84 0 0 0 .445-.025.85.85 0 0 0 .384-.238.8.8 0 0 0 .187-.37.9.9 0 0 0-.031-.458.9.9 0 0 0-.234-.395.77.77 0 0 0-.534-.214 1 1 0 0 0-.28.046.83.83 0 0 0-.379.235.8.8 0 0 0-.192.373c-.03.152-.02.31.03.457.044.15.125.285.237.393a.8.8 0 0 0 .367.196" clip-rule="evenodd"/><path fill="#8b1e1e" fill-rule="evenodd" d="M9.087 3.096c.23.118.434.283.603.49s.297.454.385.733c.087.279.12.556.1.822a1.88 1.88 0 0 1-.717 1.348 2.2 2.2 0 0 1-.742.389 2.3 2.3 0 0 1-.828.108 1.9 1.9 0 0 1-.749-.205 1.9 1.9 0 0 1-.468-.356l.421.986-.254.035a1 1 0 0 0-.162.042q-.1.034-.203.08l-2.079.9-.127-.3.037-.08a.26.26 0 0 0 .015-.13 1 1 0 0 0-.09-.297l-.886-2.075a1.1 1.1 0 0 0-.153-.276c-.046-.055-.078-.071-.093-.076l-.085-.028-.127-.3 1.398-.605.131.312-.052.086a.2.2 0 0 0-.016.11q.006.06.024.116.024.084.068.188l.757 1.775.673-.293a1.2 1.2 0 0 0 .277-.155c.053-.044.064-.074.067-.084l.023-.095.221-.096a2.2 2.2 0 0 1-.402-1.429 1.9 1.9 0 0 1 .712-1.348q.313-.254.74-.388a2.2 2.2 0 0 1 .831-.109c.266.02.518.088.747.204zM6.612 7.303a1 1 0 0 1 .198-.05l-.37-.87-.04.02a.37.37 0 0 1-.132.187 1.4 1.4 0 0 1-.324.185l-.852.369-.835-1.955a2 2 0 0 1-.076-.209 1 1 0 0 1-.031-.156.4.4 0 0 1 .045-.228l-.017-.037-1.04.45.016.037a.43.43 0 0 1 .185.138q.09.107.182.325l.886 2.075q.08.17.104.359a.45.45 0 0 1-.032.23l.016.038 1.9-.825a5 5 0 0 1 .217-.083m2.723-.968a1.8 1.8 0 0 0 .45-.537q.167-.311.194-.673a2 2 0 0 0-.09-.749 2 2 0 0 0-.35-.666 1.7 1.7 0 0 0-.541-.44 1.8 1.8 0 0 0-.675-.182 2 2 0 0 0-.758.1 2 2 0 0 0-.677.353 1.7 1.7 0 0 0-.641 1.21q-.03.364.091.75.12.383.35.665A1.68 1.68 0 0 0 7.9 6.79q.364.024.757-.1.396-.125.678-.355m4.78-2.874.04-.065-.057-.306-1.719.314a4 4 0 0 1-.232.034 1.4 1.4 0 0 1-.186.007l-.244-.01.236 1.296.325-.058.044-.088a.23.23 0 0 1 .09-.08.9.9 0 0 1 .267-.085l.225-.041-.001.004a.6.6 0 0 1-.201.25.84.84 0 0 1-.35.145.86.86 0 0 1-.45-.028.73.73 0 0 1-.336-.24.94.94 0 0 1-.185-.426.8.8 0 0 1 .31-.826c.16-.112.343-.184.535-.212l.04-.006.169-.016a1 1 0 0 1 .115.002l.085.013a.5.5 0 0 1 .151.042l.08.042.038.02.076.052.308-.056-.261-1.448-.237.13a.4.4 0 0 1-.202.05 2 2 0 0 1-.16 0q-.241-.012-.476.037a2.4 2.4 0 0 0-1.065.45 1.9 1.9 0 0 0-.627.843 2.06 2.06 0 0 0-.08 1.1q.08.43.291.77a1.91 1.91 0 0 0 1.655.897q.209 0 .43-.04.576-.106.956-.427.383-.324.537-.81a2.2 2.2 0 0 0 .05-1.043.4.4 0 0 1-.008-.12.2.2 0 0 1 .024-.067m-.21.222q.093.516-.042.95-.136.431-.476.718a1.8 1.8 0 0 1-.869.385q-.4.074-.755.003a1.7 1.7 0 0 1-1.13-.773 1.9 1.9 0 0 1-.262-.697 1.86 1.86 0 0 1 .069-.998q.168-.45.564-.756t.982-.412q.082-.015.166-.025.145-.016.268-.012.1.005.174.003a.6.6 0 0 0 .289-.074l.178.988-.04.007-.013-.009L13 2.975l-.015-.009-.015-.008-.008-.005a.7.7 0 0 0-.325-.113h-.015a1 1 0 0 0-.196-.01l-.001-.001-.046.002-.141.015-.038.007h-.005l-.032.006a1.4 1.4 0 0 0-.588.241.99.99 0 0 0-.386 1.019q.055.303.226.515a.9.9 0 0 0 .422.302c.176.06.366.073.548.035.156-.025.304-.086.432-.178a.8.8 0 0 0 .26-.322.7.7 0 0 0 .05-.332l-.484.089a1 1 0 0 0-.328.108.4.4 0 0 0-.168.163l-.039.006-.156-.862c.062 0 .133 0 .212-.01q.12-.013.248-.034l1.527-.28.01.04a.4.4 0 0 0-.053.14.6.6 0 0 0 .009.184m8.036-.504q-.027.276-.2.405-.175.13-.485.099l-.313-.033.114-1.139.315.032q.308.031.453.193.146.161.116.443m-.59-.441-.118-.013-.076.75.12.013q.234.023.348-.062.105-.077.124-.267.019-.194-.068-.291-.095-.106-.33-.13" clip-rule="evenodd"/><path fill="#8b1e1e" fill-rule="evenodd" d="m28.667 3.963-.434 1.564h-.004a1.8 1.8 0 0 1-.384.743 1.2 1.2 0 0 1-.653.379q-.144.03-.291.03a2 2 0 0 1-.534-.08 1.7 1.7 0 0 1-.727-.387 1.2 1.2 0 0 1-.363-.665 1.84 1.84 0 0 1 .056-.835l.434-1.564q.035-.122.047-.216a1 1 0 0 0 .004-.142.2.2 0 0 0-.023-.072l-.038-.059-.165.918-.317-.06-.045-.075a.2.2 0 0 0-.036-.035l-.045-.02h-.004q-.03.001-.057.013a.5.5 0 0 0-.144.118 2 2 0 0 0-.23.312l-.528.837a4 4 0 0 1-.369.507 2 2 0 0 1-.388.345c-.198.13-.43.196-.667.189q-.21 0-.417-.05l-.162-.049q-.06-.021-.119-.047l-.137-.063.183-1.029-.025.014q-.012.008-.028.015a1.9 1.9 0 0 1-.857.09l-.155-.016-.012.111q-.023.157.003.315.019.075.05.101l.075.068-.034.336-1.384-.141v.022l-1.496-.047.012-.326.069-.057c.012-.01.036-.037.06-.106q.041-.154.04-.312l.072-2.258q.01-.16-.022-.315c-.019-.07-.041-.1-.053-.11l-.065-.06.009-.326 1.496.047-.01.325-.069.058a.1.1 0 0 0-.024.032l-.033.073q-.04.154-.04.314l-.07 2.258q-.011.16.02.318c.016.066.037.094.048.105l.031-.024c.014-.009.04-.035.068-.101q.053-.151.062-.31l.228-2.248q.012-.123.005-.246a.4.4 0 0 0-.01-.062l-.01-.04-.015-.04a.2.2 0 0 0-.026-.042l-.062-.065.034-.325 1.502.154c.49.05.87.221 1.129.508.264.292.375.67.329 1.125a1.5 1.5 0 0 1-.276.76q-.129.17-.306.29l.09.017.044.071q.02.033.05.053.035.022.08.03a.2.2 0 0 0 .106-.008.4.4 0 0 0 .136-.106q.099-.106.234-.325l.527-.837a3.8 3.8 0 0 1 .502-.65c.153-.158.341-.277.55-.345.251-.075.518-.073.77.003l.045.013.268-.04.019.27-.005.029.05-.18 1.435.406-.085.31-.076.039c-.012.006-.04.026-.08.09q-.077.142-.114.298l-.42 1.51q-.063.223-.01.344c.02.044.06.105.197.144.14.039.207.007.246-.02q.109-.075.17-.298l.421-1.51q.048-.153.056-.313c0-.07-.015-.103-.024-.115l-.048-.075.087-.314 1.435.405-.086.314-.08.038a.2.2 0 0 0-.08.087q-.075.14-.113.296m-9.1-2.079.03-.057a.3.3 0 0 1 .068-.082l.001-.04-1.105-.036-.002.041q.074.068.109.203.037.134.028.371l-.072 2.258q0 .189-.05.37a.4.4 0 0 1-.122.195l-.001.04 1.106.036.001-.04a.4.4 0 0 1-.107-.203 1.4 1.4 0 0 1-.025-.372l.071-2.258q.007-.237.05-.37.009-.029.02-.056m1.653 2.509q.44.045.771-.079a1.13 1.13 0 0 0 .53-.39c.138-.195.22-.424.236-.662q.061-.597-.278-.974-.34-.376-1.003-.444l-1.31-.134-.005.04a.3.3 0 0 1 .062.095q.045.097.053.204.01.119-.007.285l-.226 2.248a1.3 1.3 0 0 1-.077.365.4.4 0 0 1-.134.187l-.005.039 1.127.115.004-.04a.4.4 0 0 1-.11-.206 1.2 1.2 0 0 1-.006-.38l.03-.304zm4.18-1.054.04.008.16-.904a.4.4 0 0 1-.164-.011l-.013-.003a1.14 1.14 0 0 0-.677-.011 1.16 1.16 0 0 0-.47.3q-.27.28-.473.612l-.526.838a2.3 2.3 0 0 1-.258.355.6.6 0 0 1-.211.156.4.4 0 0 1-.206.016.4.4 0 0 1-.15-.057.35.35 0 0 1-.111-.113l-.039-.007-.155.864q.038.017.087.035l.02.007.015.005.02.006.052.017q.07.019.14.03.251.048.46.016a.95.95 0 0 0 .384-.145q.176-.114.35-.311.172-.196.35-.482l.527-.837q.142-.225.256-.343a.7.7 0 0 1 .203-.16.3.3 0 0 1 .117-.03.24.24 0 0 1 .102.014q.046.015.087.046a.4.4 0 0 1 .083.089m1.023 3.07q.41.117.732.048c.213-.044.406-.156.55-.32q.225-.25.34-.662l.434-1.565a1.4 1.4 0 0 1 .137-.346.4.4 0 0 1 .161-.162l.013-.038-1.063-.3-.01.04a.4.4 0 0 1 .055.221q0 .139-.062.368l-.421 1.51q-.08.292-.248.406-.168.116-.41.048-.24-.068-.321-.254-.083-.186 0-.475l.42-1.511q.045-.182.136-.347a.4.4 0 0 1 .156-.162l.011-.039-1.061-.3-.011.039a.3.3 0 0 1 .047.117l.001.008v.004l.003.01v.003l.002.013a1 1 0 0 1-.002.194 2 2 0 0 1-.054.243l-.434 1.563a1.6 1.6 0 0 0-.052.746c.038.215.145.411.304.56q.242.227.645.341zm5.565-2.011-.191-.045-.075.181-.021.094.012.06a.1.1 0 0 1-.02.05.3.3 0 0 1-.146.1l-.82.325-.398-.845q-.042-.094-.03-.151a.1.1 0 0 1 .053-.07l.062-.062.099-.24-1.281-.522-.124.309.05.083c.006.013.02.048.012.133a1.3 1.3 0 0 1-.092.326l-.828 2.058q-.054.15-.147.278c-.044.057-.077.073-.091.078l-.085.029-.12.303 1.375.56.123-.3-.04-.081a.23.23 0 0 1-.01-.117q.024-.16.09-.305l.388-.967.35.709.051.074.138.056.805-.306-.395.981q-.036.09-.08.174a1 1 0 0 1-.066.107c-.043.055-.074.073-.089.077l-.083.028-.124.303 1.378.562.124-.302-.042-.08c-.008-.015-.019-.05-.013-.12q.024-.158.09-.304l.826-2.056q.043-.105.087-.184a.8.8 0 0 1 .114-.155l.032-.026.034-.02.09-.028.124-.306zm.826.592a.3.3 0 0 0-.096.05.7.7 0 0 0-.103.103 1 1 0 0 0-.094.14 2 2 0 0 0-.098.207l-.826 2.057q-.076.172-.102.358a.4.4 0 0 0 .032.228l-.015.037-1.017-.415.015-.037a.4.4 0 0 0 .18-.141 1 1 0 0 0 .086-.138q.043-.083.087-.191l.561-1.396-1.148.437-.019-.007-.541-1.098-.552 1.37q-.075.172-.104.358a.4.4 0 0 0 .03.227l-.015.038-1.016-.415.015-.038a.4.4 0 0 0 .18-.141q.112-.152.177-.329l.828-2.056q.08-.184.104-.381a.4.4 0 0 0-.04-.25l.017-.038.918.375-.012.028a.3.3 0 0 0-.137.192.44.44 0 0 0 .041.275l.48 1.013.989-.392a.47.47 0 0 0 .238-.175.3.3 0 0 0 .05-.126l.002-.021v-.053l-.005-.037.012-.028.913.374z" clip-rule="evenodd"/><path fill="#8b1e1e" d="m2.488 12.15.218.677h.71l-.574.42.22.679-.574-.419-.574.419.219-.679-.574-.42h.71l.219-.679zm30.992 0 .219.677h.708l-.573.42.22.679-.574-.419-.573.419.218-.679-.573-.42h.708l.22-.679zM2.488 34.087l.218.679h.71l-.574.42.22.679-.574-.42-.574.42.219-.68-.574-.42h.71zm30.992 0 .219.679h.708l-.573.42.22.679-.574-.42-.573.42.218-.68-.573-.42h.708zm1.307 2.834-.39.226a32.7 32.7 0 0 1-16.412 4.431 32.7 32.7 0 0 1-16.416-4.42l-.388-.225v.904a33.45 33.45 0 0 0 16.804 4.525 33.45 33.45 0 0 0 16.802-4.536z"/><path fill="#fff" d="M11.853 44.442a.315.315 0 0 0 .314-.316.315.315 0 0 0-.314-.316.315.315 0 0 0-.314.316c0 .175.14.316.314.316m12.248 0a.315.315 0 0 0 .315-.316.315.315 0 0 0-.315-.316.315.315 0 0 0-.314.316c0 .175.141.316.314.316m-10.813.283h.534a.3.3 0 0 0 .127-.023.2.2 0 0 0 .046-.033.1.1 0 0 0 .023-.032h.015v.278l-.036-.009-.033-.004-.08-.002h-.856v-.018a.13.13 0 0 0 .054-.067.3.3 0 0 0 .02-.134v-1.059a.3.3 0 0 0-.022-.135.13.13 0 0 0-.053-.066v-.017h.844q.075 0 .15-.015v.277h-.018a.14.14 0 0 0-.069-.065.2.2 0 0 0-.044-.015.4.4 0 0 0-.08-.007h-.522v.387h.275q.041.001.069-.004l.037-.01a.1.1 0 0 0 .052-.04h.015v.283h-.015a.1.1 0 0 0-.052-.039.3.3 0 0 0-.106-.015h-.275zm1.488-1.079h-.016a.1.1 0 0 0-.038-.035.2.2 0 0 0-.066-.032l-.011-.003a.4.4 0 0 0-.076-.01.26.26 0 0 0-.176.056.18.18 0 0 0-.068.144.2.2 0 0 0 .038.119q.037.05.126.111l.112.073a1 1 0 0 1 .155.13q.06.06.093.138a.44.44 0 0 1-.002.327.4.4 0 0 1-.1.133.55.55 0 0 1-.37.113 1 1 0 0 1-.127-.008 1 1 0 0 1-.103-.015v-.243h.015l.034.035.039.023.006.004q.015.008.03.013a.3.3 0 0 0 .114.02.33.33 0 0 0 .216-.065.22.22 0 0 0 .08-.173.24.24 0 0 0-.051-.15.4.4 0 0 0-.045-.05 1 1 0 0 0-.124-.095l-.11-.076a1 1 0 0 1-.083-.063.37.37 0 0 1-.141-.3q-.001-.168.124-.27a.52.52 0 0 1 .341-.105h.025l.046.005h.027l.005.002.045-.003.036-.007zm.307-.067h.242v1.115a.3.3 0 0 1-.019.125.13.13 0 0 1-.052.066v.015h.328v-.015a.14.14 0 0 1-.055-.065.4.4 0 0 1-.016-.125v-1.116h.243a.3.3 0 0 1 .125.022q.046.02.069.065h.017v-.277a.7.7 0 0 1-.149.015h-.796a1 1 0 0 1-.15-.015v.277h.018a.14.14 0 0 1 .067-.065.3.3 0 0 1 .128-.022m1.576-.017.003.058v1.075a.3.3 0 0 1-.02.125.14.14 0 0 1-.05.065v.015h.322v-.015a.14.14 0 0 1-.05-.065.4.4 0 0 1-.017-.125v-.95l.501.494h.009l.503-.5v.955q0 .045-.009.09l-.012.036a.13.13 0 0 1-.049.065v.015h.32v-.015a.12.12 0 0 1-.045-.059l-.003-.006a.4.4 0 0 1-.017-.125V43.62a.5.5 0 0 1 .018-.13.15.15 0 0 1 .053-.071v-.015h-.285v.01a.1.1 0 0 1 .015.07.16.16 0 0 1-.05.082l-.439.443-.456-.45a.15.15 0 0 1-.046-.078.08.08 0 0 1 .018-.066v-.013h-.286v.017a.13.13 0 0 1 .055.07q.015.036.017.073m1.64-.028a.2.2 0 0 0-.012-.044.14.14 0 0 0-.054-.071v-.015h.285v.01a.1.1 0 0 0-.018.036.1.1 0 0 0 0 .031q.011.046.046.079l.456.45.44-.444.007-.007a.2.2 0 0 0 .028-.038.1.1 0 0 0 .014-.037.1.1 0 0 0-.015-.07v-.01h.284v.015a.1.1 0 0 0-.032.033.2.2 0 0 0-.03.07.4.4 0 0 0-.009.098v1.075q0 .081.018.125.015.04.05.065v.015h-.322v-.015a.14.14 0 0 0 .05-.065.3.3 0 0 0 .018-.125v-.955l-.501.499h-.009l-.501-.493v.948a.4.4 0 0 0 .017.125q.018.043.05.066v.015h-.322v-.015a.1.1 0 0 0 .027-.025l.003-.003.002-.005.005-.006.013-.026a.3.3 0 0 0 .02-.125V43.62zm2.813 1.32a.4.4 0 0 1-.052-.06l-.458-.682.405-.607a.2.2 0 0 1 .053-.056.3.3 0 0 1 .047-.03v-.015h-.337v.015q.02.008.032.037.013.025-.015.069l-.303.459-.31-.463q-.027-.041-.013-.067a.07.07 0 0 1 .034-.035v-.015h-.354v.015q.005 0 .01.003.016.008.03.02l.008.005q.03.022.05.052l.416.618-.447.662a1 1 0 0 1-.06.07l-.002.003a.4.4 0 0 1-.047.033v.015h.344v-.015a.1.1 0 0 1-.038-.046v-.017l.002-.017a.2.2 0 0 1 .024-.05l.342-.503.347.512q.027.042.019.073a.07.07 0 0 1-.035.048v.015h.355v-.015a.2.2 0 0 1-.047-.031m.158-1.244-.004-.068a.3.3 0 0 0-.012-.058.13.13 0 0 0-.053-.065v-.015h.32v.015a.14.14 0 0 0-.049.065.2.2 0 0 0-.012.053l-.004.073v1.084q0 .083.016.125.019.043.05.066v.015h-.32v-.015a.12.12 0 0 0 .047-.056l.002-.005.001-.004a.4.4 0 0 0 .018-.125zm1.579 1.212.03.033a.2.2 0 0 0 .047.03v.015h-.355v-.015a.07.07 0 0 0 .034-.048l.003-.013v-.01l-.001-.003v-.002a.2.2 0 0 0-.02-.045l-.348-.513-.34.504a.2.2 0 0 0-.025.045.06.06 0 0 0 0 .039.1.1 0 0 0 .017.03q.008.01.02.016v.015h-.346v-.015l.019-.013.012-.007a.4.4 0 0 0 .08-.086l.447-.663-.418-.617-.02-.028-.03-.025a.2.2 0 0 0-.046-.027v-.015h.352v.015a.07.07 0 0 0-.033.035q-.014.026.012.066l.31.462.303-.457a.1.1 0 0 0 .019-.044v-.015l-.004-.011a.06.06 0 0 0-.032-.036v-.015h.339v.015a.3.3 0 0 0-.047.03.2.2 0 0 0-.055.056l-.403.607.458.682.01.013.006.01zm-6.925.06a.13.13 0 0 1-.037-.095q0-.054.037-.093a.13.13 0 0 1 .097-.04q.056 0 .092.04a.1.1 0 0 1 .03.042.14.14 0 0 1-.03.146.1.1 0 0 1-.03.025.13.13 0 0 1-.075.013l-.019-.001-.035-.013a.1.1 0 0 1-.03-.024"/><path fill="#8b1e1e" d="m8.958 13.487-2.682-3.218q.189-.079.379-.155l2.566 3.078q-.138.142-.263.295m1.796-1.707L9.272 9.198l.385-.113 1.356 2.367q-.131.147-.244.31zm1.995-1.722-.571-1.579.387-.074.524 1.452q-.188.073-.341.202zm2.512-.58-.248-1.415.39-.036.21 1.195a1.5 1.5 0 0 0-.33.26zm2.555-.27v-1.29h.39v1.204q-.195.024-.39.086m2.572.134.229-1.31q.195.017.39.037l-.245 1.395a1.2 1.2 0 0 0-.374-.122m2.344 1.069.721-1.996.388.075-.786 2.175a11 11 0 0 0-.323-.254m1.91 1.677 1.714-2.99.384.112-1.796 3.135a16 16 0 0 1-.302-.258zm1.698 1.658 3.012-3.616.379.157-3.184 3.821a3 3 0 0 0-.207-.363m3.925-4.1-.36-.18h.002zm-29.086.436v-.513l7.11 6.006c.01.222.061.44.154.642zm0 4.406v-.452L8.006 18a3 3 0 0 0-.13.38zm0 3.599v-.418l6.08 2.229a6 6 0 0 0-.206.341zm0 3.17v-.398l5.562.988q-.055.19-.13.375zm0 2.985v-.392h4.899a2.5 2.5 0 0 0-.013.393H1.18zm0 2.992v-.399l5.336-.947c-.005.125-.008.26.002.399zm0 3.189v-.417L7.2 27.8q.03.225.057.397zm0 3.634v-.453l6.756-3.927.022.02.019.015-.073.437zm.76 3.313 5.733-4.844q-.032.12-.085.232c-.103.221-.287.467-.481.729l-.058.076-4.745 4.01zm3.347 1.643.995-1.195.405.124-1.023 1.227zm3.247 1.171.87-1.518q.211.061.379.123l-.865 1.509zm3.153.784.211-.579.41.013-.232.64zm3.084.454.187-1.069c.162-.01.3-.023.402-.036l-.2 1.141zm19.285-4.076-6.748-5.7q-.023.24-.033.483l6.414 5.42.365-.203zm-3.337 1.643-1.17-1.402-.422.103 1.214 1.457q.189-.077.378-.158m-3.24 1.177-1.072-1.87-.08.014-.327.06 1.095 1.91zm-3.147.788-.741-2.047-.069.027-.023.109-.003.014a2.6 2.6 0 0 1-.113.421l.56 1.551zm-3.081.46-.173-.985q-.161.004-.328.004h-.066l.178 1.019zm-3.044.164v-1.29l-.173-.027a1.4 1.4 0 0 1-.217-.06v1.378zm16.581-8.005v.453L27.5 29.789q.02-.218.03-.435zm0-3.588v.418l-6.868-2.517q.01-.15.014-.3l.003-.054.001-.056zm0-3.16v.4L28.63 26.13c.012-.133.012-.268.006-.397zm0-2.974v.392H29a3 3 0 0 0 .007-.392zm0-2.983v.399l-6.2 1.1a9 9 0 0 1-.15-.372zm0-3.18v.419l-6.604 2.42a3 3 0 0 0-.186-.35zm0-3.621v.452l-7.525 4.375-.047-.182-.054-.213zm0-4.452v.513l-8.32 7.03-.024-.029-.059-.075q.091-.25.19-.5z"/><path fill="#8b1e1e" d="M16.227 9.596c.633-.085 1.222.525 1.294.525.032 0 .344-.331.516-.394a1.5 1.5 0 0 1 1.165.044c.06.028.222.256.258.262.05.008.608-.224.948-.174.357.05.497.384.69.437.413.113.542-.065 1.035.263.71.47 1.49 1.225 2.112 1.793 1.058.969 2.278 1.596 2.09 3.305-.034.315-.492 1.299-.473 1.444.007.051.527.686.604.831.265.503.29 1.013.473 1.445.209.488.78 1.012.906 1.575.05.225-.003.663.043.831.279 1.013.877 1.582.56 2.8-.027.107-.295.49-.3.527-.035.194.065.687 0 1.006-.105.501-.618.871-.648.962-.05.15-.024.713-.087.963-.068.282-.237.563-.343.832 0 1.47-.493 3.428-.148 4.154.491.773 1.225 1.136 1.483 2.63l2.694.328.238.285c-.166.005-.22.177-.322.24-.35.21-3.247.857-3.88 1.007-.587.138-3.79.603-3.99.984-.188.363-.037.963-.71 1.16-.728.214-3.39.104-4.182-.044-.8-.15-.527-1.327-.69-1.4h-1.207c-.114.618-.155 1.309-.906 1.444-.531.095-3.308.13-3.836.044-.747-.121-.69-.856-.927-1.204-.277-.406-2.747-.887-3.34-1.071-.485-.15-1.83-.539-2.199-.745-.18-.1-.333-.275-.28-.503.086-.379 1.574-.28 1.917-.372.162-.073.166-.732.238-.942.235-.682.918-1.303 1.207-1.925.298-.638.15-1.188.215-1.882.025-.24.286-1.582.26-1.663-.01-.024-.327-.247-.389-.35a5 5 0 0 1-.302-.656c-.08-.253-.177-1.258-.214-1.312-.056-.079-.385-.138-.518-.525-.169-.494.016-1.081-.087-1.445-.007-.029-.29-.313-.344-.482-.351-1.08.41-1.92.604-2.844.069-.33-.017-.648.086-1.007.117-.411.574-.932.733-1.312.157-.38.215-.903.387-1.313.122-.29.781-1.266.776-1.445-.002-.136-.392-.785-.43-1.05-.242-1.672 1.054-2.352 2.09-3.305.216-.197.347-.506.603-.7.156-.117.462-.18.561-.262.26-.218.915-1 1.165-1.05.184-.038.643.05.775 0 .071-.028.122-.332.517-.394.264-.042.803.119.906.088.068-.022.25-.392.603-.438"/><path fill="#fff" fill-rule="evenodd" d="M17.477 10.384c-.303-.415-.773-.68-1.293-.613l1.12 2.406a10 10 0 0 1-.36-.562c-.535-.875-1.094-1.785-2.29-1.429a.7.7 0 0 0 .254.105c.161.045.293.082.134.245.693.513 1.919 1.535 2.284 2.32l.019.035c.036.069.082.158.003.205-.645-.996-2.408-2.733-3.664-2.494-.075.014-.35.132-.368.24 1.306.088 2.589.81 3.45 1.795.096.11.173.238.248.365.214.358.415.694.981.488.04-.014.14-.213.233-.4.071-.14.138-.274.175-.321.779-.988 2.247-1.851 3.492-1.97-.893-.775-2.336.504-2.995 1.16l-.019.018c-.347.347-.7.698-.887 1.163-.286.015.444-1.008.496-1.071.429-.538 1.087-1.079 1.671-1.56q.233-.191.44-.367c-.607-.39-1.357.063-1.765.57-.043.052-.126.2-.229.384-.266.475-.662 1.183-.828 1.082-.058-.036.268-.657.58-1.25.278-.53.543-1.036.519-1.092-.472-.21-.828.083-1.165.361a5 5 0 0 1-.236.187m.991-.219c.045.014.037.163-.042.131-.066-.025.028-.136.042-.131m1.639 0c.197.163.083.183-.093.213l-.037.006zm-.388.263-1.12 1.224a3.1 3.1 0 0 1 1.12-1.224m-2.113 2.45c.198-.088.195.41.087.437-.166-.012-.18-.395-.087-.437m-.517-2.144c.11-.053.242.435.216.525-.13.072-.214-.443-.216-.525m1.208-.219-.345.7c-.127-.061.24-.645.345-.7m-2.157.306.418.55a2 2 0 0 0-.102-.1c-.162-.152-.422-.399-.316-.45m.432.57-.014-.02zm1.062.246-.027-.158c-.035 0-.066.656.043.7.05-.181.016-.363-.016-.542m-.587-1.253c.129-.009.196.218.085.218-.026 0-.145-.187-.087-.218zm.516 2.145c.077-.048.124.232.044.219zm.345-2.1c.053.08.017.18-.043.087-.021-.034-.005-.046.016-.062a.1.1 0 0 0 .027-.025" clip-rule="evenodd"/><path fill="#fff" d="M22.736 11.346c-.206-.377-.932-.35-1.292-.306-.83.103-2.2.991-2.739 1.641-.052.064-.729.984-.323.767.852-1.237 2.427-2.433 3.988-2.167-1.41.047-2.878.788-3.449 2.144l.108.066c.713-1.396 2.22-2.04 3.707-2.145m-9.57 5.47-2.006 3 1.961-2.78-.97 1.903.453-.546c.084.09-.1.352-.2.493l-.037.053c-.516.769-1.212 1.48-1.915 2.197-.851.87-1.713 1.75-2.266 2.75-.458.824-.58 1.43-.626 2.384-.608-2.537 1.164-4.535 2.777-6.351.348-.393.688-.775.995-1.155.112-.138.221-.294.332-.45.238-.343.484-.694.79-.906-.516 1.003-1.321 1.92-2.13 2.84-1.106 1.256-2.218 2.52-2.613 4.03l-.007.026c-.021.07-.07.235.007.237.394-1.496 1.37-2.627 2.342-3.75.304-.352.608-.702.891-1.063.28-.355.54-.728.798-1.1.442-.633.883-1.265 1.423-1.812zm7.846 7.134c1.066.709 1.747 2.389 1.53 3.654-.156.91-.968 1.39-.776.087l.087-.043.215.13c.012-.46-.12-.883-.256-1.31a12 12 0 0 1-.133-.44l-.042.35-.732-1.793.558.394-.645-.788c.355.072.583.463.783.805.072.124.14.24.209.333q.009.012.02.034c.034.058.08.137.109.01zm-1.962 8.905-.02-2.121c-.41.4-.329.865-.244 1.337.072.4.144.804-.08 1.18-.037-.096-.047-.42-.057-.77-.015-.513-.032-1.083-.136-1.09-.273.394-.187.898-.102 1.388.037.222.074.441.08.646.003.235-.024.483-.05.733-.045.39-.088.79-.015 1.17.514-.853.91-1.908 1.013-2.91.006-.067.046-1.454-.1-1.542a.2.2 0 0 0 .056-.077c.028-.056-.022-.57-.064-.591-.154.1-.13.628-.03.675a.4.4 0 0 0-.078.135c-.035.086-.019.376-.003.69.016.32.035.663.003.84-.005.03-.077.368-.173.307m-4.664-8.059.008-.015a.6.6 0 0 1 .098-.07c.067-.045.135-.088.161-.17-.139.002-.18.085-.227.18l-.032.06-.023.023c-.176.17-.319.305-.451.525l-.517 1.356c.067-1.042.74-1.897 1.423-2.625-.8.453-1.149 1.216-1.487 2.035.141-.792.661-1.591 1.314-2.08-.155-.131-.534.233-.646.35-.82.851-1.341 2.833-.733 3.896.531.93.805-.456.366-.81l-.216.307q.063-.221.124-.447c.235-.858.48-1.76 1.018-2.463l-.279.196c-.037-.018.066-.193.1-.248m6.13 6.31a5.6 5.6 0 0 0-.151-1.467l-.258 2.101-.021-1.86c-.091.013-.21.429-.216.481a3.3 3.3 0 0 0-.004.598q.032.348-.019.694c-.042 0-.073-.45-.1-.837a5 5 0 0 0-.05-.542c-.017-.046-.137-.158-.173-.044l.28 3.916c.03.02.346-.53.367-.59.14-.41.327-1.978.345-2.45m-6.056 3.04c-1.03-1.56-.663-3.603-.346-5.337.204.382.128.83.054 1.272-.041.244-.082.488-.075.718.097-.135.12-.32.142-.504.016-.13.03-.26.074-.371.015-.041.241-.491.3-.306-.292 1.505-.262 3.01-.15 4.528m1.63-2.63c.016-.48.03-.96-.037-1.44q-.036.245-.08.508c-.12.731-.257 1.555-.199 2.229.075.85.56 1.826.977 2.662q.135.266.252.51l-.074-.387c-.313-1.645-.615-3.225-.595-4.93l-.086 2.495c-.087.083-.126-.243-.129-.263-.057-.46-.043-.922-.028-1.384"/><path fill="#fff" d="M22.952 27.625c.935-1.53.007-3.86-1.508-4.637l1.229 1.729-.087.043c-.261-.51-.687-1.175-1.25-1.357.76.792 1.384 1.854 1.464 2.976l.174-.306zm-11.18-1.937c.124-.293.416-.978.144-.906-.087.023-.727 1.368-.798 1.553-.492 1.307-.653 2.728-.28 4.092.167-1.563.455-3.108.884-4.617q.023-.062.05-.122m8.765-.031c.323.2.39.56.457.91.036.19.072.377.147.535.048-.028-.005-.257-.052-.46a1.5 1.5 0 0 1-.055-.307q.002-.005.024-.025c.054-.048.178-.158.105-.325.571.363-.124 3.218-.453 3.217-.248 0-.13-1-.058-1.58.02-.173.037-.308.037-.368.14.158.1.448.066.69a3 3 0 0 0-.023.185c.13-.109.13-.445.13-.622v-.034c0-.538-.143-1.098-.276-1.625zm-5.647.043-.193 1.03c-.13.093-.127.283-.123.483.002.122.005.25-.024.359l.447-1.28a5 5 0 0 1-.11.643c-.094.432-.188.863-.04 1.304l.087-.875c.094-.019.159 1.873.043 1.925-.993-.939-.871-2.51-.087-3.587zm9.354-4.637c1.043.862 3.472 3.129 3.213 4.616-.006.033-.075.241-.108.24-.191-1.521-1.14-2.586-2.09-3.652a19 19 0 0 1-1.014-1.205m-13.363.13c.098.012.075.04.047.075l-.025.035c-.232.43-.646.906-1.076 1.402-.447.513-.91 1.048-1.21 1.574a7.6 7.6 0 0 0-.71 1.729c-.18-1.536.917-2.65 1.956-3.705.366-.371.725-.736 1.018-1.11m1.94-10.109c.228-.047.868.006 1.12.044 1.294.191 2.417 1.241 3.127 2.297-.076.282-.486-.296-.68-.57a2 2 0 0 0-.096-.13c-.97-1.007-2.472-1.732-3.858-1.335.002-.112.322-.292.387-.306m6.984 15.711c.262.313.236 2.638.043 2.713a.4.4 0 0 1-.237-.153c-.12-.16-.198-1.437-.216-1.75l-.003-.05c-.01-.13-.024-.322.089-.387l.216 1.794a7 7 0 0 0 .001-.573c-.011-.649-.026-1.592.107-1.594m-9.01-8.665-2.91 2.473c.28-1.013 1.078-1.434 1.89-1.865.35-.185.704-.371 1.019-.608zm14.054.263c1.067.482 2.284 1.145 2.608 2.385zm-9.226 8.402c.179.172.025.46-.039.582a.2.2 0 0 0-.024.053c0 .017.02.02.04.022.023.002.044.005.045.022.013.194.05.313.097.458q.026.077.053.176c.087-.119.077-.291.067-.463-.01-.205-.022-.408.128-.522a6.4 6.4 0 0 0-.004.917c.018.44.035.892-.04 1.184-.077.305-.252.213-.344-.044-.213-.595-.162-1.775.022-2.385z"/><path fill="#fff" d="M12.735 11.347c1.115-.027 2.69.562 3.384 1.466.077.1.558.802.259.7-.029-.01-.173-.19-.337-.395h-.001c-.189-.236-.403-.504-.503-.59-.408-.353-1.04-.67-1.552-.832a3 3 0 0 0-.466-.093c-.305-.048-.616-.096-.784-.256m10.82.568c.054-.006.126.077.19.15a1 1 0 0 0 .09.091l-.022.11c-1.526-.52-3.105.09-3.879 1.532-.087-.127.144-.4.34-.633.154-.182.286-.338.22-.375a2.8 2.8 0 0 0-.797.898l-.087-.044c.549-.915 1.596-1.591 2.652-1.685.285-.025.524.009.764.043.13.017.261.036.4.044.009 0 .035-.03.062-.062.027-.033.056-.068.067-.069"/><path fill="#fff" d="M12.218 11.696c1.317-.212 3.232.65 3.944 1.817.003.042-.05.062-.107.022a1.2 1.2 0 0 1-.155-.204c-.147-.21-.348-.5-.45-.452l.303.744c-.675-1.443-2.278-1.914-3.751-1.795-.04-.072.19-.128.216-.132"/><path fill="#fff" d="M11.83 12.003c1.351-.216 3.307.362 3.772 1.816-.138-.131-.244-.279-.35-.425-.13-.18-.259-.36-.447-.516-.848-.695-2.339-.941-3.364-.569-.187-.122.363-.301.39-.306m10.862.219c.558-.032 1.608.155 1.726.83-.936-.885-2.288-.867-3.32-.174l-1.012.985a3.13 3.13 0 0 1 1.088-1.167c.457-.287.98-.45 1.518-.474m2.89 5.12c.324.035 1.083 1.783.992 1.837l-1.532-1.552c.33-.11.59.247.83.573.122.167.24.325.356.412z"/><path fill="#fff" d="M22.09 11.609c.35-.04.83-.014 1.163.087.055.07-.4.056-.728.048a4 4 0 0 0-.307-.004c-.61.072-1.732.596-2.197 1.006a1.8 1.8 0 0 0-.307.375c-.108.156-.208.304-.362.391.2-.928 1.905-1.808 2.737-1.903m-9.958.656c1.326-.13 2.508.515 3.255 1.598-.009.262-.437-.317-.616-.558l-.074-.1c-1.018-.978-2.813-1.134-3.858-.109.105-.492.841-.787 1.293-.831"/><path fill="#fff" d="M12.347 12.527c.329-.016 1.046.104 1.337.263.202.111 1.167 1.276 1.142 1.422-.04.234-.368-.312-.524-.572a2 2 0 0 0-.08-.128c-.861-1.003-1.75-1-2.954-.59.222-.23.776-.38 1.079-.395m4.138 18.513c.251.491.262 1.025.274 1.562.006.275.012.55.05.823l-.108.152zm5.777-18.513c.502-.093 1.421.035 1.79.417-1.511-.742-2.672-.1-3.428 1.29.005-.565 1.167-1.62 1.638-1.707m-1.509 17.155c.224.773.07 1.568-.129 2.32-.057-.225-.105-2.38.13-2.32m0-12.822c.282-.144.355.569-.043.745-.723.319-.79-.599-.582-.548.057.038.09.11.12.183.046.105.09.206.204.19.137-.033.22-.311.264-.466a.4.4 0 0 1 .037-.104m-5.993.087c.1-.016.14.104.181.23.037.113.076.232.165.253.174.04.228-.091.275-.206.037-.09.07-.17.156-.145.33.507-.285.746-.69.482-.173-.114-.292-.579-.087-.612z"/><path fill="#fff" fill-rule="evenodd" d="m12.907 14.377.065.033c.029.012.112.061.221.122l.003.003c.288.163.74.424.767.377-.096-.369-.381-.654-.645-.896-1.879-1.719-5.35-.334-3.794 2.298.273.46.422.408.596.35.095-.034.198-.07.33-.023l.043.088-.161.122-.313.009c-.236.128 1.594.794 1.726.612l-.261-.175.798-.021a3 3 0 0 0-.314-.029c-.243-.014-.526-.03-.655-.125-.203-.146.066-.096.358-.041.265.05.55.104.526.02-.416-.029-.688-.226-.971-.432q-.271-.211-.581-.355c.679.1.598.056.378-.06-.149-.077-.362-.19-.444-.312l.626.109-.863-.437c.026-.01.127.018.248.05.245.065.576.153.571.037l-.905-.35h.82l-.863-.395.906.044-.863-.35.906.087c-.037-.047-.18-.108-.33-.175-.21-.09-.437-.187-.403-.262l.797.285c-.2-.194-.184-.303-.169-.4.016-.105.03-.197-.24-.367.067-.127.508.337.583.417.57.052 1.08.35 1.593.649.31.18.624.362.949.488.235-.122-.466-.486-1.028-.776-.345-.179-.638-.33-.632-.384.025-.127.442.077.625.167zm.207-.307.031-.01.258.327c-.025.056-.355-.087-.387-.109a.4.4 0 0 0-.062-.03c-.035-.014-.064-.026-.069-.057v-.023a1 1 0 0 1 .229-.098m-3.396 2.09.538.285c-.354.255-.481.119-.538-.285m1.81-2.45.625.415c-.035.098-.94-.32-.626-.415m-2.112 1.618c.018-.013.4.288.215.35-.221.075-.305-.28-.215-.35m-.087-.306c.087-.066.313.142.323.242-.03.1-.497-.107-.323-.242m.174.788c.015-.009.325.11.323.153-.15.193-.461-.074-.323-.153m.947-1.882.41.284c-.013.025-.544-.076-.41-.284m-.43.044c.066-.012.375.3.214.306-.08.004-.248-.212-.215-.306m2.272-.105q.06.036.12.061c.023.01.065.013.111.018.116.01.258.021.19.135-.027.048-.169-.034-.248-.081q-.04-.022-.054-.028l-.093-.028a.73.73 0 0 1-.338-.17c.112-.02.214.038.312.093m-2.834.85c.053-.002.13.069.152.109.144.264-.38-.101-.152-.11zm0-.307c.046-.031.164.03.152.11-.111.09-.25-.043-.152-.11m3.061-.788q.082.045.15.109c-.037.1-.254-.069-.15-.109m-2.845.438c.149-.019.104.165-.043.087-.043-.022.033-.087.043-.087m.949-.438c.007-.002.124.101.086.132-.064.024-.152-.113-.086-.132m.84 9.497.077-.116c.43-.64.871-1.3 1.475-1.788-.035.31-.292.544-.54.77-.117.107-.232.212-.323.325l-.045.055q-.32.384-.6.797c-1.019 1.588-1.721 3.644-1.531 5.558l.064-1.204c-.083-1.28 2.044-5.5 3.083-5.93l.037-.015c.08-.036.128-.058.114.081-1.241 1.499-2.407 3.2-2.824 5.143.547-1.85 1.61-3.49 2.889-4.902.283.06-.569 1.007-.668 1.116-.018.133.203-.066.278-.133l.022-.02c-.005.007-.001.029 0 .051.004.025.008.05 0 .058-.074.09-.184.18-.3.275-.231.19-.488.4-.54.666.222-.345 1.776-1.381 2.07-1.269.17.065-.098.188-.286.275-.065.032-.12.058-.146.075-.372.26-.844.645-1.142.985-.05.055-.159.238-.264.41-.108.179-.211.348-.232.355-.07.027-.086-.017-.1-.056-.02-.059-.034-.103-.223.122-.438.523-.976 1.99-1.121 2.67-.29 1.36-.37 2.924-.021 4.267-1.949-2.699-.894-6.105.797-8.621m-1.4 5.952c.057.079.032.247.012.376l-.012.105-.065-.197zm.258-.395.087-.525-.108.198zm-.087 1.27c.043-.009.105.165.045.219-.028-.033-.108-.206-.045-.219" clip-rule="evenodd"/><path fill="#fff" d="M12.972 22.856q.053-.07.095-.146c.067-.116.139-.239.272-.291-.01.155-.211.315-.335.412zm-1.012-6.258c.124-.017 1.042.07 1.012.24-.112.208-1.39.037-1.336-.13.079-.042.245-.1.324-.11"/><path fill="#fff" fill-rule="evenodd" d="M23.835 23.119c-.173-.263-.384-.506-.594-.751-.365-.423-.729-.844-.894-1.35.254.362.533.7.812 1.04.26.318.523.637.762.973 1.23 1.725 1.953 3.765 1.812 5.93-.065.975-.32 2.137-1.1 2.78.614-2.13.257-4.85-.754-6.806l-.002-.004c-.014-.027-.113-.225-.128-.083.59 1.363 1.1 2.816 1.035 4.332l-.216 1.269-.04-.453a20 20 0 0 0-.218-1.823c-.168-.91-.466-1.913-.732-2.8.202-.155.13-.163.03-.172-.06-.005-.129-.012-.16-.047-.034-.04-.063-.163-.09-.288a1.3 1.3 0 0 0-.083-.282 5.9 5.9 0 0 0-1.099-1.378 2 2 0 0 0-.168-.112c-.257-.165-.679-.435-.479-.5.078 0 .153.037.222.07l.038.017c.12.055.48.344.798.598.26.211.494.397.537.409.029.007.091.008.108-.023-.124-.131-.235-.275-.347-.417l-.17-.217a6 6 0 0 0-.179-.2l-.006-.007c-.287-.313-.754-.824-.72-.996l.064-.067q.18.203.36.402l.003.003c.203.228.408.454.608.69.867 1.025 1.62 2.16 2.004 3.457l-.108-.547c.05-.59-1.15-2.11-1.96-3.133-.396-.503-.7-.888-.713-.98-.01-.08-.004-.203.108-.198.164.009 1.867 2.295 2.048 2.604.427.734.888 1.962 1.034 2.801.112.641.11 1.321.108 1.975v.104c.276-2.019-.435-4.16-1.532-5.82m1.359 6.609c.011.227-.042.552-.173.743.021-.237.073-.528.173-.743m-.035-1.025c.022-.163.053-.388-.05-.507l-.01.06c-.022.164-.053.39.051.51zm.207.412c.12.031.064.296.044.388v.006c-.12-.033-.065-.298-.045-.389zm-2.63-5.471c.155-.024.197.137.043.087-.012-.003-.085-.065-.043-.087" clip-rule="evenodd"/><path fill="#fff" d="M22.434 12.746c.044-.004.221-.013.237.022-.846.223-1.29.904-1.744 1.595l-.001.003c.047-.598.94-1.557 1.508-1.62M10.28 17.561l-.755.765-.82.744c.338-.585.922-1.021 1.455-1.422zm-.389-.22c.039-.005.102.037.107.066.007.037-.193.23-.427.458-.308.297-.675.654-.715.79-.162-.27.95-1.302 1.035-1.314m2.76-1.575c.12-.025.242.01.36.043.068.018.134.037.198.045h-.258c.06.153.181.13.31.105.13-.025.266-.053.36.092-.264.119-.547.058-.825-.002q-.179-.044-.361-.063c-.019-.075.179-.213.216-.22m10.604.831c.156-.012.438-.034.538.066 0 .077-1.061.398-1.206.175-.004-.077.59-.233.668-.24m-8.752 9.015c.191.004-.247 1.207-.388 1.358 0-.484.108-.966.388-1.358m5.648 1.05c.159.434.214.85.087 1.313-.133-.373-.298-.948-.087-1.313m-6.811-7.57.775 1.838c-.125.058-.762-1.389-.798-1.553l-.006-.028c-.019-.083-.048-.21.029-.257m2.974-.569-.539.853-.711.854c.365-.603.79-1.175 1.25-1.707m-3.147-5.69c.264-.036 1.279 1.138 1.358 1.423q.009.03.019.05c.017.039.025.056-.041.104l-.1-.183c-.13-.235-.268-.487-.439-.671a2.4 2.4 0 0 0-.447-.332c-.151-.095-.29-.184-.35-.26q-.021-.024-.037-.037c-.031-.028-.035-.032.037-.093m.647-.043c.339.137.655.346.884.635.033.042.483.718.28.722-.267-.58-.663-.983-1.164-1.357m8.363 6.521c.076.025-.236.762-.454 1.275q-.106.234-.193.475c-.087-.184.559-1.78.647-1.75M10.58 17.737c.041 0 .1.035.108.066.025.101-.99.73-1.164.788.083-.15.989-.85 1.056-.854m4.742 8.885-.087 1.356c-.13-.391-.057-.975.087-1.356m-2.456-11.467c1.369.254.71.61-.108.066zM11.053 32.44c.158-.075.462.334.345.481-.213-.209-.22-.2-.244-.163-.013.02-.029.045-.078.054-.128.022-.122-.325-.023-.372m1.25-16.411 1.1.328c-.112.08-1.357-.155-1.1-.328m12.46 1.576.732.831c-.302-.166-.654-.47-.732-.831m-2.198-2.189h.033c.029-.004.056-.006.075.021.089.155-.748.338-.863.306-.055-.096.712-.33.755-.327m-9.787 0c.07-.01.851.227.883.373-.131.05-.896-.245-.926-.285-.044-.023.035-.088.043-.088m10.088.744q.09-.008.181 0 .083.003.163 0c-.282.168-.757.246-1.099.197a3.2 3.2 0 0 1 .755-.197m-.087-.263.035-.002c.093-.006.191-.013.246.069-.001.052-.915.22-1.035.13l.089-.028c.204-.065.505-.16.665-.169m-1.81 4.945.215.482c.018.006.05-.027.083-.063.095-.099.208-.217.09.413-.078-.06-.522-.8-.388-.832m1.596-5.688.018-.002c.035-.003.069-.006.088.023.02.052-.856.427-.99.35.178-.113.7-.363.884-.372m-1.294-2.19-.863 1.05.194-.414zm-2.156-.218c.02.117-.266.572-.323.635l-.02.021c-.046.054-.09.105-.174.088zm4.017 3.589h-.008a1 1 0 0 0-.215.093c-.177.088-.41.202-.54.192 0 .207.9-.188.864-.263-.023-.032-.066-.027-.101-.022m-.245-.548c-.057-.084-.152-.075-.237-.065a1 1 0 0 0-.145.063c-.1.046-.22.105-.285.112-.025.003-.045-.018-.065-.042-.04-.045-.083-.094-.174.021.124.143.904-.035.906-.089m-10.54.679.798.154c.003.111-.76-.044-.798-.154m6.897 10.896c.038.304.05.625-.042.92-.046 0-.055-.843.042-.919m1.251-.437c.134.151.039.581-.043.745zm-.087-10.109c.246-.1.32.254.173.306-.065.024-.318-.247-.173-.306m2.07.35c.033-.016.402.609.258.7z"/><path fill="#fff" fill-rule="evenodd" d="M25.258 17.013c-.406.255-1.207.547-1.682.503-.258-.022-.418-.157-.603-.327.124.025.192.066.257.104.083.048.159.093.348.093.173 0 .386-.088.562-.162l.083-.035h-.387l.366-.329-.668.154.905-.613-.237-.066.539-.284h-.518l.82-.35-.862.088.905-.395-.863.087c.075-.117.298-.182.509-.245.28-.082.54-.16.418-.345-.242.115-.624.287-.883.197l.798-.372c-.038-.165-.3-.015-.532.117-.17.096-.324.183-.352.125l.43-.308c-.037-.056-.143-.012-.248.029-.119.047-.235.094-.248-.006l.798-.33c-.23-.043-.447.057-.653.15l-.102.048-.064-.066.323-.24c.07-.155-.205-.02-.35.05a1 1 0 0 1-.081.038 2 2 0 0 1-.296.007q-.22-.017-.437.036a.6.6 0 0 0-.217.143.8.8 0 0 1-.17.12c-.04.016-.077-.03-.102-.061-.012-.015-.022-.028-.028-.027-.01 0-.02.03-.034.07-.025.07-.062.177-.139.237-.091.07-1.133.583-1.055.283.029-.115 1.167-.703 1.748-1.002l.3-.156.344-.35c-.027.012-.09.06-.17.118-.212.157-.537.397-.583.297-.009-.017.038-.04.1-.07.107-.055.255-.13.18-.214-.336.369-.706.521-1.123.694H22.3q-.16.066-.319.137c-.05.021-.161.089-.269.155-.128.078-.253.154-.27.15-.281-.055.449-.879.54-.962 1.015-.934 3.604-1.03 4.095.547.289.935-.234 2.538-1.423 2.408zm-3.283-2.682c.004.023.03.03.043.033l.008.002.861-.328c-.02-.09-.649.148-.732.197a.3.3 0 0 1-.058.016c-.046.01-.102.023-.115.05a.05.05 0 0 0-.007.03m3.662 1.868c-.031-.019-.062-.038-.1-.038-.012 0-.233.074-.235.11l.215.087-.236.285.41-.417a.4.4 0 0 1-.055-.027zM24.59 13.71c.233-.031-.302.455-.41.328zm1.207 1.838h.032c.03-.003.061-.005.075.022-.14.431-.513-.05-.107-.022m-1.444-1.86c-.017-.03-.08-.03-.108-.022q-.13.1-.247.215l-.077.07c.043.088.255-.105.367-.206.033-.031.057-.054.065-.057m1.573 1.553c.162.078-.203.307-.322.11.024-.003.096-.03.167-.057a1 1 0 0 1 .155-.053m-.233-.557c.14-.091.33-.213.104-.186-.016.002-.285.182-.216.262q.054-.041.112-.076m-.068-.449h.129v.088l-.28.022c-.03-.047.142-.109.15-.11m.064.81c.012.026.392-.117.237-.197l-.064.033c-.083.038-.205.094-.173.163zm-.323-.985.236.066c-.074.065-.36.008-.236-.066m.194 1.86c.12.184.351-.034.194-.066l-.038.015a.4.4 0 0 1-.156.051m-.797-2.035.108.066-.195.11zm-2.242 0c.019-.011.162-.007.194.023-.072.132-.304.045-.194-.023m2.63.263c.212-.057.045.17-.044.13-.06-.025.012-.122.043-.13m-.13-.57c.09-.012.04.182-.087.176-.023-.041.062-.171.087-.175m-2.867.526c-.038.006-.04-.019-.041-.034l-.002-.01c.212-.105.19-.087.132-.037a1 1 0 0 0-.09.08m.884-.481c.074-.034.091.11.043.13-.075.035-.09-.11-.043-.13" clip-rule="evenodd"/><path fill="#fff" d="m10.788 32.424-.036-.071c-.112-.005-.045.472.086.437.13-.035.015-.246-.05-.366m11.517-9.48-.43-.525c-.104.047.269.38.393.491zm2.272-5.005c-.096-.085-.189-.166-.203-.16-.139.075.305.4.41.329a2 2 0 0 1-.207-.17m-9.13 2.905c.064-.138.167-.355.09-.438l-.04.082c-.07.137-.146.29-.089.442.007-.021.024-.05.039-.086m-.297-3.94c.138-.053.214.17.085.219-.139.053-.216-.17-.086-.22m-.174 3.501c.118.058-.082.369-.13.35zm-.258 5.251c.119.093-.062.282-.13.35zm7.587-7.176c.058.019-.03.278-.087.306-.08-.06.055-.317.087-.306m-6.487 1.946c-.013-.027-.04-.025-.065-.02-.043.007-.166.18-.087.218zm-.884 3.218c.151-.039.192.137.043.131-.052-.002-.157-.102-.043-.131m5.474-5.251c.072-.013.041.17 0 .175-.06.003-.09-.162 0-.175m.992 2.45c.034.032.037.153 0 .175-.022.013-.118-.124 0-.175m-5.777.045c.06.092.097-.01.043-.088a.1.1 0 0 1-.027.025c-.021.016-.037.029-.016.063m4.398-.525c.064-.025.094.062.042.087-.062.028-.094-.069-.042-.087m1.939-3.24c.06.008-.015.135-.043.13-.06-.007.016-.134.043-.13m-8.19-1.575-.044-.044v.087h.043z"/><path fill="#fff" fill-rule="evenodd" d="M19.482 18.742c.013.008.045.004.076 0 .031-.005.062-.009.074 0 .273.174.544.594.794.982.146.228.285.445.413.593q.047-.026.05-.086l.339.875c.07-.3-.02-.58-.112-.863a3 3 0 0 1-.125-.473l.322.503c.044-.033-.023-.22-.085-.393-.066-.184-.126-.351-.044-.306.008.003.015.028.025.057.031.095.078.238.149-.101.26.235.153.5.055.735-.059.142-.112.273-.077.381.106.326.383-.82.301-.875.142-.116.127-.039.107.069-.014.075-.031.166 0 .215.224-.412.143-.751-.021-1.16l.302.35-.259-.613.087-.044.236.373.065-.066-.259-.525.259.262-.172-.481.173.131-.087-.306h.173c.01-.031-.005-.087-.021-.142-.028-.1-.055-.202.064-.164.358 1.125-.09 2.191-.528 3.227-.109.262-.218.52-.314.778.967-1.328 1.46-3.188.69-4.728-.03.08-.037.275-.043.42-.007.169-.011.265-.042.018-.216-.035-.231.016-.257.101a.4.4 0 0 1-.067.14c-.052.066-.1.077-.14.087-.03.008-.056.014-.075.044-.011.016-.006.069 0 .124a.4.4 0 0 1 0 .139q-.005.006-.035.011c-.086.015-.291.05-.16.449l-.129-.219-.087.262-.129-.218c-.043.362-.047.351-.084.267-.04-.092-.118-.27-.324-.159l.02.504-.172-.262-.108.065.45 1.155c-.186-.313-.518-.72-.74-.993-.127-.156-.219-.267-.226-.294-.068-.217.028-1.45.129-1.662.218-.461 1.204-.215 1.552.044-.075.305-.431.715-.712.809a1 1 0 0 1-.283.037c-.168.008-.343.018-.428.116-.24.284.104.823.28 1.073-.36-.811-.172-.826.178-.855.174-.013.39-.031.599-.153.198-.115.343-.38.474-.619a2.5 2.5 0 0 1 .193-.32c.036-.048.09-.066.142-.083.082-.028.159-.054.161-.18 0-.303-1.205-1.955-1.488-2.21-1.661-1.504-5.028-1.213-6.316.677-1.22 1.791-1.73 4.025-.473 5.953.066.101.541.797.516.393-.002-.04-.16-.296-.344-.594-.23-.373-.501-.813-.56-.982-.347-.972-.35-2.384.236-3.26.086.122.164.257.244.393.24.412.49.841.963.963.1.027.215.028.326.028.276.003.538.004.537.366.291-.577-.122-.643-.559-.715-.206-.034-.418-.069-.562-.16-1.226-.775.852-1.362 1.185-.546.059.143.236 1.179.216 1.313-.006.033-.134.208-.308.443-.438.598-1.164 1.585-.877 1.635.154-.461 1.232-2.047 1.594-2.187q.006-.003.026.01c.056.03.185.1.319-.099.01.086-.095.161-.186.225-.118.084-.21.148.035.191-.43.279-.629.69-.834 1.116a6 6 0 0 1-.286.548c.242-.148.366-.422.491-.7.097-.216.195-.433.349-.591-.01.121-.18.452-.331.745-.224.435-.405.784.05.238-.393 1.073.105.95.658.817q.24-.066.484-.094.532-.03 1.06.006.217.01.429.017l-1.811.13c.424.044.527.313.64.613.054.138.11.284.2.415.118-.021.024-.258-.055-.455-.043-.11-.081-.206-.074-.245.076-.03.159.205.205.334.016.045.027.078.032.082.01.01.024 0 .04-.008.052-.03.131-.075.198.292.041-.067.091-.167.147-.279.132-.266.293-.592.456-.683.245-.138.435-.083.608-.035.149.042.283.08.427-.009.177-.109.218-.33.258-.547.022-.117.043-.233.087-.328.397.33.376 1.809.13.525l-.01.027c-.091.276-.157.473-.38.673-.214.195-.527.285-.831.375-.627.181-1.227.355-.914 1.398.19.634 2.446 1.57 2.802.612l-.474-.175c.072-.01.155-.008.24-.004.229.008.477.017.58-.215.123-.281-.077-.337-.247-.385-.128-.035-.238-.066-.186-.183.062-.134.207-.035.298.027.032.023.058.04.07.038.282-.047.099-.917.02-1.116-.028-.072-.117-.098-.173-.113q-.036-.011-.042-.018a2 2 0 0 1-.091-.412c-.043-.263-.096-.583-.211-.813-.062-.127-.303-.55-.474-.525.152.248.542.953.474 1.225-.017.069-.088.073-.13 0-.12-.219-.242-.605-.362-.984a8 8 0 0 0-.284-.81l-.005-.012c-.025-.056-.1-.225-.168-.163l.216.438c-.063.166-.273-.383-.356-.598-.016-.043-.027-.075-.03-.08m-.03-.079a.4.4 0 0 0 .03.08c-.042-.024-.084-.026-.121-.028-.05-.003-.09-.005-.1-.056a.5.5 0 0 1 .026-.18c.114.013.142.103.165.184m-4.63-3.738c.112-.094.314-.267.24-.34a.7.7 0 0 1-.123.126c-.092.078-.19.162-.178.268zm-.491.622c.068.023-.133.359-.293.631-.095.16-.175.294-.182.333-.107-.012.393-.904.475-.962zm6.417.804c-.146.014-.284.026-.382-.015-.198-.085-.729.088-.216.088.02.013.155.007.3 0q.173-.014.347 0c.165.032.303.107.44.18.101.055.203.11.313.147-.139-.461-.494-.428-.802-.4m-3.745 4.143c.425-.022.87.01 1.311.04.356.024.714.05 1.06.047q.007-.002.025-.023c.041-.044.114-.123.125.088l-3.254.023c-.234-.12.676-.173.733-.175m2.536-3.982c.055-.021.106-.04.116-.067.186-.095.06-.087-.13-.044 0 0-.23.056-.215.219 0 .022.091.135.164.226.05.063.093.115.094.125a.6.6 0 0 1-.018.219c-.024.111-.047.216.039.284q.006-.164.034-.326c.024-.18.052-.375.032-.44-.034-.108-.106-.027-.137.008q-.012.014-.015.012c-.2-.125-.075-.173.038-.216zm-4.562-.132.025-.003c.104-.008.272-.022.32.09-.06.009-.15.013-.242.015a1.6 1.6 0 0 0-.319.029 2.3 2.3 0 0 0-.331.181c-.251.15-.539.325-.553.234-.03-.204.941-.535 1.1-.546m1.271.196c-.013-.059-.149-.088-.193-.065-.112.054-.1.779.042.744.001-.055.075-.203.13-.316a1 1 0 0 0 .065-.144c-.001-.005-.016-.008-.035-.013-.064-.016-.186-.045-.009-.206m.108.504-.108.415.281-.24a3 3 0 0 1-.114.27c-.087.187-.171.369-.188.65q-.01-.095-.026-.2c-.05-.324-.105-.707.155-.895m4.354 4.595c.323-.003.484.455.26.656zm-.517.875c.058-.021.401-.025.367.11-.114.192-.63-.015-.366-.11m.604.525c.346.037-.2.325-.366.11 0-.045.347-.113.366-.11m-1.294-.525c.028-.009.37.015.323.153-.123.124-.575-.07-.323-.153m-.258-.657c.29-.077.221.304-.043.22-.12-.038-.025-.2.043-.22m1.259.043-.009.001a.7.7 0 0 0-.174.131c-.05.132.26.03.324-.022.023-.131-.057-.121-.141-.11m-.699.001c.056-.02.273 0 .237.109-.053.166-.492-.016-.237-.109m-1.887-.942-.527-.064c-.01.203.136.157.294.109a.7.7 0 0 1 .232-.045zm0 0 .012.001h-.013zm3.784-4.353c.151-.041.128.268-.044.263-.099-.054 0-.25.044-.263m-2.458.219c.052-.003.223.293.13.35-.044-.029-.3-.345-.129-.35zm.863 6.87.496.066c-.08.073-.486.058-.496-.066m-2.198-2.538c.125-.002.063.31 0 .307-.06-.102-.119-.216 0-.306m1.68-1.137c.046-.036.222.152.13.219-.097.069-.22-.15-.13-.219m-.086-.788c.036.023.226.23.173.263-.1.043-.252-.226-.173-.262m-.216-1.576c.071-.034.244.228.174.263-.088.025-.198-.25-.174-.263m-2.477.328c-.024-.032-.075-.029-.108-.021a2 2 0 0 0-.238.197c.066.05.352-.159.346-.176m2.348-.765c.1.015.199.129.13.219zm-2.716.525c.025.02.31-.198.174-.219l-.032.02c-.075.046-.153.094-.142.199m3.061.437c.075-.03.15.212.087.263zm-5-2.845c.016.007.181-.247.13-.306q-.021.031-.053.069c-.058.07-.125.152-.077.237m5.259 4.289c.094.009.184.232.086.22-.024-.004-.139-.169-.086-.22m-3.06-1.881c.05.069-.184.247-.238.197a.9.9 0 0 1 .236-.197zm4.784-1.575.043.262c-.074-.071-.131-.212-.043-.262m-2.457 1.881c.053-.025.206.145.13.175-.01.005-.228-.129-.13-.175m0-.219c.092-.018.184.063.194.154-.047-.004-.217-.088-.194-.154m.044-.306.087.175c-.096 0-.146-.1-.087-.175m-2.588 2.758c.135-.07.125.127.044.13-.094.004-.082-.112-.044-.13m1.681.612c.096-.05.087.196-.042.175-.016-.009.03-.169.042-.175m1.962 2.144c-.218.036-.144.111 0 .087h.028c.023.003.044.005.059-.021.002-.082-.013-.08-.062-.07l-.01.001zm-.021-2.188c.034.017.037.144 0 .175-.058.049-.046-.197 0-.175m-.907 1.75.05-.001c.056-.005.112-.009.102.067-.023.006-.196-.017-.15-.066zm-2.887-2.494.022.066-.066.02-.02-.02zm5.26-1.224c.108.165.272.453.216.654l-.216-.656zm-.13.217.215.525c-.126.071-.268-.425-.214-.525m-.732-.7a.4.4 0 0 0 .025.1c.027.079.053.156-.025.206-.037-.039-.032-.305 0-.306m1.077-.437c.093-.068.053.155 0 .13-.033-.014-.037-.104 0-.13m-9.284 1.755c.125-.177.323-.456.231-.53a36 36 0 0 1-1.386 1.703c-.619.73-1.238 1.46-1.783 2.256-1.16 1.698-2.113 3.462-.97 5.493q.043-.344.079-.696c.118-1.135.238-2.309 1.021-3.177-.558 1.094-.906 2.37-.732 3.632.038.292.146.581.248.859l.031.082c.077-.423.108-.85.14-1.279.037-.502.074-1.005.183-1.5.26-1.167.967-2.562 1.639-3.545.093-.136.382-.486.706-.875.525-.635 1.138-1.375 1.147-1.487.012-.175-.093-.306-.258-.175-.207.165-1.289 1.578-1.726 2.15l-.127.169a6 6 0 0 0-.259.427c-.143.25-.293.512-.324.512-.262.013.12-.43.364-.715.102-.118.18-.208.174-.224-.009-.033-.062-.01-.126.02-.08.037-.176.08-.218.024a.4.4 0 0 1 .197-.09c.06-.015.12-.03.17-.063.172-.123 1.938-2.39 2.004-2.562a.6.6 0 0 0 .043-.306c-.286.096-.501.43-.695.733a4 4 0 0 1-.253.362c-.282.333-.578.663-.879.994-1.194 1.321-2.424 2.684-2.786 4.476-.063-.221.056-.637.13-.875.428-1.38 1.44-2.474 2.433-3.545.648-.7 1.287-1.39 1.749-2.145l.03-.047c.089-.144.202-.323.163-.5-.067.053-.111.165-.155.277-.07.175-.14.352-.298.315-.005-.011.038-.07.093-.15zM9.525 24.51c.13-.195.263-.4.323-.604-.378.478-.795 1.063-.95 1.663a11 11 0 0 1 .391-.68l.106-.173a5 5 0 0 1 .13-.206" clip-rule="evenodd"/><path fill="#fff" fill-rule="evenodd" d="M22.887 19.509c-.033-.029-.162-.134-.193-.11-.16.124.275.892.366 1.029.415.625.963 1.187 1.518 1.76 1.056 1.087 2.137 2.2 2.361 3.797l.001.006c.01.054.065.398-.044.344-.112-1.02-.616-1.948-1.207-2.757-.351-.482-.82-.975-1.29-1.471-.62-.655-1.244-1.313-1.599-1.942-.062-.11-.279-.475-.258-.131.004.059.487.938.56 1.05.246.375.56.725.877 1.075.438.488.88.979 1.15 1.55q-.559-.696-1.13-1.387-.473-.574-.94-1.15a2 2 0 0 1-.103-.16c-.178-.288-.497-.806-.586-.497-.08.276.661 1.1 1.147 1.64.162.181.298.33.361.416 1.241 1.644 2.002 3.333 2.156 5.427.009.125-.001.264-.012.41-.025.316-.05.661.12.925.528-1.145.273-2.435-.022-3.61.433.569.48 1.301.527 2.021.018.28.037.558.076.824.702-.789.538-2.538.216-3.501-.289-.867-3.343-4.965-4.052-5.56zm2.781 4.441.04.05c.22.271.49.605.521.958zm.69 1.838-.474-1.005c-.066.043-.056.069-.037.112l.015.04c.044.139.208.396.345.61.06.095.114.18.151.244zm-6.316-1.247c-.354-.556-2.077-.742-2.694-.678-.387.04-1.53.354-1.746.678-.34.508-.286 1.316.366 1.51l.108-.11a1 1 0 0 0-.056-.283c-.05-.165-.096-.308.077-.57.055.166.046.341.037.506-.012.293-.025.555.308.675v-.831c.019.075.027.154.037.232.023.196.044.388.221.513.106.001.108-.11.112-.232.002-.108.006-.224.083-.272a.88.88 0 0 0 .194.723c.158-.068.228-.046.3-.023.028.009.055.019.087.022.837.1 1.924-.014 2.371-.743l-.02.284c.496-.133.457-1.022.215-1.4m-2.824-.46c.06.108-.397.534-.452.417zm-1.078.175c.187-.023-.26.478-.301.482zm.457.226c.13-.085.3-.197.234-.313l-.346.394c.025-.023.066-.05.112-.081m-.025-.357c-.018.146-.186.297-.312.412l-.076.07c.022-.183.213-.34.352-.452zm2.543 1.358c.026.003.072.5-.042.525-.065-.06.005-.531.042-.525m-.69.087.088.613c-.138-.04-.124-.613-.087-.613m.302.613c.025-.002.072-.464-.043-.482-.05.132-.016.26.019.388zm-.819-.438c.034.005.035.375 0 .438-.119-.105-.062-.264-.016-.392zm1.552-.35c.118.019.063.275.043.35-.09-.059-.077-.265-.043-.35m-1.078-1.312c.047-.023.251.2.13.262l-.013-.017c-.047-.058-.177-.218-.117-.247zm-.84.065c-.017-.032-.078-.03-.108-.023-.012.004-.191.169-.173.219zm1.099-.023c.088.006.129.061.172.12.02.025.04.054.065.078-.075.058-.213-.135-.236-.198zm.388 0 .173.219c-.079.035-.211-.131-.174-.219zm-1.811 1.62c.12.005.072.179 0 .219a.24.24 0 0 1 0-.219m.948-1.662c.013-.006.117.134.087.175-.087.022-.152-.149-.087-.175m-.474.042c.065.038.024.175-.087.131-.035-.03.081-.134.087-.13m.216 0c.029.004.103.109.044.131-.035.013-.175-.146-.044-.13m-2.5-4.113c.029.01-.05.22-.149.476-.129.345-.29.771-.26.902.042.194.09-.069.121-.241a.6.6 0 0 1 .03-.131c.025-.019.613-.012.645 0 .013.003.064.062.13.133.1.113.235.263.302.304.192.12.426.17.656.22.486.104.948.204.918.94-.042.969-1.235 1.238-2.085 1.429a10 10 0 0 0-.351.081l.064-.154-.258-.087.645-.219c-.538.154-.59.069-.667-.058a.47.47 0 0 0-.172-.182c-.017-.01-.05-.01-.092-.01-.109 0-.279 0-.36-.187-.142-.322.097-.389.272-.438.085-.025.155-.045.158-.087.012-.158-.22-.116-.364-.091-.067.012-.115.02-.11.003l-.011-.106c-.03-.286-.065-.613.098-.856a.45.45 0 0 1 .198-.15c.047-.023.087-.041.103-.069.02-.034.062-.2.108-.384.052-.209.11-.441.15-.535.025-.059.251-.514.281-.503m-.194 1.728a.5.5 0 0 0-.367-.065c-.282.079-.379.768 0 .569.159-.084.066-.175-.018-.254-.054-.053-.104-.102-.068-.14zm-.022.767c.123-.028.428.06.323.197-.117.154-.781-.093-.323-.198m-.07.59a1 1 0 0 0-.102-.022c-.69.038.148.363.367.067-.05.005-.175-.026-.266-.046m-.06-1.116c.091-.04.368 0 .367.153-.145.105-.636-.029-.366-.152m.572 1.355-.01.002c-.031.002-.348.091-.367.153l.538-.066c.02-.1-.094-.094-.161-.088m.42-.786c.014-.007.331-.037.324.066-.073.158-.497.03-.323-.066m-.344-.612c.05-.033.285.04.28.152-.111.109-.427-.056-.28-.152m.603-.044c.087-.054.335.025.237.153-.088.116-.375-.07-.236-.153zm-.636-.587-.032.018v-.017l.001-.017c.005-.086.01-.184-.087-.12q.016.084-.014.163c-.015.041-.021.059.057.079.046.011.279.009.301-.023l-.108-.152a1 1 0 0 1-.118.069m-.356-.157c.04.025.045.314-.042.263-.042-.084-.042-.204.042-.263m.26 1.925c.146-.077.192.107.042.088-.009 0-.086-.065-.042-.088m.301-.525c.06.008-.015.135-.043.131-.06-.007.015-.134.043-.13" clip-rule="evenodd"/><path fill="#fff" fill-rule="evenodd" d="m22.521 17.035 3.728 4.268.124.17c.554.766 1.098 1.516 1.342 2.456.185.706.402 1.796-.021 2.429a5 5 0 0 1-.094-.854 5 5 0 0 0-.1-.875c-.298-1.22-1.447-2.389-2.548-3.509-.722-.734-1.422-1.445-1.85-2.137l-.007-.013c-.155-.25-.39-.629-.316-.927l.84 1.027zm.474.658c.507.967 1.273 1.782 2.039 2.595 1.034 1.1 2.065 2.195 2.445 3.662-.489-1.329-1.422-2.359-2.354-3.387-.81-.894-1.618-1.787-2.13-2.87m-1.51 10.722a2 2 0 0 1-.12.275 1.5 1.5 0 0 0-.116.271c-.01.07.015.255.042.457.043.335.094.712.001.68l-.194-.678c-.244.363-.136.729-.022 1.113.056.187.112.376.13.572.054.579-.02 1.15-.096 1.723-.038.293-.077.587-.098.88.686-1.028.744-2.387.71-3.61l.281.548.152-.59-.022 3.215c.847-1.325.768-3.125.496-4.617l-.087-.043c-.5.425-.62.532-.43 1.225-.162.21-.267-.295-.318-.54-.013-.057-.021-.1-.028-.116a1.6 1.6 0 0 0-.124-.242c-.092-.154-.18-.302-.156-.523m.907.613c.12.078.263.762.13.787-.17-.141-.157-.572-.13-.787m-.863.043.174.832c-.066.017-.34-.87-.174-.832m1.036 1.838c.03 0 .037.422 0 .481-.034 0-.034-.481 0-.481M11.873 17.69h.005c.036-.003.086-.008.103.023-.419.499-.87.98-1.319 1.464-1.522 1.633-3.056 3.28-3.446 5.603-.443-1.903.774-4.068 2.156-5.295.249-.22 2.342-1.777 2.5-1.795m-2.63 2.278-.992 1.225c-.162-.078.67-.905.925-1.159zm-.983 1.685c.138-.171.298-.371.293-.591-.05.062-.468.597-.344.656zm-.397.721c.052.018-.019.298-.086.263-.074-.053.064-.27.086-.263" clip-rule="evenodd"/><path fill="#fff" fill-rule="evenodd" d="M23.426 17.735c1.505.946 3.034 1.939 3.945 3.524.514.896 1.194 2.3.754 3.304-.442-2.115-1.792-3.578-3.153-5.055-.532-.575-1.064-1.153-1.546-1.773m3.013 2.793q.107.089.198.185.018.029.032.06c.057.117.173.362.249.333.03-.137-.088-.233-.191-.316a1 1 0 0 1-.09-.077l-.027-.04-.03-.045c-.158-.234-.317-.468-.567-.615.082.213.256.366.426.515m.695 1.06c.06-.03.273.215.173.262-.035-.019-.228-.237-.173-.262m.387.787c.052-.025.206.144.13.175-.07.029-.162-.159-.13-.175m-15.994 4.988c.01.13.295.4.477.57.083.08.145.138.15.153.005.03-.032.128-.08.248-.092.235-.219.559-.115.65.108.094.143-.165.174-.404.021-.165.041-.32.085-.341.074-.038.383.06.41.154.022.077-.116.58-.26 1.112-.14.511-.286 1.048-.302 1.25-.03.383 0 .779.03 1.175.027.363.055.725.035 1.079-.862-1.803-1.151-3.688-.604-5.645zm.303 3.24c.046 0 .239-.85.086-.92l-.035.113c-.082.258-.178.567-.05.807m-.174-2.8.023.765-.108.152.087-.919zm.26 3.28c.038.027.043.316-.043.263-.043-.082-.043-.203.043-.262m-.43-1.618c.02-.012.113.141.041.175-.079.038-.089-.15-.042-.175m12.063-1.711c.137-.139.285-.293.308-.39.111-.018.218.666.237.81.207 1.6-.19 3.23-.97 4.616.099-1.177.1-2.271-.108-3.435a2.2 2.2 0 0 0-.122-.404c-.127-.335-.22-.58.316-.8.108.023.108.2.11.388 0 .184.002.379.106.444.149-.007.013-.494-.064-.767a1 1 0 0 1-.044-.175c.006-.055.114-.165.232-.287zm-.165 3.417c.127-.203.06-1.523-.087-1.575l-.108.11zm.387-3.325c-.028.073.017.32.053.518.025.142.048.261.033.269-.217.133-.152-.788-.086-.788zm-.129 2.757c.096.07.096.235 0 .306a.45.45 0 0 1 0-.306m.13-1.05c.074-.065.051.178-.044.175a.4.4 0 0 1 .043-.175m-11.23 2.035a7.2 7.2 0 0 1 .322-3c.033.09.285.283.47.426.109.084.194.15.198.166a.6.6 0 0 1-.05.175c-.083.229-.22.606-.058.721.034.008.083-.162.147-.377.11-.373.26-.883.436-.869l-.517 2.8c-.083.05-.084.01-.084-.04q0-.023-.003-.047c-.006-.033 0-.173.01-.347.018-.37.042-.897-.031-.856-.158.625-.154 1.27-.151 1.915.002.355.003.71-.021 1.06-.255.219-.654-1.582-.668-1.729zm.58-2.56c.088.027-.217.84-.301.918-.083-.106.256-.933.302-.918m1.768.656c-.321.675-.377 1.25-.322 1.99.07.975.343 2.327.883 3.13l.452-4.925-.388.745-.107 1.072c-.165.138-.149-.327-.135-.805.015-.445.028-.9-.102-.88-.18-.045-.166.397-.153.85.014.435.027.882-.128.923zm.345 3.195c.025.004.074.461-.043.481-.066-.057.012-.487.043-.481m2.976-1.358a13.8 13.8 0 0 1-.223 3.345c-.091.544-.195 1.175-.51 1.6l-.626-4.53.538 1.51.023-.633c.298.583.36.187.442-.318.064-.404.14-.876.355-.975zm-.496 3.655-.065-.285-.087.788zm-2.367-16.65a2 2 0 0 0-.177.217l-.052.07c-.062.078-.13.167-.103.267l.003.013c.079-.03.118-.21.138-.3a.3.3 0 0 1 .014-.05.1.1 0 0 1 .033-.013c.07-.022.226-.071.29-.25.111.06-.182.469-.35.703-.05.07-.09.126-.102.15-.05.093-.097.205-.146.318-.101.244-.21.503-.372.645l.044-.48c-.17.06-.165 1.374-.108 1.42l.012-.012c.025-.033.084-.113.138-.009l-.107.196-.583-1.115.173.088c-.103-.478-.037-.82.215-1.225l-.323.415.194-.635c-.276.197-.273.517-.27.815 0 .105.002.207-.01.301-.346-.525-.239-1.05-.022-1.597l-.172.218-.15.548c-.138-.188-.025-.401.08-.603.046-.087.09-.172.112-.25l-.344.35c-.006-.09.096-.298.19-.488.152-.31.28-.57-.124-.19-.078-.038.017-.158.118-.285.09-.117.186-.238.161-.307-.054-.103-.157.08-.262.267-.095.168-.192.34-.255.302l.496-.766c.15.156.095.327.021.504l.15-.153c.05.07.075.135.096.19.042.108.07.179.229.181-.07.187-.015.165.044.144.07-.025.147-.054.02.273l.302-.175-.044.306.195-.241c.18-.01.095.095-.006.22-.078.097-.168.207-.145.283l.388-.437c.15.041.088.11.015.194-.056.06-.117.13-.102.2.029.01.117-.08.216-.18.165-.163.36-.36.367-.193a1 1 0 0 1-.125.155m-.975.83-.042 1.487c-.212-.52-.207-.984.042-1.488m-.604.087.174-.613q-.03.069-.067.135c-.078.15-.161.308-.107.478" clip-rule="evenodd"/><path fill="#fff" fill-rule="evenodd" d="m17.434 27.187.215 1.752c.047-.198.036-.504.024-.81-.013-.34-.027-.682.042-.875.01-.033.099-.104.129-.044l.02 1.51c.064.001.096-.293.131-.623.041-.38.087-.808.192-.887l.087.044c-.062.446-.056.915-.05 1.38.004.425.01.846-.037 1.246-.04.367-.163.71-.288 1.054-.129.362-.258.723-.293 1.112-.116.075-.086-.356-.07-.569.003-.056.007-.096.006-.11q-.045-.503-.114-1.002c-.069-.525-.137-1.05-.146-1.579-.002-.146-.002-1.642.152-1.599m.345 2.803-.043.919c-.13-.3-.05-.625.043-.92m-3.448-7.003c.1.055-.164.238-.436.425-.245.168-.495.34-.492.428-.012.091.067.04.112.012a2.4 2.4 0 0 0 .302-.223 2.2 2.2 0 0 1 .394-.282c.051-.035.093-.062.14.013-1.007.8-1.566 2.084-1.638 3.369l-.13-.613-.02 1.335c-.863-1.672.052-3.829 1.768-4.464m-1.294 1.4c.149.008-.072.283-.13.263z" clip-rule="evenodd"/><path fill="#fff" d="M25.28 31.784c.152.016.202 1.043-.194.94-.056-.168-.013-.274.03-.377.042-.1.082-.196.034-.345-.089.122-.145.38-.182.548-.047.219-.062.287-.076-.285-.118.052-.152.196-.186.332-.041.16-.077.31-.246.28-.057-.01.046-.568.066-.59.027-.032.086-.026.131-.02.03.003.054.005.063-.002l.236-.204.003-.004zm-1.293.568c.195-.045.27.232.172.394l.28-.284c-.194.665-.305.487-.384.36-.024-.042-.048-.078-.068-.075-.032.004-.043.043-.056.088-.02.069-.043.151-.161.13l.045-.35a1 1 0 0 0-.14.221c-.075.145-.137.265-.378.304.09-.154.559-.758.69-.788M10.45 32.31c.136-.023.13.337 0 .393-.041-.068-.12-.373 0-.393m15.563-.657.108.153-.066.11-.106-.154z"/><path fill="#fff" fill-rule="evenodd" d="M8.942 30.251c.119.247.08.535.04.827-.032.23-.063.463-.02.683.104-.081.113-.275.123-.467a1.2 1.2 0 0 1 .05-.363c.113-.109.097.544.085 1.032q-.017.249.001.498c.124.359.138-.216.15-.687.008-.29.015-.54.045-.515.171.77.197.64.23.474.017-.08.034-.167.072-.168.068-.003.09.162.099.242a.2.2 0 0 0 .009.042c.042.058.131.102.222.148.115.058.232.115.252.203q-.01.24-.044.481c-.068.133-.474.063-.764.011a1 1 0 0 0-.292-.034c-.043.015-.34.964.021.68l.065-.417c.02.388.355.383.697.377.132 0 .265-.003.381.017 1.773.305 5.156 1.975 5.583 3.917.096.435.256 1.994-.389 1.925-.032-.031-.03-.203-.024-.415.006-.341.014-.782-.126-.875-.001.09.006.2.016.32.037.49.086 1.142-.447 1.255-.602.128-.608-.451-.614-1.071-.005-.453-.01-.926-.248-1.161q.01.086.03.212c.112.725.358 2.338-.591 2.108-.455-.111-.486-.816-.513-1.429-.014-.305-.027-.587-.09-.76-.162.235-.1.625-.04 1.006.078.48.153.95-.219 1.095-.98.382-.874-1.341-.82-1.882-.188.34-.172.698-.155 1.069l.005.09-.065.11c-.236-.302-.16-.714-.087-1.093q.025-.136.044-.262c-.36.495-.234 1.203.15 1.64-.605.442-.615-.384-.621-.95a2.3 2.3 0 0 0-.025-.407c-.09-.357-.768-.448-1.527-.55-.869-.117-1.843-.25-2.18-.807-.464-.77.126-1.675.66-2.494.279-.428.542-.832.632-1.181.094-.358.096-.753.1-1.153.002-.451.005-.91.139-1.321m2.24 6.583c-.167-.348-.336-.698-.602-.98.008.24.198.507.381.766.142.2.28.394.33.569l.008.026c.02.068.027.091-.03.171-.126-.07-.422-.535-.666-.919-.18-.281-.332-.518-.368-.525-.252-.047-.016.17.075.253q.018.015.033.031l.005.009c.06.1.46.775.318.8a1.4 1.4 0 0 0-.59-.133c-.311-.021-.566-.038-.703-.523-.091-.005-.054.08-.012.172.052.116.11.244-.074.221-.14-.016-.162-.14-.185-.266-.019-.102-.037-.206-.117-.259l.042.438q-.08-.014-.166-.034c-.208-.05-.424-.101-.587.1.345.096.741.14 1.138.184.503.056 1.01.112 1.427.275.167.066.311.227.397.321.04.045.067.075.077.074.02-.004.205-.35.194-.373-.007-.015-.028-.017-.053-.021-.04-.004-.091-.011-.12-.066a13 13 0 0 1-.153-.312m-2.284-2.906.044.132c-.65.725-1.099 1.618-.712 2.603l-.151.022c-.394-.968.138-2.017.82-2.757m-.469.286c.201-.215.515-.55.427-.592-.369.323-.67.717-.884 1.159-.08.169-.638 1.701-.237 1.685.039-.189.06-.38.08-.571q.035-.433.157-.85c.016-.052.275-.614.302-.658.014-.022.076-.089.155-.173m.513.152c.025-.01.093-.008.108.021-.23.325-.597.925-.647 1.313q0 .078.007.156c.02.277.058.801-.115.654-.257-.219.282-2.003.647-2.144m-.653-.356c.385-.41.773-.826.61-1.438l-.991 1.881q.176-.233.38-.443m.869.619-.237.766c-.224-.033-.187.141-.148.322.022.107.046.217.017.29l-.193.022c-.021-.557.244-.973.56-1.4M7.43 36.071l.345-1.444-.027.048c-.232.409-.52.91-.318 1.396m6.812.175c.136-.005.4-.014.517.044.28.138-.121.135-.56.131-.312-.002-.645-.006-.762.043.205-.124.596-.209.805-.218m-4.333-.442c.006-.194.014-.388-.02-.563-.065.158-.151 1.365-.109 1.422.019.024.265.064.323.064-.219-.236-.206-.58-.194-.923m-.41-.783c-.016.065-.013.203-.012.359.006.333.013.75-.159.735-.104-.009.067-.998.172-1.094m-.43 1.05.216-1.137c-.025.067-.065.148-.107.236-.149.31-.339.703-.11.901m.69-1.05-.129 1.313-.065-.634zm2.415 4.026q.054-.481 0-.962l-.066.503zm.042-2.495c.109-.002.087.072.062.148-.021.069-.044.138.025.159l.236-.065-.194.196c-.138-.047-.325-.431-.13-.437m-1.465-1.356c.087-.007.205.476.086.481-.1-.124-.239-.343-.086-.48m-.561 1.05.129.613c-.159-.059-.146-.263-.134-.449q.007-.088.005-.163m.906-.175.258.481c-.105-.002-.342-.437-.258-.48m.775.219c.115-.066.068.071.016.219-.037.105-.075.215-.058.262-.14-.056-.007-.452.042-.481m2.788 2.335a2 2 0 0 1-.029-.277c-.037 0-.06.678.044.743.028-.156.006-.312-.015-.466m-4.685-6.405.043.394c-.192.002-.087-.393-.043-.394m-.344-.219c.115.116.09.3.042.438zm2.026 3.851c.097.075.063.175.03.274a.6.6 0 0 0-.03.12c-.07-.11-.12-.291 0-.394m1.724 2.408c.12.051.083.701.044.7zm-2.113-2.758c.065.103.12.255 0 .35-.063-.102-.119-.255 0-.35m-2.629.744c.077-.059.164.203.087.263s-.165-.203-.087-.263m.387-4.287a.74.74 0 0 1 0 .392c-.098-.078-.099-.308 0-.393m2.458 4.637c.058 0 .208.271.087.263-.062-.004-.232-.263-.087-.263m-1.293-1.006c.027.032.107.206.043.219-.042.008-.104-.165-.043-.219m-.906-1.837c.065-.026.095.063.044.087-.063.027-.097-.069-.044-.087m3.277 3.106.064.022-.064.065-.021-.021zm13.752-6.434c.012.291 0 .608-.014.928-.022.5-.043 1.012.035 1.457.058.33.236.65.417.979.183.331.37.67.446 1.035.097.466.21 1.632-.216 1.881.159-.83.227-1.689-.237-2.429l.022.084.025.093c.133.48.244.883.19 1.42-.018.173-.16.88-.389.876.45-1.058.214-2.029-.452-2.91-.036.182.082.365.205.555.08.125.164.253.205.386.206.675.185 1.444-.108 2.079a10 10 0 0 1-.772.071c-1.09.079-2.742.199-2.957.825-.061.178-.055.371-.05.565.006.18.011.36-.037.53-.047.169-.425.705-.559.35-.027-.071.008-.25.051-.471.093-.471.225-1.14-.116-1.389.198.526.122 2.121-.604 2.188-.613.056-.525-.653-.445-1.298.043-.343.083-.666.015-.846-.135.166-.164.529-.195.912-.046.572-.096 1.188-.497 1.275-.794.178-.657-1.091-.573-1.842.018-.171.034-.316.036-.411-.206.182-.219.6-.231 1.02-.015.53-.031 1.067-.437 1.147-.698.135-.677-.584-.658-1.197.006-.256.012-.493-.032-.642-.142.483-.168 1.028-.022 1.51-.556.179-.504-.925-.474-1.268.148-1.72 2.27-2.876 3.686-3.524 1.507-.689 2.839-.988 4.505-.985v-.788c-.225.062-.195.278-.167.49.014.099.028.197.015.276-.058-.04-.09-.192-.12-.338-.034-.167-.067-.327-.138-.318-.004 0-.012.009-.025.019-.062.055-.206.184-.255-.085-.013-.071.24-1.419.366-1.379a1.4 1.4 0 0 1-.08.44c-.072.24-.141.475.015.72.042.029.066-.191.097-.467.042-.385.097-.878.227-.955.065.083.006.287-.053.493-.075.257-.15.517.01.558.205.053.195-.469.187-.854-.002-.152-.005-.284.006-.35.018-.1.077-.237.125-.35zm-3.665 7.135c.088.023 1.111-1.406.949-1.532-.049.13-.348.493-.61.81-.21.255-.396.478-.403.525-.01.058-.002.18.064.197m1.639-1.487c.04.207-.083.337-.217.474-.108.113-.221.23-.257.4l-.13-.175c-.056.225-.214.33-.452.328l1.055-1.029zm-3.642.37c.026-.13-1.151-.21-1.273-.197-.033.004-.46.11-.43.219zm2.564-.416c.152.075-.633 1.15-.732 1.226-.096-.064.171-.422.41-.74.155-.208.299-.4.322-.486m2.931-1.575c.237.425.396.913.302 1.4zM22.26 37.3c.353.155.242.66.163 1.02l-.034.162a5 5 0 0 0-.129-1.181m1.423-.787c.216-.023.568-.898.258-.833-.037.01-.066.153-.1.32-.037.2-.084.433-.158.513m1.034-.833c.13.09.08.763-.044.745-.142-.205-.05-.477.025-.69zm.646-.48c.142.184.21.537.087.743-.157.035-.116-.644-.087-.744m-3.664 2.887a.95.95 0 0 1 .087.832c-.128-.255-.134-.552-.087-.832m4.484-2.319c.126.004-.032.586-.173.613a.62.62 0 0 1 .173-.613m-1.208.569c.129-.005-.047.57-.086.57-.131-.13-.036-.322.041-.475zm1.337-2.931-.087-.744-.004.032c-.026.227-.064.541.09.712m-1.81 3.15c.189.028.019.487-.087.395-.07-.063-.006-.34.087-.395m-2.932.395c.155-.01.335-.537.087-.395-.023.012-.015.06-.008.116.013.077.025.167-.037.191-.034.013-.064-.021-.094-.056-.043-.049-.085-.098-.142-.01zm4.698-.526c.234.034-.116.46-.214.307-.05-.076.197-.31.214-.306m-1.206-.875-.044.526c-.115-.002-.067-.47.044-.526m-6.38 2.625c.142.053.035.7 0 .7a2.3 2.3 0 0 1 0-.7m3.965-1.925c.092.06-.109.55-.172.526zm.432-.787c.07.172-.018.348-.13.48zm-2.716 3.5c.045 0 .035-.846 0-.919l-.043.481zm5.346-2.494c.223-.069-.065.388-.173.35-.062-.031.112-.332.173-.35m-.029-1.32a1 1 0 0 1-.058-.125c-.096.122.06.4.126.52l.004.005c.08-.101-.004-.265-.072-.4m.114.619a.8.8 0 0 1-.087.57c-.072-.1 0-.305.05-.455a1 1 0 0 0 .037-.115m-.603 1.095c.11.071.273-.203.174-.306l-.039.036c-.077.071-.224.21-.135.27m-5.949 1.488c.047.187.002.427-.043.612-.03-.195-.062-.431.043-.612m3.063-1.938c.024-.14.064-.365-.045-.47l-.003.012c-.024.14-.064.364.046.47zm3.102-.295c.12 0 .087.288-.044.306-.116-.037 0-.305.044-.306m.561-1.21a1 1 0 0 1-.043-.102c-.033.075.022.477.085.48.08-.113.015-.254-.042-.378m.43 1.079c.124-.003.067.306 0 .306l-.065-.109zm-2.069-.481c.118.02.064.275.043.35-.117-.015-.065-.272-.043-.35m-1.725.13c.124-.003.062.263 0 .263-.082 0-.087-.258 0-.262m-.603.57.043.306c-.102-.015-.123-.313-.043-.306m2.198.437c.196.025-.207.354-.15.11a.6.6 0 0 1 .151-.109zm1.898-1.269c.117.008.077.221 0 .263a.33.33 0 0 1 0-.263m-3.837 1.27c.014-.005.144.17.087.219-.068.031-.15-.197-.087-.219m-.26 0c.12.004.073.179 0 .219a.24.24 0 0 1 0-.219m3.365-1.837c.074-.049.09.151.042.175-.08.035-.09-.146-.042-.175m-.303.48c.033.032.037.154 0 .175-.023.014-.118-.124 0-.175m-.389.044c.08-.013.051.175-.042.13-.029-.012.036-.13.042-.13" clip-rule="evenodd"/><path fill="#fff" fill-rule="evenodd" d="M26.588 31.36c.042-.52.083-1.035.028-1.415l-.053.358c-.154 1.011-.337 2.225.075 3.122.03.065.093.137.157.213.073.088.15.178.188.268.273.651.898 2.449.151 2.91-.323.2-1.108.275-1.895.353-.647.063-1.295.127-1.684.26-.123.042-.427.15-.43.305.319-.147 1.01-.223 1.777-.307 1.337-.148 2.9-.319 3.116-.94.151-.437-.046-1.196-.216-1.619-.12-.294-.379-.634-.628-.961-.264-.345-.517-.675-.58-.92-.104-.407-.055-1.02-.006-1.628m1.064 5.237c.444-.069-.08-2.117-.432-2.363.035.187.124.405.212.628.112.279.227.563.24.795.003.041-.015.143-.036.263-.052.292-.123.7.016.677m-9.097-9.452.064 1.685.281-1.554c.263 1.224.224 2.579-.518 3.587zm.13 2.056c.041.146.015.291-.012.437-.012.073-.026.146-.031.22-.034 0-.062-.6.042-.657m-1.941-1.969.129 1.444c.092-.195.078-.43.066-.663-.015-.277-.03-.554.129-.76l.15 3.787c-.572-1.185-.963-2.515-.474-3.808m.087 1.97c.033 0 .033.219 0 .219-.037-.037-.03-.219 0-.219" clip-rule="evenodd"/></g><defs><clipPath id="a"><path fill="#fff" d="M0 0h36v50H0z"/></clipPath></defs></svg>