<svg xmlns="http://www.w3.org/2000/svg" width="139" height="62" fill="none" viewBox="0 0 139 62"><g fill="#3e2723" clip-path="url(#a)"><path d="M81.54 11.121c.245.246.562.41.922.326 3.126-.733 6.19-1.732 9.025-3.259.34-.183.603-.602.731-.95.147-.4.207-.947.089-1.363-.099-.344-.268-.748-.61-.917a1.01 1.01 0 0 0-.979.025A29 29 0 0 1 87.919 6.3c-1.812.71-3.686 1.24-5.58 1.684-.822.193-1.257 1.234-1.201 2.007.027.39.114.842.401 1.13"/><path d="M131.57 12.052c-.129-.272-.335-.6-.672-.63-.356-.029-.586.16-.834.392-1.246 1.17-2.258 2.56-3.495 3.736q-.611.547-1.301.99.213-.451.443-.896a28 28 0 0 1 1.574-2.647c.224-.322.441-.639.588-1.012.205-.52.216-1.222-.005-1.738-.142-.332-.535-.802-.965-.612-.237.105-.379.2-.569.396q-.09.096-.178.194a70 70 0 0 0-1.22 1.403c-.51.603-1.011 1.214-1.511 1.825-.98 1.197-1.96 2.393-3.007 3.531q-.436.475-.888.935.27-.536.524-1.081c.672-1.438 1.281-2.905 1.983-4.329a32 32 0 0 1 .97-1.818c.06-.103.124-.205.182-.309.171-.304.253-.621.336-.96.086-.357.043-.943-.117-1.28-.146-.31-.329-.532-.672-.63-.527-.15-.992.542-1.307.884a848 848 0 0 1-2.005 2.16q-1.482 1.59-2.966 3.176-1.165 1.245-2.328 2.492.396-1.167.778-2.338c.229-.702.463-1.403.682-2.107.246-.79.318-1.816-.253-2.496-.377-.45-1.003-.574-1.494-.217-.465.338-.733.922-1.034 1.402l-.644 1.03q-.603.965-1.208 1.928a115 115 0 0 1-2.224 3.436c-.717 1.045-1.472 2.093-2.39 2.97-.299.262-.62.498-.971.684a3 3 0 0 1-.785.215l.008-.04.029-.107c.114-.399.253-.79.404-1.176q.114-.29.237-.577l.002-.005.148-.326c.706-1.527 1.524-3.004 2.386-4.447q.279-.47.57-.931c.201-.317.275-.727.302-1.091.026-.34.015-.732-.134-1.046-.095-.2-.217-.391-.399-.523-.252-.183-.61-.116-.848.046a154 154 0 0 0-6.25 4.446v-.006l.014-.143a12 12 0 0 1 .155-1.065c.016-.083.059-.257.084-.366.07-.25.143-.498.232-.742q.046-.12.095-.24c.041-.092.114-.256.151-.329q.087-.166.181-.328.47-.596.92-1.21a2.66 2.66 0 0 0 .507-1.182c.061-.388.056-.915-.117-1.28-.129-.273-.335-.602-.672-.63-.346-.03-.601.148-.833.39a9 9 0 0 0-1.166 1.514 40 40 0 0 1-3.475 3.766q-.22.21-.441.418c-.045-.632-.198-1.284-.492-1.833-.34-.635-.82-1.156-1.552-1.307-.635-.132-1.254.1-1.819.36-.569.264-1.081.635-1.563 1.032-1.183.974-2.239 2.085-3.23 3.251.13-.248.262-.497.386-.749.27-.546.43-1.213.276-1.822-.106-.423-.299-.837-.727-1-.677-.255-1.267.433-1.68.88-.502.54-1.013 1.068-1.494 1.628a69 69 0 0 0-1.806 2.213c-.684.867-1.358 1.741-2.031 2.615.45-.953.857-1.939 1.041-2.97.137-.764.124-1.719-.38-2.36-.37-.473-.91-.586-1.477-.47-.306.063-.594.205-.875.332a8 8 0 0 0-.816.435c-.452.27-.89.566-1.318.872a1.1 1.1 0 0 0-.232-.378c-.219-.229-.544-.43-.877-.319a21.3 21.3 0 0 0-6.827 3.773c-1.07.886-2.072 1.837-2.968 2.9-.995 1.183-1.93 2.45-2.537 3.88a6.6 6.6 0 0 0-.486 1.893 422 422 0 0 1-3.092 2.346 271 271 0 0 0 4.216-6.647c.414-.676.83-1.352 1.21-2.048.203-.37.412-.75.55-1.149.233-.672.28-1.587-.224-2.164a.96.96 0 0 0-.911-.334c-.282.04-.5.245-.703.419-.336.288-.617.651-.898.991q-.32.388-.631.78a4.7 4.7 0 0 0-.563-1.072c-.247-.352-.6-.682-.99-.869-1.464-.697-3.039.092-4.24.961-1.16.84-2.202 1.83-3.202 2.854a2 2 0 0 0-.142.12q-.279.269-.582.515c-.3.214-.616.4-.953.547a3.8 3.8 0 0 1-.843.17 4 4 0 0 1-.477-.04 9 9 0 0 0 .005-.369c-.011-1.21-.32-2.56-1.103-3.512a2.13 2.13 0 0 0-1.868-.782c-.385.036-.728.216-1.013.471a.86.86 0 0 0-.431.14 33.8 33.8 0 0 0-5.853 4.983 1 1 0 0 0-.113.11l-.117.135q-.663.722-1.285 1.482c-1.933 2.21-3.922 4.373-6.09 6.355a42 42 0 0 1-2.399 2.037 26 26 0 0 1-3.05 2.031c-.348.195-.61.586-.746.949-.149.398-.207.948-.085 1.362.103.35.281.751.629.92.33.16.675.162 1.002-.02 2.207-1.24 4.209-2.851 6.072-4.555a56 56 0 0 0 1.524-1.452q.033.14.076.28c.341 1.07 1.069 2.024 2.116 2.488 1.037.46 2.186.489 3.277.203 3.01-.788 5.205-3.073 6.787-5.662-.19.891-.269 1.799-.043 2.703.249.998.865 1.968 1.946 2.168.789.146 1.572-.203 2.257-.552 1.004-.512 1.911-1.226 2.757-1.982q-.604.904-1.211 1.806a269 269 0 0 0-4.351 3.37q-2.669.714-5.319 1.49a215 215 0 0 0-5.743 1.77 182 182 0 0 0-10.892 3.898q-2.441.96-4.846 2.006a127 127 0 0 0-4.544 2.083q-2.117 1.02-4.188 2.133a90 90 0 0 0-3.843 2.187q-.9.541-1.785 1.11l.028-.039a873 873 0 0 0 5.063-7.076l3.793-5.344q.09-.062.178-.126a139 139 0 0 0 4.836-3.638 177 177 0 0 0 4.957-4.033 199 199 0 0 0 5.117-4.466 189 189 0 0 0 5.054-4.732 156 156 0 0 0 4.766-4.832 112 112 0 0 0 4.257-4.763 74 74 0 0 0 3.75-4.812c.489-.69.962-1.391 1.41-2.108.56-.897 1.194-1.85 1.475-2.873.22-.799.386-1.684.115-2.494-.126-.374-.278-.737-.568-1.018-.293-.284-.549-.41-.932-.53-.449-.142-.97-.095-1.426-.006-.566.111-1.118.333-1.638.577-1.303.615-2.479 1.493-3.591 2.398-1.103.897-2.15 1.87-3.167 2.862a147 147 0 0 0-6.008 6.23 175 175 0 0 0-5.573 6.443 240 240 0 0 0-5.462 6.887 347 347 0 0 0-5.041 6.771 669 669 0 0 0-3.953 5.503 62 62 0 0 1-3.977 2.596c-.927.549-1.88 1.078-2.881 1.48a4.3 4.3 0 0 1-1.007.258l-.09-.01a.7.7 0 0 0-.359-.041.78.78 0 0 0-.504.132c-.337.188-.627.59-.748.949-.144.428-.215.92-.084 1.362.096.326.282.793.63.92.206.075.397.159.613.174.238.017.483.006.72-.024.344-.044.68-.149 1.006-.267.666-.242 1.31-.532 1.94-.853l-1.199 1.686a621 621 0 0 1-5.074 7.031 383 383 0 0 1-2.617 3.526c-.532.708-1.204 1.423-1.312 2.342-.066.568 0 1.214.405 1.657.263.287.653.42 1.036.345.409-.08.749-.37 1.057-.625a66 66 0 0 1 1.38-1.112 62 62 0 0 1 3.66-2.599 80 80 0 0 1 4.34-2.656 100 100 0 0 1 4.824-2.573 123 123 0 0 1 5.326-2.501 147 147 0 0 1 6.3-2.605q3.48-1.337 7.012-2.53c2.307-.78 4.63-1.514 6.964-2.212a96 96 0 0 0-3.34 3.105c-1.5 1.467-3 2.968-4.264 4.648-1.428 1.898-2.57 4.02-3.065 6.36-.246 1.161-.251 2.485.28 3.573.247.509.618 1.008 1.137 1.26.38.185.783.303 1.205.297.449-.008.864-.06 1.284-.222a7 7 0 0 0 1.28-.632c.76-.49 1.457-1.1 2.09-1.744 1.456-1.483 2.57-3.253 3.692-4.988 2.347-3.63 4.757-7.22 7.175-10.803l2.416-3.576a271 271 0 0 1 7.518-1.79 297 297 0 0 1 9.08-1.872q3.279-.622 6.57-1.176c-.44 1.174-.785 2.392-.838 3.644-.014.326.015.66.08.978.102.493.434 1.037.996 1.01.556-.025.99-.601 1.138-1.098a82 82 0 0 1 1.678-5.035c14.575-2.318 29.299-4.643 44.045-5.222.838-.033 1.349-.568 1.311-1.057-.055-.715-.434-1.188-1.367-1.188-14.178.557-28.28 2.11-42.39 3.73q.272-.498.55-.99a90 90 0 0 1 2.528-4.205c.116.368.267.723.467 1.055.242.401.556.79.996.985.467.207.93.255 1.434.134 1.012-.24 1.868-.976 2.615-1.658.843-.77 1.59-1.646 2.298-2.54a53 53 0 0 0 2.089-2.835c.73-.867 1.508-1.69 2.33-2.478.928-.889 1.876-1.755 2.792-2.654q-.052.75-.042 1.492c-1.37 1.097-2.707 2.241-3.946 3.483-.826.828-1.67 1.742-2.203 2.794-.331.651-.537 1.331-.557 2.066-.016.55.113 1.161.46 1.603.484.614 1.242.648 1.954.575.658-.068 1.302-.291 1.904-.557.805-.355 1.581-.778 2.278-1.317.789-.61 1.472-1.322 1.987-2.178a5.4 5.4 0 0 0 .7-3.567c-.058-.38-.123-.757-.182-1.136q1.293-.979 2.61-1.92l-.07.148c-.428.948-.849 1.914-1.107 2.924-.285 1.116-.518 2.375-.056 3.48.16.383.434.777.82.96.445.211.851.212 1.334.128.727-.126 1.422-.52 1.991-.978.789-.637 1.465-1.4 2.083-2.201.856-1.11 1.631-2.285 2.394-3.46l.268-.42a74 74 0 0 1-1.372 3.56l-.122.29c-.056.132-.241.555.008-.017-.189.435-.326.842-.32 1.325.005.343.085.844.325 1.119.197.225.475.408.792.305.313-.101.592-.362.74-.655.285-.373.616-.72.927-1.066.696-.777 1.404-1.544 2.113-2.31q1.617-1.743 3.241-3.48-.227.444-.468.878c-.224.399-.484.782-.674 1.198-.373.816-.587 1.71-.411 2.608.11.56.403 1.184.928 1.467.545.294 1.084.194 1.613-.073.438-.222.78-.593 1.131-.928a42 42 0 0 0 2.793-2.986c.158.605.549 1.17 1.113 1.455.259.132.558.254.854.268.442.02.754-.075 1.127-.31 1.036-.651 1.934-1.51 2.754-2.412.863-.95 1.671-1.947 2.609-2.828.281-.263.45-.822.507-1.182.061-.387.056-.914-.117-1.28M28.448 25.758l.461-.585a193 193 0 0 1 6.479-7.773 151 151 0 0 1 7.127-7.562c1.328-1.313 2.687-2.612 4.16-3.765.91-.69 1.886-1.342 2.945-1.777.24-.083.485-.152.735-.194a28 28 0 0 1-1.303 2.134 51 51 0 0 1-1.768 2.508q-.477.637-.97 1.262a97 97 0 0 1-4.265 4.982 144 144 0 0 1-5.045 5.24 184 184 0 0 1-5.444 5.17 199 199 0 0 1-8.242 7.116 292 292 0 0 1 5.13-6.757m38.292-1.486a21.4 21.4 0 0 1 3.208-3.414 20.7 20.7 0 0 1 4.618-2.875q.01.111.031.215a21 21 0 0 1-.627 1.558 21 21 0 0 1-1.946 3.282 20 20 0 0 1-3.012 3.19c-.538.442-1.102.869-1.73 1.17a3 3 0 0 1-.665.16 2 2 0 0 1-.4-.063 2 2 0 0 1-.277-.166 2 2 0 0 1-.196-.233 3 3 0 0 1-.11-.234 4 4 0 0 1-.054-.238l-.004-.111q.02-.138.046-.273a6 6 0 0 1 .162-.44c.27-.537.603-1.04.956-1.528m-21.542 4.365a11.6 11.6 0 0 1-1.755 1.746 8.6 8.6 0 0 1-1.776.994 5.8 5.8 0 0 1-1.503.33 3.6 3.6 0 0 1-.926-.134q-.3-.13-.568-.32a3 3 0 0 1-.242-.259 3 3 0 0 1-.103-.192l-.029-.106-.005-.121q.015-.114.038-.226a6 6 0 0 1 .215-.562c.465-.883 1.074-1.696 1.693-2.48q.182-.227.368-.449.458-.526.912-1.055a32.3 32.3 0 0 1 4.086-3.801q.225-.17.45-.334.142.394.337.758c.327.609.76 1.155 1.275 1.61a19 19 0 0 1-.8 1.91 17 17 0 0 1-1.667 2.69m8.127.605c-.667.534-1.378 1.03-2.16 1.377q-.249.095-.513.136a1.4 1.4 0 0 1-.178-.025l-.08-.046-.018-.021-.018-.036-.024-.1a4 4 0 0 1-.007-.225q.032-.225.082-.446.211-.752.53-1.466c.355-.712.782-1.383 1.25-2.025a30 30 0 0 1 2.121-2.454q.351-.284.677-.597c.124-.12.229-.268.316-.428a27 27 0 0 1 1.893-1.752c.537-.426 1.106-.823 1.73-1.109.238-.088.483-.152.736-.18q.17.012.333.05.12.06.231.137.09.093.17.196.057.11.105.222.05.178.082.36.01.147.01.297l-.015.122c-1.811 2.271-3.632 4.548-5.7 6.593-.499.493-1.014.97-1.553 1.42M42.695 50c-.808 1.235-1.58 2.498-2.418 3.712q-.282.408-.577.805c-.667.867-1.397 1.685-2.234 2.393-.413.322-.85.614-1.325.836a3.2 3.2 0 0 1-.758.183 2 2 0 0 1-.38-.056 2 2 0 0 1-.182-.096l-.048-.06a2 2 0 0 1-.061-.127l-.027-.12a4 4 0 0 1-.005-.236q.036-.304.101-.604c.161-.582.37-1.153.617-1.704.445-.9.98-1.751 1.573-2.562 1.201-1.569 2.63-2.977 4.04-4.356a100 100 0 0 1 4.536-4.153q1.258-1.085 2.543-2.14l.272-.22a996 996 0 0 0-3.177 4.734A540 540 0 0 0 42.695 50m20.273-16.382q-3.143.668-6.269 1.41c1.492-1.122 2.986-2.24 4.477-3.363a402 402 0 0 0 2.708-2.055c.433.662.988 1.156 1.78 1.372.817.223 1.678-.062 2.406-.424.587-.293 1.113-.701 1.622-1.112.558-.451 1.102-.92 1.616-1.422.98-.957 1.843-2.018 2.63-3.136a22.3 22.3 0 0 0 3.152-6.56q.62-.468 1.264-.905c.267-.18.54-.356.818-.52-.533 1.153-1.128 2.277-1.727 3.396-.715 1.339-1.443 2.67-2.14 4.019a58 58 0 0 0-1.057 2.134c-.165.355-.282.693-.31 1.09-.024.341-.006.736.153 1.049.103.204.237.394.428.527.27.186.64.122.9-.038.424-.261.803-.604 1.169-.94.38-.348.738-.722 1.086-1.103.872-.954 1.686-1.961 2.489-2.974q.832-1.054 1.65-2.12a140 140 0 0 0-3.465 7.75 60 60 0 0 0-.582 1.156q-.498.08-.995.162-3.516.583-7.018 1.245-3.4.641-6.785 1.362m25.786-11.236q-.36.369-.745.711a5.7 5.7 0 0 1-1.055.715 2 2 0 0 1-.444.12 1 1 0 0 1-.185-.027 1 1 0 0 1-.097-.06q-.066-.073-.124-.153a3 3 0 0 1-.125-.29 7 7 0 0 1-.191-.973l-.014-.155q.31-.448.624-.89a62 62 0 0 1 2.158-2.83 36 36 0 0 1 2.207-2.499q.524-.538 1.089-1.036c.464-.39.959-.756 1.503-1.022.178-.07.363-.123.552-.149q.094.006.184.026.047.025.092.054.032.037.061.075.034.07.063.144.03.114.05.23l.003.144-.02.123a4 4 0 0 1-.07.195c-.253.484-.578.943-.871 1.4q-.56.87-1.143 1.726-.34.495-.69.985c-.867 1.199-1.78 2.374-2.812 3.436m10.57-1.64-.022.046.006-.027c.117-.277.067-.128.015-.018m-.072.142q-.066.126-.14.248-.271.36-.593.673a9 9 0 0 1-2.051 1.358 8 8 0 0 1-1.184.435c.278-.306.568-.602.861-.891q.328-.32.664-.631a55 55 0 0 1 2.313-1.989q.067.398.13.797m25.42-2.987q-.019.054-.04.106c-.127.288-.055.116.04-.106m10.144-10.534c.094-.095.199-.217.328-.36.13-.143.259-.291.4-.45q.204-.24.382-.455.176-.216.299-.376c.082-.1.123-.17.135-.207a.3.3 0 0 0 .018-.095q0-.152-.229-.154-.32 0-.805.175l.006.048q.001.038-.059.196a11 11 0 0 1-.141.413 10 10 0 0 0-.334 1.265m-.47 1.695q.405 0 .81-.27t.775-.747c-.527.184-.908.606-1.233.752l-.082.01q-.327-.001-.452-.391a2.1 2.1 0 0 1-.1-.683q-.001-.748.2-1.488a4 4 0 0 1 .252-.768c.1-.207.188-.329.276-.366l-.006-.042q-.001-.046.059-.085c.053-.037.188-.08.393-.127a4 4 0 0 1 .511-.037q.345.002.629.074c.211.064.364.17.469.318a.56.56 0 0 1 .089.291q0 .47-.723 1.314-.29.325-.675.73l.405-.11a1.8 1.8 0 0 1 .435-.054 10 10 0 0 0 .381-.725c.218-.477.376-.906.464-1.282a2 2 0 0 0 .047-.402q-.035-.418-.299-.583a.85.85 0 0 0-.423-.095c-.194 0-.405.042-.646.127-.288.1-.575.238-.869.424a4 4 0 0 0-.752.593c-.235.233-.399.445-.481.635-.241.704-.376 1.308-.394 1.8q-.001.285.041.483c.059.285.2.487.435.603q.192.102.464.1m.352.604a2.5 2.5 0 0 1-.658-.09 2.1 2.1 0 0 1-.875-.477 1.96 1.96 0 0 1-.563-.922 2.4 2.4 0 0 1-.118-.789c0-.18.012-.376.047-.577q-.054-.013-.1-.037c-.088-.047-.135-.138-.135-.26q0-.299.335-.799.254-.38.658-.768a5 5 0 0 1 .898-.693q.837-.51 1.674-.509c.241 0 .464.016.681.058q.935.174 1.316.641a.8.8 0 0 1 .176.524v.101a8 8 0 0 1-.593 2.325 5 5 0 0 1-.67 1.154q-.873 1.119-2.073 1.117m-5.371 16.712a11.8 11.8 0 0 0-2.538.042c-.32.043-.594.206-.776.4-.204.221-.339.551-.318.824.019.251.093.54.339.729.214.165.496.281.813.24q.692-.09 1.397-.087.271.01.541.032c.326.029.606-.037.851-.2.258-.172.459-.465.51-.722.054-.267.054-.573-.128-.82-.143-.195-.372-.41-.691-.438"/></g><defs><clipPath id="a"><path fill="#fff" d="M0 0h139v62H0z"/></clipPath></defs></svg>