<svg width="84" height="84" viewBox="0 0 84 84" fill="none" xmlns="http://www.w3.org/2000/svg">
<g opacity="0.5" clip-path="url(#clip0_640_27736)">
<path d="M62.3647 25.8018C62.1668 26.3601 61.5537 26.6524 60.9954 26.4546C60.437 26.2567 60.1447 25.6436 60.3426 25.0853C60.5404 24.5269 61.1535 24.2346 61.7119 24.4325C62.2702 24.6303 62.5625 25.2434 62.3647 25.8018Z" fill="white"/>
<path d="M67.24 25.332C67.1103 25.6978 66.7087 25.8892 66.3429 25.7596C65.977 25.63 65.7856 25.2283 65.9152 24.8626C66.0449 24.4967 66.4466 24.3053 66.8123 24.4349C67.1782 24.5644 67.3696 24.9661 67.24 25.332Z" fill="white"/>
<path d="M65.7084 45.0178C65.5057 44.9459 65.2831 45.0521 65.2113 45.2548C65.1395 45.4575 65.2456 45.6801 65.4483 45.7519C65.651 45.8237 65.8736 45.7176 65.9454 45.5149C66.0173 45.3121 65.9111 45.0896 65.7084 45.0178Z" fill="white"/>
<path d="M64.8698 47.3849C64.6671 47.3131 64.4445 47.4192 64.3727 47.622C64.3008 47.8247 64.407 48.0473 64.6097 48.1191C64.7 48.1511 64.7936 48.1461 64.8768 48.1147L65.1 47.6081C65.0599 47.5078 64.9797 47.4239 64.8698 47.3849Z" fill="white"/>
<path d="M65.0762 43.42L64.9279 43.3675C64.7486 43.3425 64.5704 43.4459 64.5075 43.6233C64.4357 43.826 64.5418 44.0486 64.7445 44.1204C64.9473 44.1923 65.1699 44.0861 65.2417 43.8834C65.3045 43.7061 65.2312 43.5135 65.0762 43.42Z" fill="white"/>
<path d="M63.0815 44.914C63.2842 44.9858 63.5068 44.8797 63.5786 44.677C63.6505 44.4742 63.5443 44.2517 63.3416 44.1799C63.1389 44.108 62.9163 44.2142 62.8445 44.4169C62.7725 44.6195 62.8787 44.8421 63.0815 44.914Z" fill="white"/>
<path d="M64.166 45.7531C63.9633 45.6813 63.7407 45.7874 63.6689 45.9901C63.5971 46.1928 63.7032 46.4154 63.9059 46.4873C64.1086 46.5591 64.3312 46.453 64.403 46.2503C64.4749 46.0474 64.3688 45.8249 64.166 45.7531Z" fill="white"/>
<path d="M62.2429 47.2802C62.4456 47.3521 62.6682 47.2459 62.74 47.0432C62.8118 46.8405 62.7057 46.6179 62.503 46.5461C62.3003 46.4743 62.0777 46.5804 62.0059 46.7831C61.934 46.9858 62.04 47.2084 62.2429 47.2802Z" fill="white"/>
<path d="M63.3274 48.1203C63.1247 48.0485 62.9021 48.1546 62.8303 48.3573C62.7584 48.56 62.8646 48.7826 63.0673 48.8545C63.27 48.9263 63.4926 48.8202 63.5644 48.6174C63.6363 48.4147 63.5301 48.1921 63.3274 48.1203Z" fill="white"/>
<path d="M61.4042 49.6475C61.6069 49.7194 61.8295 49.6132 61.9014 49.4104C61.9732 49.2077 61.8671 48.9851 61.6644 48.9133C61.4616 48.8414 61.239 48.9476 61.1672 49.1503C61.0952 49.3531 61.2013 49.5757 61.4042 49.6475Z" fill="white"/>
<path d="M62.4888 50.4875C62.286 50.4157 62.0634 50.5218 61.9916 50.7245C61.9197 50.9273 62.0259 51.1499 62.2286 51.2218C62.4313 51.2936 62.6539 51.1875 62.7258 50.9846C62.7976 50.7819 62.6915 50.5593 62.4888 50.4875Z" fill="white"/>
<path d="M60.5655 52.0137C60.7682 52.0856 60.9908 51.9795 61.0627 51.7766C61.1345 51.5739 61.0284 51.3513 60.8257 51.2795C60.623 51.2077 60.4004 51.3138 60.3286 51.5165C60.2566 51.7193 60.3627 51.9419 60.5655 52.0137Z" fill="white"/>
<path d="M61.6501 52.8537C61.4474 52.7819 61.2248 52.888 61.153 53.0907C61.0811 53.2935 61.1872 53.5161 61.3899 53.588C61.5926 53.6598 61.8152 53.5537 61.8871 53.3508C61.9589 53.1481 61.8528 52.9255 61.6501 52.8537Z" fill="white"/>
<path d="M59.7269 54.3809C59.9296 54.4528 60.1522 54.3466 60.224 54.1439C60.2959 53.9411 60.1898 53.7185 59.9871 53.6467C59.7844 53.5748 59.5618 53.681 59.4899 53.8838C59.4179 54.0865 59.5241 54.3091 59.7269 54.3809Z" fill="white"/>
<path d="M60.8115 55.2209C60.6088 55.1491 60.3862 55.2552 60.3143 55.4579C60.2425 55.6606 60.3486 55.8832 60.5514 55.955C60.7541 56.0269 60.9767 55.9207 61.0485 55.718C61.1203 55.5153 61.0142 55.2927 60.8115 55.2209Z" fill="white"/>
<path d="M58.8883 56.748C59.091 56.8198 59.3136 56.7137 59.3854 56.511C59.4572 56.3083 59.3511 56.0857 59.1484 56.0139C58.9457 55.942 58.7231 56.0481 58.6513 56.2509C58.5794 56.4536 58.6855 56.6762 58.8883 56.748Z" fill="white"/>
<path d="M59.9728 57.5871C59.7701 57.5153 59.5475 57.6214 59.4757 57.8241C59.4039 58.0268 59.51 58.2494 59.7127 58.3212C59.9154 58.3931 60.138 58.287 60.2098 58.0842C60.2817 57.8815 60.1755 57.6589 59.9728 57.5871Z" fill="white"/>
<path d="M58.0496 59.1142C58.2523 59.186 58.4749 59.0799 58.5468 58.8772C58.6186 58.6744 58.5125 58.4519 58.3097 58.3801C58.107 58.3082 57.8844 58.4144 57.8126 58.6171C57.7407 58.8197 57.8468 59.0423 58.0496 59.1142Z" fill="white"/>
<path d="M59.1342 59.9543C58.9315 59.8825 58.7089 59.9886 58.6371 60.1913C58.5652 60.3941 58.6714 60.6166 58.8741 60.6884C59.0768 60.7603 59.2994 60.6541 59.3712 60.4514C59.443 60.2487 59.3369 60.0261 59.1342 59.9543Z" fill="white"/>
<path d="M57.2109 61.4815C57.4136 61.5534 57.6362 61.4472 57.7081 61.2444C57.7799 61.0417 57.6738 60.8191 57.4711 60.7473C57.2684 60.6754 57.0458 60.7815 56.974 60.9843C56.902 61.1869 57.0081 61.4097 57.2109 61.4815Z" fill="white"/>
<path d="M58.2955 62.3215C58.0928 62.2496 57.8702 62.3558 57.7984 62.5585C57.7265 62.7613 57.8326 62.9839 58.0353 63.0557C58.1223 63.0865 58.2123 63.083 58.2931 63.0547L58.522 62.535C58.4807 62.4389 58.4019 62.3592 58.2955 62.3215Z" fill="white"/>
<path d="M56.3723 63.8487C56.575 63.9205 56.7976 63.8144 56.8695 63.6116C56.9413 63.4089 56.8352 63.1863 56.6325 63.1144C56.4298 63.0426 56.2072 63.1487 56.1353 63.3515C56.0634 63.5541 56.1695 63.7768 56.3723 63.8487Z" fill="white"/>
<path d="M55.5336 66.2149C55.7364 66.2867 55.9589 66.1806 56.0308 65.9779C56.1026 65.7751 55.9965 65.5525 55.7938 65.4807C55.5911 65.4088 55.3685 65.5149 55.2966 65.7178C55.2247 65.9205 55.3308 66.143 55.5336 66.2149Z" fill="white"/>
<path d="M54.695 68.582C54.8977 68.6538 55.1203 68.5477 55.1921 68.345C55.264 68.1421 55.1578 67.9197 54.9551 67.8478C54.7524 67.776 54.5298 67.8821 54.458 68.0848C54.386 68.2875 54.4922 68.5101 54.695 68.582Z" fill="white"/>
<path d="M53.8563 70.9492C54.0591 71.021 54.2816 70.9149 54.3535 70.7122C54.4253 70.5094 54.3192 70.2869 54.1165 70.215C53.9137 70.1432 53.6912 70.2493 53.6193 70.452C53.5475 70.6548 53.6536 70.8773 53.8563 70.9492Z" fill="white"/>
<path d="M53.0177 73.3155C53.2204 73.3873 53.443 73.2812 53.5149 73.0784C53.5867 72.8757 53.4806 72.6531 53.2779 72.5812C53.0752 72.5094 52.8526 72.6155 52.7807 72.8182C52.7088 73.021 52.8149 73.2436 53.0177 73.3155Z" fill="white"/>
<path d="M62.7094 42.5821L62.5611 42.5296C62.3818 42.5046 62.2036 42.6081 62.1407 42.7854C62.0689 42.9881 62.175 43.2107 62.3778 43.2825C62.5805 43.3544 62.8031 43.2483 62.8749 43.0455C62.9377 42.8682 62.8644 42.6756 62.7094 42.5821Z" fill="white"/>
<path d="M60.9748 43.341C60.7721 43.2692 60.5495 43.3753 60.4777 43.578C60.4059 43.7807 60.512 44.0033 60.7147 44.0752C60.9174 44.147 61.14 44.0409 61.2119 43.8381C61.2837 43.6353 61.1776 43.4128 60.9748 43.341Z" fill="white"/>
<path d="M61.5391 45.6494C61.7418 45.7212 61.9644 45.6151 62.0363 45.4124C62.1081 45.2096 62.002 44.9871 61.7992 44.9152C61.5965 44.8434 61.3739 44.9495 61.3021 45.1522C61.2303 45.355 61.3364 45.5775 61.5391 45.6494Z" fill="white"/>
<path d="M60.1362 45.7082C59.9335 45.6364 59.7109 45.7425 59.6391 45.9452C59.5672 46.1479 59.6733 46.3705 59.8761 46.4423C60.0788 46.5142 60.3014 46.408 60.3732 46.2053C60.445 46.0026 60.3389 45.78 60.1362 45.7082Z" fill="white"/>
<path d="M60.9606 47.2814C60.7579 47.2096 60.5353 47.3157 60.4635 47.5184C60.3916 47.7212 60.4977 47.9438 60.7005 48.0156C60.9032 48.0874 61.1258 47.9813 61.1976 47.7786C61.2694 47.5759 61.1633 47.3533 60.9606 47.2814Z" fill="white"/>
<path d="M59.2976 48.0744C59.0949 48.0026 58.8723 48.1087 58.8004 48.3114C58.7286 48.5142 58.8347 48.7368 59.0374 48.8087C59.2401 48.8805 59.4627 48.7744 59.5346 48.5715C59.6064 48.3688 59.5003 48.1462 59.2976 48.0744Z" fill="white"/>
<path d="M60.122 49.6486C59.9193 49.5768 59.6967 49.6829 59.6248 49.8856C59.553 50.0885 59.6591 50.3111 59.8618 50.3829C60.0645 50.4547 60.2871 50.3486 60.359 50.1458C60.4308 49.9431 60.3247 49.7205 60.122 49.6486Z" fill="white"/>
<path d="M58.4589 50.4416C58.2562 50.3698 58.0336 50.4759 57.9618 50.6786C57.8899 50.8814 57.996 51.104 58.1987 51.1759C58.4015 51.2477 58.624 51.1416 58.6959 50.9387C58.7677 50.736 58.6616 50.5134 58.4589 50.4416Z" fill="white"/>
<path d="M59.2833 52.0148C59.0806 51.943 58.858 52.0491 58.7862 52.2518C58.7143 52.4547 58.8204 52.6773 59.0231 52.7491C59.2259 52.8209 59.4485 52.7148 59.5203 52.512C59.5922 52.3093 59.486 52.0867 59.2833 52.0148Z" fill="white"/>
<path d="M57.6203 52.8078C57.4175 52.736 57.1949 52.8421 57.1231 53.0449C57.0512 53.2476 57.1574 53.4702 57.3601 53.5421C57.5628 53.6139 57.7854 53.5078 57.8572 53.3051C57.9291 53.1022 57.823 52.8796 57.6203 52.8078Z" fill="white"/>
<path d="M58.4447 54.382C58.242 54.3102 58.0194 54.4163 57.9475 54.619C57.8757 54.8217 57.9818 55.0443 58.1845 55.1162C58.3872 55.188 58.6098 55.0819 58.6817 54.8792C58.7535 54.6764 58.6474 54.4538 58.4447 54.382Z" fill="white"/>
<path d="M56.7816 55.175C56.5789 55.1032 56.3563 55.2093 56.2845 55.412C56.2127 55.6147 56.3188 55.8373 56.5215 55.9091C56.7242 55.981 56.9468 55.8748 57.0186 55.6721C57.0905 55.4694 56.9844 55.2468 56.7816 55.175Z" fill="black"/>
<path d="M57.3458 57.4834C57.5486 57.5552 57.7712 57.4491 57.843 57.2464C57.9148 57.0436 57.8087 56.821 57.606 56.7492C57.4033 56.6774 57.1807 56.7835 57.1088 56.9862C57.037 57.1889 57.1431 57.4115 57.3458 57.4834Z" fill="black"/>
<path d="M55.943 57.5422C55.7403 57.4703 55.5177 57.5765 55.4458 57.7792C55.374 57.982 55.4801 58.2045 55.6828 58.2763C55.8856 58.3482 56.1082 58.242 56.18 58.0393C56.2518 57.8366 56.1457 57.614 55.943 57.5422Z" fill="black"/>
<path d="M56.5072 59.8496C56.71 59.9214 56.9325 59.8153 57.0044 59.6126C57.0762 59.4098 56.9701 59.1873 56.7674 59.1154C56.5646 59.0436 56.3421 59.1497 56.2702 59.3524C56.1984 59.5552 56.3045 59.7777 56.5072 59.8496Z" fill="black"/>
<path d="M55.1043 59.9084C54.9016 59.8366 54.679 59.9427 54.6072 60.1454C54.5353 60.3482 54.6414 60.5708 54.8441 60.6427C55.0468 60.7145 55.2694 60.6084 55.3413 60.4055C55.4131 60.2028 55.307 59.9802 55.1043 59.9084Z" fill="black"/>
<path d="M55.9287 61.4826C55.726 61.4108 55.5034 61.5169 55.4316 61.7196C55.3597 61.9224 55.4658 62.145 55.6685 62.2169C55.8712 62.2887 56.0938 62.1826 56.1657 61.9797C56.2375 61.777 56.1314 61.5544 55.9287 61.4826Z" fill="black"/>
<path d="M54.2656 62.2756C54.0629 62.2037 53.8403 62.3099 53.7685 62.5126C53.6966 62.7154 53.8028 62.938 54.0055 63.0098C54.2082 63.0817 54.4308 62.9756 54.5027 62.7727C54.5745 62.57 54.4684 62.3474 54.2656 62.2756Z" fill="black"/>
<path d="M55.0901 63.8498C54.8874 63.778 54.6648 63.8841 54.5929 64.0868C54.5211 64.2896 54.6272 64.5122 54.8299 64.5841C55.0326 64.6559 55.2552 64.5498 55.3271 64.3469C55.3989 64.1442 55.2928 63.9216 55.0901 63.8498Z" fill="black"/>
<path d="M53.427 64.6418C53.2243 64.57 53.0017 64.6761 52.9298 64.8789C52.858 65.0816 52.9641 65.3042 53.1668 65.3761C53.3696 65.4479 53.5922 65.3418 53.664 65.139C53.7359 64.9362 53.6297 64.7136 53.427 64.6418Z" fill="black"/>
<path d="M53.9913 66.9502C54.194 67.022 54.4166 66.9159 54.4884 66.7131C54.5603 66.5104 54.4542 66.2878 54.2514 66.216C54.0487 66.1442 53.8261 66.2503 53.7543 66.453C53.6825 66.6557 53.7886 66.8783 53.9913 66.9502Z" fill="black"/>
<path d="M52.5884 67.009C52.3857 66.9371 52.1631 67.0433 52.0912 67.246C52.0194 67.4487 52.1255 67.6713 52.3282 67.7431C52.5309 67.815 52.7535 67.7088 52.8254 67.5061C52.8972 67.3034 52.7911 67.0808 52.5884 67.009Z" fill="black"/>
<path d="M53.4128 68.5832C53.2101 68.5114 52.9875 68.6175 52.9156 68.8202C52.8438 69.0229 52.9499 69.2455 53.1526 69.3173C53.3554 69.3892 53.578 69.283 53.6498 69.0803C53.7216 68.8776 53.6155 68.655 53.4128 68.5832Z" fill="black"/>
<path d="M51.7497 69.3762C51.547 69.3043 51.3244 69.4105 51.2526 69.6132C51.1807 69.816 51.2869 70.0385 51.4896 70.1103C51.6923 70.1821 51.9149 70.076 51.9867 69.8733C52.0586 69.6706 51.9524 69.448 51.7497 69.3762Z" fill="black"/>
<path d="M52.5742 70.9494C52.3714 70.8776 52.1488 70.9837 52.077 71.1864C52.0051 71.3892 52.1113 71.6117 52.314 71.6836C52.5167 71.7554 52.7393 71.6493 52.8112 71.4465C52.883 71.2438 52.7769 71.0212 52.5742 70.9494Z" fill="black"/>
<path d="M50.9111 71.7424C50.7084 71.6705 50.4858 71.7767 50.414 71.9794C50.3421 72.1822 50.4482 72.4048 50.6509 72.4766C50.8536 72.5485 51.0762 72.4423 51.1481 72.2395C51.2199 72.0368 51.1138 71.8142 50.9111 71.7424Z" fill="black"/>
<path d="M51.7355 73.3166C51.5328 73.2448 51.3102 73.3509 51.2384 73.5536C51.1665 73.7564 51.2726 73.979 51.4753 74.0509C51.678 74.1227 51.9006 74.0166 51.9725 73.8137C52.0443 73.6111 51.9382 73.3884 51.7355 73.3166Z" fill="black"/>
<path d="M50.0724 74.1096C49.8697 74.0377 49.6471 74.1438 49.5753 74.3466C49.5034 74.5494 49.6095 74.772 49.8123 74.8438C50.015 74.9157 50.2376 74.8095 50.3094 74.6067C50.3812 74.4041 50.2752 74.1814 50.0724 74.1096Z" fill="black"/>
<path d="M50.8968 75.6838C50.6941 75.6119 50.4715 75.7181 50.3997 75.9208C50.3278 76.1236 50.434 76.3462 50.6367 76.418C50.6466 76.4216 50.6567 76.4227 50.6667 76.4253C50.827 76.3462 50.9834 76.2604 51.1366 76.1697C51.2008 75.9701 51.0958 75.7543 50.8968 75.6838Z" fill="white"/>
<path d="M60.3425 41.7433L60.1941 41.6907C60.0148 41.6657 59.8367 41.7692 59.7738 41.9465C59.702 42.1492 59.8081 42.3718 60.0108 42.4437C60.2136 42.5155 60.4362 42.4094 60.508 42.2067C60.5709 42.0294 60.4976 41.8368 60.3425 41.7433Z" fill="white"/>
<path d="M58.6079 42.5021C58.4052 42.4303 58.1826 42.5364 58.1108 42.7391C58.0389 42.9419 58.1451 43.1645 58.3478 43.2363C58.5505 43.3081 58.7732 43.202 58.845 42.9993C58.9169 42.7965 58.8107 42.574 58.6079 42.5021Z" fill="white"/>
<path d="M59.4325 44.0764C59.2297 44.0045 59.0071 44.1106 58.9353 44.3134C58.8635 44.5161 58.9696 44.7387 59.1723 44.8105C59.375 44.8823 59.5976 44.7762 59.6695 44.5735C59.7413 44.3707 59.6352 44.1482 59.4325 44.0764Z" fill="white"/>
<path d="M57.7693 44.8693C57.5666 44.7975 57.344 44.9036 57.2721 45.1063C57.2003 45.309 57.3064 45.5316 57.5091 45.6035C57.7119 45.6753 57.9346 45.5692 58.0064 45.3665C58.0782 45.1638 57.9721 44.9412 57.7693 44.8693Z" fill="white"/>
<path d="M58.5938 46.4426C58.3911 46.3707 58.1685 46.4769 58.0967 46.6796C58.0248 46.8823 58.131 47.1049 58.3337 47.1767C58.5364 47.2485 58.759 47.1424 58.8308 46.9397C58.9026 46.737 58.7965 46.5144 58.5938 46.4426Z" fill="white"/>
<path d="M56.9306 47.2355C56.7279 47.1637 56.5053 47.2698 56.4335 47.4725C56.3616 47.6754 56.4677 47.898 56.6704 47.9698C56.8732 48.0416 57.0959 47.9356 57.1678 47.7327C57.2396 47.53 57.1335 47.3074 56.9306 47.2355Z" fill="white"/>
<path d="M57.7552 48.8098C57.5524 48.7379 57.3298 48.844 57.258 49.0468C57.1861 49.2496 57.2923 49.4722 57.495 49.544C57.6977 49.6159 57.9203 49.5097 57.9922 49.3069C58.064 49.1042 57.9579 48.8816 57.7552 48.8098Z" fill="white"/>
<path d="M56.092 49.6027C55.8893 49.5309 55.6667 49.637 55.5949 49.8397C55.523 50.0426 55.6291 50.2652 55.8318 50.337C56.0345 50.4088 56.2573 50.3027 56.3291 50.0999C56.401 49.8972 56.2948 49.6746 56.092 49.6027Z" fill="white"/>
<path d="M56.9165 51.1769C56.7138 51.1051 56.4912 51.2112 56.4194 51.4139C56.3475 51.6168 56.4536 51.8394 56.6564 51.9112C56.8591 51.983 57.0817 51.8769 57.1535 51.6741C57.2254 51.4714 57.1192 51.2488 56.9165 51.1769Z" fill="white"/>
<path d="M55.2533 51.9699C55.0506 51.8981 54.828 52.0042 54.7562 52.207C54.6843 52.4098 54.7905 52.6323 54.9932 52.7042C55.1959 52.776 55.4186 52.6699 55.4904 52.4672C55.5623 52.2644 55.4562 52.0418 55.2533 51.9699Z" fill="white"/>
<path d="M56.0779 53.5432C55.8752 53.4713 55.6526 53.5774 55.5807 53.7802C55.5089 53.9829 55.615 54.2055 55.8177 54.2773C56.0205 54.3491 56.2431 54.243 56.3149 54.0403C56.3867 53.8376 56.2806 53.615 56.0779 53.5432Z" fill="white"/>
<path d="M54.4147 54.3361C54.212 54.2643 53.9894 54.3704 53.9176 54.5731C53.8457 54.7758 53.9518 54.9984 54.1546 55.0703C54.3573 55.1421 54.58 55.036 54.6518 54.8333C54.7237 54.6306 54.6175 54.408 54.4147 54.3361Z" fill="white"/>
<path d="M55.2392 55.9103C55.0365 55.8385 54.8139 55.9446 54.7421 56.1473C54.6703 56.3501 54.7764 56.5727 54.9791 56.6445C55.1818 56.7163 55.4044 56.6102 55.4762 56.4075C55.5481 56.2048 55.4419 55.9822 55.2392 55.9103Z" fill="white"/>
<path d="M53.5761 56.7033C53.3734 56.6315 53.1508 56.7376 53.0789 56.9403C53.0071 57.1432 53.1132 57.3656 53.3159 57.4375C53.5186 57.5093 53.7414 57.4032 53.8132 57.2005C53.885 56.9978 53.7789 56.7752 53.5761 56.7033Z" fill="white"/>
<path d="M54.4006 58.2775C54.1979 58.2057 53.9753 58.3118 53.9035 58.5145C53.8316 58.7174 53.9377 58.9398 54.1405 59.0117C54.3432 59.0835 54.5658 58.9774 54.6376 58.7747C54.7094 58.572 54.6033 58.3494 54.4006 58.2775Z" fill="white"/>
<path d="M52.7374 59.0695C52.5347 58.9977 52.3121 59.1038 52.2402 59.3065C52.1684 59.5094 52.2745 59.732 52.4772 59.8038C52.6799 59.8756 52.9026 59.7695 52.9745 59.5667C53.0463 59.364 52.9402 59.1414 52.7374 59.0695Z" fill="white"/>
<path d="M53.5619 60.6437C53.3592 60.5719 53.1366 60.678 53.0648 60.8807C52.9929 61.0836 53.099 61.3062 53.3017 61.378C53.5045 61.4498 53.727 61.3437 53.7989 61.1409C53.8707 60.9382 53.7646 60.7156 53.5619 60.6437Z" fill="white"/>
<path d="M51.8987 61.4367C51.696 61.3649 51.4734 61.471 51.4016 61.6737C51.3297 61.8766 51.4358 62.0991 51.6386 62.171C51.8413 62.2428 52.064 62.1367 52.1359 61.9339C52.2077 61.7312 52.1016 61.5086 51.8987 61.4367Z" fill="white"/>
<path d="M52.7233 63.0109C52.5205 62.9391 52.2979 63.0452 52.2261 63.2479C52.1542 63.4508 52.2604 63.6734 52.4631 63.7452C52.6658 63.817 52.8884 63.7109 52.9603 63.5081C53.0321 63.3054 52.926 63.0828 52.7233 63.0109Z" fill="white"/>
<path d="M51.0601 63.8039C50.8574 63.7321 50.6348 63.8382 50.5629 64.041C50.4911 64.2437 50.5972 64.4663 50.7999 64.5382C51.0026 64.61 51.2253 64.5039 51.2972 64.3012C51.369 64.0984 51.2629 63.8758 51.0601 63.8039Z" fill="white"/>
<path d="M51.8846 65.3771C51.6819 65.3053 51.4593 65.4114 51.3875 65.6141C51.3157 65.8169 51.4218 66.0395 51.6245 66.1113C51.8272 66.1831 52.0498 66.077 52.1216 65.8743C52.1935 65.6716 52.0874 65.449 51.8846 65.3771Z" fill="white"/>
<path d="M50.2215 66.1701C50.0187 66.0983 49.7961 66.2044 49.7243 66.4071C49.6525 66.6098 49.7586 66.8324 49.9613 66.9043C50.164 66.9761 50.3868 66.87 50.4586 66.6673C50.5304 66.4646 50.4243 66.242 50.2215 66.1701Z" fill="white"/>
<path d="M51.046 67.7443C50.8433 67.6725 50.6207 67.7786 50.5488 67.9813C50.477 68.184 50.5831 68.4066 50.7858 68.4785C50.9886 68.5503 51.2112 68.4442 51.283 68.2415C51.3548 68.0388 51.2487 67.8162 51.046 67.7443Z" fill="white"/>
<path d="M49.3828 68.5373C49.1801 68.4655 48.9575 68.5716 48.8857 68.7743C48.8138 68.9771 48.92 69.1996 49.1227 69.2714C49.3254 69.3433 49.5481 69.2372 49.6199 69.0345C49.6918 68.8318 49.5856 68.6092 49.3828 68.5373Z" fill="white"/>
<path d="M50.2073 70.1115C50.0046 70.0397 49.782 70.1458 49.7102 70.3485C49.6383 70.5514 49.7445 70.7738 49.9472 70.8457C50.1499 70.9175 50.3725 70.8114 50.4443 70.6087C50.5162 70.4059 50.41 70.1833 50.2073 70.1115Z" fill="white"/>
<path d="M48.5441 70.9035C48.3414 70.8317 48.1188 70.9378 48.047 71.1405C47.9751 71.3433 48.0813 71.5659 48.284 71.6378C48.4867 71.7096 48.7094 71.6035 48.7813 71.4007C48.8531 71.198 48.747 70.9754 48.5441 70.9035Z" fill="white"/>
<path d="M49.3687 72.4777C49.166 72.4059 48.9434 72.512 48.8716 72.7147C48.7997 72.9176 48.9058 73.1402 49.1085 73.212C49.3112 73.2838 49.5338 73.1777 49.6057 72.9749C49.6775 72.7723 49.5714 72.5496 49.3687 72.4777Z" fill="white"/>
<path d="M47.7055 73.2707C47.5028 73.1989 47.2802 73.305 47.2084 73.5077C47.1365 73.7105 47.2426 73.9331 47.4453 74.005C47.6481 74.0768 47.8708 73.9707 47.9427 73.7679C48.0144 73.5653 47.9084 73.3426 47.7055 73.2707Z" fill="black"/>
<path d="M48.5301 74.8449C48.3273 74.7731 48.1047 74.8792 48.0329 75.0819C47.961 75.2848 48.0672 75.5074 48.2699 75.5792C48.4726 75.651 48.6952 75.5449 48.7671 75.3421C48.8388 75.1395 48.7328 74.9167 48.5301 74.8449Z" fill="black"/>
<path d="M46.8669 75.6379C46.6642 75.5661 46.4416 75.6722 46.3697 75.875C46.2979 76.0777 46.404 76.3003 46.6067 76.3721C46.8094 76.444 47.0321 76.3379 47.104 76.1352C47.1758 75.9325 47.0697 75.7098 46.8669 75.6379Z" fill="black"/>
<path d="M57.0655 43.2375C56.8628 43.1657 56.6402 43.2718 56.5684 43.4745C56.4965 43.6772 56.6027 43.8998 56.8054 43.9716C57.0081 44.0435 57.2308 43.9374 57.3026 43.7347C57.3745 43.5318 57.2683 43.3094 57.0655 43.2375Z" fill="black"/>
<path d="M56.2269 45.6047C56.0242 45.5328 55.8016 45.639 55.7297 45.8417C55.6579 46.0444 55.764 46.267 55.9668 46.3388C56.1695 46.4107 56.3922 46.3046 56.464 46.1019C56.5358 45.8991 56.4297 45.6765 56.2269 45.6047Z" fill="black"/>
<path d="M55.3882 47.9709C55.1855 47.8991 54.9629 48.0052 54.8911 48.2079C54.8192 48.4107 54.9253 48.6333 55.1281 48.7052C55.3308 48.777 55.5535 48.6709 55.6254 48.4681C55.6972 48.2654 55.5911 48.0428 55.3882 47.9709Z" fill="black"/>
<path d="M54.5496 50.3381C54.3469 50.2662 54.1243 50.3724 54.0524 50.5751C53.9806 50.7779 54.0867 51.0005 54.2894 51.0723C54.4921 51.1442 54.7148 51.0381 54.7867 50.8353C54.8585 50.6325 54.7524 50.4099 54.5496 50.3381Z" fill="black"/>
<path d="M53.711 52.7043C53.5082 52.6325 53.2856 52.7386 53.2138 52.9413C53.142 53.144 53.2481 53.3666 53.4508 53.4384C53.6535 53.5103 53.8763 53.4042 53.9481 53.2015C54.0199 52.9988 53.9138 52.7762 53.711 52.7043Z" fill="black"/>
<path d="M52.8723 55.0715C52.6696 54.9996 52.447 55.1058 52.3752 55.3085C52.3033 55.5112 52.4095 55.7338 52.6122 55.8056C52.8149 55.8774 53.0376 55.7714 53.1094 55.5687C53.1813 55.3659 53.0751 55.1433 52.8723 55.0715Z" fill="black"/>
<path d="M52.0337 57.4387C51.8309 57.3668 51.6083 57.473 51.5365 57.6757C51.4646 57.8785 51.5708 58.101 51.7735 58.1728C51.9762 58.2446 52.199 58.1386 52.2708 57.9358C52.3426 57.7331 52.2365 57.5105 52.0337 57.4387Z" fill="black"/>
<path d="M50.3706 58.2316C50.1679 58.1598 49.9453 58.2659 49.8734 58.4686C49.8016 58.6715 49.9077 58.8941 50.1104 58.9659C50.3131 59.0377 50.5357 58.9316 50.6076 58.7288C50.6795 58.5261 50.5734 58.3035 50.3706 58.2316Z" fill="black"/>
<path d="M51.195 59.8049C50.9923 59.733 50.7697 59.8392 50.6978 60.0419C50.626 60.2447 50.7321 60.4673 50.9348 60.5391C51.1375 60.611 51.3602 60.5049 51.4321 60.3021C51.5039 60.0993 51.3978 59.8767 51.195 59.8049Z" fill="black"/>
<path d="M49.5319 60.5978C49.3292 60.526 49.1066 60.6321 49.0348 60.8348C48.9629 61.0377 49.0691 61.2603 49.2718 61.3321C49.4745 61.4039 49.6971 61.2978 49.7689 61.095C49.8409 60.8923 49.7348 60.6697 49.5319 60.5978Z" fill="black"/>
<path d="M50.3563 62.1721C50.1536 62.1002 49.931 62.2063 49.8592 62.4091C49.7873 62.6119 49.8935 62.8345 50.0962 62.9063C50.2989 62.9782 50.5216 62.8721 50.5935 62.6692C50.6653 62.4665 50.5592 62.2439 50.3563 62.1721Z" fill="black"/>
<path d="M48.6933 62.965C48.4906 62.8932 48.268 62.9993 48.1961 63.2022C48.1243 63.4049 48.2304 63.6275 48.4331 63.6993C48.6358 63.7711 48.8584 63.665 48.9303 63.4623C49.0022 63.2595 48.8961 63.0369 48.6933 62.965Z" fill="black"/>
<path d="M49.5177 64.5392C49.315 64.4674 49.0924 64.5735 49.0206 64.7763C48.9487 64.979 49.0548 65.2016 49.2576 65.2734C49.4603 65.3452 49.683 65.2391 49.7548 65.0364C49.8266 64.8337 49.7205 64.6111 49.5177 64.5392Z" fill="black"/>
<path d="M47.8546 65.3322C47.6519 65.2604 47.4293 65.3665 47.3575 65.5692C47.2857 65.7719 47.3918 65.9945 47.5945 66.0664C47.7972 66.1382 48.0198 66.0321 48.0916 65.8294C48.1636 65.6267 48.0575 65.4041 47.8546 65.3322Z" fill="black"/>
<path d="M48.679 66.9055C48.4763 66.8336 48.2537 66.9398 48.1819 67.1425C48.1101 67.3452 48.2162 67.5678 48.4189 67.6396C48.6216 67.7114 48.8443 67.6054 48.9162 67.4026C48.988 67.1999 48.8819 66.9773 48.679 66.9055Z" fill="black"/>
<path d="M46.7558 68.4326C46.9585 68.5044 47.1811 68.3983 47.253 68.1956C47.3248 67.9928 47.2187 67.7703 47.016 67.6984C46.8132 67.6266 46.5906 67.7327 46.5188 67.9354C46.447 68.1382 46.5531 68.3607 46.7558 68.4326Z" fill="black"/>
<path d="M47.8404 69.2726C47.6377 69.2008 47.4151 69.3069 47.3433 69.5097C47.2714 69.7125 47.3776 69.935 47.5803 70.0068C47.783 70.0786 48.0057 69.9725 48.0775 69.7698C48.1494 69.5671 48.0433 69.3445 47.8404 69.2726Z" fill="black"/>
<path d="M46.1774 70.0656C45.9746 69.9938 45.752 70.0999 45.6802 70.3026C45.6083 70.5055 45.7145 70.7281 45.9172 70.7999C46.1199 70.8717 46.3425 70.7656 46.4144 70.5628C46.4863 70.3601 46.3802 70.1375 46.1774 70.0656Z" fill="black"/>
<path d="M47.0018 71.6389C46.799 71.567 46.5764 71.6731 46.5046 71.8759C46.4327 72.0787 46.5389 72.3013 46.7416 72.3731C46.9443 72.445 47.167 72.3389 47.2389 72.136C47.3107 71.9334 47.2046 71.7107 47.0018 71.6389Z" fill="black"/>
<path d="M45.3387 72.4318C45.136 72.36 44.9134 72.4661 44.8416 72.6688C44.7697 72.8717 44.8758 73.0943 45.0785 73.1661C45.2812 73.2379 45.5038 73.1318 45.5757 72.929C45.6476 72.7264 45.5415 72.5037 45.3387 72.4318Z" fill="black"/>
<path d="M46.1631 74.006C45.9604 73.9342 45.7378 74.0403 45.666 74.2431C45.5941 74.4459 45.7002 74.6685 45.903 74.7403C46.1057 74.8121 46.3284 74.7061 46.4003 74.5032C46.4721 74.3006 46.366 74.0779 46.1631 74.006Z" fill="black"/>
<path d="M44.5001 74.799C44.2974 74.7272 44.0748 74.8333 44.0029 75.0361C43.9311 75.2389 44.0372 75.4615 44.2399 75.5333C44.4426 75.6051 44.6652 75.499 44.737 75.2963C44.809 75.0936 44.7029 74.8709 44.5001 74.799Z" fill="black"/>
<path d="M49.1407 39.1477C48.938 39.0759 48.7153 39.1819 48.6434 39.3847C48.5716 39.5874 48.6777 39.81 48.8806 39.8818C49.0833 39.9537 49.3059 39.8475 49.3777 39.6448C49.4496 39.442 49.3434 39.2195 49.1407 39.1477Z" fill="black"/>
<path d="M48.3021 41.5149C48.0993 41.443 47.8766 41.5491 47.8048 41.7518C47.733 41.9546 47.8391 42.1772 48.0419 42.249C48.2446 42.3209 48.4672 42.2147 48.5391 42.012C48.6109 41.8093 48.5048 41.5867 48.3021 41.5149Z" fill="black"/>
<path d="M48.5085 37.55L48.3601 37.4974C48.1809 37.4724 48.0025 37.5758 47.9397 37.7532C47.8679 37.9559 47.974 38.1785 48.1768 38.2504C48.3795 38.3222 48.6021 38.2161 48.674 38.0134C48.7368 37.836 48.6635 37.6434 48.5085 37.55Z" fill="black"/>
<path d="M46.7738 38.3088C46.571 38.2369 46.3485 38.3431 46.2766 38.5458C46.2048 38.7485 46.3109 38.9711 46.5136 39.0429C46.7163 39.1148 46.9391 39.0087 47.0109 38.806C47.0828 38.6031 46.9766 38.3806 46.7738 38.3088Z" fill="black"/>
<path d="M47.5983 39.883C47.3956 39.8112 47.1729 39.9173 47.1011 40.12C47.0292 40.3227 47.1354 40.5453 47.3382 40.6172C47.5409 40.689 47.7635 40.5829 47.8353 40.3802C47.9072 40.1773 47.801 39.9549 47.5983 39.883Z" fill="white"/>
<path d="M45.9351 40.676C45.7324 40.6041 45.5098 40.7103 45.438 40.913C45.3662 41.1157 45.4723 41.3383 45.675 41.4101C45.8777 41.4819 46.1004 41.3759 46.1723 41.1731C46.2441 40.9704 46.138 40.7478 45.9351 40.676Z" fill="white"/>
<path d="M46.7597 42.2502C46.557 42.1784 46.3342 42.2845 46.2624 42.4872C46.1906 42.6899 46.2967 42.9125 46.4995 42.9844C46.7022 43.0562 46.9248 42.9501 46.9967 42.7474C47.0685 42.5447 46.9624 42.3221 46.7597 42.2502Z" fill="white"/>
<path d="M46.1416 36.711L45.9932 36.6585C45.8138 36.6335 45.6357 36.737 45.5729 36.9143C45.501 37.117 45.6072 37.3396 45.8099 37.4114C46.0126 37.4833 46.2353 37.3772 46.3071 37.1745C46.37 36.9971 46.2967 36.8046 46.1416 36.711Z" fill="white"/>
<path d="M44.407 37.47C44.2043 37.3981 43.9815 37.5042 43.9097 37.7069C43.8379 37.9096 43.944 38.1322 44.1468 38.2041C44.3496 38.2759 44.5722 38.1698 44.644 37.9671C44.716 37.7643 44.6098 37.5418 44.407 37.47Z" fill="white"/>
<path d="M45.2314 39.0441C45.0287 38.9723 44.8061 39.0784 44.7342 39.2811C44.6624 39.4839 44.7685 39.7064 44.9712 39.7783C45.174 39.8501 45.3967 39.744 45.4685 39.5413C45.5404 39.3385 45.4342 39.116 45.2314 39.0441Z" fill="white"/>
<path d="M43.5683 39.8371C43.3656 39.7653 43.1429 39.8714 43.0711 40.0741C42.9992 40.2768 43.1053 40.4994 43.3082 40.5713C43.5109 40.6431 43.7335 40.537 43.8053 40.3343C43.8772 40.1316 43.7712 39.909 43.5683 39.8371Z" fill="white"/>
<path d="M44.3928 41.4113C44.19 41.3395 43.9674 41.4456 43.8956 41.6483C43.8238 41.851 43.9299 42.0736 44.1326 42.1455C44.3353 42.2173 44.5581 42.1112 44.6299 41.9085C44.7017 41.7058 44.5956 41.4832 44.3928 41.4113Z" fill="white"/>
<path d="M43.7748 35.8722L43.6264 35.8196C43.4471 35.7947 43.2688 35.8981 43.206 36.0754C43.1341 36.2782 43.2403 36.5008 43.443 36.5726C43.6458 36.6445 43.8684 36.5383 43.9402 36.3356C44.0032 36.1583 43.9299 35.9657 43.7748 35.8722Z" fill="white"/>
<path d="M42.0402 36.632C41.8374 36.5602 41.6148 36.6663 41.543 36.869C41.4712 37.0717 41.5773 37.2943 41.78 37.3662C41.9827 37.438 42.2053 37.3319 42.2772 37.1292C42.3492 36.9264 42.243 36.7039 42.0402 36.632Z" fill="white"/>
<path d="M42.6045 38.9394C42.8072 39.0112 43.0298 38.9051 43.1016 38.7024C43.1734 38.4997 43.0673 38.2771 42.8646 38.2053C42.6619 38.1334 42.4393 38.2395 42.3674 38.4423C42.2956 38.645 42.4017 38.8676 42.6045 38.9394Z" fill="white"/>
<path d="M41.2015 38.9982C40.9988 38.9264 40.7762 39.0325 40.7044 39.2352C40.6326 39.438 40.7387 39.6606 40.9414 39.7324C41.1441 39.8042 41.3667 39.6981 41.4385 39.4954C41.5104 39.2927 41.4044 39.0701 41.2015 38.9982Z" fill="white"/>
<path d="M42.0259 40.5724C41.8232 40.5006 41.6006 40.6067 41.5288 40.8095C41.457 41.0122 41.5631 41.2348 41.7658 41.3066C41.9686 41.3785 42.1912 41.2723 42.2631 41.0696C42.3349 40.8669 42.2288 40.6443 42.0259 40.5724Z" fill="white"/>
<path d="M41.4079 35.0343L41.2596 34.9818C41.0802 34.9568 40.902 35.0602 40.8391 35.2375C40.7673 35.4403 40.8734 35.6629 41.0761 35.7347C41.2789 35.8065 41.5015 35.7004 41.5733 35.4977C41.6364 35.3204 41.563 35.1279 41.4079 35.0343Z" fill="white"/>
<path d="M39.6734 35.7932C39.4706 35.7213 39.2481 35.8274 39.1762 36.0302C39.1044 36.2329 39.2105 36.4555 39.4132 36.5273C39.6159 36.5991 39.8385 36.493 39.9104 36.2903C39.9822 36.0875 39.8761 35.865 39.6734 35.7932Z" fill="white"/>
<path d="M40.4978 37.3674C40.295 37.2955 40.0725 37.4017 40.0006 37.6044C39.9288 37.8071 40.0349 38.0297 40.2376 38.1015C40.4403 38.1733 40.6629 38.0672 40.7348 37.8645C40.8068 37.6617 40.7005 37.4392 40.4978 37.3674Z" fill="white"/>
<path d="M38.8347 38.1594C38.632 38.0875 38.4094 38.1937 38.3376 38.3964C38.2657 38.5991 38.3719 38.8217 38.5746 38.8935C38.7773 38.9653 38.9999 38.8592 39.0717 38.6565C39.1435 38.4538 39.0374 38.2312 38.8347 38.1594Z" fill="white"/>
<path d="M39.6591 39.7336C39.4564 39.6618 39.2338 39.7679 39.162 39.9706C39.0902 40.1733 39.1963 40.3959 39.399 40.4677C39.6017 40.5396 39.8243 40.4334 39.8961 40.2307C39.968 40.028 39.8619 39.8054 39.6591 39.7336Z" fill="white"/>
<path d="M39.0412 34.1954L38.8928 34.1428C38.7134 34.1178 38.5353 34.2213 38.4725 34.3987C38.4006 34.6014 38.5068 34.824 38.7095 34.8958C38.9122 34.9677 39.1349 34.8616 39.2067 34.6589C39.2696 34.4815 39.1963 34.2889 39.0412 34.1954Z" fill="black"/>
<path d="M37.3066 34.9543C37.1039 34.8825 36.8811 34.9886 36.8093 35.1913C36.7375 35.394 36.8436 35.6166 37.0464 35.6885C37.2492 35.7603 37.4717 35.6542 37.5436 35.4515C37.6154 35.2486 37.5093 35.0262 37.3066 34.9543Z" fill="black"/>
<path d="M38.131 36.5285C37.9283 36.4567 37.7057 36.5628 37.6338 36.7655C37.562 36.9682 37.6681 37.1908 37.8708 37.2627C38.0736 37.3345 38.2963 37.2284 38.3681 37.0257C38.44 36.8229 38.3337 36.6003 38.131 36.5285Z" fill="black"/>
<path d="M36.4679 37.3215C36.2652 37.2497 36.0425 37.3558 35.9707 37.5585C35.8988 37.7612 36.0049 37.9838 36.2078 38.0557C36.4105 38.1275 36.6331 38.0214 36.7049 37.8187C36.7768 37.6159 36.6706 37.3933 36.4679 37.3215Z" fill="white"/>
<path d="M37.2923 38.8947C37.0896 38.8229 36.867 38.929 36.7952 39.1317C36.7234 39.3344 36.8295 39.557 37.0322 39.6289C37.2349 39.7007 37.4576 39.5946 37.5294 39.3919C37.6013 39.1892 37.495 38.9665 37.2923 38.8947Z" fill="white"/>
<path d="M36.6744 33.3565L36.526 33.304C36.3467 33.279 36.1685 33.3825 36.1057 33.5598C36.0339 33.7625 36.14 33.9851 36.3427 34.057C36.5454 34.1288 36.768 34.0227 36.8398 33.8199C36.9027 33.6426 36.8294 33.45 36.6744 33.3565Z" fill="white"/>
<path d="M35.7642 35.6896C35.5614 35.6178 35.3388 35.7239 35.267 35.9266C35.1952 36.1294 35.3013 36.352 35.504 36.4238C35.7067 36.4956 35.9293 36.3895 36.0012 36.1868C36.073 35.9839 35.9669 35.7615 35.7642 35.6896Z" fill="white"/>
<path d="M34.9255 38.0568C34.7228 37.985 34.5002 38.0911 34.4284 38.2938C34.3566 38.4965 34.4627 38.7191 34.6654 38.791C34.8681 38.8628 35.0907 38.7567 35.1625 38.554C35.2344 38.3513 35.1282 38.1287 34.9255 38.0568Z" fill="black"/>
<path d="M27.8392 31.5998C27.6365 31.528 27.4139 31.6341 27.3421 31.8368C27.2703 32.0395 27.3764 32.2621 27.5791 32.3339C27.7818 32.4058 28.0044 32.2996 28.0762 32.0969C28.1482 31.8941 28.0421 31.6717 27.8392 31.5998Z" fill="black"/>
<path d="M27.0006 33.967C26.7979 33.8952 26.5753 34.0013 26.5034 34.204C26.4316 34.4067 26.5377 34.6293 26.7404 34.7011C26.9432 34.773 27.1658 34.6668 27.2376 34.4641C27.3094 34.2614 27.2034 34.0389 27.0006 33.967Z" fill="black"/>
<path d="M27.207 30.0021L27.0586 29.9495C26.8794 29.9246 26.7011 30.028 26.6382 30.2053C26.5664 30.408 26.6725 30.6306 26.8753 30.7025C27.0781 30.7743 27.3007 30.6682 27.3725 30.4655C27.4354 30.2882 27.3621 30.0956 27.207 30.0021Z" fill="black"/>
<path d="M25.4724 30.7609C25.2697 30.6891 25.0471 30.7952 24.9753 30.9979C24.9034 31.2006 25.0096 31.4232 25.2123 31.4951C25.415 31.5669 25.6376 31.4608 25.7094 31.2581C25.7813 31.0552 25.6751 30.8328 25.4724 30.7609Z" fill="black"/>
<path d="M26.0367 33.0693C26.2394 33.1411 26.462 33.035 26.5338 32.8323C26.6057 32.6296 26.4996 32.407 26.2968 32.3351C26.0941 32.2633 25.8715 32.3694 25.7997 32.5722C25.7279 32.7749 25.834 32.9975 26.0367 33.0693Z" fill="black"/>
<path d="M24.6338 33.1281C24.4311 33.0563 24.2085 33.1624 24.1366 33.3651C24.0648 33.5678 24.1709 33.7904 24.3736 33.8623C24.5764 33.9341 24.799 33.828 24.8708 33.6253C24.9426 33.4225 24.8365 33.1999 24.6338 33.1281Z" fill="black"/>
<path d="M25.4582 34.7024C25.2555 34.6305 25.0327 34.7366 24.9609 34.9393C24.8891 35.1421 24.9952 35.3647 25.198 35.4365C25.4008 35.5084 25.6234 35.4022 25.6952 35.1995C25.767 34.9968 25.661 34.7742 25.4582 34.7024Z" fill="black"/>
<path d="M24.8402 29.1632L24.6918 29.1107C24.5124 29.0857 24.3342 29.1891 24.2714 29.3665C24.1996 29.5692 24.3057 29.7918 24.5085 29.8636C24.7112 29.9355 24.9338 29.8293 25.0057 29.6266C25.0685 29.4493 24.9953 29.2568 24.8402 29.1632Z" fill="black"/>
<path d="M23.1056 29.9221C22.9029 29.8502 22.6803 29.9564 22.6085 30.1591C22.5366 30.3618 22.6428 30.5844 22.8455 30.6562C23.0482 30.728 23.2709 30.622 23.3427 30.4192C23.4145 30.2164 23.3083 29.9939 23.1056 29.9221Z" fill="black"/>
<path d="M23.93 31.4963C23.7273 31.4245 23.5046 31.5306 23.4328 31.7333C23.3609 31.936 23.467 32.1586 23.6699 32.2305C23.8726 32.3023 24.0952 32.1962 24.167 31.9935C24.2389 31.7906 24.1327 31.5681 23.93 31.4963Z" fill="black"/>
<path d="M22.267 32.2892C22.0642 32.2174 21.8416 32.3235 21.7698 32.5263C21.698 32.729 21.8041 32.9516 22.0068 33.0234C22.2095 33.0952 22.4323 32.9891 22.5041 32.7864C22.5759 32.5837 22.4697 32.3611 22.267 32.2892Z" fill="black"/>
<path d="M23.0914 33.8635C22.8887 33.7917 22.666 33.8978 22.5941 34.1005C22.5223 34.3032 22.6284 34.5258 22.8313 34.5977C23.034 34.6695 23.2566 34.5634 23.3284 34.3606C23.4002 34.1579 23.2941 33.9353 23.0914 33.8635Z" fill="black"/>
<path d="M22.4734 28.3243L22.325 28.2717C22.1458 28.2468 21.9676 28.3502 21.9047 28.5276C21.8329 28.7303 21.939 28.9529 22.1417 29.0247C22.3444 29.0966 22.5672 28.9905 22.639 28.7878C22.7017 28.6104 22.6284 28.4178 22.4734 28.3243Z" fill="black"/>
<path d="M21.5632 30.6574C21.3605 30.5856 21.1379 30.6917 21.0661 30.8944C20.9943 31.0971 21.1004 31.3197 21.3031 31.3916C21.5058 31.4634 21.7285 31.3573 21.8004 31.1546C21.8721 30.9517 21.7659 30.7292 21.5632 30.6574Z" fill="black"/>
<path d="M20.4644 33.7587C20.6672 33.8306 20.8899 33.7245 20.9617 33.5218C21.0335 33.3191 20.9274 33.0965 20.7246 33.0246C20.5219 32.9528 20.2993 33.0589 20.2274 33.2616C20.1556 33.4643 20.2617 33.6869 20.4644 33.7587Z" fill="black"/>
<path d="M34.9398 34.1154C34.737 34.0436 34.5144 34.1497 34.4426 34.3524C34.3708 34.5551 34.4769 34.7777 34.6796 34.8496C34.8823 34.9214 35.1049 34.8153 35.1768 34.6126C35.2486 34.4097 35.1425 34.1872 34.9398 34.1154Z" fill="white"/>
<path d="M35.247 36.0338L35.2922 35.8731C35.283 35.8902 35.2738 35.9074 35.267 35.9264C35.2544 35.9618 35.2491 35.998 35.247 36.0338Z" fill="white"/>
<path d="M34.1011 36.4826C33.8984 36.4108 33.6758 36.5169 33.604 36.7196C33.5322 36.9223 33.6383 37.1449 33.841 37.2168C34.0437 37.2886 34.2663 37.1825 34.3381 36.9797C34.41 36.777 34.3038 36.5544 34.1011 36.4826Z" fill="white"/>
<path d="M34.6803 38.0525C34.5671 38.0878 34.4709 38.1728 34.4283 38.293C34.3795 38.4308 34.4143 38.5767 34.5043 38.6792L34.6803 38.0525Z" fill="white"/>
<path d="M34.236 32.4846C34.0333 32.4127 33.8107 32.5189 33.7389 32.7216C33.6671 32.9243 33.7732 33.1469 33.9759 33.2187C34.1786 33.2905 34.4012 33.1844 34.4731 32.9817C34.5449 32.779 34.4388 32.5564 34.236 32.4846Z" fill="white"/>
<path d="M32.573 33.2775C32.3702 33.2057 32.1476 33.3118 32.0758 33.5145C32.004 33.7172 32.1101 33.9398 32.3128 34.0117C32.5155 34.0835 32.7381 33.9774 32.81 33.7747C32.8818 33.5718 32.7757 33.3494 32.573 33.2775Z" fill="white"/>
<path d="M33.3974 34.8508C33.1946 34.7789 32.972 34.8851 32.9002 35.0878C32.8284 35.2905 32.9345 35.5131 33.1372 35.5849C33.3399 35.6567 33.5625 35.5506 33.6344 35.3479C33.7062 35.1451 33.6001 34.9226 33.3974 34.8508Z" fill="white"/>
<path d="M31.7343 35.6437C31.5316 35.5719 31.309 35.678 31.2372 35.8807C31.1653 36.0835 31.2715 36.3061 31.4742 36.3779C31.6769 36.4497 31.8995 36.3436 31.9713 36.1409C32.0431 35.9382 31.937 35.7156 31.7343 35.6437Z" fill="white"/>
<path d="M32.5587 37.218C32.356 37.1461 32.1334 37.2522 32.0616 37.455C31.9898 37.6577 32.0959 37.8803 32.2986 37.9521C32.5013 38.0239 32.7239 37.9178 32.7957 37.7151C32.8676 37.5124 32.7615 37.2898 32.5587 37.218Z" fill="white"/>
<path d="M31.6091 32.3798C31.8118 32.4517 32.0344 32.3456 32.1062 32.1428C32.178 31.9401 32.0719 31.7175 31.8692 31.6457C31.6665 31.5739 31.4439 31.68 31.3721 31.8827C31.3002 32.0854 31.4063 32.308 31.6091 32.3798Z" fill="white"/>
<path d="M30.206 32.4387C30.0032 32.3668 29.7806 32.473 29.7088 32.6757C29.637 32.8784 29.7431 33.101 29.9459 33.1729C30.1486 33.2447 30.3712 33.1386 30.4431 32.9358C30.515 32.7331 30.4089 32.5106 30.206 32.4387Z" fill="white"/>
<path d="M30.7704 34.746C30.9732 34.8179 31.1957 34.7118 31.2676 34.509C31.3394 34.3063 31.2333 34.0837 31.0306 34.0119C30.8278 33.9401 30.6053 34.0462 30.5334 34.2489C30.4616 34.4516 30.5677 34.6742 30.7704 34.746Z" fill="white"/>
<path d="M29.3674 34.8049C29.1646 34.733 28.942 34.8392 28.8701 35.0419C28.7983 35.2446 28.9044 35.4672 29.1073 35.5391C29.31 35.6109 29.5326 35.5048 29.6044 35.3021C29.6762 35.0993 29.5702 34.8768 29.3674 34.8049Z" fill="white"/>
<path d="M30.1919 36.3791C29.9892 36.3073 29.7666 36.4134 29.6948 36.6161C29.6229 36.8188 29.7291 37.0414 29.9318 37.1132C30.1345 37.1851 30.3571 37.0789 30.4289 36.8762C30.5008 36.6735 30.3946 36.4509 30.1919 36.3791Z" fill="white"/>
<path d="M29.5023 30.8068C29.2996 30.735 29.077 30.8411 29.0052 31.0438C28.9333 31.2465 29.0395 31.4691 29.2422 31.541C29.4449 31.6128 29.6675 31.5067 29.7393 31.304C29.8113 31.1013 29.7051 30.8787 29.5023 30.8068Z" fill="white"/>
<path d="M27.9733 31.6807L27.7861 32.3473C27.9157 32.3209 28.029 32.2308 28.0764 32.0969C28.13 31.9456 28.0842 31.7832 27.9733 31.6807Z" fill="white"/>
<path d="M28.6636 33.174C28.4609 33.1022 28.2383 33.2083 28.1665 33.411C28.0947 33.6137 28.2008 33.8363 28.4035 33.9082C28.6062 33.98 28.8288 33.8739 28.9006 33.6712C28.9726 33.4684 28.8665 33.2459 28.6636 33.174Z" fill="white"/>
<path d="M27.2506 34.2549L27.1534 34.601C27.1896 34.5627 27.2189 34.5169 27.2376 34.464C27.2625 34.3943 27.2647 34.3226 27.2506 34.2549Z" fill="white"/>
<path d="M27.5649 36.2744C27.7676 36.3462 27.9902 36.2401 28.062 36.0374C28.1338 35.8346 28.0277 35.6121 27.825 35.5402C27.6223 35.4684 27.3997 35.5745 27.3279 35.7772C27.256 35.9799 27.3622 36.2025 27.5649 36.2744Z" fill="white"/>
<path d="M57.9042 40.8713C57.7015 40.7994 57.4789 40.9056 57.4071 41.1083C57.3353 41.311 57.4414 41.5336 57.6441 41.6054C57.7475 41.6421 57.8558 41.632 57.9469 41.5869L58.1463 41.1269C58.1118 41.0122 58.026 40.9144 57.9042 40.8713Z" fill="white"/>
<path d="M56.2411 41.6642C56.0384 41.5924 55.8158 41.6985 55.744 41.9013C55.6722 42.104 55.7783 42.3266 55.981 42.3984C56.1837 42.4702 56.4063 42.3641 56.4781 42.1614C56.5501 41.9586 56.444 41.7361 56.2411 41.6642Z" fill="white"/>
<path d="M56.5684 43.4746C56.4966 43.6773 56.6027 43.8999 56.8054 43.9718C56.838 43.9833 56.871 43.9888 56.9039 43.9914L57.1968 43.3158C57.1597 43.2822 57.1157 43.2553 57.0657 43.2375C56.8628 43.1658 56.6403 43.2718 56.5684 43.4746Z" fill="white"/>
<path d="M55.4025 44.0305C55.1998 43.9586 54.9772 44.0647 54.9053 44.2675C54.8335 44.4702 54.9396 44.6928 55.1424 44.7646C55.3451 44.8364 55.5677 44.7303 55.6395 44.5276C55.7113 44.3249 55.6053 44.1023 55.4025 44.0305Z" fill="white"/>
<path d="M55.7298 45.8417C55.6664 46.0206 55.7418 46.2146 55.8996 46.3072L56.2065 45.5996C56.0095 45.5416 55.7992 45.6457 55.7298 45.8417Z" fill="white"/>
<path d="M54.8911 48.2084C54.8498 48.325 54.8688 48.447 54.9295 48.5443L55.1839 47.9578C55.0533 47.9835 54.9388 48.0739 54.8911 48.2084Z" fill="white"/>
<path d="M52.8866 51.131C52.6838 51.0592 52.4612 51.1653 52.3894 51.3682C52.3175 51.5709 52.4237 51.7935 52.6264 51.8653C52.8291 51.9371 53.0517 51.831 53.1235 51.6283C53.1955 51.4255 53.0894 51.2029 52.8866 51.131Z" fill="white"/>
<path d="M53.7243 48.7668C53.5216 48.695 53.299 48.8011 53.2271 49.0039C53.1553 49.2066 53.2614 49.4292 53.4641 49.5011C53.6669 49.5729 53.8895 49.4668 53.9613 49.264C54.0333 49.0613 53.9272 48.8387 53.7243 48.7668Z" fill="white"/>
<path d="M54.562 46.4025C54.3593 46.3307 54.1367 46.4368 54.0648 46.6397C53.993 46.8424 54.0991 47.065 54.3018 47.1368C54.5045 47.2086 54.7271 47.1025 54.799 46.8998C54.871 46.697 54.7648 46.4744 54.562 46.4025Z" fill="white"/>
<path d="M51.7877 54.2324C51.9905 54.3042 52.213 54.1981 52.2849 53.9954C52.3567 53.7926 52.2506 53.5701 52.0479 53.4982C51.8451 53.4264 51.6226 53.5325 51.5507 53.7352C51.4789 53.938 51.585 54.1605 51.7877 54.2324Z" fill="white"/>
<path d="M51.2093 55.8644C51.0066 55.7926 50.784 55.8987 50.7121 56.1015C50.6403 56.3043 50.7464 56.5268 50.9491 56.5986C51.1519 56.6704 51.3745 56.5643 51.4463 56.3616C51.5182 56.1589 51.4121 55.9363 51.2093 55.8644Z" fill="white"/>
<path d="M50.3706 58.2316C50.1679 58.1598 49.9453 58.2659 49.8735 58.4686C49.8016 58.6715 49.9077 58.8941 50.1104 58.9659C50.2163 59.0034 50.3271 58.9914 50.4196 58.9435L50.6148 58.4934C50.5816 58.3758 50.4944 58.2755 50.3706 58.2316Z" fill="white"/>
<path d="M49.0348 60.8359C48.9629 61.0388 49.0691 61.2614 49.2718 61.3332C49.3059 61.3453 49.3404 61.3506 49.3748 61.3529L49.6664 60.6804C49.6286 60.6454 49.5836 60.6171 49.5319 60.5988C49.3292 60.5271 49.1066 60.6332 49.0348 60.8359Z" fill="white"/>
<path d="M48.1962 63.2024C48.1323 63.3827 48.2096 63.578 48.3699 63.6699L48.6771 62.9614C48.4789 62.9006 48.2661 63.005 48.1962 63.2024Z" fill="white"/>
<path d="M47.3575 65.5693C47.3156 65.6876 47.3356 65.8117 47.3987 65.9096L47.6554 65.3176C47.5226 65.3421 47.4058 65.433 47.3575 65.5693Z" fill="white"/>
<path d="M46.5189 67.9358C46.5183 67.9375 46.5182 67.9392 46.5176 67.9409L46.5306 67.9111C46.5269 67.9194 46.522 67.927 46.5189 67.9358Z" fill="white"/>
<path d="M55.5374 40.0325C55.3347 39.9606 55.112 40.0667 55.0402 40.2694C54.9683 40.4721 55.0745 40.6947 55.2773 40.7666C55.48 40.8384 55.7026 40.7323 55.7744 40.5296C55.8464 40.3269 55.7403 40.1043 55.5374 40.0325Z" fill="white"/>
<path d="M53.8743 40.8254C53.6716 40.7536 53.449 40.8597 53.3772 41.0624C53.3054 41.2651 53.4115 41.4877 53.6142 41.5595C53.8169 41.6314 54.0396 41.5253 54.1114 41.3226C54.1833 41.1197 54.077 40.8972 53.8743 40.8254Z" fill="white"/>
<path d="M54.6988 42.3996C54.496 42.3278 54.2733 42.4339 54.2015 42.6366C54.1297 42.8393 54.2358 43.0619 54.4386 43.1338C54.6413 43.2056 54.8639 43.0995 54.9358 42.8968C55.0078 42.694 54.9016 42.4715 54.6988 42.3996Z" fill="white"/>
<path d="M53.0357 43.1926C52.833 43.1207 52.6104 43.2269 52.5386 43.4296C52.4667 43.6323 52.5728 43.8549 52.7756 43.9267C52.9783 43.9985 53.201 43.8925 53.2728 43.6898C53.3447 43.487 53.2384 43.2644 53.0357 43.1926Z" fill="white"/>
<path d="M53.8601 44.7659C53.6574 44.694 53.4347 44.8001 53.3628 45.0028C53.291 45.2055 53.3971 45.4281 53.6 45.5C53.8027 45.5718 54.0253 45.4657 54.0971 45.263C54.1689 45.0603 54.0629 44.8377 53.8601 44.7659Z" fill="white"/>
<path d="M53.1706 39.1935C52.9679 39.1217 52.7453 39.2278 52.6735 39.4305C52.6016 39.6333 52.7078 39.8559 52.9105 39.9277C53.1132 39.9995 53.3358 39.8934 53.4076 39.6907C53.4796 39.488 53.3733 39.2654 53.1706 39.1935Z" fill="white"/>
<path d="M51.5075 39.9865C51.3048 39.9147 51.0822 40.0208 51.0104 40.2235C50.9386 40.4262 51.0447 40.6488 51.2474 40.7207C51.4501 40.7925 51.6727 40.6864 51.7445 40.4837C51.8164 40.2808 51.7102 40.0583 51.5075 39.9865Z" fill="white"/>
<path d="M52.3319 41.5607C52.1292 41.4889 51.9066 41.595 51.8348 41.7977C51.763 42.0005 51.8691 42.223 52.0718 42.2949C52.2745 42.3667 52.4971 42.2606 52.5689 42.0579C52.6409 41.8551 52.5346 41.6326 52.3319 41.5607Z" fill="white"/>
<path d="M50.6689 42.3537C50.4662 42.2819 50.2436 42.388 50.1717 42.5907C50.0999 42.7934 50.206 43.016 50.4087 43.0878C50.6115 43.1597 50.8341 43.0536 50.9059 42.8508C50.9777 42.6481 50.8716 42.4255 50.6689 42.3537Z" fill="white"/>
<path d="M51.4933 43.9279C51.2906 43.8561 51.068 43.9622 50.9961 44.1649C50.9243 44.3676 51.0304 44.5902 51.2331 44.6621C51.4359 44.7339 51.6585 44.6278 51.7303 44.4251C51.8021 44.2223 51.696 43.9997 51.4933 43.9279Z" fill="white"/>
<path d="M50.8038 38.3547C50.6011 38.2828 50.3785 38.389 50.3067 38.5917C50.2349 38.7944 50.341 39.017 50.5437 39.0888C50.7464 39.1607 50.9691 39.0546 51.041 38.8519C51.1127 38.6491 51.0065 38.4265 50.8038 38.3547Z" fill="white"/>
<path d="M49.9651 40.7219C49.7624 40.65 49.5398 40.7562 49.468 40.9589C49.3962 41.1616 49.5023 41.3842 49.705 41.456C49.9077 41.5278 50.1304 41.4218 50.2023 41.219C50.274 41.0162 50.1679 40.7937 49.9651 40.7219Z" fill="white"/>
<path d="M48.8664 43.8232C49.0691 43.895 49.2918 43.7889 49.3636 43.5862C49.4354 43.3835 49.3293 43.1609 49.1265 43.0891C48.9237 43.0172 48.7012 43.1233 48.6293 43.3261C48.5575 43.5288 48.6635 43.7513 48.8664 43.8232Z" fill="white"/>
<path d="M68.4791 34.8758L70.9462 31.3139C72.9915 28.361 72.2531 24.2947 69.3003 22.2495L67.3118 20.8721C65.8812 19.8813 64.1507 19.5071 62.4387 19.8179C60.7266 20.1288 59.2382 21.0878 58.2475 22.5181L55.3471 26.7055L53.3072 24.2553C53.1475 24.0575 53.1367 23.7806 53.2774 23.5718L60.731 16.0837C60.7478 16.0669 60.7633 16.049 60.7776 16.03C61.2206 15.4399 61.2101 14.6551 60.7517 14.077C60.3032 13.5113 59.5642 13.318 58.8997 13.5878C58.1281 13.7797 49.0061 16.0598 47.0159 17.1197C45.1976 18.088 42.0925 20.9585 41.3287 21.6763L39.3619 19.314C39.2023 19.1162 39.1915 18.8392 39.332 18.6304L46.7858 11.1424C46.8026 11.1255 46.8181 11.1077 46.8323 11.0885C47.2752 10.4984 47.2647 9.71359 46.8065 9.13547C46.3579 8.56973 45.6189 8.37663 44.9547 8.64645C44.1831 8.83832 35.0609 11.1184 33.0708 12.1782C31.0748 13.2412 27.5268 16.5975 27.2291 16.8807C26.3304 17.6141 25.8423 18.6668 25.7928 19.7453L25.1392 19.5137C22.9065 18.7226 20.4467 19.8954 19.6556 22.128L19.3176 23.0818C18.6979 24.8307 19.2835 26.7189 20.6395 27.8354L12.317 58.4772C11.2993 62.2244 13.5771 66.2495 17.5029 67.6405L44.5138 77.2115C48.4424 78.6035 52.7473 76.9086 54.3143 73.3526L67.2274 44.0499C68.7214 43.8025 70.0415 42.7723 70.5821 41.2468L70.92 40.293C71.6898 38.1191 70.5977 35.7303 68.4791 34.8758ZM59.0879 23.1001C59.9231 21.8942 61.1781 21.0858 62.6213 20.8237C63.5765 20.6502 64.5383 20.7298 65.4293 21.0455C65.8847 21.2069 66.3215 21.43 66.7294 21.7126L68.718 23.0898C71.2074 24.8141 71.8299 28.2423 70.1055 30.7317L67.4831 34.5179L58.8797 31.4694C58.692 30.9039 58.3997 30.3721 58.0065 29.8997L56.0258 27.5207L59.0879 23.1001ZM47.4962 18.022C49.4198 16.9978 59.087 14.5947 59.1843 14.5705C59.2126 14.5635 59.2402 14.5541 59.2668 14.5423C59.4228 14.4738 59.5653 14.4769 59.6848 14.5192C59.7954 14.5584 59.8864 14.6311 59.9505 14.712C60.0797 14.8751 60.1519 15.1366 59.9778 15.3912L52.5235 22.8797C52.5067 22.8965 52.4911 22.9145 52.477 22.9334C52.0371 23.5195 52.0512 24.3271 52.5164 24.9033L57.2207 30.5539C57.3373 30.6939 57.4417 30.8412 57.5357 30.9933L44.9336 26.528C44.7461 25.9626 44.4545 25.4309 44.0612 24.9585L41.984 22.4636C42.6304 21.856 45.7737 18.9393 47.4962 18.022ZM27.8875 17.6628C27.8985 17.6539 27.909 17.6447 27.9192 17.6347C27.956 17.5996 31.6339 14.1013 33.5508 13.0807C35.4744 12.0564 45.1415 9.65333 45.239 9.62914C45.2673 9.62213 45.2948 9.6128 45.3215 9.601C45.4775 9.53244 45.6198 9.53551 45.7395 9.5779C45.85 9.61706 45.9409 9.68973 46.005 9.77066C46.1344 9.93382 46.2065 10.1953 46.0323 10.4498L38.5782 17.9382C38.5614 17.955 38.5458 17.9731 38.5317 17.992C38.0919 18.5781 38.1061 19.3856 38.5712 19.9618L43.2756 25.6124C43.3924 25.7526 43.4976 25.8998 43.5918 26.0522L26.8133 20.107C26.8029 19.945 26.8049 19.7811 26.8226 19.6163C26.9049 18.8444 27.2832 18.1505 27.8875 17.6628ZM13.3031 58.7451L21.5434 28.4062C21.6689 28.4649 21.7981 28.5184 21.9315 28.5656L27.533 30.5505L17.6008 66.5847C14.3259 65.2954 12.4457 61.902 13.3031 58.7451ZM57.5641 41.1915L42.7923 75.5171L35.6816 72.9975L50.6193 38.7307L57.5641 41.1915ZM34.7173 72.6558L26.3839 69.703L36.4029 33.6934L49.655 38.3891L34.7173 72.6558ZM35.4388 33.3518L25.4197 69.3613L18.4176 66.8802L18.5665 66.9214L28.4973 30.8921L35.4388 33.3518ZM53.3782 72.9404C52.0256 76.0094 48.2817 77.4622 44.8546 76.2478L43.7561 75.8586L58.5279 41.533L65.0978 43.861C65.427 43.9777 65.7612 44.0506 66.0943 44.0846L53.3782 72.9404ZM69.618 40.9053C69.0152 42.6066 67.1406 43.5003 65.4394 42.8975L22.2728 27.602C20.5715 26.9992 19.6779 25.1247 20.2807 23.4234L20.6187 22.4695C21.2215 20.7682 23.096 19.8745 24.7973 20.4773L67.9638 35.7728C69.665 36.3755 70.5587 38.2501 69.9558 39.9514L69.6179 40.9053L69.618 40.9053Z" fill="white"/>
</g>
<defs>
<clipPath id="clip0_640_27736">
<rect width="65.1817" height="65.1817" fill="white" transform="translate(21.7699) rotate(19.511)"/>
</clipPath>
</defs>
</svg>
