<svg width="52" height="52" viewBox="0 0 52 52" fill="none" xmlns="http://www.w3.org/2000/svg">
<g opacity="0.5" clip-path="url(#clip0_640_27739)">
<path d="M51.4658 16.3453C51.4256 16.1696 51.3766 15.9955 51.3168 15.8242C51.2631 15.8808 51.2296 15.9568 51.2296 16.0411C51.2297 16.1878 51.3303 16.31 51.4658 16.3453Z" fill="white"/>
<path d="M51.5451 17.7598C51.3709 17.7598 51.2296 17.901 51.2296 18.0753C51.2296 18.2351 51.3489 18.3659 51.5032 18.3866C51.5427 18.1805 51.568 17.9723 51.5812 17.7634C51.5692 17.762 51.5574 17.7598 51.5451 17.7598Z" fill="white"/>
<path d="M49.511 13.6914C49.3367 13.6914 49.1955 13.8327 49.1955 14.0069C49.1955 14.1812 49.3367 14.3224 49.511 14.3224C49.6853 14.3224 49.8265 14.1812 49.8265 14.0069C49.8265 13.8328 49.6853 13.6914 49.511 13.6914Z" fill="white"/>
<path d="M50.5664 14.6699C50.3921 14.6699 50.2509 14.8112 50.2509 14.9854C50.2509 15.1597 50.3921 15.301 50.5664 15.301C50.7406 15.301 50.8819 15.1597 50.8819 14.9854C50.8819 14.9404 50.8721 14.8978 50.8552 14.8591C50.8405 14.8356 50.8261 14.8119 50.811 14.7885C50.7531 14.7168 50.6657 14.6699 50.5664 14.6699Z" fill="white"/>
<path d="M49.511 16.3566C49.6853 16.3566 49.8265 16.2154 49.8265 16.0411C49.8265 15.8668 49.6853 15.7256 49.511 15.7256C49.3367 15.7256 49.1955 15.8668 49.1955 16.0411C49.1955 16.2154 49.3368 16.3566 49.511 16.3566Z" fill="white"/>
<path d="M50.5664 16.7041C50.3921 16.7041 50.2509 16.8453 50.2509 17.0196C50.2509 17.1939 50.3921 17.3351 50.5664 17.3351C50.7406 17.3351 50.8819 17.1939 50.8819 17.0196C50.8819 16.8453 50.7406 16.7041 50.5664 16.7041Z" fill="white"/>
<path d="M49.511 18.3908C49.6853 18.3908 49.8265 18.2496 49.8265 18.0753C49.8265 17.901 49.6853 17.7598 49.511 17.7598C49.3367 17.7598 49.1955 17.901 49.1955 18.0753C49.1955 18.2496 49.3368 18.3908 49.511 18.3908Z" fill="white"/>
<path d="M50.5664 19.3693C50.7406 19.3693 50.8819 19.2281 50.8819 19.0538C50.8819 18.8795 50.7406 18.7383 50.5664 18.7383C50.3921 18.7383 50.2509 18.8795 50.2509 19.0538C50.2509 19.228 50.3921 19.3693 50.5664 19.3693Z" fill="white"/>
<path d="M49.511 20.425C49.6853 20.425 49.8265 20.2837 49.8265 20.1095C49.8265 19.9352 49.6853 19.7939 49.511 19.7939C49.3367 19.7939 49.1955 19.9352 49.1955 20.1095C49.1955 20.2837 49.3368 20.425 49.511 20.425Z" fill="white"/>
<path d="M48.5323 13.2668C48.7066 13.2668 48.8478 13.1255 48.8478 12.9513C48.8478 12.777 48.7066 12.6357 48.5323 12.6357C48.358 12.6357 48.2168 12.777 48.2168 12.9513C48.2168 13.1255 48.358 13.2668 48.5323 13.2668Z" fill="white"/>
<path d="M48.5323 15.301C48.7066 15.301 48.8478 15.1597 48.8478 14.9854C48.8478 14.8112 48.7066 14.6699 48.5323 14.6699C48.358 14.6699 48.2168 14.8112 48.2168 14.9854C48.2168 15.1597 48.358 15.301 48.5323 15.301Z" fill="white"/>
<path d="M47.4738 14.3137C47.6481 14.3137 47.7893 14.1724 47.7893 13.9981C47.7893 13.8239 47.6481 13.6826 47.4738 13.6826C47.2995 13.6826 47.1583 13.8239 47.1583 13.9981C47.1583 14.1723 47.2995 14.3137 47.4738 14.3137Z" fill="white"/>
<path d="M47.4738 12.2883C47.6481 12.2883 47.7893 12.147 47.7893 11.9727C47.7893 11.7985 47.6481 11.6572 47.4738 11.6572C47.2995 11.6572 47.1583 11.7985 47.1583 11.9727C47.1583 12.147 47.2995 12.2883 47.4738 12.2883Z" fill="white"/>
<path d="M47.477 15.7256C47.3027 15.7256 47.1614 15.8668 47.1614 16.0411C47.1614 16.2154 47.3027 16.3566 47.477 16.3566C47.6512 16.3566 47.7925 16.2154 47.7925 16.0411C47.7925 15.8668 47.6512 15.7256 47.477 15.7256Z" fill="white"/>
<path d="M48.5323 17.3351C48.7066 17.3351 48.8478 17.1939 48.8478 17.0196C48.8478 16.8453 48.7066 16.7041 48.5323 16.7041C48.358 16.7041 48.2168 16.8453 48.2168 17.0196C48.2168 17.1939 48.358 17.3351 48.5323 17.3351Z" fill="white"/>
<path d="M47.477 17.7598C47.3027 17.7598 47.1614 17.901 47.1614 18.0753C47.1614 18.2496 47.3027 18.3908 47.477 18.3908C47.6512 18.3908 47.7925 18.2496 47.7925 18.0753C47.7925 17.901 47.6512 17.7598 47.477 17.7598Z" fill="white"/>
<path d="M48.5323 19.3693C48.7066 19.3693 48.8478 19.2281 48.8478 19.0538C48.8478 18.8795 48.7066 18.7383 48.5323 18.7383C48.358 18.7383 48.2168 18.8795 48.2168 19.0538C48.2168 19.228 48.358 19.3693 48.5323 19.3693Z" fill="white"/>
<path d="M47.477 19.7939C47.3027 19.7939 47.1614 19.9352 47.1614 20.1095C47.1614 20.2837 47.3027 20.425 47.477 20.425C47.6512 20.425 47.7925 20.2837 47.7925 20.1095C47.7925 19.9352 47.6512 19.7939 47.477 19.7939Z" fill="white"/>
<path d="M48.5323 21.4035C48.7066 21.4035 48.8478 21.2623 48.8478 21.088C48.8478 20.9137 48.7066 20.7725 48.5323 20.7725C48.358 20.7725 48.2168 20.9137 48.2168 21.088C48.2168 21.2623 48.358 21.4035 48.5323 21.4035Z" fill="white"/>
<path d="M47.477 21.8281C47.3027 21.8281 47.1614 21.9694 47.1614 22.1436C47.1614 22.3179 47.3027 22.4592 47.477 22.4592C47.6512 22.4592 47.7925 22.3179 47.7925 22.1436C47.7925 21.9694 47.6512 21.8281 47.477 21.8281Z" fill="white"/>
<path d="M46.6858 10.665C46.7285 10.7316 46.7695 10.7989 46.8087 10.867C46.7952 10.7843 46.7501 10.713 46.6858 10.665Z" fill="white"/>
<path d="M46.4982 16.7041C46.3239 16.7041 46.1827 16.8453 46.1827 17.0196C46.1827 17.1939 46.3239 17.3351 46.4982 17.3351C46.6725 17.3351 46.8137 17.1939 46.8137 17.0196C46.8137 16.8453 46.6725 16.7041 46.4982 16.7041Z" fill="white"/>
<path d="M45.4429 17.7598C45.2686 17.7598 45.1274 17.901 45.1274 18.0753C45.1274 18.2496 45.2686 18.3908 45.4429 18.3908C45.6172 18.3908 45.7584 18.2496 45.7584 18.0753C45.7584 17.901 45.6172 17.7598 45.4429 17.7598Z" fill="white"/>
<path d="M46.4982 18.7383C46.3239 18.7383 46.1827 18.8795 46.1827 19.0538C46.1827 19.2281 46.3239 19.3693 46.4982 19.3693C46.6725 19.3693 46.8137 19.2281 46.8137 19.0538C46.8137 18.8795 46.6725 18.7383 46.4982 18.7383Z" fill="white"/>
<path d="M45.4429 19.7939C45.2686 19.7939 45.1274 19.9352 45.1274 20.1095C45.1274 20.2837 45.2686 20.425 45.4429 20.425C45.6172 20.425 45.7584 20.2837 45.7584 20.1095C45.7584 19.9352 45.6172 19.7939 45.4429 19.7939Z" fill="white"/>
<path d="M46.4982 20.7725C46.3239 20.7725 46.1827 20.9137 46.1827 21.088C46.1827 21.2623 46.3239 21.4035 46.4982 21.4035C46.6725 21.4035 46.8137 21.2623 46.8137 21.088C46.8137 20.9137 46.6725 20.7725 46.4982 20.7725Z" fill="white"/>
<path d="M45.4429 21.8281C45.2686 21.8281 45.1274 21.9694 45.1274 22.1436C45.1274 22.3179 45.2686 22.4592 45.4429 22.4592C45.6172 22.4592 45.7584 22.3179 45.7584 22.1436C45.7584 21.9694 45.6172 21.8281 45.4429 21.8281Z" fill="white"/>
<path d="M46.4982 23.4377C46.6725 23.4377 46.8137 23.2964 46.8137 23.1222C46.8137 22.9479 46.6725 22.8066 46.4982 22.8066C46.3239 22.8066 46.1827 22.9479 46.1827 23.1222C46.1827 23.2964 46.324 23.4377 46.4982 23.4377Z" fill="white"/>
<path d="M45.4429 23.8623C45.2686 23.8623 45.1274 24.0036 45.1274 24.1778C45.1274 24.3521 45.2686 24.4933 45.4429 24.4933C45.6172 24.4933 45.7584 24.3521 45.7584 24.1778C45.7584 24.0036 45.6172 23.8623 45.4429 23.8623Z" fill="white"/>
<path d="M44.4641 18.7383C44.2899 18.7383 44.1486 18.8795 44.1486 19.0538C44.1486 19.2281 44.2899 19.3693 44.4641 19.3693C44.6384 19.3693 44.7797 19.2281 44.7797 19.0538C44.7797 18.8795 44.6384 18.7383 44.4641 18.7383Z" fill="white"/>
<path d="M43.4088 19.7939C43.2346 19.7939 43.0933 19.9352 43.0933 20.1095C43.0933 20.2837 43.2346 20.425 43.4088 20.425C43.5831 20.425 43.7244 20.2837 43.7244 20.1095C43.7244 19.9352 43.583 19.7939 43.4088 19.7939Z" fill="white"/>
<path d="M44.4641 20.7725C44.2899 20.7725 44.1486 20.9137 44.1486 21.088C44.1486 21.2623 44.2899 21.4035 44.4641 21.4035C44.6384 21.4035 44.7797 21.2623 44.7797 21.088C44.7797 20.9137 44.6384 20.7725 44.4641 20.7725Z" fill="white"/>
<path d="M43.4088 21.8281C43.2346 21.8281 43.0933 21.9694 43.0933 22.1436C43.0933 22.3179 43.2346 22.4592 43.4088 22.4592C43.5831 22.4592 43.7244 22.3179 43.7244 22.1436C43.7244 21.9694 43.583 21.8281 43.4088 21.8281Z" fill="white"/>
<path d="M44.4641 22.8066C44.2899 22.8066 44.1486 22.9479 44.1486 23.1222C44.1486 23.2964 44.2899 23.4377 44.4641 23.4377C44.6384 23.4377 44.7797 23.2964 44.7797 23.1222C44.7797 22.9479 44.6384 22.8066 44.4641 22.8066Z" fill="white"/>
<path d="M43.4088 23.8623C43.2346 23.8623 43.0933 24.0036 43.0933 24.1778C43.0933 24.3521 43.2346 24.4933 43.4088 24.4933C43.5831 24.4933 43.7244 24.3521 43.7244 24.1778C43.7244 24.0036 43.583 23.8623 43.4088 23.8623Z" fill="white"/>
<path d="M44.4641 24.8408C44.2899 24.8408 44.1486 24.9821 44.1486 25.1563C44.1486 25.3306 44.2899 25.4719 44.4641 25.4719C44.6384 25.4719 44.7797 25.3306 44.7797 25.1563C44.7797 24.9821 44.6384 24.8408 44.4641 24.8408Z" fill="white"/>
<path d="M43.4088 25.8955C43.2346 25.8955 43.0933 26.0368 43.0933 26.211C43.0933 26.3853 43.2346 26.5265 43.4088 26.5265C43.5831 26.5265 43.7244 26.3853 43.7244 26.211C43.7244 26.0368 43.583 25.8955 43.4088 25.8955Z" fill="white"/>
<path d="M42.4301 20.7725C42.2558 20.7725 42.1146 20.9137 42.1146 21.088C42.1146 21.2623 42.2558 21.4035 42.4301 21.4035C42.6044 21.4035 42.7456 21.2623 42.7456 21.088C42.7456 20.9137 42.6044 20.7725 42.4301 20.7725Z" fill="white"/>
<path d="M41.3747 21.8281C41.2004 21.8281 41.0592 21.9694 41.0592 22.1436C41.0592 22.3179 41.2004 22.4592 41.3747 22.4592C41.549 22.4592 41.6902 22.3179 41.6902 22.1436C41.6902 21.9694 41.549 21.8281 41.3747 21.8281Z" fill="white"/>
<path d="M42.4301 22.8066C42.2558 22.8066 42.1146 22.9479 42.1146 23.1222C42.1146 23.2964 42.2558 23.4377 42.4301 23.4377C42.6044 23.4377 42.7456 23.2964 42.7456 23.1222C42.7456 22.9479 42.6044 22.8066 42.4301 22.8066Z" fill="white"/>
<path d="M41.3747 23.8623C41.2004 23.8623 41.0592 24.0036 41.0592 24.1778C41.0592 24.3521 41.2004 24.4933 41.3747 24.4933C41.549 24.4933 41.6902 24.3521 41.6902 24.1778C41.6902 24.0036 41.549 23.8623 41.3747 23.8623Z" fill="white"/>
<path d="M42.4301 24.8408C42.2558 24.8408 42.1146 24.9821 42.1146 25.1563C42.1146 25.3306 42.2558 25.4719 42.4301 25.4719C42.6044 25.4719 42.7456 25.3306 42.7456 25.1563C42.7456 24.9821 42.6044 24.8408 42.4301 24.8408Z" fill="white"/>
<path d="M41.3747 25.8955C41.2004 25.8955 41.0592 26.0368 41.0592 26.211C41.0592 26.3853 41.2004 26.5265 41.3747 26.5265C41.549 26.5265 41.6902 26.3853 41.6902 26.211C41.6902 26.0368 41.549 25.8955 41.3747 25.8955Z" fill="white"/>
<path d="M42.4301 26.875C42.2558 26.875 42.1146 27.0162 42.1146 27.1905C42.1146 27.3648 42.2558 27.506 42.4301 27.506C42.6044 27.506 42.7456 27.3648 42.7456 27.1905C42.7456 27.0162 42.6044 26.875 42.4301 26.875Z" fill="white"/>
<path d="M41.3747 27.9297C41.2004 27.9297 41.0592 28.0709 41.0592 28.2452C41.0592 28.4195 41.2004 28.5607 41.3747 28.5607C41.549 28.5607 41.6902 28.4195 41.6902 28.2452C41.6902 28.0709 41.549 27.9297 41.3747 27.9297Z" fill="white"/>
<path d="M40.396 22.8066C40.2218 22.8066 40.0805 22.9479 40.0805 23.1222C40.0805 23.2964 40.2218 23.4377 40.396 23.4377C40.5703 23.4377 40.7115 23.2964 40.7115 23.1222C40.7115 22.9479 40.5702 22.8066 40.396 22.8066Z" fill="white"/>
<path d="M39.3407 23.8623C39.1664 23.8623 39.0251 24.0036 39.0251 24.1778C39.0251 24.3521 39.1664 24.4933 39.3407 24.4933C39.5149 24.4933 39.6562 24.3521 39.6562 24.1778C39.6562 24.0036 39.5149 23.8623 39.3407 23.8623Z" fill="white"/>
<path d="M40.396 24.8408C40.2218 24.8408 40.0805 24.9821 40.0805 25.1563C40.0805 25.3306 40.2218 25.4719 40.396 25.4719C40.5703 25.4719 40.7115 25.3306 40.7115 25.1563C40.7115 24.9821 40.5702 24.8408 40.396 24.8408Z" fill="white"/>
<path d="M39.3407 25.8955C39.1664 25.8955 39.0251 26.0368 39.0251 26.211C39.0251 26.3853 39.1664 26.5265 39.3407 26.5265C39.5149 26.5265 39.6562 26.3853 39.6562 26.211C39.6562 26.0368 39.5149 25.8955 39.3407 25.8955Z" fill="white"/>
<path d="M40.396 26.875C40.2218 26.875 40.0805 27.0162 40.0805 27.1905C40.0805 27.3648 40.2218 27.506 40.396 27.506C40.5703 27.506 40.7115 27.3648 40.7115 27.1905C40.7115 27.0162 40.5702 26.875 40.396 26.875Z" fill="white"/>
<path d="M39.3407 27.9297C39.1664 27.9297 39.0251 28.0709 39.0251 28.2452C39.0251 28.4195 39.1664 28.5607 39.3407 28.5607C39.5149 28.5607 39.6562 28.4195 39.6562 28.2452C39.6562 28.0709 39.5149 27.9297 39.3407 27.9297Z" fill="white"/>
<path d="M40.396 28.9082C40.2218 28.9082 40.0805 29.0494 40.0805 29.2237C40.0805 29.398 40.2218 29.5392 40.396 29.5392C40.5703 29.5392 40.7115 29.398 40.7115 29.2237C40.7115 29.0494 40.5702 28.9082 40.396 28.9082Z" fill="white"/>
<path d="M39.3407 29.9639C39.1664 29.9639 39.0251 30.1051 39.0251 30.2794C39.0251 30.4537 39.1664 30.5949 39.3407 30.5949C39.5149 30.5949 39.6562 30.4537 39.6562 30.2794C39.6562 30.1051 39.5149 29.9639 39.3407 29.9639Z" fill="white"/>
<path d="M38.3619 24.8408C38.1876 24.8408 38.0464 24.9821 38.0464 25.1563C38.0464 25.3306 38.1876 25.4719 38.3619 25.4719C38.5362 25.4719 38.6774 25.3306 38.6774 25.1563C38.6774 24.9821 38.5362 24.8408 38.3619 24.8408Z" fill="white"/>
<path d="M37.3066 25.8955C37.1323 25.8955 36.9911 26.0368 36.9911 26.211C36.9911 26.3853 37.1323 26.5265 37.3066 26.5265C37.4809 26.5265 37.6221 26.3853 37.6221 26.211C37.6221 26.0368 37.4809 25.8955 37.3066 25.8955Z" fill="white"/>
<path d="M38.3619 26.875C38.1876 26.875 38.0464 27.0162 38.0464 27.1905C38.0464 27.3648 38.1876 27.506 38.3619 27.506C38.5362 27.506 38.6774 27.3648 38.6774 27.1905C38.6774 27.0162 38.5362 26.875 38.3619 26.875Z" fill="white"/>
<path d="M37.3066 27.9297C37.1323 27.9297 36.9911 28.0709 36.9911 28.2452C36.9911 28.4195 37.1323 28.5607 37.3066 28.5607C37.4809 28.5607 37.6221 28.4195 37.6221 28.2452C37.6221 28.0709 37.4809 27.9297 37.3066 27.9297Z" fill="white"/>
<path d="M38.3619 28.9082C38.1876 28.9082 38.0464 29.0494 38.0464 29.2237C38.0464 29.398 38.1876 29.5392 38.3619 29.5392C38.5362 29.5392 38.6774 29.398 38.6774 29.2237C38.6774 29.0494 38.5362 28.9082 38.3619 28.9082Z" fill="white"/>
<path d="M37.3066 29.9639C37.1323 29.9639 36.9911 30.1051 36.9911 30.2794C36.9911 30.4537 37.1323 30.5949 37.3066 30.5949C37.4809 30.5949 37.6221 30.4537 37.6221 30.2794C37.6221 30.1051 37.4809 29.9639 37.3066 29.9639Z" fill="white"/>
<path d="M38.3619 30.9424C38.1876 30.9424 38.0464 31.0836 38.0464 31.2579C38.0464 31.4322 38.1876 31.5734 38.3619 31.5734C38.5362 31.5734 38.6774 31.4322 38.6774 31.2579C38.6774 31.0836 38.5362 30.9424 38.3619 30.9424Z" fill="white"/>
<path d="M37.3066 31.998C37.1323 31.998 36.9911 32.1393 36.9911 32.3136C36.9911 32.4878 37.1323 32.6291 37.3066 32.6291C37.4809 32.6291 37.6221 32.4878 37.6221 32.3136C37.6221 32.1393 37.4809 31.998 37.3066 31.998Z" fill="white"/>
<path d="M36.3278 26.875C36.1536 26.875 36.0123 27.0162 36.0123 27.1905C36.0123 27.3648 36.1536 27.506 36.3278 27.506C36.5021 27.506 36.6434 27.3648 36.6434 27.1905C36.6434 27.0162 36.5021 26.875 36.3278 26.875Z" fill="white"/>
<path d="M35.2726 27.9297C35.0983 27.9297 34.957 28.0709 34.957 28.2452C34.957 28.4195 35.0983 28.5607 35.2726 28.5607C35.4468 28.5607 35.5881 28.4195 35.5881 28.2452C35.5881 28.0709 35.4467 27.9297 35.2726 27.9297Z" fill="white"/>
<path d="M36.3278 28.9082C36.1536 28.9082 36.0123 29.0494 36.0123 29.2237C36.0123 29.398 36.1536 29.5392 36.3278 29.5392C36.5021 29.5392 36.6434 29.398 36.6434 29.2237C36.6434 29.0494 36.5021 28.9082 36.3278 28.9082Z" fill="white"/>
<path d="M35.2726 29.9639C35.0983 29.9639 34.957 30.1051 34.957 30.2794C34.957 30.4537 35.0983 30.5949 35.2726 30.5949C35.4468 30.5949 35.5881 30.4537 35.5881 30.2794C35.5881 30.1051 35.4467 29.9639 35.2726 29.9639Z" fill="white"/>
<path d="M36.3278 30.9424C36.1536 30.9424 36.0123 31.0836 36.0123 31.2579C36.0123 31.4322 36.1536 31.5734 36.3278 31.5734C36.5021 31.5734 36.6434 31.4322 36.6434 31.2579C36.6434 31.0836 36.5021 30.9424 36.3278 30.9424Z" fill="white"/>
<path d="M35.2726 31.998C35.0983 31.998 34.957 32.1393 34.957 32.3136C34.957 32.4878 35.0983 32.6291 35.2726 32.6291C35.4468 32.6291 35.5881 32.4878 35.5881 32.3136C35.5881 32.1393 35.4467 31.998 35.2726 31.998Z" fill="white"/>
<path d="M36.3278 32.9766C36.1536 32.9766 36.0123 33.1178 36.0123 33.2921C36.0123 33.4664 36.1536 33.6076 36.3278 33.6076C36.5021 33.6076 36.6434 33.4664 36.6434 33.2921C36.6434 33.1178 36.5021 32.9766 36.3278 32.9766Z" fill="white"/>
<path d="M35.2726 34.0322C35.0983 34.0322 34.957 34.1735 34.957 34.3477C34.957 34.522 35.0983 34.6633 35.2726 34.6633C35.4468 34.6633 35.5881 34.522 35.5881 34.3477C35.5881 34.1735 35.4467 34.0322 35.2726 34.0322Z" fill="white"/>
<path d="M34.2938 28.9082C34.1195 28.9082 33.9783 29.0494 33.9783 29.2237C33.9783 29.398 34.1195 29.5392 34.2938 29.5392C34.4681 29.5392 34.6093 29.398 34.6093 29.2237C34.6093 29.0494 34.4681 28.9082 34.2938 28.9082Z" fill="white"/>
<path d="M33.2384 29.9639C33.0642 29.9639 32.9229 30.1051 32.9229 30.2794C32.9229 30.4537 33.0642 30.5949 33.2384 30.5949C33.4127 30.5949 33.5539 30.4537 33.5539 30.2794C33.5539 30.1051 33.4127 29.9639 33.2384 29.9639Z" fill="white"/>
<path d="M34.2938 30.9424C34.1195 30.9424 33.9783 31.0836 33.9783 31.2579C33.9783 31.4322 34.1195 31.5734 34.2938 31.5734C34.4681 31.5734 34.6093 31.4322 34.6093 31.2579C34.6093 31.0836 34.4681 30.9424 34.2938 30.9424Z" fill="white"/>
<path d="M33.2384 31.998C33.0642 31.998 32.9229 32.1393 32.9229 32.3136C32.9229 32.4878 33.0642 32.6291 33.2384 32.6291C33.4127 32.6291 33.5539 32.4878 33.5539 32.3136C33.5539 32.1393 33.4127 31.998 33.2384 31.998Z" fill="white"/>
<path d="M34.2938 32.9766C34.1195 32.9766 33.9783 33.1178 33.9783 33.2921C33.9783 33.4664 34.1195 33.6076 34.2938 33.6076C34.4681 33.6076 34.6093 33.4664 34.6093 33.2921C34.6093 33.1178 34.4681 32.9766 34.2938 32.9766Z" fill="white"/>
<path d="M33.2384 34.0322C33.0642 34.0322 32.9229 34.1735 32.9229 34.3477C32.9229 34.522 33.0642 34.6633 33.2384 34.6633C33.4127 34.6633 33.5539 34.522 33.5539 34.3477C33.5539 34.1735 33.4127 34.0322 33.2384 34.0322Z" fill="white"/>
<path d="M34.2938 35.0107C34.1195 35.0107 33.9783 35.152 33.9783 35.3263C33.9783 35.5005 34.1195 35.6418 34.2938 35.6418C34.4681 35.6418 34.6093 35.5005 34.6093 35.3263C34.6093 35.152 34.4681 35.0107 34.2938 35.0107Z" fill="white"/>
<path d="M33.2384 36.0664C33.0642 36.0664 32.9229 36.2077 32.9229 36.3819C32.9229 36.5562 33.0642 36.6974 33.2384 36.6974C33.4127 36.6974 33.5539 36.5562 33.5539 36.3819C33.5539 36.2077 33.4127 36.0664 33.2384 36.0664Z" fill="white"/>
<path d="M32.2597 30.9424C32.0855 30.9424 31.9442 31.0836 31.9442 31.2579C31.9442 31.4322 32.0855 31.5734 32.2597 31.5734C32.434 31.5734 32.5752 31.4322 32.5752 31.2579C32.5752 31.0836 32.4339 30.9424 32.2597 30.9424Z" fill="white"/>
<path d="M31.2044 31.998C31.0301 31.998 30.8889 32.1393 30.8889 32.3136C30.8889 32.4878 31.0301 32.6291 31.2044 32.6291C31.3786 32.6291 31.5199 32.4878 31.5199 32.3136C31.5199 32.1393 31.3786 31.998 31.2044 31.998Z" fill="white"/>
<path d="M32.2597 32.9766C32.0855 32.9766 31.9442 33.1178 31.9442 33.2921C31.9442 33.4664 32.0855 33.6076 32.2597 33.6076C32.434 33.6076 32.5752 33.4664 32.5752 33.2921C32.5752 33.1178 32.4339 32.9766 32.2597 32.9766Z" fill="white"/>
<path d="M31.2044 34.0322C31.0301 34.0322 30.8889 34.1735 30.8889 34.3477C30.8889 34.522 31.0301 34.6633 31.2044 34.6633C31.3786 34.6633 31.5199 34.522 31.5199 34.3477C31.5199 34.1735 31.3786 34.0322 31.2044 34.0322Z" fill="white"/>
<path d="M32.2597 35.0107C32.0855 35.0107 31.9442 35.152 31.9442 35.3263C31.9442 35.5005 32.0855 35.6418 32.2597 35.6418C32.434 35.6418 32.5752 35.5005 32.5752 35.3263C32.5752 35.152 32.4339 35.0107 32.2597 35.0107Z" fill="white"/>
<path d="M31.2044 36.0664C31.0301 36.0664 30.8889 36.2077 30.8889 36.3819C30.8889 36.5562 31.0301 36.6974 31.2044 36.6974C31.3786 36.6974 31.5199 36.5562 31.5199 36.3819C31.5199 36.2077 31.3786 36.0664 31.2044 36.0664Z" fill="white"/>
<path d="M32.2597 37.0449C32.0855 37.0449 31.9442 37.1862 31.9442 37.3604C31.9442 37.5347 32.0855 37.676 32.2597 37.676C32.434 37.676 32.5752 37.5347 32.5752 37.3604C32.5752 37.1862 32.4339 37.0449 32.2597 37.0449Z" fill="white"/>
<path d="M31.2044 38.1006C31.0301 38.1006 30.8889 38.2418 30.8889 38.4161C30.8889 38.5904 31.0301 38.7316 31.2044 38.7316C31.3786 38.7316 31.5199 38.5904 31.5199 38.4161C31.5199 38.2418 31.3786 38.1006 31.2044 38.1006Z" fill="white"/>
<path d="M30.2256 32.9766C30.0513 32.9766 29.9101 33.1178 29.9101 33.2921C29.9101 33.4664 30.0513 33.6076 30.2256 33.6076C30.3999 33.6076 30.5411 33.4664 30.5411 33.2921C30.5411 33.1178 30.3999 32.9766 30.2256 32.9766Z" fill="white"/>
<path d="M29.1703 34.0322C28.996 34.0322 28.8548 34.1735 28.8548 34.3477C28.8548 34.522 28.996 34.6633 29.1703 34.6633C29.3446 34.6633 29.4858 34.522 29.4858 34.3477C29.4858 34.1735 29.3446 34.0322 29.1703 34.0322Z" fill="white"/>
<path d="M30.2256 35.0107C30.0513 35.0107 29.9101 35.152 29.9101 35.3263C29.9101 35.5005 30.0513 35.6418 30.2256 35.6418C30.3999 35.6418 30.5411 35.5005 30.5411 35.3263C30.5411 35.152 30.3999 35.0107 30.2256 35.0107Z" fill="white"/>
<path d="M29.1703 36.0664C28.996 36.0664 28.8548 36.2077 28.8548 36.3819C28.8548 36.5562 28.996 36.6974 29.1703 36.6974C29.3446 36.6974 29.4858 36.5562 29.4858 36.3819C29.4858 36.2077 29.3446 36.0664 29.1703 36.0664Z" fill="white"/>
<path d="M30.2256 37.0449C30.0513 37.0449 29.9101 37.1862 29.9101 37.3604C29.9101 37.5347 30.0513 37.676 30.2256 37.676C30.3999 37.676 30.5411 37.5347 30.5411 37.3604C30.5411 37.1862 30.3999 37.0449 30.2256 37.0449Z" fill="white"/>
<path d="M29.1703 38.1006C28.996 38.1006 28.8548 38.2418 28.8548 38.4161C28.8548 38.5904 28.996 38.7316 29.1703 38.7316C29.3446 38.7316 29.4858 38.5904 29.4858 38.4161C29.4858 38.2418 29.3446 38.1006 29.1703 38.1006Z" fill="white"/>
<path d="M30.2256 39.0791C30.0513 39.0791 29.9101 39.2203 29.9101 39.3946C29.9101 39.5689 30.0513 39.7101 30.2256 39.7101C30.3999 39.7101 30.5411 39.5689 30.5411 39.3946C30.5411 39.2203 30.3999 39.0791 30.2256 39.0791Z" fill="white"/>
<path d="M29.1703 40.1348C28.996 40.1348 28.8548 40.276 28.8548 40.4503C28.8548 40.6246 28.996 40.7658 29.1703 40.7658C29.3446 40.7658 29.4858 40.6246 29.4858 40.4503C29.4858 40.2761 29.3446 40.1348 29.1703 40.1348Z" fill="white"/>
<path d="M28.1916 35.0107C28.0173 35.0107 27.876 35.152 27.876 35.3263C27.876 35.5005 28.0173 35.6418 28.1916 35.6418C28.3658 35.6418 28.5071 35.5005 28.5071 35.3263C28.5071 35.152 28.3658 35.0107 28.1916 35.0107Z" fill="white"/>
<path d="M27.1363 36.0664C26.962 36.0664 26.8207 36.2077 26.8207 36.3819C26.8207 36.5562 26.962 36.6974 27.1363 36.6974C27.3105 36.6974 27.4518 36.5562 27.4518 36.3819C27.4518 36.2077 27.3104 36.0664 27.1363 36.0664Z" fill="white"/>
<path d="M28.1916 37.0449C28.0173 37.0449 27.876 37.1862 27.876 37.3604C27.876 37.5347 28.0173 37.676 28.1916 37.676C28.3658 37.676 28.5071 37.5347 28.5071 37.3604C28.5071 37.1862 28.3658 37.0449 28.1916 37.0449Z" fill="white"/>
<path d="M27.1363 38.1006C26.962 38.1006 26.8207 38.2418 26.8207 38.4161C26.8207 38.5904 26.962 38.7316 27.1363 38.7316C27.3105 38.7316 27.4518 38.5904 27.4518 38.4161C27.4518 38.2418 27.3104 38.1006 27.1363 38.1006Z" fill="white"/>
<path d="M28.1916 39.0791C28.0173 39.0791 27.876 39.2203 27.876 39.3946C27.876 39.5689 28.0173 39.7101 28.1916 39.7101C28.3658 39.7101 28.5071 39.5689 28.5071 39.3946C28.5071 39.2203 28.3658 39.0791 28.1916 39.0791Z" fill="white"/>
<path d="M27.1363 40.1348C26.962 40.1348 26.8207 40.276 26.8207 40.4503C26.8207 40.6246 26.962 40.7658 27.1363 40.7658C27.3105 40.7658 27.4518 40.6246 27.4518 40.4503C27.4518 40.2761 27.3104 40.1348 27.1363 40.1348Z" fill="white"/>
<path d="M28.1916 41.1133C28.0173 41.1133 27.876 41.2545 27.876 41.4288C27.876 41.6031 28.0173 41.7443 28.1916 41.7443C28.3658 41.7443 28.5071 41.6031 28.5071 41.4288C28.5071 41.2545 28.3658 41.1133 28.1916 41.1133Z" fill="white"/>
<path d="M27.1363 42.1689C26.962 42.1689 26.8207 42.3102 26.8207 42.4845C26.8207 42.6587 26.962 42.8 27.1363 42.8C27.3105 42.8 27.4518 42.6587 27.4518 42.4845C27.4518 42.3102 27.3104 42.1689 27.1363 42.1689Z" fill="white"/>
<path d="M26.1575 37.676C26.3318 37.676 26.473 37.5347 26.473 37.3604C26.473 37.1862 26.3318 37.0449 26.1575 37.0449C25.9832 37.0449 25.842 37.1862 25.842 37.3604C25.842 37.5347 25.9832 37.676 26.1575 37.676Z" fill="white"/>
<path d="M25.1021 38.1006C24.9278 38.1006 24.7866 38.2418 24.7866 38.4161C24.7866 38.5904 24.9278 38.7316 25.1021 38.7316C25.2764 38.7316 25.4176 38.5904 25.4176 38.4161C25.4176 38.2418 25.2764 38.1006 25.1021 38.1006Z" fill="white"/>
<path d="M26.1575 39.0791C25.9832 39.0791 25.842 39.2203 25.842 39.3946C25.842 39.5689 25.9832 39.7101 26.1575 39.7101C26.3318 39.7101 26.473 39.5689 26.473 39.3946C26.473 39.2203 26.3318 39.0791 26.1575 39.0791Z" fill="white"/>
<path d="M25.1021 40.1348C24.9278 40.1348 24.7866 40.276 24.7866 40.4503C24.7866 40.6246 24.9278 40.7658 25.1021 40.7658C25.2764 40.7658 25.4176 40.6246 25.4176 40.4503C25.4176 40.2761 25.2764 40.1348 25.1021 40.1348Z" fill="white"/>
<path d="M26.1575 41.1133C25.9832 41.1133 25.842 41.2545 25.842 41.4288C25.842 41.6031 25.9832 41.7443 26.1575 41.7443C26.3318 41.7443 26.473 41.6031 26.473 41.4288C26.473 41.2545 26.3318 41.1133 26.1575 41.1133Z" fill="white"/>
<path d="M25.1021 42.1689C24.9278 42.1689 24.7866 42.3102 24.7866 42.4845C24.7866 42.6587 24.9278 42.8 25.1021 42.8C25.2764 42.8 25.4176 42.6587 25.4176 42.4845C25.4176 42.3102 25.2764 42.1689 25.1021 42.1689Z" fill="white"/>
<path d="M26.1575 43.1475C25.9832 43.1475 25.842 43.2887 25.842 43.463C25.842 43.6372 25.9832 43.7785 26.1575 43.7785C26.3318 43.7785 26.473 43.6372 26.473 43.463C26.473 43.2887 26.3318 43.1475 26.1575 43.1475Z" fill="white"/>
<path d="M25.1021 44.2021C24.9278 44.2021 24.7866 44.3434 24.7866 44.5177C24.7866 44.6919 24.9278 44.8332 25.1021 44.8332C25.2764 44.8332 25.4176 44.6919 25.4176 44.5177C25.4176 44.3434 25.2764 44.2021 25.1021 44.2021Z" fill="white"/>
<path d="M24.1234 39.0791C23.9492 39.0791 23.8079 39.2203 23.8079 39.3946C23.8079 39.5689 23.9492 39.7101 24.1234 39.7101C24.2977 39.7101 24.439 39.5689 24.439 39.3946C24.439 39.2203 24.2976 39.0791 24.1234 39.0791Z" fill="white"/>
<path d="M23.0681 40.1348C22.8938 40.1348 22.7526 40.276 22.7526 40.4503C22.7526 40.6246 22.8938 40.7658 23.0681 40.7658C23.2424 40.7658 23.3836 40.6246 23.3836 40.4503C23.3836 40.2761 23.2424 40.1348 23.0681 40.1348Z" fill="white"/>
<path d="M24.1234 41.1133C23.9492 41.1133 23.8079 41.2545 23.8079 41.4288C23.8079 41.6031 23.9492 41.7443 24.1234 41.7443C24.2977 41.7443 24.439 41.6031 24.439 41.4288C24.439 41.2545 24.2976 41.1133 24.1234 41.1133Z" fill="white"/>
<path d="M23.0681 42.1689C22.8938 42.1689 22.7526 42.3102 22.7526 42.4845C22.7526 42.6587 22.8938 42.8 23.0681 42.8C23.2424 42.8 23.3836 42.6587 23.3836 42.4845C23.3836 42.3102 23.2424 42.1689 23.0681 42.1689Z" fill="white"/>
<path d="M24.1234 43.1475C23.9492 43.1475 23.8079 43.2887 23.8079 43.463C23.8079 43.6372 23.9492 43.7785 24.1234 43.7785C24.2977 43.7785 24.439 43.6372 24.439 43.463C24.439 43.2887 24.2976 43.1475 24.1234 43.1475Z" fill="white"/>
<path d="M23.0681 44.2021C22.8938 44.2021 22.7526 44.3434 22.7526 44.5177C22.7526 44.6919 22.8938 44.8332 23.0681 44.8332C23.2424 44.8332 23.3836 44.6919 23.3836 44.5177C23.3836 44.3434 23.2424 44.2021 23.0681 44.2021Z" fill="white"/>
<path d="M24.1234 45.1816C23.9492 45.1816 23.8079 45.3229 23.8079 45.4972C23.8079 45.6714 23.9492 45.8127 24.1234 45.8127C24.2977 45.8127 24.439 45.6714 24.439 45.4972C24.439 45.3229 24.2976 45.1816 24.1234 45.1816Z" fill="white"/>
<path d="M23.0681 46.2363C22.8938 46.2363 22.7526 46.3776 22.7526 46.5518C22.7526 46.7261 22.8938 46.8674 23.0681 46.8674C23.2424 46.8674 23.3836 46.7261 23.3836 46.5518C23.3836 46.3776 23.2424 46.2363 23.0681 46.2363Z" fill="white"/>
<path d="M22.0893 41.1133C21.915 41.1133 21.7737 41.2545 21.7737 41.4288C21.7737 41.6031 21.915 41.7443 22.0893 41.7443C22.2635 41.7443 22.4048 41.6031 22.4048 41.4288C22.4048 41.2545 22.2635 41.1133 22.0893 41.1133Z" fill="white"/>
<path d="M21.034 42.1689C20.8598 42.1689 20.7185 42.3102 20.7185 42.4845C20.7185 42.6587 20.8598 42.8 21.034 42.8C21.2083 42.8 21.3495 42.6587 21.3495 42.4845C21.3495 42.3102 21.2083 42.1689 21.034 42.1689Z" fill="white"/>
<path d="M22.0893 43.1475C21.915 43.1475 21.7737 43.2887 21.7737 43.463C21.7737 43.6372 21.915 43.7785 22.0893 43.7785C22.2635 43.7785 22.4048 43.6372 22.4048 43.463C22.4048 43.2887 22.2635 43.1475 22.0893 43.1475Z" fill="white"/>
<path d="M21.034 44.2021C20.8598 44.2021 20.7185 44.3434 20.7185 44.5177C20.7185 44.6919 20.8598 44.8332 21.034 44.8332C21.2083 44.8332 21.3495 44.6919 21.3495 44.5177C21.3495 44.3434 21.2083 44.2021 21.034 44.2021Z" fill="white"/>
<path d="M22.0893 45.1816C21.915 45.1816 21.7737 45.3229 21.7737 45.4972C21.7737 45.6714 21.915 45.8127 22.0893 45.8127C22.2635 45.8127 22.4048 45.6714 22.4048 45.4972C22.4048 45.3229 22.2635 45.1816 22.0893 45.1816Z" fill="white"/>
<path d="M21.034 46.2363C20.8598 46.2363 20.7185 46.3776 20.7185 46.5518C20.7185 46.7261 20.8598 46.8674 21.034 46.8674C21.2083 46.8674 21.3495 46.7261 21.3495 46.5518C21.3495 46.3776 21.2083 46.2363 21.034 46.2363Z" fill="white"/>
<path d="M22.0893 47.2148C21.915 47.2148 21.7737 47.3561 21.7737 47.5304C21.7737 47.7046 21.915 47.8459 22.0893 47.8459C22.2635 47.8459 22.4048 47.7046 22.4048 47.5304C22.4048 47.3561 22.2635 47.2148 22.0893 47.2148Z" fill="white"/>
<path d="M21.034 48.2705C20.8598 48.2705 20.7185 48.4118 20.7185 48.586C20.7185 48.7603 20.8598 48.9015 21.034 48.9015C21.2083 48.9015 21.3495 48.7603 21.3495 48.586C21.3495 48.4118 21.2083 48.2705 21.034 48.2705Z" fill="white"/>
<path d="M20.0553 43.1475C19.881 43.1475 19.7397 43.2887 19.7397 43.463C19.7397 43.6372 19.881 43.7785 20.0553 43.7785C20.2295 43.7785 20.3708 43.6372 20.3708 43.463C20.3708 43.2887 20.2295 43.1475 20.0553 43.1475Z" fill="white"/>
<path d="M19 44.2021C18.8257 44.2021 18.6844 44.3434 18.6844 44.5177C18.6844 44.6919 18.8257 44.8332 19 44.8332C19.1742 44.8332 19.3155 44.6919 19.3155 44.5177C19.3155 44.3434 19.1741 44.2021 19 44.2021Z" fill="white"/>
<path d="M20.0553 45.1816C19.881 45.1816 19.7397 45.3229 19.7397 45.4972C19.7397 45.6714 19.881 45.8127 20.0553 45.8127C20.2295 45.8127 20.3708 45.6714 20.3708 45.4972C20.3708 45.3229 20.2295 45.1816 20.0553 45.1816Z" fill="white"/>
<path d="M19 46.2363C18.8257 46.2363 18.6844 46.3776 18.6844 46.5518C18.6844 46.7261 18.8257 46.8674 19 46.8674C19.1742 46.8674 19.3155 46.7261 19.3155 46.5518C19.3155 46.3776 19.1741 46.2363 19 46.2363Z" fill="white"/>
<path d="M20.0553 47.2148C19.881 47.2148 19.7397 47.3561 19.7397 47.5304C19.7397 47.7046 19.881 47.8459 20.0553 47.8459C20.2295 47.8459 20.3708 47.7046 20.3708 47.5304C20.3708 47.3561 20.2295 47.2148 20.0553 47.2148Z" fill="black"/>
<path d="M19 48.2705C18.8257 48.2705 18.6844 48.4118 18.6844 48.586C18.6844 48.7603 18.8257 48.9015 19 48.9015C19.1742 48.9015 19.3155 48.7603 19.3155 48.586C19.3155 48.4118 19.1741 48.2705 19 48.2705Z" fill="white"/>
<path d="M20.0553 49.249C19.881 49.249 19.7397 49.3903 19.7397 49.5645C19.7397 49.7388 19.881 49.8801 20.0553 49.8801C20.2295 49.8801 20.3708 49.7388 20.3708 49.5645C20.3708 49.3903 20.2295 49.249 20.0553 49.249Z" fill="white"/>
<path d="M19 50.3047C18.8257 50.3047 18.6844 50.4459 18.6844 50.6202C18.6844 50.7945 18.8257 50.9357 19 50.9357C19.1742 50.9357 19.3155 50.7945 19.3155 50.6202C19.3155 50.4459 19.1741 50.3047 19 50.3047Z" fill="white"/>
<path d="M18.0212 45.1816C17.8469 45.1816 17.7057 45.3229 17.7057 45.4972C17.7057 45.6714 17.8469 45.8127 18.0212 45.8127C18.1955 45.8127 18.3367 45.6714 18.3367 45.4972C18.3367 45.3229 18.1955 45.1816 18.0212 45.1816Z" fill="white"/>
<path d="M16.9658 46.2363C16.7915 46.2363 16.6503 46.3776 16.6503 46.5518C16.6503 46.7261 16.7915 46.8674 16.9658 46.8674C17.1401 46.8674 17.2813 46.7261 17.2813 46.5518C17.2813 46.3776 17.1401 46.2363 16.9658 46.2363Z" fill="white"/>
<path d="M18.0212 47.2148C17.8469 47.2148 17.7057 47.3561 17.7057 47.5304C17.7057 47.7046 17.8469 47.8459 18.0212 47.8459C18.1955 47.8459 18.3367 47.7046 18.3367 47.5304C18.3367 47.3561 18.1955 47.2148 18.0212 47.2148Z" fill="white"/>
<path d="M16.9658 48.2705C16.7915 48.2705 16.6503 48.4118 16.6503 48.586C16.6503 48.7603 16.7915 48.9015 16.9658 48.9015C17.1401 48.9015 17.2813 48.7603 17.2813 48.586C17.2813 48.4118 17.1401 48.2705 16.9658 48.2705Z" fill="black"/>
<path d="M18.0212 49.8801C18.1955 49.8801 18.3367 49.7388 18.3367 49.5645C18.3367 49.3903 18.1955 49.249 18.0212 49.249C17.8469 49.249 17.7057 49.3903 17.7057 49.5645C17.7057 49.7388 17.8469 49.8801 18.0212 49.8801Z" fill="black"/>
<path d="M16.9658 50.3047C16.7915 50.3047 16.6503 50.4459 16.6503 50.6202C16.6503 50.7945 16.7915 50.9357 16.9658 50.9357C17.1401 50.9357 17.2813 50.7945 17.2813 50.6202C17.2813 50.4459 17.1401 50.3047 16.9658 50.3047Z" fill="black"/>
<path d="M18.0212 51.2832C17.8522 51.2832 17.7154 51.4164 17.7072 51.5834C17.9136 51.5728 18.1192 51.5485 18.3231 51.5121C18.2853 51.3803 18.1652 51.2832 18.0212 51.2832Z" fill="black"/>
<path d="M15.9871 47.2148C15.8129 47.2148 15.6716 47.3561 15.6716 47.5304C15.6716 47.7046 15.8129 47.8459 15.9871 47.8459C16.1614 47.8459 16.3027 47.7046 16.3027 47.5304C16.3027 47.3561 16.1613 47.2148 15.9871 47.2148Z" fill="black"/>
<path d="M14.6162 48.586C14.6162 48.7603 14.7575 48.9015 14.9317 48.9015C15.106 48.9015 15.2472 48.7603 15.2472 48.586C15.2472 48.4118 15.106 48.2705 14.9317 48.2705C14.7575 48.2706 14.6162 48.4119 14.6162 48.586Z" fill="black"/>
<path d="M13.6494 47.5382C13.6494 47.7124 13.7906 47.8537 13.9649 47.8537C14.1391 47.8537 14.2804 47.7124 14.2804 47.5382C14.2804 47.3639 14.1391 47.2227 13.9649 47.2227C13.7906 47.2227 13.6494 47.3639 13.6494 47.5382Z" fill="black"/>
<path d="M11.6139 47.5177C11.6139 47.6919 11.7551 47.8332 11.9294 47.8332C12.1037 47.8332 12.2449 47.6919 12.2449 47.5177C12.2449 47.3434 12.1037 47.2021 11.9294 47.2021C11.7551 47.2021 11.6139 47.3434 11.6139 47.5177Z" fill="black"/>
<path d="M15.9871 49.249C15.8129 49.249 15.6716 49.3903 15.6716 49.5645C15.6716 49.7388 15.8129 49.8801 15.9871 49.8801C16.1614 49.8801 16.3027 49.7388 16.3027 49.5645C16.3027 49.3903 16.1613 49.249 15.9871 49.249Z" fill="black"/>
<path d="M15.2472 50.6202C15.2472 50.4459 15.106 50.3047 14.9317 50.3047C14.7575 50.3047 14.6162 50.4459 14.6162 50.6202C14.6162 50.6477 14.6209 50.674 14.6275 50.6994C14.7451 50.7818 14.8652 50.859 14.9879 50.93C15.1353 50.9034 15.2472 50.7752 15.2472 50.6202Z" fill="black"/>
<path d="M15.9871 51.2832C15.9345 51.2832 15.8857 51.2973 15.842 51.3201C15.98 51.3677 16.1197 51.409 16.2605 51.444C16.2062 51.3484 16.1048 51.2832 15.9871 51.2832Z" fill="black"/>
<path d="M12.8977 48.9015C13.072 48.9015 13.2133 48.7603 13.2133 48.586C13.2133 48.4118 13.072 48.2705 12.8977 48.2705C12.7235 48.2705 12.5822 48.4118 12.5822 48.586C12.5822 48.7603 12.7235 48.9015 12.8977 48.9015Z" fill="black"/>
<path d="M13.953 49.8801C14.1272 49.8801 14.2685 49.7388 14.2685 49.5645C14.2685 49.3903 14.1272 49.249 13.953 49.249C13.7787 49.249 13.6375 49.3903 13.6375 49.5645C13.6375 49.7388 13.7788 49.8801 13.953 49.8801Z" fill="black"/>
<path d="M10.8637 46.8678C10.8946 46.8678 10.9239 46.8619 10.9522 46.8537C10.8164 46.7791 10.6836 46.6978 10.5538 46.6094C10.5809 46.7563 10.709 46.8678 10.8637 46.8678Z" fill="black"/>
<path d="M50.4362 13.6764L48.7734 12.0135L50.2383 10.5486C52.5822 8.20476 52.5822 4.39091 50.2383 2.04703L49.9501 1.75885C47.6061 -0.585031 43.7924 -0.584929 41.4485 1.75885L39.7055 3.50207C39.611 3.49435 39.5144 3.48856 39.4163 3.4851C37.5638 2.88678 35.4479 3.32038 33.9794 4.78873L4.79049 33.9774C3.32193 35.4461 2.88844 37.5625 3.48726 39.4149C3.49072 39.5127 3.49651 39.6089 3.50423 39.7031L1.7607 41.4466C0.625345 42.5821 0 44.0918 0 45.6975C0 47.3033 0.625345 48.8129 1.7607 49.9483L2.04878 50.2364C3.18424 51.3719 4.69385 51.9972 6.29959 51.9972C7.90532 51.9972 9.41503 51.3719 10.5504 50.2364L12.0153 48.7715L13.6781 50.4344C14.6866 51.4428 16.0274 51.9981 17.4536 51.9981C18.8797 51.9981 20.2205 51.4428 21.2289 50.4344L50.4362 21.2272C51.4447 20.2187 52 18.8779 52 17.4518C52 16.0256 51.4447 14.6849 50.4362 13.6764ZM42.0255 2.33582C43.0384 1.32291 44.3688 0.816458 45.6994 0.816458C46.8119 0.816458 47.9237 1.17191 48.8505 1.88018L46.949 2.22333C46.7273 2.26337 46.58 2.47554 46.62 2.69717C46.6601 2.91879 46.8719 3.06665 47.0939 3.0261L49.1823 2.64921L48.7213 4.79879C48.674 5.0191 48.8142 5.23595 49.0345 5.2832C49.0634 5.2894 49.0922 5.29234 49.1205 5.29234C49.3087 5.29234 49.4779 5.16136 49.5189 4.96991L49.9536 2.94349C51.6807 4.98262 51.5843 8.04908 49.6615 9.97186L48.1965 11.4367L46.3117 9.55178C45.3033 8.54335 43.9625 7.98801 42.5363 7.98801C41.3361 7.98801 40.1971 8.38269 39.2651 9.10843C39.2308 8.83905 39.1864 8.58989 39.147 8.37111C39.058 7.87756 38.9859 7.41053 39.0611 7.33533C39.1361 7.26024 39.6032 7.33229 40.0968 7.4213C41.1888 7.61823 43.0165 7.94798 44.5172 6.44731C44.8785 6.08596 45.0775 5.60552 45.0775 5.0945C45.0775 4.58347 44.8785 4.10313 44.5172 3.74168C44.1558 3.38033 43.6754 3.18137 43.1645 3.18137C42.6535 3.18137 42.173 3.38033 41.8117 3.74168C41.7367 3.81678 41.2695 3.74473 40.7759 3.65571C40.7564 3.65216 40.7361 3.6485 40.7161 3.64494L42.0255 2.33582ZM32.9137 15.3991C32.8804 15.1504 32.8393 14.9199 32.8025 14.7156C32.7135 14.2221 32.6414 13.7549 32.7167 13.6797C32.7917 13.6046 33.2589 13.6766 33.7526 13.7656C33.9567 13.8024 34.1873 13.8435 34.4361 13.8767L32.9137 15.3991ZM35.1883 13.1244C34.7263 13.1117 34.2854 13.0327 33.8972 12.9628C32.997 12.8005 32.5098 12.7329 32.1397 13.1029C31.7698 13.4729 31.8372 13.96 31.9996 14.8604C32.0696 15.2485 32.1486 15.6895 32.1613 16.1514L28.8438 19.4689C28.3819 19.4562 27.9409 19.3772 27.5527 19.3073C26.6523 19.145 26.1652 19.0774 25.7952 19.4475C25.4253 19.8174 25.4926 20.3045 25.655 21.2051C25.725 21.5932 25.8039 22.0341 25.8166 22.496L22.4991 25.8134C22.0372 25.8007 21.5962 25.7219 21.208 25.6518C20.3079 25.4896 19.8206 25.422 19.4505 25.7919C19.0805 26.162 19.148 26.649 19.3105 27.5493C19.3805 27.9374 19.4594 28.3784 19.4721 28.8403L16.1546 32.1578C15.6926 32.1451 15.2516 32.0662 14.8635 31.9962C13.963 31.8339 13.476 31.7664 13.1059 32.1364C12.736 32.5065 12.8034 32.9935 12.9658 33.8939C13.0358 34.282 13.1148 34.7229 13.1275 35.185L9.80981 38.5026C9.34787 38.4899 8.90685 38.4111 8.51868 38.3411C7.61826 38.1789 7.13101 38.1113 6.76092 38.4815C6.39074 38.8516 6.45821 39.3387 6.62059 40.2392C6.81082 41.2943 7.07126 42.7393 5.87229 43.9383C5.44459 44.3662 4.74832 44.3662 4.32041 43.9384C3.89261 43.5105 3.89261 42.8143 4.32041 42.3865C4.6905 42.0163 4.62302 41.5292 4.46074 40.6287C4.27052 39.5736 4.01008 38.1287 5.20904 36.9297C5.92656 36.2121 6.73227 36.0173 7.48972 36.0173C7.9978 36.0173 8.48433 36.105 8.90797 36.1813C9.80849 36.3436 10.2956 36.4109 10.6658 36.041C11.0358 35.671 10.9683 35.1838 10.806 34.2834C10.6156 33.2284 10.3551 31.7836 11.5541 30.5846C12.7529 29.3856 14.1978 29.6462 15.253 29.8364C16.1532 29.9986 16.6404 30.0661 17.0105 29.6963C17.3805 29.3262 17.313 28.8391 17.1506 27.9385C16.9603 26.8835 16.6999 25.4387 17.8987 24.24C19.0976 23.0411 20.5425 23.3017 21.5975 23.4919C22.4979 23.6544 22.9849 23.7219 23.3549 23.3519C23.725 22.982 23.6574 22.4948 23.4952 21.5943C23.3049 20.5393 23.0444 19.0943 24.2433 17.8955C25.4422 16.6965 26.8871 16.9572 27.9422 17.1474C28.8424 17.3097 29.3296 17.3773 29.6996 17.0074C30.0696 16.6374 30.0021 16.1502 29.8398 15.2498C29.6495 14.1948 29.389 12.7498 30.588 11.551C31.7868 10.352 33.2318 10.6127 34.2868 10.8029C35.1872 10.9653 35.6744 11.0327 36.0442 10.6628C36.4142 10.2929 36.3468 9.80582 36.1844 8.9054C35.994 7.85043 35.7335 6.40555 36.9324 5.20658C38.1312 4.00761 39.5761 4.26836 40.6312 4.45858C41.5315 4.62097 42.0187 4.68844 42.3885 4.31856C42.8163 3.89075 43.5126 3.89065 43.9404 4.31856C44.3683 4.74636 44.3683 5.44253 43.9404 5.87033C42.7416 7.0693 41.2968 6.80856 40.2417 6.61833C39.3412 6.45595 38.8541 6.38837 38.4843 6.75836C38.1144 7.12824 38.1818 7.61529 38.3442 8.51571C38.4142 8.90378 38.4932 9.34479 38.5059 9.80674L35.1883 13.1244ZM26.5689 21.7438C26.5357 21.4951 26.4947 21.2645 26.4578 21.0603C26.3688 20.5667 26.2968 20.0995 26.372 20.0243C26.4472 19.9492 26.9141 20.0212 27.408 20.1102C27.6121 20.147 27.8427 20.1881 28.0914 20.2214L26.5689 21.7438ZM20.2245 28.0882C20.1913 27.8394 20.1503 27.6089 20.1134 27.4046C20.0243 26.9111 19.9523 26.444 20.0275 26.3688C20.1024 26.2935 20.5695 26.3657 21.0634 26.4548C21.2675 26.4916 21.4981 26.5327 21.7468 26.566L20.2245 28.0882ZM13.8799 34.4328C13.8467 34.184 13.8056 33.9536 13.7688 33.7493C13.6798 33.2558 13.6077 32.7886 13.683 32.7134C13.7582 32.6382 14.2252 32.7102 14.719 32.7992C14.9231 32.836 15.1537 32.8771 15.4025 32.9103L13.8799 34.4328ZM10.0033 34.4283C10.0923 34.9219 10.1644 35.389 10.0892 35.4642C10.0139 35.5396 9.54663 35.4675 9.05277 35.3785C9.03337 35.3751 9.01324 35.3714 8.99333 35.3679L9.99252 34.3687C9.99608 34.3886 9.99973 34.4089 10.0033 34.4283ZM16.3479 28.0837C16.4369 28.5773 16.509 29.0444 16.4338 29.1195C16.3587 29.1946 15.8915 29.1226 15.3978 29.0337C15.3783 29.0303 15.3581 29.0266 15.3381 29.023L16.3371 28.024C16.3408 28.044 16.3443 28.0643 16.3479 28.0837ZM22.6924 21.7392C22.7814 22.2329 22.8534 22.7 22.7782 22.7752C22.7031 22.8504 22.236 22.7783 21.7424 22.6892C21.7229 22.6857 21.7027 22.6821 21.6827 22.6784L22.6817 21.6795C22.6852 21.6995 22.6888 21.7197 22.6924 21.7392ZM29.037 15.3947C29.126 15.8883 29.1981 16.3554 29.1229 16.4306C29.0479 16.5057 28.5806 16.4337 28.087 16.3447C28.0675 16.3412 28.0473 16.3376 28.0272 16.3339L29.0262 15.335C29.0298 15.355 29.0334 15.3752 29.037 15.3947ZM35.3815 9.05031C35.4705 9.54386 35.5426 10.0109 35.4674 10.086C35.3923 10.1612 34.9251 10.0891 34.4316 10.0001C34.4121 9.99656 34.3918 9.993 34.3718 9.98934L35.3707 8.99046C35.3743 9.01047 35.3779 9.0307 35.3815 9.05031ZM5.36736 34.5543L34.5562 5.36551C35.2459 4.67584 36.1042 4.25637 36.9995 4.10455C36.7804 4.24793 36.5646 4.42048 36.3554 4.6297C35.2761 5.70897 35.1436 6.95742 35.2276 7.97968L33.361 9.84617C32.3387 9.76223 31.0903 9.89484 30.011 10.974C28.9317 12.0533 28.7992 13.3017 28.8831 14.3241L27.0164 16.1908C25.994 16.1068 24.7455 16.2394 23.6663 17.3186C22.587 18.3979 22.4545 19.6463 22.5383 20.6687L20.6718 22.5353C19.6494 22.4513 18.4009 22.5839 17.3218 23.6631C16.2426 24.7424 16.11 25.9907 16.1939 27.0131L14.3273 28.8798C13.3049 28.7958 12.0564 28.9283 10.9772 30.0077C9.89781 31.0871 9.76531 32.3355 9.84924 33.3578L7.98235 35.2247C6.95999 35.1408 5.71153 35.2735 4.63217 36.3527C4.42335 36.5615 4.25111 36.7769 4.10783 36.9955C4.25975 36.1011 4.6783 35.2435 5.36736 34.5543ZM9.97362 49.6596C8.99231 50.641 7.68756 51.1815 6.29969 51.1815C5.09361 51.1815 3.95053 50.7729 3.02775 50.0218L4.97797 49.7217C5.20061 49.6875 5.35334 49.4792 5.31909 49.2565C5.28485 49.0339 5.07643 48.8813 4.8539 48.9154L2.75644 49.2382L3.27316 47.1012C3.3261 46.8822 3.19146 46.6618 2.97258 46.6088C2.7538 46.5562 2.53319 46.6904 2.48025 46.9094L1.9806 48.9759C1.2263 48.052 0.815876 46.9063 0.815876 45.6974C0.815876 44.3096 1.35637 43.0048 2.33778 42.0235L3.64741 40.7138C3.65096 40.7337 3.65462 40.7539 3.65818 40.7734C3.74719 41.2671 3.81914 41.7343 3.74384 41.8096C2.99798 42.5556 2.99798 43.7693 3.74384 44.5152C4.11677 44.8882 4.60666 45.0746 5.09655 45.0746C5.58645 45.0746 6.07634 44.8882 6.44937 44.5152C7.95004 43.0146 7.6206 41.1867 7.42366 40.0946C7.33465 39.6009 7.2627 39.1337 7.338 39.0585C7.4132 38.9831 7.88053 39.0551 8.37438 39.1441C8.59306 39.1835 8.84202 39.2278 9.1113 39.2621C8.38505 40.1943 7.99007 41.3337 7.99007 42.5343C7.99007 43.9605 8.5454 45.3013 9.55384 46.3098L11.4386 48.1946L9.97362 49.6596ZM49.8594 20.6503L20.6521 49.8575C18.8885 51.6213 16.0188 51.6212 14.2551 49.8575L10.1306 45.733C9.27623 44.8786 8.80575 43.7428 8.80575 42.5344C8.80575 41.3261 9.27623 40.1903 10.1306 39.3359L39.3377 10.1288C40.2195 9.24694 41.3779 8.80592 42.5362 8.80592C43.6946 8.80592 44.8529 9.24683 45.7348 10.1288L49.8593 14.2534C50.7136 15.1076 51.1841 16.2436 51.1841 17.4519C51.1842 18.6601 50.7137 19.796 49.8594 20.6503Z" fill="white"/>
</g>
<defs>
<clipPath id="clip0_640_27739">
<rect width="52" height="52" fill="white"/>
</clipPath>
</defs>
</svg>
