<svg width="52" height="52" viewBox="0 0 52 52" fill="none" xmlns="http://www.w3.org/2000/svg">
<g opacity="0.5">
<path d="M44.8358 18.1943C44.8358 18.369 44.9774 18.5107 45.1521 18.5107C45.3268 18.5107 45.4684 18.369 45.4684 18.1943C45.4684 18.1829 45.4661 18.172 45.465 18.1608C45.3027 18.082 45.1397 18.0058 44.976 17.9316C44.8915 17.9884 44.8358 18.0849 44.8358 18.1943Z" fill="white"/>
<path d="M46.2102 18.8594C46.0355 18.8594 45.8939 19.001 45.8939 19.1758C45.8939 19.3504 46.0355 19.492 46.2102 19.492C46.3849 19.492 46.5265 19.3503 46.5265 19.1758C46.5265 19.0009 46.3849 18.8594 46.2102 18.8594Z" fill="white"/>
<path d="M45.1521 19.918C44.9774 19.918 44.8358 20.0596 44.8358 20.2342C44.8358 20.409 44.9774 20.5506 45.1521 20.5506C45.3268 20.5506 45.4684 20.409 45.4684 20.2342C45.4684 20.0595 45.3268 19.918 45.1521 19.918Z" fill="white"/>
<path d="M46.2102 20.8984C46.0355 20.8984 45.8939 21.0401 45.8939 21.2148C45.8939 21.3895 46.0355 21.5311 46.2102 21.5311C46.3849 21.5311 46.5265 21.3894 46.5265 21.2148C46.5265 21.04 46.3849 20.8984 46.2102 20.8984Z" fill="white"/>
<path d="M45.1521 21.957C44.9774 21.957 44.8358 22.0987 44.8358 22.2733C44.8358 22.4481 44.9774 22.5897 45.1521 22.5897C45.3268 22.5897 45.4684 22.4481 45.4684 22.2733C45.4684 22.0986 45.3268 21.957 45.1521 21.957Z" fill="white"/>
<path d="M43.1129 17.8779C42.9383 17.8779 42.7966 18.0196 42.7966 18.1942C42.7966 18.369 42.9383 18.5106 43.1129 18.5106C43.2876 18.5106 43.4292 18.369 43.4292 18.1942C43.4292 18.0194 43.2876 17.8779 43.1129 17.8779Z" fill="white"/>
<path d="M44.171 18.8594C43.9964 18.8594 43.8547 19.001 43.8547 19.1758C43.8547 19.3504 43.9964 19.492 44.171 19.492C44.3457 19.492 44.4873 19.3503 44.4873 19.1758C44.4873 19.0009 44.3457 18.8594 44.171 18.8594Z" fill="white"/>
<path d="M43.1129 19.918C42.9383 19.918 42.7966 20.0596 42.7966 20.2342C42.7966 20.409 42.9383 20.5506 43.1129 20.5506C43.2876 20.5506 43.4292 20.409 43.4292 20.2342C43.4292 20.0595 43.2876 19.918 43.1129 19.918Z" fill="white"/>
<path d="M44.171 20.8984C43.9964 20.8984 43.8547 21.0401 43.8547 21.2148C43.8547 21.3895 43.9964 21.5311 44.171 21.5311C44.3457 21.5311 44.4873 21.3894 44.4873 21.2148C44.4873 21.04 44.3457 20.8984 44.171 20.8984Z" fill="white"/>
<path d="M43.1129 21.957C42.9383 21.957 42.7966 22.0987 42.7966 22.2733C42.7966 22.4481 42.9383 22.5897 43.1129 22.5897C43.2876 22.5897 43.4292 22.4481 43.4292 22.2733C43.4292 22.0986 43.2876 21.957 43.1129 21.957Z" fill="white"/>
<path d="M44.171 22.9375C43.9964 22.9375 43.8547 23.0791 43.8547 23.2539C43.8547 23.4285 43.9964 23.5702 44.171 23.5702C44.3457 23.5702 44.4873 23.4284 44.4873 23.2539C44.4873 23.079 44.3457 22.9375 44.171 22.9375Z" fill="white"/>
<path d="M43.1129 23.9961C42.9383 23.9961 42.7966 24.1377 42.7966 24.3124C42.7966 24.4871 42.9383 24.6287 43.1129 24.6287C43.2876 24.6287 43.4292 24.4871 43.4292 24.3124C43.4292 24.1376 43.2876 23.9961 43.1129 23.9961Z" fill="white"/>
<path d="M41.8154 17.1363C41.8154 17.3109 41.957 17.4525 42.1317 17.4525C42.3064 17.4525 42.448 17.3108 42.448 17.1363C42.448 17.0761 42.4302 17.0204 42.4012 16.9726C42.264 16.932 42.1268 16.893 41.9892 16.8555C41.8865 16.9077 41.8154 17.0131 41.8154 17.1363Z" fill="white"/>
<path d="M41.0737 17.8779C40.8991 17.8779 40.7574 18.0196 40.7574 18.1942C40.7574 18.369 40.8991 18.5106 41.0737 18.5106C41.2484 18.5106 41.39 18.369 41.39 18.1942C41.39 18.0194 41.2484 17.8779 41.0737 17.8779Z" fill="white"/>
<path d="M42.1318 18.8594C41.9572 18.8594 41.8156 19.001 41.8156 19.1758C41.8156 19.3504 41.9572 19.492 42.1318 19.492C42.3065 19.492 42.4481 19.3503 42.4481 19.1758C42.4481 19.0009 42.3065 18.8594 42.1318 18.8594Z" fill="white"/>
<path d="M41.0737 19.918C40.8991 19.918 40.7574 20.0596 40.7574 20.2342C40.7574 20.409 40.8991 20.5506 41.0737 20.5506C41.2484 20.5506 41.39 20.409 41.39 20.2342C41.39 20.0595 41.2484 19.918 41.0737 19.918Z" fill="white"/>
<path d="M42.1318 20.8984C41.9572 20.8984 41.8156 21.0401 41.8156 21.2148C41.8156 21.3895 41.9572 21.5311 42.1318 21.5311C42.3065 21.5311 42.4481 21.3894 42.4481 21.2148C42.4481 21.04 42.3065 20.8984 42.1318 20.8984Z" fill="white"/>
<path d="M41.0737 21.957C40.8991 21.957 40.7574 22.0987 40.7574 22.2733C40.7574 22.4481 40.8991 22.5897 41.0737 22.5897C41.2484 22.5897 41.39 22.4481 41.39 22.2733C41.39 22.0986 41.2484 21.957 41.0737 21.957Z" fill="white"/>
<path d="M42.1318 22.9375C41.9572 22.9375 41.8156 23.0791 41.8156 23.2539C41.8156 23.4285 41.9572 23.5702 42.1318 23.5702C42.3065 23.5702 42.4481 23.4284 42.4481 23.2539C42.4481 23.079 42.3065 22.9375 42.1318 22.9375Z" fill="white"/>
<path d="M42.1318 24.9766C41.9572 24.9766 41.8156 25.1182 41.8156 25.2929C41.8156 25.4676 41.9572 25.6092 42.1318 25.6092C42.3065 25.6092 42.4481 25.4675 42.4481 25.2929C42.4481 25.1181 42.3065 24.9766 42.1318 24.9766Z" fill="white"/>
<path d="M41.0737 26.0352C40.8991 26.0352 40.7574 26.1768 40.7574 26.3514C40.7574 26.5262 40.8991 26.6678 41.0737 26.6678C41.2484 26.6678 41.39 26.5262 41.39 26.3514C41.39 26.1767 41.2484 26.0352 41.0737 26.0352Z" fill="white"/>
<path d="M42.1318 27.0166C41.9572 27.0166 41.8156 27.1582 41.8156 27.3329C41.8156 27.5075 41.9572 27.6493 42.1318 27.6493C42.3065 27.6493 42.4481 27.5075 42.4481 27.3329C42.4481 27.1581 42.3065 27.0166 42.1318 27.0166Z" fill="white"/>
<path d="M41.0737 28.0742C40.8991 28.0742 40.7574 28.2158 40.7574 28.3905C40.7574 28.5653 40.8991 28.7069 41.0737 28.7069C41.2484 28.7069 41.39 28.5653 41.39 28.3905C41.39 28.2157 41.2484 28.0742 41.0737 28.0742Z" fill="white"/>
<path d="M40.0926 16.8203C39.918 16.8203 39.7764 16.9619 39.7764 17.1367C39.7764 17.3113 39.918 17.453 40.0926 17.453C40.2673 17.453 40.4089 17.3112 40.4089 17.1367C40.4089 16.9618 40.2673 16.8203 40.0926 16.8203Z" fill="white"/>
<path d="M39.0345 17.8779C38.8599 17.8779 38.7183 18.0196 38.7183 18.1942C38.7183 18.369 38.8599 18.5106 39.0345 18.5106C39.2092 18.5106 39.3508 18.369 39.3508 18.1942C39.3508 18.0194 39.2092 17.8779 39.0345 17.8779Z" fill="white"/>
<path d="M40.0926 18.8594C39.918 18.8594 39.7764 19.001 39.7764 19.1758C39.7764 19.3504 39.918 19.492 40.0926 19.492C40.2673 19.492 40.4089 19.3503 40.4089 19.1758C40.4089 19.0009 40.2673 18.8594 40.0926 18.8594Z" fill="white"/>
<path d="M39.0345 19.918C38.8599 19.918 38.7183 20.0596 38.7183 20.2342C38.7183 20.409 38.8599 20.5506 39.0345 20.5506C39.2092 20.5506 39.3508 20.409 39.3508 20.2342C39.3508 20.0595 39.2092 19.918 39.0345 19.918Z" fill="white"/>
<path d="M40.0926 20.8984C39.918 20.8984 39.7764 21.0401 39.7764 21.2148C39.7764 21.3895 39.918 21.5311 40.0926 21.5311C40.2673 21.5311 40.4089 21.3894 40.4089 21.2148C40.4089 21.04 40.2673 20.8984 40.0926 20.8984Z" fill="white"/>
<path d="M39.0345 21.957C38.8599 21.957 38.7183 22.0987 38.7183 22.2733C38.7183 22.4481 38.8599 22.5897 39.0345 22.5897C39.2092 22.5897 39.3508 22.4481 39.3508 22.2733C39.3508 22.0986 39.2092 21.957 39.0345 21.957Z" fill="white"/>
<path d="M40.0926 22.9375C39.918 22.9375 39.7764 23.0791 39.7764 23.2539C39.7764 23.4285 39.918 23.5702 40.0926 23.5702C40.2673 23.5702 40.4089 23.4284 40.4089 23.2539C40.4089 23.079 40.2673 22.9375 40.0926 22.9375Z" fill="white"/>
<path d="M39.0345 23.9961C38.8599 23.9961 38.7183 24.1377 38.7183 24.3124C38.7183 24.4871 38.8599 24.6287 39.0345 24.6287C39.2092 24.6287 39.3508 24.4871 39.3508 24.3124C39.3508 24.1376 39.2092 23.9961 39.0345 23.9961Z" fill="white"/>
<path d="M39.0345 26.0352C38.8599 26.0352 38.7183 26.1768 38.7183 26.3514C38.7183 26.5262 38.8599 26.6678 39.0345 26.6678C39.2092 26.6678 39.3508 26.5262 39.3508 26.3514C39.3508 26.1767 39.2092 26.0352 39.0345 26.0352Z" fill="white"/>
<path d="M40.0926 27.0166C39.918 27.0166 39.7764 27.1582 39.7764 27.3329C39.7764 27.5075 39.918 27.6493 40.0926 27.6493C40.2673 27.6493 40.4089 27.5075 40.4089 27.3329C40.4089 27.1581 40.2673 27.0166 40.0926 27.0166Z" fill="white"/>
<path d="M39.0345 28.0742C38.8599 28.0742 38.7183 28.2158 38.7183 28.3905C38.7183 28.5653 38.8599 28.7069 39.0345 28.7069C39.2092 28.7069 39.3508 28.5653 39.3508 28.3905C39.3508 28.2157 39.2092 28.0742 39.0345 28.0742Z" fill="white"/>
<path d="M40.0926 29.0557C39.918 29.0557 39.7764 29.1973 39.7764 29.3719C39.7764 29.5466 39.918 29.6883 40.0926 29.6883C40.2673 29.6883 40.4089 29.5466 40.4089 29.3719C40.4089 29.1972 40.2673 29.0557 40.0926 29.0557Z" fill="white"/>
<path d="M39.0345 30.1133C38.8599 30.1133 38.7183 30.2549 38.7183 30.4296C38.7183 30.6043 38.8599 30.7459 39.0345 30.7459C39.2092 30.7459 39.3508 30.6043 39.3508 30.4296C39.3508 30.2548 39.2092 30.1133 39.0345 30.1133Z" fill="white"/>
<path d="M39.0345 32.1523C38.8599 32.1523 38.7183 32.294 38.7183 32.4686C38.7183 32.6366 38.8497 32.7727 39.0151 32.783L39.316 32.3271C39.2639 32.2238 39.1581 32.1523 39.0345 32.1523Z" fill="white"/>
<path d="M38.0535 16.8203C37.8788 16.8203 37.7372 16.9619 37.7372 17.1367C37.7372 17.3113 37.8788 17.453 38.0535 17.453C38.2281 17.453 38.3697 17.3112 38.3697 17.1367C38.3697 16.9618 38.2281 16.8203 38.0535 16.8203Z" fill="white"/>
<path d="M36.9954 17.8779C36.8207 17.8779 36.6791 18.0196 36.6791 18.1942C36.6791 18.369 36.8207 18.5106 36.9954 18.5106C37.17 18.5106 37.3116 18.369 37.3116 18.1942C37.3116 18.0194 37.17 17.8779 36.9954 17.8779Z" fill="white"/>
<path d="M38.0535 18.8594C37.8788 18.8594 37.7372 19.001 37.7372 19.1758C37.7372 19.3504 37.8788 19.492 38.0535 19.492C38.2281 19.492 38.3697 19.3503 38.3697 19.1758C38.3697 19.0009 38.2281 18.8594 38.0535 18.8594Z" fill="white"/>
<path d="M36.9954 19.918C36.8207 19.918 36.6791 20.0596 36.6791 20.2342C36.6791 20.409 36.8207 20.5506 36.9954 20.5506C37.17 20.5506 37.3116 20.409 37.3116 20.2342C37.3116 20.0595 37.17 19.918 36.9954 19.918Z" fill="white"/>
<path d="M38.0535 20.8984C37.8788 20.8984 37.7372 21.0401 37.7372 21.2148C37.7372 21.3895 37.8788 21.5311 38.0535 21.5311C38.2281 21.5311 38.3697 21.3894 38.3697 21.2148C38.3697 21.04 38.2281 20.8984 38.0535 20.8984Z" fill="white"/>
<path d="M38.0535 22.9375C37.8788 22.9375 37.7372 23.0791 37.7372 23.2539C37.7372 23.4285 37.8788 23.5702 38.0535 23.5702C38.2281 23.5702 38.3697 23.4284 38.3697 23.2539C38.3697 23.079 38.2281 22.9375 38.0535 22.9375Z" fill="white"/>
<path d="M36.9954 23.9961C36.8207 23.9961 36.6791 24.1377 36.6791 24.3124C36.6791 24.4871 36.8207 24.6287 36.9954 24.6287C37.17 24.6287 37.3116 24.4871 37.3116 24.3124C37.3116 24.1376 37.17 23.9961 36.9954 23.9961Z" fill="white"/>
<path d="M38.0535 24.9766C37.8788 24.9766 37.7372 25.1182 37.7372 25.2929C37.7372 25.4676 37.8788 25.6092 38.0535 25.6092C38.2281 25.6092 38.3697 25.4675 38.3697 25.2929C38.3697 25.1181 38.2281 24.9766 38.0535 24.9766Z" fill="white"/>
<path d="M36.9954 26.0352C36.8207 26.0352 36.6791 26.1768 36.6791 26.3514C36.6791 26.5262 36.8207 26.6678 36.9954 26.6678C37.17 26.6678 37.3116 26.5262 37.3116 26.3514C37.3116 26.1767 37.17 26.0352 36.9954 26.0352Z" fill="white"/>
<path d="M38.0535 27.0166C37.8788 27.0166 37.7372 27.1582 37.7372 27.3329C37.7372 27.5075 37.8788 27.6493 38.0535 27.6493C38.2281 27.6493 38.3697 27.5075 38.3697 27.3329C38.3697 27.1581 38.2281 27.0166 38.0535 27.0166Z" fill="white"/>
<path d="M36.9954 28.0742C36.8207 28.0742 36.6791 28.2158 36.6791 28.3905C36.6791 28.5653 36.8207 28.7069 36.9954 28.7069C37.17 28.7069 37.3116 28.5653 37.3116 28.3905C37.3116 28.2157 37.17 28.0742 36.9954 28.0742Z" fill="white"/>
<path d="M38.0535 29.0557C37.8788 29.0557 37.7372 29.1973 37.7372 29.3719C37.7372 29.5466 37.8788 29.6883 38.0535 29.6883C38.2281 29.6883 38.3697 29.5466 38.3697 29.3719C38.3697 29.1972 38.2281 29.0557 38.0535 29.0557Z" fill="white"/>
<path d="M38.0535 31.0947C37.8788 31.0947 37.7372 31.2363 37.7372 31.411C37.7372 31.5857 37.8788 31.7274 38.0535 31.7274C38.2281 31.7274 38.3697 31.5857 38.3697 31.411C38.3697 31.2362 38.2281 31.0947 38.0535 31.0947Z" fill="white"/>
<path d="M36.9954 32.1523C36.8207 32.1523 36.6791 32.294 36.6791 32.4686C36.6791 32.6434 36.8207 32.785 36.9954 32.785C37.17 32.785 37.3116 32.6434 37.3116 32.4686C37.3116 32.2939 37.17 32.1523 36.9954 32.1523Z" fill="white"/>
<path d="M38.0535 33.1338C37.8788 33.1338 37.7372 33.2754 37.7372 33.4501C37.7372 33.6247 37.8788 33.7664 38.0535 33.7664C38.2281 33.7664 38.3697 33.6247 38.3697 33.4501C38.3697 33.2753 38.2281 33.1338 38.0535 33.1338Z" fill="white"/>
<path d="M36.9954 34.8241C37.17 34.8241 37.3116 34.6824 37.3116 34.5077C37.3116 34.333 37.17 34.1914 36.9954 34.1914C36.8207 34.1914 36.6791 34.333 36.6791 34.5077C36.6791 34.6824 36.8207 34.8241 36.9954 34.8241Z" fill="white"/>
<path d="M36.0143 16.8203C35.8396 16.8203 35.698 16.9619 35.698 17.1367C35.698 17.3113 35.8396 17.453 36.0143 17.453C36.1889 17.453 36.3306 17.3112 36.3306 17.1367C36.3306 16.9618 36.1889 16.8203 36.0143 16.8203Z" fill="white"/>
<path d="M34.9562 17.8779C34.7815 17.8779 34.6399 18.0196 34.6399 18.1942C34.6399 18.369 34.7815 18.5106 34.9562 18.5106C35.1308 18.5106 35.2724 18.369 35.2724 18.1942C35.2724 18.0194 35.1308 17.8779 34.9562 17.8779Z" fill="white"/>
<path d="M36.0143 18.8594C35.8396 18.8594 35.698 19.001 35.698 19.1758C35.698 19.3504 35.8396 19.492 36.0143 19.492C36.1889 19.492 36.3306 19.3503 36.3306 19.1758C36.3306 19.0009 36.1889 18.8594 36.0143 18.8594Z" fill="white"/>
<path d="M36.0143 20.8984C35.8396 20.8984 35.698 21.0401 35.698 21.2148C35.698 21.3895 35.8396 21.5311 36.0143 21.5311C36.1889 21.5311 36.3306 21.3894 36.3306 21.2148C36.3306 21.04 36.1889 20.8984 36.0143 20.8984Z" fill="white"/>
<path d="M34.9562 21.957C34.7815 21.957 34.6399 22.0987 34.6399 22.2733C34.6399 22.4481 34.7815 22.5897 34.9562 22.5897C35.1308 22.5897 35.2724 22.4481 35.2724 22.2733C35.2724 22.0986 35.1308 21.957 34.9562 21.957Z" fill="white"/>
<path d="M36.0143 22.9375C35.8396 22.9375 35.698 23.0791 35.698 23.2539C35.698 23.4285 35.8396 23.5702 36.0143 23.5702C36.1889 23.5702 36.3306 23.4284 36.3306 23.2539C36.3306 23.079 36.1889 22.9375 36.0143 22.9375Z" fill="white"/>
<path d="M34.9562 23.9961C34.7815 23.9961 34.6399 24.1377 34.6399 24.3124C34.6399 24.4871 34.7815 24.6287 34.9562 24.6287C35.1308 24.6287 35.2724 24.4871 35.2724 24.3124C35.2724 24.1376 35.1308 23.9961 34.9562 23.9961Z" fill="white"/>
<path d="M36.0143 24.9766C35.8396 24.9766 35.698 25.1182 35.698 25.2929C35.698 25.4676 35.8396 25.6092 36.0143 25.6092C36.1889 25.6092 36.3306 25.4675 36.3306 25.2929C36.3306 25.1181 36.1889 24.9766 36.0143 24.9766Z" fill="white"/>
<path d="M36.0143 27.0166C35.8396 27.0166 35.698 27.1582 35.698 27.3329C35.698 27.5075 35.8396 27.6493 36.0143 27.6493C36.1889 27.6493 36.3306 27.5075 36.3306 27.3329C36.3306 27.1581 36.1889 27.0166 36.0143 27.0166Z" fill="white"/>
<path d="M34.9562 28.0742C34.7815 28.0742 34.6399 28.2158 34.6399 28.3905C34.6399 28.5653 34.7815 28.7069 34.9562 28.7069C35.1308 28.7069 35.2724 28.5653 35.2724 28.3905C35.2724 28.2157 35.1308 28.0742 34.9562 28.0742Z" fill="white"/>
<path d="M36.0143 29.0557C35.8396 29.0557 35.698 29.1973 35.698 29.3719C35.698 29.5466 35.8396 29.6883 36.0143 29.6883C36.1889 29.6883 36.3306 29.5466 36.3306 29.3719C36.3306 29.1972 36.1889 29.0557 36.0143 29.0557Z" fill="white"/>
<path d="M34.9562 30.1133C34.7815 30.1133 34.6399 30.2549 34.6399 30.4296C34.6399 30.6043 34.7815 30.7459 34.9562 30.7459C35.1308 30.7459 35.2724 30.6043 35.2724 30.4296C35.2724 30.2548 35.1308 30.1133 34.9562 30.1133Z" fill="white"/>
<path d="M36.0143 31.0947C35.8396 31.0947 35.698 31.2363 35.698 31.411C35.698 31.5857 35.8396 31.7274 36.0143 31.7274C36.1889 31.7274 36.3306 31.5857 36.3306 31.411C36.3306 31.2362 36.1889 31.0947 36.0143 31.0947Z" fill="white"/>
<path d="M34.9562 32.785C35.1309 32.785 35.2725 32.6434 35.2725 32.4686C35.2725 32.294 35.1309 32.1523 34.9562 32.1523C34.8352 32.1523 34.7313 32.2211 34.6781 32.3209C34.7025 32.4487 34.7259 32.5767 34.7477 32.7049C34.8035 32.7541 34.876 32.785 34.9562 32.785Z" fill="white"/>
<path d="M36.0143 33.1338C35.8396 33.1338 35.698 33.2754 35.698 33.4501C35.698 33.6247 35.8396 33.7664 36.0143 33.7664C36.1889 33.7664 36.3306 33.6247 36.3306 33.4501C36.3306 33.2753 36.1889 33.1338 36.0143 33.1338Z" fill="white"/>
<path d="M36.0143 35.1729C35.8396 35.1729 35.698 35.3145 35.698 35.4891C35.698 35.6638 35.8396 35.8055 36.0143 35.8055C36.1889 35.8055 36.3306 35.6638 36.3306 35.4891C36.3306 35.3144 36.1889 35.1729 36.0143 35.1729Z" fill="white"/>
<path d="M33.9751 16.8203C33.8004 16.8203 33.6588 16.9619 33.6588 17.1367C33.6588 17.3113 33.8004 17.453 33.9751 17.453C34.1497 17.453 34.2914 17.3112 34.2914 17.1367C34.2914 16.9618 34.1497 16.8203 33.9751 16.8203Z" fill="white"/>
<path d="M32.9171 17.8779C32.7425 17.8779 32.6008 18.0196 32.6008 18.1942C32.6008 18.369 32.7425 18.5106 32.9171 18.5106C33.0918 18.5106 33.2334 18.369 33.2334 18.1942C33.2334 18.0194 33.0918 17.8779 32.9171 17.8779Z" fill="white"/>
<path d="M32.9171 19.918C32.7425 19.918 32.6008 20.0596 32.6008 20.2342C32.6008 20.409 32.7425 20.5506 32.9171 20.5506C33.0918 20.5506 33.2334 20.409 33.2334 20.2342C33.2334 20.0595 33.0918 19.918 32.9171 19.918Z" fill="white"/>
<path d="M33.9751 20.8984C33.8004 20.8984 33.6588 21.0401 33.6588 21.2148C33.6588 21.3895 33.8004 21.5311 33.9751 21.5311C34.1497 21.5311 34.2914 21.3894 34.2914 21.2148C34.2914 21.04 34.1497 20.8984 33.9751 20.8984Z" fill="white"/>
<path d="M32.9171 21.957C32.7425 21.957 32.6008 22.0987 32.6008 22.2733C32.6008 22.4481 32.7425 22.5897 32.9171 22.5897C33.0918 22.5897 33.2334 22.4481 33.2334 22.2733C33.2334 22.0986 33.0918 21.957 32.9171 21.957Z" fill="white"/>
<path d="M33.9751 22.9375C33.8004 22.9375 33.6588 23.0791 33.6588 23.2539C33.6588 23.4285 33.8004 23.5702 33.9751 23.5702C34.1497 23.5702 34.2914 23.4284 34.2914 23.2539C34.2914 23.079 34.1497 22.9375 33.9751 22.9375Z" fill="white"/>
<path d="M32.9171 23.9961C32.7425 23.9961 32.6008 24.1377 32.6008 24.3124C32.6008 24.4871 32.7425 24.6287 32.9171 24.6287C33.0918 24.6287 33.2334 24.4871 33.2334 24.3124C33.2334 24.1376 33.0918 23.9961 32.9171 23.9961Z" fill="white"/>
<path d="M33.9751 24.9766C33.8004 24.9766 33.6588 25.1182 33.6588 25.2929C33.6588 25.4676 33.8004 25.6092 33.9751 25.6092C34.1497 25.6092 34.2914 25.4675 34.2914 25.2929C34.2914 25.1181 34.1497 24.9766 33.9751 24.9766Z" fill="white"/>
<path d="M32.9171 26.0352C32.7425 26.0352 32.6008 26.1768 32.6008 26.3514C32.6008 26.5262 32.7425 26.6678 32.9171 26.6678C33.0918 26.6678 33.2334 26.5262 33.2334 26.3514C33.2334 26.1767 33.0918 26.0352 32.9171 26.0352Z" fill="white"/>
<path d="M33.9751 27.0166C33.8004 27.0166 33.6588 27.1582 33.6588 27.3329C33.6588 27.5075 33.8004 27.6493 33.9751 27.6493C34.1497 27.6493 34.2914 27.5075 34.2914 27.3329C34.2914 27.1581 34.1497 27.0166 33.9751 27.0166Z" fill="white"/>
<path d="M31.9359 16.8203C31.7612 16.8203 31.6196 16.9619 31.6196 17.1367C31.6196 17.3113 31.7612 17.453 31.9359 17.453C32.1106 17.453 32.2522 17.3112 32.2522 17.1367C32.2522 16.9618 32.1106 16.8203 31.9359 16.8203Z" fill="white"/>
<path d="M30.8779 17.8779C30.7033 17.8779 30.5616 18.0196 30.5616 18.1942C30.5616 18.369 30.7033 18.5106 30.8779 18.5106C31.0526 18.5106 31.1942 18.369 31.1942 18.1942C31.1942 18.0194 31.0526 17.8779 30.8779 17.8779Z" fill="white"/>
<path d="M31.9359 18.8594C31.7612 18.8594 31.6196 19.001 31.6196 19.1758C31.6196 19.3504 31.7612 19.492 31.9359 19.492C32.1106 19.492 32.2522 19.3503 32.2522 19.1758C32.2522 19.0009 32.1106 18.8594 31.9359 18.8594Z" fill="white"/>
<path d="M31.9359 20.8984C31.7612 20.8984 31.6196 21.0401 31.6196 21.2148C31.6196 21.3895 31.7612 21.5311 31.9359 21.5311C32.1106 21.5311 32.2522 21.3894 32.2522 21.2148C32.2522 21.04 32.1106 20.8984 31.9359 20.8984Z" fill="white"/>
<path d="M30.8779 21.957C30.7033 21.957 30.5616 22.0987 30.5616 22.2733C30.5616 22.4481 30.7033 22.5897 30.8779 22.5897C31.0526 22.5897 31.1942 22.4481 31.1942 22.2733C31.1942 22.0986 31.0526 21.957 30.8779 21.957Z" fill="white"/>
<path d="M31.9359 22.9375C31.7612 22.9375 31.6196 23.0791 31.6196 23.2539C31.6196 23.4285 31.7612 23.5702 31.9359 23.5702C32.1106 23.5702 32.2522 23.4284 32.2522 23.2539C32.2522 23.079 32.1106 22.9375 31.9359 22.9375Z" fill="white"/>
<path d="M28.8387 17.8779C28.6641 17.8779 28.5225 18.0196 28.5225 18.1942C28.5225 18.369 28.6641 18.5106 28.8387 18.5106C29.0134 18.5106 29.155 18.369 29.155 18.1942C29.155 18.0194 29.0134 17.8779 28.8387 17.8779Z" fill="white"/>
<path d="M29.8967 18.8594C29.7221 18.8594 29.5804 19.001 29.5804 19.1758C29.5804 19.3504 29.7221 19.492 29.8967 19.492C30.0714 19.492 30.213 19.3503 30.213 19.1758C30.213 19.0009 30.0714 18.8594 29.8967 18.8594Z" fill="white"/>
<path d="M29.155 20.2333C29.155 20.0586 29.0134 19.917 28.8387 19.917C28.6641 19.917 28.5225 20.0586 28.5225 20.2333C28.5225 20.408 28.6641 20.5496 28.8387 20.5496C29.0134 20.5496 29.155 20.408 29.155 20.2333Z" fill="white"/>
<path d="M29.8967 21.5311C30.0714 21.5311 30.213 21.3894 30.213 21.2148C30.213 21.0401 30.0714 20.8984 29.8967 20.8984C29.7221 20.8984 29.5804 21.0401 29.5804 21.2148C29.5803 21.3894 29.722 21.5311 29.8967 21.5311Z" fill="white"/>
<path d="M28.1738 19.1758C28.1738 19.001 28.0322 18.8594 27.8575 18.8594C27.6829 18.8594 27.5413 19.001 27.5413 19.1758C27.5413 19.3504 27.6829 19.492 27.8575 19.492C28.0322 19.4921 28.1738 19.3504 28.1738 19.1758Z" fill="white"/>
<path d="M33.411 22.7356C33.2529 22.7356 33.0935 22.6904 32.9539 22.596L30.8604 21.1821C30.6181 21.0186 30.4835 20.7466 30.5003 20.4546C30.5172 20.1619 30.6827 19.9066 30.9431 19.7716C32.2623 19.0872 33.6793 18.6381 35.1548 18.4367C35.4847 18.3916 35.7972 18.5398 35.9704 18.8229C36.1426 19.1044 36.1323 19.4478 35.9434 19.719L34.0871 22.3848C33.9283 22.6128 33.6714 22.7356 33.411 22.7356ZM35.2098 18.8408L35.265 19.2448C33.8822 19.4335 32.5545 19.8544 31.3186 20.4956H31.3185C31.3165 20.4967 31.3156 20.4975 31.3154 20.4977L33.4103 21.9201L35.2739 19.2529L35.2098 18.8408Z" fill="white"/>
<path d="M39.5487 25.7368C39.2088 25.7369 38.8767 25.6359 38.5881 25.4411L37.1275 24.4546C36.7421 24.1943 36.4829 23.7991 36.3976 23.3419C36.3124 22.8848 36.4119 22.4227 36.6776 22.0411L38.1399 19.9408C38.4596 19.4819 38.9852 19.2055 39.546 19.2013H39.5459C40.3504 19.1974 41.1545 19.2647 41.9372 19.4073C42.4667 19.5037 42.9107 19.8578 43.1247 20.3542C43.3405 20.8553 43.2922 21.4271 42.995 21.8838L40.9977 24.9527C40.7434 25.3433 40.3519 25.6094 39.8951 25.7019C39.7796 25.7252 39.6637 25.7368 39.5487 25.7368ZM39.552 20.017C39.2555 20.0192 38.9777 20.165 38.8092 20.407L37.3469 22.5072C37.2069 22.7082 37.1545 22.9516 37.1994 23.1924C37.2444 23.4332 37.3808 23.6414 37.584 23.7787L39.0446 24.7651C39.2479 24.9024 39.4922 24.9509 39.7331 24.9026C39.9738 24.8537 40.1801 24.7135 40.314 24.5078L42.3113 21.4389C42.4614 21.2082 42.4848 20.9306 42.3756 20.677C42.2683 20.4283 42.0552 20.2579 41.791 20.2098C41.0583 20.0761 40.3042 20.0112 39.552 20.017Z" fill="white"/>
<path d="M47.4934 19.5104C47.3591 18.9704 47.002 18.508 46.5139 18.2418C45.9161 17.9158 45.3061 17.6222 44.6864 17.36C44.6465 12.203 40.8477 7.92476 35.9001 7.13591C34.5154 2.99413 30.6016 0 26 0C21.3985 0 17.4852 2.99423 16.1006 7.13591C11.2834 7.90386 7.55548 11.9797 7.32536 16.9539C6.71932 17.1925 6.12143 17.4599 5.53476 17.7589C5.03985 18.0113 4.67025 18.4631 4.52098 18.9989C4.3712 19.5359 4.45389 20.1151 4.74774 20.5885L16.3487 39.279L23.6895 50.9445C24.1001 51.5969 24.8054 51.9914 25.5763 51.9999C25.5847 52 25.5931 52 25.6014 52C26.3625 52 27.0654 51.6222 27.4856 50.986L35.1386 39.3948L47.2223 21.0928C47.5292 20.6278 47.628 20.0512 47.4934 19.5104ZM43.8619 17.0341C37.9967 14.848 31.3731 15.4453 25.9405 18.7634C25.5166 18.4929 25.0848 18.2393 24.646 18.0027C24.6352 17.8171 24.6291 17.6302 24.6291 17.4419C24.6291 12.1368 28.9453 7.82076 34.2504 7.82076C39.4189 7.82076 43.6472 11.9175 43.8619 17.0341ZM26 0.815672C30.1069 0.815672 33.6202 3.40258 34.9981 7.03221C34.751 7.01457 34.5018 7.00509 34.2505 7.00509C30.8983 7.00509 27.9105 8.59412 25.9997 11.0581C24.0889 8.59433 21.1017 7.00509 17.7494 7.00509C17.4984 7.00509 17.2496 7.01447 17.0031 7.03201C18.3812 3.40268 21.8934 0.815672 26 0.815672ZM17.7494 7.82076C20.9282 7.82076 23.7508 9.37115 25.5035 11.7546C24.4353 13.3918 23.8135 15.3455 23.8135 17.4419C23.8135 17.4871 23.8157 17.5318 23.8164 17.5768C18.9266 15.2187 13.2805 14.8853 8.16183 16.6458C8.56794 11.7117 12.7124 7.82076 17.7494 7.82076ZM34.4083 39.0202L26.8048 50.5365C26.5365 50.9429 26.0874 51.1842 25.6011 51.1842C25.5958 51.1842 25.5905 51.1842 25.5851 51.1841C25.0926 51.1787 24.6421 50.9268 24.3798 50.51L17.0404 38.8466L5.44055 20.1583C5.26426 19.8743 5.21665 19.5402 5.30658 19.2179C5.3961 18.8968 5.60868 18.6367 5.90507 18.4855C8.71578 17.0531 11.7837 16.3446 14.8475 16.3446C18.644 16.3446 22.4334 17.4338 25.7115 19.5834C28.123 21.165 30.1221 23.2174 31.653 25.6837C34.1226 29.6626 35.0997 34.3954 34.4083 39.0202ZM33.769 27.9855L34.3251 27.1869C34.53 26.8927 34.8613 26.7344 35.1975 26.7344C35.4014 26.7344 35.6072 26.7926 35.7872 26.9143L37.0696 27.7804C37.5454 28.1016 37.6777 28.7546 37.3646 29.2358L36.1508 31.1011C35.9946 31.3411 35.754 31.5045 35.4733 31.5615C35.2866 31.5992 35.0985 31.5851 34.9233 31.5251C34.6471 30.3158 34.2608 29.1309 33.769 27.9855ZM46.5416 20.6433L35.3909 37.5318C35.3924 37.5094 35.3936 37.4871 35.3949 37.4647C35.5077 35.7616 35.4067 34.0576 35.1008 32.3917C35.153 32.3962 35.2055 32.3988 35.2584 32.3988C35.3835 32.3988 35.5096 32.3863 35.6351 32.3608C36.1318 32.2602 36.5577 31.9708 36.8342 31.5459L38.0481 29.6807C38.6025 28.8289 38.3682 27.6731 37.5258 27.1043L36.2437 26.2383C35.399 25.6679 34.2381 25.8843 33.6557 26.7206L33.3752 27.1234C33.0656 26.4852 32.7228 25.8607 32.3459 25.2534C30.8993 22.9228 29.0497 20.9483 26.8428 19.3718C26.8429 19.3717 26.8431 19.3717 26.8432 19.3716C26.792 19.3351 26.7416 19.2976 26.6901 19.2615C32.6567 15.7727 40.0449 15.6426 46.1234 18.9577C46.4158 19.1173 46.6214 19.3835 46.702 19.7073C46.7827 20.032 46.7257 20.3645 46.5416 20.6433Z" fill="white"/>
<path d="M18.3572 22.7355C18.0966 22.7355 17.8398 22.6128 17.6811 22.3849L15.8249 19.719C15.6361 19.4479 15.6257 19.1045 15.7979 18.823C15.9711 18.5398 16.2836 18.3915 16.6134 18.4367C18.0889 18.6381 19.5059 19.0872 20.8252 19.7717C21.0856 19.9068 21.2511 20.1621 21.268 20.4546C21.2848 20.7465 21.1502 21.0186 20.9079 21.1822L18.8143 22.5961C18.6746 22.6904 18.5152 22.7355 18.3572 22.7355ZM16.5031 19.2448L16.492 19.2522L18.3504 21.9187L20.4514 20.5062L20.4496 20.4956C19.2135 19.8544 17.8857 19.4335 16.5031 19.2448Z" fill="white"/>
<path d="M22.8674 28.5359C22.4133 28.5359 21.9655 28.3219 21.6888 27.9245L20.0743 25.6057C19.8535 25.289 19.7709 24.9053 19.8417 24.5256C19.9125 24.1459 20.1277 23.8179 20.4477 23.6018L21.8565 22.6504C22.3432 22.3215 22.9715 22.3211 23.4571 22.6486C24.3776 23.2692 25.2089 24.0139 25.9275 24.8619C26.1866 25.1676 26.3037 25.5718 26.2487 25.971C26.193 26.3749 25.9674 26.7373 25.6297 26.9653L23.6641 28.2926C23.421 28.4571 23.1429 28.5359 22.8674 28.5359ZM22.6588 23.2198C22.5386 23.2198 22.4182 23.2553 22.313 23.3264L20.9042 24.2777C20.7666 24.3706 20.674 24.5118 20.6436 24.675C20.6131 24.8383 20.6487 25.0032 20.7435 25.1395L22.358 27.4583C22.5495 27.733 22.9306 27.8039 23.2078 27.6167L25.1733 26.2892C25.3192 26.1907 25.4167 26.0341 25.4408 25.8596C25.4644 25.6872 25.4164 25.5201 25.3053 25.3891C24.635 24.5981 23.8597 23.9037 23.0011 23.3248C22.8973 23.2548 22.7782 23.2198 22.6588 23.2198Z" fill="white"/>
<path d="M12.2195 25.737C12.1044 25.737 11.9885 25.7255 11.873 25.7021C11.4164 25.6096 11.0249 25.3435 10.7707 24.9529L8.77338 21.8839C8.47617 21.4272 8.42764 20.8555 8.64359 20.3544C8.8576 19.858 9.30143 19.5039 9.83111 19.4074C10.6137 19.2648 11.4152 19.1962 12.2224 19.2015C12.7831 19.2056 13.3087 19.482 13.6284 19.941L15.0907 22.0411C15.3564 22.4229 15.4559 22.8847 15.3706 23.342C15.2854 23.7992 15.0262 24.1943 14.6408 24.4547L13.1801 25.4411C12.8916 25.6361 12.5594 25.737 12.2195 25.737ZM12.1258 20.0168C11.4029 20.0168 10.6806 20.0818 9.97742 20.21C9.71294 20.2582 9.49984 20.4285 9.39279 20.6772C9.28359 20.9307 9.30694 21.2084 9.45712 21.4392L11.4544 24.5081C11.5883 24.7139 11.7945 24.8541 12.0351 24.9028C12.2755 24.9512 12.5201 24.9027 12.7237 24.7653L14.1843 23.7789C14.3873 23.6417 14.524 23.4335 14.5688 23.1926C14.6136 22.9518 14.5613 22.7084 14.4214 22.5073L12.9591 20.4072C12.7906 20.1652 12.5128 20.0194 12.2163 20.0172C12.1863 20.017 12.156 20.0168 12.1258 20.0168Z" fill="white"/>
<path d="M26.5915 34.1589C26.5264 34.1589 26.4608 34.1526 26.3954 34.1399C26.129 34.088 25.899 33.9353 25.7475 33.7101L23.7629 30.7577C23.6081 30.5275 23.5548 30.2514 23.6126 29.9801C23.6704 29.7089 23.8318 29.4786 24.067 29.3317L26.6818 27.6976C26.9172 27.5507 27.2062 27.5066 27.4743 27.5763C27.7436 27.6462 27.9752 27.8263 28.1095 28.0701C28.7411 29.2165 29.1793 30.4485 29.4119 31.732C29.4836 32.1271 29.3144 32.528 28.9807 32.7532L27.1567 33.9849H27.1568C26.9875 34.0994 26.7918 34.1589 26.5915 34.1589ZM27.2186 28.3593C27.1884 28.3593 27.1517 28.366 27.1144 28.3894L24.4995 30.0235C24.4374 30.0622 24.417 30.1196 24.4105 30.1504C24.404 30.1812 24.3991 30.2419 24.4399 30.3027L26.4245 33.2552C26.4646 33.3146 26.5212 33.3335 26.5514 33.3393C26.5816 33.3451 26.6413 33.349 26.7006 33.3089H26.7007L28.5248 32.0771C28.5903 32.0327 28.6238 31.9545 28.6098 31.8774C28.3929 30.6811 27.9844 29.5325 27.3956 28.4638C27.359 28.3974 27.3008 28.3738 27.2695 28.3656C27.2568 28.3625 27.2391 28.3593 27.2186 28.3593Z" fill="white"/>
<path d="M30.1229 38.9208C29.7666 38.9208 29.4283 38.7485 29.2181 38.4466L28.0859 36.8205C27.9154 36.5757 27.8516 36.2792 27.9063 35.9859C27.9609 35.6925 28.1272 35.4391 28.3746 35.2721L29.652 34.4093C29.9883 34.1823 30.406 34.1554 30.7694 34.3375C31.1294 34.5178 31.356 34.8645 31.3753 35.2651C31.4194 36.174 31.3664 37.0914 31.2179 37.9921C31.1441 38.4396 30.811 38.7933 30.369 38.8932C30.2869 38.9118 30.2043 38.9208 30.1229 38.9208ZM30.1084 35.0853L28.8309 35.9481C28.766 35.992 28.7224 36.0585 28.7081 36.1355C28.6937 36.2123 28.7104 36.2901 28.7552 36.3544L29.8873 37.9804C29.988 38.125 30.1318 38.1105 30.189 38.0977C30.234 38.0874 30.3833 38.04 30.4131 37.8594C30.5521 37.0156 30.6019 36.156 30.5606 35.3045C30.5534 35.1571 30.4487 35.0892 30.4041 35.0667C30.3578 35.0437 30.2365 34.9991 30.1084 35.0853Z" fill="white"/>
<path d="M25.3613 46.529C25.3562 46.529 25.3511 46.529 25.346 46.5289C24.8026 46.5239 24.3011 46.2488 24.0046 45.7931L22.1364 42.9226C21.531 41.9923 21.7868 40.7301 22.7066 40.1088L23.9864 39.2446C24.9087 38.6213 26.1767 38.8578 26.8127 39.7713L27.8502 41.2616C28.2372 41.817 28.3236 42.5295 28.0814 43.1673C27.7261 44.1026 27.2635 44.9932 26.707 45.8147C26.4031 46.2627 25.901 46.529 25.3613 46.529ZM22.8201 42.4776L24.6883 45.3482C24.8376 45.5776 25.0801 45.7107 25.3537 45.7132H25.3616C25.634 45.7132 25.8778 45.5837 26.0314 45.3571C26.5527 44.588 26.9857 43.7538 27.3186 42.8776C27.4651 42.492 27.4136 42.0621 27.1807 41.7277L26.1431 40.2375C25.7605 39.6881 24.9976 39.5456 24.4425 39.9207L23.1629 40.7848C22.6097 41.1585 22.4558 41.918 22.8201 42.4776Z" fill="white"/>
<path d="M20.5952 38.921C20.4774 38.921 20.3589 38.9091 20.2405 38.8852C19.7733 38.7904 19.3728 38.5182 19.1129 38.1186L17.7825 36.0743C17.2609 35.2731 17.4813 34.1858 18.2736 33.6508L19.5671 32.7773C20.3612 32.2406 21.4534 32.4442 22.0013 33.2311L23.395 35.2326C23.6669 35.6232 23.7687 36.096 23.6815 36.5638C23.5943 37.0314 23.329 37.4357 22.9348 37.702L21.5781 38.6181C21.2828 38.8178 20.943 38.921 20.5952 38.921ZM20.0235 33.4533L18.7301 34.3268C18.3042 34.6144 18.1858 35.1988 18.4661 35.6294L19.7966 37.6738C19.9363 37.8885 20.1515 38.0348 20.4026 38.0857C20.6539 38.1366 20.9092 38.0857 21.1216 37.9422L22.4783 37.0261C22.6902 36.883 22.8328 36.6657 22.8796 36.4143C22.9265 36.1629 22.8718 35.9088 22.7256 35.6988L21.332 33.6974C21.0375 33.2745 20.4508 33.1651 20.0235 33.4533Z" fill="white"/>
<path d="M16.5097 32.3992C16.3846 32.3992 16.2585 32.3866 16.133 32.3611C15.6362 32.2605 15.2103 31.9711 14.9339 31.5463L13.7201 29.681C13.1657 28.8293 13.4 27.6735 14.2422 27.1046L15.5246 26.2386L15.5245 26.2387C16.3691 25.6679 17.5303 25.8846 18.1125 26.7211L19.3841 28.5471C19.6733 28.9623 19.7814 29.4649 19.6886 29.9621C19.5959 30.4595 19.314 30.8892 18.8947 31.1724L17.5546 32.0773C17.2408 32.2892 16.8795 32.3992 16.5097 32.3992ZM16.5709 26.7346C16.3669 26.7346 16.1612 26.7928 15.9812 26.9146L15.9811 26.9147L14.6987 27.7806C14.2229 28.1019 14.0906 28.7549 14.4037 29.2361L15.6176 31.1013C15.7738 31.3413 16.0144 31.5048 16.295 31.5618C16.5752 31.6183 16.8609 31.5616 17.0982 31.4015L18.4384 30.4965C18.6751 30.3365 18.8345 30.0938 18.8868 29.8128C18.9392 29.5318 18.8781 29.2479 18.7148 29.0133L17.4431 27.1872C17.2383 26.8931 16.9068 26.7346 16.5709 26.7346Z" fill="white"/>
</g>
</svg>
