<svg width="94" height="94" viewBox="0 0 94 94" fill="none" xmlns="http://www.w3.org/2000/svg">
<g opacity="0.5" clip-path="url(#clip0_640_27737)">
<path d="M58.9062 18.449C58.6782 18.53 58.5591 18.7805 58.6401 19.0085C58.721 19.2364 58.9715 19.3557 59.1995 19.2746C59.4276 19.1936 59.5468 18.943 59.4658 18.7151C59.3849 18.4872 59.1342 18.368 58.9062 18.449Z" fill="white"/>
<path d="M59.8519 21.1111C59.6239 21.1922 59.5047 21.4426 59.5858 21.6706C59.6667 21.8985 59.9172 22.0178 60.1452 21.9368C60.3732 21.8557 60.4925 21.6051 60.4115 21.3772C60.3305 21.1492 60.0799 21.0301 59.8519 21.1111Z" fill="white"/>
<path d="M61.688 21.9011C61.4599 21.9821 61.3407 22.2328 61.4217 22.4607C61.5027 22.6887 61.7533 22.8079 61.9813 22.7269C62.1684 22.6604 62.2802 22.4796 62.2703 22.291C62.2522 22.2216 62.2305 22.1524 62.2069 22.0834C62.1005 21.9117 61.8858 21.8308 61.688 21.9011Z" fill="white"/>
<path d="M60.7977 23.7723C60.5697 23.8533 60.4505 24.1037 60.5316 24.3317C60.6125 24.5596 60.863 24.6789 61.091 24.5979C61.319 24.5169 61.4383 24.2662 61.3573 24.0384C61.2763 23.8103 61.0257 23.6913 60.7977 23.7723Z" fill="white"/>
<path d="M55.2988 16.7332C55.0708 16.8142 54.9516 17.0647 55.0327 17.2928C55.1137 17.5207 55.3642 17.64 55.5922 17.559C55.8202 17.4779 55.9393 17.2274 55.8583 16.9995C55.7774 16.7713 55.5268 16.6522 55.2988 16.7332Z" fill="white"/>
<path d="M57.1349 17.5232C56.9068 17.6042 56.7876 17.8547 56.8686 18.0827C56.9496 18.3107 57.2 18.4299 57.4282 18.3488C57.6562 18.2678 57.7753 18.0174 57.6943 17.7893C57.6133 17.5613 57.3629 17.4422 57.1349 17.5232Z" fill="white"/>
<path d="M56.2445 19.3943C56.0165 19.4754 55.8973 19.7258 55.9783 19.9538C56.0593 20.1817 56.3098 20.301 56.5378 20.22C56.7658 20.1389 56.8849 19.8884 56.8039 19.6605C56.7231 19.4325 56.4725 19.3133 56.2445 19.3943Z" fill="white"/>
<path d="M58.0805 20.1843C57.8525 20.2654 57.7333 20.516 57.8143 20.7439C57.8953 20.9719 58.1457 21.091 58.3739 21.0099C58.6019 20.9289 58.721 20.6785 58.64 20.4505C58.559 20.2226 58.3086 20.1033 58.0805 20.1843Z" fill="white"/>
<path d="M57.1901 22.0565C56.9621 22.1375 56.843 22.3879 56.924 22.6159C57.005 22.8438 57.2555 22.9631 57.4835 22.8821C57.7115 22.801 57.8306 22.5505 57.7496 22.3226C57.6687 22.0945 57.4182 21.9754 57.1901 22.0565Z" fill="white"/>
<path d="M59.0262 22.8464C58.7982 22.9275 58.679 23.1781 58.7599 23.406C58.841 23.634 59.0915 23.7532 59.3196 23.6722C59.5476 23.5912 59.6668 23.3407 59.5857 23.1126C59.5047 22.8847 59.2542 22.7654 59.0262 22.8464Z" fill="white"/>
<path d="M58.1359 24.7186C57.9079 24.7996 57.7888 25.05 57.8698 25.278C57.9508 25.5059 58.2013 25.6252 58.4293 25.5442C58.6573 25.4632 58.7764 25.2126 58.6954 24.9847C58.6145 24.7566 58.364 24.6376 58.1359 24.7186Z" fill="white"/>
<path d="M59.972 25.5086C59.744 25.5896 59.6248 25.8402 59.7058 26.0681C59.7868 26.2961 60.0373 26.4154 60.2654 26.3343C60.4934 26.2533 60.6126 26.0028 60.5315 25.7747C60.4505 25.5468 60.2 25.4275 59.972 25.5086Z" fill="white"/>
<path d="M59.0816 27.3797C58.8536 27.4607 58.7345 27.7112 58.8155 27.9392C58.8965 28.1671 59.147 28.2865 59.375 28.2054C59.603 28.1244 59.7221 27.8739 59.6411 27.6458C59.5602 27.4178 59.3096 27.2987 59.0816 27.3797Z" fill="white"/>
<path d="M60.9176 28.1697C60.6896 28.2507 60.5703 28.5013 60.6513 28.7292C60.7323 28.9572 60.9828 29.0765 61.211 28.9954C61.439 28.9144 61.5581 28.6638 61.477 28.4358C61.3961 28.2079 61.1456 28.0887 60.9176 28.1697Z" fill="white"/>
<path d="M60.0273 30.0418C59.7993 30.1228 59.6802 30.3733 59.7612 30.6013C59.8422 30.8293 60.0927 30.9486 60.3207 30.8675C60.5487 30.7865 60.6678 30.5361 60.5868 30.3079C60.5059 30.0799 60.2553 29.9608 60.0273 30.0418Z" fill="white"/>
<path d="M61.8634 30.8318C61.6354 30.9128 61.5161 31.1633 61.5971 31.3913C61.6781 31.6192 61.9286 31.7385 62.1567 31.6574C62.3088 31.6034 62.4106 31.4734 62.4388 31.3256L62.3713 30.9993C62.2621 30.8383 62.0553 30.7636 61.8634 30.8318Z" fill="white"/>
<path d="M60.973 32.7029C60.745 32.784 60.6258 33.0344 60.7068 33.2624C60.7879 33.4904 61.0383 33.6096 61.2663 33.5285C61.4943 33.4475 61.6135 33.1971 61.5325 32.9691C61.4516 32.741 61.201 32.6219 60.973 32.7029Z" fill="white"/>
<path d="M61.9187 35.3651C61.6906 35.4461 61.5715 35.6965 61.6525 35.9245C61.7335 36.1525 61.984 36.2717 62.212 36.1907C62.44 36.1096 62.5591 35.8592 62.4781 35.6312C62.3973 35.4031 62.1467 35.284 61.9187 35.3651Z" fill="white"/>
<path d="M62.8643 38.0272C62.6363 38.1082 62.5172 38.3587 62.5982 38.5866C62.6792 38.8146 62.9297 38.9338 63.1577 38.8528C63.3857 38.7718 63.5048 38.5213 63.4238 38.2933C63.343 38.0654 63.0924 37.9461 62.8643 38.0272Z" fill="white"/>
<path d="M63.81 40.6883C63.582 40.7693 63.4629 41.0199 63.5439 41.2478C63.6249 41.4758 63.8753 41.5949 64.1034 41.5139C64.3314 41.4329 64.4505 41.1824 64.3695 40.9544C64.2887 40.7265 64.038 40.6073 63.81 40.6883Z" fill="white"/>
<path d="M66.6472 48.6736C66.4192 48.7547 66.3 49.0051 66.3811 49.2333C66.4621 49.4611 66.7125 49.5804 66.9406 49.4994C67.1279 49.4328 67.2396 49.2516 67.2294 49.0627C67.2108 48.9937 67.1899 48.9248 67.1663 48.8561C67.0601 48.6841 66.8453 48.6033 66.6472 48.6736Z" fill="white"/>
<path d="M53.5274 15.8074C53.2994 15.8884 53.1803 16.1389 53.2613 16.3669C53.3423 16.5949 53.5928 16.7142 53.8208 16.6332C54.0488 16.5522 54.168 16.3017 54.0869 16.0736C54.0059 15.8455 53.7554 15.7264 53.5274 15.8074Z" fill="white"/>
<path d="M52.6372 17.6785C52.4092 17.7595 52.29 18.01 52.3711 18.2381C52.452 18.466 52.7027 18.5852 52.9306 18.5043C53.1586 18.4233 53.2777 18.1727 53.1967 17.9448C53.1156 17.7166 52.8652 17.5975 52.6372 17.6785Z" fill="white"/>
<path d="M54.7664 19.2942C54.9945 19.2132 55.1136 18.9627 55.0326 18.7347C54.9516 18.5067 54.7011 18.3876 54.4731 18.4686C54.2451 18.5496 54.126 18.8 54.207 19.028C54.288 19.2561 54.5384 19.3752 54.7664 19.2942Z" fill="white"/>
<path d="M53.5828 20.3406C53.3548 20.4217 53.2357 20.6721 53.3167 20.9001C53.3977 21.128 53.6483 21.2472 53.8762 21.1662C54.1042 21.0852 54.2233 20.8347 54.1423 20.6068C54.0614 20.3789 53.8109 20.2596 53.5828 20.3406Z" fill="white"/>
<path d="M55.7122 21.9563C55.9403 21.8753 56.0594 21.6248 55.9784 21.3968C55.8974 21.1689 55.6469 21.0497 55.4189 21.1307C55.1909 21.2117 55.0718 21.4623 55.1528 21.6901C55.2338 21.9182 55.4842 22.0373 55.7122 21.9563Z" fill="white"/>
<path d="M54.5285 23.0018C54.3005 23.0828 54.1814 23.3332 54.2624 23.5612C54.3434 23.7891 54.594 23.9083 54.8219 23.8274C55.0499 23.7464 55.169 23.4958 55.088 23.2679C55.007 23.0399 54.7565 22.9208 54.5285 23.0018Z" fill="white"/>
<path d="M56.6578 24.6175C56.8859 24.5365 57.005 24.2861 56.9239 24.0579C56.843 23.8301 56.5925 23.7108 56.3645 23.7918C56.1364 23.8728 56.0174 24.1234 56.0983 24.3513C56.1794 24.5794 56.4298 24.6986 56.6578 24.6175Z" fill="white"/>
<path d="M55.4743 25.6639C55.2463 25.7449 55.1272 25.9953 55.2082 26.2234C55.2892 26.4512 55.5398 26.5705 55.7677 26.4895C55.9957 26.4085 56.1148 26.1579 56.0338 25.93C55.9528 25.702 55.7023 25.5829 55.4743 25.6639Z" fill="white"/>
<path d="M57.6036 27.2797C57.8317 27.1986 57.9508 26.9482 57.8697 26.7201C57.7888 26.4922 57.5383 26.3729 57.3103 26.4539C57.0822 26.5349 56.9632 26.7855 57.0441 27.0134C57.1251 27.2414 57.3756 27.3607 57.6036 27.2797Z" fill="white"/>
<path d="M56.42 28.326C56.192 28.407 56.0729 28.6574 56.1539 28.8855C56.2348 29.1133 56.4855 29.2327 56.7134 29.1517C56.9414 29.0707 57.0605 28.8201 56.9795 28.5921C56.8985 28.3641 56.648 28.245 56.42 28.326Z" fill="white"/>
<path d="M58.5493 29.9418C58.7773 29.8608 58.8964 29.6102 58.8154 29.3822C58.7344 29.1543 58.484 29.035 58.2559 29.116C58.0279 29.197 57.9088 29.4476 57.9898 29.6755C58.0708 29.9035 58.3213 30.0228 58.5493 29.9418Z" fill="white"/>
<path d="M57.3657 30.9871C57.1377 31.0681 57.0185 31.3186 57.0995 31.5466C57.1806 31.7746 57.4312 31.8938 57.6591 31.8129C57.8871 31.7318 58.0062 31.4814 57.9252 31.2533C57.8441 31.0252 57.5937 30.9061 57.3657 30.9871Z" fill="black"/>
<path d="M59.4951 32.6028C59.7231 32.5218 59.8422 32.2713 59.7612 32.0433C59.6802 31.8153 59.4297 31.6962 59.2017 31.7772C58.9738 31.8582 58.8546 32.1086 58.9356 32.3366C59.0166 32.5646 59.2671 32.6838 59.4951 32.6028Z" fill="black"/>
<path d="M58.3114 33.6492C58.0833 33.7302 57.9642 33.9807 58.0452 34.2087C58.1262 34.4367 58.3768 34.5558 58.6047 34.4748C58.8327 34.3938 58.9518 34.1434 58.8708 33.9154C58.7898 33.6873 58.5394 33.5682 58.3114 33.6492Z" fill="white"/>
<path d="M60.4408 35.2649C60.6687 35.1839 60.7879 34.9334 60.7069 34.7054C60.6259 34.4774 60.3754 34.3583 60.1474 34.4393C59.9194 34.5203 59.8003 34.7708 59.8813 34.9987C59.9623 35.2267 60.2128 35.3459 60.4408 35.2649Z" fill="white"/>
<path d="M59.257 36.3104C59.029 36.3914 58.9099 36.6418 58.9909 36.8698C59.0719 37.0979 59.3225 37.2169 59.5504 37.136C59.7784 37.055 59.8975 36.8045 59.8165 36.5765C59.7355 36.3485 59.4851 36.2293 59.257 36.3104Z" fill="white"/>
<path d="M61.3864 37.927C61.6144 37.846 61.7336 37.5955 61.6526 37.3675C61.5716 37.1395 61.3211 37.0204 61.0931 37.1014C60.8651 37.1824 60.746 37.4329 60.827 37.6609C60.908 37.8888 61.1585 38.008 61.3864 37.927Z" fill="white"/>
<path d="M60.2027 38.9725C59.9747 39.0535 59.8556 39.3041 59.9366 39.5319C60.0176 39.76 60.2682 39.879 60.4961 39.7981C60.7241 39.7171 60.8432 39.4666 60.7622 39.2386C60.6812 39.0107 60.4307 38.8915 60.2027 38.9725Z" fill="white"/>
<path d="M62.3321 40.5881C62.5601 40.5071 62.6793 40.2566 62.5983 40.0286C62.5172 39.8007 62.2668 39.6815 62.0388 39.7625C61.8108 39.8435 61.6916 40.094 61.7726 40.322C61.8536 40.55 62.1041 40.6691 62.3321 40.5881Z" fill="white"/>
<path d="M61.1485 41.6336C60.9205 41.7146 60.8014 41.9652 60.8824 42.1931C60.9634 42.4211 61.214 42.5402 61.4419 42.4592C61.6699 42.3782 61.789 42.1278 61.708 41.8997C61.627 41.6719 61.3765 41.5526 61.1485 41.6336Z" fill="white"/>
<path d="M63.2778 43.2502C63.5058 43.1692 63.6249 42.9188 63.5439 42.6908C63.4629 42.4627 63.2125 42.3436 62.9845 42.4246C62.7564 42.5056 62.6373 42.7561 62.7183 42.9841C62.7993 43.2121 63.0498 43.3312 63.2778 43.2502Z" fill="white"/>
<path d="M62.0942 44.2957C61.8662 44.3767 61.7471 44.6273 61.8281 44.8552C61.9091 45.0832 62.1597 45.2023 62.3875 45.1213C62.6156 45.0403 62.7347 44.7899 62.6537 44.5618C62.5727 44.334 62.3222 44.2147 62.0942 44.2957Z" fill="white"/>
<path d="M64.2235 45.9115C64.4515 45.8305 64.5707 45.58 64.4897 45.352C64.4086 45.124 64.1582 45.0047 63.9301 45.0858C63.7021 45.1668 63.583 45.4172 63.6641 45.6454C63.7451 45.8734 63.9955 45.9925 64.2235 45.9115Z" fill="white"/>
<path d="M63.0399 46.9578C62.8119 47.0388 62.6928 47.2894 62.7737 47.5173C62.8548 47.7453 63.1054 47.8645 63.3333 47.7836C63.5613 47.7026 63.6804 47.452 63.5994 47.224C63.5183 46.9959 63.2679 46.8768 63.0399 46.9578Z" fill="white"/>
<path d="M65.1692 48.5736C65.3972 48.4926 65.5164 48.2422 65.4353 48.0141C65.3543 47.7861 65.1038 47.6668 64.8758 47.7479C64.6478 47.8289 64.5287 48.0793 64.6097 48.3075C64.6907 48.5355 64.9412 48.6546 65.1692 48.5736Z" fill="white"/>
<path d="M63.9856 49.619C63.7575 49.7 63.6384 49.9504 63.7195 50.1786C63.8004 50.4064 64.0511 50.5257 64.2789 50.4447C64.507 50.3637 64.626 50.1131 64.5451 49.8852C64.464 49.6571 64.2136 49.5379 63.9856 49.619Z" fill="white"/>
<path d="M66.115 51.2356C66.343 51.1546 66.4621 50.9041 66.3811 50.6761C66.3001 50.4482 66.0496 50.329 65.8216 50.41C65.5936 50.491 65.4745 50.7416 65.5555 50.9694C65.6365 51.1975 65.8869 51.3166 66.115 51.2356Z" fill="white"/>
<path d="M64.9314 52.2811C64.7033 52.3621 64.5842 52.6125 64.6653 52.8407C64.7462 53.0686 64.9969 53.1878 65.2247 53.1068C65.4528 53.0258 65.5718 52.7752 65.4909 52.5473C65.4098 52.3192 65.1594 52.2001 64.9314 52.2811Z" fill="white"/>
<path d="M66.9373 53.0581L66.9349 53.0467C66.8795 53.0439 66.8227 53.0514 66.7672 53.0711C66.5392 53.1521 66.4201 53.4027 66.501 53.6306C66.5821 53.8586 66.8325 53.9777 67.0605 53.8967C67.2885 53.8157 67.4077 53.5653 67.3266 53.3372C67.3087 53.2867 67.2813 53.2426 67.2489 53.2038C67.1478 53.1493 67.0439 53.1002 66.9373 53.0581Z" fill="white"/>
<path d="M65.877 54.9432C65.649 55.0242 65.5299 55.2746 65.6109 55.5026C65.6919 55.7305 65.9425 55.8497 66.1704 55.7688C66.3984 55.6878 66.5175 55.4372 66.4365 55.2093C66.3555 54.9813 66.1051 54.8622 65.877 54.9432Z" fill="white"/>
<path d="M68.0063 56.5588C68.2343 56.4778 68.3535 56.2274 68.2724 55.9993C68.1915 55.7715 67.941 55.6522 67.713 55.7332C67.485 55.8142 67.3659 56.0648 67.4468 56.2927C67.5279 56.5207 67.7783 56.6398 68.0063 56.5588Z" fill="white"/>
<path d="M67.1161 58.4299C67.3441 58.3489 67.4632 58.0983 67.3822 57.8704C67.3012 57.6424 67.0507 57.5233 66.8227 57.6043C66.5947 57.6853 66.4756 57.9358 66.5566 58.1638C66.6374 58.3917 66.888 58.5109 67.1161 58.4299Z" fill="white"/>
<path d="M50.8657 16.7527C50.6377 16.8338 50.5185 17.0842 50.5995 17.3122C50.6806 17.5402 50.9311 17.6595 51.1591 17.5785C51.3871 17.4975 51.5062 17.247 51.4252 17.0189C51.3443 16.7908 51.0937 16.6717 50.8657 16.7527Z" fill="white"/>
<path d="M49.9754 18.6248C49.7474 18.7058 49.6283 18.9563 49.7093 19.1844C49.7903 19.4123 50.0408 19.5316 50.2688 19.4506C50.4968 19.3695 50.6159 19.119 50.5349 18.8911C50.4539 18.6629 50.2034 18.5438 49.9754 18.6248Z" fill="white"/>
<path d="M52.1047 20.2405C52.3327 20.1594 52.4518 19.909 52.3708 19.681C52.2898 19.453 52.0394 19.3338 51.8114 19.4149C51.5833 19.4959 51.4642 19.7463 51.5452 19.9743C51.6262 20.2023 51.8767 20.3215 52.1047 20.2405Z" fill="white"/>
<path d="M53.0505 22.9016C53.2785 22.8206 53.3977 22.5701 53.3166 22.3421C53.2357 22.1142 52.9852 21.995 52.7572 22.076C52.5291 22.157 52.4101 22.4076 52.491 22.6355C52.572 22.8635 52.8225 22.9826 53.0505 22.9016Z" fill="white"/>
<path d="M54.6485 27.3992C54.4205 27.4802 54.3014 27.7308 54.3824 27.9587C54.4634 28.1867 54.7139 28.306 54.9419 28.225C55.1699 28.144 55.2891 27.8935 55.208 27.6654C55.1272 27.4374 54.8765 27.3182 54.6485 27.3992Z" fill="white"/>
<path d="M53.7583 29.2709C53.5942 29.3292 53.4878 29.4758 53.4707 29.6383L53.5247 29.8992C53.6275 30.081 53.8481 30.169 54.0517 30.0966C54.2797 30.0156 54.3988 29.7651 54.3178 29.537C54.2368 29.309 53.9863 29.1899 53.7583 29.2709Z" fill="white"/>
<path d="M55.5942 30.0613C55.3662 30.1424 55.2471 30.3929 55.3281 30.6208C55.4091 30.8488 55.6596 30.9681 55.8876 30.8871C56.1156 30.8061 56.2347 30.5555 56.1537 30.3275C56.0728 30.0995 55.8222 29.9803 55.5942 30.0613Z" fill="white"/>
<path d="M54.7039 31.9334C54.4759 32.0144 54.3568 32.2649 54.4378 32.4929C54.5188 32.7209 54.7693 32.8402 54.9973 32.7591C55.2253 32.6781 55.3445 32.4277 55.2634 32.1995C55.1824 31.9715 54.932 31.8524 54.7039 31.9334Z" fill="white"/>
<path d="M57.1371 32.9774C57.0636 32.7467 56.817 32.6193 56.5864 32.6928C56.3557 32.7663 56.2283 33.0128 56.3018 33.2435C56.3752 33.4741 56.6218 33.6016 56.8525 33.5281C57.0831 33.4546 57.2105 33.2081 57.1371 32.9774Z" fill="white"/>
<path d="M55.6496 34.5945C55.4216 34.6756 55.3025 34.926 55.3835 35.154C55.4645 35.382 55.7149 35.5012 55.943 35.4201C56.171 35.3391 56.2901 35.0887 56.2091 34.8607C56.1281 34.6327 55.8776 34.5135 55.6496 34.5945Z" fill="white"/>
<path d="M54.8249 36.3289C54.5969 36.4099 54.4778 36.6604 54.5588 36.8884C54.6398 37.1164 54.8902 37.2355 55.1182 37.1545C55.3463 37.0735 55.4655 36.823 55.3845 36.595C55.3035 36.367 55.0529 36.2479 54.8249 36.3289Z" fill="white"/>
<path d="M56.0578 39.8176C56.2858 39.7366 56.405 39.4861 56.324 39.2581C56.243 39.0302 55.9925 38.911 55.7645 38.992C55.5365 39.073 55.4174 39.3235 55.4984 39.5515C55.5794 39.7795 55.8298 39.8986 56.0578 39.8176Z" fill="white"/>
<path d="M58.0846 35.6395C58.0111 35.4088 57.7645 35.2814 57.5339 35.3549C57.3032 35.4284 57.1758 35.6749 57.2493 35.9056C57.3228 36.1363 57.5693 36.2637 57.8 36.1902C58.0306 36.1167 58.158 35.8702 58.0846 35.6395Z" fill="white"/>
<path d="M56.5954 37.2567C56.3674 37.3377 56.2483 37.5881 56.3293 37.8161C56.4103 38.0441 56.6607 38.1633 56.8888 38.0823C57.1168 38.0012 57.2359 37.7508 57.1549 37.5228C57.0739 37.2948 56.8234 37.1756 56.5954 37.2567Z" fill="white"/>
<path d="M59.0322 38.3026C58.9587 38.0719 58.7122 37.9445 58.4815 38.018C58.2508 38.0915 58.1234 38.338 58.1969 38.5687C58.2704 38.7993 58.5169 38.9268 58.7476 38.8533C58.9783 38.7798 59.1057 38.5333 59.0322 38.3026Z" fill="white"/>
<path d="M57.541 39.9178C57.313 39.9988 57.1939 40.2494 57.2748 40.4773C57.3559 40.7053 57.6063 40.8244 57.8343 40.7434C58.0623 40.6624 58.1815 40.4119 58.1004 40.1839C58.0195 39.956 57.769 39.8368 57.541 39.9178Z" fill="white"/>
<path d="M59.9797 40.9647C59.9062 40.734 59.6597 40.6066 59.429 40.6801C59.1984 40.7536 59.0709 41.0001 59.1444 41.2308C59.2179 41.4615 59.4645 41.5889 59.6951 41.5154C59.9258 41.4419 60.0532 41.1954 59.9797 40.9647Z" fill="white"/>
<path d="M58.4868 42.5799C58.2588 42.6609 58.1397 42.9115 58.2206 43.1394C58.3017 43.3674 58.5521 43.4865 58.7801 43.4055C59.0081 43.3245 59.1273 43.074 59.0462 42.846C58.9653 42.6181 58.7148 42.4989 58.4868 42.5799Z" fill="black"/>
<path d="M60.3227 43.3699C60.0947 43.4509 59.9756 43.7014 60.0566 43.9294C60.1376 44.1574 60.388 44.2765 60.6161 44.1955C60.8441 44.1145 60.9632 43.8641 60.8822 43.6361C60.8013 43.408 60.5507 43.2889 60.3227 43.3699Z" fill="black"/>
<path d="M59.4325 45.242C59.2044 45.323 59.0854 45.5736 59.1663 45.8015C59.2473 46.0295 59.4978 46.1486 59.7258 46.0676C59.9538 45.9866 60.0729 45.7362 59.9919 45.5081C59.911 45.2803 59.6605 45.161 59.4325 45.242Z" fill="black"/>
<path d="M61.2684 46.032C61.0404 46.1131 60.9212 46.3635 61.0023 46.5916C61.0833 46.8197 61.3338 46.9388 61.5618 46.8578C61.7898 46.7768 61.9089 46.5263 61.8279 46.2983C61.747 46.0702 61.4964 45.951 61.2684 46.032Z" fill="black"/>
<path d="M60.3781 47.9031C60.1501 47.9842 60.031 48.2347 60.112 48.4626C60.193 48.6906 60.4435 48.8099 60.6715 48.7289C60.8995 48.6479 61.0186 48.3973 60.9376 48.1693C60.8566 47.9413 60.6062 47.8221 60.3781 47.9031Z" fill="black"/>
<path d="M62.2141 48.6932C61.9861 48.7742 61.8669 49.0246 61.948 49.2528C62.029 49.4808 62.2794 49.5999 62.5075 49.5189C62.7355 49.4379 62.8546 49.1875 62.7736 48.9594C62.6927 48.7312 62.4421 48.6122 62.2141 48.6932Z" fill="black"/>
<path d="M61.3239 50.5652C61.0959 50.6463 60.9768 50.8967 61.0578 51.1249C61.1388 51.3527 61.3893 51.472 61.6173 51.391C61.8453 51.31 61.9644 51.0594 61.8835 50.8315C61.8024 50.6034 61.552 50.4842 61.3239 50.5652Z" fill="black"/>
<path d="M63.1598 51.3553C62.9317 51.4363 62.8127 51.6869 62.8936 51.9148C62.9746 52.1428 63.2251 52.2619 63.4531 52.1809C63.6811 52.0999 63.8002 51.8494 63.7192 51.6214C63.6384 51.3935 63.3878 51.2743 63.1598 51.3553Z" fill="black"/>
<path d="M62.2696 53.2264C62.0416 53.3074 61.9225 53.5578 62.0035 53.786C62.0845 54.0139 62.335 54.1331 62.563 54.0521C62.791 53.9711 62.9101 53.7205 62.8291 53.4926C62.7481 53.2645 62.4976 53.1454 62.2696 53.2264Z" fill="black"/>
<path d="M64.1056 54.0164C63.8775 54.0974 63.7585 54.348 63.8394 54.5759C63.9204 54.8039 64.1709 54.923 64.3989 54.842C64.6269 54.761 64.746 54.5106 64.665 54.2826C64.5842 54.0546 64.3336 53.9354 64.1056 54.0164Z" fill="black"/>
<path d="M63.2153 55.8885C62.9873 55.9695 62.8681 56.2199 62.9492 56.448C63.0301 56.6758 63.2806 56.7951 63.5086 56.7141C63.7366 56.6331 63.8557 56.3825 63.7748 56.1546C63.6938 55.9266 63.4433 55.8075 63.2153 55.8885Z" fill="black"/>
<path d="M65.0512 56.6785C64.8232 56.7595 64.7041 57.0101 64.7851 57.238C64.8661 57.466 65.1166 57.5851 65.3446 57.5041C65.5726 57.4231 65.6917 57.1727 65.6107 56.9447C65.5299 56.7167 65.2792 56.5975 65.0512 56.6785Z" fill="black"/>
<path d="M64.161 58.5496C63.933 58.6306 63.8138 58.8811 63.8948 59.1091C63.9758 59.337 64.2263 59.4562 64.4543 59.3752C64.6823 59.2942 64.8014 59.0436 64.7204 58.8158C64.6394 58.5877 64.389 58.4686 64.161 58.5496Z" fill="black"/>
<path d="M65.9969 59.3406C65.7689 59.4217 65.6498 59.6722 65.7308 59.9001C65.8118 60.1281 66.0622 60.2473 66.2902 60.1662C66.5183 60.0852 66.6374 59.8348 66.5564 59.6068C66.4755 59.3788 66.2249 59.2596 65.9969 59.3406Z" fill="black"/>
<path d="M65.1067 61.2117C64.8786 61.2927 64.7595 61.5432 64.8405 61.7712C64.9215 61.9992 65.172 62.1184 65.4 62.0373C65.628 61.9563 65.7471 61.7059 65.6661 61.4779C65.5851 61.2498 65.3347 61.1307 65.1067 61.2117Z" fill="black"/>
<path d="M48.2041 17.699C47.9761 17.78 47.8568 18.0305 47.9378 18.2585C48.0188 18.4865 48.2694 18.6057 48.4975 18.5247C48.7255 18.4437 48.8446 18.1933 48.7635 17.9651C48.6825 17.7371 48.432 17.618 48.2041 17.699Z" fill="black"/>
<path d="M56.7154 41.6541C56.4874 41.7351 56.3681 41.9856 56.4492 42.2136C56.5301 42.4415 56.7807 42.5607 57.0088 42.4797C57.2368 42.3987 57.3559 42.1481 57.2749 41.9202C57.1939 41.6922 56.9433 41.5731 56.7154 41.6541Z" fill="black"/>
<path d="M57.6611 44.3152C57.4331 44.3962 57.3138 44.6467 57.3948 44.8747C57.4759 45.1027 57.7264 45.2218 57.9544 45.1408C58.1825 45.0598 58.3016 44.8093 58.2206 44.5813C58.1396 44.3533 57.889 44.2342 57.6611 44.3152Z" fill="black"/>
<path d="M58.6068 46.9773C58.3788 47.0583 58.2595 47.3088 58.3406 47.537C58.4216 47.765 58.6722 47.8841 58.9002 47.803C59.1282 47.722 59.2473 47.4716 59.1663 47.2436C59.0853 47.0156 58.8347 46.8963 58.6068 46.9773Z" fill="black"/>
<path d="M59.5525 49.6394C59.3244 49.7204 59.2052 49.9709 59.2862 50.1991C59.3673 50.4271 59.6178 50.5462 59.8458 50.4652C60.0739 50.3841 60.193 50.1337 60.112 49.9057C60.0309 49.6775 59.7803 49.5584 59.5525 49.6394Z" fill="black"/>
<path d="M57.7158 48.8513C57.4878 48.9323 57.3685 49.1828 57.4495 49.4109C57.5305 49.6389 57.7811 49.758 58.0091 49.6769C58.2372 49.5959 58.3563 49.3455 58.2753 49.1175C58.1943 48.8894 57.9437 48.7704 57.7158 48.8513Z" fill="black"/>
<path d="M60.4983 52.3005C60.2702 52.3816 60.151 52.6322 60.232 52.8601C60.313 53.0881 60.5636 53.2072 60.7916 53.1262C61.0196 53.0451 61.1388 52.7947 61.0577 52.5667C60.9768 52.3388 60.7261 52.2196 60.4983 52.3005Z" fill="black"/>
<path d="M59.6079 54.1727C59.3799 54.2537 59.2607 54.5041 59.3418 54.7323C59.4228 54.9602 59.6732 55.0794 59.9013 54.9984C60.1293 54.9174 60.2484 54.6668 60.1674 54.4389C60.0865 54.2107 59.8359 54.0917 59.6079 54.1727Z" fill="black"/>
<path d="M61.4439 54.9627C61.2159 55.0437 61.0967 55.2943 61.1777 55.5222C61.2587 55.7502 61.5093 55.8693 61.7373 55.7883C61.9653 55.7072 62.0844 55.4568 62.0034 55.2288C61.9224 55.0009 61.6718 54.8817 61.4439 54.9627Z" fill="black"/>
<path d="M60.5467 56.8377C60.3187 56.9187 60.1995 57.1693 60.2805 57.3972C60.3615 57.6252 60.612 57.7443 60.8401 57.6633C61.0681 57.5823 61.1872 57.3318 61.1062 57.1038C61.0252 56.8759 60.7746 56.7567 60.5467 56.8377Z" fill="black"/>
<path d="M62.3896 57.6238C62.1616 57.7048 62.0424 57.9554 62.1234 58.1833C62.2044 58.4113 62.4549 58.5304 62.683 58.4494C62.911 58.3684 63.0301 58.1179 62.9491 57.8899C62.8681 57.662 62.6175 57.5428 62.3896 57.6238Z" fill="black"/>
<path d="M61.4992 59.4959C61.2712 59.5769 61.1521 59.8274 61.2331 60.0554C61.3141 60.2833 61.5645 60.4025 61.7926 60.3215C62.0206 60.2405 62.1397 59.9899 62.0587 59.762C61.9778 59.534 61.7272 59.4149 61.4992 59.4959Z" fill="black"/>
<path d="M63.3353 60.2859C63.1073 60.3669 62.9881 60.6175 63.069 60.8454C63.15 61.0734 63.4006 61.1925 63.6286 61.1115C63.8567 61.0305 63.9758 60.7801 63.8948 60.552C63.8138 60.3242 63.5632 60.2049 63.3353 60.2859Z" fill="black"/>
<path d="M62.4449 62.158C62.2169 62.239 62.0978 62.4895 62.1788 62.7175C62.2598 62.9455 62.5102 63.0646 62.7382 62.9836C62.9663 62.9026 63.0854 62.6522 63.0044 62.4242C62.9235 62.1961 62.6729 62.077 62.4449 62.158Z" fill="black"/>
<path d="M64.5744 63.7738C64.8024 63.6927 64.9215 63.4422 64.8405 63.2141C64.7595 62.9863 64.509 62.867 64.281 62.948C64.053 63.029 63.9337 63.2796 64.0147 63.5075C64.0958 63.7357 64.3462 63.8548 64.5744 63.7738Z" fill="black"/>
<path d="M60.6735 61.2313C60.4455 61.3123 60.3264 61.5628 60.4074 61.7907C60.4884 62.0188 60.739 62.1378 60.9669 62.0569C61.1949 61.9759 61.314 61.7254 61.233 61.4974C61.1521 61.2695 60.9016 61.1502 60.6735 61.2313Z" fill="black"/>
<path d="M60.0766 63.9289C60.3046 63.8479 60.4238 63.5975 60.3428 63.3695C60.2617 63.1414 60.0113 63.0223 59.7833 63.1033C59.5553 63.1843 59.4361 63.4348 59.5172 63.6628C59.5982 63.8908 59.8486 64.01 60.0766 63.9289Z" fill="black"/>
<path d="M61.6192 63.8934C61.3912 63.9744 61.2721 64.225 61.3531 64.4528C61.4341 64.6809 61.6847 64.8001 61.9126 64.7191C62.1406 64.6381 62.2597 64.3875 62.1787 64.1595C62.0977 63.9316 61.8472 63.8124 61.6192 63.8934Z" fill="black"/>
<path d="M59.2509 65.6644C59.4789 65.5834 59.598 65.3328 59.517 65.1048C59.436 64.8769 59.1855 64.7577 58.9575 64.8387C58.7295 64.9197 58.6104 65.1703 58.6913 65.3982C58.7723 65.6264 59.0228 65.7454 59.2509 65.6644Z" fill="black"/>
<path d="M44.0411 33.4756L40.9371 34.5784C40.6395 34.6841 40.3126 34.5286 40.2069 34.2311C40.1012 33.9336 40.2567 33.6067 40.5542 33.501L43.6583 32.3981C43.9558 32.2924 44.2827 32.4479 44.3884 32.7454C44.4941 33.0429 44.3386 33.3699 44.0411 33.4756Z" fill="white"/>
<path d="M60.5816 19.7589C59.9935 17.9458 58.7203 16.4248 57.048 15.5526C55.3582 14.6714 53.4578 14.5305 51.6969 15.1561L38.5266 19.8356L36.5852 14.3716C36.0755 12.9371 34.4939 12.1847 33.0594 12.6944C31.6249 13.2041 30.8725 14.7858 31.3821 16.2203L33.3235 21.6842L21.5759 25.8581C19.7565 26.5046 18.3005 27.9292 17.5813 29.767C16.8171 31.7196 16.9469 33.9221 17.9374 35.8095L30.2655 59.298C29.8751 60.1303 29.8291 61.0912 30.1456 61.9818C30.5857 63.2205 31.6394 64.0962 32.8836 64.2862L33.0511 64.6054C32.5343 65.488 32.4326 66.5688 32.7865 67.5649C33.2887 68.9784 34.5887 69.9054 36.0171 69.9072C37.8852 72.1555 40.8782 73.0268 43.5598 72.0741L50.3676 69.6553L53.9735 79.8042C54.4831 81.2387 56.0648 81.9911 57.4993 81.4814C58.9338 80.9717 59.6862 79.39 59.1765 77.9555L55.5706 67.8066L63.9658 64.8238C66.7158 63.8468 68.492 61.2087 68.4495 58.2076C69.3356 57.2736 69.6203 55.9024 69.1709 54.6376C68.8621 53.7684 68.2394 53.0609 67.4381 52.6562L67.2713 51.8509C67.9199 50.9363 68.0852 49.7321 67.6972 48.6398C67.4233 47.869 66.9066 47.2271 66.2274 46.8066L61.817 25.5003C62.8279 24.6271 63.2066 23.1847 62.7353 21.8584C62.3769 20.85 61.5689 20.0713 60.5816 19.7589ZM32.4596 15.8374C32.161 14.997 32.6018 14.0705 33.4422 13.7719C34.2826 13.4733 35.2092 13.914 35.5078 14.7544L37.4491 20.2184L34.4009 21.3014L32.4596 15.8374ZM58.0992 78.3386C58.3978 79.179 57.9569 80.1056 57.1166 80.4042C56.2762 80.7028 55.3496 80.262 55.051 79.4216L51.4451 69.2727L54.4933 68.1897L58.0992 78.3386ZM60.8671 24.7891C60.6731 24.9184 60.5771 25.1524 60.6244 25.3807L65.16 47.2923C65.1952 47.4617 65.3051 47.6062 65.4592 47.6851C65.9995 47.9621 66.4117 48.4371 66.6197 49.0227C66.9051 49.8259 66.7528 50.7138 66.2222 51.3398C66.1085 51.474 66.0628 51.6531 66.0985 51.8253L66.3776 53.1736C66.4167 53.3627 66.5487 53.5192 66.7281 53.5897C67.3614 53.839 67.8591 54.3604 68.0936 55.0205C68.4189 55.9359 68.1816 56.9279 67.4891 57.548C67.3606 57.663 67.2909 57.8297 67.2994 58.002C67.4272 60.6028 65.9339 62.9112 63.5833 63.7464L43.177 70.9968C40.8728 71.8154 38.2848 71.0035 36.7369 68.9763C36.617 68.8194 36.4247 68.7353 36.2281 68.754C35.1998 68.8523 34.2277 68.206 33.864 67.1824C33.5955 66.4265 33.7111 65.6026 34.1734 64.9784C34.304 64.8022 34.3223 64.5666 34.2203 64.3723L33.7539 63.4838C33.6601 63.3053 33.479 63.1891 33.2775 63.1786C32.3534 63.1305 31.547 62.5104 31.2232 61.5991C30.9829 60.9227 31.0488 60.1902 31.4038 59.5888C31.5044 59.4182 31.5097 59.2078 31.4177 59.0325L29.7561 55.8667L45.6225 50.2294C45.92 50.1237 46.0755 49.7968 45.9698 49.4992C45.8641 49.2017 45.5372 49.0462 45.2397 49.1519L29.2192 54.844L26.0677 48.8397L38.6272 44.3773C38.9247 44.2716 39.0802 43.9447 38.9745 43.6472C38.8688 43.3496 38.5419 43.1941 38.2444 43.2998L25.531 47.8169L22.0959 41.2722L35.1746 36.6253C35.4721 36.5196 35.6276 36.1927 35.5219 35.8952C35.4162 35.5977 35.0892 35.4422 34.7917 35.5479L21.5591 40.2494L18.95 35.2782C18.1134 33.6844 18.0026 31.8275 18.646 30.1837C19.2531 28.6324 20.4295 27.4789 21.9587 26.9356L52.0797 16.2336C53.5378 15.7156 55.1144 15.8339 56.5192 16.5666C58.0086 17.3431 59.1224 18.7342 59.575 20.3827C59.6324 20.5915 59.8028 20.75 60.0152 20.792C60.7635 20.9402 61.3929 21.4956 61.6578 22.2411C61.9995 23.2033 61.6745 24.251 60.8671 24.7891Z" fill="white"/>
</g>
<defs>
<clipPath id="clip0_640_27737">
<rect width="73" height="73" fill="white" transform="translate(0 24.4404) rotate(-19.5601)"/>
</clipPath>
</defs>
</svg>
