<svg xmlns="http://www.w3.org/2000/svg" width="40" height="40" fill="none" viewBox="0 0 40 40"><path fill="#a72644" d="M10 35.83h20a4.167 4.167 0 0 0 4.166-4.166v-12.95a5 5 0 0 0 1.667-3.716v-.834a.7.7 0 0 0-.041-.258l-2.5-6.975a4.17 4.17 0 0 0-3.959-2.767H10.667A4.17 4.17 0 0 0 6.75 6.906l-2.5 6.975a.7.7 0 0 0-.083.283v.834a5 5 0 0 0 1.666 3.716v12.95A4.167 4.167 0 0 0 10 35.831m14.167-1.666h-8.334v-7.5a.834.834 0 0 1 .833-.833h6.667a.834.834 0 0 1 .834.833zm6.666-15.833h-1.666a3.333 3.333 0 0 1-3.334-3.333h8.334a3.334 3.334 0 0 1-3.334 3.333m-1.5-12.5a2.5 2.5 0 0 1 2.334 1.667l2.124 5.833h-8.1l-1.358-7.5zm-11.975 0h5.284L24 13.33h-8zm6.808 9.167a3.334 3.334 0 0 1-3.333 3.333h-1.666a3.333 3.333 0 0 1-3.334-3.333zm-5 5h1.667A5 5 0 0 0 25 17.755a5 5 0 0 0 4.166 2.241h1.667a5 5 0 0 0 1.667-.291v11.958a2.5 2.5 0 0 1-2.5 2.5h-4.167v-7.5a2.5 2.5 0 0 0-2.5-2.5h-6.666a2.5 2.5 0 0 0-2.5 2.5v7.5H10a2.5 2.5 0 0 1-2.5-2.5V19.706a5 5 0 0 0 1.666.291h1.667A5 5 0 0 0 15 17.757a5 5 0 0 0 4.166 2.241M8.333 7.497a2.5 2.5 0 0 1 2.333-1.667h5l-1.358 7.5H6.192zm5.833 7.5a3.334 3.334 0 0 1-3.333 3.333H9.166a3.333 3.333 0 0 1-3.333-3.333z"/></svg>