<svg xmlns="http://www.w3.org/2000/svg" width="34" height="34" fill="none" viewBox="0 0 34 34"><path fill="#8b1e1e" fill-rule="evenodd" d="M9.978 13.691c0-6.297 6.044-4.038 5.467-13.691C6.785.786 0 8.08 0 16.964 0 26.372 7.611 34 17 34c9.39 0 17-7.628 17-17.036C34 8.081 27.214.786 18.554 0c-.575 9.653 5.468 7.394 5.468 13.691l-.853 13.828a.88.88 0 0 1-.876.878.88.88 0 0 1-.875-.878V14.686a.854.854 0 0 0-.85-.851.85.85 0 0 0-.85.851L19.64 27.52a.88.88 0 0 1-.876.878.88.88 0 0 1-.876-.878v-9.124a.854.854 0 0 0-.849-.852.853.853 0 0 0-.849.852v8.9c0 .724-.477 1.097-.955 1.102-.477-.005-.953-.378-.953-1.102V22.26a.85.85 0 0 0-.85-.85.854.854 0 0 0-.849.85v5.26a.88.88 0 0 1-.875.877.88.88 0 0 1-.876-.878" clip-rule="evenodd"/></svg>