<svg xmlns="http://www.w3.org/2000/svg" width="30" height="30" fill="none" viewBox="0 0 30 30"><g fill="#8b1e1e" clip-path="url(#a)"><path d="M29.679 5.676a.18.18 0 1 0 .05.315 4 4 0 0 0-.05-.315m-.056 1.15a.18.18 0 1 0 .086.337q.023-.144.036-.288a.18.18 0 0 0-.122-.049m0 4.64a.18.18 0 1 0 .129.304 4 4 0 0 0-.032-.276.2.2 0 0 0-.097-.028m0 1.159a.18.18 0 1 0 .035.356q.039-.162.064-.326a.2.2 0 0 0-.1-.03m-.557-8.36a.2.2 0 0 0 .053-.009 4 4 0 0 0-.194-.282.18.18 0 0 0 .14.291m-.601.242a.18.18 0 1 0 0 .36.18.18 0 0 0 0-.36m-.558.555a.18.18 0 1 0 0 .36.18.18 0 0 0 0-.36m1.16.363a.18.18 0 1 0 0-.36.18.18 0 0 0 0 .36m-.602.242a.18.18 0 1 0 0 .36.18.18 0 0 0 0-.36m.602.918a.18.18 0 1 0 0-.36.18.18 0 0 0 0 .36m-.602.241a.18.18 0 1 0 0 .36.18.18 0 0 0 0-.36m.602.918a.18.18 0 1 0 0-.36.18.18 0 0 0 0 .36m-.602.242a.18.18 0 1 0 0 .36.18.18 0 0 0 0-.36m.602.558a.18.18 0 0 0-.04.355q.095-.141.179-.287a.18.18 0 0 0-.14-.068m-.601.602a.18.18 0 1 0 0 .36.18.18 0 0 0 0-.36m.422.738a.178.178 0 0 0 .292.14q-.094-.152-.203-.295a.18.18 0 0 0-.09.155m-.421.422a.18.18 0 1 0 0 .36.18.18 0 0 0 0-.36m.602.558a.18.18 0 1 0 0 .36.18.18 0 0 0 0-.36m-.602.602a.18.18 0 1 0 0 .36.18.18 0 0 0 0-.36m.602.557a.18.18 0 1 0 0 .36.18.18 0 0 0 0-.36m-.602.602a.18.18 0 1 0 0 .36.18.18 0 0 0 0-.36m.602.558a.18.18 0 1 0 0 .36.18.18 0 0 0 0-.36m-1.16-6.599a.18.18 0 1 0 0-.36.18.18 0 0 0 0 .36m-.602.242a.18.18 0 1 0 0 .36.18.18 0 0 0 0-.36m.602.918a.18.18 0 1 0 0-.36.18.18 0 0 0 0 .36m-.602.242a.18.18 0 1 0 0 .36.18.18 0 0 0 0-.36m.602.918a.18.18 0 1 0 0-.36.18.18 0 0 0 0 .36m-.602.242a.18.18 0 1 0 0 .36.18.18 0 0 0 0-.36m.602.558a.18.18 0 1 0 0 .36.18.18 0 0 0 0-.36m-.602.602a.18.18 0 1 0 0 .36.18.18 0 0 0 0-.36m.602.558a.18.18 0 1 0 0 .36.18.18 0 0 0 0-.36m-.602.602a.18.18 0 1 0 0 .36.18.18 0 0 0 0-.36m.602.557a.18.18 0 1 0 0 .36.18.18 0 0 0 0-.36m-1.16-4.279a.18.18 0 1 0 0-.36.18.18 0 0 0 0 .36m-.601.242a.18.18 0 1 0 0 .36.18.18 0 0 0 0-.36m.601.918a.18.18 0 1 0 0-.36.18.18 0 0 0 0 .36m-.601.242a.18.18 0 1 0 0 .36.18.18 0 0 0 0-.36m.601.558a.18.18 0 1 0 0 .36.18.18 0 0 0 0-.36m-.601.602a.18.18 0 1 0 0 .36.18.18 0 0 0 0-.36m.601.558a.18.18 0 1 0 0 .36.18.18 0 0 0 0-.36m-1.16-2.32a.18.18 0 1 0 0 .36.18.18 0 0 0 0-.36m-.601.602a.18.18 0 1 0 0 .36.18.18 0 0 0 0-.36m.601.558a.18.18 0 1 0 0 .36.18.18 0 0 0 0-.36m-.601.602a.18.18 0 1 0 0 .36.18.18 0 0 0 0-.36m.601.558a.18.18 0 1 0 0 .36.18.18 0 0 0 0-.36m-1.159-2.32a.18.18 0 1 0 0 .36.18.18 0 0 0 0-.36m.558-.554a.18.18 0 1 0 0 .36.18.18 0 0 0 0-.36m-2.318 1.162a.18.18 0 1 0 0 .36.18.18 0 0 0 0-.36m1.158-.006a.18.18 0 1 0 0 .36.18.18 0 0 0 0-.36m.602.558a.18.18 0 1 0 0 .36.18.18 0 0 0 0-.36m-.57.605v.353a.18.18 0 0 0 0-.353m-.59-.605a.18.18 0 1 0 0 .36.18.18 0 0 0 0-.36m5.197 4.081a.18.18 0 1 0 0 .36.18.18 0 0 0 0-.36m.422.738a.18.18 0 1 0 .36 0 .18.18 0 0 0-.36 0m-.422.422a.18.18 0 1 0 0 .36.18.18 0 0 0 0-.36m-1.16-2.32a.18.18 0 1 0 0 .36.18.18 0 0 0 0-.36m.602.558a.18.18 0 1 0 0 .36.18.18 0 0 0 0-.36m-.602.602a.18.18 0 1 0 0 .36.18.18 0 0 0 0-.36m.602.558a.18.18 0 1 0 0 .36.18.18 0 0 0 0-.36m-.602.602a.18.18 0 1 0 0 .36.18.18 0 0 0 0-.36m.602.558a.18.18 0 1 0 0 .36.18.18 0 0 0 0-.36m-.602.601a.18.18 0 1 0 0 .36.18.18 0 0 0 0-.36m-1.16-4.639a.18.18 0 1 0 0 .36.18.18 0 0 0 0-.36m.602.558a.18.18 0 1 0 0 .36.18.18 0 0 0 0-.36m-.602.602a.18.18 0 1 0 0 .36.18.18 0 0 0 0-.36m.602.558a.18.18 0 1 0 0 .36.18.18 0 0 0 0-.36m-.602.602a.18.18 0 1 0 0 .36.18.18 0 0 0 0-.36m.602.558a.18.18 0 1 0 0 .36.18.18 0 0 0 0-.36m-.602.602a.18.18 0 1 0 0 .36.18.18 0 0 0 0-.36m.602.558a.18.18 0 1 0 0 .36.18.18 0 0 0 0-.36m-.602.601a.18.18 0 1 0 0 .36.18.18 0 0 0 0-.36m.602.558a.18.18 0 1 0 0 .36.18.18 0 0 0 0-.36m-.602.602a.18.18 0 1 0 0 .36.18.18 0 0 0 0-.36m-1.159-5.799a.18.18 0 1 0 0 .36.18.18 0 0 0 0-.36m.601.558a.18.18 0 1 0 0 .36.18.18 0 0 0 0-.36m-.601.602a.18.18 0 1 0 0 .36.18.18 0 0 0 0-.36m.601.558a.18.18 0 1 0 0 .36.18.18 0 0 0 0-.36m-.601.602a.18.18 0 1 0 0 .36.18.18 0 0 0 0-.36m.601.558a.18.18 0 1 0 0 .36.18.18 0 0 0 0-.36m-.601.602a.18.18 0 1 0 0 .36.18.18 0 0 0 0-.36m.601.558a.18.18 0 1 0 0 .36.18.18 0 0 0 0-.36m-.601.601a.18.18 0 1 0 0 .36.18.18 0 0 0 0-.36m.601.558a.18.18 0 1 0 0 .36.18.18 0 0 0 0-.36m-.601.602a.18.18 0 1 0 0 .36.18.18 0 0 0 0-.36m.601.558a.18.18 0 1 0 0 .36.18.18 0 0 0 0-.36m-.601.602a.18.18 0 1 0 0 .36.18.18 0 0 0 0-.36m-.558-7.56a.18.18 0 1 0 0 .36.18.18 0 0 0 0-.36m-.602.961a.18.18 0 1 0 0-.36.18.18 0 0 0 0 .36m.602.198a.18.18 0 1 0 0 .36.18.18 0 0 0 0-.36m-.602.602a.18.18 0 1 0 0 .36.18.18 0 0 0 0-.36m.602.558a.18.18 0 1 0 0 .36.18.18 0 0 0 0-.36m-.602.602a.18.18 0 1 0 0 .36.18.18 0 0 0 0-.36m.602.558a.18.18 0 1 0 0 .36.18.18 0 0 0 0-.36m-.602.602a.18.18 0 1 0 0 .36.18.18 0 0 0 0-.36m.602.558a.18.18 0 1 0 0 .36.18.18 0 0 0 0-.36m-.602.601a.18.18 0 1 0 0 .36.18.18 0 0 0 0-.36m.602.558a.18.18 0 1 0 0 .36.18.18 0 0 0 0-.36m-.602.602a.18.18 0 1 0 0 .36.18.18 0 0 0 0-.36m.602.558a.18.18 0 1 0 0 .36.18.18 0 0 0 0-.36m-.602.962a.18.18 0 1 0 0-.36.18.18 0 0 0 0 .36m.602.198a.18.18 0 1 0 0 .36.18.18 0 0 0 0-.36m-.602.602a.18.18 0 1 0 0 .36.18.18 0 0 0 0-.36m-1.16-9.278a.18.18 0 1 0 0 .36.18.18 0 0 0 0-.36m.602.558a.18.18 0 1 0 0 .36.18.18 0 0 0 0-.36m-.602.601a.18.18 0 1 0 0 .36.18.18 0 0 0 0-.36m.602.558a.18.18 0 1 0 0 .36.18.18 0 0 0 0-.36m-.602.602a.18.18 0 1 0 0 .36.18.18 0 0 0 0-.36m.602.558a.18.18 0 1 0 0 .36.18.18 0 0 0 0-.36m-.602.602a.18.18 0 1 0 0 .36.18.18 0 0 0 0-.36m.602.558a.18.18 0 1 0 0 .36.18.18 0 0 0 0-.36m-.602.602a.18.18 0 1 0 0 .36.18.18 0 0 0 0-.36m.602.558a.18.18 0 1 0 0 .36.18.18 0 0 0 0-.36m-.602.601a.18.18 0 1 0 0 .36.18.18 0 0 0 0-.36m.602.558a.18.18 0 1 0 0 .36.18.18 0 0 0 0-.36m-.602.602a.18.18 0 1 0 0 .36.18.18 0 0 0 0-.36m.602.558a.18.18 0 1 0 0 .36.18.18 0 0 0 0-.36m-.602.602a.18.18 0 1 0 0 .36.18.18 0 0 0 0-.36m.602.558a.18.18 0 1 0 0 .36.18.18 0 0 0 0-.36m-.602.602a.18.18 0 1 0 0 .36.18.18 0 0 0 0-.36m.602.558a.18.18 0 1 0 0 .36.18.18 0 0 0 0-.36m-.602.601a.18.18 0 1 0 0 .36.18.18 0 0 0 0-.36m-1.159-10.437a.18.18 0 1 0 0 .36.18.18 0 0 0 0-.36m.601.558a.18.18 0 1 0 0 .36.18.18 0 0 0 0-.36m-.602.961a.18.18 0 1 0 0-.36.18.18 0 0 0 0 .36m.602.198a.18.18 0 1 0 0 .36.18.18 0 0 0 0-.36m-.601.602a.18.18 0 1 0 0 .36.18.18 0 0 0 0-.36m.601.558a.18.18 0 1 0 0 .36.18.18 0 0 0 0-.36m-.601.602a.18.18 0 1 0 0 .36.18.18 0 0 0 0-.36m.601.558a.18.18 0 1 0 0 .36.18.18 0 0 0 0-.36m-.601.602a.18.18 0 1 0 0 .36.18.18 0 0 0 0-.36m.601.558a.18.18 0 1 0 0 .36.18.18 0 0 0 0-.36m-.601.601a.18.18 0 1 0 0 .36.18.18 0 0 0 0-.36m.601.558a.18.18 0 1 0 0 .36.18.18 0 0 0 0-.36m-.601.602a.18.18 0 1 0 0 .36.18.18 0 0 0 0-.36m.601.558a.18.18 0 1 0 0 .36.18.18 0 0 0 0-.36m-.601.962a.18.18 0 1 0 0-.36.18.18 0 0 0 0 .36m.601.198a.18.18 0 1 0 0 .36.18.18 0 0 0 0-.36m-.601.602a.18.18 0 1 0 0 .36.18.18 0 0 0 0-.36m.601.558a.18.18 0 1 0 0 .36.18.18 0 0 0 0-.36m-.601.961a.18.18 0 1 0 0-.36.18.18 0 0 0 0 .36m.601.198a.18.18 0 1 0 0 .36.18.18 0 0 0 0-.36m-.601.602a.18.18 0 1 0 0 .36.18.18 0 0 0 0-.36m-.559-7.56a.18.18 0 1 0 0 .36.18.18 0 0 0 0-.36m0 1.16a.18.18 0 1 0 0 .36.18.18 0 0 0 0-.36m0 1.159a.18.18 0 1 0 0 .36.18.18 0 0 0 0-.36m-.601.602a.18.18 0 1 0 0 .36.18.18 0 0 0 0-.36m.601.558a.18.18 0 1 0 0 .36.18.18 0 0 0 0-.36m-.601.602a.18.18 0 1 0 0 .36.18.18 0 0 0 0-.36m.601.558a.18.18 0 1 0 0 .36.18.18 0 0 0 0-.36m-.601.602a.18.18 0 1 0 0 .36.18.18 0 0 0 0-.36m.601.558a.18.18 0 1 0 0 .36.18.18 0 0 0 0-.36m-.601.601a.18.18 0 1 0 0 .36.18.18 0 0 0 0-.36m.601.558a.18.18 0 1 0 0 .36.18.18 0 0 0 0-.36m-.601.602a.18.18 0 1 0 0 .36.18.18 0 0 0 0-.36m.601.558a.18.18 0 1 0 0 .36.18.18 0 0 0 0-.36m-.601.602a.18.18 0 1 0 0 .36.18.18 0 0 0 0-.36m-.558-4.081a.18.18 0 1 0 0 .36.18.18 0 0 0 0-.36m-.602.602a.18.18 0 1 0 0 .36.18.18 0 0 0 0-.36m.602.558a.18.18 0 1 0 0 .36.18.18 0 0 0 0-.36m-.602.601a.18.18 0 1 0 0 .36.18.18 0 0 0 0-.36m.602.558a.18.18 0 1 0 0 .36.18.18 0 0 0 0-.36m-.602.602a.18.18 0 1 0 0 .36.18.18 0 0 0 0-.36m.602.558a.18.18 0 1 0 0 .36.18.18 0 0 0 0-.36m-.602.602a.18.18 0 1 0 0 .36.18.18 0 0 0 0-.36m.602.557a.18.18 0 1 0 0 .36.18.18 0 0 0 0-.36m-.602.603a.18.18 0 1 0 0 .36.18.18 0 0 0 0-.36m-.558-2.922a.18.18 0 1 0 0 .36.18.18 0 0 0 0-.36m-.602.602a.18.18 0 1 0 0 .36.18.18 0 0 0 0-.36m.602.558a.18.18 0 1 0 0 .36.18.18 0 0 0 0-.36m-.602.602a.18.18 0 1 0 0 .36.18.18 0 0 0 0-.36m.602.917a.18.18 0 1 0 0-.36.18.18 0 0 0 0 .36m-.602.243a.18.18 0 1 0 0 .36.18.18 0 0 0 0-.36m.602.557a.18.18 0 1 0 0 .36.18.18 0 0 0 0-.36m-.602.602a.18.18 0 1 0 0 .36.18.18 0 0 0 0-.36m-.558-2.921a.18.18 0 1 0 0 .36.18.18 0 0 0 0-.36m-.602.602a.18.18 0 1 0 0 .36.18.18 0 0 0 0-.36m.602.557a.18.18 0 1 0 0 .36.18.18 0 0 0 0-.36m-.602.603a.18.18 0 1 0 0 .36.18.18 0 0 0 0-.36m.602.557a.18.18 0 1 0 0 .36.18.18 0 0 0 0-.36m-.602.602a.18.18 0 1 0 0 .36.18.18 0 0 0 0-.36m.602.558a.18.18 0 1 0 0 .36.18.18 0 0 0 0-.36m-.602.602a.18.18 0 1 0 0 .36.18.18 0 0 0 0-.36m-.558-2.922a.18.18 0 1 0 0 .36.18.18 0 0 0 0-.36m-.601.603a.18.18 0 1 0 0 .36.18.18 0 0 0 0-.36m.601.557a.18.18 0 1 0 0 .36.18.18 0 0 0 0-.36m-.601.602a.18.18 0 1 0 0 .36.18.18 0 0 0 0-.36m.601.558a.18.18 0 1 0 0 .36.18.18 0 0 0 0-.36m-.601.602a.18.18 0 1 0 0 .36.18.18 0 0 0 0-.36m.601.558a.18.18 0 1 0 0 .36.18.18 0 0 0 0-.36m-.601.602a.18.18 0 1 0 0 .36.18.18 0 0 0 0-.36m-.558-2.922a.18.18 0 1 0 0 .36.18.18 0 0 0 0-.36m-.602.602a.18.18 0 1 0 0 .36.18.18 0 0 0 0-.36m.602.558a.18.18 0 1 0 0 .36.18.18 0 0 0 0-.36m-.602.602a.18.18 0 1 0 0 .36.18.18 0 0 0 0-.36m.602.558a.18.18 0 1 0 0 .36.18.18 0 0 0 0-.36m-.602.602a.18.18 0 1 0 0 .36.18.18 0 0 0 0-.36m.602.558a.18.18 0 1 0 0 .36.18.18 0 0 0 0-.36m-.602.602a.18.18 0 1 0 0 .36.18.18 0 0 0 0-.36m-.558-2.922a.18.18 0 1 0 0 .36.18.18 0 0 0 0-.36m-.602.602a.18.18 0 1 0 0 .36.18.18 0 0 0 0-.36m.602.558a.18.18 0 1 0 0 .36.18.18 0 0 0 0-.36m-.602.602a.18.18 0 1 0 0 .36.18.18 0 0 0 0-.36m.602.558a.18.18 0 1 0 0 .36.18.18 0 0 0 0-.36m-.602.602a.18.18 0 1 0 0 .36.18.18 0 0 0 0-.36m.782.738a.18.18 0 1 0-.341.078h.322a.2.2 0 0 0 .019-.079m-1.34-3.659a.18.18 0 1 0 0 .36.18.18 0 0 0 0-.36m-.601.602a.18.18 0 1 0 0 .36.18.18 0 0 0 0-.36m.601.558a.18.18 0 1 0 0 .36.18.18 0 0 0 0-.36m-.601.602a.18.18 0 1 0 0 .36.18.18 0 0 0 0-.36m.601.558a.18.18 0 1 0 0 .36.18.18 0 0 0 0-.36m-.601.602a.18.18 0 1 0 0 .36.18.18 0 0 0 0-.36m.781.738a.18.18 0 1 0-.341.078h.322a.2.2 0 0 0 .019-.079m-1.34-2.499a.18.18 0 1 0 0 .36.18.18 0 0 0 0-.36m-.601.602a.18.18 0 1 0 0 .36.18.18 0 0 0 0-.36m.601.558a.18.18 0 1 0 0 .36.18.18 0 0 0 0-.36m-.601.602a.18.18 0 1 0 0 .36.18.18 0 0 0 0-.36m.781.738a.18.18 0 1 0-.34.078h.322a.2.2 0 0 0 .018-.079M10.509 27.1a.18.18 0 1 0 0 .36.18.18 0 0 0 0-.36m-.602.602a.18.18 0 1 0 0 .36.18.18 0 0 0 0-.36m.602.558a.18.18 0 1 0 0 .36.18.18 0 0 0 0-.36m-.602.602a.18.18 0 1 0 0 .36.18.18 0 0 0 0-.36m.782.738a.18.18 0 1 0-.342.078h.323a.2.2 0 0 0 .019-.079m-1.942-1.897a.18.18 0 1 0 0 .36.18.18 0 0 0 0-.36m.602.558a.18.18 0 1 0 0 .36.18.18 0 0 0 0-.36m-.602.602a.18.18 0 1 0 0 .36.18.18 0 0 0 0-.36m.782.738a.18.18 0 1 0-.341.078h.322a.2.2 0 0 0 .019-.079m-1.942-1.897a.18.18 0 1 0 0 .36.18.18 0 0 0 0-.36m.603.558a.18.18 0 1 0 0 .36.18.18 0 0 0 0-.36m-.603.961a.18.18 0 1 0 0-.36.18.18 0 0 0 0 .36m.782.379a.18.18 0 1 0-.341.078h.322a.2.2 0 0 0 .019-.079M7.03 28.26a.18.18 0 1 0 0 .36.18.18 0 0 0 0-.36m-.602.602a.18.18 0 1 0 0 .36.18.18 0 0 0 0-.36m.782.738a.18.18 0 1 0-.342.078h.323a.2.2 0 0 0 .018-.079M5.87 28.26a.18.18 0 1 0 0 .36.18.18 0 0 0 0-.36m-.602.961a.18.18 0 1 0 0-.36.18.18 0 0 0 0 .36m.782.379a.18.18 0 1 0-.342.078h.323a.2.2 0 0 0 .019-.079M4.71 28.26a.18.18 0 1 0 0 .36.18.18 0 0 0 0-.36m-.602.602a.18.18 0 1 0 0 .36.18.18 0 0 0 0-.36m.782.738a.18.18 0 1 0-.341.078h.322a.2.2 0 0 0 .019-.079m-2.042-1.752a.3.3 0 0 1-.073-.01.18.18 0 1 0 .354.044l-.003-.024a6 6 0 0 0-.278-.01m.702.413a.18.18 0 1 0 0 .36.18.18 0 0 0 0-.36m-.602.961a.18.18 0 1 0 0-.36.18.18 0 0 0 0 .36m.782.379a.18.18 0 1 0-.341.078h.322a.2.2 0 0 0 .019-.079m-1.941-1.897a.18.18 0 1 0 0 .36.18.18 0 0 0 0-.36m.601.558a.18.18 0 1 0 0 .36.18.18 0 0 0 0-.36m-.601.602a.18.18 0 1 0 0 .36.18.18 0 0 0 0-.36m.781.738a.18.18 0 1 0-.34.078h.322a.2.2 0 0 0 .018-.079M.629 27.702a.18.18 0 1 0 0 .36.18.18 0 0 0 0-.36m.601.558a.18.18 0 1 0 0 .36.18.18 0 0 0 0-.36m-.601.961a.18.18 0 1 0 0-.36.18.18 0 0 0 0 .36m.781.379a.18.18 0 1 0-.34.078h.322a.2.2 0 0 0 .019-.079M.236 28.368v.144a.18.18 0 0 0 0-.144m0 1.159v.145a.18.18 0 0 0 0-.145"/><path d="M30 12.1a4.1 4.1 0 0 0-1.024-2.742 4.487 4.487 0 0 0-.295-6.03 4.49 4.49 0 0 0-5.564-.63 4.4 4.4 0 0 0-.91-1.326A4.36 4.36 0 0 0 19.105.087c-.862 0-1.685.248-2.39.708a.965.965 0 0 0-1.142.168L.069 16.467a.235.235 0 1 0 .333.333L15.905 1.296a.496.496 0 0 1 .721.019c5.666 6.229 5.435 15.775-.523 21.734A15.73 15.73 0 0 1 .305 26.963a.235.235 0 1 0-.139.45q1.169.36 2.353.54.136.899.374 1.786a.235.235 0 1 0 .455-.123 16 16 0 0 1-.34-1.597q.983.12 1.964.12c4.238 0 8.37-1.662 11.464-4.757a16.15 16.15 0 0 0 4.749-11.11 16.4 16.4 0 0 0-.114-2.331 15.7 15.7 0 0 1 8.095 3.913.48.48 0 0 1 .019.698L14.225 29.51a.236.236 0 1 0 .334.333l14.959-14.96a.94.94 0 0 0 .278-.694.95.95 0 0 0-.137-.47 4.1 4.1 0 0 0 .341-1.62m-8.994-2.636a16.1 16.1 0 0 0-3.922-8.343 3.9 3.9 0 0 1 2.021-.563c1.046 0 2.03.407 2.77 1.147.408.409.715.89.91 1.432a.236.236 0 0 0 .36.11 4 4 0 0 1 5.203.415 4.017 4.017 0 0 1 .137 5.544.236.236 0 0 0 .006.322 3.66 3.66 0 0 1 .808 3.813 16.1 16.1 0 0 0-8.293-3.877"/><path d="M8.489 23.379a1.23 1.23 0 0 1 0-2.458 1.23 1.23 0 0 1 0 2.458m0-1.987a.76.76 0 1 0 .536 1.294.76.76 0 0 0-.536-1.294m5.85-5.176c-.329 0-.637-.128-.87-.36a1.22 1.22 0 0 1-.36-.869 1.23 1.23 0 1 1 2.098.87c-.231.231-.54.36-.868.36m0-1.987a.755.755 0 0 0-.758.758c0 .203.078.393.222.536a.75.75 0 0 0 .536.222.759.759 0 0 0 0-1.516m-5.438.729a.659.659 0 1 0 0-1.318.659.659 0 0 0 0 1.318m6.874-7.531a.659.659 0 1 0 0-1.317.659.659 0 0 0 0 1.317m-4.17 17.153a.659.659 0 1 0 0-1.317.659.659 0 0 0 0 1.317"/></g><defs><clipPath id="a"><path fill="#fff" d="M0 0h30v30H0z"/></clipPath></defs></svg>