<svg xmlns="http://www.w3.org/2000/svg" width="30" height="30" fill="none" viewBox="0 0 30 30"><g clip-path="url(#a)"><path fill="#8b1e1e" d="M29.692 9.43a3 3 0 0 0-.086-.3.18.18 0 0 0 .086.3m.046.816a.182.182 0 0 0-.025.362q.034-.18.045-.36zm-1.174-2.347a.182.182 0 1 0 0 .364.182.182 0 0 0 0-.364m.609.565a.182.182 0 1 0 .167.109l-.026-.04a.18.18 0 0 0-.141-.07m-.609.974a.182.182 0 1 0 0-.365.182.182 0 0 0 0 .365m.609.2a.182.182 0 1 0 0 .364.182.182 0 0 0 0-.364m-.609.973a.182.182 0 1 0 0-.364.182.182 0 0 0 0 .364m.609.565a.182.182 0 1 0 0-.364.182.182 0 0 0 0 .364m-.609.609a.182.182 0 1 0 0-.364.182.182 0 0 0 0 .364M28 7.654a.182.182 0 1 0 0-.364.182.182 0 0 0 0 .364m0 1.174a.182.182 0 1 0 0-.364.182.182 0 0 0 0 .364m-.611-.57a.182.182 0 1 0 0-.364.182.182 0 0 0 0 .364m0-1.168a.182.182 0 1 0 0-.364.182.182 0 0 0 0 .364m.001 1.983a.182.182 0 1 0 0 .364.182.182 0 0 0 0-.364m.61.928a.182.182 0 1 0 0-.364.182.182 0 0 0 0 .364m-.61.245a.182.182 0 1 0 0 .364.182.182 0 0 0 0-.364m.61.929a.182.182 0 1 0 0-.364.182.182 0 0 0 0 .364m-.61.245a.182.182 0 1 0 0 .364.182.182 0 0 0 0-.364m.61.928a.182.182 0 1 0 0-.364.182.182 0 0 0 0 .364m-.61.245a.182.182 0 1 0 0 .364.182.182 0 0 0 0-.364m-.456-6.44q.037.057.071.117a.18.18 0 0 0-.07-.117m-.109 3.484a.182.182 0 1 0 0 .364.182.182 0 0 0 0-.364m-.609.609a.182.182 0 1 0 0 .364.182.182 0 0 0 0-.364m.609.564a.182.182 0 1 0 0 .365.182.182 0 0 0 0-.364m-.609.609a.182.182 0 1 0 0 .364.182.182 0 0 0 0-.364m.609.564a.182.182 0 1 0 0 .364.182.182 0 0 0 0-.364m-.609.609a.182.182 0 1 0 0 .364.182.182 0 0 0 0-.364m.609.929a.182.182 0 1 0 0-.364.182.182 0 0 0 0 .364m-.609.245a.182.182 0 1 0 0 .364.182.182 0 0 0 0-.364m-.565-2.957a.182.182 0 1 0 0 .365.182.182 0 0 0 0-.364m-.608.609a.182.182 0 1 0 0 .364.182.182 0 0 0 0-.364m.608.564a.182.182 0 1 0 0 .364.182.182 0 0 0 0-.364m-.608.609a.182.182 0 1 0 0 .364.182.182 0 0 0 0-.364m.608.565a.182.182 0 1 0 0 .364.182.182 0 0 0 0-.364m-.608.609a.182.182 0 1 0 0 .364.182.182 0 0 0 0-.364m.608.564a.182.182 0 1 0 0 .364.182.182 0 0 0 0-.364m-.608.609a.182.182 0 1 0 0 .364.182.182 0 0 0 0-.364m-.565-2.956a.182.182 0 1 0 0 .364.182.182 0 0 0 0-.364m-.609.609a.182.182 0 1 0 0 .364.182.182 0 0 0 0-.364m.609.565a.182.182 0 1 0 0 .364.182.182 0 0 0 0-.364m-.609.609a.182.182 0 1 0 0 .364.182.182 0 0 0 0-.364m.609.564a.182.182 0 1 0 0 .364.182.182 0 0 0 0-.364m-.609.609a.182.182 0 1 0 0 .364.182.182 0 0 0 0-.364m.609.565a.182.182 0 1 0 0 .364.182.182 0 0 0 0-.364m-.609.608a.182.182 0 1 0 0 .365.182.182 0 0 0 0-.365m-.565-2.955a.182.182 0 1 0 0 .364.182.182 0 0 0 0-.364m-.608.609a.182.182 0 1 0 0 .364.182.182 0 0 0 0-.364m.608.564a.182.182 0 1 0 0 .364.182.182 0 0 0 0-.364m-.608.609a.182.182 0 1 0 0 .364.182.182 0 0 0 0-.364m.608.565a.182.182 0 1 0 0 .364.182.182 0 0 0 0-.364m-.608.608a.182.182 0 1 0 0 .365.182.182 0 0 0 0-.365m.608.565a.182.182 0 1 0 0 .364.182.182 0 0 0 0-.364m-.608.609a.182.182 0 1 0 0 .364.182.182 0 0 0 0-.364m-.565-2.956a.182.182 0 1 0 0 .364.182.182 0 0 0 0-.364m-.609.609a.182.182 0 1 0 0 .364.182.182 0 0 0 0-.364m.609.565a.182.182 0 1 0 0 .364.182.182 0 0 0 0-.364m-.609.608a.182.182 0 1 0 0 .365.182.182 0 0 0 0-.365m.609.565a.182.182 0 1 0 0 .364.182.182 0 0 0 0-.364m-.609.609a.182.182 0 1 0 0 .364.182.182 0 0 0 0-.364m.609.565a.182.182 0 1 0 0 .364.182.182 0 0 0 0-.364m-.609.608a.182.182 0 1 0 0 .365.182.182 0 0 0 0-.364m-.565-2.956a.182.182 0 1 0 0 .364.182.182 0 0 0 0-.364m-.608.608a.182.182 0 1 0 0 .365.182.182 0 0 0 0-.365m.608.565a.182.182 0 1 0 0 .364.182.182 0 0 0 0-.364m-.608.609a.182.182 0 1 0 0 .364.182.182 0 0 0 0-.364m.608.565a.182.182 0 1 0 0 .364.182.182 0 0 0 0-.364m-.608.608a.182.182 0 1 0 0 .365.182.182 0 0 0 0-.364m.608.564a.182.182 0 1 0 0 .364.182.182 0 0 0 0-.364m-.608.609a.182.182 0 1 0 0 .364.182.182 0 0 0 0-.364m-.565-2.956a.182.182 0 1 0 0 .364.182.182 0 0 0 0-.364m-.609.609a.182.182 0 1 0 0 .364.182.182 0 0 0 0-.364m.609.565a.182.182 0 1 0 0 .364.182.182 0 0 0 0-.364m-.609.608a.182.182 0 1 0 0 .365.182.182 0 0 0 0-.364"/><path fill="#000" d="M19.785 19.025a.182.182 0 1 0 0 .364.182.182 0 0 0 0-.364"/><path fill="#8b1e1e" d="M19.176 19.634a.182.182 0 1 0 0 .364.182.182 0 0 0 0-.364m.609.565a.182.182 0 1 0 0 .364.182.182 0 0 0 0-.364m-.609.609a.182.182 0 1 0 0 .364.182.182 0 0 0 0-.364m-.565-2.956a.182.182 0 1 0 0 .364.182.182 0 0 0 0-.364m-.608.608a.182.182 0 1 0 0 .365.182.182 0 0 0 0-.364"/><path fill="#000" d="M18.611 19.025a.182.182 0 1 0 0 .364.182.182 0 0 0 0-.364m-.608.609a.182.182 0 1 0 0 .364.182.182 0 0 0 0-.364m.608.565a.182.182 0 1 0 0 .364.182.182 0 0 0 0-.364m-.608.609a.182.182 0 1 0 0 .364.182.182 0 0 0 0-.364m.608.564a.182.182 0 1 0 0 .364.182.182 0 0 0 0-.364m-.608.609a.182.182 0 1 0 0 .364.182.182 0 0 0 0-.364m-.565-2.956a.182.182 0 1 0 0 .364.182.182 0 0 0 0-.364m-.609.609a.182.182 0 1 0 0 .364.182.182 0 0 0 0-.364m.609.565a.182.182 0 1 0 0 .364.182.182 0 0 0 0-.364m-.609.609a.182.182 0 1 0 0 .364.182.182 0 0 0 0-.364m.609.564a.182.182 0 1 0 0 .364.182.182 0 0 0 0-.364m-.609.609a.182.182 0 1 0 0 .364.182.182 0 0 0 0-.364m.609.565a.182.182 0 1 0 0 .364.182.182 0 0 0 0-.364m-.609.609a.182.182 0 1 0 0 .364.182.182 0 0 0 0-.364m-.565-2.956a.182.182 0 1 0 0 .364.182.182 0 0 0 0-.364m-.608.609a.182.182 0 1 0 0 .364.182.182 0 0 0 0-.364m.608.564a.182.182 0 1 0 0 .364.182.182 0 0 0 0-.364m-.608.609a.182.182 0 1 0 0 .364.182.182 0 0 0 0-.364m.608.565a.182.182 0 1 0 0 .364.182.182 0 0 0 0-.364m-.608.609a.182.182 0 1 0 0 .364.182.182 0 0 0 0-.364m.608.565a.182.182 0 1 0 0 .363.182.182 0 0 0 0-.364m-.608.609a.182.182 0 1 0 0 .364.182.182 0 0 0 0-.364m-.566-2.592a.182.182 0 1 0 0-.364.182.182 0 0 0 0 .364m-.608.245a.182.182 0 1 0 0 .364.182.182 0 0 0 0-.364m.608.565a.182.182 0 1 0 0 .364.182.182 0 0 0 0-.364m-.608.609a.182.182 0 1 0 0 .364.182.182 0 0 0 0-.364m.608.565a.182.182 0 1 0 0 .363.182.182 0 0 0 0-.364m-.608.609a.182.182 0 1 0 0 .364.182.182 0 0 0 0-.364m.608.565a.182.182 0 1 0 0 .364.182.182 0 0 0 0-.364m-.608.609a.182.182 0 1 0 0 .364.182.182 0 0 0 0-.364m-.565-2.956a.182.182 0 1 0 0 .364.182.182 0 0 0 0-.364m-.608.609a.182.182 0 1 0 0 .364.182.182 0 0 0 0-.364m.608.565a.182.182 0 1 0 0 .363.182.182 0 0 0 0-.364m-.608.609a.182.182 0 1 0 0 .364.182.182 0 0 0 0-.364m.608.565a.182.182 0 1 0 0 .364.182.182 0 0 0 0-.364m-.608.609a.182.182 0 1 0 0 .364.182.182 0 0 0 0-.364m.608.564a.182.182 0 1 0 0 .364.182.182 0 0 0 0-.364m-.608.609a.182.182 0 1 0 0 .364.182.182 0 0 0 0-.364m-.565-2.955a.182.182 0 1 0 0 .363.182.182 0 0 0 0-.364m-.609.609a.182.182 0 1 0 0 .364.182.182 0 0 0 0-.364m.609.565a.182.182 0 1 0 0 .364.182.182 0 0 0 0-.364m-.609.609a.182.182 0 1 0 0 .364.182.182 0 0 0 0-.364m.609.564a.182.182 0 1 0 0 .364.182.182 0 0 0 0-.364m-.609.609a.182.182 0 1 0 0 .364.182.182 0 0 0 0-.364m.609.565a.182.182 0 1 0 0 .364.182.182 0 0 0 0-.364m-.609.609a.182.182 0 1 0 0 .364.182.182 0 0 0 0-.364m-.565-2.956a.182.182 0 1 0 0 .364.182.182 0 0 0 0-.364m-.608.609a.182.182 0 1 0 0 .364.182.182 0 0 0 0-.364m.608.564a.182.182 0 1 0 0 .364.182.182 0 0 0 0-.364m-.608.609a.182.182 0 1 0 0 .364.182.182 0 0 0 0-.364m.608.565a.182.182 0 1 0 0 .364.182.182 0 0 0 0-.364m-.608.609a.182.182 0 1 0 0 .364.182.182 0 0 0 0-.364m.608.564a.182.182 0 1 0 0 .364.182.182 0 0 0 0-.364m-.608.609a.182.182 0 1 0 0 .364.182.182 0 0 0 0-.364m-.565-2.956a.182.182 0 1 0 0 .364.182.182 0 0 0 0-.364m-.609.609a.182.182 0 1 0 0 .364.182.182 0 0 0 0-.364m.609.565a.182.182 0 1 0 0 .364.182.182 0 0 0 0-.364m-.609.609a.182.182 0 1 0 0 .364.182.182 0 0 0 0-.364m.609.928a.182.182 0 1 0 0-.364.182.182 0 0 0 0 .364m-.609.245a.182.182 0 1 0 0 .364.182.182 0 0 0 0-.364m.609.565a.18.18 0 0 0-.181.173q.178-.01.355-.041a.18.18 0 0 0-.174-.132M9.223 27.24a.182.182 0 1 0 0 .364.182.182 0 0 0 0-.364m-.791.79a.182.182 0 1 0 .364 0 .182.182 0 0 0-.364 0m-.557-.604a.182.182 0 1 0 .364 0 .182.182 0 0 0-.364 0M6.7 27.414a.182.182 0 1 0 .364 0 .182.182 0 0 0-.364 0m2.523.999a.182.182 0 1 0 0 .364.182.182 0 0 0 0-.364m-.427.791a.182.182 0 1 0-.357.046q.102.071.208.133a.18.18 0 0 0 .15-.179m.426.383a.2.2 0 0 0-.083.021q.12.041.241.072a.18.18 0 0 0-.158-.093m-1.782-1.374a.182.182 0 1 0 0-.364.182.182 0 0 0 0 .364m.609.564a.182.182 0 1 0 0-.364.182.182 0 0 0 0 .364M6.267 27.04a.2.2 0 0 0 .052-.009 3 3 0 0 1-.23-.14c.015.084.09.148.178.148"/><path fill="#8b1e1e" d="m29.098 7.89-.96-.959.846-.845a3.47 3.47 0 0 0 0-4.905l-.167-.166a3.47 3.47 0 0 0-4.904 0l-1.006 1.006-.167-.01a3.09 3.09 0 0 0-3.136.752l-16.84 16.84a3.09 3.09 0 0 0-.752 3.137q.003.085.01.166l-1.006 1.006A3.45 3.45 0 0 0 0 26.364c0 .927.36 1.798 1.016 2.453l.166.166a3.45 3.45 0 0 0 2.452 1.016c.927 0 1.798-.361 2.453-1.016l.845-.845.96.959a3.06 3.06 0 0 0 2.177.902 3.06 3.06 0 0 0 2.178-.902l16.85-16.85A3.06 3.06 0 0 0 30 10.069a3.06 3.06 0 0 0-.902-2.178m-4.852-6.542A3 3 0 0 1 26.365.47a3 3 0 0 1 1.818.614l-1.097.198a.235.235 0 0 0 .084.463l1.204-.217-.266 1.24a.235.235 0 0 0 .46.099l.251-1.17a3 3 0 0 1-.168 4.055l-.845.845-1.088-1.087a3.06 3.06 0 0 0-2.178-.902c-.692 0-1.35.227-1.887.646q-.032-.234-.068-.425c-.052-.285-.093-.554-.05-.598s.313-.002.598.05c.63.113 1.684.304 2.55-.562.209-.209.323-.486.323-.78s-.114-.573-.323-.781a1.1 1.1 0 0 0-.78-.323c-.295 0-.572.114-.78.323-.044.043-.314.002-.598-.05l-.035-.006zm-5.257 7.536a9 9 0 0 0-.065-.394c-.05-.285-.092-.554-.049-.598s.313-.001.598.05c.117.021.25.045.394.064zM20.3 7.572a5 5 0 0 1-.745-.093c-.52-.094-.8-.133-1.014.08s-.174.495-.08 1.015c.04.223.085.478.093.744l-1.914 1.914a5 5 0 0 1-.745-.093c-.52-.093-.8-.132-1.014.081s-.175.494-.081 1.014c.04.224.086.478.093.745l-1.914 1.914a5 5 0 0 1-.745-.094c-.519-.093-.8-.132-1.013.081-.214.214-.175.495-.081 1.014.04.224.086.478.093.745L9.32 18.553a5 5 0 0 1-.745-.093c-.52-.094-.8-.133-1.014.08s-.174.495-.08 1.015c.04.223.085.478.093.744L5.66 22.213a5 5 0 0 1-.745-.093c-.52-.093-.801-.132-1.014.081-.214.214-.175.495-.081 1.014.11.609.26 1.443-.432 2.134a.634.634 0 0 1-.895-.895c.213-.213.174-.495.08-1.014-.11-.609-.26-1.442.432-2.134.414-.414.879-.527 1.316-.527.293 0 .574.051.818.095.52.094.8.133 1.014-.08s.175-.495.081-1.015c-.11-.608-.26-1.442.432-2.134.691-.692 1.525-.541 2.134-.431.52.093.8.132 1.014-.081s.174-.495.08-1.014c-.11-.609-.26-1.442.432-2.134s1.525-.541 2.134-.432c.52.094.8.133 1.014-.08s.175-.495.08-1.014c-.109-.61-.26-1.443.432-2.134.692-.692 1.526-.542 2.134-.432.52.094.8.133 1.014-.08s.175-.495.081-1.015c-.11-.608-.26-1.442.432-2.134.692-.691 1.525-.541 2.134-.431.52.093.8.132 1.014-.081s.174-.495.08-1.014c-.11-.609-.26-1.442.432-2.134s1.525-.541 2.134-.431c.52.093.8.132 1.014-.081a.634.634 0 0 1 .895.895c-.691.692-1.525.541-2.134.432-.52-.094-.8-.133-1.014.08s-.174.495-.08 1.014c.04.224.086.479.093.745zm-4.973 4.973a8 8 0 0 0-.064-.395c-.051-.284-.093-.554-.05-.597.044-.044.313-.002.598.05.118.02.251.044.395.063zm-3.66 3.66a9 9 0 0 0-.064-.394c-.051-.285-.093-.554-.05-.598s.313-.002.598.05a9 9 0 0 0 .394.064zm-3.66 3.66a9 9 0 0 0-.064-.394c-.052-.285-.093-.554-.05-.598s.313-.001.598.05c.117.021.25.045.394.064zm-2.237-.002c.051.285.093.554.05.597-.044.044-.313.002-.598-.049l-.035-.006.577-.577zm3.66-3.66c.052.284.093.554.05.597s-.313.002-.598-.05l-.034-.006.576-.576zm3.66-3.66c.052.284.094.553.05.597-.043.043-.312.002-.597-.05l-.035-.006.577-.576zm3.661-3.661c.052.285.093.554.05.597-.044.044-.313.002-.598-.05l-.034-.005.576-.577zm3.66-3.66c.052.284.093.554.05.597-.043.044-.313.002-.598-.05l-.034-.006.576-.576zM3.097 19.936l16.84-16.84c.397-.398.892-.64 1.409-.728q-.19.124-.372.303c-.622.623-.699 1.343-.65 1.933l-1.077 1.077c-.59-.049-1.31.028-1.933.65-.623.623-.7 1.343-.65 1.933l-1.078 1.077c-.59-.048-1.31.028-1.932.65-.623.623-.7 1.344-.651 1.934L11.926 13c-.59-.048-1.31.029-1.933.651-.622.623-.699 1.343-.65 1.933l-1.077 1.077c-.59-.049-1.31.028-1.933.65-.623.623-.7 1.343-.65 1.933l-1.078 1.077c-.59-.048-1.31.028-1.933.651q-.18.181-.302.37a2.6 2.6 0 0 1 .727-1.407m2.657 8.714a2.98 2.98 0 0 1-2.12.878 2.97 2.97 0 0 1-1.887-.669l1.125-.173a.235.235 0 1 0-.072-.465l-1.21.186.298-1.233a.235.235 0 0 0-.457-.11l-.288 1.192a2.98 2.98 0 0 1-.672-1.892c0-.8.312-1.553.878-2.12l.755-.755.006.034c.052.285.093.555.05.598a1.105 1.105 0 0 0 .78 1.884 1.1 1.1 0 0 0 .78-.323c.867-.866.676-1.92.563-2.55-.051-.285-.093-.555-.05-.598.044-.043.313-.002.598.05.127.022.27.048.426.067a3.06 3.06 0 0 0-.647 1.888c0 .823.32 1.597.902 2.178l1.087 1.088zm23.011-16.736-16.85 16.85a2.613 2.613 0 0 1-3.69 0l-2.38-2.38a2.6 2.6 0 0 1-.765-1.845c0-.697.272-1.352.765-1.845l16.85-16.85a2.6 2.6 0 0 1 1.845-.763c.668 0 1.337.254 1.845.763l2.38 2.38c.493.492.764 1.148.764 1.845s-.271 1.352-.764 1.845"/></g><defs><clipPath id="a"><path fill="#fff" d="M0 0h30v30H0z"/></clipPath></defs></svg>