<svg xmlns="http://www.w3.org/2000/svg" width="51" height="40" fill="none" viewBox="0 0 51 40"><g fill="#6f4e37" clip-path="url(#a)"><path d="M12.446 0 22.78 8.829c.614.524.967 1.293.967 2.103v6.654L13.413 8.757a2.77 2.77 0 0 1-.967-2.103zm0 40 10.334-8.829a2.77 2.77 0 0 0 .967-2.103v-6.654l-10.334 8.829a2.77 2.77 0 0 0-.967 2.103zM.117 9.31l10.194 8.66c.494.42 1.12.65 1.767.65h8.22L10.13 9.964a2.73 2.73 0 0 0-1.77-.652zm0 21.38 10.131-8.656a2.73 2.73 0 0 1 1.773-.655h8.302l-10.194 8.66c-.494.42-1.12.65-1.767.65zM37.788 0 27.454 8.829a2.77 2.77 0 0 0-.967 2.103v6.654l10.334-8.829a2.77 2.77 0 0 0 .967-2.103zm0 40-10.334-8.829a2.77 2.77 0 0 1-.967-2.103v-6.654l10.334 8.829c.614.524.967 1.293.967 2.103zM50.117 9.31l-10.193 8.66a2.73 2.73 0 0 1-1.767.65h-8.221l10.169-8.657a2.73 2.73 0 0 1 1.769-.652zm0 21.38-10.13-8.656a2.73 2.73 0 0 0-1.773-.655h-8.302l10.193 8.66c.494.42 1.12.65 1.767.65z"/></g><defs><clipPath id="a"><path fill="#fff" d="M0 0h51v40H0z"/></clipPath></defs></svg>