<svg xmlns="http://www.w3.org/2000/svg" width="39" height="50" fill="none" viewBox="0 0 39 50"><g fill="#6f4e37" clip-path="url(#a)"><path d="m8.014 22.442 1-3.25-7.498 7.449a19.2 19.2 0 0 0 4.141 6.121s.66-3.49 4.105-6.385c.62-.52.252-1.846-.83-2.079a1.51 1.51 0 0 1-.918-1.856m21.309 4.868c.95.943 1.75 1.997 2.388 3.146q-.013-.069-.034-.133c-.684-2.126-.643-3.967-.234-4.99a.71.71 0 0 0-.39-.922l-1.817-.746a.382.382 0 0 1-.163-.582l.13-.175c.433-.58.635-1.3.57-2.019l-.156-1.698-4.236 4.21zM19.316 0c-2.401 0-4.757.445-6.956 1.288h13.911A19.4 19.4 0 0 0 19.316 0m11.811 10.227h5.265q.335.627.62 1.279h-6.178q.218-.613.293-1.28m-11.52 0H2.239q-.334.627-.62 1.279H19.9a5.7 5.7 0 0 1-.293-1.28"/><path d="M37.522 12.786h-7.333a5.8 5.8 0 0 1-4.821 2.568 5.8 5.8 0 0 1-4.822-2.568H1.11a19.07 19.07 0 0 0-.093 12.543l7.087-7.042.91-.904 5.148 5.114 4.245-4.21.91-.903.91.903 4.244 4.21 5.147-5.114 7.998 7.946a19.07 19.07 0 0 0-.093-12.543m-8.56-10.219H9.667q-1 .573-1.928 1.262h23.152q-.928-.69-1.928-1.262m1.865 5.101h3.932q.471.623.888 1.28h-4.523a5.7 5.7 0 0 0-.297-1.28m-10.92 0H3.87q-.47.623-.889 1.28H19.61a5.7 5.7 0 0 1 .297-1.28m9.087-2.558h3.442q.273.25.538.511.375.375.73.768h-3.526a5.8 5.8 0 0 0-1.184-1.28m-7.253 0H6.195q-.274.25-.538.511-.376.375-.73.768h15.63a5.8 5.8 0 0 1 1.184-1.28"/><path d="M25.368 14.074c2.489 0 4.507-2.005 4.507-4.478s-2.018-4.478-4.507-4.478c-2.49 0-4.507 2.005-4.507 4.478s2.017 4.478 4.507 4.478m-.481 34.671H13.744a13 13 0 0 0 11.143 0M6.514 35.968q-.063.63-.064 1.262h5.886q.016-.644.148-1.262zm15.849 7.659a7 7 0 0 1-3.048.69 7 7 0 0 1-3.048-.69H8.175q.385.66.855 1.28H29.6q.472-.62.855-1.28zm-12.22 2.56.075.076q.667.66 1.4 1.203h15.395q.733-.543 1.4-1.203l.075-.076zm2.748-11.499c.345-.8.844-1.535 1.483-2.169l4.941-4.9 4.941 4.9a6.9 6.9 0 0 1 1.483 2.17h6.183a12.67 12.67 0 0 0-3.51-6.474l-9.097-9.024-9.097 9.024a12.67 12.67 0 0 0-3.509 6.473zm13.256 1.28a7 7 0 0 1 .148 1.262h5.886q0-.633-.064-1.262zM12.759 39.79a7 7 0 0 1-.336-1.28h-5.91q.067.643.196 1.28zm12.479 1.278a7 7 0 0 1-.982 1.22l-.061.06h6.914q.276-.63.481-1.28zm.97-2.558q-.106.658-.336 1.28h6.05q.13-.637.195-1.28zm-11.772 3.838-.062-.06a7 7 0 0 1-.981-1.22H7.04q.205.65.481 1.28z"/></g><defs><clipPath id="a"><path fill="#fff" d="M0 0h39v50H0z"/></clipPath></defs></svg>