<svg xmlns="http://www.w3.org/2000/svg" width="50" height="50" fill="none" viewBox="0 0 50 50"><path fill="#6f4e37" d="M27.53 40.14c.046-4.59-1.118-8.322-2.598-8.336s-2.716 3.694-2.76 8.283c-.046 4.59 1.118 8.322 2.598 8.336s2.716-3.694 2.76-8.283m-8.583-1.043c2.52-3.836 3.558-7.605 2.321-8.417s-4.282 1.639-6.801 5.475c-2.52 3.837-3.559 7.605-2.321 8.418s4.282-1.64 6.801-5.476m-6.667-5.504c4.193-1.865 7.104-4.473 6.503-5.826-.602-1.352-4.489-.936-8.682.929s-7.105 4.474-6.504 5.826 4.489.937 8.682-.929m6.001-9.619c.224-1.463-3.27-3.215-7.806-3.913s-8.396-.078-8.621 1.385 3.27 3.215 7.805 3.913 8.396.078 8.621-1.385m1.629-3.484c.98-1.11-1.013-4.472-4.452-7.511-3.439-3.04-7.021-4.605-8.001-3.496s1.013 4.473 4.452 7.512c3.439 3.04 7.021 4.604 8.001 3.495m3.243-2.037c1.425-.403 1.566-4.31.317-8.726s-3.418-7.67-4.842-7.267c-1.424.404-1.566 4.31-.316 8.726s3.417 7.67 4.841 7.267m8.808-7.129c1.336-4.39 1.272-8.3-.144-8.73-1.416-.432-3.648 2.778-4.984 7.169-1.337 4.39-1.272 8.3.144 8.73 1.416.431 3.647-2.779 4.983-7.17m6.294 5.934c3.497-2.972 5.556-6.295 4.597-7.423s-4.57.367-8.068 3.338-5.556 6.295-4.598 7.423 4.57-.367 8.069-3.338m2.08 8.395c4.55-.609 8.078-2.291 7.881-3.758s-4.043-2.163-8.592-1.555c-4.549.609-8.077 2.292-7.88 3.759.195 1.467 4.042 2.163 8.591 1.554m5.868 9.289c.629-1.34-2.231-4.005-6.387-5.953-4.156-1.947-8.034-2.44-8.662-1.1s2.232 4.006 6.388 5.954 8.033 2.44 8.661 1.1m-8.741 9.888c1.253-.788.288-4.576-2.155-8.462-2.443-3.885-5.439-6.396-6.692-5.608s-.288 4.576 2.155 8.461 5.439 6.397 6.692 5.609"/></svg>