<svg xmlns="http://www.w3.org/2000/svg" width="214" height="47" fill="none" viewBox="0 0 214 47"><path fill="#6f4e37" d="M5.031 9.178c-.635-1.615-.36-3.471.226-5.032C5.873 2.503 6.945.864 8.547 0c.08 1.731-.45 3.442-1.027 4.985C7 6.371 6.362 7.85 5.31 8.997a32 32 0 0 0-.374 2.6 6.6 6.6 0 0 1 1.621-2.411c.91-.86 2.262-1.524 3.531-1.132-.372 1.403-1.22 2.749-2.223 3.692-.79.743-1.833 1.694-3.061 1.732q-.075 1.906.082 3.77c.174-.909.545-1.764 1.082-2.401.737-.875 1.83-1.945 3.225-1.766-.076 1.42-.643 2.875-1.432 3.969-.627.869-1.454 1.976-2.629 2.262q.283 1.832.783 3.593c.003-.899.201-1.78.595-2.488.555-.998 1.42-2.242 2.817-2.34.204 1.394-.073 2.917-.633 4.128-.447.969-1.044 2.203-2.131 2.714q.686 1.896 1.616 3.675c-.217-1.02-.208-2.097.049-3.065.355-1.335 1.235-2.737 2.649-3.144.5 1.474.43 3.118.14 4.616-.239 1.233-.708 2.682-1.76 3.483a30 30 0 0 0 2.279 3.189c-.446-.994-.668-2.082-.549-3.077.173-1.45.58-3.002 2.062-3.775.84 1.45 1.035 3.077 1.107 4.684.057 1.299-.13 2.9-1.032 3.957a30 30 0 0 0 3.207 2.888c-.739-.947-1.256-2.059-1.365-3.158-.155-1.553-.08-3.262 1.299-4.402 1.178 1.231 1.882 3.044 2.226 4.619.305 1.392.624 3.04-.102 4.41a31 31 0 0 0 4.652 2.496c-1.156-.824-2.102-1.954-2.553-3.12-.591-1.53-.956-3.353.194-4.885 1.542.988 2.675 2.673 3.568 4.21.766 1.318 1.559 3.138 1.165 4.708q1.365.463 2.798.81l-.057.235a33 33 0 0 1-2.808-.813c-.64 1.89-2.736 2.515-4.431 2.79-2.415.394-5.29-.368-7.353-1.901 1.088-1.538 3.309-1.694 4.983-1.812l.022-.001a18 18 0 0 1 5.662.522 31.3 31.3 0 0 1-5.963-3.03l-.027.043c-1.007 1.634-3.03 1.697-4.617 1.594-2.155-.14-4.642-1.45-6.081-3.26 1.353-1.189 3.353-.856 4.903-.599l.008.002c1.729.287 3.619.914 5.205 1.88a8 8 0 0 1-.442-.377 30.4 30.4 0 0 1-4.257-3.67l-.045.044c-1.256 1.263-3.084.932-4.51.521-1.91-.55-3.89-2.21-4.84-4.114 1.47-.824 3.23-.145 4.597.392 1.5.59 3.089 1.532 4.31 2.734a7 7 0 0 1-.36-.496 30 30 0 0 1-3.053-4.1l-.045.029c-1.42.916-3.03.252-4.305-.4-1.729-.885-3.118-2.83-3.719-4.743 1.534-.491 3.05.473 4.228 1.237 1.288.835 2.593 2.026 3.49 3.392a6 6 0 0 1-.184-.412 30 30 0 0 1-2.184-4.714l-.03.01-.003.002c-1.292.49-2.73-.273-3.667-1.11C1.337 22.75.418 20.962.203 19.215c1.346-.175 2.615.867 3.482 1.755.998 1.023 1.894 2.231 2.445 3.574a6 6 0 0 1-.104-.444 30 30 0 0 1-1.131-4.742l-.02.002-.006.001c-1.365.228-2.627-.81-3.382-1.817C.43 16.13-.116 14.174.021 12.4c1.36.095 2.395 1.389 3.067 2.435.777 1.212 1.421 2.583 1.704 4.017a6 6 0 0 1-.016-.344 30.6 30.6 0 0 1-.213-5.036h-.004c-1.388-.05-2.414-1.339-2.944-2.482-.758-1.636-.88-3.703-.374-5.446 1.323.372 2.06 1.889 2.496 3.057.502 1.347.852 2.816.855 4.276a32 32 0 0 1 .44-3.7m27.336-3.022v5.85c0 2.573-2.33 3.811-5.861 3.811-3.302 0-5.668-1.226-5.668-4.114V6.155h3.289v5.547c0 1.031.886 1.675 2.512 1.675 1.554 0 2.476-.668 2.476-1.663V6.155zm10.955 6.991v2.536h-9.09V6.156h3.288v6.991zm9.774-4.6v-2.39H41.725v2.39h4.017v7.137h3.325V8.546z"/><path fill="#6f4e37" fill-rule="evenodd" d="M64.762 7.126c.437.45.644 1.068.644 1.93 0 .74-.182 1.372-.486 1.796-.34.461-.862.85-1.505.947l2.877 3.883h-3.617l-2.367-3.361H57.36v3.361h-3.24V6.156h7.584c1.505 0 2.488.364 3.058.971m-2.62 2.731c.084-.146.108-.34.108-.497 0-.183-.024-.377-.109-.498-.17-.316-.51-.4-1.02-.4h-3.75v1.735h3.811c.522 0 .838-.097.96-.34m8.53 4.065h5.146l.837 1.76h3.508l-4.806-9.528h-3.92l-5.085 9.528h3.434zm4.114-2.136H71.74l1.202-2.294.364-.874.34.862zm-10.37 5.69c-2.036 0-3.107.965-3.107 2.383 0 1.6 1.124 2.412 3.107 2.412 2.183 0 3.1-.941 3.1-2.412 0-1.495-1.035-2.383-3.1-2.383m0 3.613c-1.16 0-1.495-.477-1.495-1.212 0-.724.365-1.2 1.489-1.2 1.23 0 1.506.535 1.506 1.2 0 .706-.335 1.212-1.5 1.212" clip-rule="evenodd"/><path fill="#6f4e37" d="M58.292 22.202v-2.736H55.22v.994h1.642a.74.74 0 0 1-.147.312c-.17.2-.624.376-1.212.376-.612 0-1.006-.159-1.218-.406-.141-.182-.224-.44-.224-.83 0-.405.083-.682.242-.864.23-.259.617-.37 1.188-.37.512 0 .865.117 1.03.264a.63.63 0 0 1 .206.294h1.524a1.6 1.6 0 0 0-.136-.553c-.364-.741-1.212-1.183-2.653-1.183-1.254 0-2.095.383-2.56.96-.306.394-.447.888-.447 1.441 0 .612.165 1.136.436 1.483.458.594 1.276.888 2.259.888.865 0 1.46-.206 1.836-.517l.04.447zm-16.029-2.795c1.194.13 1.706.553 1.706 1.359 0 .977-.953 1.506-2.83 1.506-1.747 0-2.5-.494-2.789-1.141a2 2 0 0 1-.112-.46h1.695a.6.6 0 0 0 .112.248c.14.17.535.27 1.206.27.865 0 1.07-.123 1.07-.352 0-.248-.211-.3-.994-.383-.311-.03-.806-.076-1.012-.094-1.494-.135-2.047-.6-2.047-1.395 0-.823.977-1.453 2.76-1.453 1.582 0 2.318.47 2.624 1.06.094.176.152.376.17.517h-1.694a.4.4 0 0 0-.095-.212c-.129-.17-.459-.282-1.047-.282-.83 0-1.047.1-1.047.312 0 .235.276.288 1.2.388.359.03.93.088 1.124.112"/><path fill="#6f4e37" fill-rule="evenodd" d="M25.37 17.977c.312.247.489.665.489 1.27 0 .495-.124.866-.36 1.125-.317.364-.84.53-1.523.535-.212.006-2.024 0-2.024 0v1.295h-1.583v-4.62h3.583c.636 0 1.118.13 1.418.395m-1.17 1.63a.66.66 0 0 0 .07-.336c0-.152-.03-.282-.082-.353-.1-.147-.288-.217-.594-.217H21.94v1.13h1.642c.33 0 .523-.077.618-.224m7.449-1.553c.211.217.311.517.311.935 0 .359-.088.665-.235.87a1.13 1.13 0 0 1-.73.46l1.395 1.883h-1.753l-1.148-1.63h-1.43v1.63h-1.57v-4.62h3.677c.73 0 1.206.177 1.482.471m-1.271 1.323a.5.5 0 0 0 .052-.24.44.44 0 0 0-.052-.242c-.083-.153-.247-.194-.495-.194h-1.818v.841h1.848c.253 0 .406-.047.465-.165" clip-rule="evenodd"/><path fill="#6f4e37" d="M37.762 22.202v-1.148h-3.313v-.6h3.177V19.33H34.45v-.594h3.271v-1.153h-4.824v4.619zm11.933-3.46v-1.16h-5.513v1.16h1.947v3.46h1.612v-3.46zm2.12-1.159v4.619h-1.618v-4.62zm8.855 0v4.619h-1.618v-4.62zm13.09 0v2.836c0 1.247-1.13 1.847-2.842 1.847-1.6 0-2.748-.594-2.748-1.994v-2.69h1.595v2.69c0 .5.429.812 1.218.812.753 0 1.2-.324 1.2-.806v-2.695zm6.352 3.183c0-.806-.512-1.23-1.706-1.36a40 40 0 0 0-1.124-.111c-.924-.1-1.201-.153-1.201-.388 0-.212.218-.312 1.048-.312.588 0 .918.112 1.047.282a.4.4 0 0 1 .094.212h1.695a1.6 1.6 0 0 0-.171-.518c-.306-.588-1.041-1.059-2.624-1.059-1.783 0-2.76.63-2.76 1.453 0 .795.554 1.26 2.048 1.395l.096.009.16.014.756.071c.783.082.994.135.994.383 0 .229-.205.353-1.07.353-.671 0-1.065-.1-1.207-.271a.6.6 0 0 1-.111-.247H74.38c.018.117.047.306.112.459.288.647 1.04 1.141 2.789 1.141 1.877 0 2.83-.53 2.83-1.506"/><path fill="#6f4e37" fill-rule="evenodd" d="M38.966 23.97c-1.323 0-2.019.627-2.019 1.549 0 1.04.73 1.568 2.02 1.568 1.418 0 2.015-.612 2.015-1.568 0-.971-.673-1.549-2.016-1.549m0 2.348c-.753 0-.97-.31-.97-.788 0-.47.236-.78.967-.78.799 0 .979.348.979.78 0 .46-.218.788-.976.788" clip-rule="evenodd"/><path fill="#6f4e37" d="M31.609 26.108c0-.524-.333-.8-1.11-.884a26 26 0 0 0-.73-.072c-.6-.065-.78-.1-.78-.253 0-.137.142-.202.68-.202.383 0 .597.072.681.183a.25.25 0 0 1 .062.138h1.1a1 1 0 0 0-.11-.337c-.199-.382-.677-.688-1.706-.688-1.158 0-1.793.41-1.793.945 0 .516.36.818 1.33.906.135.011.456.042.659.061.508.054.646.088.646.249 0 .149-.134.23-.696.23-.436 0-.692-.066-.784-.177a.4.4 0 0 1-.073-.16h-1.101c.011.076.03.198.072.298.188.42.677.742 1.813.742 1.22 0 1.84-.344 1.84-.98"/><path fill="#6f4e37" fill-rule="evenodd" d="M23.974 26.192c0 .206-.058.409-.172.543-.176.214-.505.306-.93.306h-2.665v-3.002H22.8c.413 0 .677.1.822.248a.68.68 0 0 1 .187.498q.002.294-.145.474a.58.58 0 0 1-.363.195.8.8 0 0 1 .531.283c.096.11.142.279.142.455m-1.289-1.052a.26.26 0 0 0 .061-.176.22.22 0 0 0-.072-.176c-.054-.05-.154-.069-.299-.069H21.21v.49h1.193c.13 0 .23-.02.283-.069m-.172 1.22c.18 0 .287-.023.348-.08q.055-.059.053-.169a.24.24 0 0 0-.065-.18c-.057-.049-.156-.072-.325-.072H21.21v.501z" clip-rule="evenodd"/><path fill="#6f4e37" d="M27.574 26.295v.746H24.41v-3.002h3.136v.75H25.42v.386h2.065v.73H25.42v.39zm7.756-2.256v.753h-1.27v2.249h-1.048v-2.249h-1.266v-.753zm9.151 0v.76h-2.038v.425h1.942v.754h-1.942v1.063h-1.029v-3.002zm5.181.753v-.753H46.08v.753h1.266v2.249h1.048v-2.249zm3.909-.753v3.002h-1.024v-1.09h-1.538v1.09h-1.025v-3.002h1.025v1.093h1.538V24.04zm3.77 3.001v-.745h-2.153v-.39h2.065v-.73h-2.065v-.387h2.126v-.75H54.18v3.003zm6.339-3.001h.99l-1.096 3.002H62.45s-.602-1.794-.606-1.843c-.002.05-.608 1.843-.608 1.843h-1.12l-1.124-3.002h1.113s.65 1.889.65 1.935c0-.046.6-1.935.6-1.935h1.076s.604 1.889.604 1.935c0-.046.646-1.935.646-1.935"/><path fill="#6f4e37" fill-rule="evenodd" d="M66.635 23.97c-1.323 0-2.019.627-2.019 1.549 0 1.04.73 1.568 2.02 1.568 1.418 0 2.014-.612 2.014-1.568 0-.971-.673-1.549-2.015-1.549m0 2.348c-.753 0-.97-.31-.97-.788 0-.47.236-.78.966-.78.8 0 .98.348.98.78 0 .46-.219.788-.976.788m5.802-1.973c.137.141.202.336.202.608 0 .233-.057.432-.153.566a.73.73 0 0 1-.474.298l.906 1.224h-1.139l-.746-1.06h-.929v1.06h-1.021v-3.002h2.39c.474 0 .784.115.964.306m-.826.86a.33.33 0 0 0 .034-.157.3.3 0 0 0-.034-.156c-.054-.1-.161-.127-.322-.127h-1.181v.547h1.2c.165 0 .264-.03.303-.107" clip-rule="evenodd"/><path fill="#6f4e37" d="M76.111 27.04v-.799h-1.828V24.04h-1.036v3.002z"/><path fill="#6f4e37" fill-rule="evenodd" d="M80.166 25.484c0 .467-.046.72-.183.956-.207.379-.616.6-1.34.6h-2.125v-3h2.103c.719 0 1.144.202 1.354.55.149.234.19.482.19.895m-1.717.819c.325 0 .509-.077.62-.245.069-.103.088-.344.088-.555-.004-.19-.027-.393-.088-.485-.12-.18-.298-.245-.612-.245h-.914v1.53z" clip-rule="evenodd"/><path fill="#6f4e37" d="M39.144 41.64H37.56s-1.034 3.023-1.034 3.096c0-.073-.967-3.096-.967-3.096h-1.72s-.96 3.023-.96 3.096c0-.073-1.04-3.096-1.04-3.096h-1.78l1.798 4.803h1.793s.967-2.87.973-2.949c.006.08.967 2.95.967 2.95h1.798zm2.17 4.803V41.64H39.63v4.803zm6.544-4.803v4.803h-1.64l-2.38-2.673v2.673H42.26V41.64h1.725l2.307 2.613V41.64zm6.555 4.803V41.64h-1.566v2.613L50.54 41.64h-1.725v4.803h1.578V43.77l2.38 2.673zm6.017-1.193v1.193h-5.06V41.64h5.017v1.2h-3.403v.618h3.304v1.168h-3.304v.624z"/><path fill="#6f4e37" fill-rule="evenodd" d="M66.896 43.103c0-.435-.104-.747-.324-.973-.288-.306-.783-.49-1.542-.49h-3.824v4.803h1.634V44.75h1.487l1.193 1.694h1.823l-1.45-1.957c.324-.05.587-.245.76-.478.151-.214.243-.532.243-.905m-1.59.153c0 .08-.013.177-.056.25-.06.123-.22.172-.483.172h-1.92v-.875h1.89c.256 0 .428.043.513.202a.46.46 0 0 1 .055.25" clip-rule="evenodd"/><path fill="#6f4e37" d="m34.26 33.167-.664-2.042-.663 2.042h-2.148l1.737 1.262-.663 2.042 1.737-1.262 1.737 1.262-.663-2.042 1.737-1.262zm6.997-2.044.677 2.043h2.191l-1.773 1.262.678 2.042-1.773-1.262-1.773 1.262.677-2.042-1.772-1.262h2.19zm8.277 2.043-.677-2.043-.678 2.043h-2.19l1.772 1.262-.677 2.042 1.773-1.262 1.772 1.262-.677-2.042 1.773-1.262zm6.922-2.043.677 2.043h2.191l-1.772 1.262.677 2.042-1.773-1.262-1.773 1.262.678-2.042-1.773-1.262h2.191zm8.324 2.043-.664-2.043-.664 2.043h-2.147l1.737 1.262-.663 2.042 1.737-1.262 1.737 1.262-.663-2.042 1.737-1.262zM92.638 9.222c.635-1.614.36-3.47-.226-5.032-.616-1.643-1.688-3.282-3.29-4.146-.08 1.732.45 3.442 1.027 4.985.52 1.387 1.157 2.865 2.21 4.012q.243 1.305.373 2.599a6.6 6.6 0 0 0-1.62-2.41c-.909-.86-2.262-1.524-3.53-1.132.371 1.403 1.218 2.749 2.222 3.692.79.743 1.833 1.695 3.061 1.732q.075 1.907-.083 3.77c-.173-.908-.544-1.764-1.081-2.4-.737-.876-1.83-1.945-3.225-1.766.076 1.42.643 2.875 1.432 3.968.626.87 1.454 1.977 2.63 2.263a30 30 0 0 1-.784 3.592c-.003-.899-.201-1.78-.595-2.488-.555-.998-1.42-2.242-2.817-2.34-.205 1.394.073 2.917.633 4.129.447.968 1.044 2.203 2.131 2.714a30 30 0 0 1-1.617 3.675c.218-1.021.21-2.097-.048-3.066-.355-1.335-1.235-2.737-2.649-3.144-.5 1.474-.43 3.118-.14 4.616.24 1.233.708 2.682 1.76 3.483a30 30 0 0 1-2.28 3.19c.447-.994.668-2.082.55-3.078-.174-1.45-.58-3.001-2.062-3.774-.84 1.45-1.036 3.076-1.107 4.683-.058 1.3.13 2.901 1.032 3.958a30 30 0 0 1-3.206 2.887c.738-.947 1.255-2.058 1.364-3.157.155-1.553.08-3.263-1.299-4.402-1.178 1.23-1.882 3.044-2.226 4.618-.305 1.392-.623 3.04.102 4.41a31 31 0 0 1-4.652 2.496c1.156-.823 2.102-1.954 2.553-3.12.591-1.53.956-3.353-.194-4.884-1.542.987-2.675 2.672-3.568 4.209-.766 1.318-1.559 3.138-1.165 4.708q-1.365.464-2.798.811l.057.235a33 33 0 0 0 2.808-.814c.64 1.89 2.736 2.516 4.431 2.791 2.415.393 5.291-.368 7.353-1.902-1.089-1.538-3.309-1.694-4.983-1.811l-.022-.002a18 18 0 0 0-5.662.523 31.3 31.3 0 0 0 5.963-3.03l.025.04c1.007 1.636 3.031 1.7 4.62 1.596 2.154-.14 4.641-1.45 6.08-3.26-1.354-1.188-3.353-.856-4.903-.598l-.008.001c-1.729.287-3.618.914-5.204 1.88q.226-.18.442-.377a30.4 30.4 0 0 0 4.255-3.67l.054.053c1.256 1.253 3.08.922 4.503.512 1.91-.55 3.89-2.21 4.839-4.114-1.471-.824-3.229-.145-4.596.392-1.503.59-3.092 1.534-4.314 2.738q.19-.24.361-.497a30 30 0 0 0 3.055-4.102l.04.024.009.006c1.42.913 3.027.25 4.301-.402 1.73-.885 3.12-2.83 3.72-4.743-1.535-.49-3.05.474-4.228 1.237-1.29.836-2.596 2.028-3.492 3.395q.1-.203.185-.413a30 30 0 0 0 2.184-4.716l.031.01.005.003c1.291.488 2.728-.274 3.665-1.11 1.302-1.164 2.221-2.952 2.436-4.7-1.346-.174-2.615.868-3.482 1.756-.998 1.024-1.895 2.233-2.446 3.576q.061-.22.105-.446a30 30 0 0 0 1.131-4.742l.038.005c1.36.22 2.618-.814 3.37-1.819 1.058-1.413 1.603-3.37 1.466-5.143-1.359.095-2.395 1.389-3.066 2.435-.778 1.213-1.423 2.585-1.705 4.02q.014-.172.016-.346a30.6 30.6 0 0 0 .213-5.036c1.39-.05 2.418-1.339 2.948-2.482.757-1.636.88-3.704.374-5.446-1.323.371-2.06 1.888-2.496 3.056-.502 1.347-.852 2.816-.855 4.277a32 32 0 0 0-.439-3.7M204.286 3.47c.895 1.337 1.753 2.986 1.331 4.754-1.457-.834-2.63-2.196-3.559-3.54-.936-1.354-1.909-2.794-2.242-4.462 1.839.47 3.485 1.775 4.47 3.247m-79.019 4.752c-.421-1.768.44-3.417 1.336-4.753.987-1.472 2.633-2.776 4.472-3.245-.334 1.668-1.308 3.107-2.245 4.46-.931 1.344-2.105 2.705-3.563 3.538"/><path fill="#6f4e37" d="M123.984 11.613c.329-1.4.322-2.933.009-4.246-.275-1.155-.676-2.786-1.994-3.337-.959 1.537-1.344 3.63-.785 5.199.403 1.135 1.13 2.635 2.636 2.867 1.382.318 2.779-.419 3.883-1.027 1.227-.677 2.43-1.754 3.16-3.034-1.34-.676-2.866-.127-4.014.399-1.237.567-2.374 1.783-2.895 3.18m26.822 1.344v-7.03h-2.4V8.49h-3.601V5.93h-2.4v7.03h2.4v-2.553h3.601v2.552zm7.958-7.03h2.651l-3.761 4.71v2.32h-2.409v-2.31l-3.717-4.72h2.732l2.221 2.812z"/><path fill="#6f4e37" fill-rule="evenodd" d="M169.774 6.528c.475.376.744 1.012.744 1.935 0 .752-.188 1.316-.547 1.71-.483.555-1.28.806-2.319.815-.322.009-3.081 0-3.081 0v1.97h-2.409v-7.03h5.454c.967 0 1.702.197 2.158.6m-1.782 2.48c.072-.125.108-.286.108-.51 0-.232-.045-.43-.126-.537-.152-.224-.439-.331-.904-.331h-2.517v1.72h2.499c.501 0 .797-.117.94-.341" clip-rule="evenodd"/><path fill="#6f4e37" d="M178.883 11.212v1.746h-7.406v-7.03h7.344v1.755h-4.98v.905h4.836v1.71h-4.836v.914z"/><path fill="#6f4e37" fill-rule="evenodd" d="M187.875 6.645c.323.33.475.788.475 1.424 0 .546-.134 1.011-.359 1.325-.25.34-.635.627-1.11.698l2.123 2.866h-2.669l-1.746-2.48h-2.176v2.48h-2.392v-7.03h5.598c1.11 0 1.836.269 2.256.717m-1.934 2.015a.75.75 0 0 0 .08-.368c0-.134-.017-.277-.08-.367-.125-.233-.376-.295-.752-.295h-2.767v1.28h2.811c.386 0 .618-.071.708-.25" clip-rule="evenodd"/><path fill="#6f4e37" d="M177.6 21.776c0-1.607-1.021-2.452-3.402-2.71a80 80 0 0 0-2.24-.223c-1.842-.2-2.393-.305-2.393-.774 0-.422.434-.621 2.088-.621 1.173 0 1.83.222 2.088.563.129.164.176.293.187.422h3.379a3.2 3.2 0 0 0-.341-1.032c-.609-1.173-2.076-2.112-5.231-2.112-3.554 0-5.502 1.255-5.502 2.898 0 1.583 1.103 2.51 4.082 2.78.337.028 1.061.097 1.653.153l.037.003h.006l.003.001.319.03c1.56.165 1.982.27 1.982.763 0 .457-.41.703-2.134.703-1.338 0-2.124-.199-2.405-.54-.117-.14-.2-.351-.223-.492h-3.378c.035.235.094.61.223.915.574 1.29 2.076 2.276 5.56 2.276 3.742 0 5.642-1.056 5.642-3.003"/><path fill="#6f4e37" fill-rule="evenodd" d="M153.651 23.7c.352-.411.528-1.033.528-1.666 0-.54-.141-1.056-.434-1.396-.352-.458-.974-.786-1.63-.868.445-.059.868-.293 1.114-.598.305-.364.446-.857.446-1.455s-.176-1.126-.575-1.525c-.446-.457-1.255-.762-2.522-.762h-7.953v9.208h8.176c1.302 0 2.311-.282 2.85-.938m-3.237-5.431c0 .222-.071.41-.188.54-.164.152-.469.21-.868.21h-3.66v-1.501h3.578c.446 0 .751.058.915.21.152.13.223.318.223.54m.352 4.035c-.188.176-.516.246-1.068.246h-4v-1.537h4.035c.517 0 .822.07.997.223.141.14.2.317.2.552 0 .222-.047.398-.164.516" clip-rule="evenodd"/><path fill="#6f4e37" d="M165.224 22.35v2.288h-9.701V15.43h9.619v2.299h-6.522v1.185h6.334v2.24h-6.334v1.197zm23.791-4.61v-2.31h-10.991v2.31h3.883v6.898h3.213v-6.897zm-.279 15.046h-.517l-.037-.498c-.158.252-.492.555-1.198.555-1.192 0-1.746-.719-1.746-2.553 0-1.418.353-2.559 1.808-2.559 1.262 0 1.646.826 1.665 1.715h-.631c-.018-.58-.277-1.116-1.021-1.116-.894 0-1.153.536-1.153 1.98 0 1.506.322 1.978 1.166 1.978.593 0 .939-.327 1.053-.718v-.94h-1.274v-.573h1.878v1.45c0 .433.004.895.006 1.128l.001.11z"/><path fill="#6f4e37" fill-rule="evenodd" d="M142.744 31.532h1.765l.365 1.254h.669l-1.463-4.992h-.813l-1.563 4.992h.662zm1.607-.561h-1.437l.637-2.061c.006-.032.107-.479.107-.479l.07.331.031.148c.006.032.592 2.061.592 2.061" clip-rule="evenodd"/><path fill="#6f4e37" d="M150.327 27.794h.605l-1.179 4.992h-.75s-.838-3.882-.838-4.046c-.006.164-.863 4.046-.863 4.046h-.75l-1.179-4.992h.681s.914 3.952.914 4.11c0-.158.838-4.11.838-4.11h.75s.838 3.959.838 4.11c0-.151.933-4.11.933-4.11"/><path fill="#6f4e37" fill-rule="evenodd" d="M153.52 31.532h-1.765l-.378 1.254h-.662l1.563-4.992h.813l1.462 4.992h-.668zm-1.595-.561h1.437s-.586-2.03-.592-2.061l-.048-.227-.053-.252s-.101.447-.107.479zm5.058-3.177c.769 0 1.185.36 1.185 1.406 0 .889-.334 1.185-.681 1.286l.958 2.3h-.693l-.889-2.174h-1.21v2.174h-.631v-4.992zm-.095 2.25c.498 0 .618-.258.618-.825 0-.643-.189-.838-.649-.838h-1.198v1.663zm5.476.164c0 1.179-.088 1.658-.34 2.017-.252.347-.649.561-1.292.561h-1.714v-4.992h1.67c.63 0 1.122.19 1.349.53.252.365.327.82.327 1.884m-1.764 1.986c.384 0 .706-.101.869-.322.177-.24.227-.724.227-1.664 0-.787-.044-1.21-.227-1.48-.17-.234-.498-.335-.882-.335h-.933v3.8z" clip-rule="evenodd"/><path fill="#6f4e37" d="M169.014 27.794h.605l-1.179 4.992h-.75s-.838-3.882-.838-4.046c-.007.164-.864 4.046-.864 4.046h-.75l-1.178-4.992h.68s.914 3.952.914 4.11c0-.158.838-4.11.838-4.11h.75s.839 3.959.839 4.11c0-.151.933-4.11.933-4.11m1.719 0v4.992h-.656v-4.992zm4.103 0v4.992h-.725l-1.859-3.87v3.87h-.611v-4.992h.762l1.816 3.814v-3.814zm4.087 0v4.992h-.725l-1.859-3.87v3.87h-.611v-4.992h.762l1.816 3.814v-3.814zm1.547 0v4.992h-.656v-4.992zm4.104 0v4.992h-.725l-1.859-3.87v3.87h-.612v-4.992h.763l1.816 3.814v-3.814zM149.84 42.625l-.722-2.223-.722 2.223h-2.337l1.89 1.374-.722 2.222 1.891-1.373 1.891 1.374-.722-2.223 1.891-1.374zm8.352 0-.737-2.223-.737 2.223h-2.385l1.93 1.374-.737 2.223 1.929-1.374 1.93 1.374-.737-2.223 1.929-1.374zm8.274 0-.738-2.223-.737 2.223h-2.385l1.93 1.374-.737 2.223 1.929-1.374 1.93 1.374-.737-2.223 1.93-1.374zm8.271 0L174 40.402l-.737 2.223h-2.385l1.929 1.374-.737 2.223 1.93-1.374 1.929 1.374-.737-2.223 1.93-1.374zm8.324 0-.722-2.223-.723 2.223h-2.337l1.891 1.374-.722 2.223 1.891-1.374 1.891 1.374-.723-2.223 1.892-1.374zm-63.333-27.233c.68 1.037 1.732 2.335 3.265 2.298 1.395.07 2.599-.882 3.548-1.676 1.022-.855 1.944-2.106 2.333-3.459-1.426-.415-2.791.354-3.81 1.079-1.063.757-1.881 2.143-2.056 3.566a9.2 9.2 0 0 0-1.022-4.084c-.568-1.085-1.361-2.55-2.775-2.843-.557 1.687-.379 3.751.517 5.119"/><path fill="#6f4e37" d="M123.447 23.275c-1.424.238-2.812-.634-3.713-1.66-1.161-1.32-1.852-3.091-1.711-4.865 1.462.037 2.569 1.301 3.388 2.257a9.5 9.5 0 0 1 1.95 3.78c-.152-1.392.315-2.895 1.183-3.824.837-.897 2.01-1.874 3.47-1.717-.031 1.411-.739 2.756-1.469 3.764-.68.938-1.728 2.1-3.098 2.265"/><path fill="#6f4e37" d="M120.818 27.966c1.311.853 2.901 1.698 4.571 1.058 1.371-.485 2.242-1.864 2.778-3.13.568-1.342.947-2.89.685-4.358-1.506.134-2.755 1.211-3.419 2.527-.693 1.375-.826 3.012-.293 4.454-.787-1.484-1.939-2.684-3.158-3.793-1.108-1.008-2.705-2.07-4.313-1.87.306 1.988 1.519 4.05 3.149 5.112"/><path fill="#6f4e37" d="M128.765 34.4c1.29-.772 1.809-2.394 2.021-3.785.229-1.499.219-3.153-.403-4.575-1.497.418-2.524 1.765-2.863 3.24a5.92 5.92 0 0 0 .815 4.547c-1.158-1.33-2.699-2.427-4.176-3.197-1.426-.743-3.176-1.64-4.888-1.098.825 2.015 2.592 3.892 4.551 4.668 1.516.602 3.361 1.196 4.943.2"/><path fill="#6f4e37" d="M134.881 34.921c.189 1.447.184 3.283-.94 4.397-1.404 1.437-3.577 1.16-5.253.844-2.251-.425-4.784-1.96-6.141-4.003 1.658-.913 3.686-.33 5.327.144l.094.026c1.832.528 3.785 1.377 5.418 2.537-1.304-1.178-2.253-2.906-2.3-4.648-.041-1.558.635-3.225 2.09-3.968 1.016 1.334 1.492 3.046 1.705 4.671"/><path fill="#6f4e37" d="M141.402 43.416c.827-1.575.007-3.424-.646-4.79-.773-1.615-1.828-3.262-3.338-4.444-1.45 1.25-1.312 3.038-.881 4.592.512 1.848 2.29 3.423 4.13 4.321a23.7 23.7 0 0 0-6.674-1.413l-.224-.014c-1.78-.116-4.096-.267-5.514 1.035 2.144 1.823 5.189 2.874 7.873 2.82 1.798-.037 4.266-.25 5.274-2.107m65.496-31.798c-.52-1.397-1.656-2.615-2.893-3.183-1.148-.527-2.673-1.077-4.013-.402.729 1.281 1.93 2.359 3.157 3.036 1.102.61 2.499 1.348 3.881 1.03 1.507-.23 2.235-1.73 2.64-2.865.561-1.567.177-3.661-.779-5.2-1.32.55-1.722 2.182-1.998 3.336-.314 1.314-.323 2.847.005 4.248"/><path fill="#6f4e37" d="M205.815 13.637c1.062.758 1.877 2.143 2.052 3.565a9.24 9.24 0 0 1 1.026-4.081c.569-1.084 1.364-2.55 2.778-2.841.555 1.688.375 3.752-.523 5.118-.679 1.035-1.731 2.331-3.261 2.297-1.397.07-2.603-.883-3.552-1.679-1.021-.856-1.942-2.108-2.329-3.46 1.426-.415 2.791.355 3.809 1.08"/><path fill="#6f4e37" d="M207.508 22.797c.156-1.394-.31-2.9-1.179-3.831-.836-.898-2.008-1.876-3.468-1.72.03 1.412.736 2.757 1.465 3.765.68.94 1.726 2.1 3.095 2.268 1.424.24 2.814-.63 3.717-1.657 1.162-1.32 1.854-3.09 1.716-4.864-1.463.036-2.571 1.3-3.391 2.254a9.5 9.5 0 0 0-1.955 3.785"/><path fill="#6f4e37" d="M205.435 24.065c.693 1.376.824 3.013.29 4.455.788-1.483 1.941-2.683 3.161-3.79 1.109-1.008 2.707-2.069 4.315-1.868-.307 1.988-1.523 4.05-3.154 5.11-1.31.85-2.898 1.694-4.567 1.057-1.372-.484-2.244-1.866-2.78-3.135-.567-1.342-.945-2.89-.68-4.358 1.505.135 2.754 1.213 3.415 2.53"/><path fill="#6f4e37" d="M202.526 33.824a5.92 5.92 0 0 0 .819-4.543c-.337-1.475-1.364-2.823-2.861-3.242-.623 1.422-.634 3.075-.408 4.575.211 1.387.727 3.007 2.01 3.78 1.583 1.005 3.433.411 4.951-.19 1.959-.775 3.728-2.65 4.556-4.666-1.713-.542-3.463.353-4.89 1.096-1.476.768-3.017 1.863-4.177 3.19"/><path fill="#6f4e37" d="M195.978 34.917c-.19 1.447-.187 3.282.936 4.397 1.402 1.439 3.576 1.163 5.252.848 2.251-.423 4.785-1.956 6.145-3.999-1.657-.914-3.686-.331-5.327.14l-.095.027c-1.832.526-3.785 1.373-5.419 2.531 1.304-1.176 2.255-2.903 2.303-4.645.043-1.558-.632-3.225-2.086-3.97-1.018 1.334-1.495 3.046-1.709 4.67"/><path fill="#6f4e37" d="M194.72 45.517c-1.798-.038-4.266-.253-5.271-2.11l-.015-.026c-.803-1.57.014-3.406.664-4.764.774-1.615 1.831-3.26 3.342-4.441 1.45 1.25 1.31 3.039.878 4.592-.515 1.848-2.294 3.422-4.136 4.318a23.8 23.8 0 0 1 6.676-1.408l.225-.014c1.78-.114 4.096-.263 5.513 1.04-2.146 1.82-5.192 2.87-7.876 2.813"/></svg>