<svg xmlns="http://www.w3.org/2000/svg" width="52" height="30" fill="none" viewBox="0 0 52 30"><path fill="#6f4e37" d="M15.878 26.198q.001.561.11 1.106.464-.214.88-.53c3.403-2.569 2.888-9.05-1.15-14.476-3.505-4.711-8.513-7.079-12-5.94.111.239.192.492.285.741l.13.497c.045.167.064.335.098.503.107.673.137 1.343.193 1.98.053.64.157 1.241.355 1.81.08.29.226.555.343.83l.228.391c.075.13.148.264.244.384.18.246.346.501.554.727l.296.348c.106.108.214.208.323.311.208.22.452.38.679.568.249.155.487.322.757.44.527.268 1.102.462 1.725.65.621.199 1.286.42 1.922.75.323.156.617.368.916.568.275.233.57.445.804.71.122.131.25.254.365.386l.327.412c.226.267.402.571.59.865.1.142.178.302.258.458.078.16.162.316.234.476.12.335.263.661.338 1.012.181.688.237 1.4.224 2.072-.006.672-.052 1.318-.03 1.95z"/><path fill="#6f4e37" d="M41.63 27.822a207 207 0 0 0-7.848-.372 16.36 16.36 0 0 0 6.81-6.035 7.7 7.7 0 0 0 3.616.897c4.296 0 7.792-3.522 7.792-7.848s-3.495-7.848-7.792-7.848q-.71 0-1.403.127a1 1 0 0 0-.117-.11C42.002 2.92 34.98 0 26.42 0c-7.336 0-13.54 2.144-15.597 5.095a.75.75 0 0 0 .107 1.253c2.755 1.463 5.343 4.354 7.103 7.934q.108.216.217.452c2.025 4.349 2.604 9.075 1.553 12.66q-2.172.044-4.343.127l.078-.027c-.028-.074-.054-.153-.082-.227l-.13-.497c-.045-.167-.065-.335-.098-.502-.108-.673-.137-1.344-.195-1.98-.053-.639-.157-1.24-.354-1.81-.081-.29-.227-.555-.345-.83l-.224-.392c-.075-.13-.148-.264-.244-.384-.181-.244-.346-.503-.553-.726l-.298-.347c-.103-.108-.215-.208-.32-.313-.207-.218-.451-.381-.68-.568-.247-.153-.485-.32-.756-.44-.526-.269-1.103-.462-1.724-.651-.621-.199-1.286-.42-1.922-.75-.321-.156-.617-.368-.917-.567-.273-.231-.569-.446-.803-.712-.122-.13-.249-.255-.365-.385L5.201 15c-.226-.267-.4-.573-.59-.865a4 4 0 0 1-.256-.46c-.08-.158-.163-.314-.237-.474-.12-.335-.264-.661-.337-1.01a7.5 7.5 0 0 1-.224-2.071c.005-.675.05-1.317.03-1.951 0-.564-.089-1.123-.246-1.665q-.582.24-1.091.624c-3.402 2.568-2.888 9.05 1.15 14.477 2.487 3.345 5.735 5.508 8.657 6.073a166 166 0 0 0-5.096.352 80 80 0 0 0-2.668.268c.89.108 1.778.193 2.668.268.889.08 1.778.144 2.667.205 1.778.12 3.556.21 5.335.285q5.334.209 10.67.206c3.556 0 7.112-.067 10.669-.21 1.778-.073 3.556-.164 5.335-.284a150 150 0 0 0 2.667-.204 83 83 0 0 0 2.667-.267 77 77 0 0 0-2.667-.267q-1.334-.114-2.667-.205zm1.356-14.736V8.23q.601-.12 1.222-.12c3.479 0 6.308 2.85 6.308 6.353 0 3.504-2.83 6.354-6.308 6.354a6.25 6.25 0 0 1-2.882-.703 15.6 15.6 0 0 0 1.662-7.028zM25.627 27.33q-1.451 0-2.904.015a15 15 0 0 1-1.303-.274c.876-3.815.215-8.594-1.827-12.975q-.078-.168-.154-.327c2.117.445 4.484.694 6.982.694 6.8 0 12.629-1.843 15.083-4.463v3.086c0 7.167-5.38 13.132-12.414 14.265a268 268 0 0 0-3.463-.022z"/><path fill="#6f4e37" d="M39.7 14.688a.75.75 0 0 0-.483-.937.743.743 0 0 0-.932.486c-.017.058-1.897 5.852-6.708 8.257a.75.75 0 0 0 .331 1.416.74.74 0 0 0 .33-.078c2.236-1.118 4.235-3.055 5.782-5.597 1.16-1.909 1.66-3.48 1.681-3.547z"/></svg>