<svg xmlns="http://www.w3.org/2000/svg" width="24" height="24" fill="none" viewBox="0 0 24 24"><g fill="#fff" clip-path="url(#a)"><path d="m4.79 21.342-1.407-6.436-1.193.762A4.54 4.54 0 0 0 0 19.538c0 1.326.585 2.575 1.605 3.426a4.45 4.45 0 0 0 3.66.96l.715-.132c-.607-.686-1.039-1.516-1.19-2.45M22.27.925A4.48 4.48 0 0 0 19.533 0c-1.575 0-3.058.84-3.858 2.174L14.9 3.383l6.55 1.427c.862.138 1.666.566 2.339 1.166l.139-.757A4.39 4.39 0 0 0 22.271.925M11.818 22.428 5.808 12.41a4.8 4.8 0 0 1-.577-1.512c-.555.783-.858 1.804-.66 2.785l1.607 7.363a3.5 3.5 0 0 0 1.777 2.518c.955.525 2.077.58 3.079.15l1.32-.587a5 5 0 0 1-.536-.7m9.884-9.407L11.685 7.01a3.4 3.4 0 0 0-4.16.512 3.4 3.4 0 0 0-.512 4.16l6.01 10.017a3.515 3.515 0 0 0 5.501.677l3.855-3.855a3.515 3.515 0 0 0-.677-5.5m1.861-5.069a3.47 3.47 0 0 0-2.481-1.77L13.67 4.565c-.95-.19-1.965.115-2.743.658.512.108 1.013.3 1.481.582l10.018 6.01c.255.153.486.333.704.523l.584-1.308c.428-1 .373-2.124-.15-3.078"/></g><defs><clipPath id="a"><path fill="#fff" d="M0 0h24v24H0z"/></clipPath></defs></svg>